<svg height="24" viewBox="0 0 23 24" width="23" xmlns="http://www.w3.org/2000/svg"><path d="m5.72470514 17.4120233c.36862443.3448851.71453685.2659047.71453685.6789107 0 .3033097-.40847158 1.4035954-1.01517196 1.7694674-1.26240615.5645328-2.50443081 1.102732-3.79741739 1.5912319.86718344-1.8923357 1.39543678-3.0590112 1.60243104-3.5574471.16382336-.4864529.94305213-.9941623 1.76090667-1.1745279.24238201-.0607312.36609037.34748.73471479.692365zm15.72013356-15.40934806c.0692817.58895229.6921534 5.04458365-2.2597937 9.12391856-1.9212643 2.5949586-4.8261683 4.5738116-8.7147118 5.9365589l-4.20650647-4.2087857c1.29984136-3.67698026 3.12352278-6.44691153 5.47104427-8.30979377 2.1968823-1.70725794 5.5143913-3.20060293 9.7099677-2.54189799zm-16.05710446 10.11699076-3.8416013-1.6102438c.52399606-1.12422363 1.34933024-1.91208217 2.57088596-2.41533934.9369238-.39339885 2.17753584-.49828758 3.41031258-.37207976-.58307784.92533272-.95172141 1.65563938-1.18890272 2.13994588-.23718131.48430652-.5523401 1.22831332-.95069452 2.25771702zm10.13811016 3.7534734c.155553 1.1964027.0238566 2.5769662-.42393 3.6289956-.497122 1.0379799-1.1588152 1.8013608-2.3454781 2.390593l-1.6363185-3.9140183c1.0227072-.3915102 1.776214-.705856 2.2605205-.9430373s1.1971143-.601132 2.1452061-1.162533zm-1.2853963-8.71115689c1.0198995 0 1.8466915.82679192 1.8466915 1.84669144 0 1.01989955-.826792 1.84669145-1.8466915 1.84669145s-1.8466914-.8267919-1.8466914-1.84669145c0-1.01989952.8267919-1.84669144 1.8466914-1.84669144z" fill="#28ffbb" fill-rule="evenodd"/></svg>