<svg height="24" viewBox="0 0 22 24" width="22" xmlns="http://www.w3.org/2000/svg"><path d="m1.01609548 9.14295944 1.22066105-5.41006817c.07441628-.24553998.19508124-.38477611.3619949-.41770838.16691366-.03293228 2.27936891-.13799324 6.33736575-.31518289.11226513 0 .20591815.05099492.28095908.15298476.07504092.10198984.97960994 1.17791836 2.71370704 3.22778558.2018054.12898715.3985917.12898715.5903591 0s1.024746-1.15084964 2.498936-3.06558745c.1564253-.21012193.2896377-.31518289.3996373-.31518289s1.8823317.18307105 5.3169963.54921314c.1755253.05063781.263288.18874906.263288.41433372v17.62977934c0 .2711159-.1291345.4066738-.3874036.4066738-.258269 0-1.8954019 0-4.9113988 0h-.560251v-9.5l-2.6198042 3.2957764c-.1990529.1240844-.3958393.1240844-.5903591 0-.1945198-.1240845-1.0558635-1.2226766-2.58403086-3.2957764v9.5h-.41063526-5.19898126c-.19288271-.0693502-.28932406-.2049082-.28932406-.4066738s0-4.2273288 0-12.0766897c-1.32690576 0-2.07606492 0-2.24747749 0s-.23282553-.12455902-.18423889-.37367706z" fill="#aaa" fill-rule="evenodd"/></svg>