<svg height="23" viewBox="0 0 29 23" width="29" xmlns="http://www.w3.org/2000/svg"><g fill="none" fill-rule="evenodd"><g fill="#aaa"><rect height="4.791667" rx="2.377049" width="4.754098" x="24.245902" y="9.104167"/><rect height="6.708333" rx="3.327869" width="6.655738" x="4.754098"/><path d="m17.5899183 9.08905376c0-1.84410847-1.4898826-3.33905376-3.327746-3.33905376s-3.3277461 1.49494529-3.3277461 3.33905376c.0292139.01275658 6.702347.02641753 6.6554921 0z"/><path d="m26.147541 11.5h1v5.75h-1z"/><path d="m24.2421448 14.869194h.9583333v3.8032787h-.9583333z" transform="matrix(0 1 -1 0 41.492144 -7.950478)"/><path d="m6.6557377 10.5416667v12.4583333h-6.6557377v-12.4583333zm-5.04672076 3.8333333h-1.1336071v2.630039h.89149145c.07781182-.3444038.23013596-.5906333.45697242-.7386886.34025468-.2220829.67690865-.111571 1.03414808.1324429.23815962.162676.43152917.272516.58010866.3295199-.32207635.3477912-.58223244.6423629-.78046825.8837152-.29735373.3620284-.73445013 1.1186012-.83378849 1.3831033-.06622558.1763346-.11151339.5529574-.13586346 1.1298683h2.13470197c.00496908-.0459525.01602273-.1151168.03316097-.207493l.04238923-.2157014c.033668-.1644337.07815303-.3701329.13345508-.6170975.18664442-.8335057.79004564-1.7329422 1.07327868-2.2453434.18882202-.3416008.54726592-.8345126 1.07533169-1.4787355l-.94994286-.9856292c-.09207616.1337177-.1858119.2406104-.28120724.320678-.14309299.1201014-.70151757.4042907-1.24778193.144905-.54626437-.2593857-.81166895-.465583-1.20061348-.465583-.25929635 0-.55655149.1068927-.89176542.320678z"/><path d="m14.7377049 10.5416667v2.4601215l.6570871 1.3732118-.6570871 1.284324v7.340676h-6.65573769v-6.2291667c0-.2402162-.88428305.2067201-.90193376 0-.1191906-1.3959263-.1191906-2.8406014 0-4.334025h.90193376v-1.8951416zm-5.74932862 2.3958333h-1.51147613v3.5067186h1.18865526c.10374911-.459205.30684796-.787511.60929657-.984918.45367291-.2961106.90254482-.1487614 1.37886412.1765905.3175461.2169013.5753722.3633546.7734782.4393599-.4294351.4637216-.7763099.8564838-1.0406243 1.1782869-.39647167.4827045-.97926687 1.4914683-1.11171802 1.8441376-.08830077.235113-.14868452.7372767-.18115128 1.5064912h2.8462693c.0198763-.18381.1127675-.646162.2786737-1.387056.2488592-1.1113409 1.0533942-2.3105895 1.4310382-2.9937911.2517627-.4554677.7296879-1.1126835 1.4337756-1.9716473l-1.2665904-1.3141723c-.1227683.1782903-.2477493.3208138-.374943.4275706-.1907907.1601353-.9353568.5390543-1.6637093.1932067s-1.0822252-.6207773-1.600818-.6207773c-.34572842 0-.74206861.1425235-1.18902052.4275706z"/><path d="m22.8196721 10.5416667v12.4583333h-6.6557377v-12.4583333zm-5.0467207 3.8333333h-1.1336071v2.630039h.8914914c.0778118-.3444038.230136-.5906333.4569724-.7386886.3402547-.2220829.6769087-.111571 1.0341481.1324429.2381596.162676.4315292.272516.5801087.3295199-.3220764.3477912-.5822325.6423629-.7804683.8837152-.2973537.3620284-.7344501 1.1186012-.8337885 1.3831033-.0662255.1763346-.1115134.5529574-.1358634 1.1298683h2.1347019c.0049691-.0459525.0160228-.1151168.033161-.207493l.0423892-.2157014c.033668-.1644337.0781531-.3701329.1334551-.6170975.1866444-.8335057.7900457-1.7329422 1.0732787-2.2453434.188822-.3416008.5472659-.8345126 1.0753317-1.4787355l-.9499429-.9856292c-.0920761.1337177-.1858119.2406104-.2812072.320678-.143093.1201014-.7015176.4042907-1.2477819.144905-.5462644-.2593857-.811669-.465583-1.2006135-.465583-.2592964 0-.5565515.1068927-.8917654.320678z"/></g><path d="m13.7241273 12.1507865 2.0014589 2.0766474c-.828104.9910596-1.3826242 1.7321471-1.6565399 2.227692-.0760461.1375762-.1689303.2956187-.2711302.4693553-.3858041.6558546-.9223249 1.5516992-1.1116855 2.3973349-.1595678.7125886-.2507512 1.1570503-.2698711 1.333865l-3.81666933.4276522c.02267664-1.1339876.11166642-1.8481335.22658782-2.1541276.14205711-.3782465.76460617-1.4618633 1.19001391-1.9797975.1768916-.2153657.3900476-.4619982.6394177-.7398151-.4564299-.3038276-.6317278-.4044436-.80976764-.4272451-.59669851.2658677-.72066009.6436027-.77162138 1.1410373h-2.0765871v-4.465052h2.0735734c.25520405.1033823.48954894.0597734.70072042.0332832.8925195-.0377317 1.2369622.1367144 1.7342478.3942174.1413842.0732111.2976448.1542073.4774713.2395954.1944531.0923332.3907094.1070163.5650259.0867729.2752267-.0319621.5040117-.1460937.585101-.2141539.2016053-.1692122.3885973-.4608279.590254-.8472618z" stroke="#aaa" stroke-width=".958333"/></g></svg>