<svg height="24" viewBox="0 0 29 24" width="29" xmlns="http://www.w3.org/2000/svg"><g fill="#fff" fill-rule="evenodd" transform="translate(1 2)"><path d="m17.4584766 0c5.5522495 0 10.0327863 4.61021831 10.0493604 10.2272502 0 5.5144266-4.4188074 10.2391782-10.0493604 10.2272728-5.6285933 0-10.00843742-4.7128462-10.00843742-10.2272728 0-5.51442651 4.37377992-10.22636691 10.00843742-10.2272502zm.3291495 3.97726836h-.8167081v1.30208191c-1.3288811.21701365-2.1732742 1.15740613-2.1732742 2.44502046 0 1.12847098.6090705 1.82291467 2.1732742 2.50289077v3.9062457c-.8582357-.0868054-1.4949912-.752314-1.6472588-1.7505768l-.9966608.2893516c.2491652 1.4033549 1.3427236 2.4160853 2.6439196 2.459488v1.3454846h.8167081v-1.4033549c1.384251-.3182867 2.2701717-1.4467577 2.2701717-2.8645802 0-.8680546-.3599053-1.5914334-1.0381883-2.0543959-.3460628-.24594879-.6367555-.40509213-1.2319834-.67997609v-3.1683993c.4706453.11574062.7890231.39062457 1.1350858.9982628l.8028657-.54976792c-.4014329-.79571672-1.1350859-1.35995221-1.9379515-1.46122525zm-.022148 6.24999314c.8113266.4459144 1.1461598.906213 1.1461598 1.6254297 0 .8199071-.4249806 1.4672021-1.1461598 1.7836575zm-.57308-3.97726836v2.84090597c-.7967209-.38073997-1.1461599-.80541148-1.1461599-1.39116529 0-.70290457.4333044-1.25937069 1.1461599-1.44974068z"/><path d="m8.59619906 20.454523c-.69599726-.3771561-6.08132437-3.1949632-6.15623665-10.2224193.08914063-7.23539211 5.77477978-10.01145818 6.15623665-10.2321037-6.09624956 1.03773957-8.69319369 6.44626425-8.59343643 10.2321037.00350255 5.6090154 4.24456965 9.6528821 8.59343643 10.2224193z"/><path d="m12.0346787 20.454523c-.6959973-.3771561-6.08132439-3.1949632-6.15623667-10.2224193.08914063-7.23539211 5.77477977-10.01145818 6.15623667-10.2321037-6.09624958 1.03773957-8.6931937 6.44626425-8.59343644 10.2321037.00350254 5.6090154 4.24456964 9.6528821 8.59343644 10.2224193z"/></g></svg>