<svg xmlns="http://www.w3.org/2000/svg" width="29" height="24" viewBox="0 0 29 24">
  <g fill="#AAA" fill-rule="evenodd" transform="translate(1 2)">
    <path d="M17.4584766,0 C23.0107261,0 27.4912629,4.61021831 27.507837,10.2272502 C27.507837,15.7416768 23.0890296,20.4664284 17.4584766,20.454523 C11.8298833,20.454523 7.45003918,15.7416768 7.45003918,10.2272502 C7.45003918,4.71282369 11.8238191,0.000883285573 17.4584766,0 Z M17.7876261,3.97726836 L16.970918,3.97726836 L16.970918,5.27935027 C15.6420369,5.49636392 14.7976438,6.4367564 14.7976438,7.72437073 C14.7976438,8.85284171 15.4067143,9.5472854 16.970918,10.2272615 L16.970918,10.2272615 L16.970918,14.1335072 C16.1126823,14.0467018 15.4759268,13.3811932 15.3236592,12.3829304 L15.3236592,12.3829304 L14.3269984,12.672282 C14.5761636,14.0756369 15.669722,15.0883673 16.970918,15.13177 L16.970918,15.13177 L16.970918,16.4772546 L17.7876261,16.4772546 L17.7876261,15.0738997 C19.1718771,14.755613 20.0577978,13.627142 20.0577978,12.2093195 C20.0577978,11.3412649 19.6978925,10.6178861 19.0196095,10.1549236 C18.6735467,9.90897481 18.382854,9.74983147 17.7876261,9.47494751 L17.7876261,9.47494751 L17.7876261,6.30654821 C18.2582714,6.42228883 18.5766492,6.69717278 18.9227119,7.30481101 L18.9227119,7.30481101 L19.7255776,6.75504309 C19.3241447,5.95932637 18.5904917,5.39509088 17.7876261,5.29381784 L17.7876261,5.29381784 L17.7876261,3.97726836 Z M17.7654781,10.2272615 C18.5768047,10.6731759 18.9116379,11.1334745 18.9116379,11.8526912 C18.9116379,12.6725983 18.4866573,13.3198933 17.7654781,13.6363487 L17.7654781,13.6363487 Z M17.1923981,6.24999314 L17.1923981,9.09089911 C16.3956772,8.71015914 16.0462382,8.28548763 16.0462382,7.69973382 C16.0462382,6.99682925 16.4795426,6.44036313 17.1923981,6.24999314 L17.1923981,6.24999314 Z"/>
    <path d="M8.59619906,20.454523 C7.9002018,20.0773669 2.51487469,17.2595598 2.43996241,10.2321037 C2.52910304,2.99671159 8.21474219,0.220645524 8.59619906,-8.14395573e-14 C2.4999495,1.03773957 -0.0969946277,6.44626425 0.00276263212,10.2321037 C0.00626518006,15.8411191 4.24733228,19.8849858 8.59619906,20.454523 Z"/>
    <path d="M12.0346787,20.454523 C11.3386814,20.0773669 5.95335431,17.2595598 5.87844203,10.2321037 C5.96758266,2.99671159 11.6532218,0.220645524 12.0346787,-8.14395573e-14 C5.93842912,1.03773957 3.341485,6.44626425 3.44124226,10.2321037 C3.4447448,15.8411191 7.6858119,19.8849858 12.0346787,20.454523 Z"/>
  </g>
</svg>
