<svg height="24" viewBox="0 0 35 24" width="35" xmlns="http://www.w3.org/2000/svg"><path d="m18.6988024 2c1.811055 0 3.4938684.4467303 5.0484907 1.3402043 1.610717.9251014 2.8768338 2.16250479 3.7983883 3.71224731.929568 1.54974251 1.394345 3.22596949 1.394345 5.02873119 0 1.7948548-.464777 3.4710818-1.394345 5.0287312-.897514 1.5102082-2.1115436 2.7120313-3.6421255 3.6055053-1.6347575.948822-3.4057183 1.4232258-5.3129354 1.4232258-1.7389333 0-3.4097266-.4506836-5.01243-1.3520645-1.6908522-.9488219-2.9930292-2.2336657-3.90657022-3.8545699-.12192684-.2174723-.23493463-.4386674-.3390234-.6635852l2.47743052-.0003103c.3638885.5806393.8130401 1.1182096 1.3474555 1.6127127.8654599.8064987 1.8511077 1.3995035 2.9569731 1.7790323.8414193.2925534 1.6748126.438828 2.5002049.438828 1.4905143 0 2.8808387-.3834765 4.171015-1.1504409 1.2661357-.7511507 2.2437702-1.7473988 2.9329326-2.9887742.665122-1.1939343.997678-2.4866848.997678-3.8782903 0-2.27717269-.8213732-4.21036841-2.4641443-5.79964517-.8494328-.8302192-1.8350807-1.43113076-2.9569731-1.80275269-.8814869-.29255343-1.7509405-.43882795-2.6083869-.43882795-1.5546223 0-2.9729936.40324328-4.2551564 1.20974193-1.1699735.73533701-2.0875075 1.69205146-2.7526295 2.87017204-.6727048 1.18857651-1.0170847 2.43740444-1.033149 3.74651954l-2.22293149-.0003905.00504136-.2727213c.05580764-1.5413083.47436539-2.98374357 1.25568333-4.32734322.929568-1.59718361 2.1596245-2.85435384 3.6902063-3.77154838 1.6587981-.99626305 3.4337655-1.4943871 5.3249556-1.4943871zm-.4806876 10.9577922v2.0543559h-18.2181148v-2.0543559zm16.1360446 0v2.0543559h-2.6025879v-2.0543559z" fill="#28ffbb"/></svg>