<svg height="24" viewBox="0 0 25 24" width="25" xmlns="http://www.w3.org/2000/svg"><g fill="#fff" fill-rule="evenodd" transform="translate(1 1)"><path d="m9.52520398 5.89363501c-.45290547.09404265-.91885572.16384169-1.39258706.20443563-.92503483 1.55959693-1.19943284 3.03417209-1.28285075 3.75978891-.10790547-.00383388-.21569652-.0086826-.32383085-.0086826-3.60493532 0-6.52593532 2.87833645-6.52593532 6.43087065 0 1.7536586.71734826 3.3495645 1.87501493 4.511228l.03718905.0369856c1.18089552 1.1634677 2.81343781 1.8823188 4.61373134 1.8829954 3.60459208-.0006766 6.52524878-2.8791258 6.52524878-6.431209 0-3.0893122-2.2123483-5.6706362-5.15989554-6.28935563.07700995-.67408506.36193532-2.23717758 1.41593035-3.79147474.06808457-.10475494.14349253-.2077057.21798507-.30558222"/><path d="m19.9531866.62434888c.4990199.49152505.457597 1.54076584.0850199 1.66987715-.4717861.16970525-1.0719602.06111644-2.2013632.35001004.0462288-.14331919.0754079-.27028804.0962338-.39770793-2.1795074.74196716-3.4203632 1.96891924-3.6841194 3.65909336-.291791 1.86822369.7445821 3.66709939 1.1223085 3.95430157.0501194.00823155.0979502.02616055.1415472.04476611.2804627-.03518142.5674478-.05559116.8604975-.05728257 3.6029901.00169141 6.5258209 2.88250859 6.5258209 6.43459179 0 3.5524215-2.9206567 6.4306454-6.5254776 6.4306454-1.6507363.0004508-3.1578656-.6083457-4.3096965-1.6041378 1.1582388-1.288294 1.8627712-2.9785809 1.8604826-4.8284245.0022886-1.8498437-.7022438-3.5400178-1.8583085-4.8271843.6403383-.5565881 1.3907563-.9889136 2.2158956-1.2654035-.4971891-.68209111-.8980299-1.73742099-1.0434677-2.58549622-.202194-1.16583563-.2439602-3.57080152 2.2100597-5.27958121-.119005.02706263-.237209.05773362-.3536965.0863749-6.49023385 6.2280137-14.56472141 1.75388407-14.56472141 1.75388407s6.33209453-7.00662817 14.69345271-2.83932113c.7651791-.1727498 1.6011891-.29971865 2.5159254-.36929217-.1563085-.26408618-.3347015-.38316176-.3347015-.38316176s1.3097413-.27434743 2.0267463-.19439991c.2162686.02469465.3889403.1167076.5215622.24784861"/></g></svg>