<svg xmlns="http://www.w3.org/2000/svg" width="25" height="24" viewBox="0 0 25 24">
  <g fill="#AAA" fill-rule="evenodd" transform="translate(1 1)">
    <path d="M9.52520398,5.89363501 C9.07229851,5.98767766 8.60634826,6.0574767 8.13261692,6.09807064 C7.20758209,7.65766757 6.93318408,9.13224273 6.84976617,9.85785955 C6.7418607,9.85402567 6.63406965,9.84917695 6.52593532,9.84917695 C2.921,9.84917695 -1.76747506e-13,12.7275134 -1.76747506e-13,16.2800476 C-1.76747506e-13,18.0337062 0.717348259,19.6296121 1.87501493,20.7912756 L1.91220398,20.8282612 C3.0930995,21.9917289 4.72564179,22.71058 6.52593532,22.7112566 C10.1305274,22.71058 13.0511841,19.8321308 13.0511841,16.2800476 C13.0511841,13.1907354 10.8388358,10.6094114 7.89128856,9.99069197 C7.96829851,9.31660691 8.25322388,7.75351439 9.30721891,6.19921723 C9.37530348,6.09446229 9.45071144,5.99151153 9.52520398,5.89363501"/>
    <path d="M19.9531866,0.624348877 C20.4522065,1.11587393 20.4107836,2.16511472 20.0382065,2.29422603 C19.5664204,2.46393128 18.9662463,2.35534247 17.8368433,2.64423607 C17.8830721,2.50091688 17.9122512,2.37394803 17.9330771,2.24652814 C15.7535697,2.9884953 14.5127139,4.21544738 14.2489577,5.9056215 C13.9571667,7.77384519 14.9935398,9.57272089 15.3712662,9.85992307 C15.4213856,9.86815462 15.4692164,9.88608362 15.5128134,9.90468918 C15.7932761,9.86950776 16.0802612,9.84909802 16.3733109,9.84740661 C19.976301,9.84909802 22.8991318,12.7299152 22.8991318,16.2819984 C22.8991318,19.8344199 19.9784751,22.7126438 16.3736542,22.7126438 C14.7229179,22.7130946 13.2157886,22.1042981 12.0639577,21.108506 C13.2221965,19.820212 13.9267289,18.1299251 13.9244403,16.2800815 C13.9267289,14.4302378 13.2221965,12.7400637 12.0661318,11.4528972 C12.7064701,10.8963091 13.4568881,10.4639836 14.2820274,10.1874937 C13.7848383,9.50540259 13.3839975,8.45007271 13.2385597,7.60199748 C13.0363657,6.43616185 12.9945995,4.03119596 15.4486194,2.32241627 C15.3296144,2.3494789 15.2114104,2.38014989 15.0949229,2.40879117 C8.60468905,8.63680487 0.530201493,4.16267524 0.530201493,4.16267524 C0.530201493,4.16267524 6.86229602,-2.84395293 15.2236542,1.32335411 C15.9888333,1.15060431 16.8248433,1.02363546 17.7395796,0.954061943 C17.5832711,0.689975759 17.4048781,0.570900179 17.4048781,0.570900179 C17.4048781,0.570900179 18.7146194,0.296552747 19.4316244,0.376500272 C19.647893,0.401194924 19.8205647,0.493207873 19.9531866,0.624348877"/>
  </g>
</svg>
