<svg height="24" viewBox="0 0 103 24" width="103" xmlns="http://www.w3.org/2000/svg"><g fill="none" fill-rule="evenodd"><path d="m0 0h103v24h-103z" fill="#fff" opacity="0"/><g fill-rule="nonzero"><path d="m12-6.496h91.429v38.496h-91.429z" fill="#333" opacity="0"/><g><path d="m99.1018924 1.47961546c2.1528656 0 3.8981076 1.73609741 3.8981076 3.87768211v14.76502043c0 2.1415846-1.745242 3.877682-3.8981076 3.877682h-95.20378469c-2.15286545 0-3.89810771-1.7360974-3.89810771-3.877682v-14.76502043c0-2.1415847 1.74524226-3.87768211 3.89810771-3.87768211zm-84.8854807 9.43505064-10.92179953 2.5128672 7.48404343 8.1763319 11.4538485-3.3648717zm-.4324725 1.6302471 5.4837379 5.0102636-8.0130101 2.3540513-5.12781077-5.6023558zm21.6357245-5.31140834c-1.1685224 0-2.1907459.40223495-3.0666709 1.20670485-1.007117.92381433-1.6372153 2.23881319-1.890295 3.94499659-.2340659 1.5779987-.0358008 2.8200648.5947953 3.7261985.631252.9017135 1.6152054 1.3525703 2.9518606 1.3525703 1.0802526 0 2.0156032-.3337224 2.8060516-1.0011672.7904486-.6674448 1.3487445-1.533797 1.6748882-2.5990566h-1.9230179c-.2050466.5038987-.4250339.8818227-.6599617 1.1337721-.4267805.4685374-.9806395.7028061-1.661577.7028061-.6641243 0-1.1711203-.2729451-1.520988-.8188354s-.4435012-1.3669358-.2809009-2.4631365c.1626005-1.0962008.4921817-1.9437673.9887436-2.54269954.4965621-.59893225 1.0979219-.8983984 1.8040792-.8983984.6935474 0 1.1853894.21216789 1.475526.63650367.1621511.23868885.2715271.59230197.328128 1.06083937h1.9419329c.061056-.6099826-.0631618-1.21775521-.3726533-1.82331772-.5629929-1.07852008-1.6263064-1.61778012-3.1899407-1.61778012zm9.2903031-.11271418c-1.3282484 0-2.3997354.38013412-3.2144607 1.14040238-1.0746395.89729333-1.7447278 2.24102324-2.0102647 4.03118984-.2602919 1.7548052.011163 3.0985351.8143648 4.0311898.5891827.7602682 1.5478984 1.1404024 2.8761468 1.1404024 1.3282485 0 2.3997352-.3801342 3.2144607-1.1404024 1.0756813-.9326547 1.7436679-2.2763846 2.0039597-4.0311898.2655371-1.7901666-.0038162-3.13389651-.8080599-4.03118984-.5891828-.76026826-1.5478983-1.14040238-2.8761467-1.14040238zm-18.1408114 2.47394293c-1.0519661 0-1.9486023.37274136-2.6899081 1.11822409-.741306.7454827-1.1837866 1.7155363-1.3274419 2.9101608-.1458827 1.2131458.0641713 2.156575.6301621 2.8302876.5659908.6737127 1.314458 1.010569 2.2454014 1.010569.381687 0 .7282632-.0370426 1.0397287-.1111279.5788112-.1296492 1.0813325-.3796868 1.5075636-.750113.2536943-.2129951.4926561-.487342.7168856-.8230407.2242298-.3356988.3690619-.6401428.4344963-.9133321h-1.2358276c-.1326275.3287532-.325688.6181487-.5791818.8681864-.4427791.4306204-.9923262.6459307-1.6486415.6459307-.7028623 0-1.1944408-.2280437-1.4747352-.6841309-.2802945-.4560873-.3866991-1.0615026-.3192135-1.816246h5.48093c.0902021-.750113.1186672-1.2964916.0853953-1.6391359-.0236501-.5000753-.138602-.9376413-.3448556-1.3126978-.2133359-.3935778-.5541367-.714228-1.0224024-.96195051-.4682658-.24772253-.9677177-.37158378-1.4983554-.37158378zm27.7731995-2.42753122c-1.3618748 0-2.5276491.47737774-3.4973223 1.43213324-.9696735.95475547-1.5718709 2.22334257-1.8065924 3.80576147-.2320991 1.5647381-.0052011 2.797964.680694 3.6996775.6529242.8972933 1.5951722 1.34594 2.8267442 1.34594.7481908 0 1.4032751-.1657562 1.9652534-.4972685.3266284-.1900671.7114116-.5171592 1.1543499-.9812765l.0144957 1.2199654h1.2862153l.777925-5.2445249h-3.8712557l-.2419337 1.6310406h2.1499971c-.1917452.6409238-.5250221 1.1591881-.9998309 1.5547928-.4748089.3956047-1.0379704.593407-1.6894848.593407-.6641242 0-1.2197479-.2497393-1.6668713-.7492178-.4471233-.4994786-.581517-1.3503602-.403181-2.5526449.1770247-1.1934444.5502692-2.0874226 1.1197336-2.68193468s1.2282918-.89176814 1.9764824-.89176814c.3909086 0 .7352707.07293271 1.0330865.21879813.5323125.26520986.8225255.73153719.8706388 1.39898199h1.910408c.0345699-.94149498-.2597633-1.72717918-.8829993-2.35705259s-1.52542-.94481012-2.7065525-.94481012zm10.1567388.25194937h-4.5584981l-1.4496354 9.77298324h1.8977981l.5684458-3.8322825h2.0049827c.5716511 0 .9461012.1038739 1.12335.3116216.1772489.2077478.2238535.6232432.1398138 1.2464864l-.1221255.9083437c-.0384136.2873107-.0527257.5679911-.042936.8420413.0055506.1326049.0216857.3072014.0484055.5237895h2.137387l.0363884-.2453191c-.1672434-.1193445-.2573992-.3049914-.2704671-.5569407-.0100234-.159126.0180752-.4619072.0842955-.9083438l.0973636-.6563944c.1016254-.6851255.0878682-1.1945494-.0412716-1.5282718-.1291396-.3337224-.394638-.591197-.7964948-.7724237.5403419-.1856469.955175-.5027937 1.2444989-.9514404.2893239-.4486466.4684075-.9050286.5372504-1.3691458.0570414-.38455434.0490075-.72711706-.0241015-1.02768823-.0731089-.30057119-.1921848-.57462137-.3572279-.82215056-.1992085-.30057118-.4628274-.52820964-.7908567-.68291539-.3280294-.15470575-.8168178-.23868887-1.4663651-.25194936zm9.2042292 0h-2.194132l-4.7660528 9.77298324h2.0302024l.9410991-2.0089647h3.4236024l.3009813 2.0089647h2.1058621zm9.8887794 1.81192479h-.6460726l-2.3745269 7.15879775h.5873389l.7131971-2.2470671h2.7521018l.6964159 2.2470671h.5873389zm4.4553122 0h-1.8781958v7.15879775h1.8781958c.1832386 0 .3639322-.0115999.542081-.0347997.1781486-.0231998.3499347-.0662852.5153585-.1292561s.3232126-.1507988.4733665-.2634835c.1501538-.1126848.2888552-.2618264.4161043-.4474249.1272491-.1789699.2328658-.3761683.31685-.5915951.0839844-.2154268.1514265-.4407963.202326-.6761087.0508997-.2353123.0878019-.475596.1107068-.7208511.0229048-.2452551.0343572-.487196.0343572-.7258226s-.0139974-.4987958-.0419922-.7805078c-.0279947-.2817119-.0763494-.5601096-.1450638-.835193-.0687145-.2750835-.1616063-.5369099-.2786755-.7854792-.1170691-.2485694-.2672229-.45902481-.4504615-.63136624-.1272491-.11931328-.2583157-.21542677-.3931996-.28834044-.1348839-.0729137-.2735855-.12759895-.4161043-.16405579-.1425189-.03645685-.2875828-.05965665-.4351918-.06959943-.1476089-.00994276-.2977627-.01491415-.4504616-.01491415zm5.6251657 0h-2.110292v7.15879775h.5088646v-3.2512873h1.6014274c.1247216 0 .2457018.0099427.3629402.0298283.1172386.0198855.223252.0596566.3180405.1193133.0947886.0596566.1758577.1474845.2432074.2634835.0673497.1159991.1159912.2701121.1459244.462339.0199555.1391989.0336749.3181688.0411583.5369099.0074832.218741.017461.4441106.0299333.6761086.012472.2319981.029933.4540534.052383.6661659.0224499.2121126.0611137.3778255.1159912.4971388h.5612479v-.0695994c-.034922-.0331426-.0648553-.0811994-.0897997-.1441703-.0249443-.0629709-.0461471-.1507987-.0636081-.2634835s-.0324277-.2585122-.0448997-.4374821c-.0124722-.1789699-.0212028-.4043395-.0261916-.6761087-.0049888-.1855984-.0137194-.3778254-.0261917-.5766809-.012472-.1988555-.041158-.3877682-.0860579-.5667381-.0448999-.17897-.1122496-.3380544-.2020493-.4772532-.0897996-.1391989-.2145214-.2452551-.3741652-.3181688.3093099-.1855985.5325618-.410968.6697558-.6761087.1371939-.2651406.205791-.6230805.205791-1.0738196 0-.6628517-.1571495-1.141762-.4714484-1.43673098-.3142987-.29496898-.7682858-.44245347-1.3619614-.44245347zm-5.7396898.57668093c.2290483 0 .4555515.01657128.6795098.04971386.2239583.03314259.4173769.10605627.5802557.21874106.1934185.1325703.3512073.2999404.4733663.5021101.1221591.2021698.2188685.4242251.2901279.6661659.0712594.2419409.1196141.4971387.1450639.7655937.0254499.2684549.0381747.5319384.0381747.7904505 0 .2452551-.0139973.500453-.0419922.7655937-.0279948.2651406-.0763493.5186814-.1450639.7606222-.0687144.2419409-.1616063.4656533-.2786753.6711373-.1170691.205484-.2672231.3678827-.4504617.487196-.2137783.1458274-.4237393.2369694-.6298828.2734263-.2061434.0364568-.4262843.0546852-.6604224.0546852h-1.2444957v-6.00543582zm-43.4796094-.9564725c.7692071 0 1.3353189.29946613 1.6983354.8983984.3630166.59893222.4632246 1.44649872.3006241 2.54269952-.1632561 1.1006209-.5150685 1.9492924-1.0554376 2.5460146-.5403689.5967222-1.195157.8950833-1.9643641.8950833-.7692072 0-1.3386355-.2983611-1.7082848-.8950833s-.4728459-1.4453937-.3095898-2.5460146.518221-1.9492925 1.0648951-2.54601465c.546674-.59672218 1.2046145-.89508327 1.9738217-.89508327zm38.7942102.95817251 1.1836666 3.75666881h-2.3661364zm-10.9920877-.15458921.5902119 3.84421942h-2.3580612zm-45.8941782 1.03030742c.8052661 0 1.3439314.3009713 1.6159961.9029139.1472123.3241229.2138464.7570585.1999024 1.2988068h-4.1543355c.1001126-.6389852.3705839-1.1656849.8114141-1.5800992.4408303-.4144143.9498378-.6216215 1.5270229-.6216215zm67.3263215-.87741822c.1696215 0 .333007.01988554.4901564.05965664.1571495.03977109.2968379.10937052.4190651.20879828.1222274.0994277.2195104.2353123.2918489.4076537.0723387.1723415.108508.3910825.108508.6562232 0 .2518836-.0349221.4673104-.1047664.6462803-.0698441.17897-.1646327.3264545-.2843655.4424535-.119733.115999-.2606684.2005126-.4228067.2535407-.1621384.0530282-.3379959.0795422-.527573.0795422h-1.5864608v-2.75414852zm-29.84374-.69126264c.4203318 0 .7270573.05746214.9201763.1723864.3439354.20332757.4719749.60114234.3841183 1.19344436-.0813003.5481004-.3290717.914974-.743314 1.1006209-.234308.1060839-.5700347.1591259-1.0071797.1591259h-2.2004369l.3894544-2.62557756z" fill="#999"/><path d="m6.667 14.488 4.965 5.154 10.021-7.87-10.021 3.777z" fill="#c4c8cc"/><path d="m4.914 9.998 6.718 9.191 13.577-19.189-13.577 13.489z" fill="#6e6e6e"/></g></g></g></svg>