<svg height="30" viewBox="0 0 78 30" width="78" xmlns="http://www.w3.org/2000/svg"><g fill="none" fill-rule="evenodd"><path d="m0 0h78v30h-78z" fill="#000" opacity="0"/><path d="m10.95 7.91930836-1.7 2.30835734c-.85-.98559077-1.65-1.40057636-2.7-1.40057636-1.325 0-2.35.85590778-2.35 1.91930836 0 .9337176.575 1.426513 2.525 2.1786743 1.85.7002882 2.575 1.0893372 3.325 1.7377522.975.8559078 1.475 2.1008646 1.475 3.6311239 0 3.3976946-2.35 5.7060519-5.8 5.7060519-2.4 0-4.225-1.037464-5.725-3.2939481l2.1-2.1008646c.75 1.4783862 2 2.3083574 3.5 2.3083574 1.475 0 2.575-1.037464 2.575-2.4380404 0-.7002882-.3-1.2968299-.9-1.7377521-.325-.259366-.95-.518732-2.325-1.037464-3-1.1152738-4.1-2.3861672-4.1-4.6685879 0-2.90489915 2.2-5.0317003 5.2-5.0317003 1.825 0 3.5.64841499 4.9 1.91930836zm6.1470588 21.58069164h-3.025v-16.6h3.025v1.4c.975-1.225 2.05-1.75 3.55-1.75 3.025 0 5.325 2.475 5.325 5.775 0 3.25-2.3 5.75-5.275 5.75-1.45 0-2.525-.525-3.6-1.75zm2.725-14.225c-1.675 0-3.05 1.35-3.05 3.025s1.375 3.05 3.05 3.05c1.65 0 3.025-1.375 3.025-3 0-1.725-1.35-3.075-3.025-3.075zm19.2720588 3.525h-8.125c.075 1.875 1 2.9 2.65 2.9 1.15 0 1.875-.425 2.575-1.45l2.8.45c-.9 2.2-2.75 3.375-5.3 3.375-3.525 0-5.825-2.275-5.825-5.75 0-3.5 2.225-5.775 5.675-5.775 3.425 0 5.55 2.225 5.55 5.85zm-8.025-1.925h5.125c-.325-1.4-1.225-2.15-2.575-2.15-1.325 0-2.275.8-2.55 2.15zm13.4970588-11.875v19h-3.025v-19zm6.0720588 0v19h-3.025v-19zm13.6970588 13.8h-8.125c.075 1.875 1 2.9 2.65 2.9 1.15 0 1.875-.425 2.575-1.45l2.8.45c-.9 2.2-2.75 3.375-5.3 3.375-3.525 0-5.825-2.275-5.825-5.75 0-3.5 2.225-5.775 5.675-5.775 3.425 0 5.55 2.225 5.55 5.85zm-8.025-1.925h5.125c-.325-1.4-1.225-2.15-2.575-2.15-1.325 0-2.275.8-2.55 2.15zm10.4720588-3.530481h3.025v1.3288591c.95-1.2058166 1.925-1.6733781 3.4-1.6733781 1.275 0 2.425.4675615 3.15 1.2796421.625.7136465.85 1.5011185.85 2.9530201v6.7673378h-3.025v-5.9060403c0-.885906-.075-1.3534675-.3-1.722595-.3-.5167786-.975-.8366891-1.775-.8366891-1.55 0-2.3.9351231-2.3 2.9530201v5.5123043h-3.025z" fill="#28ffbb"/></g></svg>