<?xml version="1.0" encoding="UTF-8"?>
<svg width="35px" height="31px" viewBox="0 0 35 31" version="1.1" xmlns="http://www.w3.org/2000/svg" xmlns:xlink="http://www.w3.org/1999/xlink">
    <!-- Generator: Sketch 49.1 (51147) - http://www.bohemiancoding.com/sketch -->
    <title>320-1024px_bet365_Stacked_Logo</title>
    <desc>Created with Sketch.</desc>
    <defs></defs>
    <g id="320-1024px_bet365_Stacked_Logo" stroke="none" stroke-width="1" fill="none" fill-rule="evenodd">
        <g id="Group-3" fill="#FFFFFF">
            <g id="Group-2">
                <path d="M24.4214674,10.5726895 L17.7434171,10.5726895 C17.8608143,11.6802261 18.7229551,12.2051282 20.3483906,12.2051282 C21.483703,12.2051282 22.6592336,11.9913931 23.7941212,11.5635035 L23.7941212,14.1487339 C22.6786346,14.5950755 21.1511954,14.8485103 19.3688525,14.8485103 C15.2565489,14.8485103 13.0432773,12.9049045 13.0432773,9.48458343 C13.0432773,6.14142503 15.2170388,4.14008707 18.840494,4.14008707 C22.8555094,4.14008707 24.421609,5.9861211 24.421609,9.91219347 L24.421609,10.5726895 L24.4214674,10.5726895 Z M20.2305684,8.60867481 L20.2305684,8.29890566 C20.2305684,7.15138989 19.7993565,6.49089384 18.9771506,6.49089384 C18.1346941,6.49089384 17.7047567,7.15138989 17.7047567,8.31791677 L17.7047567,8.60853503 L20.2305684,8.60853503 L20.2305684,8.60867481 Z" id="Shape"></path>
                <path d="M31.5110455,4.41169422 L33.7444262,4.41169422 L33.7444262,7.38567378 L31.5110455,7.38567378 L31.5110455,9.81476156 C31.5110455,11.0588705 31.7080294,11.6420641 32.6668919,11.6420641 C32.9219371,11.6420641 33.2732793,11.6030633 33.684807,11.5052121 L33.684807,14.4206207 C32.6476325,14.7320673 31.6100331,14.8483705 30.5130978,14.8483705 C29.1615421,14.8483705 28.123093,14.4206207 27.5164223,13.6814242 C26.7328769,12.7096214 26.7131927,11.4860612 26.7131927,9.85390207 L26.7131927,7.38553399 L25.0088787,7.38553399 L25.0088787,4.41169422 L26.7130511,4.41169422 L26.7130511,2.15748063 L31.5110455,0.660356258 L31.5110455,4.41169422 L31.5110455,4.41169422 Z" id="Shape"></path>
                <g id="Shape-+-Shape-+-Shape" transform="translate(0.000000, 16.153846)">
                    <path d="M3.48288641,11.505296 C4.75854102,11.505296 5.4251565,11.0891939 5.4251565,10.2197819 C5.4251565,9.36958723 4.73852046,8.89787773 3.40625601,8.89787773 C2.9123696,8.89787773 2.32155608,8.93603972 1.67440886,9.03076324 L1.67440886,6.15948209 C2.20709373,6.21604361 2.70222279,6.23430685 3.197628,6.23430685 C4.56800055,6.23430685 5.2525655,5.83823988 5.2525655,4.93216511 C5.2525655,4.04367212 4.6261292,3.62770639 3.33073018,3.62770639 C2.49249021,3.62770639 1.42656818,3.85436137 0.11335777,4.25124611 L0.11335777,1.26697819 C1.27427388,0.869275701 2.68358296,0.681600467 4.339352,0.681600467 C7.93725305,0.681600467 10.0117969,2.21107866 10.0117969,4.6109229 C10.0117969,6.08397586 9.04128317,7.16000779 7.34671568,7.51968458 C9.2309952,7.89667056 10.2023374,8.93631231 10.2023374,10.5222157 C10.2023374,13.0166472 8.08940928,14.4698014 4.05436973,14.4698014 C2.70222279,14.4698014 1.37037255,14.2821262 0,13.960884 L0,10.8817562 C1.35104236,11.2783684 2.49249021,11.505296 3.48288641,11.505296 L3.48288641,11.505296 Z" id="Shape"></path>
                    <path d="M18.5007888,5.59223131 C21.3376326,5.59223131 23.2221883,7.31102025 23.2221883,9.84211449 C23.2221883,12.5623832 21.0715663,14.4512656 17.6827075,14.4512656 C13.6854999,14.4512656 11.1152747,11.9768692 11.1152747,7.91643302 C11.1152747,3.28724688 13.8383465,0.681600467 18.7484915,0.681600467 C19.7959117,0.681600467 20.9196863,0.794450935 22.0797739,1.03950545 L22.0797739,4.04367212 C21.01399,3.72311137 19.9863141,3.57114486 18.9009238,3.57114486 C16.7309717,3.57114486 15.7219357,4.4397391 15.6650497,6.40521807 C16.4651815,5.799669 17.3411154,5.59223131 18.5007888,5.59223131 L18.5007888,5.59223131 Z M18.9007858,9.74902648 C18.9007858,8.6529595 18.273521,7.95282321 17.3597552,7.95282321 C16.4458513,7.95282321 15.836398,8.63292445 15.836398,9.74902648 C15.836398,10.8434579 16.4458513,11.5235592 17.3597552,11.5235592 C18.2922989,11.5234229 18.9007858,10.8434579 18.9007858,9.74902648 L18.9007858,9.74902648 Z" id="Shape"></path>
                    <path d="M24.6312212,1.02110592 L33.901291,1.02110592 L33.901291,4.15665888 L28.9714017,4.15665888 L28.9714017,6.14040109 C29.3712605,6.1211838 29.6380171,6.1021028 29.7319066,6.1021028 C32.7972609,6.1021028 34.4526157,7.63253505 34.4526157,10.2199182 C34.4526157,12.8837617 32.4353721,14.4698014 28.4947743,14.4698014 C27.124816,14.4698014 25.7722549,14.2637266 24.4027107,13.9234034 L24.4027107,10.9381815 C25.4491645,11.2222157 26.3632064,11.3542835 27.1434558,11.3542835 C28.7424769,11.3542835 29.5798885,10.8245132 29.5798885,9.84225078 C29.5798885,8.74700156 28.7045069,8.19896807 26.9149454,8.19896807 C26.1526454,8.19896807 25.4117468,8.33089953 24.6312212,8.52021028 L24.6312212,1.02110592 L24.6312212,1.02110592 Z" id="Shape"></path>
                </g>
                <path d="M0,0 L4.81782028,0 L4.81782028,5.61652289 C5.50351105,4.70287164 6.44368061,4.27540139 7.71649942,4.27540139 C10.5173239,4.27540139 12.1033909,6.17958703 12.1033909,9.56174615 C12.1033909,12.7886013 10.4974981,14.7130562 7.83403832,14.7130562 C6.20846121,14.7130562 5.11124268,14.129583 4.48502942,12.8863128 L4.48502942,14.5766235 L0,14.5766235 L0,0 L0,0 Z M4.68059715,9.46431424 C4.68059715,10.9422877 5.01367123,11.661215 5.87538713,11.661215 C6.71770202,11.661215 7.0895781,10.9422877 7.0895781,9.46431424 C7.0895781,7.98787842 6.73710302,7.26895119 5.87538713,7.26895119 C5.01367123,7.26895119 4.68059715,7.98773864 4.68059715,9.46431424 L4.68059715,9.46431424 Z" id="Shape"></path>
            </g>
        </g>
    </g>
</svg>