<svg xmlns="http://www.w3.org/2000/svg" width="28" height="34" viewBox="0 0 28 34">
  <g fill="#DEC6FF" fill-rule="evenodd" transform="translate(0 3)">
    <path d="M14,0 C21.7319865,0 28,6.2680135 28,14 C28,21.7319865 21.7319865,28 14,28 C6.2680135,28 0,21.7319865 0,14 C0,6.2680135 6.2680135,0 14,0 Z M12.173913,3.65217391 C7.46748648,3.65217391 3.65217391,7.46748648 3.65217391,12.173913 C3.65217391,16.8803396 7.46748648,20.6956522 12.173913,20.6956522 C16.8803396,20.6956522 20.6956522,16.8803396 20.6956522,12.173913 C20.6956522,7.46748648 16.8803396,3.65217391 12.173913,3.65217391 Z"/>
    <g fill-rule="nonzero" transform="rotate(-45 19.221 -.044)">
      <polygon points="0 7.308 2.093 7.308 6.278 0 .285 0 .285 1.611 3.331 1.611"/>
      <path d="M10.6826087,-1.4120308e-12 L6.88069565,-1.4120308e-12 L6.24521739,3.9333913 C6.63965217,3.73617391 7.07791304,3.6266087 7.59286957,3.6266087 C7.83391304,3.6266087 8.51321739,3.63756522 8.90765217,3.98817391 C9.072,4.1306087 9.25826087,4.39356522 9.25826087,4.77704348 C9.25826087,5.08382609 9.13773913,5.34678261 8.9733913,5.52208696 C8.75426087,5.75217391 8.40365217,5.88365217 8.02017391,5.88365217 C7.6586087,5.88365217 7.25321739,5.78504348 6.92452174,5.63165217 C6.804,5.57686957 6.43147826,5.3906087 6.048,5.04 L5.76313043,6.81495652 C6.35478261,7.18747826 7.12173913,7.47234783 8.22834783,7.47234783 C8.92956522,7.47234783 9.828,7.35182609 10.5073043,6.6506087 C10.857913,6.28904348 11.2085217,5.6973913 11.2085217,4.82086957 C11.2085217,3.97721739 10.8688696,3.41843478 10.5401739,3.08973913 C10.2005217,2.73913043 9.58695652,2.3666087 8.61182609,2.3666087 C8.51321739,2.3666087 8.29408696,2.37756522 8.02017391,2.4213913 L8.15165217,1.6106087 L10.6826087,1.6106087 L10.6826087,-1.4120308e-12 Z"/>
    </g>
  </g>
</svg>
