<svg xmlns="http://www.w3.org/2000/svg" width="28" height="34" viewBox="0 0 28 34">
  <g fill="#28FFBB" fill-rule="evenodd" transform="translate(0 3)">
    <path d="M14,0 C21.7319865,0 28,6.2680135 28,14 C28,21.7319865 21.7319865,28 14,28 C6.2680135,28 0,21.7319865 0,14 C0,6.2680135 6.2680135,0 14,0 Z M12.173913,3.65217391 C7.46748648,3.65217391 3.65217391,7.46748648 3.65217391,12.173913 C3.65217391,16.8803396 7.46748648,20.6956522 12.173913,20.6956522 C16.8803396,20.6956522 20.6956522,16.8803396 20.6956522,12.173913 C20.6956522,7.46748648 16.8803396,3.65217391 12.173913,3.65217391 Z"/>
    <path fill-rule="nonzero" d="M3.46226087 7.47234783L5.09478261 5.35773913C5.53304348 4.788 6.2013913 3.78 6.2013913 2.6733913 6.2013913 2.00504348 5.9493913 1.34765217 5.47826087.865565217 5.1933913.580695652 4.48121739-1.28964243e-12 3.13356522-1.28964243e-12 1.90643478-1.28964243e-12 1.1613913.482086957.734086957.920347826.262956522 1.4133913-1.29986766e-13 2.07078261-1.29986766e-13 2.80486957-1.29986766e-13 3.30886957.142434783 3.98817391.734086957 4.56886957 1.22713043 5.05095652 1.78591304 5.23721739 2.41043478 5.23721739 2.78295652 5.23721739 3.07878261 5.17147826 3.38556522 5.00713043L1.31478261 7.47234783 3.46226087 7.47234783zM3.15547826 1.50104348C3.49513043 1.50104348 3.81286957 1.6653913 4.01008696 1.85165217 4.20730435 2.04886957 4.36069565 2.37756522 4.36069565 2.66243478 4.36069565 2.94730435 4.19634783 3.29791304 3.97721739 3.49513043 3.74713043 3.70330435 3.4293913 3.80191304 3.15547826 3.80191304 2.84869565 3.80191304 2.52 3.6813913 2.30086957 3.47321739 2.10365217 3.28695652 1.95026087 2.99113043 1.95026087 2.68434783 1.95026087 2.37756522 2.09269565 2.07078261 2.31182609 1.85165217 2.59669565 1.56678261 2.9253913 1.50104348 3.15547826 1.50104348zM9.94852174 1.69826087C10.1676522 1.69826087 10.3867826 1.79686957 10.5292174 1.92834783 10.9126957 2.268 11.1646957 3.19930435 11.1646957 3.84573913 11.1646957 4.47026087 10.9346087 5.3906087 10.5292174 5.74121739 10.3867826 5.87269565 10.1676522 5.97130435 9.94852174 5.97130435 9.7293913 5.97130435 9.51026087 5.87269565 9.36782609 5.74121739 8.94052174 5.36869565 8.73234783 4.41547826 8.73234783 3.83478261 8.73234783 3.15547826 8.9733913 2.268 9.36782609 1.92834783 9.51026087 1.79686957 9.7293913 1.69826087 9.94852174 1.69826087zM13.0492174 3.82382609C13.0492174 2.53095652 12.621913 1.47913043 11.9645217.832695652 11.3947826.273913043 10.6606957-1.06334035e-12 9.94852174-1.06334035e-12 9.23634783-1.06334035e-12 8.50226087.273913043 7.93252174.832695652 7.27513043 1.47913043 6.84782609 2.53095652 6.84782609 3.82382609 6.84782609 5.10573913 7.27513043 6.15756522 7.93252174 6.804 8.50226087 7.36278261 9.23634783 7.63669565 9.94852174 7.63669565 10.6606957 7.63669565 11.3947826 7.36278261 11.9645217 6.804 12.621913 6.15756522 13.0492174 5.10573913 13.0492174 3.82382609z" transform="rotate(-45 19.486 1.156)"/>
  </g>
</svg>
