<svg height="26" viewBox="0 0 34 26" width="34" xmlns="http://www.w3.org/2000/svg"><g fill="none" fill-rule="evenodd"><path d="m33.8836479 6.93900779c.0768408.65582958.1163521 1.32306941.1163521 1.99953761 0 9.3888407-7.6111593 17-17 17-9.38884075 0-17-7.6111593-17-17 0-.6764682.03951133-1.34370803.11635209-1.99953761zm-15.6027336 13.45830011h-2.125v3.7476823h2.125zm-9.74853209-2.9959513-2.4052129 3.4451607 1.73604785 1.2390694 2.40521284-3.4451607zm16.80216369-.0966628-1.7360479 1.2390694 2.4052129 3.4451606 1.7360479-1.2390694zm-19.84750884-5.5219133-3.75229063 1.7237401.87900081 1.9561577 3.75229063-1.7237401zm23.13172254 0-.8790008 1.9561577 3.7522907 1.7237401.8790007-1.9561577z" fill="#aaa"/><g transform="matrix(.70710678 .70710678 -.70710678 .70710678 21.216016 .000007)"><path d="m6.67437185-1h-5.08303524c-1.43115569 0-2.59133661 1.16018092-2.59133661 2.59133661v5.1300095c0 1.4311557 1.16018092 2.59133662 2.59133661 2.59133662h5.08303524c1.4311557 0 2.59133662-1.16018092 2.59133662-2.59133662v-5.1300095c0-1.43115569-1.16018092-2.59133661-2.59133662-2.59133661zm0 1c.87887095 0 1.59133662.71246567 1.59133662 1.59133661v5.1300095c0 .87887095-.71246567 1.59133662-1.59133662 1.59133662h-5.08303524c-.87887094 0-1.59133661-.71246567-1.59133661-1.59133662v-5.1300095c0-.87887094.71246567-1.59133661 1.59133661-1.59133661z" fill="#222" fill-rule="nonzero"/><path d="m6.67437185 0c.87887095 0 1.59133662.71246567 1.59133662 1.59133661v5.1300095c0 .87887095-.71246567 1.59133662-1.59133662 1.59133662h-5.08303524c-.87887094 0-1.59133661-.71246567-1.59133661-1.59133662v-5.1300095c0-.87887094.71246567-1.59133661 1.59133661-1.59133661zm-2.5580755 3.46811284c-.42797107 0-.77491017.34891077-.77491017.77931401s.3469391.779314.77491017.779314.77491017-.34891076.77491017-.779314-.3469391-.77931401-.77491017-.77931401z" fill="#aaa"/></g><path d="m16.6743719 3.5649716h-5.0830353c-1.4647849 0-2.65222768 1.18744278-2.65222768 2.65222769v5.13000951c0 1.4647849 1.18744278 2.6522277 2.65222768 2.6522277h5.0830353c1.4647849 0 2.6522276-1.1874428 2.6522276-2.6522277v-5.13000951c0-1.46478491-1.1874427-2.65222769-2.6522276-2.65222769zm0 1.06089108c.8788709 0 1.5913366.71246567 1.5913366 1.59133661v5.13000951c0 .8788709-.7124657 1.5913366-1.5913366 1.5913366h-5.0830353c-.8788709 0-1.5913366-.7124657-1.5913366-1.5913366v-5.13000951c0-.87887094.7124657-1.59133661 1.5913366-1.59133661z" fill="#222" fill-rule="nonzero"/><rect fill="#aaa" height="8.313" rx="1.591" width="8.266" x="10" y="4.626"/><g fill="#222"><circle cx="14.152" cy="8.711" r="1"/><circle cx="12.594" cy="10.27" r="1"/><circle cx="15.71" cy="10.27" r="1"/><circle cx="12.594" cy="7.153" r="1"/><circle cx="15.71" cy="7.153" r="1"/></g></g></svg>