<svg xmlns="http://www.w3.org/2000/svg" width="95" height="24" viewBox="0 0 95 24"><path fill="#F0F0F0" d="M0 2h6.404v7.51c.912-1.221 2.161-1.793 3.853-1.793 3.723 0 5.831 2.546 5.831 7.069 0 4.315-2.134 6.888-5.675 6.888-2.16 0-3.619-.78-4.451-2.443v2.26H0V2zm6.222 12.655c0 1.977.442 2.938 1.588 2.938 1.12 0 1.614-.961 1.614-2.938 0-1.974-.469-2.935-1.614-2.935-1.146 0-1.588.961-1.588 2.935zm26.24 1.483h-8.876c.156 1.48 1.302 2.182 3.462 2.182 1.51 0 3.072-.285 4.58-.858v3.457c-1.482.597-3.513.936-5.882.936-5.466 0-8.408-2.599-8.408-7.172 0-4.47 2.89-7.147 7.706-7.147 5.337 0 7.419 2.468 7.419 7.718v.884zm-5.57-2.627v-.414c0-1.534-.574-2.418-1.667-2.418-1.12 0-1.69.884-1.69 2.444v.388h3.357zM44.855 7.9v3.976h-2.969v3.248c0 1.664.262 2.443 1.537 2.443.339 0 .806-.052 1.353-.183v3.899c-1.379.416-2.758.572-4.216.572-1.797 0-3.177-.572-3.984-1.56-1.041-1.3-1.067-2.936-1.067-5.119v-3.3h-2.266V7.899h2.265V4.885l6.378-2.002v5.016h2.969zm7.043 9.88c1.739 0 2.648-.572 2.648-1.764 0-1.166-.936-1.813-2.753-1.813-.673 0-1.479.052-2.36.182v-3.937c.725.077 1.4.102 2.076.102 1.868 0 2.801-.543 2.801-1.786 0-1.218-.854-1.789-2.62-1.789-1.142 0-2.596.311-4.386.855V3.738c1.583-.546 3.504-.803 5.761-.803 4.906 0 7.734 2.097 7.734 5.389 0 2.02-1.323 3.496-3.634 3.989 2.57.517 3.894 1.943 3.894 4.118 0 3.42-2.881 5.414-8.382 5.414-1.844 0-3.66-.258-5.528-.698v-4.223c1.842.544 3.399.855 4.749.855zm20.474-8.11c3.868 0 6.437 2.357 6.437 5.828 0 3.73-2.932 6.321-7.552 6.321-5.45 0-8.954-3.393-8.954-8.962 0-6.349 3.713-9.922 10.407-9.922 1.428 0 2.96.155 4.542.49v4.12a14.67 14.67 0 0 0-4.334-.647c-2.959 0-4.334 1.19-4.412 3.887 1.091-.831 2.285-1.115 3.866-1.115zm.546 5.7c0-1.503-.856-2.463-2.101-2.463-1.246 0-2.077.933-2.077 2.463 0 1.501.83 2.434 2.077 2.434 1.271 0 2.1-.933 2.1-2.434zM80.73 3.4h12.638v4.3h-6.72v2.721c.544-.026.908-.052 1.036-.052 4.18 0 6.436 2.099 6.436 5.647 0 3.654-2.75 5.829-8.123 5.829-1.867 0-3.711-.283-5.578-.75v-4.094c1.426.39 2.672.571 3.736.571 2.18 0 3.322-.727 3.322-2.074 0-1.502-1.194-2.253-3.633-2.253-1.04 0-2.05.18-3.114.44V3.4z"/></svg>