<svg xmlns="http://www.w3.org/2000/svg" width="57" height="24" viewBox="0 0 57 24"><g fill="none" fill-rule="evenodd"><path fill="#F0F0F0" d="M57.314 11.187v12.796H5.064v-7.704l5.7 5.85 8.648-10.942h37.902zM23.418 13.99h-1.596v6.783h1.596V13.99zm8.706-.002h-3.51v6.779h3.237c.138 0 .418-.031.84-.093.318-.046.555-.12.712-.222a1.72 1.72 0 0 0 .6-.666c.147-.28.22-.596.22-.948 0-.431-.103-.79-.309-1.075-.205-.285-.526-.486-.962-.603.287-.111.505-.262.654-.453a1.63 1.63 0 0 0 .335-1.032c0-.477-.156-.878-.47-1.202-.313-.324-.762-.485-1.347-.485zm19.033 0c-.836 0-1.507.187-2.015.562-.507.374-.761.834-.761 1.38 0 .43.162.784.487 1.063.32.279.786.53 1.397.757.433.163.728.31.886.442.154.131.23.282.23.451 0 .21-.107.389-.324.536a1.352 1.352 0 0 1-.78.221c-.535 0-.972-.142-1.542-.513l-.195-.132v1.624c.748.294 1.288.38 1.937.38.836 0 1.544-.214 2.125-.644.58-.43.87-.948.87-1.556 0-.483-.168-.867-.505-1.153-.337-.282-.832-.533-1.485-.752-.395-.132-.666-.254-.811-.367-.15-.113-.225-.248-.225-.404 0-.16.092-.297.275-.41.183-.112.399-.169.648-.169.448 0 .913.235 1.397.567l.182.129v-1.664a5.099 5.099 0 0 0-1.79-.348zm-8.723 0h-2.282l-2.545 6.771h2.138l.328-1.117h2.384l.333 1.117h2.189l-2.545-6.771zm3.688 1.98a1.234 1.234 0 1 0 0 2.468 1.234 1.234 0 0 0 0-2.468zm-9.915 0a1.234 1.234 0 1 0 0 2.468 1.234 1.234 0 0 0 0-2.468zm-10.033 0a1.234 1.234 0 1 0 0 2.468 1.234 1.234 0 0 0 0-2.468zm19.948.182a1.052 1.052 0 1 1 0 2.104 1.052 1.052 0 0 1 0-2.104zm-9.915 0a1.052 1.052 0 1 1 0 2.104 1.052 1.052 0 0 1 0-2.104zm-10.033 0a1.052 1.052 0 1 1 0 2.104 1.052 1.052 0 0 1 0-2.104z"/><path fill="#F0F0F0" d="M9.837.249l10.146 9.735-9.722 9.828L.073 9.96 9.837.249zm.604 3.224l-.162.302C9.177 5.833 8.624 7.93 8.624 10.06c0 1.989.481 3.948 1.442 5.873l.213.412.162.302.605-.324-.162-.302c-1.05-1.96-1.575-3.946-1.575-5.961 0-1.88.457-3.736 1.372-5.569l.203-.392.162-.302-.605-.324zm1.14 1.485l-.144.268c-.881 1.646-1.324 3.323-1.324 5.027 0 1.583.382 3.142 1.142 4.674l.182.353.144.269.537-.288-.143-.269c-.836-1.558-1.252-3.137-1.252-4.739 0-1.478.354-2.937 1.066-4.379l.186-.36.143-.268-.537-.288zm1.375 1.098l-.126.235c-.673 1.257-1.011 2.538-1.011 3.841 0 1.195.284 2.371.85 3.527l.161.315.126.235.47-.252-.125-.235c-.633-1.181-.949-2.377-.949-3.59 0-1.102.26-2.19.784-3.267l.165-.322.126-.235-.47-.252zm1.209 1.048l-.108.201c-.483.901-.726 1.82-.726 2.755 0 .83.192 1.65.574 2.454l.152.3.108.202.403-.216-.108-.201c-.448-.836-.671-1.682-.671-2.539 0-.762.176-1.515.53-2.26l.14-.279.109-.201-.403-.216zm1.2 1.192l-.09.168a3.194 3.194 0 0 0-.401 1.524c0 .443.098.88.294 1.309l.106.214.09.168.336-.18-.09-.168a2.814 2.814 0 0 1-.355-1.343c0-.389.086-.773.26-1.154l.095-.19.09-.168-.336-.18zM2.897 9.47a.762.762 0 1 0 0 1.524.762.762 0 0 0 0-1.524zm14.2-.372a.762.762 0 1 0 0 1.524.762.762 0 0 0 0-1.524z"/><path fill="#D8D8D8" fill-rule="nonzero" d="M9.554 3.443l.162.303c1.103 2.057 1.656 4.153 1.656 6.284 0 2.131-.553 4.228-1.656 6.285l-.162.303-.604-.324.162-.303c1.05-1.96 1.574-3.946 1.574-5.96 0-2.016-.524-4.001-1.574-5.962l-.162-.302.604-.324zm-1.14 1.098l.144.27c.882 1.644 1.324 3.321 1.324 5.026 0 1.705-.442 3.382-1.324 5.027l-.144.269-.537-.288.144-.269c.836-1.559 1.252-3.137 1.252-4.739 0-1.602-.416-3.18-1.252-4.739l-.144-.269.537-.288zM7.04 5.881l.126.236c.674 1.257 1.012 2.538 1.012 3.841 0 1.303-.338 2.585-1.012 3.842l-.126.235-.47-.252.126-.235c.633-1.182.948-2.377.948-3.59s-.315-2.408-.948-3.59l-.126-.234.47-.252zM5.831 7.075l.108.202c.483.9.725 1.82.725 2.754 0 .935-.242 1.854-.725 2.755l-.108.202-.403-.216.108-.202c.448-.836.671-1.681.671-2.539 0-.857-.223-1.702-.671-2.538l-.108-.202.403-.216zm-1.2 1.338l.09.168c.267.497.4 1.005.4 1.523 0 .517-.133 1.026-.4 1.523l-.09.168-.336-.18.09-.168c.238-.443.356-.89.356-1.343 0-.453-.118-.9-.356-1.343l-.09-.168.336-.18zm-1.733 2.671a.853.853 0 1 1 0-1.706.853.853 0 0 1 0 1.706zm0-.182a.671.671 0 1 0 0-1.342.671.671 0 0 0 0 1.342z"/><path fill="#F0F0F0" d="M30.505 16.643h.816c.292 0 .496-.057.61-.169.115-.113.172-.275.172-.488 0-.197-.057-.351-.172-.462-.114-.111-.314-.167-.598-.167h-.828v1.286zm10.76-.918l.757 2.447h-1.494zm-10.76 3.551h.956c.323 0 .55-.064.683-.192a.684.684 0 0 0 .199-.515c0-.2-.066-.362-.197-.484-.13-.121-.36-.182-.689-.182h-.952v1.373z"/></g></svg>