<svg height="14" viewBox="0 0 19 14" width="19" xmlns="http://www.w3.org/2000/svg"><g fill="none"><path d="m0 0h19v14h-19z" fill="#111"/><g transform="translate(1 1)"><path d="m0 0h17v12h-17z" fill="#ee1c25"/><g fill="#ff0"><path d="m1.85753776 0 1.14802039 3.2562306-3.00555815-2.0124612h3.71507551l-3.00555815 2.0124612z" transform="translate(1.397679 1.2)"/><path d="m.75120377 0 .46426902 1.5-1.21547279-.92705099h1.50240753l-1.21547279.92705099z" transform="matrix(.92025751 .39131332 -.39131332 .92025751 6.268969 .37042)"/><path d="m.75120377 0 .46426902 1.5-1.21547279-.92705099h1.50240753l-1.21547279.92705099z" transform="matrix(.69628999 .71776058 -.71776058 .69628999 8.004431 1.505999)"/><path d="m.75120377 0 .46426902 1.5-1.21547279-.92705099h1.50240753l-1.21547279.92705099z" transform="matrix(.34291553 .93936624 -.93936624 .34291553 8.449869 3.424806)"/><path d="m.75120377 0 .46426902 1.5-1.21547279-.92705099h1.50240753l-1.21547279.92705099z" transform="matrix(.93569176 .35281856 -.35281856 .93569176 6.22611 4.586877)"/></g></g></g></svg>