<?xml version="1.0" encoding="UTF-8"?>
<svg width="79px" height="62px" viewBox="0 0 79 62" version="1.1" xmlns="http://www.w3.org/2000/svg" xmlns:xlink="http://www.w3.org/1999/xlink">
    <title>Desposit Limit</title>
    <defs>
        <linearGradient x1="100%" y1="69.8584308%" x2="0%" y2="30.1415692%" id="linearGradient-1">
            <stop stop-color="#28A389" offset="0%"></stop>
            <stop stop-color="#633D99" offset="100%"></stop>
        </linearGradient>
    </defs>
    <g id="Published-Stage1" stroke="none" stroke-width="1" fill="none" fill-rule="evenodd">
        <g id="1.7-|-Home" transform="translate(-342.000000, -3748.000000)" fill-rule="nonzero">
            <g id="Group-24" transform="translate(-84.197811, 2193.778939)">
                <g id="Group-71" transform="translate(83.197811, 1375.221061)">
                    <g id="Group-7" transform="translate(40.000000, 30.000000)">
                        <g id="Desposit-Limit" transform="translate(303.000000, 149.000000)">
                            <polygon id="Path" fill="#222222" opacity="0" points="0 0 79 0 79 62 0 62"></polygon>
                            <g id="Group" transform="translate(0.000000, 8.767000)">
                                <path d="M47.01,30.4850002 C47.01,36.5450002 50.103,41.8800002 54.797,45.0010002 L4.227,45.0000002 C3.10592989,44.9997351 2.03088124,44.5541373 1.23835249,43.7612335 C0.445823752,42.9683297 0.000734752136,41.8930703 0.001,40.7720002 L0,18.7280002 L51.576,18.7280002 C48.633342,21.9356507 47.0036119,26.1320453 47.01,30.4850002 L47.01,30.4850002 Z M24.675,37.2330002 L4.507,37.2330002 L4.507,40.8520002 L24.675,40.8520002 L24.675,37.2330002 Z M67.179,1.18380715e-07 C69.5135076,1.18380715e-07 71.406,1.8924926 71.406,4.22700024 L71.405,7.29600024 L0,7.29600024 L0,4.22600024 C0,3.10493012 0.445862893,2.02988147 1.23876671,1.23735273 C2.03167052,0.444823989 3.10692989,-0.000265010997 4.228,1.18380715e-07 L67.178,1.18380715e-07 L67.179,1.18380715e-07 Z" id="Shape" fill="url(#linearGradient-1)"></path>
                                <path d="M64.427,15.9710002 C72.443,15.9710002 78.941,22.4690002 78.941,30.4850002 C78.941,38.5010002 72.443,45.0000002 64.427,45.0000002 C56.411,45.0000002 49.912,38.5010002 49.912,30.4850002 C49.912,22.4690002 56.411,15.9710002 64.427,15.9710002 Z M72.375,28.9110002 L56.48,28.9110002 L56.48,32.0590002 L72.376,32.0590002 L72.376,28.9120002 L72.375,28.9110002 Z" id="Shape" fill="#189970"></path>
                            </g>
                        </g>
                    </g>
                </g>
            </g>
        </g>
    </g>
</svg>