<svg height="25" viewBox="0 0 98 25" width="98" xmlns="http://www.w3.org/2000/svg" xmlns:xlink="http://www.w3.org/1999/xlink"><filter id="a" color-interpolation-filters="auto"><feColorMatrix in="SourceGraphic" values="0 0 0 0 1.000000 0 0 0 0 1.000000 0 0 0 0 1.000000 0 0 0 1.000000 0"/></filter><g fill="none" fill-rule="evenodd" filter="url(#a)" transform="translate(-354 -239)"><path d="m20.0381318 15.3115627v-5.62312542c0-5.35068151-4.2791817-9.68843728-9.5576113-9.68843728h-10.17253313c-.17005115 0-.30798737.13982431-.30798737.31246998v14.99909272c0 5.3506815 4.27918171 9.6884373 9.55761131 9.6884373h.92290919c5.2784296 0 9.5576113-4.3377558 9.5576113-9.6884373m-3.0688177.1611716c0 3.6479736-2.6436899 6.4022991-6.7562425 6.4022991-4.8714651 0-7.14793923-2.9280386-7.14793923-6.9479875v-4.863698c0-4.019949 2.27647413-6.94798751 7.14793923-6.94798751 3.9411853 0 5.7280385 2.28255185 6.4379889 4.56590422.0979242.34742606-.0244811.54595523-.2937726.64521982l-2.6436898.79384987c-.3182536.09926459-.489621 0-.5875452-.32260991-.4161777-1.36462125-1.2974954-2.10910566-2.9129813-2.10910566-2.49706679 0-3.32915915 1.48843514-3.32915915 3.49880987v4.6155365c0 2.0098411.83209236 3.4988099 3.32915915 3.4988099 2.0561447 0 3.1333108-.9678297 3.1333108-3.0769354v-.5955875h-2.741614c-.2203295 0-.3672158-.1240807-.3672158-.3970584v-2.5560631c0-.2478946.1468863-.3967915.3672158-.3967915h5.9728489c.2448105 0 .3916968.1240807.3916968.3722422zm10.9640869 4.6758424c.0236914.060039 0 .0960625-.0473826.1142076l-.3556333.1142077c-.0592284.0240156-.0887109.0058704-.1126655-.0480313-.142148-.4325481-.426444-.6548261-.9123796-.6548261-.6457206 0-1.0071451.3303483-1.0071451 1.0510839v1.3691576c0 .7148651.3614245 1.0510839 1.0071451 1.0510839.5749097 0 .9539711-.2700424.9539711-.8706999v-.4987245h-.8352512c-.0476459 0-.071074-.0178783-.071074-.0779174v-.3482265c0-.0541686.0234281-.0781842.071074-.0781842h1.291441c.0534371 0 .0829197.0301529.0829197.0781842v.948884c0 .828806-.5983379 1.3752949-1.4930806 1.3752949-.9834537 0-1.5638914-.5646341-1.5638914-1.5375338v-1.453479c0-.9787702.5804377-1.5372669 1.5638914-1.5372669.7881317 0 1.2324759.4082656 1.428061 1.0027858m2.7500376 2.4562649v-.5283438c-.2311221-.0120078-.4680355-.0181452-.7228489.0058705-.4503987.0482981-.7170578.2102701-.7170578.5886496 0 .324211.2192765.546489.5986011.546489.390907 0 .6873119-.2342858.8413056-.6126653zm.5270006-1.3269968v2.2580025c0 .0480313-.0234281.0720469-.0768652.0720469h-.35537c-.0534372 0-.0771285-.0240156-.0771285-.0720469v-.4264108c-.2074308.3484935-.5570096.5584968-.971608.5584968-.6220292 0-1.0013538-.4082657-1.0013538-.9667624 0-.6067948.403016-.9368763 1.1850933-.9971822.284296-.0237488.533055-.0178783.7702316-.0058705v-.38425c0-.4325481-.2490222-.6126653-.6517749-.6126653-.3969615 0-.5628009.1440938-.6578295.4322813-.0176368.0600391-.0413282.0661764-.1005565.0541686l-.3495788-.0960625c-.0534372-.0120079-.0710741-.0421608-.0534372-.0901921.1068743-.4562969.4977813-.7506217 1.1790388-.7506217.6991577 0 1.1611387.3303483 1.1611387 1.0270683zm2.4123045-1.0332056c.4501354 0 .6931032.2764465.7936597.594787.2311222-.3605012.5570097-.594787.9479167-.594787.5333183 0 .864997.3965247.864997 1.0089231v2.282285c0 .0480313-.0294826.0720469-.0829197.0720469h-.3672157c-.0534371 0-.0829197-.0240156-.0829197-.0720469v-2.1680773c0-.4023952-.177685-.6185358-.4977813-.6185358-.2961417 0-.5567463.2161406-.7167945.6006575v2.1859556c0 .0480313-.0236913.0720469-.071074.0720469h-.3969615c-.0534371 0-.071074-.0240156-.071074-.0720469v-2.1680773c0-.4023952-.1718938-.6185358-.4917268-.6185358-.3258875 0-.5864922.282317-.722849.6246731v2.16194c0 .0480313-.0179001.0720469-.071074.0720469h-.3911703c-.0531739 0-.071074-.0240156-.071074-.0720469v-3.1588553c0-.0421608.0179001-.0661764.071074-.0661764h.3793246c.0531739 0 .071074.0240156.071074.0661764v.4322812c.1776851-.2881875.4917269-.564634.9065885-.564634m6.3995562-.0840547c.0179002.0661764 0 .1021998-.0473826.1200781l-.3495789.1083372c-.0592283.0237488-.0947653.0058705-.1124022-.0480313-.142148-.4205403-.3793246-.6668339-.8710514-.6668339-.5685921 0-.9181709.3303483-.9181709 1.0510839v1.3691576c0 .7207356.3614245 1.0510839.9181709 1.0510839.5154181 0 .7820773-.282317.900534-.708461.0179001-.0661764.0534371-.0781842.1126654-.0541686l.3495789.1142077c.0473826.0237488.071074.0539017.0531738.1200781-.1834762.6425514-.639666 1.0569544-1.4217433 1.0569544-.8886884 0-1.4693893-.5646341-1.4693893-1.5375338v-1.453479c0-.9728997.5807009-1.5372669 1.4693893-1.5372669.7583859 0 1.1906212.38425 1.3862063 1.0147936m2.5899895 2.4442571v-.5283438c-.2311221-.0120078-.4680355-.0181452-.722849.0058705-.4503986.0482981-.7167945.2102701-.7167945.5886496 0 .324211.2192765.546489.5983379.546489.3911702 0 .6873119-.2342858.8413056-.6126653zm.5272638-1.3269968v2.2580025c0 .0480313-.0236913.0720469-.0771284.0720469h-.35537c-.0531739 0-.0771285-.0240156-.0771285-.0720469v-.4264108c-.2071676.3484935-.5567464.5584968-.971608.5584968-.6220292 0-1.0010906-.4082657-1.0010906-.9667624 0-.6067948.4027527-.9368763 1.1848301-.9971822.284296-.0237488.5333183-.0178783.7702316-.0058705v-.38425c0-.4325481-.248759-.6126653-.651775-.6126653-.3969615 0-.5628008.1440938-.6575661.4322813-.0179002.0600391-.0413283.0661764-.1005566.0541686l-.3498421-.0960625c-.0531738-.0120079-.071074-.0421608-.0531738-.0901921.106611-.4562969.497518-.7506217 1.1790388-.7506217.6991576 0 1.1611386.3303483 1.1611386 1.0270683zm2.5897263-.9310058v.3663717c0 .0541686-.0176369.0781842-.0768652.0781842h-.071074c-.4798812 0-.7820774.2761797-.9242254.6545593v2.0960305c0 .0480312-.0297458.0659095-.0652828.0659095h-.4027527c-.0358002 0-.0652828-.0178783-.0652828-.0659095v-3.1649927c0-.0541686.0294826-.0661764.071074-.0661764h.367479c.0531739 0 .0768652.0240156.0768652.0720468l-.0057912.4984577c.1718938-.3303483.5035725-.6126653 1.0010905-.6126653.0771285 0 .0947654.0120078.0947654.0781842m.9902978 1.1591542v.2462936h1.5283544v-.2462936c0-.5104654-.284296-.7989198-.7641772-.8047903-.4798812.0058705-.7641772.2943249-.7641772.8047903zm0 .6305436v.2641719c0 .5224733.2782416.8047903.7936598.8109277.4740899 0 .6457205-.1862546.7641772-.4384186.0358002-.0720469.0652828-.0720469.1305655-.0421608l.2545503.132086c.0713372.0301529.0771284.0720468.0476459.1320859-.1779483.4146698-.5867554.6788417-1.2027302.6788417-.8473601-.0061373-1.3093411-.5166028-1.3093411-1.2733619v-.8827077c0-.7447512.4501354-1.2672245 1.291441-1.2733618.8236688.0061373 1.2619585.5286106 1.2619585 1.2672245v.4805794c0 .0960625-.0473827.1440937-.1539937.1440937zm3.4191862.4864499v.888845c0 .0661764-.035537.0960625-.0889741.0960625h-.3614245c-.0473826 0-.0768652-.0298861-.0768652-.0899252v-.8949823c0-.0539017.0236913-.0960625.0768652-.0960625h.3614245c.0534371 0 .0889741.0301529.0889741.0960625m1.4280611-1.0689622v.8167981c0 .5344811.2785048.8106608.7760229.8106608.4977813 0 .7820773-.2761797.7820773-.8106608v-.8167981c0-.5286106-.284296-.8229355-.7820773-.8229355-.4975181 0-.7760229.2943249-.7760229.8229355zm2.0914185-.0240156v.858692c0 .7687669-.438553 1.2853697-1.3153956 1.2853697-.8768427 0-1.3151324-.5166028-1.3151324-1.2733619v-.858692c0-.7687669.4382897-1.2973775 1.3151324-1.2973775.8768426 0 1.3153956.5286106 1.3153956 1.2853697zm2.5125978-1.1831699v.3663717c0 .0541686-.0176369.0781842-.0768653.0781842h-.071074c-.4798811 0-.7820773.2761797-.9242253.6545593v2.0960305c0 .0480312-.0297458.0659095-.0652828.0659095h-.4027527c-.0358002 0-.0652828-.0178783-.0652828-.0659095v-3.1649927c0-.0541686.0294826-.0661764.071074-.0661764h.367479c.0531738 0 .0768652.0240156.0768652.0720468l-.0057912.4984577c.1718938-.3303483.5035725-.6126653 1.0010905-.6126653.0771285 0 .0947654.0120078.0947654.0781842m.9842433 1.0871074c0 .444289.2548135.7145983.7286402.7145983.4324985 0 .6991577-.2281485.6991577-.69672 0-.4322813-.2311222-.7145983-.7110033-.7145983-.4561899 0-.7167946.252164-.7167946.69672zm1.7063027 2.4802805c0-.2342858-.1303024-.4562969-.6101835-.4562969h-.5983379c-.4503986 0-.5867554.2281484-.5867554.4683047 0 .3303482.2548135.5464889.8828971.5464889.6338749 0 .9123797-.2281485.9123797-.5584967zm.5154182-.0360235c0 .5406184-.3969615.9910449-1.4514892.9910449-.9776625 0-1.3567238-.3725091-1.3567238-.8888451 0-.2943248.1539936-.5705045.4856723-.7148651-.1479392-.1139408-.2250676-.2761797-.2250676-.4202734 0-.1923919.1184566-.3725091.3319419-.4624343-.3258875-.192125-.4977813-.5224733-.4977813-.9430136 0-.6724375.4088072-1.1290012 1.2145758-1.1290012h1.4220066c.0413283 0 .0592284.0240156.0592284.0720468v.2943249c0 .0539017-.0297458.0779174-.071074.0779174h-.5630641c.1897939.1443606.3319419.402662.3319419.756759 0 .6126653-.4030159 1.0452134-1.1790388 1.0452134h-.2666591c-.225331 0-.3198331.101933-.3198331.2281485 0 .1259486.1005566.2281484.3198331.2281484h.6991576c.7641772 0 1.0663734.3842501 1.0663734.8648294zm1.2272111-1.2552167v.888845c0 .0661764-.035537.0960625-.0887108.0960625h-.3614245c-.0476459 0-.0771285-.0298861-.0771285-.0899252v-.8949823c0-.0539017.0236913-.0960625.0771285-.0960625h.3614245c.0531738 0 .0887108.0301529.0887108.0960625m.9660801-.0360234v-2.2041009c0-.0480312.0236913-.0720468.0771284-.0720468h.3848526c.0534371 0 .0771285.0240156.0771285.0720468v2.1141757c0 .4261439.1895307.6724375.5922834.6724375.3556332 0 .6696751-.2583014.8176143-.6366809v-2.1499323c0-.0480312.0239546-.0720468.0771284-.0720468h.3851159c.0592283 0 .0771284.0240156.0771284.0720468v3.1529849c0 .0421608-.0179001.0720469-.071074.0720469h-.3793246c-.0531739 0-.071074-.0298861-.071074-.0720469v-.4322812c-.213222.3122031-.5570096.5705045-1.0129362.5705045-.6222924 0-.9539711-.4504264-.9539711-1.0871073m5.9373119 1.0209309h-.426444c-.0592283 0-.0829197-.0178783-.1068742-.0659095l-.8589426-1.5135182-.5154182.606528v.9008528c0 .0480313-.0179001.0720469-.071074.0720469h-.3911702c-.0531739 0-.071074-.0240156-.071074-.0720469v-4.4202094c0-.0418939.0179001-.0720469.071074-.0720469h.3911702c.0531739 0 .071074.030153.071074.0720469v2.8287739l1.2974955-1.5615494c.0415915-.0539017.0768653-.0720468.1360936-.0720468h.4209161c.0650195 0 .0829196.0539017.0473826.0960625l-1.0310996 1.2071855 1.0900647 1.8916308c.0297458.0541686 0 .1021998-.0531739.1021998m-40.0409897-22.31985612v4.2339549c0 .06003906-.0289561.09019202-.0934492.09019202h-.543058c-.0526475 0-.087658-.03015296-.1168773-.08432154l-1.2322127-2.48615099c-.204272-.40853248-.3856423-.85282156-.5433213-1.22533061h-.0115824c.0176369.37837953.0292193.74475125.0292193 1.14127592v2.57634301c0 .05416858-.0176369.07818421-.0700211.07818421h-.3795878c-.0584386 0-.0818667-.02401563-.0818667-.07818421v-4.22808441c0-.06003906.0292193-.09019202.0934491-.09019202h.5899143c.0584386 0 .0931859.03015296.116614.09019202l1.2090478 2.48028051c.1984808.40853248.3737967.82880594.5314757 1.20131498h.0118456c-.0294825-.37837953-.041065-.75088857-.041065-1.15301689v-2.5464569c0-.04803125.0176369-.07231372.0758123-.07231372h.3798511c.0523842 0 .0758123.02428247.0758123.07231372m2.7968938 3.32109426v-.52834377c-.2277001-.01200782-.4614546-.01814514-.7125828.00587048-.4438176.04803126-.7067915.21000331-.7067915.58838284 0 .3244778.2163809.54675576.5899143.54675576.385379 0 .6775722-.23428578.82946-.61266531zm.5196299-1.3272636v2.25800254c0 .04829809-.0231648.07231372-.0758122.07231372h-.3506318c-.0523842 0-.0758123-.02401563-.0758123-.07231372v-.42614395c-.2042719.34822658-.5488493.55822989-.9576564.55822989-.6133424 0-.9868758-.40826564-.9868758-.96676237 0-.60652798.3969615-.93687626 1.1679829-.99691533.2803475-.02401563.5254212-.0178783.7591757-.00587049v-.38451685c0-.43254812-.245337-.61266531-.6425617-.61266531-.3911703 0-.5546405.14409375-.6480896.43228127-.0176369.0603059-.041065.06617639-.0992404.05416858l-.3445773-.09606251c-.0526475-.01200781-.0702843-.04189392-.0526475-.09019202.1050316-.45629689.4904107-.75035489 1.1621917-.75035489.6891546 0 1.1445547.33008144 1.1445547 1.02680144zm1.6641848-1.74166658v.7927825h.6831001c.0468562 0 .0702843.02401563.0702843.08405469v.29432484c0 .05416858-.0234281.07818421-.0702843.07818421h-.6831001v1.90363863c0 .29432484.1518877.43254812.4438176.43254812h.2337546c.0465929 0 .0758122.01787829.0758122.07204687v.33621877c0 .05416858-.0234281.07818421-.0758122.07818421h-.3095668c-.5725406 0-.8878986-.31860731-.8878986-.8410806v-1.981556h-.4380265c-.0408018 0-.0642299-.02401563-.0642299-.07818421v-.29432484c0-.06003906.0234281-.08405469.0642299-.08405469h.4440809v-.7927825c0-.04189393.0173737-.07231372.0758123-.07231372h.3622142c.0581754 0 .0758123.03041979.0758123.07231372m2.0039516.84695108v3.15271804c0 .04829809-.0174061.07231372-.0701517.07231372h-.3805598c-.0585477 0-.0759537-.02401563-.0759537-.07231372v-3.15271804c0-.04829809.017406-.07231372.0759537-.07231372h.3805598c.0527456 0 .0701517.02401563.0701517.07231372zm0-1.24934624v.58251235c0 .05416858-.0234718.0840547-.0878215.0840547h-.3510222c-.0643497 0-.0878215-.02988612-.0878215-.0840547v-.58251235c0-.05416858.0234718-.08405469.0878215-.08405469h.3510222c.0643497 0 .0878215.02988611.0878215.08405469zm1.4236582 2.42050828v.81653129c0 .5344811.2745562.8106608.7649669.8106608.4909371 0 .7710213-.2761797.7710213-.8106608v-.81653129c0-.52861062-.2800842-.82293546-.7710213-.82293546-.4904107 0-.7649669.29432484-.7649669.82293546zm2.0616726-.02401563v.85842522c0 .76876687-.431972 1.28536968-1.2967057 1.28536968-.8642073 0-1.2961793-.51660281-1.2961793-1.27336187v-.85869206c0-.76850003.431972-1.29737749 1.2961793-1.29737749.8647337 0 1.2967057.52887746 1.2967057 1.28563652zm1.4185846-.1443606v2.14993223c0 .04829809-.0173737.07231372-.0702843.07231372h-.3795879c-.0584386 0-.0758122-.02401563-.0758122-.07231372v-3.15885537c0-.04216076.0173736-.06617639.070021-.06617639h.3737967c.0526474 0 .070021.02401563.070021.06617639v.43228128c.2103264-.30606582.5491125-.56463406.9987214-.56463406.6133424 0 .9402828.44455592.9402828 1.08710734v2.20410081c0 .04829809-.0234281.07231372-.0758122.07231372h-.3795879c-.0526474 0-.0758123-.02401563-.0758123-.07231372v-2.11390879c0-.42641078-.1868983-.67270437-.5901775-.67270437-.344314 0-.659672.2583014-.8057686.63668093m4.6427121 1.21919329v-.52834377c-.2279633-.01200782-.4614546-.01814514-.7125828.00587048-.4438176.04803126-.7067915.21000331-.7067915.58838284 0 .3244778.2161177.54675576.5899143.54675576.3853791 0 .6775722-.23428578.82946-.61266531zm.5196299-1.3272636v2.25800254c0 .04829809-.0234281.07231372-.0758122.07231372h-.3503686c-.0526474 0-.0760755-.02401563-.0760755-.07231372v-.42614395c-.2042719.34822658-.5488493.55822989-.9579197.55822989-.6130791 0-.9868757-.40826564-.9868757-.96676237 0-.60652798.3972247-.93687626 1.1682461-.99691533.2800842-.02401563.5254212-.0178783.7591757-.00587049v-.38451685c0-.43254812-.245337-.61266531-.6425617-.61266531-.3911703 0-.5546405.14409375-.6483529.43228127-.0173736.0603059-.0408017.06617639-.0992404.05416858l-.344314-.09606251c-.0526474-.01200781-.0702843-.04189392-.0526474-.09019202.1050315-.45629689.4904106-.75035489 1.1621916-.75035489.6891546 0 1.1445547.33008144 1.1445547 1.02680144zm1.4946601-2.16194004v4.41994258c0 .04829809-.0173737.07231372-.0702843.07231372h-.3795879c-.0584386 0-.0758122-.02401563-.0758122-.07231372v-4.41994258c0-.04829809.0173736-.07231372.0758122-.07231372h.3795879c.0529106 0 .0702843.02401563.0702843.07231372m5.5124473 1.03293877c.0234281.06003906 0 .09579566-.0465929.11420764l-.3503686.1139408c-.0584386.02401563-.0876579.00613733-.1108228-.04803125-.1403053-.43228127-.4206528-.65455923-.899481-.65455923-.6367705 0-.9929302.33034828-.9929302 1.05081706v1.36942438c0 .71486513.3561597 1.05081706.9929302 1.05081706.5664862 0 .9402828-.27004237.9402828-.87069987v-.49845766h-.8236688c-.0468562 0-.070021-.01814514-.070021-.07791737v-.34849342c0-.05390173.0231648-.07791736.070021-.07791736h1.2732777c.0523842 0 .0818667.02988611.0818667.07791736v.94915092c0 .8285391-.5901775 1.37502802-1.4717584 1.37502802-.9695021 0-1.5420427-.56436722-1.5420427-1.53753376v-1.45321222c0-.97903703.5725406-1.53753376 1.5420427-1.53753376.7765493 0 1.2145758.40826565 1.4072653 1.00305266m2.7092359 2.45626487v-.52834377c-.2277001-.01200782-.4614546-.01814514-.7125827.00587048-.4435545.04803126-.7065283.21000331-.7065283.58838284 0 .3244778.2161176.54675576.5899143.54675576.385379 0 .6773089-.23428578.8291967-.61266531zm.5198932-1.3272636v2.25800254c0 .04829809-.0234281.07231372-.0758123.07231372h-.3506317c-.0523842 0-.0758123-.02401563-.0758123-.07231372v-.42614395c-.2045352.34822658-.5488493.55822989-.9579197.55822989-.6130791 0-.9868757-.40826564-.9868757-.96676237 0-.60652798.3972247-.93687626 1.168246-.99691533.2800843-.02401563.5254212-.0178783.7589125-.00587049v-.38451685c0-.43254812-.2450737-.61266531-.6422984-.61266531-.3911703 0-.5546405.14409375-.6483529.43228127-.0173737.0603059-.0408018.06617639-.0992404.05416858l-.3443141-.09606251c-.0529106-.01200781-.0702843-.04189392-.0529106-.09019202.1052948-.45629689.4906739-.75035489 1.1621916-.75035489.6894179 0 1.144818.33008144 1.144818 1.02680144zm2.376241-1.03320561c.4440809 0 .6833634.27644654.782867.59478701.2277001-.36050123.5488493-.59478701.9344916-.59478701.5254212 0 .8526248.39679151.8526248 1.00918998v2.28201817c0 .04829809-.0292193.07231372-.0816035.07231372h-.3622142c-.0529106 0-.0818667-.02401563-.0818667-.07231372v-2.16807737c0-.40239515-.1753159-.61853579-.4906739-.61853579-.2919299 0-.5488492.21614064-.7065283.60065749v2.18595567c0 .04829809-.023428.07231372-.070021.07231372h-.3914335c-.0526474 0-.0700211-.02401563-.0700211-.07231372v-2.16807737c0-.40239515-.1695247-.61853579-.4848827-.61853579-.3211492 0-.5780685.28231703-.7123194.62467312v2.16194004c0 .04829809-.0176369.07231372-.0702843.07231372h-.3853791c-.0526474 0-.0700211-.02401563-.0700211-.07231372v-3.15885537c0-.04216076.0173737-.06617639.0700211-.06617639h.3737966c.0523842 0 .0700211.02401563.0700211.06617639v.43228128c.1753159-.28818752.4848827-.56463406.8934266-.56463406m4.0701715 1.33953826v.76876688c0 .54648891.3737966.8285391.7826037.8285391.4614546 0 .7360109-.2761797.7360109-.8285391v-.77490421c0-.54648891-.2745563-.84081375-.7360109-.84081375-.4088071 0-.7826037.29432484-.7826037.84695108zm0-2.46827269v1.64560407c.1400421-.2583014.4614545-.51046547.940546-.51046547.677309 0 1.109281.49819082 1.109281 1.25494988v.91899797c0 .75649222-.431972 1.24294207-1.1271811 1.2490794-.4669826 0-.793923-.25216408-.9344916-.51046548v.37837953c0 .04803126-.0347473.0661764-.0697578.0661764h-.3737967c-.0468562 0-.0702843-.01814514-.0702843-.0661764v-4.4260799c0-.04216077.0234281-.06617639.0642299-.06617639h.3972247c.0468562 0 .0642299.02401562.0642299.06617639zm3.4747292 0v4.41994258c0 .04829809-.0176369.07231372-.0702843.07231372h-.3795878c-.0584387 0-.0760756-.02401563-.0760756-.07231372v-4.41994258c0-.04829809.0176369-.07231372.0760756-.07231372h.3795878c.0526474 0 .0702843.02401563.0702843.07231372m1.519069 1.26722454v3.15271804c0 .04829809-.0174061.07231372-.0704155.07231372h-.380296c-.0585477 0-.0759538-.02401563-.0759538-.07231372v-3.15271804c0-.04829809.0174061-.07231372.0759538-.07231372h.380296c.0530094 0 .0704155.02401563.0704155.07231372zm0-1.24934624v.58251235c0 .05416858-.0234718.0840547-.0878215.0840547h-.3510223c-.0643497 0-.0878215-.02988612-.0878215-.0840547v-.58251235c0-.05416858.0234718-.08405469.0878215-.08405469h.3510223c.0643497 0 .0878215.02988611.0878215.08405469zm1.5173705 2.25213205v2.14993223c0 .04829809-.0176369.07231372-.0702843.07231372h-.3795878c-.0584386 0-.0758123-.02401563-.0758123-.07231372v-3.15885537c0-.04216076.0173737-.06617639.0700211-.06617639h.3737966c.0523842 0 .0700211.02401563.0700211.06617639v.43228128c.2103264-.30606582.5491125-.56463406.9987214-.56463406.6133423 0 .9402828.44455592.9402828 1.08710734v2.20410081c0 .04829809-.0234281.07231372-.0758123.07231372h-.3798511c-.0526474 0-.0758123-.02401563-.0758123-.07231372v-2.11390879c0-.42641078-.1868983-.67270437-.5899142-.67270437-.3443141 0-.6599353.2583014-.8057687.63668093m3.2583484.04803126c0 .44428908.2511282.71459829.7181107.71459829.4264441 0 .6891546-.2278816.6891546-.69645315 0-.43228128-.2277-.71486514-.700737-.71486514-.4498722 0-.7065283.25216407-.7065283.69672zm1.6818216 2.4802805c0-.23428578-.1284597-.4562969-.6014967-.4562969h-.5899142c-.444081 0-.5780686.22814845-.5780686.46830471 0 .33034828.2511281.54648892.8699985.54648892.6249247 0 .899481-.22788161.899481-.55849673zm.5080475-.03602344c0 .54061843-.3911702.99104484-1.4309566.99104484-.9634477 0-1.3372443-.37224221-1.3372443-.88884501 0-.29432484.1516245-.57050454.4788282-.7145983-.1460966-.11420764-.2219088-.27644654-.2219088-.4205403 0-.19212501.1168772-.3722422.3269404-.46243422-.3211492-.19212501-.4904107-.52247329-.4904107-.94274675 0-.67270437.403016-1.12926811 1.1972022-1.12926811h1.4017374c.0408017 0 .0584386.02401563.0584386.07231372v.294058c0 .05416858-.0294826.07791737-.0702843.07791737h-.5549037c.1868983.14436059.3272036.402662.3272036.75675906 0 .61266531-.3972247 1.04521342-1.1621916 1.04521342h-.2627106c-.2219088 0-.3156212.10193299-.3156212.22814845 0 .12594862.0992403.22814845.3156212.22814845h.6891546c.7533845 0 1.0511056.38451686 1.0511056.86482938zm5.454272-4.57631099v4.2160766c0 .05390174-.0234281.09019202-.0876579.09019202h-.7302197c-.0581753 0-.0931859-.03629028-.0931859-.09019202v-1.67549019h-1.4717584v1.67549019c0 .05390174-.0292193.09019202-.0876579.09019202h-.7360109c-.0523841 0-.0873947-.03629028-.0873947-.09019202v-4.2160766c0-.05390174.0350106-.09019202.0931859-.09019202h.7302197c.0584386 0 .0876579.03629028.0876579.09019202v1.67549019h1.4717584v-1.67549019c0-.05390174.0350106-.09019202.0931859-.09019202h.7302197c.0642298 0 .0876579.03629028.0876579.09019202m1.587846 2.21610862v.1139408h1.1271811v-.1139408c0-.32421096-.1753159-.57637503-.560695-.57637503-.3856423 0-.5664861.25216407-.5664861.57637503zm0 .70285732v.12594862c0 .34849342.1750526.59478701.589651.59478701.4030159 0 .514102-.15636841.6193968-.35436391.0523842-.09019202.0758123-.10219983.1692614-.0603059l.4611914.24015626c.0937124.04829809.0992403.09632934.0584386.18652136-.1984807.46216739-.6949458.72633927-1.3138162.72633927-.9344916 0-1.4251654-.5702377-1.4251654-1.35101239v-.76876688c0-.75675906.4611913-1.35127923 1.419111-1.35127923.9110634 0 1.3551444.59452017 1.3551444 1.33313409v.52861062c0 .08992518-.0294826.15023108-.1521511.15023108zm3.5094765-3.11696143v4.41407209c0 .05390174-.0350105.09019202-.0876579.09019202h-.7067916c-.0581753 0-.0931859-.03629028-.0931859-.09019202v-4.41407209c0-.05416858.0350106-.09019202.0931859-.09019202h.7067916c.0526474 0 .0876579.03602344.0876579.09019202m2.7911026 3.12283192v-.58864968c0-.40239516-.1634702-.63054361-.5372669-.63054361-.3211492 0-.5604317.22814845-.5604317.63054361v.58864968c0 .41440297.2392825.65455923.5604317.65455923.3737967 0 .5372669-.25216407.5372669-.65455923zm-1.8982025 2.58248033c-.0581754 0-.0873947-.03602344-.0873947-.08432153v-4.36017035c0-.04776441.0292193-.08378785.0873947-.08378785h.6894179c.0526474 0 .0816035.03602344.0816035.08378785v.3065995c.1284597-.21027015.4440809-.46243423.8821074-.46243423.6946826 0 1.1327091.51633596 1.1327091 1.29711065v.86482939c0 .76876687-.4380265 1.30911846-1.0976986 1.30911846-.4556633 0-.7710213-.24629359-.8876354-.46830471v1.51325129c0 .04829809-.0294825.08432153-.0876579.08432153zm4.391584-5.70531225v4.41407209c0 .05390174-.0350106.09019202-.087658.09019202h-.7065283c-.0584386 0-.0934491-.03629028-.0934491-.09019202v-4.41407209c0-.05416858.0350105-.09019202.0934491-.09019202h.7065283c.0526474 0 .087658.03602344.087658.09019202m1.6953234 1.2669577v3.14711439c0 .05390174-.0350759.09019202-.0878215.09019202h-.7081103c-.0585476 0-.0933598-.03629028-.0933598-.09019202v-3.14711439c0-.05390174.0348122-.08992518.0933598-.08992518h.7081103c.0527456 0 .0878215.03602344.0878215.08992518zm0-1.22506378v.56436722c0 .0781842-.0469437.12621546-.1228974.12621546h-.6437605c-.0762175 0-.1226337-.04803126-.1226337-.12621546v-.56436722c0-.0781842.0464162-.12621545.1226337-.12621545h.6437605c.0759537 0 .1228974.04803125.1228974.12621545zm1.6914846 2.41437095v1.95780722c0 .05390174-.0347473.09019202-.0876579.09019202h-.7065283c-.0584386 0-.0934492-.03629028-.0934492-.09019202v-3.15325172c0-.04189392.0292194-.08378785.0873947-.08378785h.6833635c.0587018 0 .0876579.04189393.0876579.08378785v.37837953c.1926895-.28205018.514102-.53421426.9579197-.53421426.6072879 0 .946074.46830471.946074 1.16502471v2.14406174c0 .06003906-.0350105.09019202-.087658.09019202h-.7065282c-.0584387 0-.087658-.03629028-.087658-.09019202v-1.9940975c0-.30019532-.1460965-.48618301-.4145983-.48618301-.2745563 0-.4906739.21000331-.5783319.52247329m3.3983905-.04216076v.1139408h1.1271811v-.1139408c0-.32421096-.1753159-.57637503-.5606949-.57637503-.3856423 0-.5664862.25216407-.5664862.57637503zm0 .70285732v.12594862c0 .34849342.1750527.59478701.589651.59478701.403016 0 .514102-.15636841.6193968-.35436391.0523842-.09019202.0758123-.10219983.1692615-.0603059l.4611913.24015626c.0937124.04829809.0992404.09632934.0584386.18652136-.1984807.46216739-.6949458.72633927-1.3138161.72633927-.9344916 0-1.4251655-.5702377-1.4251655-1.35101239v-.76876688c0-.75675906.4614546-1.35127923 1.419111-1.35127923.9110635 0 1.3551444.59452017 1.3551444 1.33313409v.52861062c0 .08992518-.0294825.15023108-.1518878.15023108zm-67.7564305 9.49684598v-2.6422526c0-.7949172-.39196-1.19224241-1.0595292-1.19224241-.6888914 0-1.0703219.38638471-1.0703219 1.19224241v2.6422526c0 .7946504.39196 1.1922424 1.0703219 1.1922424.6780987 0 1.0595292-.3869184 1.0595292-1.1922424zm-3.7827166.0426944v-2.7281751c0-1.64320253 1.0066185-2.69588747 2.7231874-2.69588747 1.7376279 0 2.7123947 1.13860752 2.7123947 2.69588747v2.7281751c0 1.5575468-.9747668 2.6961543-2.7337169 2.6961543-1.6952467 0-2.7018652-1.0526849-2.7018652-2.6961543zm10.0440734-3.060925v-.1288838c0-.4619006-.3074609-.84855214-.9750301-.84855214-.6570397 0-.9642373.38665154-.9642373.84855214v.1288838c0 .4296129.3071976.8269381.9642373.9021871.6675692-.075249.9750301-.4725742.9750301-.9021871zm.1058213 3.3835349v-.172112c0-.4941882-.3814305-.9128606-1.0808514-.9987832-.6886281.0859226-1.0700586.504595-1.0700586.9987832v.172112c0 .5262091.3814305.9342079 1.0700586.9342079.6994209 0 1.0808514-.4079988 1.0808514-.9342079zm-3.8040388.1179434v-.1504979c0-.9987832.5722774-1.5572799 1.2185244-1.78276-.6143953-.2687081-1.1019104-.8378785-1.1019104-1.675757v-.1288839c0-1.18156876.8902678-2.12671707 2.6065734-2.12671707 1.7273616 0 2.6173661.94514831 2.6173661 2.13765757v.1502311c0 .7842436-.487515 1.3747612-1.1232325 1.6434693.6675692.2254801 1.2395833.7626296 1.2395833 1.78276v.1504979c0 1.3747612-1.1229693 2.255601-2.7337169 2.255601-1.5999548 0-2.7231874-.8808398-2.7231874-2.255601zm10.1501579-.4832477v-2.6422526c0-.7949172-.3919599-1.19224241-1.0595291-1.19224241-.6888914 0-1.0703219.38638471-1.0703219 1.19224241v2.6422526c0 .7946504.3919599 1.1922424 1.0703219 1.1922424.6780986 0 1.0595291-.3869184 1.0595291-1.1922424zm-3.7827166.0426944v-2.7281751c0-1.64320253 1.0066186-2.69588747 2.7231875-2.69588747 1.7376278 0 2.7123947 1.13860752 2.7123947 2.69588747v2.7281751c0 1.5575468-.9747669 2.6961543-2.7337169 2.6961543-1.6952467 0-2.7018653-1.0526849-2.7018653-2.6961543zm10.0440734-3.060925v-.1288838c0-.4619006-.3074608-.84855214-.97503-.84855214-.6570398 0-.9642374.38665154-.9642374.84855214v.1288838c0 .4296129.3071976.8269381.9642374.9021871.6675692-.075249.97503-.4725742.97503-.9021871zm.1058213 3.3835349v-.172112c0-.4941882-.3814305-.9128606-1.0808513-.9987832-.6886282.0859226-1.0703219.504595-1.0703219.9987832v.172112c0 .5262091.3816937.9342079 1.0703219.9342079.6994208 0 1.0808513-.4079988 1.0808513-.9342079zm-3.8040388.1179434v-.1504979c0-.9987832.5722774-1.5572799 1.2185244-1.78276-.6143953-.2687081-1.1019103-.8378785-1.1019103-1.675757v-.1288839c0-1.18156876.8900045-2.12671707 2.6065734-2.12671707 1.7270983 0 2.6173661.94514831 2.6173661 2.13765757v.1502311c0 .7842436-.4875151 1.3747612-1.1232326 1.6434693.6675692.2254801 1.2395834.7626296 1.2395834 1.78276v.1504979c0 1.3747612-1.1229693 2.255601-2.7337169 2.255601-1.5999549 0-2.7231875-.8808398-2.7231875-2.255601zm12.4490073-3.5014783v-.1288838c0-.4619006-.3074609-.84855214-.9750301-.84855214-.6570397 0-.9642374.38665154-.9642374.84855214v.1288838c0 .4296129.3071977.8269381.9642374.9021871.6675692-.075249.9750301-.4725742.9750301-.9021871zm.1058213 3.3835349v-.172112c0-.4941882-.3814306-.9128606-1.0808514-.9987832-.6886282.0859226-1.0700587.504595-1.0700587.9987832v.172112c0 .5262091.3814305.9342079 1.0700587.9342079.6994208 0 1.0808514-.4079988 1.0808514-.9342079zm-3.8040389.1179434v-.1504979c0-.9987832.5722774-1.5572799 1.2185244-1.78276-.6143953-.2687081-1.1019103-.8378785-1.1019103-1.675757v-.1288839c0-1.18156876.8902677-2.12671707 2.6065734-2.12671707 1.7273616 0 2.6173661.94514831 2.6173661 2.13765757v.1502311c0 .7842436-.487515 1.3747612-1.1232326 1.6434693.6675692.2254801 1.2395834.7626296 1.2395834 1.78276v.1504979c0 1.3747612-1.1229693 2.255601-2.7337169 2.255601-1.5999549 0-2.7231875-.8808398-2.7231875-2.255601zm10.150158-.4832477v-2.6422526c0-.7949172-.39196-1.19224241-1.0595292-1.19224241-.6888914 0-1.0703219.38638471-1.0703219 1.19224241v2.6422526c0 .7946504.39196 1.1922424 1.0703219 1.1922424.6780987 0 1.0595292-.3869184 1.0595292-1.1922424zm-3.7827166.0426944v-2.7281751c0-1.64320253 1.0066185-2.69588747 2.7231874-2.69588747 1.7376279 0 2.7123947 1.13860752 2.7123947 2.69588747v2.7281751c0 1.5575468-.9747668 2.6961543-2.7337169 2.6961543-1.6952467 0-2.7018652-1.0526849-2.7018652-2.6961543zm11.6650872-2.9859428c.0105295 1.2352037-.646247 1.9871596-1.75895 2.9109607l-1.3246089 1.0956462h2.9882671c.116614 0 .1695247.0643085.1695247.1611716v1.2242632c0 .0965962-.0529107.1611716-.1695247.1611716h-4.8106573c-.1166141 0-.1800542-.0429613-.2013764-.1502311l-.2013763-1.0633586c-.021059-.1182102 0-.2041328.0637033-.3009958l2.1403806-1.9225843c1.1232325-.9987832 1.4409597-1.4070489 1.4304302-2.0085069-.0105295-.6337457-.4024895-.99878321-1.017148-.99878321-.6570397 0-.9429152.41893921-1.0913809.96649551-.0318517.1288839-.116614.1825188-.254287.1398243l-1.1232325-.3330166c-.1166141-.0322877-.1589952-.1398244-.1271435-.2793818.2861386-1.13860755 1.0384702-2.04079457 2.6489545-2.04079457 1.6531288 0 2.6278956 1.00972366 2.6384251 2.43811977m4.8309266 2.9432484v-2.6422526c0-.7949172-.39196-1.19224241-1.0597924-1.19224241-.6886282 0-1.0700587.38638471-1.0700587 1.19224241v2.6422526c0 .7946504.39196 1.1922424 1.0700587 1.1922424.6783619 0 1.0597924-.3869184 1.0597924-1.1922424zm-3.7827166.0426944v-2.7281751c0-1.64320253 1.0063553-2.69588747 2.7229242-2.69588747 1.7378911 0 2.7126579 1.13860752 2.7126579 2.69588747v2.7281751c0 1.5575468-.9747668 2.6961543-2.7337169 2.6961543-1.6955099 0-2.7018652-1.0526849-2.7018652-2.6961543zm14.2924564 1.1708952v1.2352037c0 .075249-.0529107.1611716-.1484657.1611716h-4.746954c-.0952918 0-.1482025-.0859226-.1482025-.1611716v-1.2352037c0-.0643085.0529107-.1502311.1482025-.1502311h1.6212771v-4.4146057l-1.5683664.623072c-.0952919.0320209-.1800542 0-.2119059-.1075366l-.4343411-1.11699346c-.0318517-.09659618-.0105295-.18278559.0952918-.22548004l2.3204347-.96676237c.1484657-.05390174.2440208-.10753664.3922232-.10753664h.8476234c.1060845 0 .1589952.06430851.1589952.16117153v6.15467128h1.525722c.095555 0 .1484657.0859226.1484657.1502311m6.0599804-4.4789143v.1182103c0 .7733031-.4238116 1.4070488-1.1764064 1.6648166.7947127.1825187 1.3354016.8592257 1.3354016 1.7614127v.1288839c0 1.4286629-1.1232325 2.3308499-2.7763613 2.3308499-1.5894254 0-2.4475782-.9128606-2.7337169-1.9441983-.0318517-.1179435 0-.2148065.1271435-.2684414l1.0595292-.3759779c.1379362-.0536349.233228-.0106737.2861387.1288838.233228.6230721.6146585.977436 1.2927572.977436.6888914 0 1.0913809-.3973252 1.0913809-.9238011v-.1072698c0-.6121316-.3495789-.9344747-1.1761432-.9344747h-.6567765c-.1060846 0-.1697879-.0536349-.1697879-.1611715v-1.0953794c0-.1075366.0637033-.1718452.1697879-.1718452h.646247c.6886281 0 1.0595292-.3116694 1.0595292-.8488189v-.0856558c0-.5480899-.4024895-.83787847-1.0489997-.83787847-.5722774 0-.9113268.24682727-1.1337621.78397677-.0423811.1288839-.1271435.1611715-.254287.0859226l-1.0279407-.5371495c-.0739696-.0429613-.1058213-.128617-.0634401-.2468273.4024894-.94541515 1.1656137-1.55754677 2.5852512-1.55754677 1.6955099 0 2.5644554.92380108 2.5644554 2.11604347m6.3563854 0v.1182103c0 .7733031-.4238117 1.4070488-1.1761432 1.6648166.7947127.1825187 1.3351384.8592257 1.3351384 1.7614127v.1288839c0 1.4286629-1.1232326 2.3308499-2.7760981 2.3308499-1.5894254 0-2.4478414-.9128606-2.7337169-1.9441983-.0318517-.1179435 0-.2148065.1271435-.2684414l1.0595292-.3759779c.1379362-.0536349.233228-.0106737.2861387.1288838.233228.6230721.6146585.977436 1.2927572.977436.6886282 0 1.0911176-.3973252 1.0911176-.9238011v-.1072698c0-.6121316-.3495788-.9344747-1.1758799-.9344747h-.6570397c-.1058213 0-.1695247-.0536349-.1695247-.1611715v-1.0953794c0-.1075366.0637034-.1718452.1695247-.1718452h.6465102c.6886282 0 1.0595292-.3116694 1.0595292-.8488189v-.0856558c0-.5480899-.4027527-.83787847-1.0489997-.83787847-.5722774 0-.9113267.24682727-1.1337621.78397677-.0423811.1288839-.1271435.1611715-.254287.0859226l-1.0279407-.5371495c-.0739696-.0429613-.1058213-.128617-.0634401-.2468273.4024894-.94541515 1.1656137-1.55754677 2.5852512-1.55754677 1.6952467 0 2.5641922.92380108 2.5641922 2.11604347" fill="#5e5e5e" transform="translate(354 239)"/></g></svg>