<svg height="18" viewBox="0 0 99 18" width="99" xmlns="http://www.w3.org/2000/svg"><g fill="none"><path d="m47.78 17.494h-46.91c-.48048773 0-.87-.3895123-.87-.87v-8.13c0-4.69110667 3.80289333-8.494 8.494-8.494h39.286c.481 0 .87.39.87.87v15.788c0 .48-.389.87-.87.87v-.035z"/><path d="m47.9460089 18h-46.91000004c-.57398611-.0022053-1.03765997-.4690121-1.03600444-1.043v-8.19c0-4.841 3.89700444-8.767 8.70300444-8.767h39.24300004c.5739861.00220525 1.0376599.46901205 1.0360044 1.043v15.914c.0016555.5739879-.4620183 1.0407947-1.0360044 1.043zm-39.26000004-17.58c-4.579.007-8.29 3.745-8.294 8.357v8.19c0 .353.284.64.635.64h46.92000004c.3510522-.0038263.6339271-.2889285.635-.64v-15.916c0-.16929761-.0668282-.33175123-.186-.452-.1188699-.12025414-.280911-.188-.45-.188z" fill="#f0f0f0"/><path d="m16.7580003 7.47638728v6.51900002c0 .0673787-.0546216.122-.1220003.122h-2.559c-.0673787 0-.122-.0546213-.122-.122-.0003817-.039837-.0201898-.0769782-.0530592-.0994888-.0328695-.0225105-.0746593-.0275546-.1119408-.0135112-.2557669.0815487-.5175833.1427395-.783.183-.3195567.0504542-.6424881.0765294-.966.078-.7835691-.0130136-1.5574388-.1755941-2.28-.479-.75482321-.3004771-1.43945577-.7536078-2.011-1.331-.56919038-.5613257-1.0165062-1.2340016-1.314-1.976-.28785836-.7256918-.43579416-1.49930101-.436-2.28000002 0-.784.148-1.56.436-2.29.29553015-.75517555.74624229-1.43993095 1.323-2.01.57125187-.5772778 1.25553389-1.03040187 2.01-1.331 1.4679655-.59518304 3.1100345-.59518304 4.578 0 .7135543.28542262 1.3641761.70807196 1.915 1.244.0233312.02293638.0364722.05428269.0364722.087s-.013141.06406362-.0364722.087l-1.802 1.802c-.0229364.02333119-.0542827.03647223-.087.03647223s-.0640636-.01314104-.087-.03647223c-.29-.274-.63-.49-1-.635-.7934941-.31888447-1.6795059-.31888447-2.473 0-.4083241.15937971-.7788909.40222359-1.088.713-.61720358.61408815-.96420804 1.44884248-.96420804 2.3195s.34700446 1.70541185.96420804 2.31950002c.278.281.606.509.967.67.349.157.723.251 1.105.279.38.028.763-.007 1.131-.105.352-.092.685-.245.984-.452.0341062-.0238412.0537082-.0634222.052-.105v-.418c-.0005491-.0669879-.0550099-.1210023-.122-.121h-2.184c-.0673787 0-.122-.0546213-.122-.122v-2.53300002c0-.067.054-.122.122-.122h4.97c.0337188-.00221592.0668463.00965256.0914866.03277656s.0385137.05543202.0385137.08922344zm9.5219997 6.57100002-.419-1.253c-.015876-.0531276-.0655825-.0888669-.121-.087h-3.638c-.0528322.0012483-.0988537.03637-.114.087l-.435 1.297c-.0150308.0502879-.0605405.0853263-.113.087h-2.68c-.0402708.0000696-.0779816-.0197382-.1007792-.0529348-.0227977-.0331965-.0277448-.0755047-.0132208-.1130652l4.03-11.83600002c.0150308-.05028795.0605405-.08532634.113-.08710749h2.454c.0557832-.00222484.1060314.03360792.122.08710749l3.821 11.83600002c.0151595.0389151.0093597.0828805-.015373.1165331-.0247326.0336526-.0649606.0523154-.106627.0494669h-2.663c-.0337914.0000727-.0660994-.0138731-.0892234-.0385134s-.0349925-.0577679-.0327766-.0914866zm-3.125-4.16000002h1.618c.0414105.00269618.0813518-.0158422.1060236-.04920981s.0306905-.07698824.0159764-.11579019l-.783-2.42c-.0147288-.05271641-.0627647-.0891709-.1175-.0891709s-.1027712.03645449-.1175.0891709l-.87 2.42c-.0189133.04371731-.0106535.09444422.021152.12990303s.0813394.04916412.126848.03509697zm16.71-7.859h2.663c.064 0 .117.05.122.113l.696 11.85400002c.0022159.0337187-.0096526.0668463-.0327766.0914866s-.055432.0385861-.0892234.0385134h-2.54c-.0643991.0007031-.1182528-.0487723-.123-.113l-.252-4.19500002c0-.06737874-.0546213-.122-.122-.122s-.122.05462126-.122.122l-1.427 4.23000002c-.0150308.0502879-.0605405.0853263-.113.087h-2.611c-.0524595-.0016737-.0979692-.0367121-.113-.087l-1.567-4.47300002c0-.06737874-.0546213-.122-.122-.122s-.122.05462126-.122.122l-.278 4.40300002c-.0042211.0642359-.0576257.1141385-.122.114h-2.56c-.0337914.0000727-.0660994-.0138731-.0892234-.0385134s-.0349925-.0577679-.0327766-.0914866l.766-11.81100002c.0047222-.06384081.057985-.11317441.122-.113h2.663c.0524595.00167366.0979692.03671205.113.087l2.507 7.154c.0147288.05271641.0627647.0891709.1175.0891709s.1027712-.03645449.1175-.0891709l2.437-7.154c.0116694-.05384407.0579778-.09318571.113-.096z" fill="#f0f0f0"/><path d="m50.87.00100026h46.928c.48 0 .87.39.87.87v8.13c0 4.69110664-3.8028933 8.49400004-8.494 8.49400004h-39.304c-.4804877 0-.87-.3895123-.87-.87v-15.78900004c.0182707-.46716011.4024829-.83635715.87-.83600026z"/><g fill="#f0f0f0"><path d="m90.3050158 18h-39.27c-.5739868-.0027553-1.0372143-.4700109-1.035008-1.044v-15.912c-.001055-.27582577.1074981-.54077645.3017862-.73656487s.458396-.3063763.7342218-.30743513h46.928c.5739867.00275531 1.0372142.47001092 1.0350079 1.044v8.193c-.0040079 4.838-3.8940079 8.758-8.6940079 8.763zm-39.27-17.588c-.3519673.0016533-.6361073.28803056-.6350033.64v15.904c0 .354.2850033.64.6360033.64h39.269c4.579-.004 8.29-3.744 8.2940032-8.36v-8.191c.001104-.35196944-.2830359-.6383467-.6350032-.64l-46.928.008z"/><path d="m58.1003328 14.5273801c-.3853264-.0008985-.7687753-.0537068-1.14-.157-.3828449-.1059862-.7471056-.2702407-1.08-.487-.5805077-.3704942-1.0568695-.8829961-1.384-1.489-.3115239-.5750861-.4815514-1.2161174-.496-1.87-.0025067-.0338854.0092314-.0672811.0323882-.0921461.0231567-.024865.0556339-.0389465.0896118-.0388539h2.585c.067 0 .122.054.122.122.002.23.074.456.209.644.105.146.234.272.383.374.19.13.413.206.644.217.233.012.466-.033.679-.13.14-.055.267-.138.374-.244.085-.085.158-.182.217-.287.0450127-.0840308.0744853-.1754976.087-.27.0218413-.1411601.0218413-.2848398 0-.426-.0130606-.0972403-.0424755-.191571-.087-.279-.0564381-.1067078-.1297117-.203618-.217-.28699998-.1104361-.10339993-.236697-.18847409-.374-.252l-.383-.148-.436-.148-.87-.296c-.30438-.11794944-.5958971-.26672369-.87-.444-.3770053-.22585255-.7078331-.52105275-.975-.87-.5235442-.7088842-.7683896-1.58541648-.688-2.463.04-.447.167-.882.375-1.28.3755235-.72028675.9823904-1.29334101 1.723-1.627.37-.161.764-.258 1.166-.288.427-.033.857.006 1.27.114.7880662.17875231 1.4931637.61723705 2.002 1.245.227.29.403.617.523.965.117.337.181.689.191 1.045.0022159.03371876-.0096526.06684628-.0327766.09148661s-.055432.03858612-.0892234.03851339h-2.523c-.0609327.00066634-.113013-.04372999-.122-.104-.005913-.16919798-.0935163-.32502003-.235-.418-.1277744-.08123414-.2656053-.14544316-.41-.191h-.139c-.0919565-.01622422-.1860435-.01622422-.278 0-.1130549.01878372-.2219999.05701596-.322.113-.1144306.0665665-.2055665.16678107-.261.287-.087156.16918387-.1057791.36544272-.052.548.05.187.168.348.33.453.165.091.337.17.514.235l.592.209.565.182c.192.064.386.14.583.227 1.3998124.61503987 2.3067752 1.99605222 2.315 3.52499998.0054148.7539371-.2123966 1.492617-.626 2.123-.7734369 1.1622425-2.0851201 1.8510552-3.481 1.828zm37.197-6.99799998c.0054085.66920216-.1248813 1.33255728-.383 1.95-.2513982.59696878-.6145809 1.14038508-1.07 1.60099998-.4572619.462623-.9977181.8348016-1.593 1.097-.5738173.2549934-1.1914305.3969188-1.819.418-.0673788 0-.122.0546213-.122.122v1.688c.0000022.0669902-.0540121.1214509-.121.122h-2.533c-.0673788 0-.122-.0546212-.122-.122v-11.83699998c0-.067.055-.121.122-.121h2.646c.6691958.00606769 1.3298288.15113451 1.94.426.5945148.26709459 1.1345758.64171321 1.593 1.105.456.461.82 1.005 1.07 1.602.262.616.395 1.28.392 1.95zm-4.9940003 2.176c-.0000725.03379141.0138733.06609944.0385137.08922344.0246403.023124.0577678.03499247.0914866.03277656.254-.023.501-.091.731-.2.5294908-.24284295.9464756-.67842398 1.166-1.218.3428181-.84216493.1587488-1.80715831-.47-2.464-.2001131-.20604276-.4359272-.37409421-.696-.496-.2297812-.10880036-.4768514-.17649084-.73-.2-.0646352-.00538634-.1221863.04074237-.1310003.105zm-11.3939997-7.26708556c.8080104-.00428462 1.608162.15881012 2.35.47908556.7160048.30511662 1.3683175.74202708 1.923 1.288.551.55.991 1.2 1.297 1.914.6360542 1.50523181.6360542 3.20376819 0 4.70899998-.6245857 1.4460184-1.7757305 2.6003807-3.22 3.229-1.5022058.6355745-3.1977942.6355745-4.7 0-1.4444268-.6138633-2.5931921-1.7658565-3.203-3.212-.6309055-1.50592395-.6309055-3.20207602 0-4.70799998.6098079-1.44614352 1.7585732-2.59813668 3.203-3.212.7412507-.32302246 1.5414255-.48884591 2.35-.48708556zm0 9.30408554c.437.004.87-.082 1.27-.253.7841479-.332088 1.4084615-.956043 1.741-1.73999998.34-.81.34-1.723 0-2.533-.3323014-.7837709-.9562291-1.40769864-1.74-1.74-.8100906-.34007232-1.7229094-.34007232-2.533 0-.7837709.33230136-1.4076987.9562291-1.74 1.74-.34.81-.34 1.723 0 2.533.3323013.78377088.9562291 1.40769868 1.74 1.73999998.402.171.834.257 1.27.253zm-9.634-6.50199998v9.24599998c.0000034.0107842-.0043479.0211129-.0120671.0286438-.0077191.0075309-.0181521.0116258-.0289329.0113687h-2.721c-.0220914 0-.04-.0179211-.04-.0400125v-9.24599998h-2.267c-.0220914 0-.0400125-.01790861-.0400125-.04v-2.721c-.0002571-.01078085.0038378-.02121381.0113687-.02893296s.0178596-.01206705.0286438-.01206705h7.326c.0220914 0 .04.01790862.04.04000001v2.722c0 .02209139-.0179086.04-.04.04z"/></g></g></svg>