<svg width="21" height="24" viewBox="0 0 21 24" xmlns="http://www.w3.org/2000/svg">
  <g fill="none">
    <path d="M14.75 13.36c.03-.12.04-.2.13-.26.28-.02.88-.43 1.3-.5.31-.07.98-.12.98-.12l.15 1.1s-.5.26-.8.35c-.2.06-.62.07-.62.07.27.37.23.82.23.82s.28.14.1.42c-.07.15-.78.3-1.3.8l-.13.16a.91.91 0 0 1-.23.19c-.1.06-.17.09-.12-.06.02-.06.06-.27-.14-.24-.2.03-.11.17-.2.24-.23-.04-.37-.28-.47-.29.02-.03.04-.43 1.43-.7.1-.06.2-.13.26-.24.06-.1.1-.22.07-.32-.64-.83-.75-1.16-.64-1.42zm-1.2-4.3c-.05.04-.1.09-.13.1-.02.02-.62-.41-.78-.37-.02 0 0-.07.17-.14.1-.03.33-.05.33-.05s.98-.06 1.45.03c.32.07.37.43.48.7.22.47.8 1.32.8 1.32l-.49.43-.87-.37s.03-.96-.1-1.42a.28.28 0 0 0-.16-.2 1.33 1.33 0 0 0-.54-.1c-.05 0-.1.03-.16.08zm2.78-4.12c-.02.01-.02.03.01.05-.01.04 0 .07.03.09-.02.06.02.08.04.1-.02.04-.01.08.05.11-.03.08.01.1.05.13-.01.06 0 .1.06.14-.01.06.01.11.07.14-.01.07.02.11.07.15 0 .06 0 .11.07.15-.02.11.04.12.07.15-.02.12.04.12.07.15-.03.11.03.12.07.14-.03.1.41.03.31 0 0-.04.03-.1-.07-.12 0-.05.03-.1-.08-.14 0-.04.03-.1-.08-.14-.01-.05.01-.1-.08-.15 0-.08-.04-.11-.09-.14 0-.06-.02-.12-.08-.14 0-.06-.02-.11-.09-.14.02-.06-.02-.1-.07-.13 0-.05 0-.1-.08-.12.01-.06-.02-.09-.07-.1 0-.03.01-.07-.06-.09.01-.04-.01-.06-.05-.07 0-.03-.01-.04-.04-.04 0-.02-.05-.08-.06-.07l.03.09z" fill="#797979"/>
    <path d="M7.57 20.03c-.15.03-.49.3-.31.54.12.15.19.3.19.44s-.06.28-.18.43c-.2-.03-.26-.2-.28-.27-.03.33-.14.54-.3.67-.23.18-.57.17-1 .06.25-.13.4-.22.5-.33.06-.1.06-.2.03-.35-.02-.1 0-.18.04-.26-.06.05-.14.1-.22.08 0 0-.33-.81.96-1.32.06-.03.07-.08-.03-.1a.67.67 0 0 0-.53.11c-.2.14-.18.48-.73.64a.37.37 0 0 1-.08-.23c0-.07.02-.15.05-.25a.54.54 0 0 0-.14.22c-.1.3-.24.61-.46.7-.34.13-.7.03-.94-.6.2.08.3.08.4.03.28-.21.33-.6.6-.83-.07.02.8-.66 1.57-.47a.8.8 0 0 1 .37.15c.23.22.22.04.08-.12-.16-.2-.42-.15-.63-.24-.15-.07.29-.95.56-.92.26.02.32.16.42.28l.2.25.25-.46c.07-.12.18-.22.23-.26.03-.02 4.42.07 4.45.07.07.01.16.09.19.11.04.06.2.36.3.6l.21-.25c.1-.12.22-.24.31-.3.53-.22.8.64.86.69 0 0 .18.2-.82.49-.14.16-.15.34.09.12 1.17-.68 2 .34 1.93.32.27.22.32.62.61.82.1.06.2.06.4-.02-.25.63-.6.73-.95.6-.21-.09-.37-.4-.46-.7a.54.54 0 0 0-.14-.22c.03.1.05.18.05.25 0 .08-.02.15-.08.23-.4-.02-.53-.5-.73-.64-.13-.1-.72-.23-.56 0l.33.14c1.04.55.63 1.16.63 1.16-.08.03-.16-.02-.22-.07.04.07.06.15.04.26-.03.15-.03.26.04.35.09.11.24.2.48.33-.42.11-.76.12-.99-.06-.16-.13-.27-.34-.3-.67-.02.07-.07.24-.28.27a.69.69 0 0 1-.18-.43c0-.15.07-.3.19-.45.18-.22-.16-.5-.31-.54-.6-.05-.7.5-.62.81.08.31.16.55.16.73.07.72-4.87.72-4.8 0 .03-.35.05-.54.1-.85.04-.17.22-.77-.55-.74z" fill="#CCC"/>
    <path d="M6.2 22.17c-.17.23-.35.35-.56.35a1 1 0 0 1-.51-.15c.04-.08.07-.16.18-.2a.7.7 0 0 1-.3-.08c-.1-.06-.16-.15-.27-.2a.53.53 0 0 0-.2-.07c.1-.2.27-.32.45-.33.12-.01.25.02.38.1a1.16 1.16 0 0 1-.07-.23.32.32 0 0 1 .01-.18c.07 0 .13 0 .19.02a.6.6 0 0 1 .34.2c.11.12.19.27.26.41.05.09.17.12.27.12a.7.7 0 0 0 .34-.12 1 1 0 0 0 .18-.23c-.1.34-.37.5-.7.59zm-.76-1.78s-.14.22-.25.3a.67.67 0 0 1-.25.13.38.38 0 0 1-.25-.05c-.07-.04-.14-.1-.16-.18a.25.25 0 0 1 .07-.2c.05-.06.13-.1.18-.16a.36.36 0 0 0 .1-.17c.02-.1-.07-.25-.07-.25-.19 0-.18.04-.26.06 0 0 0-.22-.08-.32-.09-.1-.37-.24-.37-.24s.02.11 0 .19c-.02.07-.07.14-.09.22a1 1 0 0 0 0 .25.32.32 0 0 0-.2-.18c-.47 1.18 1.28 1.78 1.63.6zm9.19 1.77c-.33-.1-.6-.25-.7-.58 0 0 .1.16.19.22.09.07.22.13.33.12.1 0 .22-.03.27-.11.08-.15.15-.3.26-.4a.7.7 0 0 1 .35-.22.83.83 0 0 1 .18-.02.3.3 0 0 1 .02.19l-.07.22a.65.65 0 0 1 .37-.1c.19.02.35.13.46.34a.53.53 0 0 0-.2.06c-.11.06-.18.15-.28.2a.7.7 0 0 1-.3.09c.11.04.14.11.19.2a1 1 0 0 1-.51.15c-.21 0-.4-.12-.56-.36zm.76-1.77c.34 1.17 2.1.57 1.62-.6-.07.03-.14.06-.2.18 0 0 .05-.52-.45-.42-.08.1-.08.32-.08.32-.08-.03-.08-.06-.26-.07 0 0-.2.25.02.43.06.05.14.1.18.15.2.5-.5.6-.83 0z" fill="#8E8E8E"/>
    <path d="M14.28 17.22c-.07.14.1.25.2.35.5.55 1.24 1 2.11 1.24v-.27c-.03-.07-.12-.42.42-.37.88.25 1.37.4 1.46.46.43.28-.04.59-.14.7-.1.1-.14.33-.15.38-.04.17-.06.2-.18.22-.74.04-1.24 0-3.14-.8-1-.53-1.1-1.13-1.1-1.19-.1-.26.28-.2.31-.5.02-.08.04-.38.24-.41-.18-.39-1.8-.05-2.18.03-.11.03-1.72.3-1.73.3-.01 0-1.26-.23-1.55-.3-.37-.08-1.88-.5-2.01.1a.2.2 0 0 1 .02.09l.05.19c-.01.35.33.27.32.5 0 .06-.03.11-.04.16-.08.15-.4.67-1.06 1.03a5.24 5.24 0 0 1-3.12.8c-.12-.02-.17-.05-.2-.21-.02-.06-.03-.13-.07-.22-.02-.07-.06-.12-.09-.17a2.24 2.24 0 0 0-.15-.2c-.16-.06-.15-.22-.12-.36.05-.17.4-.33 1.04-.48l.56-.11c.34-.03.44.11.44.2 0 .3-.43.33-.48.32-.07-.02-.1-.1 0-.12.18.04.57-.24.15-.25-.23 0-1.47.27-1.56.53 0 .1.08.14.13.15h.01a5.19 5.19 0 0 0 3.83-1.44c.1-.1.34-.31.13-.4-.05 0-.65.1-.7-.17a.24.24 0 0 1 0-.2.29.29 0 0 1 .1-.13.58.58 0 0 1 .2-.1l1.37-.45c.16-.05.26-.02.33.02s.1.11.06.3c0 .02-.06.08.04.2.07.07.5.18.77.26.33.09 1.33.22 2.19.16.86-.06 1-.11 1.2-.16.26-.09.55-.16.78-.3.08-.07.03-.14.02-.17-.05-.15-.03-.42.37-.35.38.1 1.68.52 1.7.72.08.57-.67.25-.78.42zm2.71 1.69c.44.09.88.13 1.32.1.07 0 .1-.02.13-.03a.11.11 0 0 0 .05-.1c-.04-.08-.08-.11-.19-.16l-.4-.15-.94-.25h-.15c-.08.03-.17.17.01.24l.22.02c.05 0 .08.04.06.08l-.04.03c-.03.06-.04.14-.07.22z" fill="#797979"/>
    <path d="M13.18 16.57c.04-.13-.18-.2-.02-.33.16-.14.8.14 1.02.22.68.28.86.36.7.56-.06.08-.41-.01-.57.07-.15.08-.12.02-.17.16a.79.79 0 0 0-.18-.16 1.48 1.48 0 0 0-.36-.16l-.11-.01c-.16-.02-.3.02-.33.14a.1.1 0 0 0 0 .03c.04.1.08.17.08.24 0 .12-.11.24-.23.28-.13.06-.18.07-.33.1l-.42.13-.34.05c-.35.07-.74.1-1.19.12h-.48a6.91 6.91 0 0 1-1.19-.12l-.33-.05-.42-.12c-.16-.04-.21-.05-.34-.11-.12-.03-.23-.16-.23-.28 0-.07.04-.14.08-.23.03-.2-.18-.2-.32-.18-.49.1-.6.28-.65.34-.06-.15-.03-.1-.17-.17-.16-.08-.48-.01-.59-.07-.14-.08-.08-.22.38-.45.4.04.96-.46 1.38-.35.07.01-.04.39 0 .48.03.02.1.07.1.05.35.2.96.35 1.49.4.37.04.72.06 1.06.07.23 0 .59-.02 1.05-.07.53-.05 1.1-.2 1.46-.4-.07.03.14-.05.17-.18z" fill="#8E8E8E"/>
    <path d="M10.28 7.8a4.4 4.4 0 1 0 0 8.81 4.4 4.4 0 0 0 0-8.81zm0 .85a3.53 3.53 0 0 1 3.54 3.56 3.53 3.53 0 1 1-7.08 0 3.53 3.53 0 0 1 3.54-3.56z" fill="#797979"/>
    <path d="M7.44 8.8c-.15-.07-.31-.31-.31-.31h.35c.18 0 .48-.1.59-.23V8.2c.01-.06-.55-.01-.76.04-.16.04-.36.11-.53.17-.15.06-.3.1-.41.1A.79.79 0 0 1 6 8.4a1 1 0 0 1 .06-.07c.04-.06.08-.1.14-.14a.66.66 0 0 1-.35-.04.69.69 0 0 1-.29-.26.52.52 0 0 1-.08-.22c.07.03.15.04.2.04l.23-.05h.2a.26.26 0 0 1-.15-.15s.12-.14.29-.12c.23.03.43.2.66.11.2-.07.3-.22-.01-.15a.82.82 0 0 1-.4-.05c-.2-.06-.3-.2-.47-.2-.24-.03-.51.1-.73-.06-.17-.14-.19-.28-.19-.28.08 0 .12-.1.23-.12-.5-.16-.34-.57-.33-.62.2-.05.32.04.37.09-.12-.33.04-.7-.11-1.02-.06-.1-.14-.15-.35-.18.52-.42.88-.33 1.1-.05.15.19.13.53.06.84-.03.1 0 .2.01.26.02-.1.06-.36.27-.4 0 0 .31.07.31.92 0 .1.06.26.4.36.1.03.11-.02.08-.07-.86-.98-.18-1.62-.18-1.62.09.02.13.1.16.18-.01-.28.25-.28.24-.57a1.4 1.4 0 0 0-.26-.53c.42.11.72.28.83.55.08.19.06.43-.08.73.12-.13.31-.11.38-.1.03.2.01.35-.06.47a.73.73 0 0 1-.38.29c-.27.1-.12.52 0 .62.14.12.33.13.52.1.2-.04.36-.22.65-.36.18-.1.53-.52.6-.57.03.53.04.63-.03 1.09-.14.88-.5 1.78-1.5 1.89-.15 0-.47-.08-.6-.13zm5.16-.14c-1-.11-1.36-1.01-1.5-1.9-.08-.45-.07-.54-.02-1.08.06.05.41.48.59.57.29.14.45.32.65.36.19.03.38.02.52-.1.12-.1.27-.51 0-.62a.73.73 0 0 1-.38-.29.69.69 0 0 1-.06-.47.39.39 0 0 1 .2 0c.06.02.12.05.17.1-.13-.3-.15-.54-.07-.73.1-.27.4-.44.83-.54a1.4 1.4 0 0 0-.26.52c-.01.11.04.2.15.32.07.08.08.16.09.25.02-.07.07-.16.15-.18 0 0 .17.16.21.29.06.17.07.34.04.51-.02.17-.11.4-.2.52-.03.03-.17.2-.22.3-.03.05-.02.1.08.07a.67.67 0 0 0 .4-.36c.1-.22.07-.4.1-.6 0-.07.06-.18.11-.24s.1-.08.1-.08c.09.04.14.09.18.16.04.07.06.14.09.24a.54.54 0 0 0 .01-.26c-.07-.3-.1-.65.05-.83.22-.29.59-.38 1.1.04-.2.03-.28.08-.34.18-.15.32 0 .69-.12 1.02.06-.05.1-.08.17-.1a.33.33 0 0 1 .2 0 .58.58 0 0 1-.04.43c-.06.11-.18.15-.28.2.11.02.14.12.22.12 0 0-.01.14-.19.28-.21.17-.49.03-.73.05-.16.01-.27.15-.47.21a.82.82 0 0 1-.39.05c-.32-.07-.22.08-.02.15.24.09.44-.08.67-.1.17-.03.3.11.3.11a.26.26 0 0 1-.17.16.46.46 0 0 1 .2-.01c.08 0 .05.02.23.05.06 0 .14 0 .2-.04 0 .06-.03.14-.08.22-.06.1-.15.2-.28.26a.66.66 0 0 1-.35.04c.06.04.1.08.14.14a1 1 0 0 1 .05.07s-.2.13-.35.13c-.11 0-.27-.04-.41-.1a4.69 4.69 0 0 0-.54-.17c-.2-.05-.77-.1-.76-.04l.01.05c.11.14.4.23.58.23h.36s-.16.24-.32.3c-.13.06-.45.14-.6.14z" fill="#CCC"/>
    <path d="M8.63 4.82c-.09-.33-.06-.59.1-.77.4-.35.63-.23 1.15-.06.21.02.17.01.22 0-.05-.1-.06-.27.13-.3h.1c.08 0 .24.06.13.3 0 0 .01.02.19 0 .14-.02.45-.2.75-.15.84.18.51.98.51.98l-.15-.04c.13-.3.06-.46-.03-.59-.22-.3-.54-.23-.9-.08-.2.1-.53-.01-.54 0a.8.8 0 0 1-.47.03c-.53-.15-.73-.25-.99.03-.18.2-.07.6-.06.6.05.17.22.48.22.5 0 .02.09.18.22.17h1.54c.22-.02.46 0 .62 0 .14.01.2-.16.24-.26l.15-.4.15.04c-.15.3-.27.87-.37 1.29.36.32.87.63 1.3.32.11-.11.17-.26.07-.5.48.44.13.8-.08.9-.06.03-.2.03-.2.03.07.04.24.17.26.37-.09.1-.23.04-.28.04.05.06.22.26.11.36-.3.03-.53-.17-.64-.24.02.03.05.2.02.23-.2.01-.3-.06-.43-.19-.27-.3-2.43-.02-2.7.27a.47.47 0 0 1-.42.19c-.04-.06 0-.2.02-.23-.12.07-.28.26-.65.24-.06-.13.07-.3.12-.36-.04 0-.16.05-.23.03-.02 0-.04-.06-.05-.07-.02-.21.19-.33.26-.37 0 0-.46.07-.51-.46-.01-.16.07-.42.22-.47-.09.24-.03.39.08.5.36.33 1.17-.23 1.27-.57a8.66 8.66 0 0 0-.45-1.31zm-.65.36s.07-.6-.57-.6a.99.99 0 0 1-1 .16c0-.06.05-.23.26-.33a.65.65 0 0 1-.38-.1c-.16-.1-.24-.28-.23-.52.08.04.14.05.2.05.43-.08.53-.02.65.04-.08-.1-.07-.17-.06-.26a1 1 0 0 1 .52.12c.17.1.27.3.3.59.24.24.4.51.31.85zm-3.56.01c.08.01.15.02.26-.06 0 0-.13.1-.13.22.01.27-.12.4-.12.4s.3.03.44-.03c.1-.04.23-.23.23-.23.05.06.03.08.19.18.29-.16.2-.32.19-.38-.23-.4.34-.84.58-.2.05.13.07.4.07.4.28-1.2-1.54-1.56-1.71-.3zm2.2 2.96c.12 0 .2 0 .3.1-.14-.36-.01-.58.26-.76.02.2.2.25.26.4.02.07.03.14 0 .24.06-.11.14-.19.27-.19.11.1.15.2.14.29-.01.06-.06.13-.08.22a.3.3 0 0 0 .02.27c.06.09.22.14.5.16-.2.08-.41.11-.67.09-.44-.05-.93-.25-1-.62a.61.61 0 0 1 0-.2zm6.35-4.1c.03-.28.13-.47.31-.58a1 1 0 0 1 .52-.12c0 .1.02.17-.06.26.38-.13.4.06.85-.09 0 .24-.08.42-.23.52-.1.07-.23.1-.38.1.26.15.25.27.26.33-.6.16-.87-.07-1-.15-.5-.21-.57.6-.57.6-.09-.35.07-.62.3-.86zm1.62.77c.26-.61.76-.17.58.2-.09.21.2.39.2.39.15-.1.13-.13.18-.19 0 0 .12.19.23.23.13.06.44.03.44.03s0-.1-.2-.23c-.19-.12-.05-.39-.05-.39.1.08.18.07.26.06-.18-1.26-2-.9-1.7.3 0 0 0-.26.06-.4zm-.57 3.06v.2c-.07.37-.55.57-1 .62-.25.02-.46 0-.66-.08.28-.03.43-.08.5-.17a.3.3 0 0 0 .02-.27c-.03-.08-.07-.16-.08-.22-.02-.1.03-.2.14-.29.13 0 .2.08.26.2a.42.42 0 0 1 0-.24c.07-.16.25-.21.27-.4.27.17.4.39.27.75.08-.1.17-.1.28-.1z" fill="#8E8E8E"/>
    <path d="M10.4 9.2c.1.04.23.08.4.11.5.11 1.25.14 1.78-.38.26.32.35.52.6.84-.3.34-.36.95-.3 1.62l.04.98.12 1.61c.03.59-.52.96-.8 1.1a3 3 0 0 1-1.07.35c-.18.02-.69.18-.88.3l-.01-.02c-.08-.12-.57-.23-.85-.3a3.08 3.08 0 0 1-1.07-.33c-.27-.14-.87-.51-.84-1.1.08-1.02.13-1.5.17-2.61.06-.68 0-1.29-.3-1.62.25-.33.34-.51.6-.84.33.36 1.12.47 1.72.39.22-.03.42-.08.56-.17h.01s0 .01 0 0l.12.07z" fill="#484848"/>
    <path d="M9.48 8.96c-.35.17-.5-.05-.85-.12.27-.08.45-.17.6-.3.17-.17.28-.4.41-.71h1.28c.13.32.25.54.42.7.14.14.33.23.6.31-.36.07-.5.29-.86.12.04.7-.39.47-.8.89-.4-.42-.84-.18-.8-.89z" fill="#797979"/>
    <path d="M11.64 7.08c0 .4-.11.72-.36.98-.24.25-.62.5-1 .5-.37 0-.75-.25-1-.5a1.34 1.34 0 0 1-.36-.98 1.37 1.37 0 0 1 1.36-1.38 1.37 1.37 0 0 1 1.36 1.38z" fill="#484848"/>
    <path d="M9.22 1.2a2.72 2.72 0 0 0-.09-.43c-.01-.1 0-.17.06-.22.12-.08.18-.04.32.03.07.01.05 0 .07 0-.01-.02 0-.09.07-.07.03 0 .07.02.03.09h.05c.05 0 .14-.04.22-.01.23.08.11.3.11.3l-.04-.02c.05-.08.04-.13.01-.17C9.98.6 9.9.6 9.78.64c-.06.02-.15-.02-.15-.02a.23.23 0 0 1-.14 0c-.14-.06-.2-.1-.28-.03-.06.05-.04.17-.04.17l.05.15s.02.05.06.06l.18.02.25.03.18.02c.04 0 .06-.04.08-.06 0-.03.03-.07.05-.11l.04.01c-.06.1-.13.31-.18.43.02-.03.05-.05.15-.06.06.13.04.24-.08.34-.15.22-.08.34-.08.34s.06.1.22.13c.2.04.38 0 .57 0 .1 0 .26.02.36.05.16.04.4.2.72.2.24 0 .18-.2.06-.25-.05-.04-.85-.18-.96-.47-.12-.24.04-.36-.08-.67.29-.3.26.32.26.32s-.1.32.3.46l.56.18c.4.18.27.74-.27.62a1.5 1.5 0 0 1-.22-.04l.02.07c.72.77.28 1.28.27 1.3 0 0 .02.1 0 .14-.04.03-.47-.06-.47-.09 0 0-.04-.07-.02-.11.03-.05-.04-.11.14-.11.17 0 .17-.16.17-.2.01-.25-.22-.38-.28-.4-.1-.03-.19-.03-.28-.23-.01-.03-.13-.32-.32-.29-.21.31-.93.24-.93.24.02.05-.29.8-.32.85a.45.45 0 0 1-.14.14c-.04.03-.09.03-.12.06-.08.09-.16.18-.26.2 0 0-.06-.05-.07-.09l.01-.12c.02-.05.06-.08.1-.12.08-.07.07-.05.12-.11.08-.1.14-.26.16-.36.02-.14.02-.31.03-.47-.31-.14-.3-.54-.11-1.12.05-.1.02-.2.02-.2s-.18-.18-.03-.3c.1.03.13.02.14.05z" fill="#8E8E8E"/>
    <path d="M10.26 12.47H7.64v-.1h2.62V9.85h.07v2.52h2.59v.1h-2.58v3.26h-.08v-3.26z" fill="#CCC"/>
    <path d="M8.04 21.41l-.02.18c-.06.79.53 1.3.78 1.42.4.19.8.07 1.26.1.2.02.27.23.37.34.1-.1.24-.32.44-.34.23-.03.5.06.73.04.18-.02.49-.1.66-.19.26-.12.63-.57.57-1.36l-.03-.19H8.04z" fill="#797979"/>
    <path d="M18.77 10.03c.17-.21.58-.36.81-.7.36-.62.32-.37.78-.6-.03.27-.46.4-.36.6.1-.02.17-.19.33-.08 0 0-.1.04-.13.13.01.4-.26.46-.26.46.1-.02.17.03.25.08 0 0-.19 0-.25.09-.04.06-.07.35-.67.42-.07.03-.65.05-.39 1.25.07.23.09.35.22.57.04.05.18.32.2.07.06-.58.4-.5.4-.5s-.14.07-.1.16c.12.33-.03.49-.03.49s.2-.05.2-.35a.5.5 0 0 1 .13-.15c-.05.26.17.22.1.53 0 .1-.18.18-.22.25-.04.08-.03.15-.03.15l.12-.13c.11-.09.23 0 .24-.24.3.2-.09.5-.09.5.12-.07.46-.17.66.16.05.08.18.03.18.03.01 0-.04.1-.19.1-.09.02-.74-.21-.67.47.25.58.36 1.17 0 1.49.02.02.41.4-.1.65-.19.24-.46.15-.46.15s.4-.27.05-.64c-.75.1-1.1-1.76-1.34-2 0 0 .1.45.1.53.04.39-.11.88-.11.88.24.24.38.48.51.72.11.09.26.12.37.22.11.1-.05.35-.08.5-.05.3-.1.55-.12.84-.02.2.02.44-.03.64-.02.08-.07.48-.13.56-.04.06-.13-.14-.13-.14-.03.05-.39-.16-.43.35-.02.1-.13.1-.18.1-.09-.04-.05-.2-.11-.24-.09-.04-.2-.02-.33 0 0-.34.5-.51.62-.67a1.6 1.6 0 0 0 .05-1.66c-.07-.1-.29-.24-.29-.21.01.15-.22.23-.26.16 0 0-.23.23-.24.13.1-.2-.13-.23-.06-.48.03-.05.08-.1.14-.14-.1-.06-.66-.2-.77-1.75-.07-.65.39-1 .39-1-.15-.21-.28-.51-.96-1a1.5 1.5 0 0 1-.34-.24s-.33.27-.68-.08c-.67-.65-.93-.8-1.02-.86-.18-.08-.12.12-.12.12.04.22.1.4.2.53.13.21.15.2.32.3.17.1.37.57-.22.74 0 0-.37-.1-.4-.72a8.8 8.8 0 0 0-.37-.98c-.05-.1-.06-.5.25-.5.06-.02.34.06.44.07.13.02.25.01.37.04.25.05.75.28.75.28 0-1.19 1.3-1.21 1.96-1.89l.37-.39c.06-.07-.13.03-.22.04-.2.01-.39-.1-.67 0-.12.03-.19.25-.42.26 0 .11-.05.2-.12.23-.13.06-.27.03-.34.2-.08-.16-.03-.28.17-.3.04 0 .08-.05.09-.1-.18 0-.18-.11-.18-.11s.33-.06.36-.2c.02-.03.12-.34-.62-.1-.03 0-.16-.05-.1-.18.02-.04.07-.06.1-.21.03-.16.25-.19.35-.2.18-.13.26-.18.42-.24.05-.09.13-.18.22-.26-.17 0-.2-.14-.2-.14s.3 0 .4-.33c.12-.35.4-.17.5-.12 0-.15.04-.27.06-.41.17.18.26.4.32.64.12-.53.35-.4.28-.66.14.13.28.39.23.57 0 0 .41-.49.83.15.02.04.06.06.15.07-.08.2-.48 0-.54.2 0 0 .58-.16.77.64.01.05.1.1.1.1-.16.13-.5-.22-.62-.1 0 0 .33.05.4.5.02.07.13.14.13.14s-.1.06-.18 0c-.23-.19-.32-.11-.32-.11.13.11.2.21.22.31.08.22-.04.32.06.6 0 0-.13 0-.17-.07-.08-.16-.22-.18-.16 0 .17.49-.36.52-.39.59-.03.07.22.22-.11.12-.05-.04-.11-.14-.11-.14s.06.49-.56.7c0 .01.38.2.22.66-.01.05 0 .08.03.11.05.06-.07.17-.3 0-.06.16 1.2 3.34 1.3 3.54.08.17.18.4.35.48.12.06.28.04.39-.03.45-.21 0-1.11-.07-1.27-.24-.48-.7-1.07-.92-1.56 0 0-.14-.3-.2-.54-.06-.18-.1-.42-.11-.62-.05-.4.2-.84.34-1.02z" fill="#CCC"/>
    <path d="M7.34 8.93c-.2.15-.48.5-.86 1.04-.04-.02-.08.06-.11.04a.94.94 0 0 1-.83.61c.24.26 1.29.04 1.27-.26-.17-.4.12-.6.46-.23.06-.1.15-.15.24-.15.4.14.41.36.03.68 0 0 .14-.03.18-.01.27.14.07.59-.22.52-.25-.1-.32-.06-.4.04-.08.1-.34.33-.45.3-.1-.03-.47.12-.57-.05-.03-.05-.3.23-.53-.03-.04.12-.22.3-.42.53-.28.48-.95.43-.97.78.06.05.12.13.07.28.16-.02.2-.12.49-.07.72.06.8.78.8.78.31-.07.16.57.16.57s-.18.65-.2.85c0 .11.03.24.08.34.38.63.85.67 1.21.6.51-.24.63.02.61.08.18.34-1.2.77-1.27.74-.24-.03-.16-.23-.16-.23-.35-.34-.69-.2-.72-.4-.04.1-.23-.01-.29-.25-.05-.14-.24-.21-.43-.3-.16-.42.16-.51.18-.57.05-.13-.06-.26-.1-.38-.06-.1-.06-.3-.06-.3-.13.3-.56.34-.56.34s.35.15.23.5c-.02.09-.04.23-.46.41-.17.16-.09.31-.11.41-.25-.07-.2-.45-.13-.59 0 0-.45.7-.78.78-.1.02.01.33.01.6 0 .24.02.55.16.76.06.09.14.16.21.17.08.02.19.03.27-.05.17-.17.36-.1.4-.01.17.28-.16.36-.16.36.02.05.05.1.05.14-.01.46-.48.22-.48.22s-.12.18-.31.16c-.2.02-.27-.23-.27-.23l-.12.06c-.45-.12-.1-.44-.1-.44l-.06-.22s-.18-.12-.25-.27c-.08-.15 0-.3 0-.3-.1.1-.17-.22-.05-.47-.13.09-.35-.17-.13-.33-.1-.03-.23-.22-.06-.33.05-.03.54-.17.66-.6.1-.18.18-.96.18-1.13 0-.18.13-.88.13-.88s-.3.3-.44.73c-.4 1.47-.98 1.49-1.1 1.5-.06.01-.48-.04-.23.3.13.2-.19.2-.25.06-.07.12.17.22 0 .23-.18.02-.28-.21-.26-.3 0-.02-.08.08-.15 0 0-.08-.05-.12-.05-.21.02-.12.12-.22.34-.22-.2-.18-.25-.35-.23-.54.06-.45.6-.88.68-1.04.04-.07 0-.13-.05-.17-.04-.04.05-.27.21-.2-.16-.22 0-.4.2-.36-.05-.3.1-.46.34-.45-.06-.25.3-.52.38-.27 0 0 .2-.34.23-.53.05-.23.01-.43-.1-.56a.51.51 0 0 0-.47-.15c-.32.04-.44.31-.23.57-.27 0-.5-.2-.48-.48.01-.3.37-.55.77-.46 0-.02-.03-.1-.13-.12-.88-.22-.6-.75-.61-1l-.03-.12s-.15.27-.4.35c-.03-.02 0-.08.02-.16.03-.14-.08-.22-.02-.42.21-.7 1.03-.2 1.03.26.04.23 0 .46.13.63.05.06.15.1.24.13-.11-.24-.24-1.27.64-.77-.3.01-.38.27-.27.52.19.43.4.79.4 1.28 0 .24-.07.45-.18.67-.36.7-1.48 2.15-1.57 2.25-.2.2-.4.4-.42.61 0 .62.83.41 1.04-.14.09-.15.15-.37.2-.53l.17-.42c.16-.47.4-.85.77-1.15.17-.27.33-.57.42-.88.08-.23.15-.53.22-.85a.93.93 0 0 1-.07.08c0-.14.04-.37-.08-.45-.03.21-.12.28-.2.32.04-.32.09-.36-.03-.68a.67.67 0 0 1 0-.42c.05-.1.15-.28.07-.37-.1.11-.13.1-.28.09.3-.33-.02-.35-.18-.66-.04-.08-.04-.17-.06-.3 0 0-.73-.1-.5-.62.13-.08.37 0 .37-.01a5.68 5.68 0 0 0-.7-.57c-.17-.17-.24-.35-.2-.52.12-.35.3-.36.7-.43.14-.06.1-.06.14-.08-.07-.04-.16-.17 0-.25.08-.05.2-.07.22.12 0 0 .01.01.12-.06.08-.07.22-.28.42-.36.59-.18.66.44.66.44l-.1.02c-.03-.22-.13-.3-.23-.35-.24-.11-.42.04-.6.25-.09.14-.33.19-.34.2a.58.58 0 0 1-.28.18c-.39.1-.55.1-.61.36-.05.2.17.4.17.4.1.1.3.23.3.24.02.02.13.09.21.03l.4-.22.57-.32c.13-.08.29-.16.4-.21.08-.04.06-.17.05-.25l-.05-.3.11-.03c.02.3.07.6.14.9 0 0-.04-.15.22-.31.5.3.24.76.24.76.1.09.18.14.22.22.17.3.02.57.45.51 0 .12-.06.2-.16.24.12.07.39-.3.56-.02-.24.01-.14.23-.16.3 0 0 .19-.18.32-.21.41-.16.5.25.5.26.38-.24.85-.13 1.05-.12z" fill="#8E8E8E"/>
  </g>
</svg>
