<svg height="14" viewBox="0 0 19 14" width="19" xmlns="http://www.w3.org/2000/svg"><g fill="none" fill-rule="evenodd"><path d="m0 0h19v14h-19z" fill="#111"/><g transform="translate(1 1)"><path d="m0 3.667382h17v4.492509h-17z" fill="#fff"/><path d="m8.50091518 4.44392395.05180731.88856506-.02423116.29308502.01584865-.00065008.07653049-.28205618.28075992-.84172934-.18155108.87160313-.09278846.2602099c.00836139.00173719.01662115.003749.02476929.0060255l.14701146-.25319424.49057921-.74088899-.40253705.79524287-.1572534.23028192.01689221.0097025.17042563-.16797532.66696634-.58955828-.59609078.66468813-.17221325.14681472.01509001.01880346.22317959-.12681624.79790081-.39805015-.74902191.488836-.22114105.10480558.00908256.02122481.24828076-.06535776.87445962-.17941556-.85090839.27967049-.24366975.04455703.00583776.0355458.26144566-.00431663.89219392.03598908-.8937665.06694567-.26187308-.01661812-.002.018.2299751.06137532.84764224.27880143-.87772587-.18028463-.22189147-.07889212-.014.026.21453108.11847387.75454167.47415258-.80773249-.38578928-.20551561-.13518928-.01582465.01435211.1723719.17169201.59369975.66231378-.66935737-.59193263-.15907723-.18405571-.01863705.00998255.10074727.17162215.3997917.79037785-.49121529-.74183991-.0878617-.18213674-.00946198.00197665.05577402.21989748.16538695.87135868-.2667418-.84972499-.03772665-.22611334-.02015733.0006776.00025678.2241481-.05180731.88520722-.0518073-.88856506.01813689-.22971518-.03000953-.01017051-.0402582.24453117-.2667418.84972499.16538695-.87135868.06323883-.25505052-.00806241-.00684696-.10573007.22076391-.49172856.74248079.40030497-.79101873.13002918-.22283025-.00520464-.00639572-.19064263.22165196-.66935737.59193263.59369975-.66231379.18617074-.18624058-.22130466.14680695-.80773248.38578928.75454167-.47415258.27274037-.1498072c-.00090969-.00236939-.00179589-.0047503-.00265831-.00714244l-.29130601.0963721-.8807607.1650456.85241307-.26406876.30079472-.075207-.00172767-.01166617-.30923349.01961812-.89376651-.06694567.89219393-.03598908.31280607.00531663.001-.011-.28392586-.05172361-.85090844-.2796705.87445966.17941556.28037464.07397855.00526691-.01586065.00073309-.00113935-.27725446-.13076611-.74902191-.48883599.79790082.39805014.26688727.152627.00448828-.00604482-.22547845-.19101461-.59609077-.66468813.66696634.58955828.20908772.20692798c.00142667-.00124998.00286291-.00248943.00430862-.00371823l-.18229287-.26317966-.40253704-.79524288.49057921.740889.158212.27360039.00824524-.00491766-.1048654-.29339687-.18155107-.87160313.28075992.84172934.07765655.29005618.0007679-.30379277z" fill="#008"/><path d="m8.5 4.16630894c1.01983366 0 1.8465722.82097145 1.8465722 1.83369106s-.82673854 1.83369106-1.8465722 1.83369106-1.84657219-.82097145-1.84657219-1.83369106.82673853-1.83369106 1.84657219-1.83369106zm.04562411.29942655-.12061203.00447527c-.00649693.06352784-.06052507.11310223-.12621328.11310223-.03503371 0-.06675078-.01410116-.08970942-.03689965l-.03002359-.04694795-.14503209.03787815.00600113.02801839c0 .06957864-.05680086.12598328-.12686828.12598328-.0447653 0-.08411546-.02302319-.10669758-.05779584-.04894106.02015703-.09676671.04735295-.14290359.07692393.01132683.01742386.01600667.0363101.01600667.05628175 0 .06957865-.05680087.12598329-.12686828.12598329-.03243862 0-.06203376-.01208947-.08446555-.03197868-.03766825.03157172-.07353767.0668585-.10760843.10380786.02174435.02181362.03391874.05120231.03391874.08341464 0 .06957865-.05680086.12598329-.12686828.12598329-.02088548 0-.04059223-.00501154-.05796728-.0138897-.03355309.04739846-.06299494.09790346-.08951942.15011961.03153024.02319366.04965061.05829.04965061.09758905 0 .05218399-.03195048.09695759-.07748542.1160829l-.04938286.00990039c-.00437922 0-.00870661-.00022033-.01297155-.00065044l-.0365287.13144769c.05010882.01683852.08617793.06391838.08617793.11936387 0 .06957865-.05680087.12598329-.12686829.12598329l.00775772.16448186c.05968261.01026093.10507375.06193231.10507375.12413141 0 .06957865-.05680087.12598329-.12686829.12598329l.05240949.00450407c.01110405.05044626.02470836.09996403.04067748.14841878l.02176603-.00427755c.07006742 0 .12686829.05640464.12686829.12598329 0 .04187603-.02057473.07898011-.05223345.10188768.0219044.04671803.04887146.09270049.07809252.13708714l.04791389-.01145012c.07006742 0 .12686829.05640464.12686829.12598329 0 .01739466-.00355006.03396595-.00996994.04903838l-.01769993.02589879.10700889.10670172.02620649-.01830284.04938286-.00990039c.07006742 0 .12686829.05640464.12686829.12598329 0 .01686755-.00333816.03296087-.00939424.04766405.04217853.03089405.08797987.05762215.13520938.0819984.02158328-.03562957.058948-.05606078.1011182-.05606078.05255057 0 .0976387.03172761.11689835.07694491l.00996994.04903838-.00487961.02385332c.05635486.01862949.11415311.0341218.1731847.04626833.01923918-.04438181.0638437-.07530111.11572054-.07530111.05255057 0 .09763869.03172761.11689835.07694491l.00445421.02835884.07791253.00191761.07520037-.00543192c.00793681-.06200195.06125559-.10993763.12584899-.10993763.03503371 0 .06675078.01410116.08970942.03689965l.02868907.04562463c.05593885-.01168223.11076311-.02637045.16429345-.04388663l-.00288427-.01734492c0-.06957864.05680087-.12598328.12686829-.12598328.04022389 0 .07607563.01858877.09931888.0475874l.07247675-.03692109.06619095-.04388134-.00996993-.04903838c0-.06957865.05680086-.12598329.12686828-.12598329.02984353 0 .05728034.01023253.07894659.02735722l.11282081-.11383183c-.01583773-.01976221-.0240238-.0442777-.0240238-.07069182 0-.06957865.05680087-.12598329.12686828-.12598329l.03952669.00623464c.02765009-.0374906.0525153-.07996112.07532561-.12365983-.02919847-.02246897-.0461501-.05654788-.0461501-.09455844 0-.05218398.03195049-.09695759.07748542-.1160829l.04938286-.00990039c.00383181 0 .00762395.00016869.01136929.000499.01877398-.05116078.03369835-.10512206.0456458-.16018242-.04448266-.02010542-.07481566-.06391612-.07481566-.11476206 0-.05218399.03195048-.09695759.07748546-.1160829l.029406-.00433172.0025813-.08941752-.0058019-.07315705c-.06012667-.00989294-.10597576-.06177108-.10597576-.12428315 0-.05218399.03195049-.09695759.07748546-.1160829-.0094887-.05475865-.02367735-.10773234-.0405628-.15950052l-.01718597.00351831c-.07006742 0-.12686828-.05640464-.12686828-.12598329 0-.04058754.01932807-.07669227.04934285-.09973309l-.04129834-.07886156-.03584587-.05468769-.04938286.0099004c-.07006742 0-.12686828-.05640464-.12686828-.12598329l.00753497-.04287161.02143839-.035533-.12294108-.12177708-.02561462.01711602-.04938286.0099004c-.07006742 0-.12686828-.05640464-.12686828-.12598329l.00829072-.04489107c-.04139615-.02868086-.08516926-.05375771-.13022633-.07670024-.02221291.03442488-.05957763.05485609-.10174784.05485609-.05255056 0-.09763869-.03172761-.11689834-.07694491l-.00996994-.04903838c0-.00737955.00063895-.01461091.0018649-.02164251l-.1425811-.03928211c-.01717177.04824846-.06381468.08267512-.11855485.08267512-.07006741 0-.12686828-.05640464-.12686828-.12598329z" fill="#008" fill-rule="nonzero"/><path d="m0 0h17v3.667382h-17z" fill="#f93"/><path d="m0 8.159891h17v3.840109h-17z" fill="#128807"/></g></g></svg>