<svg height="51" viewBox="0 0 60 51" width="60" xmlns="http://www.w3.org/2000/svg"><g fill="#28ffbb" transform="translate(1 1)"><path d="m22.4611984 32.8896605v4.3572182l-13.6101745 3.7618408c-.05641191.0161781-.17171255.0520569-.33736481.1082215-.28142554.0954176-.59638079.2123338-.93629072.3512685-.97170731.3971755-1.94314805.8890198-2.84532292 1.4778242-2.42045489 1.57971-3.87558241 3.5309061-3.97643277 5.8830657l-.00561268.2630027h-1.5c0-3.0644975 1.76965704-5.5143765 4.66222422-7.4022105.98875912-.6453137 2.04331908-1.1792416 3.09761248-1.6101733.27689274-.1131771.53933185-.213196.78381226-.3004007l.44049688-.1498371.21031453-.0645941 12.51653963-3.4598864.0001984-3.2153395z"/><path d="m58.7111984 32.8896605v4.3572182l-13.6101745 3.7618408c-.0564119.0161781-.1717125.0520569-.3373648.1082215-.2814255.0954176-.5963808.2123338-.9362907.3512685-.9717073.3971755-1.9431481.8890198-2.8453229 1.4778242-2.4204549 1.57971-3.8755825 3.5309061-3.9764328 5.8830657l-.0056127.2630027h-1.5c0-3.0644975 1.769657-5.5143765 4.6622242-7.4022105.9887591-.6453137 2.0433191-1.1792416 3.0976125-1.6101733.2768927-.1131771.5393318-.213196.7838123-.3004007l.4404968-.1498371.2103146-.0645941 12.5165396-3.4598864.0001984-3.2153395z" transform="matrix(-1 0 0 1 94.211 0)"/><path d="m41.2457983 13.0424383c2.8733236 0 5.2177871 2.2269409 5.2177871 4.9938271 0 2.6959405-2.225776 4.8792701-4.9978359 4.9894632l-.2199512.004364v-1.5c2.0616578 0 3.7177871-1.5731114 3.7177871-3.4938272 0-1.8587572-1.5510056-3.3919744-3.5195797-3.4889574l-.1982074-.0048697z"/><path d="m12.3676471 13.0424383c2.8733236 0 5.2177871 2.2269409 5.2177871 4.9938271 0 2.6959405-2.225776 4.8792701-4.997836 4.9894632l-.2199511.004364v-1.5c2.0616577 0 3.7177871-1.5731114 3.7177871-3.4938272 0-1.8587572-1.5510056-3.3919744-3.5195798-3.4889574l-.1982073-.0048697z" transform="matrix(-1 0 0 1 29.953 0)"/><path d="m30.8960429 31.9681875c1.2295554 0 3.9009811-1.9747504 5.728203-4.2217587l1.1637837.9463655c-2.0212357 2.4855948-4.874817 4.628046-6.7062503 4.7681143l-.1857364.0072789h-3.573357c-1.8193812 0-4.8010532-2.2040882-6.8919867-4.7753932-.5829262-.7168477-1.0229793-1.6214103-1.345866-2.6696846-.2727207-.8854065-.4479099-1.8253614-.5467325-2.7639441-.0230024-.2184691-.0407064-.4267362-.0538066-.6226588l-.0213423-.4015538-.0061278-.2460019v-10.4173731c0-4.76082254 5.0843994-8.94690135 10.5025598-8.94690135 5.2594618 0 10.6177239 4.11850244 10.797849 8.70905665l.004672.2378447v10.4173731h-1.5v-10.4173731c0-3.69610304-4.5413617-7.31297047-9.0519912-7.44327107l-.2505298-.00363028c-4.5610645 0-8.8411472 3.45432934-8.9981047 7.23270595l-.0044551.2141954v10.4144293c.0001868.0490656.0026288.1499833.0095059.2951709.01169.2467969.0321562.5229925.0635249.8209218.0893842.8489398.2473543 1.6965074.4885158 2.4794553.2705169.8782521.6288795 1.6148935 1.0761123 2.1648735 1.7642143 2.1695253 4.3154151 4.0852453 5.5959579 4.2147842l.1322451.0069745z"/><path d="m16.3194844 11.3474303-.0042596.2610684h-1.5c0-6.54618212 6.7448635-12.3584987 13.9458269-12.3584987 7.0103503 0 14.147742 5.75836704 14.3474046 12.0869401l.0042888.2715586h-1.5c0-5.44698235-6.3118679-10.69456056-12.5589339-10.85473528l-.2927595-.00376342c-6.2205204 0-12.0745141 4.87968124-12.4288706 10.3371322zm26.7932607 10.9326623v1.9593587c0 .7869917-.4046685 1.3600659-1.0258926 1.690475-.2715432.1444251-.5343787.2227529-.789937.2612355l-.1903265.0218012h-12.1472052v-1.5l12.0801821.0030007c.0660509-.0059263.2112862-.0403623.3429157-.1103718.1365612-.0726325.2054256-.1500287.224587-.2808486l.0056765-.085292v-1.9593587z"/></g></svg>