<svg height="50" viewBox="0 0 73 50" width="73" xmlns="http://www.w3.org/2000/svg"><g fill="none" fill-rule="evenodd" transform="translate(-6 -32)"><g transform="matrix(.98480775 -.17364818 .17364818 .98480775 .656323 11.267812)"><path d="m31.8804817 27.7942326c.7910409 0 1.5066536.3174843 2.0245252.8308144.5193738.5148192.8404237 1.2266315.840366 2.0062859l.146981 11.8505116-7.3334114 28.7394977c-.3318863.0323881-.5334238.0492096-.5334242.0492096-.1556233.0127721-2.1738514.1755788-3.9394635.1704937l-20.18146239-.0581272c-.78919549 0-1.50347166-.3172491-2.02087496-.8280801-.52167889-.5150524-.84316278-1.22645-.84316278-2.0091044v-37.9143167c0-.7856259.3205877-1.4969396.8417761-2.011286.51618693-.5094106 1.22975649-.8258985 2.02317278-.8258985z" stroke="#28ffbb" stroke-width="1.5"/><path d="m17.3000188 36.1870116c.8831606 2.9136047 6.347892 9.7701906 8.8236089 11.1894862l.1538922.0831187v1.3391254c-2.2964791 1.1587964-7.6072484 7.7145988-8.8403648 10.8800768l-.0691551.1841813.1494467.4916388-.3344467.1003612-.1005454.3345079-.5004546-.1525079-.5001759.1525079-.1018241-.3345079-.3330449-.1006257.1480449-.4923743-.0673381-.1825137c-1.2043001-3.090761-6.32186199-9.4398229-8.68818131-10.7978654l-.15360557-.0830515v-1.3388897c2.34931404-1.1862805 7.83942328-8.0001169 8.91605378-11.081165l.0626545-.1915031zm-.7180188 2.0989884-.1163847.2197646c-1.7190967 3.1679637-5.3187519 7.6018519-7.78104896 9.5457923l-.10156634.0774431.0993213.0771341c2.4592323 1.9437871 6.0652555 6.3842237 7.7844516 9.5502194l.1142271.2156465.1174731-.2182589c1.7189446-3.1680451 5.3201169-7.6042396 7.7815005-9.5476177l.0990264-.0771234-.0987436-.0768241c-2.4609319-1.9435355-6.0630501-6.380811-7.7819684-9.5479044z" fill="#28ffbb" fill-rule="nonzero"/></g><g fill="#28ffbb" fill-rule="nonzero" transform="matrix(.98480775 .17364818 -.17364818 .98480775 48.08075 5.234512)"><path d="m33.312017 27.0442326h-29.00026747c-1.99242832 0-3.6023042 1.6208986-3.6023042 3.6160284v37.8566288c0 2.001992 1.60844304 3.6160285 3.6023042 3.6160285h29.00026747c1.9924284 0 3.6023042-1.6208986 3.6023042-3.6160285v-37.8566288c0-2.0019919-1.608443-3.6160284-3.6023042-3.6160284zm0 1.5c1.1610706 0 2.1023042.9380935 2.1023042 2.1160284v37.8566288c0 1.1686503-.9402701 2.1160285-2.1023042 2.1160285h-29.00026747c-1.16107055 0-2.1023042-.9380935-2.1023042-2.1160285v-37.8566288c0-1.1686502.9402701-2.1160284 2.1023042-2.1160284z"/><path d="m16.4708618 38.0397069c-.2833548.7179382-1.2421593 1.6007898-2.7385475 2.6754977l-1.4309194 1.0105352c-.1974309.1413087-.3505095.2533344-.5162014.3771985l-.2651185.199815c-4.39198547 3.3298678-6.15097902 6.6853824-3.75704744 10.8127199l.12859094.2123126c1.58152571 2.4994519 4.5304387 3.2615271 7.0911504 2.4383348l.0662311-.0231206-.0571955.1632613c-.2047456.5460039-.4422769.9951007-.7049463 1.3553163-.3887193.5330761-.6800892.7187037-.7741868.7515332l-.0193567.0051367c-1.8376055.2645922-1.651308 2.9740717.2052185 2.984664l8.0883521.0462094c1.8561581.0105283 2.0738379-2.6958862.2398483-2.9820984l-.0487535-.0187684c-.1120881-.056659-.3735215-.2492923-.7120704-.71414l-.1055676-.1519879c-.2023761-.3053367-.3876414-.6681028-.551798-1.0924316l-.1145441-.3156946.0676665.0236035c2.6224929.873656 5.6732137.0780073 7.2487616-2.572024 2.3900474-4.0260249.7758381-7.3487661-3.4004204-10.6644787l-.5894963-.4571736c-.1862817-.1415221-.368008-.2759968-.6367554-.471067l-.9405354-.6777646c-1.5491792-1.1158249-2.5671665-2.0292588-2.9198894-2.7694406l-.055312-.1288278c-.469828-1.2344464-2.166902-1.2888182-2.7384082-.1487147zm1.3952606.5506795c.5513045 1.4485216 2.5816876 2.920117 3.5018047 3.5828476l.9864795.7116222c3.0091647 2.2004135 6.6830082 5.3354285 4.1666864 9.5741628-1.8504435 3.1123986-6.2608797 2.7265535-8.1521605-.1307515.3905514 5.8248072 2.654194 6.9730859 3.2712169 7.1790357l.1552939.0417803-8.0779364-.0479212c.1923433-.0353628 2.9900311-.6605593 3.4952175-7.1818679-1.9219088 2.8380768-6.3361735 3.1777743-8.1521604.0435838-2.47390551-4.2652192 1.2330861-7.3594822 4.269831-9.5281028l1.3220297-.9325259c1.0131424-.725084 2.7044395-2.0215522 3.2136977-3.3118631z" transform="translate(.429 .095)"/></g></g></svg>