<svg height="50" viewBox="0 0 50 50" width="50" xmlns="http://www.w3.org/2000/svg"><g fill="none" fill-rule="evenodd" transform="translate(0 -28)"><path d="m24.9079669 28.5c13.4597712 0 24.4079668 10.9487602 24.4079668 24.4091482s-10.9481956 24.4091481-24.4079668 24.4091481c-13.4600508 0-24.4079669-10.9486193-24.4079669-24.4091481 0-13.4605289 10.9479161-24.4091482 24.4079669-24.4091482zm0 1.5c-12.6317472 0-22.9079669 10.27717-22.9079669 22.9091482 0 12.5056584 10.0717229 22.7033692 22.529729 22.9060729l.3782379.0030752.3782254-.0030752c12.4576065-.2027037 22.5297414-10.4004145 22.5297414-22.9060729 0-12.6319782-10.27664-22.9091482-22.9079668-22.9091482z" fill="#28ffbb" fill-rule="nonzero"/><path d="m25.0555368 37.823453c4.1996109 0 8.0079778 1.7081343 10.7663104 4.4666434 2.7582874 2.758464 4.4663186 6.567014 4.4663186 10.7669127 0 4.1998801-1.7080143 8.00832-4.4662762 10.7666898-2.7583343 2.7584421-6.5667182 4.4665053-10.7663528 4.4665053-4.1997776 0-8.0081205-1.7080298-10.7663993-4.4664164-2.7582682-2.758376-4.46622972-6.5668517-4.46622972-10.7667787 0-4.1999455 1.70797842-8.0085313 4.46627212-10.7670016 2.758277-2.7584536 6.566603-4.4665545 10.7663569-4.4665545z" stroke="#28ffbb" stroke-width="1.5"/><path d="m33.6483223 36.8260823-1.4741203-1.8699514c2.1219489-1.7237096 3.8565612-3.9157172 5.0441803-6.4253249l2.1451571 1.047189c-1.3496763 2.8300435-3.3155702 5.3027869-5.7152171 7.2480873zm-12.854937 4.5744132c-1.5729552 0-3.1030952-.1851316-4.5760151-.5246072l.5253855-2.3329832c1.3032599.3001807 2.657738.4638419 4.0506296.4638419 1.3976933 0 2.756973-.1648765 4.0638343-.4666776l.5249853 2.3325781c-1.4769213.341501-3.0114629.527848-4.5888196.527848zm-12.84453333-4.5659061c-2.4012475-1.94368-4.36834176-4.4152081-5.71961868-7.2440363l2.14475697-1.0463788c1.18961986 2.5083924 2.92583264 4.6987796 5.04938212 6.4208688zm-5.7208191-25.3476453 2.17636812 1.0601523c-1.156008 2.4140035-1.80703777 5.1213011-1.81384017 7.9821323l-2.40444862-.0008102c.00160056-3.2379813.73545957-6.3050095 2.04192067-9.0414744zm13.97213133-11.28290452.5433918 2.40630665c-2.7037543.62183177-5.1774274 1.85172183-7.27496766 3.54221302l-1.51013298-1.91937389c2.37683884-1.9213994 5.17982814-3.32062216 8.24170884-4.02914578zm9.174438-.00283571c3.0626809.70690321 5.8660703 2.10450556 8.2441096 4.02468965l-1.5109332 1.91856369c-2.0987407-1.68887078-4.5728139-2.91673534-7.2769683-3.5373518zm13.9781334 11.27480243c1.3080617 2.7352496 2.0435212 5.8014676 2.0471225 9.0382336l-2.4040485.0004051c-.0092032-2.860021-.6618336-5.5665083-1.8194421-7.9788915z" fill="#28ffbb" transform="translate(4.115 32.115)"/></g></svg>