<?xml version="1.0" encoding="UTF-8"?>
<svg width="57px" height="24px" viewBox="0 0 57 24" version="1.1" xmlns="http://www.w3.org/2000/svg" xmlns:xlink="http://www.w3.org/1999/xlink">
    <!-- Generator: Sketch 50.2 (55047) - http://www.bohemiancoding.com/sketch -->
    <title>IBAS</title>
    <desc>Created with Sketch.</desc>
    <defs></defs>
    <g id="IBAS" stroke="none" stroke-width="1" fill="none" fill-rule="evenodd">
        <g id="Group-Copy">
            <polygon id="Line-16" fill="#999999" points="5.06404001 16.2785491 5.06404001 23.9826795 57.3135081 23.9826795 57.3135081 11.1871042 19.4119082 11.1871042 10.7645138 22.1295057"></polygon>
            <polygon id="I" fill="#2B2B2B" points="21.8219401 13.9889626 23.4177827 13.9889626 23.4177827 20.7716266 21.8219401 20.7716266"></polygon>
            <path d="M42.4569357,19.6405011 L40.0734134,19.6405011 L39.7454481,20.7583546 L37.6067449,20.7583546 L40.1519403,13.9865643 L42.4338396,13.9865643 L44.979035,20.7583546 L42.7895202,20.7583546 L42.4569357,19.6405011 Z M42.0181089,18.1762054 L41.2697938,15.7418715 L40.5260978,18.1762054 L42.0181089,18.1762054 Z" id="A" fill="#2B2B2B"></path>
            <path d="M28.6145382,13.9865643 L32.1242532,13.9865643 C32.7092086,13.9865643 33.1582656,14.1484146 33.4714374,14.47212 C33.7846093,14.7958254 33.9411929,15.1965975 33.9411929,15.6744483 C33.9411929,16.0752264 33.8294461,16.4189656 33.6059489,16.7056761 C33.4569509,16.8968164 33.2389754,17.0478766 32.9520162,17.1588613 C33.3879735,17.2760119 33.7087285,17.4771686 33.9142906,17.7623377 C34.1198528,18.0475067 34.2226324,18.4058895 34.2226324,18.8374967 C34.2226324,19.1889482 34.149514,19.5049416 34.0032752,19.7854863 C33.8570363,20.066031 33.6569956,20.2879971 33.403147,20.4513912 C33.2458713,20.5531272 33.0085816,20.6271159 32.6912708,20.6733595 C32.2691096,20.7350177 31.9890526,20.7658463 31.8510914,20.7658463 L28.6145382,20.7658463 L28.6145382,13.9865643 Z M30.5059766,16.6455596 L31.3213231,16.6455596 C31.6138008,16.6455596 31.8172905,16.5892974 31.9317983,16.4767712 C32.0463061,16.3642451 32.1035591,16.2016241 32.1035591,15.9889034 C32.1035591,15.7915973 32.0463061,15.6374541 31.9317983,15.5264694 C31.8172905,15.4154847 31.6179396,15.3599932 31.3337396,15.3599932 L30.5059766,15.3599932 L30.5059766,16.6455596 Z M30.5059766,19.3091793 L31.4620428,19.3091793 C31.784872,19.3091793 32.0125045,19.2452099 32.1449473,19.1172692 C32.27739,18.9893285 32.3436104,18.8174589 32.3436104,18.6016553 C32.3436104,18.4012663 32.2780798,18.2401867 32.1470167,18.1184118 C32.0159536,17.9966369 31.7862516,17.9357504 31.457904,17.9357504 L30.5059766,17.9357504 L30.5059766,19.3091793 Z" id="B" fill="#2B2B2B"></path>
            <circle id="Oval-11" fill="#CCCCCC" cx="26.1743856" cy="17.2010445" r="1.14285714"></circle>
            <path d="M26.1743856,18.4348108 C25.4929953,18.4348108 24.9406193,17.8824348 24.9406193,17.2010445 C24.9406193,16.5196543 25.4929953,15.9672783 26.1743856,15.9672783 C26.8557759,15.9672783 27.4081518,16.5196543 27.4081518,17.2010445 C27.4081518,17.8824348 26.8557759,18.4348108 26.1743856,18.4348108 Z M26.1743856,18.2529926 C26.7553604,18.2529926 27.2263336,17.7820194 27.2263336,17.2010445 C27.2263336,16.6200697 26.7553604,16.1490965 26.1743856,16.1490965 C25.5934107,16.1490965 25.1224375,16.6200697 25.1224375,17.2010445 C25.1224375,17.7820194 25.5934107,18.2529926 26.1743856,18.2529926 Z" id="Oval-11" fill="#888888" fill-rule="nonzero"></path>
            <circle id="Oval-11" fill="#CCCCCC" cx="36.2073334" cy="17.2010445" r="1.14285714"></circle>
            <path d="M36.2073334,18.4348108 C35.5259432,18.4348108 34.9735672,17.8824348 34.9735672,17.2010445 C34.9735672,16.5196543 35.5259432,15.9672783 36.2073334,15.9672783 C36.8887237,15.9672783 37.4410997,16.5196543 37.4410997,17.2010445 C37.4410997,17.8824348 36.8887237,18.4348108 36.2073334,18.4348108 Z M36.2073334,18.2529926 C36.7883083,18.2529926 37.2592815,17.7820194 37.2592815,17.2010445 C37.2592815,16.6200697 36.7883083,16.1490965 36.2073334,16.1490965 C35.6263586,16.1490965 35.1553854,16.6200697 35.1553854,17.2010445 C35.1553854,17.7820194 35.6263586,18.2529926 36.2073334,18.2529926 Z" id="Oval-11" fill="#888888" fill-rule="nonzero"></path>
            <circle id="Oval-11" fill="#CCCCCC" cx="46.1218921" cy="17.2010445" r="1.14285714"></circle>
            <path d="M46.1218921,18.4348108 C45.4405018,18.4348108 44.8881259,17.8824348 44.8881259,17.2010445 C44.8881259,16.5196543 45.4405018,15.9672783 46.1218921,15.9672783 C46.8032824,15.9672783 47.3556583,16.5196543 47.3556583,17.2010445 C47.3556583,17.8824348 46.8032824,18.4348108 46.1218921,18.4348108 Z M46.1218921,18.2529926 C46.702867,18.2529926 47.1738401,17.7820194 47.1738401,17.2010445 C47.1738401,16.6200697 46.702867,16.1490965 46.1218921,16.1490965 C45.5409172,16.1490965 45.069944,16.6200697 45.069944,17.2010445 C45.069944,17.7820194 45.5409172,18.2529926 46.1218921,18.2529926 Z" id="Oval-11" fill="#888888" fill-rule="nonzero"></path>
            <path d="M0.0726336356,10.0770537 L9.7938982,0.248966276 L19.9825259,10.1008382 L10.2186362,19.8119212 L0.0726336356,10.0770537 Z M9.17147025,4.03991949 C10.2220338,6.00024814 10.7457507,7.98588338 10.7457507,10.0009011 C10.7457507,12.0159187 10.2220338,14.001554 9.17147025,15.9618826 L9.00951936,16.2640795 L9.61391303,16.5879813 L9.77586393,16.2857844 C10.8785547,14.2281874 11.431465,12.1318677 11.431465,10.0009011 C11.431465,7.86993442 10.8785547,5.77361469 9.77586393,3.7160177 L9.61391303,3.41382086 L9.00951936,3.73772265 L9.17147025,4.03991949 Z M4.44499799,8.72997391 C4.68255707,9.17325397 4.80046724,9.62030196 4.80046724,10.0733823 C4.80046724,10.5264625 4.68255707,10.9735105 4.44499799,11.4167906 L4.35502527,11.5846777 L4.69079954,11.7646232 L4.78077225,11.596736 C5.04729092,11.099418 5.18141962,10.5908786 5.18141962,10.0733823 C5.18141962,9.55588588 5.04729092,9.0473465 4.78077225,8.55002847 L4.69079954,8.38214134 L4.35502527,8.56208678 L4.44499799,8.72997391 Z M5.59557903,7.4620464 C6.04360779,8.29805829 6.26657892,9.14343743 6.26657892,10.0009011 C6.26657892,10.8583647 6.04360779,11.7037438 5.59557903,12.5397557 L5.48761177,12.7412203 L5.89054089,12.9571548 L5.99850815,12.7556902 C6.48128841,11.8548328 6.72372178,10.935664 6.72372178,10.0009011 C6.72372178,9.06613813 6.48128841,8.14696932 5.99850815,7.24611188 L5.89054089,7.04464732 L5.48761177,7.26058184 L5.59557903,7.4620464 Z M6.75459564,6.33908128 C7.38764369,7.52033516 7.70295061,8.71579881 7.70295061,9.92864233 C7.70295061,11.1414859 7.38764369,12.3369495 6.75459564,13.5182034 L6.62863383,13.7532454 L7.0987178,14.005169 L7.2246796,13.770127 C7.89827109,12.51322 8.23628394,11.2316684 8.23628394,9.92864233 C8.23628394,8.62561628 7.89827109,7.3440647 7.2246796,6.08715767 L7.0987178,5.85211569 L6.62863383,6.1040393 L6.75459564,6.33908128 Z M8.08062158,5.06843469 C8.91607456,6.62737174 9.33241007,8.20587806 9.33241007,9.80757663 C9.33241007,11.4092752 8.91607456,12.9877815 8.08062158,14.5467186 L7.93666524,14.815338 L8.47390406,15.1032507 L8.61786041,14.8346313 C9.49964873,13.1892335 9.94193388,11.5123409 9.94193388,9.80757663 C9.94193388,8.10281232 9.49964873,6.42591978 8.61786041,4.78052199 L8.47390406,4.51190258 L7.93666524,4.79981527 L8.08062158,5.06843469 Z M2.95728903,10.9636744 C3.37807741,10.9636744 3.71919379,10.622558 3.71919379,10.2017696 C3.71919379,9.78098125 3.37807741,9.43986487 2.95728903,9.43986487 C2.53650064,9.43986487 2.19538426,9.78098125 2.19538426,10.2017696 C2.19538426,10.622558 2.53650064,10.9636744 2.95728903,10.9636744 Z" id="Combined-Shape" fill="#999999" transform="translate(10.027580, 10.030444) rotate(180.000000) translate(-10.027580, -10.030444) "></path>
            <path d="M9.11192803,4.06946218 L8.94997714,3.76726534 L9.55437081,3.44336356 L9.71632171,3.74556039 C10.8190125,5.80315738 11.3719228,7.89947712 11.3719228,10.0304438 C11.3719228,12.1614104 10.8190125,14.2577301 9.71632171,16.3153271 L9.55437081,16.617524 L8.94997714,16.2936222 L9.11192803,15.9914253 C10.1624916,14.0310967 10.6862085,12.0454614 10.6862085,10.0304438 C10.6862085,8.01542608 10.1624916,6.02979083 9.11192803,4.06946218 Z M4.38545577,8.7595166 L4.29548305,8.59162947 L4.63125732,8.41168404 L4.72123004,8.57957117 C4.9877487,9.07688919 5.1218774,9.58542857 5.1218774,10.102925 C5.1218774,10.6204213 4.9877487,11.1289607 4.72123004,11.6262787 L4.63125732,11.7941659 L4.29548305,11.6142204 L4.38545577,11.4463333 C4.62301485,11.0030532 4.74092502,10.5560052 4.74092502,10.102925 C4.74092502,9.64984466 4.62301485,9.20279666 4.38545577,8.7595166 Z M5.53603681,7.4915891 L5.42806955,7.29012454 L5.83099867,7.07419001 L5.93896593,7.27565457 C6.42174619,8.17651202 6.66417956,9.09568083 6.66417956,10.0304438 C6.66417956,10.9652067 6.42174619,11.8843755 5.93896593,12.7852329 L5.83099867,12.9866975 L5.42806955,12.770763 L5.53603681,12.5692984 C5.98406557,11.7332865 6.20703671,10.8879074 6.20703671,10.0304438 C6.20703671,9.17298013 5.98406557,8.32760099 5.53603681,7.4915891 Z M6.69505342,6.36862398 L6.56909161,6.13358199 L7.03917558,5.88165838 L7.16513739,6.11670036 C7.83872887,7.37360739 8.17674172,8.65515898 8.17674172,9.95818503 C8.17674172,11.2612111 7.83872887,12.5427627 7.16513739,13.7996697 L7.03917558,14.0347117 L6.56909161,13.7827881 L6.69505342,13.5477461 C7.32810147,12.3664922 7.64340839,11.1710286 7.64340839,9.95818503 C7.64340839,8.7453415 7.32810147,7.54987785 6.69505342,6.36862398 Z M8.02107937,5.09797738 L7.87712302,4.82935797 L8.41436184,4.54144527 L8.55831819,4.81006468 C9.44010651,6.45546247 9.88239166,8.13235501 9.88239166,9.83711933 C9.88239166,11.5418836 9.44010651,13.2187762 8.55831819,14.864174 L8.41436184,15.1327934 L7.87712302,14.8448807 L8.02107937,14.5762613 C8.85653235,13.0173242 9.27286785,11.4388179 9.27286785,9.83711933 C9.27286785,8.23542075 8.85653235,6.65691443 8.02107937,5.09797738 Z" id="Line-15" fill="#CCCCCC" fill-rule="nonzero"></path>
            <circle id="Oval-9" fill="#CCCCCC" cx="2.89774681" cy="10.2313123" r="1"></circle>
            <path d="M2.89774681,11.0841262 C2.42675072,11.0841262 2.04493296,10.7023084 2.04493296,10.2313123 C2.04493296,9.76031624 2.42675072,9.37849847 2.89774681,9.37849847 C3.36874289,9.37849847 3.75056066,9.76031624 3.75056066,10.2313123 C3.75056066,10.7023084 3.36874289,11.0841262 2.89774681,11.0841262 Z M2.89774681,10.902308 C3.26832748,10.902308 3.56874248,10.601893 3.56874248,10.2313123 C3.56874248,9.86073165 3.26832748,9.56031666 2.89774681,9.56031666 C2.52716613,9.56031666 2.22675114,9.86073165 2.22675114,10.2313123 C2.22675114,10.601893 2.52716613,10.902308 2.89774681,10.902308 Z" id="Oval-9" fill="#888888" fill-rule="nonzero"></path>
            <path d="M48.5397678,18.7535595 C49.2094211,19.2238251 49.6828155,19.3992939 50.2776007,19.3992939 C50.5812324,19.3992939 50.841187,19.3256201 51.0574726,19.1782702 C51.2737581,19.0309203 51.3818993,18.8522221 51.3818993,18.6421701 C51.3818993,18.4728745 51.3049527,18.3223918 51.1510572,18.1907174 C50.9930024,18.0590431 50.6976939,17.9116954 50.2651228,17.74867 C49.6537002,17.5229425 49.1878614,17.2705705 48.8675924,16.9915462 C48.5431641,16.712522 48.3809524,16.3582606 48.3809524,15.9287514 C48.3809524,15.3832433 48.6346682,14.9231738 49.1421073,14.5485289 C49.6495465,14.173884 50.3212694,13.9865643 51.1572962,13.9865643 C51.7312847,13.9865643 52.3281407,14.1025614 52.947882,14.3345591 L52.947882,15.9990251 C52.3988494,15.600867 51.8727012,15.3033013 51.3694213,15.3033013 C51.1198611,15.3033013 50.9035788,15.3597323 50.7205679,15.4725961 C50.5375571,15.5854598 50.4460531,15.7218348 50.4460531,15.8817251 C50.4460531,16.0384802 50.52092,16.1732877 50.6706561,16.2861514 C50.816233,16.3990152 51.0865858,16.5212824 51.4817229,16.6529567 C52.1347388,16.872414 52.6296926,17.1232185 52.9665989,17.4053779 C53.3035052,17.6906723 53.4719559,18.0747168 53.4719559,18.5575227 C53.4719559,19.1657329 53.1818464,19.6845848 52.6016189,20.114094 C52.0213913,20.5436032 51.3132747,20.7583546 50.4772479,20.7583546 C49.8283913,20.7583546 49.2884485,20.672496 48.5397678,20.3777963 L48.5397678,18.7535595 Z" id="S" fill="#2B2B2B"></path>
        </g>
    </g>
</svg>