<svg xmlns="http://www.w3.org/2000/svg" width="29" height="26" viewBox="0 0 29 26">
  <g fill="none" transform="translate(1)">
    <path fill="#28FFBB" d="M13.5,-9.23705556e-14 C17.4238463,-9.23705556e-14 19.9730343,0.567506216 21.1475638,1.70251865 L21.1475638,1.70251865 L21.1475638,6.81007459 C21.1475638,8.51259323 20.5031194,10.498865 19.2142305,12.7688898 C17.9253416,15.0389147 16.0205981,16.4576803 13.5,17.0251865 L13.5,17.0251865 L13.4142305,17.0251865 C10.8936324,16.4576803 8.98888889,15.0389147 7.7,12.7688898 C6.41111111,10.498865 5.76666667,8.51259323 5.76666667,6.81007459 L5.76666667,6.81007459 L5.76666667,1.70251865 C6.94119623,0.567506216 9.57615367,-9.23705556e-14 13.5,-9.23705556e-14 Z M15.430886,3.86277247 C15.547682,3.41184183 15.0017077,3.04096755 14.6209304,3.36351905 L14.6209304,3.36351905 L11.4778877,6.02594991 L11.4143016,6.08962532 C11.1520543,6.40179565 11.3665259,6.90756926 11.8011834,6.90746742 L11.8011834,6.90746742 L13.035,6.906 L11.3419811,10.8322099 L11.3138727,10.913466 C11.1880396,11.3953543 11.8140484,11.7634895 12.1727916,11.3646984 L12.1727916,11.3646984 L16.3313865,6.74186284 L16.3824641,6.67517723 C16.5894792,6.3540504 16.3636961,5.90755471 15.9597692,5.90746744 L15.9597692,5.90746744 L14.556,5.907 L15.4032265,3.94305465 Z"/>
    <path stroke="#28FFBB" d="M6.76666667,1.70251866 L1.93333333,1.70251866 C0.644444444,1.80892607 0,2.6601854 0,4.25629663 C0,6.65046348 2.22333333,11.0663712 9.95666667,14.4714085"/>
    <path stroke="#28FFBB" d="M23.6166667,1.70251865 L18.7833333,1.70251865 C17.4944444,1.80892606 16.85,2.66018539 16.85,4.25629662 C16.85,6.65046346 19.0733333,11.0663712 26.8066667,14.4714085" transform="matrix(-1 0 0 1 43.657 0)"/>
    <path fill="#28FFBB" d="M8.66666667,20.1887364 C10.9222222,20.1887364 12.5047435,18.7699708 13.4142305,15.9324397 C14.3237175,13.0949087 12.590513,13.0949087 13.5,15.9324397 C14.409487,18.7699708 15.9920083,20.1887364 18.2475638,20.1887364"/>
    <rect width="12.429" height="5.993" x="7.286" y="20.007" fill="#28FFBB" rx="1.143"/>
  </g>
</svg>
