<svg xmlns="http://www.w3.org/2000/svg" width="35" height="24" viewBox="0 0 35 24">
  <path fill="#28FFBB" d="M18.6988024,2 C20.5098574,2 22.1926708,2.4467303 23.7472931,3.3402043 C25.3580101,4.2653057 26.6241269,5.50270909 27.5456814,7.05245161 C28.4752494,8.60219412 28.9400264,10.2784211 28.9400264,12.0811828 C28.9400264,13.8760376 28.4752494,15.5522646 27.5456814,17.109914 C26.6481674,18.6201222 25.4341378,19.8219453 23.9035559,20.7154193 C22.2687984,21.6642413 20.4978376,22.1386451 18.5906205,22.1386451 C16.8516872,22.1386451 15.1808939,21.6879615 13.5781905,20.7865806 C11.8873383,19.8377587 10.5851613,18.5529149 9.67162028,16.9320107 C9.54969344,16.7145384 9.43668565,16.4933433 9.33259688,16.2684255 L11.8100274,16.2681152 C12.1739159,16.8487545 12.6230675,17.3863248 13.1574829,17.8808279 C14.0229428,18.6873266 15.0085906,19.2803314 16.114456,19.6598602 C16.9558753,19.9524136 17.7892686,20.0986882 18.6146609,20.0986882 C20.1051752,20.0986882 21.4954996,19.7152117 22.7856759,18.9482473 C24.0518116,18.1970966 25.0294461,17.2008485 25.7186085,15.9594731 C26.3837305,14.7655388 26.7162865,13.4727883 26.7162865,12.0811828 C26.7162865,9.80401011 25.8949133,7.87081439 24.2521422,6.28153763 C23.4027094,5.45131843 22.4170615,4.85040687 21.2951691,4.47878494 C20.4136822,4.18623151 19.5442286,4.03995699 18.6867822,4.03995699 C17.1321599,4.03995699 15.7137886,4.44320027 14.4316258,5.24969892 C13.2616523,5.98503593 12.3441183,6.94175038 11.6789963,8.11987096 C11.0062915,9.30844747 10.6619116,10.5572754 10.6458473,11.8663905 L8.42291581,11.866 L8.42795717,11.5932787 C8.48376481,10.0519704 8.90232256,8.60953513 9.6836405,7.26593548 C10.6132085,5.66875187 11.843265,4.41158164 13.3738468,3.4943871 C15.0326449,2.49812405 16.8076123,2 18.6988024,2 Z M18.2181148,12.9577922 L18.2181148,15.0121481 L0,15.0121481 L0,12.9577922 L18.2181148,12.9577922 Z M31.7515715,12.9577922 L34.3541594,12.9577922 L34.3541594,15.0121481 L31.7515715,15.0121481 L31.7515715,12.9577922 Z"/>
</svg>
