<svg xmlns="http://www.w3.org/2000/svg" width="26" height="24" viewBox="0 0 26 24">
  <g fill="#28FFBB" fill-rule="evenodd" transform="translate(0 2)">
    <path d="M6,0 C7.90275102,0 9.59863485,0.885703705 10.6978596,2.26731917 C9.98491556,2.43429264 9.30186642,2.67839405 8.6573034,2.98962155 C8.09460359,1.81288838 6.89223192,1 5.5,1 C3.56700338,1 2,2.56700338 2,4.5 C2,5.89223192 2.81288838,7.09460359 3.98993201,7.65838187 C3.46326662,8.74740284 3.12890798,9.94758155 3.03043987,11.2139453 C1.2205927,10.1822975 0,8.23369112 0,6 C0,2.6862915 2.6862915,0 6,0 Z M20,0 C23.3137085,0 26,2.6862915 26,6 C26,8.23369112 24.7794073,10.1822975 22.9688253,11.2152158 C22.8562496,9.75669845 22.4305759,8.38709297 21.7594245,7.17201426 C22.518191,6.53116543 23,5.57184898 23,4.5 C23,2.56700338 21.4329966,1 19.5,1 C18.2492375,1 17.1517109,1.656081 16.5327906,2.64287265 C16.1349579,2.49161257 15.7239331,2.36567887 15.3026233,2.26639147 C16.4013651,0.885703705 18.097249,0 20,0 Z"/>
    <g transform="translate(4 3)">
      <path d="M9,0 C13.9705627,0 18,4.02943725 18,9 C18,13.9705627 13.9705627,18 9,18 C4.02943725,18 0,13.9705627 0,9 C0,4.02943725 4.02943725,0 9,0 Z M9,2 C6.23857625,2 4,4.23857625 4,7 C4,9.76142375 6.23857625,12 9,12 C11.7614237,12 14,9.76142375 14,7 C14,4.23857625 11.7614237,2 9,2 Z"/>
      <path fill-rule="nonzero" d="M8.99951172,9.15087891 C10.1855469,9.15087891 10.9990234,8.56298828 10.9990234,7.70849609 C10.9990234,7.05908203 10.5307617,6.55664062 9.84033203,6.44042969 L9.84033203,6.41992188 C10.4145508,6.28320312 10.7973633,5.84228516 10.7973633,5.30566406 C10.7973633,4.546875 10.059082,4 8.99951172,4 C7.94335938,4 7.19824219,4.55029297 7.19824219,5.30224609 C7.19824219,5.84570312 7.58447266,6.28662109 8.15869141,6.41992188 L8.15869141,6.44042969 C7.47167969,6.55322266 7,7.05566406 7,7.70507812 C7,8.55957031 7.80322266,9.15087891 8.99951172,9.15087891 Z M8.99951172,6.10888672 C8.54150391,6.10888672 8.22021484,5.82177734 8.22021484,5.42871094 C8.22021484,5.03564453 8.54150391,4.74511719 8.99951172,4.74511719 C9.45410156,4.74511719 9.77880859,5.03222656 9.77880859,5.42871094 C9.77880859,5.82177734 9.45410156,6.10888672 8.99951172,6.10888672 Z M8.99951172,8.39892578 C8.45605469,8.39892578 8.07666016,8.07421875 8.07666016,7.62988281 C8.07666016,7.18554688 8.45605469,6.86083984 8.99951172,6.86083984 C9.54296875,6.86083984 9.91894531,7.18554688 9.91894531,7.62988281 C9.91894531,8.07421875 9.54296875,8.39892578 8.99951172,8.39892578 Z"/>
    </g>
  </g>
</svg>
