<svg height="44" viewBox="0 0 42 44" width="42" xmlns="http://www.w3.org/2000/svg"><g fill="#fff" fill-rule="evenodd"><path d="m19.3548387-1.5c-11.52642779 0-20.8548387 9.56760093-20.8548387 21.3511166 0 11.7835157 9.32841091 21.3511167 20.8548387 21.3511167 11.5264278 0 20.8548387-9.567601 20.8548387-21.3511167 0-11.78351567-9.3284109-21.3511166-20.8548387-21.3511166zm0 3c9.8523367 0 17.8548387 8.20769436 17.8548387 18.3511166 0 10.1434223-8.002502 18.3511167-17.8548387 18.3511167s-17.8548387-8.2076944-17.8548387-18.3511167c0-10.14342224 8.002502-18.3511166 17.8548387-18.3511166z" fill-rule="nonzero" transform="translate(1.645 2)"/><g><path d="m15 16h4v12h-4z"/><path d="m23 16h4v12h-4z"/></g></g></svg>