<svg height="29" viewBox="0 0 29 29" width="29" xmlns="http://www.w3.org/2000/svg"><g fill="none" fill-rule="evenodd" transform="translate(-.203 -.161)"><ellipse cx="14.552" cy="14.681" fill="#fff" rx="12.062" ry="12.002"/><ellipse cx="14.552" cy="14.681" rx="7.61" ry="7.576" stroke="#222" stroke-width="1.585"/><path d="m22.2297257 23.9455552-2.003625-2.4141562c-1.5867108 1.3042949-3.5699583 2.0274262-5.6733066 2.0274262l-.0775667-.0003264.0775667 3.1312488c2.9165115 0 5.5912635-1.0299275 7.6769316-2.7441924zm-19.07162569-5.3108276c.93917942 2.6847323 2.80967512 4.935494 5.22654379 6.3692639l1.61119008-2.6893493c-1.80060354-1.0682448-3.17752993-2.7407904-3.86614324-4.7096147zm23.45678799-8.3134425v4.3665932l-.0038195-.3050223c-.0333708-1.3310786-.2845428-2.6083511-.7193903-3.7978623l-2.9572435 1.0698115c.3479956.9517741.5300208 1.961514.5337613 3.0003679.0000378 1.0942113-.1861183 2.1301916-.5492665 3.1078506l2.951508 1.0853794c.4479075-1.2058542.7067205-2.5028982.740631-3.8555026l.0038195-.3050222v4.4333861zm-19.69075791-4.93054843c-2.15554329 1.75318176-3.6901252 4.23383871-4.2252773 7.06539213l3.09250527.5782282c.3885767-2.0554746 1.50170149-3.90005298 3.1247316-5.21992552zm7.62866401.42619468c2.131793 0 4.1401055.74297984 5.7363605 2.07974167l2.0260933-2.39551894c-2.0066222-1.68037849-4.5715906-2.72179143-7.378258-2.80917256l-.3841958-.0059726zm-.0314663-3.13092243-.2750865.00380045c-.5463584.01356104-1.0836967.06327027-1.6096903.14681452l.4963265 3.09172915c.4580232-.07273167.9242525-.11018372 1.3963215-.11139151z" fill="#222" fill-rule="nonzero" transform="matrix(.96592583 -.25881905 .25881905 .96592583 -3.302109 4.293992)"/><ellipse cx="14.552" cy="14.681" rx="12.59" ry="12.53" stroke="#fff" stroke-width="1.057"/><path d="m16.1166046 11.724832c-.4040691-.264006-1.2957113-.8502321-1.5378165-1.4272665-.2499513.5744811-1.1483186 1.1520262-1.5546295 1.4114364-1.3674462.8701475-3.52173444 2.1835391-2.3123291 4.0749865.7974901 1.2485391 2.7360133 1.1132169 3.580019-.0173621-.2297758 2.6906145-1.5394978 2.8616823-1.5394978 2.8616823l3.5519976.0183834s-1.3057991-.1848553-1.5047513-2.8764912c.8305555 1.1382388 2.7673973 1.2919444 3.5800191.0520863 1.2301411-1.8797024-.9084551-3.2145413-2.2630115-4.0974551z" fill="#222"/></g></svg>