<?xml version="1.0" encoding="UTF-8"?>
<svg width="17px" height="18px" viewBox="0 0 17 18" version="1.1" xmlns="http://www.w3.org/2000/svg" xmlns:xlink="http://www.w3.org/1999/xlink">
    <title>Stroke 8</title>
    <g id="Published-Stage1" stroke="none" stroke-width="1" fill="none" fill-rule="evenodd">
        <g id="1.5-|-1024px-Home" transform="translate(-204.000000, -983.000000)" fill="#2A8C7F" fill-rule="nonzero">
            <g id="Group-25" transform="translate(15.000000, 697.000000)">
                <g id="Group-33" transform="translate(0.000000, 66.000000)">
                    <g id="Group-39" transform="translate(20.500000, 220.000000)">
                        <path d="M173.241506,4.04894648 L173.241506,3.10639034 L181.480771,3.10639034 L181.480771,4.04894648 L173.241506,4.04894648 Z M177.011731,10.6468394 L177.954287,10.6468394 L177.954287,13.4745078 L177.011731,13.4745078 L177.011731,10.6468394 Z M182.057383,16.551644 L182.550334,17.2856675 L172.29895,17.2856675 L172.7919,16.551644 C174.137937,14.5473394 175.685782,13.4194885 177.424642,13.4194885 C179.163502,13.4194885 180.711347,14.5473394 182.057383,16.551644 Z M177.424642,14.4215225 C176.248057,14.4215225 175.147068,15.0741994 174.115049,16.3431114 L180.734234,16.3431114 C179.702216,15.0741994 178.601227,14.4215225 177.424642,14.4215225 Z M177.277934,10.8941075 L177.187479,10.8941075 C174.597285,10.8941075 172.568509,9.26073673 172.431316,6.93926222 C172.34234,6.86301013 172.234979,6.77087375 172.113115,6.66609988 C171.734275,6.34038756 171.35541,6.01289821 171.001633,5.70463598 C170.976428,5.68267149 170.976428,5.68267149 170.95123,5.66069916 C170.018372,4.84716992 169.474852,4.35689097 169.345409,4.19420821 C169.228813,4.04780451 169.148305,3.87259151 169.092453,3.67449463 C169.021959,3.42446947 168.999632,3.18466874 169,3.00705646 C169.000237,1.76590918 169.973635,0.75 171.180558,0.75 C172.389853,0.75 173.366472,1.76848658 173.366472,3.01630708 L173.366472,6.68724105 C173.366472,8.58182396 174.992682,9.95155136 177.187479,9.95155136 L177.277934,9.95155136 C179.481232,9.95155136 181.134453,8.57480072 181.134453,6.68724105 L181.134453,3.0075011 C181.134453,1.76688522 182.113999,0.75 183.32193,0.75 C184.527737,0.75 185.490065,1.76465768 185.490065,2.99976389 C185.491535,3.18952401 185.470807,3.42655778 185.40376,3.67118089 C185.349168,3.87036017 185.269104,4.04668079 185.151719,4.19420821 C185.021684,4.35748713 184.480411,4.84291359 183.550623,5.64846003 C183.524885,5.67075503 183.524885,5.67075503 183.499142,5.69304168 C183.146376,5.99839878 182.768598,6.32273666 182.390847,6.64527317 C182.268023,6.7501443 182.159973,6.84222618 182.070694,6.91820096 C181.942643,9.24705532 179.882256,10.8941075 177.277934,10.8941075 Z M172.423916,3.01630708 C172.423916,2.28040016 171.860237,1.69255614 171.180558,1.69255614 C170.503334,1.69255614 169.942602,2.27783839 169.942556,3.00886854 C169.942341,3.10687141 169.957412,3.26893937 169.999641,3.41871731 C170.024196,3.50580947 170.054314,3.57135685 170.082844,3.60718057 C170.155804,3.69887617 170.74044,4.2262431 171.570733,4.95032733 C171.595781,4.97216815 171.595781,4.97216815 171.620838,4.99400474 C171.878284,5.21832915 172.149275,5.4530536 172.423916,5.68989683 L172.423916,3.01630708 Z M182.882264,4.98038898 C182.907853,4.95823579 182.907853,4.95823579 182.933432,4.9360781 C183.759464,4.22042395 184.341868,3.6981099 184.414284,3.60718057 C184.441894,3.57248057 184.471155,3.50804081 184.494729,3.42203105 C184.534443,3.27713173 184.548343,3.11818366 184.547462,3.01374955 C184.54742,2.27436447 183.995669,1.69255614 183.32193,1.69255614 C182.642611,1.69255614 182.077009,2.27971826 182.077009,3.0075011 L182.077009,5.6734636 C182.352396,5.43760901 182.62416,5.20380633 182.882264,4.98038898 Z" id="Stroke-8"></path>
                    </g>
                </g>
            </g>
        </g>
    </g>
</svg>