<svg height="30" viewBox="0 0 59 30" width="59" xmlns="http://www.w3.org/2000/svg"><g fill="none" fill-rule="evenodd"><path d="m0 0h59v30h-59z" fill="#000" opacity="0"/><path d="m3.25 17.3843328v6.6656672h-3.25v-18h4.875c2.175 0 3.35.37781109 4.4 1.37631184 1.075 1.05247377 1.7 2.61769116 1.7 4.34482756 0 1.5652174-.5 3.0224888-1.35 4.0209895-.95 1.0794603-2.3 1.5922039-4.275 1.5922039zm0-3.5343328h1.325c2.025 0 3.05-.8 3.05-2.4 0-.8-.325-1.525-.85-1.925-.5-.375-1.2-.525-2.4-.525h-1.125zm14.6279412-1.3c3.625 0 6.15 2.375 6.15 5.75 0 3.425-2.55 5.775-6.25 5.775-3.625 0-6.125-2.375-6.125-5.85 0-3.3 2.6-5.675 6.225-5.675zm-.05 2.725c-1.65 0-3.05 1.375-3.05 3 0 1.725 1.375 3.075 3.075 3.075 1.675 0 3.05-1.35 3.05-3.025 0-1.7-1.375-3.05-3.075-3.05zm11.333737-10.275v12.024032l4.05-4.0080106h4.1l-5.075 4.8197596 5.475 6.164219h-4.175l-4.05-4.7182911-.325.3297731v4.388518h-3.025v-19zm19.783737 13.8h-8.125c.075 1.875 1 2.9 2.65 2.9 1.15 0 1.875-.425 2.575-1.45l2.8.45c-.9 2.2-2.75 3.375-5.3 3.375-3.525 0-5.825-2.275-5.825-5.75 0-3.5 2.225-5.775 5.675-5.775 3.425 0 5.55 2.225 5.55 5.85zm-8.025-1.925h5.125c-.325-1.4-1.225-2.15-2.575-2.15-1.325 0-2.275.8-2.55 2.15zm10.108737-3.530481h3.025v1.6241611c.775-1.3534676 1.775-1.9686801 3.15-1.9686801.475 0 .775.049217 1.325.2706935l-.425 2.7807606c-.55-.295302-.85-.3691275-1.45-.3691275-.8 0-1.475.2706935-1.925.7628636-.5.5659955-.675 1.230425-.675 2.4362416v5.1185682h-3.025z" fill="#28ffbb"/></g></svg>