<svg xmlns="http://www.w3.org/2000/svg" width="59" height="30" viewBox="0 0 59 30">
  <path fill="#28FFBB" fill-rule="evenodd" d="M0,24 L0,6 L4.125,6 C6.05,6 7.35,6.35082459 8.2,7.07946027 C9.125,7.86206897 9.7,9.29235382 9.7,10.7766117 C9.7,11.7211394 9.45,12.6926537 9.075,13.3133433 C8.8,13.7181409 8.525,13.9610195 7.875,14.3928036 C9,14.6626687 9.5,14.9325337 10.05,15.4992504 C10.8,16.3358321 11.25,17.6041979 11.25,18.8995502 C11.25,20.3568216 10.7,21.7061469 9.775,22.5967016 C8.8,23.5682159 7.475,24 5.625,24 L0,24 Z M3.25,13.5 L4.175,13.5 C5.85,13.5 6.7,12.775 6.7,11.35 C6.7,9.925 5.85,9.175 4.225,9.175 L3.25,9.175 L3.25,13.5 Z M3.25,20.6 L4.65,20.6 C5.7,20.6 6.4,20.45 6.925,20.15 C7.525,19.8 7.9,19.075 7.9,18.275 C7.9,17.5 7.55,16.825 6.925,16.45 C6.35,16.075 5.825,15.975 4.475,15.975 L3.25,15.975 L3.25,20.6 Z M16.75,13 L16.75,24 L13.725,24 L13.725,13 L16.75,13 Z M15.25,7 C16.25,7 17.075,7.825 17.075,8.825 C17.075,9.825 16.25,10.65 15.25,10.65 C14.25,10.65 13.425,9.825 13.425,8.8 C13.425,7.825 14.25,7 15.25,7 Z M19.6,13.344519 L22.625,13.344519 L22.625,14.6733781 C23.575,13.4675615 24.55,13 26.025,13 C27.3,13 28.45,13.4675615 29.175,14.2796421 C29.8,14.9932886 30.025,15.7807606 30.025,17.2326622 L30.025,24 L27,24 L27,18.0939597 C27,17.2080537 26.925,16.7404922 26.7,16.3713647 C26.4,15.8545861 25.725,15.5346756 24.925,15.5346756 C23.375,15.5346756 22.625,16.4697987 22.625,18.4876957 L22.625,24 L19.6,24 L19.6,13.344519 Z M44.3,13.35 L44.3,23.775 C44.3,26 44.025,27 43.075,28.075 C42,29.3 40.4,29.975 38.5,29.975 C36.3,29.975 34.65,29.175 33.55,27.6 C33.025,26.85 32.8,26.325 32.725,25.45 L36,25.45 C36.3,26.725 37.175,27.4 38.55,27.4 C39.325,27.4 40.1,27.1 40.575,26.6 C41.025,26.15 41.25,25.375 41.25,24.35 L41.25,22.725 C40.125,24.025 39.1,24.525 37.6,24.525 C34.625,24.525 32.45,22.175 32.45,18.9 C32.45,15.5 34.7,13 37.75,13 C39.225,13 40.225,13.5 41.25,14.75 L41.25,13.35 L44.3,13.35 Z M38.6,15.775 C36.925,15.775 35.575,17.15 35.575,18.8 C35.575,20.475 36.925,21.85 38.6,21.85 C40.25,21.85 41.625,20.475 41.625,18.85 C41.625,17.125 40.275,15.775 38.6,15.775 Z M52.85,13 C56.475,13 59,15.2668113 59,18.4880694 C59,21.7570499 56.45,24 52.75,24 C49.125,24 46.625,21.7331887 46.625,18.4164859 C46.625,15.2668113 49.225,13 52.85,13 Z M52.8,15.5 C51.15,15.5 49.75,16.8580247 49.75,18.462963 C49.75,20.1666667 51.125,21.5 52.825,21.5 C54.5,21.5 55.875,20.1666667 55.875,18.5123457 C55.875,16.8333333 54.5,15.5 52.8,15.5 Z"/>
</svg>
