<svg height="30" viewBox="0 0 76 30" width="76" xmlns="http://www.w3.org/2000/svg"><g fill="none" fill-rule="evenodd"><path d="m0 0h76v30h-76z" fill="#000" opacity="0"/><path d="m9.25 14.3931133h7.625c-.025 2.5050216-.225 3.7962698-.875 5.1133429-1.375 2.892396-3.95 4.4935438-7.25 4.4935438-5.05 0-8.75-3.7704448-8.75-8.9096126 0-5.24246774 3.725-9.0903874 8.85-9.0903874 3.1 0 5.575 1.39454806 7.15 4.0545194l-2.85 1.5753228c-1-1.67862269-2.475-2.55667147-4.325-2.55667147-3.125 0-5.475 2.58249637-5.475 6.01721667 0 3.3572453 2.325 5.8622668 5.45 5.8622668 2.375 0 4.125-1.446198 4.375-3.6413199h-3.925zm18.5970588-1.1681133h3.05v10.825h-3.05v-1.4c-.975 1.225-2.05 1.75-3.525 1.75-3.05 0-5.325-2.5-5.325-5.775 0-3.25 2.3-5.75 5.25-5.75 1.475 0 2.55.525 3.6 1.75zm-2.7 2.375c-1.675 0-3.025 1.35-3.025 3.025s1.35 3.05 3.025 3.05c1.65 0 3.025-1.375 3.025-3 0-1.725-1.325-3.075-3.025-3.075zm8.866263-2.255481h3.025v1.2304251c1-1.1073826 1.975-1.5749441 3.3-1.5749441 1.5 0 2.55.590604 3.375 1.9440716.85-1.3042506 2.025-1.9440716 3.55-1.9440716 1.3 0 2.45.590604 3.025 1.5257271.4.639821.575 1.4026845.575 2.5838926v6.8903803h-3.025v-5.8322148c0-.8612975-.05-1.2550335-.25-1.6979865-.275-.5906041-.85-.9351231-1.525-.9351231-.775 0-1.45.393736-1.775 1.0581656-.225.4675615-.325 1.0089485-.325 1.9440716v5.4630872h-3.025v-5.6599553c0-.9105145-.05-1.378076-.225-1.771812-.25-.6152126-.925-1.0335571-1.625-1.0335571-.675 0-1.4.393736-1.7.9597316-.25.442953-.35 1.0089485-.35 2.0425056v5.4630872h-3.025zm30.616263 5.7854811h-8.125c.075 1.875 1 2.9 2.65 2.9 1.15 0 1.875-.425 2.575-1.45l2.8.45c-.9 2.2-2.75 3.375-5.3 3.375-3.525 0-5.825-2.275-5.825-5.75 0-3.5 2.225-5.775 5.675-5.775 3.425 0 5.55 2.225 5.55 5.85zm-8.025-1.9300001h5.125c-.325-1.4-1.225-2.15-2.575-2.15-1.325 0-2.275.8-2.55 2.15zm17.966263-3.225-1.5 1.775c-.65-.475-1.2-.7-1.8-.7-.675 0-1.175.4-1.175.925 0 .475.35.725 1.725 1.2 1.225.425 1.6.6 2.1.975.8.55 1.2 1.375 1.2 2.375 0 2.275-1.9 3.875-4.55 3.875-1.575 0-3.05-.65-4.1-1.8l1.575-1.85c.875.875 1.675 1.275 2.575 1.275.775 0 1.375-.525 1.375-1.2 0-.625-.3-.85-1.675-1.35-1.4-.525-1.6-.6-2.075-.95-.725-.5-1.075-1.25-1.075-2.25 0-2.025 1.6-3.45 3.875-3.45 1.35 0 2.475.375 3.525 1.15z" fill="#28ffbb"/></g></svg>