<svg height="14" viewBox="0 0 19 14" width="19" xmlns="http://www.w3.org/2000/svg"><g fill="none" fill-rule="evenodd"><path d="m0 0h19v14h-19z" fill="#111"/><g transform="translate(1 1)"><path d="m0 0h17v12h-17z" fill="#4e9438"/><path d="m8.515.803 7.089 5.201-7.089 5.193-7.119-5.193z" fill="#fedf00"/><path d="m5.7023404 5.03619527c2.33970425-.19986172 4.18620047.39434409 6.1408471 1.97354694l-.0232152-.01838168c-.43099 1.40500551-1.7543197 2.42795709-3.3199723 2.42795709-1.91530753 0-3.46797107-1.53088064-3.46797107-3.41931762 0-.31330069.04273612-.61675985.12277421-.9050196l.12940607-.01531136zm2.7976596-2.45551289c1.9153075 0 3.4679711 1.53088064 3.4679711 3.41931762 0 .17120445-.0127616.33947011-.0373979.50392267l-.1582886-.123273c-2.03747277-1.53278255-4.02635704-2.05457841-6.54409202-1.74757839l.09673129-.0105269c.53738828-1.20243939 1.75680853-2.041862 3.17507613-2.041862z" fill="#002776" opacity=".925"/><path d="m5.33241875 4.62080226c2.46856629-.28009515 4.43058958.24827698 6.43986585 1.75984741.0678832.052965.1187955.09268875.1527371.11917125-.0299338.16880014-.0988328.49620479-.107329.48937446-1.94522107-1.56380911-3.78582285-2.15199268-6.1153523-1.95300011l-.41813119.04347377-.13408388.01634952c.09843442-.31419045.15919889-.47259588.18229342-.4752163z" fill="#fff" fill-rule="nonzero"/></g></g></svg>