<?xml version="1.0" encoding="UTF-8"?>
<svg width="53px" height="62px" viewBox="0 0 53 62" version="1.1" xmlns="http://www.w3.org/2000/svg" xmlns:xlink="http://www.w3.org/1999/xlink">
    <title>Reality Check</title>
    <defs>
        <linearGradient x1="87.7166747%" y1="100%" x2="12.2833253%" y2="0%" id="linearGradient-1">
            <stop stop-color="#28A389" offset="0%"></stop>
            <stop stop-color="#633D99" offset="100%"></stop>
        </linearGradient>
    </defs>
    <g id="Published-Stage1" stroke="none" stroke-width="1" fill="none" fill-rule="evenodd">
        <g id="1.7-|-Home" transform="translate(-562.000000, -3748.000000)" fill-rule="nonzero">
            <g id="Group-24" transform="translate(-84.197811, 2193.778939)">
                <g id="Group-71" transform="translate(83.197811, 1375.221061)">
                    <g id="Group-7" transform="translate(40.000000, 30.000000)">
                        <g id="Reality-Check" transform="translate(523.000000, 149.000000)">
                            <polygon id="Path" fill="#222222" opacity="0" points="0 0 53 0 53 62 0 62"></polygon>
                            <g id="Group" transform="translate(0.000000, 1.740000)">
                                <path d="M26.043,0 C27.569515,0 28.807,1.23748495 28.807,2.764 L28.807,4.56 C31.2694489,4.9769076 33.6206208,5.89301046 35.716,7.252 C34.276789,9.08251139 33.4961498,11.3444628 33.5,13.673 C33.5,19.423 38.162,24.086 43.913,24.086 L44.133,24.083 L44.133,42.107 L52.085,53.436 L32.607,53.436 C32.5899407,56.996854 29.7372602,59.8949113 26.1771188,59.9681597 C22.6169774,60.041408 19.6475089,57.2631389 19.484,53.706 L19.478,53.436 L0,53.436 L7.281,42.106 L7.281,22.726 C7.281,13.373 14.25,5.647 23.278,4.459 L23.278,2.764 C23.2782652,2.03094161 23.5697258,1.32801272 24.0882639,0.809849697 C24.606802,0.291686673 25.3099416,0.000734735528 26.043,0.001 L26.043,0 Z M31.209,53.284 L20.876,53.284 L20.88,53.503 C20.9904759,56.3181833 23.3358265,58.5259427 26.1525438,58.4662272 C28.969261,58.4065117 31.2189357,56.101336 31.2100265,53.284 L31.209,53.284 Z" id="Shape" fill="url(#linearGradient-1)"></path>
                                <path d="M43.913,5.26 C48.5593716,5.26 52.326,9.0266284 52.326,13.673 C52.326,18.3193716 48.5593716,22.086 43.913,22.086 C39.2666284,22.086 35.5,18.3193716 35.5,13.673 C35.5,9.0266284 39.2666284,5.26 43.913,5.26 Z M44.891,9.039 L43.455,9.039 C43.254,9.601 42.882,10.094 42.341,10.515 C41.877,10.877 41.441,11.139 41.036,11.302 L40.836,11.375 L40.836,12.98 C41.5805513,12.7395943 42.2722942,12.3591017 42.874,11.859 L43.121,11.639 L43.121,18.307 L44.891,18.307 L44.891,9.04 L44.891,9.039 Z" id="Shape" fill="#189970"></path>
                            </g>
                        </g>
                    </g>
                </g>
            </g>
        </g>
    </g>
</svg>