<svg xmlns="http://www.w3.org/2000/svg" width="19" height="19" viewBox="0 0 19 19">
  <g fill="#DEC6FF" transform="translate(.5 .5)">
    <polygon points="12.072 11.293 18.279 17.5 17.572 18.207 11.365 12"/>
    <path d="M7.04814815,0 C3.15638607,0 0,3.13317735 0,7 C0,10.8668226 3.15638607,14 7.04814815,14 C10.9399102,14 14.0962963,10.8668226 14.0962963,7 C14.0962963,3.13317735 10.9399102,0 7.04814815,0 Z M7.04814815,1 C10.3892708,1 13.0962963,3.6871209 13.0962963,7 C13.0962963,10.3128791 10.3892708,13 7.04814815,13 C3.7070255,13 1,10.3128791 1,7 C1,3.6871209 3.7070255,1 7.04814815,1 Z"/>
  </g>
</svg>
