<?xml version="1.0" encoding="UTF-8"?>
<svg width="50px" height="60px" viewBox="0 0 50 60" version="1.1" xmlns="http://www.w3.org/2000/svg" xmlns:xlink="http://www.w3.org/1999/xlink">
    <title>Self Exclusion</title>
    <defs>
        <linearGradient x1="84.2768327%" y1="100%" x2="15.7231673%" y2="0%" id="linearGradient-1">
            <stop stop-color="#28A389" offset="0%"></stop>
            <stop stop-color="#633D99" offset="100%"></stop>
        </linearGradient>
    </defs>
    <g id="Published-Stage1" stroke="none" stroke-width="1" fill="none" fill-rule="evenodd">
        <g id="1.7-|-Home" transform="translate(-975.000000, -3751.000000)" fill-rule="nonzero">
            <g id="Group-24" transform="translate(-84.197811, 2193.778939)">
                <g id="Group-71" transform="translate(83.197811, 1375.221061)">
                    <g id="Group-7" transform="translate(40.000000, 30.000000)">
                        <g id="Group" transform="translate(936.000234, 152.000000)">
                            <path d="M24.9037658,0 L24.4277658,0.281 C20.5500817,2.57703856 16.5800961,4.71349129 12.5277658,6.685 C9.27150525,8.27225185 5.95829153,9.73989912 2.59476584,11.085 L0.0527658398,12.07 L0.0367658398,12.696 C-0.57623416,36.873 6.43576584,52.324 24.1117658,59.528 L25.3137658,60 L25.6697658,59.838 C43.0927658,51.941 51.0077658,36.093 49.6607658,12.666 L49.6267658,12.066 L49.0647658,11.849 C45.0372067,10.295011 41.0785298,8.56807367 37.1997658,6.673 C33.8641942,5.04043074 30.5846615,3.29577136 27.3667658,1.442 L24.9037658,0 Z M23.0007658,3.27 L24.9007658,2.166 L24.4277658,1.889 C28.3242126,4.20174605 32.3117429,6.35747438 36.3807658,8.351 L38.7547658,9.485 C41.1293508,10.5954924 43.5325016,11.643849 45.9617658,12.629 L47.8247658,13.366 L47.8527658,13.884 C48.8357658,35.606 41.5347658,50.216 25.7107658,57.76 L25.2547658,57.97 L24.8107658,57.795 C8.51376584,51.15 1.74276584,37.145 1.86976584,14.953 L1.88976584,13.363 L1.30376584,13.593 C5.39316737,12.0290576 9.41112287,10.28434 13.3457658,8.364 C16.6192842,6.77207431 19.8396837,5.07316015 23.0017658,3.27 L23.0007658,3.27 Z" id="Shape" fill="#189970"></path>
                            <path d="M24.9037658,5.288 C28.2163757,7.25429743 31.6064271,9.08710028 35.0657658,10.782 C38.4157658,12.418 41.8177658,13.902 45.2697658,15.234 C46.3897658,34.695 39.9807658,48.098 25.2297658,54.785 C8.51776584,48.341 3.98076584,33.51 4.44376584,15.234 C7.91782395,13.9054599 11.3311848,12.4233339 14.6737658,10.792 C18.1337658,9.11 21.5437658,7.275 24.9027658,5.288 L24.9037658,5.288 Z M31.9477658,20.24 L24.9027658,27.284 L17.8597658,20.24 L15.2177658,22.882 L22.2607658,29.926 L15.2177658,36.97 L17.8597658,39.611 L24.9027658,32.567 L31.9477658,39.611 L34.5887658,36.97 L27.5447658,29.926 L34.5887658,22.882 L31.9477658,20.24 Z" id="Shape" fill="url(#linearGradient-1)"></path>
                        </g>
                    </g>
                </g>
            </g>
        </g>
    </g>
</svg>