<svg xmlns="http://www.w3.org/2000/svg" width="16" height="20" viewBox="0 0 16 20"><path fill="#f3ebff" d="M23.2806657,455.095312 C25.7168953,456.2298 24.7065329,455.527136 27.1564492,456.647618 L30.999955,458.426382 L30.999955,465.541441 L30.999955,465.541441 C30.999955,466.898697 30.5301236,467.987075 29.7895058,469.113012 C28.9780135,470.353607 27.8321224,471.464579 26.6766762,472.375952 C25.7745491,473.086558 24.8912338,473.671891 23.9240273,474.286352 C23.3019661,474.760784 22.7010378,474.710154 22.044999,474.286352 C20.824113,473.621343 19.839372,472.825961 18.8051204,471.942193 C17.7789832,471.065358 16.7709256,470.021094 16.0139931,468.849829 C15.3896135,467.840537 14.9924217,466.74996 15.0002225,465.555447 L15,458.426382 L18.9679726,456.647618 L22.7368935,455.095312 C22.9627465,454.968229 23.0548128,454.968229 23.2806657,455.095312 Z M22.999955,456.484228 L16.4783843,459.44956 L16.4783843,465.541441 C16.446598,466.569993 16.8244644,467.469628 17.3983925,468.314633 C18.0097715,469.188392 18.7185336,469.975269 19.4853723,470.658056 C20.4425835,471.51035 21.5933075,472.325351 22.7368935,472.981054 C22.9757466,473.150016 23.0418126,473.150016 23.2806657,472.981054 C23.9102532,472.560874 25.9070183,471.106249 26.5092324,470.658056 C27.4514931,469.730491 27.6623086,469.545752 28.6321588,468.314633 C29.1594716,467.527757 29.4366899,466.593548 29.4259864,465.639483 L29.4259864,459.44956 L29.4259864,459.44956 L22.999955,456.484228 Z M26.5107229,462.362074 C26.7319939,462.665277 26.7319939,463.081311 26.5107229,463.384514 L26.3464827,463.552586 L22.1583577,467.754392 C22.058377,467.840394 21.9532407,467.919917 21.843564,467.992495 L20.2832821,466.465838 C20.045607,466.227235 19.8216805,465.974701 19.6126347,465.709513 C19.4429515,465.497792 19.4429515,465.192922 19.6126347,464.9812 C19.7802792,464.73442 20.0876202,464.631489 20.3654022,464.729092 C20.5514929,464.809767 20.719252,464.928984 20.8581228,465.079242 C21.1729165,465.303339 21.4192768,465.625477 21.8161907,465.975628 C22.363658,465.443399 22.8837519,464.967194 23.3764725,464.476983 C23.8691931,463.986773 24.5535273,463.32849 25.1420546,462.698219 C25.2622187,462.577428 25.3902553,462.465121 25.5252818,462.362074 C25.8102346,462.117347 26.2257701,462.117347 26.5107229,462.362074 Z" transform="translate(-15 -455)"/></svg>