<svg height="21" viewBox="0 0 21 21" width="21" xmlns="http://www.w3.org/2000/svg"><path d="m21 10.5c0 5.801249-4.698751 10.5-10.5 10.5-5.80125028 0-10.5-4.698751-10.5-10.5 0-5.80125028 4.69874972-10.5 10.5-10.5 5.801249 0 10.5 4.69874972 10.5 10.5zm-12.42150051 5.538749c4.65674971 0 7.20299961-3.8587497 7.20299961-7.20299953 0-.11024999 0-.22049998-.00525-.32549998.4934999-.35699998.9239999-.80324995 1.2652499-1.31249992-.4515.19949999-.93975.33599998-1.4542499.39899998.5249999-.31499998.9239999-.80849995 1.1129999-1.40174992-.48825.28874998-1.0289999.49874997-1.6064999.61424996-.462-.49349997-1.1182499-.79799995-1.8479999-.79799995-1.3964999 0-2.5304998 1.13399993-2.5304998 2.53049985 0 .19949999.021.39374998.06825.57749997-2.10524992-.105-3.96899981-1.11299994-5.21849973-2.64599985-.21524999.37274998-.34124998.80849996-.34124998 1.27049993 0 .87674995.44624997 1.6537499 1.12874993 2.10524987-.41474997-.0105-.80324995-.12599999-1.14449993-.31499998v.0315c0 1.22849997.87149995 2.24699987 2.03174988 2.48324987-.20999999.05775-.43574998.08925-.66674996.08925-.16274999 0-.32024998-.01575-.47774997-.04725.32024998 1.0079999 1.25474992 1.7377499 2.36249986 1.7587499-.86624995.6772499-1.95824989 1.0814999-3.14474982 1.0814999-.20474998 0-.40424997-.0105-.60374996-.03675 1.10774993.7245 2.44124985 1.1444999 3.86924977 1.1444999z" fill="#422966"/></svg>