<?xml version="1.0" encoding="UTF-8"?>
<svg width="12px" height="17px" viewBox="0 0 12 17" version="1.1" xmlns="http://www.w3.org/2000/svg" xmlns:xlink="http://www.w3.org/1999/xlink">
    <title>Combined Shape</title>
    <g id="Published-Stage1" stroke="none" stroke-width="1" fill="none" fill-rule="evenodd">
        <g id="1.5-|-1024px-Home" transform="translate(-132.000000, -983.000000)" fill="#2A8C7F" fill-rule="nonzero">
            <g id="Group-25" transform="translate(15.000000, 697.000000)">
                <g id="Group-33" transform="translate(0.000000, 66.000000)">
                    <g id="Group-39" transform="translate(20.500000, 220.000000)">
                        <path d="M102.5,15.9626378 C104.928669,15.9626378 106.908072,13.9652012 106.997716,11.4660557 C105.991231,12.9481467 104.333337,13.8879134 102.5,13.8879134 C100.666663,13.8879134 99.0087693,12.9481467 98.0022842,11.4660557 C98.091928,13.9652012 100.071331,15.9626378 102.5,15.9626378 Z M98.2046345,9.57770879 C98.7883456,11.509765 100.519188,12.8505512 102.5,12.8505512 C104.480812,12.8505512 106.211654,11.509765 106.795366,9.57770879 L107.272022,8 L107.748678,9.57770879 C107.914639,10.1270318 108,10.7023531 108,11.2889959 C108,14.4430863 105.537576,17 102.5,17 C99.4624241,17 97,14.4430863 97,11.2889959 C97,10.7023531 97.0853615,10.1270318 97.2513225,9.57770879 L97.7279785,8 L98.2046345,9.57770879 Z M102.5,12.9626378 C104.928669,12.9626378 106.908072,10.9652012 106.997716,8.46605568 C105.991231,9.94814667 104.333337,10.8879134 102.5,10.8879134 C100.666663,10.8879134 99.0087693,9.94814667 98.0022842,8.46605568 C98.091928,10.9652012 100.071331,12.9626378 102.5,12.9626378 Z M98.2046345,6.57770879 C98.7883456,8.509765 100.519188,9.85055119 102.5,9.85055119 C104.480812,9.85055119 106.211654,8.509765 106.795366,6.57770879 L107.272022,5 L107.748678,6.57770879 C107.914639,7.12703182 108,7.70235311 108,8.28899586 C108,11.4430863 105.537576,14 102.5,14 C99.4624241,14 97,11.4430863 97,8.28899586 C97,7.70235311 97.0853615,7.12703182 97.2513225,6.57770879 L97.7279785,5 L98.2046345,6.57770879 Z M102.5,11 C99.4624241,11 97,8.5375564 97,5.5 C97,2.4624436 99.4624241,0 102.5,0 C105.537576,0 108,2.4624436 108,5.5 C108,8.5375564 105.537576,11 102.5,11 Z M102.5,10.0009652 C104.985761,10.0009652 107.000886,7.98582414 107.000886,5.5 C107.000886,3.01417586 104.985761,0.999034842 102.5,0.999034842 C100.014239,0.999034842 97.9991139,3.01417586 97.9991139,5.5 C97.9991139,7.98582414 100.014239,10.0009652 102.5,10.0009652 Z" id="Combined-Shape"></path>
                    </g>
                </g>
            </g>
        </g>
    </g>
</svg>