<?xml version="1.0" encoding="UTF-8"?>
<svg width="72px" height="62px" viewBox="0 0 72 62" version="1.1" xmlns="http://www.w3.org/2000/svg" xmlns:xlink="http://www.w3.org/1999/xlink">
    <title>Take a Break</title>
    <defs>
        <linearGradient x1="100%" y1="86.0366343%" x2="0%" y2="13.9633657%" id="linearGradient-1">
            <stop stop-color="#28A389" offset="0%"></stop>
            <stop stop-color="#633D99" offset="100%"></stop>
        </linearGradient>
    </defs>
    <g id="Published-Stage1" stroke="none" stroke-width="1" fill="none" fill-rule="evenodd">
        <g id="1.7-|-Home" transform="translate(-760.000000, -3744.000000)" fill-rule="nonzero">
            <g id="Group-24" transform="translate(-84.197811, 2193.778939)">
                <g id="Group-71" transform="translate(83.197811, 1375.221061)">
                    <g id="Group-7" transform="translate(40.000000, 30.000000)">
                        <g id="Take-a-Break" transform="translate(721.000000, 145.000000)">
                            <polygon id="Path" fill="#222222" opacity="0" points="0 0 72 0 72 62 0 62"></polygon>
                            <g id="Group">
                                <path d="M64.592,14.7 C64.592,16.6 64.546,18.437 64.455,20.21 C70.025,21.665 72.465,26.769 71.141,32.812 C69.752,39.16 64.691,44.457 58.451,45.162 L57.826,45.233 C52.83,52.998 45.07,56.881 34.543,56.881 C30.833,56.881 27.467,56.399 24.444,55.434 C26.2988176,52.8607651 27.2947312,49.7680441 27.29,46.596 C27.29,38.232 20.509,31.451 12.145,31.451 C10.055,31.451 8.064,31.874 6.253,32.64 C5.08,27.484 4.493,21.503 4.493,14.7 L64.593,14.7 L64.592,14.7 Z M64.533,23.09 C63.897,30.722 62.34,37.061 59.863,42.108 C64.213,40.954 67.713,36.935 68.748,32.206 C69.718,27.772 68.238,24.308 64.533,23.091 L64.533,23.09 Z M17.533,0 C19.977,1.694 21.07,3.123 20.812,4.287 C20.543,5.495 19.002,6.295 18.551,7.263 C17.653,9.185 18.648,10.768 17.914,10.822 C17.114,10.88 16.097,9.012 16.475,7.323 C16.719,6.23 18.551,5.619 18.922,4.173 C19.21,3.055 18.747,1.663 17.533,0 Z M32.98,1.77635684e-15 C35.425,1.694 36.518,3.123 36.26,4.287 C35.991,5.495 34.45,6.295 33.999,7.263 C33.101,9.185 34.096,10.768 33.362,10.822 C32.562,10.88 31.545,9.012 31.922,7.323 C32.168,6.23 34,5.62 34.37,4.173 C34.657,3.055 34.194,1.663 32.98,1.77635684e-15 Z M48.429,0 C50.873,1.694 51.965,3.123 51.707,4.287 C51.439,5.495 49.898,6.295 49.447,7.263 C48.549,9.185 49.544,10.768 48.809,10.822 C48.009,10.88 46.993,9.012 47.371,7.323 C47.615,6.23 49.447,5.619 49.818,4.173 C50.105,3.055 49.642,1.663 48.428,0 L48.429,0 Z" id="Shape" fill="url(#linearGradient-1)"></path>
                                <path d="M12.145,34.451 C18.852,34.451 24.29,39.888 24.29,46.596 C24.29,53.303 18.852,58.741 12.145,58.741 C5.437,58.74 0,53.303 0,46.596 C0,39.888 5.437,34.45 12.145,34.45 L12.145,34.451 Z M12.072,36.907 C11.5650252,36.907 11.1383161,37.2865071 11.079,37.79 L11.072,37.907 L11.072,44.923 C10.1178769,45.2674728 9.44635436,46.1292424 9.34550768,47.1386196 C9.24466101,48.1479968 9.73241329,49.1255894 10.5995244,49.6520213 C11.4666356,50.1784533 12.5589977,50.1601643 13.408,49.605 L13.559,49.5 L18.77,52.73 C18.9627858,52.8494966 19.1982436,52.8785414 19.4142893,52.809476 C19.6303351,52.7404106 19.8052816,52.580168 19.893,52.371 C20.0779196,51.9296756 19.9458018,51.4192018 19.57,51.123 L19.472,51.054 L14.54,47.996 C14.8081648,46.8398113 14.2717983,45.6467948 13.229,45.08 L13.072,45.002 L13.072,37.907 C13.072,37.3547153 12.6242847,36.907 12.072,36.907 Z" id="Shape" fill="#189970"></path>
                            </g>
                        </g>
                    </g>
                </g>
            </g>
        </g>
    </g>
</svg>