<svg xmlns="http://www.w3.org/2000/svg" width="30" height="34" viewBox="0 0 30 34">
  <g fill="#DEC6FF" fill-rule="evenodd">
    <g transform="translate(11.678)">
      <rect width="7.007" height="3.517" rx=".696"/>
      <rect width="4.087" height="3.517" x="1.489" y="2.796" rx=".696"/>
    </g>
    <path d="M1.20654523,7.23923955 L2.76426914,7.23985927 C3.14816789,7.24056559 3.45934135,7.55173905 3.46004767,7.9356378 L3.4605572,9.21644061 C3.46126317,9.60055545 3.15000026,9.91206611 2.7658852,9.91221892 C2.76570074,9.91221899 2.76551628,9.91221899 2.76533204,9.91166576 L1.20760813,9.91104605 C0.823709378,9.91033972 0.512535923,9.59916626 0.511829601,9.21526751 L0.51132007,7.9344647 C0.510614103,7.55034986 0.821877008,7.2388392 1.20599207,7.23868639 C1.20617653,7.23868632 1.20636099,7.23868632 1.20654523,7.23923955 Z" transform="rotate(-46 1.986 8.575)"/>
    <g fill-rule="nonzero" transform="translate(.805 4.69)">
      <path d="M14.5976189,0 C6.53557662,0 0,6.56134418 0,14.6551724 C0,22.7490006 6.53557662,29.3103448 14.5976189,29.3103448 C22.6596613,29.3103448 29.1952379,22.7490006 29.1952379,14.6551724 C29.1952379,6.56134418 22.6596613,0 14.5976189,0 Z M14.5976189,1.96214459 C21.5802545,1.96214459 27.240799,7.64500672 27.240799,14.6551724 C27.240799,21.6653381 21.5802545,27.3482002 14.5976189,27.3482002 C7.61498342,27.3482002 1.9544389,21.6653381 1.9544389,14.6551724 C1.9544389,7.64500672 7.61498342,1.96214459 14.5976189,1.96214459 Z"/>
      <path d="M14.5976189,3.51724138 C20.7247711,3.51724138 25.6918093,8.50386296 25.6918093,14.6551724 C25.6918093,20.8064819 20.7247711,25.7931034 14.5976189,25.7931034 C8.47046678,25.7931034 3.50342855,20.8064819 3.50342855,14.6551724 C3.50342855,8.50386296 8.47046678,3.51724138 14.5976189,3.51724138 Z M8.65795739,8.36058899 C8.65795739,8.36058899 13.1826741,20.5962168 17.0381297,16.7407613 C20.8935852,12.8853057 8.65795739,8.36058899 8.65795739,8.36058899 Z M14.1006312,13.8153944 C14.5596908,13.3563348 15.3054405,13.3578021 15.7663099,13.8186715 C16.2271794,14.2795409 16.2286466,15.0252907 15.7695871,15.4843502 C15.3105276,15.9434097 14.5647778,15.9419425 14.1039084,15.481073 C13.643039,15.0202036 13.6415717,14.2744539 14.1006312,13.8153944 Z"/>
    </g>
  </g>
</svg>
