<svg xmlns="http://www.w3.org/2000/svg" width="57" height="35" viewBox="0 0 57 35"><defs><linearGradient id="a" x1="0%" x2="100%" y1="100%" y2="100%"><stop offset="0%" stop-color="#00F3B1"/><stop offset="100%" stop-color="#FFF"/></linearGradient><filter id="b" width="139.5%" height="165.2%" x="-19.7%" y="-32.6%" filterUnits="objectBoundingBox"><feOffset in="SourceAlpha" result="shadowOffsetOuter1"/><feGaussianBlur in="shadowOffsetOuter1" result="shadowBlurOuter1" stdDeviation="2.5"/><feColorMatrix in="shadowBlurOuter1" result="shadowMatrixOuter1" values="0 0 0 0 0.133333333 0 0 0 0 0.133333333 0 0 0 0 0.133333333 0 0 0 0.5 0"/><feMerge><feMergeNode in="shadowMatrixOuter1"/><feMergeNode in="SourceGraphic"/></feMerge></filter></defs><g fill="url(#a)" fill-rule="evenodd" filter="url(#b)"><path d="M24.8665787,0 L28.4199182,7.79310345 L34.0286206,0 L38,0 L29.9527313,11 L35.4569237,23 L31.6945643,23 L27.6883483,14.2068966 L21.3132393,23 L17.3418599,23 L17.353,22.984 L12.74512,22.9846112 L14.4444693,20.2342123 L19.373,20.234 L21.499,17.339 L0,17.33997 L1.69934933,14.5895711 L23.519,14.589 L26.1555352,11 L21.1042193,0 L24.8665787,0 Z M22.0915413,8.70227082 L20.3921919,11.4526697 L11.0457706,11.4526697 L12.74512,8.70227082 L22.0915413,8.70227082 Z"/></g></svg>