<svg height="14" viewBox="0 0 19 14" width="19" xmlns="http://www.w3.org/2000/svg"><g fill="none" fill-rule="evenodd"><path d="m0 0h19v14h-19z" fill="#111"/><g transform="translate(1 1)"><path d="m0 0h17v12h-17z" fill="#000063"/><path d="m10.29 0v4.185l6.71.001v3.628h-6.71v4.186h-3.628l-.001-4.186h-6.661v-3.628l6.661-.001.001-4.185z" fill="#fff"/><path d="m9.559 0v4.935l7.441.001v2.172l-7.441-.001v4.893h-2.174v-4.893l-7.385.001v-2.172l7.385-.001v-4.935z" fill="#f00"/><g fill="#fff"><path d="m9.999 3.256 5.161-3.256 1.84.014v1.266l-4.563 2.976h-2.438z"/><path d="m0 3.256 5.161-3.256 1.84.014v1.266l-4.563 2.976h-2.438z" transform="matrix(-1 0 0 1 7.001 0)"/><path d="m0 11 5.161-3.256 1.84.014v1.266l-4.563 2.976h-2.438z" transform="matrix(-1 0 0 -1 7 19.744)"/><path d="m9.999 11 5.161-3.256 1.84.014v1.266l-4.563 2.976h-2.438z" transform="matrix(1 0 0 -1 0 19.744)"/></g><path d="m17 0v.366l-5.875 3.816h-.871v-.275l5.887-3.907z" fill="#f00"/><path d="m6.746 0v.366l-5.875 3.816h-.871v-.275l5.888-3.907z" fill="#f00" transform="matrix(-1 0 0 1 6.746 0)"/><path d="m6.746 7.818v.366l-5.875 3.816h-.871v-.275l5.888-3.907z" fill="#f00" transform="matrix(-1 0 0 -1 6.746 19.818)"/><path d="m17 7.818v.366l-5.875 3.816h-.871v-.275l5.887-3.907z" fill="#f00" transform="matrix(1 0 0 -1 0 19.818)"/></g></g></svg>