<?xml version="1.0" encoding="UTF-8"?>
<svg width="118px" height="25px" viewBox="0 0 118 25" version="1.1" xmlns="http://www.w3.org/2000/svg" xmlns:xlink="http://www.w3.org/1999/xlink">
    <!-- Generator: Sketch 49.1 (51147) - http://www.bohemiancoding.com/sketch -->
    <title>1025plus_bet365_logo</title>
    <desc>Created with Sketch.</desc>
    <defs></defs>
    <g id="1025plus_bet365_logo" stroke="none" stroke-width="1" fill="none" fill-rule="evenodd">
        <g id="Group-9" fill="#FFFFFF">
            <g id="Group-2">
                <path d="M40.9997635,17.8126885 L29.8484841,17.8126885 C30.0445188,19.6743685 31.4841564,20.5566869 34.1983746,20.5566869 C36.0941654,20.5566869 38.0571141,20.1974153 39.9521954,19.4781672 L39.9521954,23.8237321 C38.0895106,24.5739965 35.5389307,25 32.5627022,25 C25.6958107,25 22,21.7329548 22,15.9836695 C22,10.3640885 25.6298352,7 31.6804276,7 C38.3848633,7 41,10.103035 41,16.7024476 L41,17.8126885 L40.9997635,17.8126885 Z M34,15 L34,14.4149175 C34,12.2475248 33.3171115,11 32.0150258,11 C30.6808702,11 30,12.2475248 30,14.4508251 L30,14.999736 L34,14.999736 L34,15 Z" id="Shape"></path>
                <path d="M53.1650131,7.34564568 L57,7.34564568 L57,12.3763362 L53.1650131,12.3763362 L53.1650131,16.485305 C53.1650131,18.5898007 53.5032584,19.5763126 55.1497422,19.5763126 C55.587686,19.5763126 56.1909834,19.5103402 56.8976267,19.3448181 L56.8976267,24.2764318 C55.1166715,24.8032651 53.3349869,25 51.4514152,25 C49.1306293,25 47.3474857,24.2764318 46.3057582,23.0260303 C44.9603151,21.3821591 44.9265149,19.312423 44.9265149,16.5515138 L44.9265149,12.3760998 L42,12.3760998 L42,7.34564568 L44.9262718,7.34564568 L44.9262718,3.53248864 L53.1650131,1 L53.1650131,7.34564568 L53.1650131,7.34564568 Z" id="Shape"></path>
                <path d="M65.144862,19.8399265 C67.3955015,19.8399265 68.5716122,19.1156515 68.5716122,17.6023368 C68.5716122,16.122472 67.3601792,15.3014056 65.0096629,15.3014056 C64.1382983,15.3014056 63.0959251,15.3678311 61.9541622,15.5327086 L61.9541622,10.534903 C62.893979,10.6333551 63.767536,10.6651444 64.6415802,10.6651444 C67.0593306,10.6651444 68.2671097,9.97574284 68.2671097,8.39861218 C68.2671097,6.85208469 67.1618871,6.12804697 64.8764126,6.12804697 C63.3975044,6.12804697 61.5168965,6.52256687 59.1999973,7.21339185 L59.1999973,2.0189194 C61.2482034,1.32667102 63.7346497,1 66.6559256,1 C73.0037082,1 76.6638292,3.6622383 76.6638292,7.83945199 C76.6638292,10.4034755 74.9515503,12.2764367 71.9618221,12.9024969 C75.2862595,13.5586857 77,15.3683056 77,18.1287587 C77,22.4706127 73.2721576,25 66.153131,25 C63.767536,25 61.4177505,24.673329 59,24.1141688 L59,18.7545816 C61.3836462,19.4449321 63.3975044,19.8399265 65.144862,19.8399265 L65.144862,19.8399265 Z" id="Shape"></path>
                <path d="M90.8105149,9.55904187 C95.7311513,9.55904187 99,12.5548253 99,16.9664258 C99,21.7077502 95.269647,25 89.3915151,25 C82.4581741,25 78,20.6872216 78,13.6100366 C78,5.54154212 82.7232936,1 91.2401665,1 C93.0569653,1 95.006204,1.19669405 97.0184296,1.62381471 L97.0184296,6.85996239 C95.1697782,6.30123726 93.387227,6.03636544 91.5045675,6.03636544 C87.7406854,6.03636544 85.9904659,7.55029199 85.8917945,10.9760467 C87.2796601,9.92059784 88.7990078,9.55904187 90.8105149,9.55904187 L90.8105149,9.55904187 Z M91,17.0182068 C91,15.1764571 89.9765252,14 88.4855817,14 C86.9944129,14 86,15.1427917 86,17.0182068 C86,18.8572083 86.9944129,20 88.4855817,20 C90.0071641,19.999771 91,18.8572083 91,17.0182068 L91,17.0182068 Z" id="Shape"></path>
                <path d="M101.386539,2 L117.067402,2 L117.067402,7.36243223 L108.728207,7.36243223 L108.728207,10.7550342 C109.404591,10.7221687 109.855826,10.6895364 110.014645,10.6895364 C115.199871,10.6895364 118,13.3068862 118,17.7318368 C118,22.28755 114.587715,25 107.921964,25 C105.6046,25 103.316664,24.6475703 101,24.0655485 L101,18.9602128 C102.770138,19.4459691 104.316293,19.6718318 105.63613,19.6718318 C108.340967,19.6718318 109.757498,18.7658171 109.757498,17.0859488 C109.757498,15.2128503 108.276739,14.2756017 105.249591,14.2756017 C103.960117,14.2756017 102.706843,14.5012313 101.386539,14.8249911 L101.386539,2 L101.386539,2 Z" id="Shape"></path>
                <path d="M0,0 L7.96110825,0 L7.96110825,9.54343344 C9.0941639,7.99098363 10.6477278,7.26463854 12.7509711,7.26463854 C17.3791361,7.26463854 20,10.5001758 20,16.2470428 C20,21.7300219 17.3463753,25 12.9451959,25 C10.2590443,25 8.44596808,24.0085793 7.41119483,21.8960505 L7.41119483,24.7681776 L0,24.7681776 L0,0 L0,0 Z M8,15.4987747 C8,17.8542376 8.55305391,19 9.98389278,19 C11.3825172,19 12,17.8542376 12,15.4987747 C12,13.1457624 11.4147316,12 9.98389278,12 C8.55305391,12 8,13.1455396 8,15.4987747 L8,15.4987747 Z" id="Shape"></path>
            </g>
        </g>
    </g>
</svg>