<svg xmlns="http://www.w3.org/2000/svg" width="71" height="25"><g fill="none"><path fill="#BBB" d="M14.0327036.60607597L24.2964317 24.395192H19.450606l-2.2210035-5.4432723H6.89857133L4.74487101 24.395192H0L10.3646828.60607597h3.6680208zm-1.9517909 5.04006695L8.34558873 15.3230715h7.40334487l-3.6680209-9.67692858z"/><path fill="#BBB" d="M31.1309048 25c3.6343693 0 6.9210057-.7840104 9.8599093-2.3520312V10.4846072h-9.1195748v3.8304509h4.8794773v5.6112745c-.7403345.4256057-1.5872323.7392098-2.5406934.9408125-.953461.2016027-1.9686167.302404-3.0454668.302404-1.2338908 0-2.3500012-.224003-3.348331-.6720089-.9983298-.448006-1.8564448-1.0640141-2.5743449-1.8480246-.7179001-.7840104-1.273151-1.7136227-1.6657526-2.788837-.3926016-1.0752143-.5889024-2.2512299-.5889024-3.5280469 0-1.1872157.1963008-2.2960305.5889024-3.32644415.3926016-1.03041368.9478525-1.93202566 1.6657526-2.70483593.7179001-.77281026 1.5760151-1.37761829 2.5743449-1.8144241.9983298-.4368058 2.1144402-.6552087 3.348331-.6552087 1.2114564 0 2.3612183.20160268 3.4492856.60480803 1.0880674.40320536 2.0134855.97441295 2.7762544 1.71362277l3.1295957-3.15844196c-1.2563252-1.12001487-2.6809082-1.89842521-4.273749-2.33523102-1.5928409-.4368058-3.2978537-.6552087-5.1150383-.6552087-1.839619 0-3.527806.29680394-5.0645609.89041183-1.5367549.59360788-2.8603832 1.43921912-3.970885 2.53683369-1.1105017 1.09761458-1.9798338 2.42483221-2.6079964 3.98165289-.6281626 1.55682068-.9422439 3.28724365-.9422439 5.19126895 0 1.8592247.3140813 3.5504472.9422439 5.0736674s1.4974947 2.8280376 2.6079964 3.914452c1.1105018 1.0864144 2.4341301 1.9264256 3.970885 2.5200335C27.6030988 24.7031961 29.2912858 25 31.1309048 25zM61.1408561 25c3.6343693 0 6.9210057-.7840104 9.8599092-2.3520312V10.4846072h-9.1195747v3.8304509h4.8794772v5.6112745c-.7403344.4256057-1.5872322.7392098-2.5406933.9408125-.9534611.2016027-1.9686167.302404-3.0454669.302404-1.2338908 0-2.3500011-.224003-3.3483309-.6720089-.9983299-.448006-1.8564448-1.0640141-2.5743449-1.8480246-.7179001-.7840104-1.273151-1.7136227-1.6657526-2.788837-.3926016-1.0752143-.5889025-2.2512299-.5889025-3.5280469 0-1.1872157.1963009-2.2960305.5889025-3.32644415.3926016-1.03041368.9478525-1.93202566 1.6657526-2.70483592.7179001-.77281027 1.576015-1.3776183 2.5743449-1.81442411.9983298-.4368058 2.1144401-.6552087 3.3483309-.6552087 1.2114565 0 2.3612184.20160268 3.4492857.60480803 1.0880674.40320536 2.0134855.97441295 2.7762543 1.71362277l3.1295958-3.15844196c-1.2563252-1.12001487-2.6809082-1.89842521-4.2737491-2.33523102-1.5928408-.4368058-3.2978536-.6552087-5.1150382-.6552087-1.839619 0-3.527806.29680394-5.0645609.89041183-1.5367549.59360788-2.8603833 1.43921912-3.970885 2.5368337s-1.9798339 2.4248322-2.6079965 3.98165288-.9422439 3.28724365-.9422439 5.19126895c0 1.8592247.3140813 3.5504472.9422439 5.0736674s1.4974948 2.8280376 2.6079965 3.914452c1.1105017 1.0864144 2.4341301 1.9264256 3.970885 2.5200335C57.6130501 24.7031961 59.3012371 25 61.1408561 25z"/><path fill="#999" d="M44.7156862.00126794c1.8620534-.0224003 3.5670662.25200335 5.1150383.82321094 1.5479721.57120758 2.8828176 1.40561867 4.0045365 2.50323325 1.1217189 1.09761458 1.9966597 2.41923213 2.6248223 3.96485266.6281626 1.54562053.9422439 3.27044341.9422439 5.17446871 0 1.8592247-.3140813 3.5504472-.9422439 5.0736674-.6281626 1.5232203-1.5031034 2.8336377-2.6248223 3.9312522-1.1217189 1.0976146-2.4565644 1.954426-4.0045365 2.5704342-1.5479721.6160082-3.2529849.9352124-5.1150383.9576127-1.839619 0-3.52780596-.2968039-5.06456087-.8904118-1.53675491-.5936079-2.86038324-1.4336191-3.97088496-2.5200335-1.11050173-1.0864144-1.97983389-2.3912318-2.60799648-3.914452C32.44408129 16.1518825 32.13 14.46066 32.13 12.6014353c0-1.9040253.3140813-3.63444827.94224389-5.19126895.62816259-1.55682068 1.49749475-2.8840383 2.60799648-3.98165288 1.11050172-1.09761458 2.43413005-1.94322582 3.97088496-2.5368337C41.18788024.29807188 42.8760672.00126794 44.7156862.00126794zm.0336516 3.83045088c-1.2338908 0-2.3500011.2184029-3.34833096.6552087-.99832984.43680581-1.85644481 1.04161384-2.57434491 1.81442411-.71790011.77281026-1.27315097 1.67442224-1.66575259 2.70483592-.39260162 1.03041365-.58890243 2.13922845-.58890243 3.32644415 0 1.276817.19630081 2.4528326.58890243 3.5280469.39260162 1.0752143.94785248 2.0048266 1.66575259 2.788837.7179001.7840105 1.57601507 1.4000186 2.57434491 1.8480246.99832986.4480059 2.11444016.6720089 3.34833096.6720089 1.2338908 0 2.3556097-.224003 3.3651567-.6720089 1.0095471-.448006 1.8732706-1.0640141 2.5911707-1.8480246.7179002-.7840104 1.273151-1.7136227 1.6657526-2.788837.3926017-1.0752143.5889025-2.2512299.5889025-3.5280469 0-1.1872157-.1963008-2.2960305-.5889025-3.32644415-.3926016-1.03041368-.9478524-1.93202566-1.6657526-2.70483592-.7179001-.77281027-1.5816236-1.3776183-2.5911707-1.81442411-1.009547-.4368058-2.1312659-.6552087-3.3651567-.6552087z"/><path fill="#BBB" d="M52.9971767 12.3326317c0-1.1872157.1963009-2.2960305.5889025-3.32644415.3926016-1.03041368.9478525-1.93202566 1.6657526-2.70483592.7179001-.77281027 1.576015-1.3776183 2.5743449-1.81442411.9983298-.4368058 2.1144401-.6552087 3.3483309-.6552087 1.2114565 0 2.3612184.20160268 3.4492857.60480803 1.0880674.40320536 2.0134855.97441295 2.7762543 1.71362277l3.1295958-3.15844196c-1.2563252-1.12001487-2.6809082-1.89842521-4.2737491-2.33523102-1.5928408-.4368058-3.2978536-.6552087-5.1150382-.6552087-1.839619 0-3.527806.29680394-5.0645609.89041183-1.5367549.59360788-2.8603833 1.43921912-3.970885 2.5368337s-1.9798339 2.4248322-2.6079965 3.98165288-.9422439 3.28724365-.9422439 5.19126895c0 1.8592247 4.4420069 1.0080134 4.4420069-.2688036zM31.1645564 3.83171882c1.2114564 0 2.3612183.20160268 3.4492856.60480803 1.0880674.40320536 2.0134855.97441295 2.7762544 1.71362277l3.1295957-3.15844196c-1.2563252-1.12001487-2.6809082-1.89842521-4.273749-2.33523102-1.5928409-.4368058-3.2978537-.6552087-5.1150383-.6552087-1.839619 0-1.2002392 3.83045088.0336516 3.83045088zM40.991 10.485h-9.932v3.83h5.692z"/></g></svg>