<svg xmlns="http://www.w3.org/2000/svg" width="86" height="56" viewBox="0 0 86 56"><defs><linearGradient id="emerald-a" x1="50%" x2="50%" y1="315.832%" y2="0%"><stop offset="0%" stop-color="#FFF"/><stop offset="100%" stop-color="#0EB185"/></linearGradient></defs><g fill="none"><path fill="#54E8B9" d="M86 14l-18.793 2.331L43 56z"/><path fill="#52D498" d="M67 17l-24 1.012V56z"/><path fill="#5CFFCB" d="M43 18.012L19 17l24 39z"/><path fill="#54E8B9" d="M19.287 16.331L0 14l43 42z"/><path fill="#00F3B1" d="M86 14.637L72.475 3 67 17z"/><path fill="#389C7C" d="M53.737 7L67 16.989 43 18z"/><path fill="#00F3B1" d="M32.12 7L43 18l-24-1.011z"/><path fill="#5CFFCB" d="M12.77 4L0 14.713 19 17z"/><path fill="#4ACFA5" d="M73 3L54 6.69 67.525 17z"/><path fill="#B0FFE6" d="M54 7H32l11 11z"/><path fill="#54E8B9" d="M13 4l19 3.022L19.23 17z"/><path fill="url(#emerald-a)" d="M14 3.043L31.261 0h24.478L73 3.652 53.856 7h-21.34z" transform="matrix(-1 0 0 1 86 0)"/></g></svg>