<svg height="24" viewBox="0 0 80 24" width="80" xmlns="http://www.w3.org/2000/svg" xmlns:xlink="http://www.w3.org/1999/xlink"><mask id="a" fill="#fff"><path d="m0 0h11.17v7.017h-11.17z" fill="#fff" fill-rule="evenodd"/></mask><g fill="none" fill-rule="evenodd"><path d="m0 0h80v24h-80z" fill="#333" opacity="0"/><path d="m.709.168v6.04h3.361v.647h-4.07v-6.687zm9.747 3.336c0-.45-.06-.854-.178-1.21a2.76 2.76 0 0 0 -.486-.906 2.082 2.082 0 0 0 -.727-.566 2.097 2.097 0 0 0 -.895-.194 2.059 2.059 0 0 0 -1.625.76c-.205.247-.365.55-.482.906a3.87 3.87 0 0 0 -.175 1.21c0 .45.058.855.175 1.213s.277.661.482.909c.204.247.446.437.724.568.278.13.578.196.9.196a2.074 2.074 0 0 0 1.624-.764c.206-.248.368-.55.486-.909.118-.358.178-.762.178-1.213zm.714 0c0 .515-.066.988-.2 1.42a3.23 3.23 0 0 1 -.582 1.114c-.255.311-.57.554-.941.726a3.006 3.006 0 0 1 -1.278.26c-.48 0-.905-.087-1.278-.26a2.613 2.613 0 0 1 -.94-.726 3.255 3.255 0 0 1 -.58-1.115 4.81 4.81 0 0 1 -.198-1.419c0-.51.066-.982.199-1.412.132-.43.326-.8.58-1.11s.567-.55.94-.723a3.007 3.007 0 0 1 1.276-.259c.48 0 .905.086 1.278.259.372.173.686.414.941.724.256.31.45.68.583 1.11s.199.9.199 1.411z" fill="#6e466e" mask="url(#a)" transform="translate(0 16.983)"/><path d="m13.414 17.312v3.423l3.408-3.423h.935l-2.642 2.632 2.805 4.056h-.901l-2.397-3.548-1.208 1.189v2.359h-.71v-6.688zm10.417 0v.647h-3.749v2.263h3.528v.647h-3.528v2.484h3.917v.647h-4.627v-6.688zm6.529 0v.647h-2.215v6.041h-.709v-6.041h-2.21v-.647z" fill="#6e466e"/><path d="m31.625 17.351h1.085v3.425h.022l2.951-3.425h1.289l-2.297 2.622 2.538 4.027h-1.289l-1.954-3.251-1.26 1.226v2.025h-1.085zm9.912 4.269-1.037-2.909h-.02l-1.037 2.91h2.094zm.31.893h-2.72l-.549 1.487h-1.15l2.605-6.649h.91l2.605 6.649h-1.146zm2.666-5.162h1.023l3.247 4.727h.019v-4.727h1.085v6.649h-1.028l-3.241-4.726h-.02v4.726h-1.085zm7.2 4.983c.57.436 1.25.657 2.037.663.932-.012 1.404-.32 1.417-.926.007-.496-.304-.794-.934-.895-.289-.036-.605-.077-.95-.123-.615-.094-1.084-.306-1.405-.634a1.694 1.694 0 0 1 -.497-1.233c0-.58.208-1.05.624-1.405.402-.353.974-.533 1.714-.54.89.02 1.665.248 2.323.688l-.605.828a3.468 3.468 0 0 0 -1.776-.512c-.334 0-.613.077-.836.233-.233.16-.352.401-.359.72 0 .192.08.366.241.52.16.16.418.269.772.33.197.03.466.065.807.105.672.085 1.168.308 1.49.67.318.357.477.77.477 1.242-.036 1.272-.875 1.917-2.516 1.935-1.06 0-1.973-.303-2.736-.907zm5.964 0c.571.436 1.25.657 2.038.663.931-.012 1.404-.32 1.417-.926.006-.496-.305-.794-.935-.895a150.37 150.37 0 0 1 -.949-.123c-.616-.094-1.085-.306-1.406-.634a1.694 1.694 0 0 1 -.497-1.233c0-.58.208-1.05.624-1.405.403-.353.974-.533 1.714-.54.891.02 1.665.248 2.324.688l-.605.828a3.469 3.469 0 0 0 -1.776-.512c-.335 0-.614.077-.837.233-.232.16-.352.401-.359.72 0 .192.08.366.241.52.16.16.418.269.772.33.197.03.466.065.807.105.672.085 1.169.308 1.49.67.318.357.477.77.477 1.242-.036 1.272-.875 1.917-2.515 1.935-1.062 0-1.974-.303-2.737-.907zm6.961-1.877h1.611c.404-.006.708-.122.912-.348.193-.22.29-.464.29-.733 0-.223-.04-.41-.118-.564a.873.873 0 0 0 -.345-.325 1.444 1.444 0 0 0 -.778-.188h-1.572zm-1.085-3.106h2.598c.283 0 .555.025.817.073.263.064.529.195.797.393.226.148.41.361.55.638.148.267.221.583.221.948 0 .493-.187.941-.56 1.345-.384.426-.946.645-1.684.657h-1.654v2.595h-1.085zm6.162 0h4.579v.948h-3.494v1.903h2.983v.893h-2.983v1.957h3.494v.948h-4.579zm5.782 0h1.085v5.701h3.494v.948h-4.579z" fill="#e39468"/><path d="m47.553 0c.583 0 1.057.465 1.073 1.044v9.998c0 .583-.464 1.057-1.043 1.073h-15.206a1.074 1.074 0 0 1 -1.073-1.043v-9.998c0-.583.464-1.058 1.043-1.074zm.428 1.56h-16.032v9.482c0 .229.18.416.407.427h15.197c.229 0 .416-.18.427-.406v-9.503z" fill="#6e466e" fill-rule="nonzero"/><path d="m47.477 14.246h-15.027a.693.693 0 0 1 -.693-.693v-.487h16.413v.487c0 .383-.31.693-.693.693" fill="#6e466e"/><path d="m43.37 10.654h-6.812l.715-2.675c.133-.498.482-.829.872-.829h3.637c.39 0 .738.331.871.829l.716 2.675m-1.487-5.944a1.919 1.919 0 1 1 -3.837 0 1.919 1.919 0 0 1 3.837 0" fill="#e39468"/></g></svg>