<svg height="24" viewBox="0 0 13 24" width="13" xmlns="http://www.w3.org/2000/svg" xmlns:xlink="http://www.w3.org/1999/xlink"><filter id="a"><feColorMatrix in="SourceGraphic" type="matrix" values="0 0 0 0 0.894118 0 0 0 0 0.894118 0 0 0 0 0.894118 0 0 0 1.000000 0"/></filter><g fill="none" fill-rule="evenodd" filter="url(#a)" transform="translate(-667 -801)"><g fill="#28ffbb" transform="translate(667 801)"><path d="m8 0c1.1045695 0 2 .8954305 2 2v12c0 1.1045695-.8954305 2-2 2h-3c-1.1045695 0-2-.8954305-2-2v-12c0-1.1045695.8954305-2 2-2zm0 1h-3c-.51283584 0-.93550716.38604019-.99327227.88337887l-.00672773.11662113v12c0 .5128358.38604019.9355072.88337887.9932723l.11662113.0067277h3c.51283584 0 .93550716-.3860402.99327227-.8833789l.00672773-.1166211v-12c0-.51283584-.38604019-.93550716-.88337887-.99327227z"/><path d="m0 11h1v3c0 2.209139 1.790861 4 4 4h3c2.209139 0 4-1.790861 4-4v-3h1v3c0 2.7614237-2.2385763 5-5 5h-1v4h4v1h-9v-1h4v-4h-1c-2.76142375 0-5-2.2385763-5-5z"/></g></g></svg>