<svg width="121" height="28" viewBox="0 0 121 28" fill="none" xmlns="http://www.w3.org/2000/svg">
<path d="M19.3398 3.88281H109.866C115.453 3.88281 119.983 8.41204 119.983 13.9991C119.983 19.5862 115.453 24.1155 109.866 24.1155H19.3398V3.88281Z" stroke="#A4D8FF"/>
<path d="M65.033 13.2627C63.6038 13.2627 62.5742 12.2792 62.5742 10.8961C62.5742 9.51307 63.6038 8.54492 65.033 8.54492C66.4622 8.54492 67.4918 9.51307 67.4918 10.8961C67.4918 12.2792 66.4622 13.2627 65.033 13.2627ZM63.6038 19.3944L70.5653 8.63713H72.1943L65.2328 19.3944H63.6038ZM65.033 12.0487C65.7092 12.0487 66.1702 11.5723 66.1702 10.8961C66.1702 10.22 65.7092 9.75895 65.033 9.75895C64.3569 9.75895 63.8805 10.22 63.8805 10.8961C63.8805 11.5723 64.3569 12.0487 65.033 12.0487ZM70.7651 19.4866C69.3359 19.4866 68.3217 18.5184 68.3217 17.1353C68.3217 15.7523 69.3359 14.7688 70.7651 14.7688C72.2096 14.7688 73.2239 15.7523 73.2239 17.1353C73.2239 18.5184 72.2096 19.4866 70.7651 19.4866ZM70.7651 18.2725C71.4413 18.2725 71.9177 17.8115 71.9177 17.1353C71.9177 16.4592 71.4413 15.9828 70.7651 15.9828C70.0889 15.9828 69.6279 16.4592 69.6279 17.1353C69.6279 17.8115 70.0889 18.2725 70.7651 18.2725Z" fill="#E0F3FF"/>
<path d="M56.5233 19.5767C53.7418 19.5767 51.8516 17.748 51.8516 15.0587V12.9533C51.8516 10.2487 53.7418 8.41992 56.5233 8.41992C59.3048 8.41992 61.195 10.2487 61.195 12.9533V15.0587C61.195 17.748 59.3048 19.5767 56.5233 19.5767ZM56.5233 17.8863C58.2444 17.8863 59.3816 16.7491 59.3816 15.0587V12.9533C59.3816 11.2629 58.2444 10.1257 56.5233 10.1257C54.8021 10.1257 53.6649 11.2629 53.6649 12.9533V15.0587C53.6649 16.7491 54.8021 17.8863 56.5233 17.8863Z" fill="#E0F3FF"/>
<path d="M45.4784 19.5767C42.6968 19.5767 40.8066 17.748 40.8066 15.0587V12.9533C40.8066 10.2487 42.6968 8.41992 45.4784 8.41992C48.2599 8.41992 50.1501 10.2487 50.1501 12.9533V15.0587C50.1501 17.748 48.2599 19.5767 45.4784 19.5767ZM45.4784 17.8863C47.1995 17.8863 48.3367 16.7491 48.3367 15.0587V12.9533C48.3367 11.2629 47.1995 10.1257 45.4784 10.1257C43.7572 10.1257 42.62 11.2629 42.62 12.9533V15.0587C42.62 16.7491 43.7572 17.8863 45.4784 17.8863Z" fill="#E0F3FF"/>
<path d="M37.7125 17.7179H39.5566V19.3929H33.8398V17.7179H35.8991V10.7564L34.0704 11.3404V9.68068L37.4973 8.57422H37.7125V17.7179Z" fill="#E0F3FF"/>
<path d="M110.26 19.5478H109.211L109.218 18.8259H110.26C110.543 18.8259 110.781 18.7635 110.972 18.6387C111.164 18.5117 111.309 18.3301 111.407 18.094C111.505 17.8555 111.554 17.5704 111.554 17.2384V16.9877C111.554 16.7315 111.526 16.5053 111.47 16.3093C111.415 16.1132 111.332 15.9483 111.223 15.8146C111.116 15.6809 110.983 15.5796 110.825 15.5105C110.667 15.4414 110.485 15.4069 110.281 15.4069H109.191V14.6816H110.281C110.606 14.6816 110.902 14.7362 111.17 14.8454C111.439 14.9546 111.672 15.1117 111.868 15.3166C112.066 15.5194 112.218 15.7623 112.323 16.0452C112.429 16.3282 112.483 16.6446 112.483 16.9944V17.2384C112.483 17.5859 112.429 17.9023 112.323 18.1875C112.218 18.4705 112.066 18.7134 111.868 18.9161C111.672 19.1189 111.438 19.2748 111.166 19.384C110.894 19.4932 110.592 19.5478 110.26 19.5478ZM109.726 14.6816V19.5478H108.807V14.6816H109.726Z" fill="#E0F3FF"/>
<path d="M108.17 18.8259V19.5478H105.584V18.8259H108.17ZM105.864 14.6816V19.5478H104.945V14.6816H105.864ZM107.833 16.6903V17.3954H105.584V16.6903H107.833ZM108.16 14.6816V15.4069H105.584V14.6816H108.16Z" fill="#E0F3FF"/>
<path d="M100.596 14.6816H102.364C102.734 14.6816 103.051 14.7373 103.316 14.8487C103.581 14.9602 103.785 15.125 103.928 15.3434C104.07 15.5617 104.142 15.8302 104.142 16.1488C104.142 16.4006 104.097 16.619 104.008 16.8039C103.919 16.9888 103.793 17.1437 103.63 17.2684C103.47 17.3932 103.281 17.4913 103.062 17.5626L102.775 17.7096H101.214L101.207 16.9844H102.374C102.563 16.9844 102.72 16.9509 102.845 16.8841C102.97 16.8173 103.063 16.7248 103.126 16.6067C103.19 16.4886 103.223 16.3538 103.223 16.2023C103.223 16.0397 103.191 15.8993 103.129 15.7812C103.067 15.6609 102.972 15.5684 102.845 15.5038C102.718 15.4392 102.558 15.4069 102.364 15.4069H101.515V19.5478H100.596V14.6816ZM103.343 19.5478L102.217 17.3687L103.189 17.3654L104.329 19.501V19.5478H103.343Z" fill="#E0F3FF"/>
<path d="M98.801 14.6816H99.7201V17.9135C99.7201 18.2856 99.6399 18.5986 99.4795 18.8526C99.3191 19.1044 99.1007 19.2949 98.8244 19.4241C98.5482 19.5511 98.234 19.6146 97.882 19.6146C97.5255 19.6146 97.208 19.5511 96.9295 19.4241C96.6509 19.2949 96.4326 19.1044 96.2744 18.8526C96.1162 18.5986 96.0371 18.2856 96.0371 17.9135V14.6816H96.9562V17.9135C96.9562 18.1407 96.9941 18.3268 97.0698 18.4716C97.1456 18.6142 97.2525 18.72 97.3907 18.7891C97.5288 18.8582 97.6926 18.8927 97.882 18.8927C98.0736 18.8927 98.2373 18.8582 98.3732 18.7891C98.5114 18.72 98.6172 18.6142 98.6907 18.4716C98.7643 18.3268 98.801 18.1407 98.801 17.9135V14.6816Z" fill="#E0F3FF"/>
<path d="M94.4666 17.9448H95.3857C95.3612 18.2701 95.271 18.5587 95.115 18.8104C94.959 19.06 94.7418 19.256 94.4633 19.3986C94.1848 19.5412 93.8472 19.6125 93.4506 19.6125C93.1454 19.6125 92.8702 19.5591 92.6251 19.4521C92.3823 19.3429 92.1739 19.1881 92.0001 18.9876C91.8286 18.7848 91.6971 18.5419 91.6058 18.259C91.5144 17.9738 91.4688 17.6541 91.4688 17.2998V16.9288C91.4688 16.5745 91.5155 16.2548 91.6091 15.9696C91.7027 15.6844 91.8364 15.4416 92.0102 15.241C92.1862 15.0383 92.3967 14.8823 92.6418 14.7731C92.8891 14.664 93.1654 14.6094 93.4707 14.6094C93.8673 14.6094 94.2026 14.6829 94.4767 14.83C94.7507 14.9748 94.9635 15.1742 95.115 15.4282C95.2665 15.6822 95.3579 15.9741 95.3891 16.3038H94.47C94.4521 16.0989 94.4076 15.9251 94.3363 15.7825C94.2672 15.6399 94.1625 15.5318 94.0221 15.4583C93.884 15.3825 93.7002 15.3446 93.4707 15.3446C93.2924 15.3446 93.1354 15.3781 92.9994 15.4449C92.8658 15.5117 92.7544 15.612 92.6652 15.7457C92.5761 15.8772 92.5093 16.042 92.4647 16.2403C92.4201 16.4364 92.3979 16.6637 92.3979 16.9221V17.2998C92.3979 17.5471 92.4179 17.7688 92.458 17.9649C92.4981 18.1609 92.5605 18.3269 92.6452 18.4628C92.7298 18.5988 92.839 18.7024 92.9727 18.7737C93.1064 18.845 93.2657 18.8806 93.4506 18.8806C93.6757 18.8806 93.8584 18.845 93.9987 18.7737C94.1413 18.7024 94.2494 18.5976 94.3229 18.4595C94.3987 18.3214 94.4466 18.1498 94.4666 17.9448Z" fill="#E0F3FF"/>
<path d="M90.979 18.8259V19.5478H88.3923V18.8259H90.979ZM88.673 14.6816V19.5478H87.7539V14.6816H88.673ZM90.6415 16.6903V17.3954H88.3923V16.6903H90.6415ZM90.969 14.6816V15.4069H88.3923V14.6816H90.969Z" fill="#E0F3FF"/>
<path d="M86.1241 18.2849C86.1241 18.1913 86.1096 18.1078 86.0807 18.0342C86.0539 17.9585 86.0038 17.8905 85.9303 17.8304C85.859 17.768 85.7576 17.7078 85.6262 17.6499C85.4969 17.5897 85.3298 17.5273 85.1248 17.4627C84.8976 17.3914 84.6859 17.3112 84.4898 17.2221C84.2938 17.133 84.1211 17.0294 83.9718 16.9113C83.8248 16.7932 83.71 16.6573 83.6276 16.5035C83.5451 16.3476 83.5039 16.1671 83.5039 15.9621C83.5039 15.7616 83.5462 15.5789 83.6309 15.414C83.7178 15.2491 83.8404 15.1076 83.9985 14.9896C84.1567 14.8692 84.3428 14.7768 84.5567 14.7122C84.7728 14.6475 85.0112 14.6152 85.2719 14.6152C85.6328 14.6152 85.9448 14.681 86.2077 14.8124C86.4728 14.9439 86.6778 15.1221 86.8226 15.3472C86.9675 15.5722 87.0399 15.8251 87.0399 16.1058H86.1241C86.1241 15.9543 86.0918 15.8206 86.0272 15.7048C85.9648 15.5889 85.869 15.4976 85.7398 15.4307C85.6128 15.3639 85.4524 15.3304 85.2585 15.3304C85.0714 15.3304 84.9154 15.3583 84.7906 15.414C84.6681 15.4697 84.5756 15.5455 84.5132 15.6413C84.4531 15.7371 84.423 15.844 84.423 15.9621C84.423 16.0512 84.4442 16.1314 84.4865 16.2027C84.5288 16.2718 84.5923 16.3375 84.677 16.3999C84.7617 16.4601 84.8664 16.5169 84.9912 16.5704C85.1182 16.6216 85.2652 16.6729 85.4323 16.7241C85.6997 16.8043 85.9336 16.8935 86.1342 16.9915C86.3369 17.0895 86.5051 17.2009 86.6388 17.3257C86.7747 17.4505 86.8761 17.5908 86.9429 17.7468C87.012 17.9028 87.0466 18.0799 87.0466 18.2782C87.0466 18.4876 87.0053 18.6748 86.9229 18.8397C86.8405 19.0046 86.7224 19.1449 86.5686 19.2608C86.4149 19.3767 86.23 19.4647 86.0138 19.5248C85.7999 19.585 85.5604 19.6151 85.2953 19.6151C85.0591 19.6151 84.8252 19.5839 84.5934 19.5215C84.3639 19.4569 84.1556 19.3611 83.9685 19.2341C83.7813 19.1048 83.632 18.9422 83.5206 18.7461C83.4092 18.5478 83.3535 18.3161 83.3535 18.0509H84.2759C84.2759 18.2047 84.3004 18.3361 84.3495 18.4453C84.4007 18.5523 84.472 18.6403 84.5634 18.7093C84.6569 18.7762 84.7661 18.8252 84.8909 18.8564C85.0157 18.8876 85.1505 18.9032 85.2953 18.9032C85.4824 18.9032 85.6362 18.8776 85.7565 18.8263C85.879 18.7728 85.9704 18.6993 86.0305 18.6057C86.0929 18.5122 86.1241 18.4052 86.1241 18.2849Z" fill="#E0F3FF"/>
<path d="M78.1551 16.9188L79.0408 16.3373C79.1811 16.2437 79.2781 16.1534 79.3315 16.0665C79.385 15.9796 79.4117 15.8749 79.4117 15.7524C79.4117 15.6432 79.3694 15.5418 79.2847 15.4482C79.2023 15.3524 79.0853 15.3045 78.9338 15.3045C78.8269 15.3045 78.7366 15.329 78.6631 15.3781C78.5896 15.4271 78.5339 15.4928 78.496 15.5753C78.4604 15.6555 78.4425 15.7446 78.4425 15.8426C78.4425 15.9429 78.4682 16.0454 78.5194 16.1501C78.5729 16.2548 78.6442 16.3651 78.7333 16.481C78.8246 16.5946 78.926 16.7183 79.0374 16.8519L81.3335 19.5457H80.3241L78.4459 17.3599C78.2877 17.1639 78.1473 16.9834 78.0248 16.8185C77.9022 16.6536 77.8064 16.4943 77.7373 16.3406C77.6705 16.1846 77.6371 16.0242 77.6371 15.8593C77.6371 15.6053 77.6906 15.3847 77.7975 15.1976C77.9044 15.0104 78.0548 14.8656 78.2487 14.7631C78.4448 14.6606 78.6742 14.6094 78.9372 14.6094C79.1867 14.6094 79.4017 14.6606 79.5822 14.7631C79.7649 14.8634 79.9064 14.9971 80.0066 15.1642C80.1069 15.3313 80.157 15.514 80.157 15.7123C80.157 15.8638 80.1292 16.0042 80.0735 16.1334C80.0178 16.2604 79.9409 16.3774 79.8429 16.4843C79.7448 16.589 79.6312 16.6882 79.502 16.7818L78.4592 17.5304C78.359 17.6151 78.2832 17.6986 78.232 17.7811C78.183 17.8613 78.1495 17.9359 78.1317 18.005C78.1161 18.074 78.1083 18.1387 78.1083 18.1988C78.1083 18.3347 78.1373 18.4573 78.1952 18.5665C78.2554 18.6734 78.34 18.7592 78.4492 18.8238C78.5606 18.8862 78.6921 18.9174 78.8436 18.9174C79.0285 18.9174 79.2068 18.8762 79.3783 18.7937C79.5499 18.7113 79.7036 18.5943 79.8395 18.4428C79.9777 18.2913 80.0868 18.1108 80.1671 17.9014C80.2495 17.6897 80.2907 17.4569 80.2907 17.2029H81.046C81.046 17.4457 81.0226 17.6763 80.9759 17.8947C80.9291 18.1108 80.8533 18.3113 80.7486 18.4963C80.6439 18.6812 80.5068 18.8461 80.3375 18.9909C80.3219 19.0043 80.303 19.0221 80.2807 19.0444C80.2606 19.0667 80.2428 19.0845 80.2272 19.0979C80.0245 19.2716 79.805 19.402 79.5688 19.4889C79.3349 19.5736 79.0798 19.6159 78.8035 19.6159C78.4782 19.6159 78.1974 19.5568 77.9613 19.4388C77.7251 19.3207 77.5424 19.158 77.4132 18.9508C77.2862 18.7436 77.2227 18.5063 77.2227 18.2389C77.2227 18.0406 77.2616 17.868 77.3396 17.7209C77.4198 17.5716 77.5301 17.4335 77.6705 17.3065C77.8109 17.1772 77.9724 17.048 78.1551 16.9188Z" fill="#E0F3FF"/>
<path d="M105.784 13.3212H104.734L104.741 12.5993H105.784C106.067 12.5993 106.304 12.5369 106.496 12.4122C106.687 12.2852 106.832 12.1036 106.93 11.8674C107.028 11.629 107.077 11.3438 107.077 11.0118V10.7611C107.077 10.5049 107.049 10.2788 106.994 10.0827C106.938 9.88662 106.856 9.72174 106.746 9.58806C106.639 9.45437 106.507 9.353 106.349 9.28393C106.191 9.21486 106.009 9.18032 105.804 9.18032H104.714V8.45508H105.804C106.129 8.45508 106.426 8.50967 106.693 8.61884C106.963 8.72802 107.195 8.8851 107.391 9.09008C107.59 9.29284 107.741 9.5357 107.846 9.81867C107.953 10.1016 108.006 10.418 108.006 10.7678V11.0118C108.006 11.3594 107.953 11.6758 107.846 11.961C107.741 12.2439 107.59 12.4868 107.391 12.6896C107.195 12.8923 106.961 13.0483 106.69 13.1575C106.418 13.2666 106.116 13.3212 105.784 13.3212ZM105.249 8.45508V13.3212H104.33V8.45508H105.249Z" fill="#E0F3FF"/>
<path d="M103.694 12.5993V13.3212H101.107V12.5993H103.694ZM101.388 8.45508V13.3212H100.469V8.45508H101.388ZM103.356 10.4637V11.1689H101.107V10.4637H103.356ZM103.684 8.45508V9.18032H101.107V8.45508H103.684Z" fill="#E0F3FF"/>
<path d="M98.8331 12.0583C98.8331 11.9648 98.8186 11.8812 98.7897 11.8077C98.7629 11.7319 98.7128 11.664 98.6393 11.6038C98.568 11.5414 98.4666 11.4813 98.3351 11.4233C98.2059 11.3632 98.0388 11.3008 97.8338 11.2362C97.6066 11.1649 97.3949 11.0847 97.1988 10.9955C97.0027 10.9064 96.8301 10.8028 96.6808 10.6847C96.5337 10.5666 96.419 10.4307 96.3366 10.277C96.2541 10.121 96.2129 9.94053 96.2129 9.73555C96.2129 9.53502 96.2552 9.35232 96.3399 9.18744C96.4268 9.02256 96.5493 8.88108 96.7075 8.76299C96.8657 8.64267 97.0518 8.55021 97.2657 8.48559C97.4818 8.42098 97.7202 8.38867 97.9809 8.38867C98.3418 8.38867 98.6538 8.4544 98.9167 8.58586C99.1818 8.71731 99.3868 8.89556 99.5316 9.1206C99.6764 9.34563 99.7489 9.59852 99.7489 9.87926H98.8331C98.8331 9.72775 98.8008 9.59407 98.7362 9.47821C98.6738 9.36235 98.578 9.27099 98.4488 9.20415C98.3218 9.13731 98.1613 9.10389 97.9675 9.10389C97.7803 9.10389 97.6244 9.13174 97.4996 9.18744C97.3771 9.24314 97.2846 9.3189 97.2222 9.41471C97.1621 9.51051 97.132 9.61746 97.132 9.73555C97.132 9.82467 97.1531 9.90488 97.1955 9.97618C97.2378 10.0453 97.3013 10.111 97.386 10.1734C97.4706 10.2335 97.5754 10.2903 97.7001 10.3438C97.8271 10.3951 97.9742 10.4463 98.1413 10.4976C98.4087 10.5778 98.6426 10.6669 98.8431 10.7649C99.0459 10.863 99.2141 10.9744 99.3478 11.0991C99.4837 11.2239 99.5851 11.3643 99.6519 11.5202C99.721 11.6762 99.7555 11.8533 99.7555 12.0516C99.7555 12.2611 99.7143 12.4482 99.6319 12.6131C99.5494 12.778 99.4314 12.9184 99.2776 13.0342C99.1239 13.1501 98.9389 13.2381 98.7228 13.2983C98.5089 13.3584 98.2694 13.3885 98.0043 13.3885C97.7681 13.3885 97.5341 13.3573 97.3024 13.2949C97.0729 13.2303 96.8646 13.1345 96.6774 13.0075C96.4903 12.8783 96.341 12.7156 96.2296 12.5195C96.1182 12.3212 96.0625 12.0895 96.0625 11.8244H96.9849C96.9849 11.9781 97.0094 12.1096 97.0585 12.2188C97.1097 12.3257 97.181 12.4137 97.2723 12.4828C97.3659 12.5496 97.4751 12.5986 97.5999 12.6298C97.7246 12.661 97.8594 12.6766 98.0043 12.6766C98.1914 12.6766 98.3452 12.651 98.4655 12.5998C98.588 12.5463 98.6794 12.4728 98.7395 12.3792C98.8019 12.2856 98.8331 12.1786 98.8331 12.0583Z" fill="#E0F3FF"/>
<path d="M95.3536 8.45508V13.3212H94.4312L92.3624 9.94567V13.3212H91.4434V8.45508H92.3624L94.4379 11.834V8.45508H95.3536Z" fill="#E0F3FF"/>
<path d="M90.8052 12.5993V13.3212H88.2184V12.5993H90.8052ZM88.4992 8.45508V13.3212H87.5801V8.45508H88.4992ZM90.4677 10.4637V11.1689H88.2184V10.4637H90.4677ZM90.7952 8.45508V9.18032H88.2184V8.45508H90.7952Z" fill="#E0F3FF"/>
<path d="M85.949 11.7183H86.8681C86.8436 12.0436 86.7534 12.3321 86.5974 12.5839C86.4415 12.8334 86.2242 13.0295 85.9457 13.1721C85.6672 13.3147 85.3296 13.386 84.933 13.386C84.6278 13.386 84.3526 13.3325 84.1075 13.2256C83.8647 13.1164 83.6564 12.9615 83.4826 12.761C83.311 12.5582 83.1795 12.3154 83.0882 12.0324C82.9968 11.7472 82.9512 11.4275 82.9512 11.0732V10.7022C82.9512 10.348 82.998 10.0283 83.0915 9.74306C83.1851 9.45786 83.3188 9.215 83.4926 9.01447C83.6686 8.81172 83.8792 8.65575 84.1243 8.54658C84.3716 8.4374 84.6479 8.38281 84.9531 8.38281C85.3497 8.38281 85.685 8.45634 85.9591 8.60339C86.2331 8.74822 86.4459 8.94763 86.5974 9.20163C86.7489 9.45564 86.8403 9.74751 86.8715 10.0773H85.9524C85.9346 9.87229 85.89 9.6985 85.8187 9.5559C85.7496 9.4133 85.6449 9.30524 85.5045 9.23171C85.3664 9.15596 85.1826 9.11808 84.9531 9.11808C84.7749 9.11808 84.6178 9.1515 84.4819 9.21834C84.3482 9.28519 84.2368 9.38545 84.1476 9.51914C84.0585 9.65059 83.9917 9.81547 83.9471 10.0138C83.9026 10.2098 83.8803 10.4371 83.8803 10.6956V11.0732C83.8803 11.3205 83.9003 11.5422 83.9404 11.7383C83.9805 11.9344 84.0429 12.1004 84.1276 12.2363C84.2123 12.3722 84.3214 12.4758 84.4551 12.5471C84.5888 12.6184 84.7481 12.6541 84.933 12.6541C85.1581 12.6541 85.3408 12.6184 85.4812 12.5471C85.6237 12.4758 85.7318 12.3711 85.8053 12.2329C85.8811 12.0948 85.929 11.9232 85.949 11.7183Z" fill="#E0F3FF"/>
<path d="M82.1066 8.45508V13.3212H81.1875V8.45508H82.1066Z" fill="#E0F3FF"/>
<path d="M80.5178 12.5993V13.3212H78.0714V12.5993H80.5178ZM78.3488 8.45508V13.3212H77.4297V8.45508H78.3488Z" fill="#E0F3FF"/>
<rect x="0.839844" width="28" height="28" rx="14" fill="#A4D8FF"/>
<path d="M17.4648 12.375L13.9648 15.875L12.2148 14.125M21.8398 9.92496V13.3942C21.8398 19.1414 17.4928 21.7181 15.6499 22.5523C15.4545 22.6407 15.3575 22.685 15.1364 22.7229C14.9969 22.7469 14.6835 22.7469 14.544 22.7229C14.3229 22.685 14.2249 22.6407 14.0296 22.5523C12.1867 21.7181 7.83984 19.1414 7.83984 13.3942V9.92496C7.83984 8.94487 7.83984 8.45488 8.03058 8.08054C8.19836 7.75125 8.46588 7.48352 8.79517 7.31574C9.16951 7.125 9.65992 7.125 10.64 7.125H19.04C20.0201 7.125 20.5098 7.125 20.8842 7.31574C21.2134 7.48352 21.4815 7.75125 21.6493 8.08054C21.84 8.45488 21.8398 8.94487 21.8398 9.92496Z" stroke="#0E2857" stroke-width="2" stroke-linecap="round" stroke-linejoin="round"/>
</svg>
