<svg height="26" viewBox="0 0 25 26" width="25" xmlns="http://www.w3.org/2000/svg"><g fill="none" fill-rule="evenodd"><rect fill="#aaa" height="24" rx="2" width="17" y="1"/><text fill="#222" font-family="FuturaPT-Bold, Futura PT" font-size="8" font-weight="bold" letter-spacing="-.369"><tspan x="1" y="8">J</tspan></text><g transform="translate(7)"><rect fill="#aaa" height="24" rx="2" width="17" y="1"/><g fill="#222"><path d="m8.5 8-.02551314.0721639c-.36800386 1.00609192-1.18727466 1.83662498-2.05771268 2.6121237l-1.23508784 1.0834312c-.72981887.6610798-1.3514864 1.3239898-1.59145959 2.071131-.57124814 1.7785453 1.65680346 3.796419 4.23230096 2.2354514.02015678 1.0003858-.52809674 1.9460723-1.46777424 2.8540911l-.07499503.0716077h4.44048316l-.0749951-.0716077c-.93967748-.9080188-1.48793092-1.8537053-1.46777421-2.8540911 2.57549761 1.5609676 4.80354911-.4569061 4.23230091-2.2354514-.2399731-.7471412-.8616406-1.4100512-1.5914595-2.071131l-1.2350879-1.0834312c-.8911627-.79396298-1.72869269-1.64561217-2.0832258-2.6842876z"/><text font-family="FuturaPT-Bold, Futura PT" font-size="8" font-weight="bold" letter-spacing="-.369"><tspan x="1" y="8">A</tspan></text></g></g><rect height="25" rx="2" stroke="#222" width="18" x="6.5" y=".5"/></g></svg>