<svg width="28" height="34" viewBox="0 0 28 34" xmlns="http://www.w3.org/2000/svg"><g fill="none" fill-rule="evenodd"><circle stroke="#FFF" stroke-width="1.077" cx="14" cy="17" r="13.462"/><path d="M14,29 C14.5746168,29 15.4122982,28.9121466 16.5130442,28.7364398 L14,17 L16.7884333,5.32565769 C15.5694627,5.10855256 14.6399849,5 14,5 C13.366049,5 12.445011,5.10655391 11.2368861,5.31966172 L14,17 L11.5427841,28.7481964 C12.6194947,28.9160655 13.4385667,29 14,29 Z" fill="#FFF"/><path d="M14,29 C14.5746168,29 15.4122982,28.9121466 16.5130442,28.7364398 L14,17 L16.7884333,5.32565769 C15.5694627,5.10855256 14.6399849,5 14,5 C13.366049,5 12.445011,5.10655391 11.2368861,5.31966172 L14,17 L11.5427841,28.7481964 C12.6194947,28.9160655 13.4385667,29 14,29 Z" fill="#FFF" transform="rotate(90 14.013 17)"/><path d="M14,29 C14.5746168,29 15.4122982,28.9121466 16.5130442,28.7364398 L14,17 L16.7884333,5.32565769 C15.5694627,5.10855256 14.6399849,5 14,5 C13.366049,5 12.445011,5.10655391 11.2368861,5.31966172 L14,17 L11.5427841,28.7481964 C12.6194947,28.9160655 13.4385667,29 14,29 Z" fill="#FFF" transform="rotate(135 14.013 17)"/><path d="M14,29 C14.5746168,29 15.4122982,28.9121466 16.5130442,28.7364398 L14,17 L16.7884333,5.32565769 C15.5694627,5.10855256 14.6399849,5 14,5 C13.366049,5 12.445011,5.10655391 11.2368861,5.31966172 L14,17 L11.5427841,28.7481964 C12.6194947,28.9160655 13.4385667,29 14,29 Z" fill="#FFF" transform="rotate(45 14.013 17)"/><circle fill="#222" cx="14" cy="17" r="2"/><circle fill="#FFF" cx="14" cy="17" r="1"/><polygon stroke="#222" stroke-width="1.077" fill="#FFF" stroke-linejoin="round" transform="matrix(1 0 0 -1 0 8)" points="14 0 17 8 11 8"/><g transform="translate(7 31)" fill="#FFF"><rect y="1" width="14" height="2" rx="1"/><rect x="6" width="2" height="2"/></g></g></svg>