<svg height="28" viewBox="0 0 28 28" width="28" xmlns="http://www.w3.org/2000/svg"><g fill="none" fill-rule="evenodd"><circle cx="14" cy="14" r="13.462" stroke="#28ffbb" stroke-width="1.077"/><path d="m14 14 2.5130442 11.7364398c-1.100746.1757068-1.9384274.2635602-2.5130442.2635602-.5614333 0-1.3805053-.0839345-2.4572159-.2518036zm.0216115-.0089518 10.213063 6.3054299c-.7035834 1.0049633-1.2795105 1.7315804-1.7277816 2.1798515-.4525377.4525377-1.186536 1.0330194-2.2019949 1.7414453zm-.0216115-11.9910482c.6399849 0 1.5694627.10855256 2.7884333.32565769l-2.7817736 11.64434231.005.008 6.2974781-10.20001474c.913603.6396212 1.5971679 1.17374147 2.0506946 1.60236081l.1291569.12542077c.4525377.45253767 1.0330195 1.18653596 1.7414454 2.20199488l-10.214775 6.27523828.002.003 11.6753383-2.7617736c.1937344 1.0982954.2994077 1.9593288.3170199 2.5831003l.0026418.1800136c0 .6399849-.1085525 1.5694626-.3256577 2.7884333l-11.6683423-2.7867736.0029518.0020482-.0059518-.0030482-.003-.0006597.001-.0003403-.002-.001-.001.001.002.0003403-.004.0006597-.0049518.0030482.0019518-.0030482-.003.001-.001.003.0020482-.0009518-.0030482.0039518-.0006597.005-.0003403-.002-6.51787731 10.068955c-.81232958-.5886913-1.42366861-1.0770293-1.83401709-1.465014l-.12933873-.1256114c-.3969933-.3969933-.91681398-1.0355153-1.55946203-1.915566l10.03969516-6.5667636-.001-.004-11.72143976 2.5103845c-.15813612-.9906714-.245111-1.7682605-.26092461-2.3327672l-.0026356-.180277c0-.5614333.08393452-1.3805053.25180355-2.4572159l11.73119642 2.4528756-.002-.01-10.04795495-6.50387734c.58869133-.81232958 1.07702931-1.42366861 1.46501396-1.83401709l.12561143-.12933873c.3969933-.3969933 1.03551531-.91681398 1.91556603-1.55946203l6.53276353 9.98969519-2.7477736-11.61633828c1.0982954-.19373438 1.9593288-.29940767 2.5831003-.31701989z" fill="#28ffbb"/><ellipse cx="13.942" cy="14.188" fill="#28ffbb" rx="8.077" ry="7.962" stroke="#222" stroke-width="1.077"/><circle cx="14" cy="14" fill="#222" r="2"/><circle cx="14" cy="14" r="1"/><path d="m11.308 16.656 5.384-5.312" stroke="#222" stroke-linecap="square" stroke-width="1.077"/><ellipse cx="17.231" cy="10.813" fill="#222" rx="1.077" ry="1.063"/><ellipse cx="10.769" cy="17.188" fill="#222" rx="1.077" ry="1.063"/><path d="m11.308 16.656 5.384-5.312" stroke="#222" stroke-linecap="square" stroke-width="1.077" transform="matrix(-1 0 0 1 28 0)"/><g fill="#222"><ellipse cx="10.769" cy="10.813" rx="1.077" ry="1.063" transform="matrix(-1 0 0 1 21.538 0)"/><ellipse cx="17.231" cy="17.188" rx="1.077" ry="1.063" transform="matrix(-1 0 0 1 34.462 0)"/></g></g></svg>