<svg height="81" viewBox="0 0 64 81" width="64" xmlns="http://www.w3.org/2000/svg"><g fill="none" transform="translate(.506 .424)"><g fill="#000" transform="translate(2.737 24.808)"><path d="m2.21968702 42.1785301 2.06702788 1.0371415c-1.23317054.8592583-1.70481449 2.2547824-.93829006 2.9221112.76652442.6673288 2.87950547-.0325117 3.68002361-1.200108l1.96596387 1.3855515c-1.11188759 1.6407966-5.8749527 3.920526-7.89988522 2.1151345-2.32601838-1.7907075-.45986041-5.2227959 1.12515992-6.2598307z"/><path d="m8.74695667 38.3132433-2.81232277.7904688c-.29115275-1.9136445-3.38066416.1867322-.91911073 1.5892444l3.332066 2.0646408.67491663-1.7614075 3.0797153-.925446-1.5867991 4.0393381 3.2318456 1.9110776-3.617111 1.1171269-8.05533681-5.0239633c-.81029876-.4992896-2.19193657-3.9101267 1.74185183-5.6618763 4.05889229-1.6308552 4.93724803.8192682 4.93028505 1.8607965zm18.26058443-24.5417635c3.6132203-1.0486404 6.4674998.9774942 6.7263298 4.3696.2688843 3.6086791-2.2520131 6.8522601-5.7080324 7.8311024s-6.5767115-.5821959-6.8073208-4.2864007c-.2306094-3.7042049 2.3330041-6.9354594 5.7890234-7.9143017zm1.1170379 2.3254615c-1.8376362 0-3.6048429 1.6772152-3.9471667 3.7461648-.3423237 2.0689498.8698667 3.746165 2.707503 3.746165 1.8376362 0 3.604843-1.6772152 3.9471667-3.746165.3423237-2.0689496-.8698666-3.7461648-2.707503-3.7461648z"/><path d="m12.967 33.969 3.245-.922 2.503 8.037 1.334-9.161 3.382-1.006 2.786 7.935.936-9.034 3.299-.952-2.09 12.819-3.709 1.09-2.595-7.106-1.241 8.312-3.65 1.033z"/><path d="m31.882 28.445 3.05-.893 1.019 11.896-3.074.919z"/><path d="m37.031 26.95 3.049-.893 5.544 5.923-.729-7.316 3.032-.857 1.118 11.86-3.125.887-5.473-5.761.652 7.161-3.074.918z"/><path d="m17.3723029 24.1128907 3.2590367 3.9585098-3.4470974 1.0037279-2.9734992-3.8087752-.6269648.2252092.3977206 4.5365115-3.0027088.8784715-1.0760846-11.9994383 1.7555017-.514697 3.7251486-1.0952727c4.4801423-1.2835889 6.2115973 4.2865491 1.9889472 6.8157533zm-.6293947-3.4952121c-.1885443-.6447166-.8640358-1.0145173-1.5087525-.825973l-2.1622637.6323437.2645333 3.0190245 2.095294-.6183976c.8512747-.2512421 1.4149862-1.058622 1.3575331-1.9443365-.0057723-.0889879-.0213138-.1770711-.0463442-.2626611zm25.7342295-3.739732c-1.2887096.8415606-3.5376687 1.4396429-3.9618835 1.541469l.3787561 4.3009882-3.0027088.8784715-1.0760845-11.9994382 1.7555016-.5146971 3.7251486-1.09527268c4.4801423-1.28358892 5.5277942 4.62565908 2.1812705 6.88847928zm-1.0102114-3.4790891c-.188755-.6554961-.8731555-1.0338646-1.5286516-.8451096l-1.9538712.5626314.2645332 3.0190245 1.9621069-.5868353c.8340859-.2494619 1.3772374-1.0516705 1.2991296-1.9187515-.0070431-.078186-.0215243-.1555222-.0432469-.2309595zm3.0541672-8.14029799c-14.6283703-10.82235581-34.79994183-3.99428537-40.84290205 11.85315989l3.73068587-1.1027185c6.16931708-12.26106705 22.04861148-16.83914611 33.54123978-9.61956672z"/></g><path d="m47.2580704 30.0668225c-14.6283703-10.8223558-34.7999418-3.9942854-40.84290205 11.8531599l3.73068585-1.1027184c6.1693171-12.2610671 22.0486115-16.8391462 33.5412398-9.6195668z" fill="#f0901f"/><path d="m5.89530234 41.7217467-.40056733 1.0504733 5.03985069-1.4896821.108279-.2151966c6.027542-11.9792995 21.5440465-16.436917 32.7482681-9.3985125l.2182371.1370949 4.8561757-1.5378781-.8765689-.6485028c-14.615599-10.8129052-35.3799379-4.4553423-41.69367436 12.1022039zm.51986601.1982357c5.98253065-15.6889708 25.81251325-22.5380503 40.40240765-12.172544l.4404944.3193841-3.5709764 1.1308747c-11.3777021-7.1473836-27.0547755-2.7318822-33.3532614 9.2540438l-.1879784.365523z" fill="#000"/><path d="m56.8811019 67.608665c-14.6283703-10.8223558-34.799942-3.9942854-40.8429021 11.8531599l3.7306858-1.1027185c6.1693171-12.261067 22.0486115-16.8391461 33.5412398-9.6195667z" fill="#f0901f" transform="matrix(-1 0 0 -1 72.92 141.812)"/><path d="m15.2184366 78.9495266-.4005673 1.0504734 5.0398506-1.4896822.108279-.2151965c5.9672666-11.8595066 21.2346654-16.3470125 32.4108616-9.6062198l.5556436.3448021 4.8561758-1.537878-.876569-.6485028c-14.6155989-10.8129053-35.379938-4.4553423-41.6936743 12.1022038zm.519866.1982357c5.9825305-15.6889707 25.8125132-22.5380502 40.4024077-12.1725439l.4404944.3193841-3.5709765 1.1308747c-11.377702-7.1473836-27.0547755-2.7318822-33.3532613 9.2540437l-.1879785.365523z" fill="#000" transform="matrix(-1 0 0 -1 72.606 141.5)"/><path d="m25.2353307 17.7619604c-.3157598-4.9195358 1.9561092-9.65679619 5.489036-11.88375733-2.200244 4.80352383-2.5997584 10.20280543-.9789059 16.27050993-4.5822354.0334652-9.0316112 1.2913516-13.2072903 3.9843924-2.8529795-7.5303012-6.5243695-10.6701353-9.94627353-12.7085087 1.96380369.0103991 7.38713353.4518749 11.25923943 6.8828504-.5670692-2.4689328-2.36796-11.79195658-1.8366764-18.9731685 2.7260581 3.0050971 5.7996816 8.48099104 9.2208707 16.4276818z" fill="#f0901f"/><path d="m15.5552732 0-.0956762 1.29322848-.0428658.67396921c-.2420585 4.51444393.3267597 10.16068731 1.1783669 14.94076601l.1585991.8651013-.0586441-.0724421c-2.920326-3.5282788-6.4358426-4.8129936-10.10020993-4.8323978l-2.04227988-.0108146 1.75459724 1.0451854c4.19639697 2.4997264 7.12528357 5.8439531 9.51298237 11.9153288l.4414626 1.1556014.5781184-.3728487c3.996009-2.5771652 8.3238591-3.8621075 12.9098002-3.8955998l.7190426-.0052514-.1855744-.6947028c-1.5658145-5.8616683-1.2299222-11.142146.947214-15.89522156l.7780887-1.69870594-1.5806156.99633241-.2721386.1777673c-2.8661052 1.9387753-4.8446928 5.41290889-5.367795 9.24409929l-.0522294.415482-.4130936-.9120117-.5725918-1.2326096c-.1897449-.4027338-.378372-.7973326-.5658855-1.1837995l-.5592037-1.1350077c-2.223484-4.44247188-4.2871937-7.71438007-6.1981954-9.8209918zm.4591868 1.3342786c1.9688197 2.17034791 4.1189313 5.62947565 6.4503348 10.3773832l.5412344 1.1185487c.0907421.1902378.1817524.382382.2730308.5764327l.550889 1.1871819.5573254 1.2329375.5637618 1.278693c.0944966.2169284.1892615.4357633.2842945.6565048-.3157598-4.9195358 1.9561092-9.65679619 5.489036-11.88375733-2.200244 4.80352383-2.5997584 10.20280543-.9789059 16.27050993-4.5822354.0334652-9.0316112 1.2913516-13.2072903 3.9843924-2.4188305-6.3843858-5.4259418-9.612864-8.37053112-11.6898376l-.4524327-.3107199-.45091955-.2941721c-.0749979-.0477398-.14991081-.0948577-.22472776-.1413875l-.4476624-.2723916.35141495.0064514.40829279.0195588.46029164.0380786.33333998.0383473.35283651.0505873c.06035048.0095403.12145309.0196574.1832777.0303848l.37937077.0719543.39525325.0882034c.06711876.0161438.13483907.0330314.20313079.0506963l.41636645.115584c.2113707.0627229.4273422.1330427.6471011.2118614l.4443269.1692364c2.1696591.8753303 4.6425808 2.6010284 6.6842366 5.9919064l-.1511411-.6873294-.1852068-.9061021-.2095336-1.100307-.1672563-.9378982-.1140341-.6731588-.1146377-.7078906-.1704257-1.1202405-.1649364-1.1811129-.1553386-1.2316208-.096198-.8440223-.0888891-.8587927-.0803627-.87049236-.0706189-.87912093c-.0108903-.14706859-.0213238-.29436875-.0312752-.4418365l-.0537209-.88630574c-.1029822-1.92246847-.1159222-3.85163469.0168987-5.64693767zm-9.51136539 56.4042373-5.38955199 1.6608128-1.11354262-12.0227787 5.17057333-1.5059925c7.75924267-1.9549407 8.75745127 9.2904822 1.33252128 11.8679584zm-.28766993-2.5124609c3.36808554-1.3490156 3.27964833-7.7386255-1.10090062-6.7937324l-1.95893927.5414126.68584973 7.0489916zm51.14934222-21.0480515-3.1601588.9181887c-.2006953-.7844902-.8883615-1.0481242-1.7335637-.7688228-1.0165177.2753786-1.5181537 2.0463573-.0857254 2.1993923 1.4226876.2601235 5.2007955-.3437544 5.6256394 2.3683645.1413314 1.1467121.0421676 3.9618751-3.7274802 5.0364475-3.9680504 1.1311289-5.1132806-.1408234-5.4971719-2.1959523l3.1613301-.9348904c.1774016.8848562.6930041 1.1531755 1.8237526.8700878 1.1307484-.2830878 1.8710702-2.0175799.0314812-2.2905412-.0154284-.004873-.6654161-.0423198-1.9499631-.1123406-1.5863105-.089042-3.1345489-.3690162-3.4174961-1.973045-.2829472-1.6040286.1014969-4.1491044 3.6544316-5.2292921 3.9477051-1.2002086 5.1015716.5609233 5.2749243 2.1124036zm4.4842521 14.6983819-3.1601588.9181885c-.2006953-.7844902-.8883616-1.0481241-1.7335638-.7688228-1.0165177.2753787-1.5181537 2.0463573-.0857253 2.1993924 1.4226875.2601236 5.2007954-.3437545 5.6256393 2.3683644.1413314 1.1467121.0421678 3.9618753-3.7274802 5.0364477-3.9680504 1.1311288-5.1132805-.1408234-5.4971719-2.1959525l3.1613301-.9348903c.1774018.8848561.6930043 1.1531755 1.8237526.8700877 1.1307484-.2830877 1.8710702-2.0175799.0314812-2.2905412-.0154283-.0048729-.665416-.0423198-1.949963-.1123406-1.5863105-.0890418-3.134549-.3690162-3.4174962-1.9730449s.101497-4.1491044 3.6544316-5.2292922c3.9477052-1.2002085 5.1015717.5609234 5.2749244 2.1124038z" fill="#000"/></g></svg>