<svg xmlns="http://www.w3.org/2000/svg" width="1283" height="156" viewBox="0 0 1283 156"><defs><linearGradient id="a" x1="0%" x2="42.056%" y1="50%" y2="50%"><stop offset="0%" stop-color="#00F3B1"/><stop offset="100%" stop-color="#FFF"/></linearGradient></defs><g fill="none" fill-rule="evenodd"><path fill="url(#a)" d="M238.279888,40.9151786 C247.573963,40.9151786 256.341958,44.7455357 261.778115,50.3169643 C267.214272,55.8883929 271.07219,64.59375 271.07219,75.2142857 C271.07219,87.9241071 265.811393,100.285714 258.621637,107.946429 C252.30868,114.5625 244.417485,118.566964 234.071251,118.566964 C227.933654,118.566964 222.146778,117.348214 217.41206,114.5625 C214.255582,112.647321 211.449824,110.035714 209.345505,107.598214 L203.383268,156 L186.197998,156 L200.22679,42.8303571 L217.41206,42.8303571 L216.359901,50.8392857 C218.814939,47.53125 221.620698,45.4419643 225.127896,43.875 C229.511893,41.7857143 233.720531,40.9151786 238.279888,40.9151786 Z M125.172753,0 L143.059462,39.3482143 L171.292406,0 L191.283435,0 L150.775298,55.5401786 L178.482162,116.129464 L159.543293,116.129464 L139.376904,71.7321429 L107.286043,116.129464 L87.295014,116.129464 L87.352,116.051 L64.1560612,116.051765 L72.7102027,102.164706 L97.521,102.164 L108.221,87.551 L0,87.5513663 L8.5541415,73.6643075 L118.39,73.664 L131.661069,55.5401786 L106.233883,0 L125.172753,0 Z M234.246611,56.2366071 C228.810454,56.2366071 224.075736,57.28125 219.516379,61.6339286 C214.430942,66.5089286 211.449824,74.6919643 211.449824,82.875 C211.449824,87.0535714 212.151263,92.9732143 216.359901,97.3258929 C219.516379,100.633929 224.426456,103.071429 230.388693,103.071429 C236.526289,103.071429 241.085647,100.982143 244.943565,97.1517857 C249.678282,92.4508929 253.36084,84.6160714 253.36084,76.6071429 C253.36084,70.5133929 251.256521,65.2901786 248.100043,61.8080357 C244.417485,57.8035714 239.858128,56.2366071 234.246611,56.2366071 Z M111.203839,43.9386977 L102.649698,57.8257566 L55.6019197,57.8257566 L64.1560612,43.9386977 L111.203839,43.9386977 Z M280.122472,116.129464 L297.307742,116.129464 L302.042459,78.1741071 C302.568539,74.5178571 303.971418,66.1607143 308.355416,61.6339286 C310.810454,59.1964286 314.493012,57.28125 319.753809,57.28125 C323.261007,57.28125 326.242125,58.1517857 328.872524,59.8928571 L337.289799,44.3973214 C332.379722,41.4375 328.171084,40.9151786 324.663886,40.9151786 C321.156688,40.9151786 317.298771,41.2633929 313.440853,43.1785714 C309.232215,45.2678571 306.426457,48.4017857 305.549657,49.4464286 L306.426457,42.8303571 L289.241186,42.8303571 L280.122472,116.129464 Z M394.17484,91.40625 C392.421241,94.5401786 389.440123,97.8482143 386.459005,99.7633929 C383.127166,101.852679 378.743169,103.071429 374.709891,103.071429 C368.923014,103.071429 364.889737,100.808036 362.610058,98.3705357 C359.10286,94.7142857 357.173901,88.7946429 357.173901,83.5714286 L409.957231,83.5714286 C410.658671,80.2633929 410.834031,77.3035714 410.834031,75.0401786 C410.834031,64.4196429 407.326833,55.1919643 401.715316,49.4464286 C394.87628,42.3080357 386.283645,40.9151786 379.444608,40.9151786 C368.396935,40.9151786 359.62894,44.7455357 352.439184,51.7098214 C344.372628,59.5446429 339.637911,70.5133929 339.637911,83.0491071 C339.637911,94.5401786 343.846549,103.419643 349.633425,109.165179 C356.297102,115.955357 364.188297,118.392857 373.307012,118.392857 C383.127166,118.392857 389.790843,115.607143 393.99948,113.169643 C398.909557,110.209821 403.994995,105.508929 407.677552,99.4151786 L394.17484,91.40625 Z M359.8043,69.6428571 C361.207179,66.1607143 363.662217,62.3303571 366.643336,59.8928571 C370.325894,56.9330357 374.709891,55.5401786 379.093889,55.5401786 C383.302526,55.5401786 387.335804,56.9330357 389.790843,59.5446429 C391.895161,61.8080357 393.64876,65.9866071 394.17484,69.6428571 L359.8043,69.6428571 Z M475.892554,53.7991071 C473.963595,50.3169643 470.982477,46.6607143 467.475279,44.3973214 C463.442001,41.7857143 459.408723,40.9151786 454.674006,40.9151786 C448.536409,40.9151786 441.872733,42.1339286 436.436576,47.53125 C432.578658,51.3616071 429.7729,56.9330357 429.7729,63.7232143 C429.7729,69.2946429 431.701859,73.4732143 434.858337,76.4330357 C437.138016,78.6964286 440.995934,80.7857143 443.275612,82.0044643 L448.01033,84.4419643 C450.465368,85.6607143 453.095767,86.7053571 455.024726,88.6205357 C456.778325,90.3616071 457.479764,92.4508929 457.479764,94.7142857 C457.479764,97.5 456.602965,99.5892857 454.674006,101.15625 C453.095767,102.549107 450.816088,103.419643 447.83497,103.419643 C444.853851,103.419643 442.398813,102.375 440.645214,100.808036 C438.891615,99.2410714 437.313376,96.4553571 436.611936,93.6696429 L421.706345,100.285714 C424.336743,108.816964 430.12362,113.169643 430.825059,113.691964 C436.261216,117.696429 442.924893,118.392857 447.30889,118.392857 C456.602965,118.392857 463.266641,115.78125 468.001358,111.428571 C471.683916,107.946429 475.366474,102.375 475.366474,93.6696429 C475.366474,85.6607143 472.034636,80.9598214 469.754957,78.5223214 C469.053518,77.8258929 466.423119,75.2142857 460.460883,72.2544643 L455.550805,69.8169643 C450.991448,67.5535714 449.588569,67.03125 448.361049,65.9866071 C446.95817,64.9419643 446.256731,63.5491071 446.256731,61.8080357 C446.256731,60.0669643 447.13353,58.6741071 447.83497,57.9776786 C449.588569,56.2366071 452.043607,55.8883929 453.797206,55.8883929 C455.726165,55.8883929 457.304404,56.2366071 459.058003,57.6294643 C460.460883,58.6741071 461.688402,60.0669643 462.565201,62.15625 L475.892554,53.7991071 Z M539.723558,53.7991071 C537.794599,50.3169643 534.81348,46.6607143 531.306282,44.3973214 C527.273005,41.7857143 523.239727,40.9151786 518.50501,40.9151786 C512.367413,40.9151786 505.703737,42.1339286 500.26758,47.53125 C496.409662,51.3616071 493.603904,56.9330357 493.603904,63.7232143 C493.603904,69.2946429 495.532863,73.4732143 498.689341,76.4330357 C500.96902,78.6964286 504.826937,80.7857143 507.106616,82.0044643 L511.841333,84.4419643 C514.296372,85.6607143 516.926771,86.7053571 518.85573,88.6205357 C520.609329,90.3616071 521.310768,92.4508929 521.310768,94.7142857 C521.310768,97.5 520.433969,99.5892857 518.50501,101.15625 C516.926771,102.549107 514.647092,103.419643 511.665974,103.419643 C508.684855,103.419643 506.229817,102.375 504.476218,100.808036 C502.722619,99.2410714 501.14438,96.4553571 500.44294,93.6696429 L485.537348,100.285714 C488.167747,108.816964 493.954624,113.169643 494.656063,113.691964 C500.09222,117.696429 506.755896,118.392857 511.139894,118.392857 C520.433969,118.392857 527.097645,115.78125 531.832362,111.428571 C535.51492,107.946429 539.197478,102.375 539.197478,93.6696429 C539.197478,85.6607143 535.86564,80.9598214 533.585961,78.5223214 C532.884522,77.8258929 530.254123,75.2142857 524.291886,72.2544643 L519.381809,69.8169643 C514.822452,67.5535714 513.419573,67.03125 512.192053,65.9866071 C510.789174,64.9419643 510.087734,63.5491071 510.087734,61.8080357 C510.087734,60.0669643 510.964534,58.6741071 511.665974,57.9776786 C513.419573,56.2366071 515.874611,55.8883929 517.62821,55.8883929 C519.557169,55.8883929 521.135408,56.2366071 522.889007,57.6294643 C524.291886,58.6741071 525.519406,60.0669643 526.396205,62.15625 L539.723558,53.7991071 Z" transform="translate(743.276)"/><path fill="#00F3B1" fill-rule="nonzero" d="M201.620059,23.9608305 L216.742622,23.9608305 C227.036132,23.9608305 233.644311,25.2117896 239.108767,28.8395709 C248.385633,34.9692704 249.148115,44.8518471 249.148115,48.4796284 C249.148115,60.4888356 241.650374,69.2455492 230.340221,71.7474673 L256.772937,107.399801 L241.142053,107.399801 L216.869703,73.2486182 L214.582256,73.2486182 L214.582256,107.399801 L201.620059,107.399801 L201.620059,23.9608305 Z M214.582256,35.7198458 L214.582256,62.2401783 L218.648828,62.2401783 C222.207078,62.2401783 236.69424,61.8648906 236.69424,48.6047244 C236.69424,36.845709 225.384087,35.7198458 219.030069,35.7198458 L214.582256,35.7198458 Z M269.480974,23.9608305 L282.443171,23.9608305 L282.443171,107.399801 L269.480974,107.399801 L269.480974,23.9608305 Z M346.618755,75.7505364 L346.618755,63.991521 L381.565856,63.991521 L381.565856,64.6170006 C381.565856,78.8779341 377.245123,90.5118535 368.9849,98.3928957 C360.216354,106.774322 349.795765,109.026048 340.137657,109.026048 C327.810861,109.026048 319.042316,105.523362 311.290414,97.6423203 C303.03019,89.2608944 298.709458,78.1273586 298.709458,66.1181515 C298.709458,53.108177 304.046833,41.8495453 311.036253,34.9692704 C318.279834,27.7137077 329.844147,22.4596796 342.933425,22.4596796 C350.558247,22.4596796 358.437229,24.0859264 365.045408,27.7137077 C372.034828,31.5916809 376.355561,36.4704213 378.770088,40.2232985 L368.476578,47.3537653 C365.934971,43.8510799 362.12256,40.0982026 358.055988,37.8464763 C353.354015,35.0943663 348.2708,34.2186949 343.060505,34.2186949 C332.004513,34.2186949 324.888013,38.7221476 320.694361,42.8503126 C315.102825,48.3545325 311.671655,57.236342 311.671655,66.2432474 C311.671655,74.6246732 314.848664,83.006099 320.4402,88.8856067 C326.285897,95.0153062 333.529478,97.2670325 341.662621,97.2670325 C349.033282,97.2670325 355.13314,95.1404021 360.597596,89.886374 C365.299569,85.3829213 367.205775,80.5041809 367.714096,75.7505364 L346.618755,75.7505364 Z M397.832142,23.9608305 L410.79434,23.9608305 L410.79434,107.399801 L397.832142,107.399801 L397.832142,23.9608305 Z M444.089395,107.399801 L431.127198,107.399801 L431.127198,18.3315146 L492.634095,81.75514 L492.634095,23.9608305 L505.596292,23.9608305 L505.596292,112.528733 L444.089395,49.105108 L444.089395,107.399801 Z M584.640279,107.399801 L575.744653,87.2593599 L539.526749,87.2593599 L530.249883,107.399801 L516.271043,107.399801 L558.461724,19.0820901 L598.619119,107.399801 L584.640279,107.399801 Z M544.864125,75.2501527 L570.534358,75.2501527 L557.953402,46.9784776 L544.864125,75.2501527 Z M609.29387,23.9608305 L622.256067,23.9608305 L622.256067,95.3905939 L647.163819,95.3905939 L647.163819,107.399801 L609.29387,107.399801 L609.29387,23.9608305 Z M703.841661,36.4704213 L693.421071,42.4750249 C692.658589,40.5985862 691.514866,38.8472435 689.60866,37.2209967 C686.939973,35.0943663 684.144205,34.2186949 680.458874,34.2186949 C672.579892,34.2186949 668.51332,38.8472435 668.51332,44.2263676 C668.51332,46.7282857 669.402882,51.1066425 677.663106,54.3591361 L686.177491,57.7367256 C701.808375,63.991521 706.129108,72.7482346 706.129108,82.2555236 C706.129108,98.1427039 694.691875,109.026048 678.806829,109.026048 C669.021641,109.026048 663.175944,105.398267 658.855212,100.644622 C654.280319,95.6407857 652.247033,90.1365658 651.738712,84.382154 L664.573829,81.630044 C664.573829,85.758209 666.098793,89.6361822 668.132079,92.2631962 C670.546606,95.265498 674.104856,97.2670325 679.18807,97.2670325 C687.067053,97.2670325 693.166911,91.6377167 693.166911,83.2562908 C693.166911,74.7497691 686.558732,71.2470837 680.967196,68.9953573 L672.834052,65.6177678 C665.844632,62.7405619 655.551123,56.9861502 655.551123,44.4765594 C655.551123,33.2179277 664.446748,22.4596796 680.331794,22.4596796 C689.48158,22.4596796 694.691875,25.8372691 697.360563,28.0889955 C699.648009,30.09053 702.062536,32.9677359 703.841661,36.4704213 Z M116.994622,0 C154.174706,0 184.189878,27.830861 184.189878,65.7647059 C184.189878,103.507928 154.368352,131.529412 116.994622,131.529412 C90.3713112,131.529412 67.580349,117.309977 56.6716966,95.486137 L73.6783798,95.4853954 C83.1228784,109.239373 98.9785716,118.185848 116.994622,118.185848 C146.041562,118.185848 169.472761,94.9299233 169.472761,65.7647059 C169.472761,36.5994885 146.041562,13.3435635 116.994622,13.3435635 C87.9686428,13.3435635 64.5503036,36.5659353 64.516519,65.7015739 L49.7993785,65.701 L49.8083476,64.6297392 C50.4003858,27.2770269 80.1863386,0 116.994622,0 Z M121.028919,73.6437624 L121.028919,87.5433078 L0,87.5433078 L0,73.6437624 L121.028919,73.6437624 Z"/></g></svg>