<?xml version="1.0" encoding="UTF-8"?>
<svg width="798px" height="134px" viewBox="0 0 798 134" version="1.1" xmlns="http://www.w3.org/2000/svg" xmlns:xlink="http://www.w3.org/1999/xlink">
    <!-- Generator: Sketch 59.1 (86144) - https://sketch.com -->
    <title>Dutch_Logo</title>
    <desc>Created with Sketch.</desc>
    <g id="Dutch_Logo" stroke="none" stroke-width="1" fill="none" fill-rule="evenodd">
        <path d="M229.71875,73.015625 L255.859375,109 L240.273438,109 L216.15625,74.4375 L213.859375,74.4375 L213.859375,109 L201.117188,109 L201.117188,24.5625 L216.046875,24.5625 C227.203181,24.5625 235.260392,26.6588332 240.21875,30.8515625 C245.687527,35.5182525 248.421875,41.6796492 248.421875,49.3359375 C248.421875,55.3151341 246.70835,60.4557077 243.28125,64.7578125 C239.85415,69.0599173 235.333361,71.812494 229.71875,73.015625 Z M213.859375,63.3359375 L217.90625,63.3359375 C229.974019,63.3359375 236.007812,58.7240045 236.007812,49.5 C236.007812,40.8593318 230.13808,36.5390625 218.398438,36.5390625 L213.859375,36.5390625 L213.859375,63.3359375 Z M281.289062,24.5625 L281.289062,109 L268.546875,109 L268.546875,24.5625 L281.289062,24.5625 Z M345,65.03125 L379.890625,65.03125 L379.890625,67.8203125 C379.890625,74.1640942 379.143237,79.7786214 377.648438,84.6640625 C376.190097,89.1849184 373.729184,93.4140428 370.265625,97.3515625 C362.427044,106.174523 352.45579,110.585938 340.351562,110.585938 C328.539003,110.585938 318.421917,106.320355 310,97.7890625 C301.578083,89.2213113 297.367188,78.9401641 297.367188,66.9453125 C297.367188,54.6952512 301.650999,44.3047302 310.21875,35.7734375 C318.786501,27.2056863 329.21348,22.921875 341.5,22.921875 C348.098991,22.921875 354.260388,24.2708198 359.984375,26.96875 C365.453152,29.6666802 370.830703,34.0416364 376.117188,40.09375 L367.039062,48.7890625 C360.111945,39.565058 351.671925,34.953125 341.71875,34.953125 C332.968706,34.953125 325.600701,37.9093637 319.614524,43.8219279 L319.242188,44.1953125 C313.190074,50.2474261 310.164062,57.8306836 310.164062,66.9453125 C310.164062,76.3516095 313.536425,84.0989279 320.28125,90.1875 C326.588573,95.8385699 333.424442,98.6640625 340.789062,98.6640625 C347.059927,98.6640625 352.692683,96.5495003 357.6875,92.3203125 C362.682317,88.0546662 365.471351,82.9505505 366.054688,77.0078125 L345,77.0078125 L345,65.03125 Z M408.65625,24.5625 L408.65625,109 L395.914062,109 L395.914062,24.5625 L408.65625,24.5625 Z M428.945312,109 L428.945312,18.8203125 L490.523438,83.2421875 L490.523438,24.5625 L503.265625,24.5625 L503.265625,114.140625 L441.6875,49.8828125 L441.6875,109 L428.945312,109 Z M573.757812,88.4921875 L537.609375,88.4921875 L528.203125,109 L514.476562,109 L556.257812,19.2578125 L596.5625,109 L582.617188,109 L573.757812,88.4921875 Z M568.5625,76.515625 L556.039062,47.8046875 L542.914062,76.515625 L568.5625,76.515625 Z M619.859375,24.5625 L619.859375,97.0234375 L644.6875,97.0234375 L644.6875,109 L607.117188,109 L607.117188,24.5625 L619.859375,24.5625 Z M704.84375,37.140625 L694.507812,43.265625 C692.652803,40.0456089 690.88182,37.9008284 689.194813,36.8312255 L688.984375,36.703125 C687.161449,35.5364525 684.80991,34.953125 681.929688,34.953125 C678.393211,34.953125 675.458345,35.9557191 673.125,37.9609375 C670.791655,39.9296973 669.625,42.4088392 669.625,45.3984375 C669.625,49.5182498 672.687469,52.8359249 678.8125,55.3515625 L687.234375,58.796875 C694.088576,61.5677222 699.101547,64.9491988 702.273438,68.9414062 C705.445328,72.9336137 707.03125,77.828096 707.03125,83.625 C707.03125,91.3906638 704.442734,97.8072663 699.265625,102.875 C694.052057,107.979192 687.580768,110.53125 679.851562,110.53125 C672.523401,110.53125 666.471378,108.362001 661.695312,104.023438 C656.992164,99.6848741 654.057298,93.5781644 652.890625,85.703125 L665.796875,82.859375 C666.360767,87.6524545 667.333466,91.0146108 668.714999,92.9459367 L668.859375,93.140625 C671.484388,96.7864766 675.312475,98.609375 680.34375,98.609375 C684.317728,98.609375 687.617174,97.2786591 690.242188,94.6171875 C692.867201,91.9557159 694.179688,88.5833538 694.179688,84.5 C694.179688,82.8593668 693.951825,81.3554756 693.496094,79.9882812 C693.040362,78.6210869 692.329432,77.363287 691.363281,76.2148438 C690.397131,75.0664005 689.148445,73.9908904 687.617188,72.9882812 C686.08593,71.9856721 684.263031,71.0286504 682.148438,70.1171875 L674,66.7265625 C662.442651,61.8411214 656.664062,54.6953595 656.664062,45.2890625 C656.664062,38.9452808 659.088517,33.6406463 663.9375,29.375 C668.786483,25.0728952 674.820276,22.921875 682.039062,22.921875 C691.773486,22.921875 699.374973,27.6614109 704.84375,37.140625 Z" id="RIGINALS" fill="#00F3B1" fill-rule="nonzero"></path>
        <path d="M116.621,0.146 C153.677,0.146 183.592,28.324 183.592,66.731 C183.592,104.945 153.87,133.316 116.621,133.316 C89.7590141,133.316 66.8114617,118.561597 56.1022195,96.0014187 L72.9052491,96.0011065 C82.2459694,110.390732 98.3144569,119.806 116.621,119.806 C145.571,119.806 168.924,96.26 168.924,66.731 C168.924,37.202 145.571,13.656 116.621,13.656 C87.671,13.656 64.318,37.202 64.318,66.731 C64.318,67.1554794 64.3228257,67.5787224 64.3324243,68.000677 L49.6609719,68.0007949 C49.6536674,67.5787614 49.65,67.155488 49.65,66.731 C49.65,28.324 79.565,0.146 116.621,0.146 Z" id="Combined-Shape" fill="#00F3B1" fill-rule="nonzero"></path>
        <rect id="Rectangle" fill="#00F3B1" x="0" y="75" width="121" height="14"></rect>
        <rect id="Rectangle" fill="#00F3B1" x="717" y="75" width="81" height="14"></rect>
    </g>
</svg>