<?xml version="1.0" encoding="UTF-8"?>
<svg width="53px" height="62px" viewBox="0 0 53 62" version="1.1" xmlns="http://www.w3.org/2000/svg" xmlns:xlink="http://www.w3.org/1999/xlink">
    <title>Reality Check</title>
    <g id="Reality-Check" stroke="none" stroke-width="1" fill="none" fill-rule="evenodd">
        <g id="Group" transform="translate(-0.000000, 1.740560)">
            <path d="M26.0426742,0 C27.5691327,0 28.8065717,1.23743907 28.8065717,2.76389751 L28.8067611,4.55896657 C31.3192824,4.98455423 33.6587925,5.91872987 35.7156909,7.25189304 C34.3273448,9.02034184 33.5,11.2497691 33.5,13.6724331 C33.5,19.4233705 38.1620559,24.0854265 43.9129934,24.0854265 L44.133,24.082 L44.1332423,42.1062184 L52.0853484,53.4353519 L32.6073223,53.4353519 C32.6073223,57.0609069 29.6682292,60 26.0426742,60 C22.5077581,60 19.6254098,57.2060247 19.4835017,53.7059462 L19.4780261,53.4353519 L0,53.4353519 L7.28127548,42.1062184 L7.28127548,22.7253795 C7.28127548,13.3723046 14.2500103,5.64686483 23.2784989,4.4580415 L23.2787767,2.76389751 C23.2787767,1.23743907 24.5162158,0 26.0426742,0 Z M31.2094761,53.2839286 L20.8758723,53.2839286 L20.8804051,53.5023366 C20.994856,56.2545821 23.2622962,58.4507305 26.0426742,58.4507305 C28.8962201,58.4507305 31.2094761,56.1374745 31.2094761,53.2839286 Z" id="Shape" fill="#FFFFFF"></path>
            <path d="M43.9129934,5.25943968 C48.5593613,5.25943968 52.3259868,9.02606513 52.3259868,13.6724331 C52.3259868,18.318801 48.5593613,22.0854265 43.9129934,22.0854265 C39.2666254,22.0854265 35.5,18.318801 35.5,13.6724331 C35.5,9.02606513 39.2666254,5.25943968 43.9129934,5.25943968 Z M44.8907324,9.03836282 L43.4551781,9.03836282 C43.2536968,9.6008315 42.8822156,10.0929916 42.3407345,10.5148431 C41.8766079,10.8764301 41.4417784,11.1385614 41.0362458,11.301237 L40.835921,11.3742868 L40.835921,12.9798411 C41.6035438,12.7264153 42.282789,12.3524747 42.8736566,11.8580191 L43.1214746,11.6387311 L43.1214746,18.3065033 L44.8907324,18.3065033 L44.8907324,9.03836282 Z" id="Combined-Shape" fill="#26FEBB"></path>
        </g>
    </g>
</svg>