<?xml version="1.0" encoding="UTF-8"?>
<svg width="50px" height="62px" viewBox="0 0 50 62" version="1.1" xmlns="http://www.w3.org/2000/svg" xmlns:xlink="http://www.w3.org/1999/xlink">
    <title>Self Exclusion</title>
    <g id="Self-Exclusion" stroke="none" stroke-width="1" fill="none" fill-rule="evenodd">
        <g id="Group-3" transform="translate(-0.000000, 2.000000)">
            <path d="M24.9040377,0 L24.4283973,0.281411835 C20.5206685,2.59341333 16.554157,4.72780521 12.5288206,6.68463543 C9.17560798,8.31472724 5.86424558,9.7814145 2.59477014,11.0847605 L0.0525702697,12.0700296 L0.036704265,12.6963477 C-0.575750097,36.8732754 6.43600864,52.3242221 24.1121195,59.5275558 L25.3136711,60 L25.6701335,59.8384153 C43.0927782,51.940715 51.0083793,36.0928631 49.6611545,12.6663787 L49.6265872,12.065299 L49.0648461,11.8486458 C45.0511592,10.3006412 41.0965768,8.57546963 37.2010368,6.67308955 C33.9536958,5.08725634 30.6760213,3.34343196 27.3680494,1.44157203 L24.9040377,0 Z M23.0014635,3.27013708 L24.9001894,2.16617735 L24.4282628,1.88887311 C28.4546413,4.27198346 32.4389997,6.42620928 36.3814008,8.35147384 L38.7548171,9.48549472 C41.1354471,10.5980055 43.5377169,11.6459852 45.9616129,12.6294247 L47.8248062,13.3655113 L47.8534947,13.8842373 C48.8358092,35.6058914 41.5345205,50.2163492 25.7109125,57.7597398 L25.254843,57.9698382 L24.8113883,57.7954811 C8.51382471,51.1485087 1.74300785,37.1447619 1.86935428,14.9528911 L1.88871874,13.3630987 L1.30252472,13.5928286 C5.25838514,12.0871952 9.27267056,10.3443783 13.3454443,8.36448743 C16.6024784,6.78115077 19.8211587,5.0830258 23.0014635,3.27013708 Z" id="Line-5" fill="#FFFFFF" fill-rule="nonzero"></path>
            <path d="M24.9039468,5.28779261 C28.3277835,7.31427388 31.7150169,9.14565167 35.065647,10.781926 C38.4162772,12.4182003 41.8178408,13.9021195 45.2703379,15.2336836 C46.3895508,34.6953391 39.981241,48.0981377 25.2293054,54.7852031 C8.51882781,48.3407034 3.98158548,33.5096093 4.44455458,15.2336836 C7.80369606,13.9551663 11.2135948,12.4747462 14.6742507,10.7924232 C18.1349066,9.11010014 21.5448054,7.27522329 24.9039468,5.28779261 Z M31.9480457,17.81597 L24.902022,24.8594765 L17.8599801,17.8158378 L12.7941416,22.8816764 L19.836309,29.9251895 L12.7941416,36.9698742 L17.8599801,42.0357128 L24.9027291,34.9916096 L31.9480457,42.0355805 L37.0138843,36.969742 L29.9684421,29.9258966 L37.0138843,22.8818086 L31.9480457,17.81597 Z M31.9479629,20.2402532 L34.5894689,22.8817592 L27.5448794,29.9257753 L34.5894689,36.9697913 L31.9479629,39.6112973 L24.9031785,32.5674761 L17.8599308,39.6112973 L15.2184248,36.9697913 L22.2614777,29.9257753 L15.2184248,22.8817592 L17.8599308,20.2402532 L24.9031785,27.2840744 L31.9479629,20.2402532 Z" id="Combined-Shape" fill="#FFFFFF"></path>
            <polygon id="Path" fill="#26FEBB" transform="translate(24.903947, 29.925775) rotate(-45.000000) translate(-24.903947, -29.925775) " points="26.7717736 18.0962054 26.7713682 28.0572674 36.7335166 28.0579485 36.7335166 31.7936021 26.7713682 31.7931966 26.7717736 41.7553451 23.03612 41.7553451 23.035439 31.7931966 13.074377 31.7936021 13.074377 28.0579485 23.035439 28.0572674 23.03612 18.0962054"></polygon>
        </g>
    </g>
</svg>