<?xml version="1.0" encoding="UTF-8"?>
<svg width="72px" height="62px" viewBox="0 0 72 62" version="1.1" xmlns="http://www.w3.org/2000/svg" xmlns:xlink="http://www.w3.org/1999/xlink">
    <title>Take a Break </title>
    <g id="Take-a-Break-" stroke="none" stroke-width="1" fill="none" fill-rule="evenodd">
        <g id="Group" transform="translate(0.000000, 0.000000)">
            <path d="M64.5921033,14.6990932 C64.5921033,16.6003037 64.5463204,18.437246 64.4547544,20.20992 C70.0242836,21.6651682 72.4641993,26.7690163 71.1414644,32.8124607 C69.7522303,39.1597332 64.6909481,44.4567787 58.4517359,45.1626477 L57.8258351,45.2334586 C52.8306391,52.9984271 45.0696662,56.8809114 34.5429165,56.8809114 C30.8331707,56.8809114 27.466917,56.3987311 24.4441555,55.4343706 C26.2353097,52.9458864 27.2896058,49.8939439 27.2896058,46.5957574 C27.2896058,38.2315137 20.5090466,31.4509545 12.1448029,31.4509545 C10.0548928,31.4509545 8.06385408,31.8742731 6.25275389,32.6398432 C5.0800712,27.4836758 4.49372974,21.5029255 4.49372974,14.6990932 L64.5921033,14.6990932 Z M64.533316,23.0908859 C63.8967347,30.7220966 62.3396751,37.0611775 59.8621371,42.1081286 C64.212908,40.9535283 67.7129191,36.9351231 68.7479219,32.206298 C69.7184242,27.7721692 68.2377644,24.3084266 64.533316,23.0908859 Z" id="Combined-Shape" fill="#FFFFFF"></path>
            <path d="M17.5329973,0 C19.9768518,1.69432334 21.0697143,3.12318905 20.8115849,4.28659714 C20.5433719,5.49545234 19.0027151,6.29504271 18.5508961,7.26270795 C17.6532873,9.18512554 18.6479351,10.7680233 17.9137802,10.8215496 C17.1141656,10.8798485 16.0974002,9.01208769 16.4749705,7.32328192 C16.7193231,6.23033549 18.5508961,5.61851097 18.9221178,4.17385935 C19.2096105,3.05504852 18.7465703,1.66376207 17.5329973,0 Z" id="Path" fill="#26FEBB"></path>
            <path d="M32.9808514,0 C35.4247058,1.69432334 36.5175683,3.12318905 36.2594389,4.28659714 C35.9912259,5.49545234 34.4505692,6.29504271 33.9987501,7.26270795 C33.1011413,9.18512554 34.0957891,10.7680233 33.3616342,10.8215496 C32.5620197,10.8798485 31.5452542,9.01208769 31.9228245,7.32328192 C32.1671771,6.23033549 33.9987501,5.61851097 34.3699718,4.17385935 C34.6574645,3.05504852 34.1944244,1.66376207 32.9808514,0 Z" id="Path" fill="#26FEBB"></path>
            <path d="M48.4287054,0 C50.8725599,1.69432334 51.9654224,3.12318905 51.7072929,4.28659714 C51.43908,5.49545234 49.8984232,6.29504271 49.4466042,7.26270795 C48.5489954,9.18512554 49.5436432,10.7680233 48.8094883,10.8215496 C48.0098737,10.8798485 46.9931083,9.01208769 47.3706785,7.32328192 C47.6150311,6.23033549 49.4466042,5.61851097 49.8178258,4.17385935 C50.1053185,3.05504852 49.6422784,1.66376207 48.4287054,0 Z" id="Path" fill="#26FEBB"></path>
            <path d="M12.1448029,34.4509545 C18.8521923,34.4509545 24.2896058,39.888368 24.2896058,46.5957574 C24.2896058,53.3031468 18.8521923,58.7405603 12.1448029,58.7405603 C5.43741347,58.7405603 0,53.3031468 0,46.5957574 C0,39.888368 5.43741347,34.4509545 12.1448029,34.4509545 Z M12.0718283,36.906737 C11.5589924,36.906737 11.1363211,37.2927772 11.078556,37.7901159 L11.0718283,37.906737 L11.0711995,44.9228584 C10.062877,45.2918511 9.34322954,46.2598987 9.34322954,47.396029 C9.34322954,48.8500655 10.5219591,50.0287951 11.9759956,50.0287951 C12.5042699,50.0287951 12.9962042,49.8732048 13.4084729,49.6053497 L13.5592547,49.4997262 L18.7704569,52.7304276 C18.8052661,52.7520109 18.841732,52.7708002 18.8795116,52.7866187 C19.2742257,52.9518877 19.7281818,52.7658857 19.8934508,52.3711715 C20.0800515,51.9255105 19.9422674,51.4156624 19.5700866,51.1229206 L19.4722102,51.054421 L14.5401945,47.9955653 C14.5850466,47.8029776 14.6087617,47.6022728 14.6087617,47.396029 C14.6087617,46.3956046 14.0507645,45.5255075 13.229021,45.0799884 L13.0719251,45.001501 L13.0718283,37.906737 C13.0718283,37.3544522 12.624113,36.906737 12.0718283,36.906737 Z" id="Shape" fill="#26FEBB"></path>
        </g>
    </g>
</svg>