<?xml version="1.0" encoding="UTF-8"?>
<svg width="79px" height="62px" viewBox="0 0 79 62" version="1.1" xmlns="http://www.w3.org/2000/svg" xmlns:xlink="http://www.w3.org/1999/xlink">
    <title>Desposit Limit</title>
    <g id="Desposit-Limit" stroke="none" stroke-width="1" fill="none" fill-rule="evenodd">
        <g id="Group" transform="translate(0.000000, 8.766539)">
            <path d="M47.0095799,30.4855735 C47.0095799,36.5445546 50.1033914,41.8809373 54.797443,45.0011501 L4.22776045,45 C1.89322905,45 0.00071741543,43.1074884 0.00071741543,40.772957 L0,18.7280436 L51.5763499,18.7284466 C48.7401093,21.8267566 47.0095799,25.9540717 47.0095799,30.4855735 Z M24.6745562,37.2334789 L4.50740814,37.2334789 L4.50740814,40.8522738 L24.6745562,40.8522738 L24.6745562,37.2334789 Z M67.1786331,0 C69.5131645,0 71.4056761,1.89251163 71.4056761,4.22704304 L71.4049363,7.29630761 L0,7.29630761 L0.00071741543,4.22704304 C0.00071741543,1.89251163 1.89322905,0 4.22776045,0 L67.1786331,0 Z" id="Shape" fill="#FFFFFF"></path>
            <path d="M64.4268917,15.9711471 C72.442988,15.9711471 78.9413181,22.4694772 78.9413181,30.4855735 C78.9413181,38.5016699 72.442988,45 64.4268917,45 C56.4107953,45 49.9124652,38.5016699 49.9124652,30.4855735 C49.9124652,22.4694772 56.4107953,15.9711471 64.4268917,15.9711471 Z M72.3752485,28.9121197 L56.4785348,28.9121197 L56.4785348,32.0590274 L72.3752485,32.0590274 L72.3752485,28.9121197 Z" id="Combined-Shape" fill="#26FEBB"></path>
        </g>
    </g>
</svg>