<svg height="44" viewBox="0 0 42 44" width="42" xmlns="http://www.w3.org/2000/svg"><g fill="#fff" fill-rule="evenodd" transform="translate(-.355)"><path d="m21.3548387.5c-11.52642779 0-20.8548387 9.5676009-20.8548387 21.3511166s9.32841091 21.3511167 20.8548387 21.3511167c11.5264278 0 20.8548387-9.567601 20.8548387-21.3511167s-9.3284109-21.3511166-20.8548387-21.3511166zm0 3c9.8523367 0 17.8548387 8.2076944 17.8548387 18.3511166 0 10.1434223-8.002502 18.3511167-17.8548387 18.3511167s-17.8548387-8.2076944-17.8548387-18.3511167c0-10.1434222 8.002502-18.3511166 17.8548387-18.3511166z" fill-rule="nonzero"/><path d="m22.645 14.738 6.617 12.903h-13.234z" transform="matrix(0 1 -1 0 43.835 -1.455)"/></g></svg>