<svg height="30" viewBox="0 0 113 30" width="113" xmlns="http://www.w3.org/2000/svg"><g fill="none" fill-rule="evenodd"><path d="m0 0h113v30h-113z" fill="#000" opacity="0"/><path d="m4.25 6.55v13.85h5.125v2.825h-8.375v-16.675zm9.2867647 5.85v10.825h-3.025v-10.825zm-1.5-6.4c1 0 1.825.825 1.825 1.825s-.825 1.825-1.825 1.825-1.825-.825-1.825-1.85c0-.975.825-1.8 1.825-1.8zm5.7367647 6.4 2.85 6.125 2.825-6.125h3.4l-5.575 11.05h-1.375l-5.525-11.05zm20.0867647 5.9h-8.125c.075 1.875 1 2.9 2.65 2.9 1.15 0 1.875-.425 2.575-1.45l2.8.45c-.9 2.2-2.75 3.375-5.3 3.375-3.525 0-5.825-2.275-5.825-5.75 0-3.5 2.225-5.775 5.675-5.775 3.425 0 5.55 2.225 5.55 5.85zm-8.025-1.925h5.125c-.325-1.4-1.225-2.15-2.575-2.15-1.325 0-2.275.8-2.55 2.15zm27.8985294-9.175v3.825c-1.35-1.325-2.525-1.875-4.075-1.875-3.075 0-5.45 2.525-5.45 5.8 0 3.25 2.375 5.675 5.525 5.675 1.55 0 2.675-.525 4-1.825v3.825c-1.475.7-2.675.975-4.075.975-4.9 0-8.8-3.8-8.8-8.625 0-4.875 3.925-8.8 8.8-8.8 1.45 0 2.625.3 4.075 1.025zm10.2367647 5.2h3.05v10.825h-3.05v-1.4c-.975 1.225-2.05 1.75-3.525 1.75-3.05 0-5.325-2.5-5.325-5.775 0-3.25 2.3-5.75 5.25-5.75 1.475 0 2.55.525 3.6 1.75zm-2.7 2.375c-1.675 0-3.025 1.35-3.025 3.025s1.35 3.05 3.025 3.05c1.65 0 3.025-1.375 3.025-3 0-1.725-1.325-3.075-3.025-3.075zm15.4867647-1.625-1.5 1.775c-.65-.475-1.2-.7-1.8-.7-.675 0-1.175.4-1.175.925 0 .475.35.725 1.725 1.2 1.225.425 1.6.6 2.1.975.8.55 1.2 1.375 1.2 2.375 0 2.275-1.9 3.875-4.55 3.875-1.575 0-3.05-.65-4.1-1.8l1.575-1.85c.875.875 1.675 1.275 2.575 1.275.775 0 1.375-.525 1.375-1.2 0-.625-.3-.85-1.675-1.35-1.4-.525-1.6-.6-2.075-.95-.725-.5-1.075-1.25-1.075-2.25 0-2.025 1.6-3.45 3.875-3.45 1.35 0 2.475.375 3.525 1.15zm5.0867647-.75v10.825h-3.025v-10.825zm-1.5-6.4c1 0 1.825.825 1.825 1.825s-.825 1.825-1.825 1.825-1.825-.825-1.825-1.85c0-.975.825-1.8 1.825-1.8zm3.7617647 6.4h3.025v1.35c.95-1.225 1.925-1.7 3.4-1.7 1.275 0 2.425.475 3.15 1.3.625.725.85 1.525.85 3v6.875h-3.025v-6c0-.9-.075-1.375-.3-1.75-.3-.525-.975-.85-1.775-.85-1.55 0-2.3.95-2.3 3v5.6h-3.025zm18.3867647-.35c3.625 0 6.15 2.375 6.15 5.75 0 3.425-2.55 5.775-6.25 5.775-3.625 0-6.125-2.375-6.125-5.85 0-3.3 2.6-5.675 6.225-5.675zm-.05 2.725c-1.65 0-3.05 1.375-3.05 3 0 1.725 1.375 3.075 3.075 3.075 1.675 0 3.05-1.35 3.05-3.025 0-1.7-1.375-3.05-3.075-3.05z" fill="#28ffbb"/></g></svg>