<svg height="14" viewBox="0 0 19 14" width="19" xmlns="http://www.w3.org/2000/svg"><g fill="none" fill-rule="evenodd"><path d="m0 0h19v14h-19z" fill="#111"/><path d="m0 0h17v12h-17z" fill="#e40613" fill-rule="nonzero" transform="translate(1 1)"/><g fill="#fff"><path d="m11.366 7.616-.981.74.4-1.162-1.007-.705 1.229.022.359-1.176.36 1.176 1.229-.022-1.007.705.4 1.162z" transform="matrix(.95105652 -.30901699 .30901699 .95105652 -1.608372 3.855136)"/><path d="m7.21841713 3.75160429c1.26041745 0 2.35317129.71785326 2.89172117 1.76701942-.46774645-.64798605-1.22933689-1.06956698-2.08939284-1.06956698-1.42236572 0-2.57542096 1.15305524-2.57542096 2.57542096s1.15305524 2.57542096 2.57542096 2.57542096c.80376288 0 1.52152811-.36819971 1.99382644-.94512993-.56588746.95391581-1.60631484 1.59362698-2.79615477 1.59362698-1.79403941 0-3.24839571-1.45435629-3.24839571-3.2483957s1.4543563-3.24839571 3.24839571-3.24839571z"/></g></g></svg>