<?xml version="1.0" encoding="utf-8"?>
<svg xmlns="http://www.w3.org/2000/svg" height="68" viewBox="0 0 65.031 68" width="65.031">
  <path d="M15184,13064.328c0-5.66,6.421-10.709,16.008-13.44a3.408,3.408,0,0,1,3.763,1.31c3.475,4.853,7.949,8.292,12.841,8.292s9.387-3.439,12.848-8.292a3.557,3.557,0,0,1,3.771-1.31h0c9.474,2.731,15.9,7.78,15.8,13.44,0,8.694-14.582,15.671-32.515,15.671S15184,13073.022,15184,13064.328Zm13.758-33.641a18.855,18.855,0,0,1,37.709,0c0,10.32-8.452,27.171-18.855,27.171S15197.76,13041.008,15197.76,13030.688Z" fill="#738299" id="Account" transform="translate(-15184.002 -13011.999)"/>
</svg>