<?xml version="1.0" encoding="utf-8"?>
<svg xmlns="http://www.w3.org/2000/svg" height="61.849" viewBox="0 0 63.838 61.849" width="63.838">
  <path d="M131.081,583.814v-4.045c0-2.606,6.66-4.715,14.817-4.715s14.817,2.109,14.817,4.715v4.052c0,2.606-6.66,4.715-14.817,4.715S131.081,586.42,131.081,583.814ZM145.9,599.5c8.184,0,14.817-2.109,14.817-4.715v-4.052a1.6,1.6,0,0,0-.093-.51C156.853,592.216,151.3,593,145.9,593s-10.955-.8-14.724-2.772a1.6,1.6,0,0,0-.093.51v4.052C131.081,597.394,137.693,599.5,145.9,599.5Zm0,10.974c8.184,0,14.817-2.109,14.817-4.715v-4.052a1.6,1.6,0,0,0-.093-.511c-3.769,1.99-9.323,2.772-14.724,2.772s-10.955-.8-14.724-2.778a1.6,1.6,0,0,0-.093.51v4.052c0,2.606,6.613,4.715,14.817,4.715ZM180.1,597c-8.185,0-14.817,2.109-14.817,4.715v4.052c0,2.606,6.659,4.715,14.817,4.715s14.817-2.109,14.817-4.715v-4.052C194.919,599.105,188.306,597,180.1,597Zm0,17.944c-5.374,0-10.955-.8-14.724-2.772a1.576,1.576,0,0,0-.093.511v4.052c0,2.606,6.659,4.715,14.817,4.715s14.817-2.109,14.817-4.715v-4.052a1.6,1.6,0,0,0-.093-.511C191.056,614.138,185.476,614.94,180.1,614.94Zm0,10.974c-5.374,0-10.955-.8-14.724-2.771a1.573,1.573,0,0,0-.093.51v4.052c0,2.606,6.659,4.715,14.817,4.715s14.817-2.109,14.817-4.715v-4.052a1.594,1.594,0,0,0-.093-.51C191.056,625.112,185.476,625.915,180.1,625.915Zm-34.2-4.469c8.184,0,14.817-2.109,14.817-4.715v-4.052a1.6,1.6,0,0,0-.093-.511c-3.769,1.99-9.323,2.772-14.724,2.772s-10.955-.8-14.724-2.772a1.6,1.6,0,0,0-.093.511v4.052C131.081,619.337,137.693,621.446,145.9,621.446Zm14.817,6.26v-4.052a1.6,1.6,0,0,0-.093-.51c-3.769,1.989-9.323,2.771-14.724,2.771s-10.955-.8-14.724-2.771a1.594,1.594,0,0,0-.093.51v4.052c0,2.606,6.66,4.715,14.817,4.715S160.715,630.3,160.715,627.705Zm21.564-57.134h-4.355a2.133,2.133,0,0,0-2.138,2.129h0v8.733h-1.5a1.743,1.743,0,0,0-1.425,2.759l5.82,8.09a1.756,1.756,0,0,0,2.85,0l5.827-8.09a1.739,1.739,0,0,0-.406-2.433,1.758,1.758,0,0,0-1.019-.326h-1.512V572.7a2.133,2.133,0,0,0-2.138-2.129Z" fill="#738299" id="Deposit" transform="translate(-131.081 -570.571)"/>
</svg>