<?xml version="1.0" encoding="utf-8"?>
<svg xmlns="http://www.w3.org/2000/svg" height="58" id="Icon" viewBox="0 0 78.287 58" width="78.287">
  <path d="M37.1,0A15.937,15.937,0,0,0,23.8,6.692H50.483A16.1,16.1,0,0,0,37.1,0" data-name="Path 2779" fill="#728299" id="Path_2779" transform="translate(-3.38 0)"/>
  <path d="M62.082,17.677A5.566,5.566,0,0,0,56.505,12.1H13.177A5.566,5.566,0,0,0,7.6,17.677v2.917H62.082Z" data-name="Path 2780" fill="#728299" id="Path_2780" transform="translate(-1.079 -1.718)"/>
  <path d="M7.6,60.617a5.566,5.566,0,0,0,5.577,5.577H56.505a5.566,5.566,0,0,0,5.577-5.577V57.7H7.6Z" data-name="Path 2781" fill="#728299" id="Path_2781" transform="translate(-1.079 -8.194)"/>
  <path d="M92.257,12.805a5.405,5.405,0,0,0-10.811,0,5.47,5.47,0,0,0,3.689,5.148V30.909c0,1.459-.218,6.323,1.716,6.323,1.68,0,1.716-2.891,1.716-6.237V17.953a5.47,5.47,0,0,0,3.689-5.148" data-name="Path 2782" fill="#728299" id="Path_2782" transform="translate(-13.97 -1.051)"/>
  <path d="M73.489,26.2H55.3V49.537H73.489a1.9,1.9,0,0,0,1.888-1.888V28.088A1.9,1.9,0,0,0,73.489,26.2M71.259,36.753l-2.231,2.4a.655.655,0,0,0-.172.429l.429,3.26a.527.527,0,0,1-.772.515l-3-1.373a.383.383,0,0,0-.429,0l-3,1.373a.545.545,0,0,1-.772-.515l.429-3.26a.472.472,0,0,0-.172-.429l-2.231-2.4a.545.545,0,0,1,.257-.858l3.175-.6c.172,0,.257-.086.343-.257l1.63-2.831a.486.486,0,0,1,.858,0l1.63,2.831a.46.46,0,0,0,.343.257l3.175.6c.6.086.772.515.515.858" data-name="Path 2783" fill="#728299" id="Path_2783" transform="translate(-7.853 -3.721)"/>
  <path d="M47.677,49.537V26.2H27.6V49.537H47.677M32.062,35.9l3.175-.6c.172,0,.257-.086.343-.257l1.63-2.831a.486.486,0,0,1,.858,0l1.63,2.831a.46.46,0,0,0,.343.257l3.175.6a.487.487,0,0,1,.257.858l-2.231,2.4v.429l.429,3.26a.527.527,0,0,1-.772.515l-3-1.373a.383.383,0,0,0-.429,0l-3,1.373a.545.545,0,0,1-.772-.515l.429-3.26a.472.472,0,0,0-.172-.429l-2.231-2.4a.526.526,0,0,1,.343-.858" data-name="Path 2784" fill="#728299" id="Path_2784" transform="translate(-3.92 -3.721)"/>
  <path d="M20.077,26.2H1.888A1.9,1.9,0,0,0,0,28.088V47.65a1.9,1.9,0,0,0,1.888,1.888H20.077V26.2M15.959,36.753l-2.231,2.4a.643.643,0,0,0-.086.429l.429,3.26a.527.527,0,0,1-.772.515l-3-1.373a.383.383,0,0,0-.429,0l-3,1.373a.545.545,0,0,1-.772-.515l.429-3.26a.472.472,0,0,0-.172-.429l-2.231-2.4a.545.545,0,0,1,.257-.858l3.175-.6c.172,0,.257-.086.343-.257l1.63-2.831a.486.486,0,0,1,.858,0l1.63,2.831a.46.46,0,0,0,.343.257l3.175.6c.515.086.686.515.429.858" data-name="Path 2785" fill="#728299" id="Path_2785" transform="translate(0 -3.721)"/>
</svg>