<?xml version="1.0" encoding="utf-8"?>
<svg xmlns="http://www.w3.org/2000/svg" height="67.998" viewBox="0 0 68.002 67.998" width="68.002">
  <path d="M14780.5,11995.483a33.9,33.9,0,1,1,13.233-2.672A33.8,33.8,0,0,1,14780.5,11995.483Zm-5.61-21.281v8.279h9.361v-8.279Zm4.078-25.2c2.388,0,3.983.213,4.74.632a2.351,2.351,0,0,1,1.142,2.249v2.822a3.8,3.8,0,0,1-.959,2.547,9.858,9.858,0,0,1-2.342,1.952c-.9.551-1.83,1.166-2.759,1.829a8.217,8.217,0,0,0-2.339,2.7,8.017,8.017,0,0,0-.959,3.992v3.476h8.157v-2.7a2.908,2.908,0,0,1,1.052-2.037,14.489,14.489,0,0,1,2.58-1.952c.994-.606,2.023-1.262,3.06-1.948a9.993,9.993,0,0,0,2.581-2.491,5.442,5.442,0,0,0,1.048-3.208v-5.763a8.911,8.911,0,0,0-.661-3.6,6.189,6.189,0,0,0-1.736-2.368,8.149,8.149,0,0,0-2.911-1.383,19.984,19.984,0,0,0-3.781-.658c-1.3-.1-2.857-.148-4.771-.148a108.42,108.42,0,0,0-13.08.959v6.54A101,101,0,0,1,14778.963,11949Z" fill="#738299" id="Help" transform="translate(-14746.494 -11927.485)"/>
</svg>