<?xml version="1.0" encoding="utf-8"?>
<svg xmlns="http://www.w3.org/2000/svg" height="56.813" viewBox="0 0 68 56.813" width="68">
  <path d="M185.39,414.2h-47.21a10.382,10.382,0,0,0-10.395,10.369v22.25a10.382,10.382,0,0,0,10.395,10.369h12.886l10.719,13.825L172.5,457.184H185.39a10.382,10.382,0,0,0,10.395-10.369v-22.25A10.382,10.382,0,0,0,185.39,414.2Zm-23.872,39.192a3.71,3.71,0,0,1-3.714-3.7h7.427A3.707,3.707,0,0,1,161.518,453.388Zm9.631-4.847H152.421a3.007,3.007,0,0,1-2.258-5,4.534,4.534,0,0,0,1.423-2.6v-8.587c0-.941.01-1.7.024-1.7a14.654,14.654,0,0,1,.164-1.693,10.148,10.148,0,0,1,6-7.61,11.826,11.826,0,0,0,1.6-.681c0-.047-.005-.093-.005-.143a2.414,2.414,0,0,1,4.827,0c0,.05,0,.1,0,.143a11.785,11.785,0,0,0,1.6.681,10.144,10.144,0,0,1,6,7.61,14.923,14.923,0,0,1,.165,1.693c.013,0,.023.762.023,1.7v8.587a4.54,4.54,0,0,0,1.423,2.6,3.007,3.007,0,0,1-2.257,5Z" data-name="Messages icon" fill="#738299" id="Messages_icon" transform="translate(-127.785 -414.197)"/>
</svg>