<?xml version="1.0" encoding="utf-8"?>
<svg xmlns="http://www.w3.org/2000/svg" height="71.331" viewBox="0 0 71 71.331" width="71">
  <defs>
    <clipPath id="a">
      <rect fill="#738199" height="71.331" width="71"/>
    </clipPath>
  </defs>
  <g clip-path="url(#a)">
    <path d="M14.423,32.237H16.3a21.11,21.11,0,0,0,14.762,11.9v6.934h-5.17A2.889,2.889,0,0,0,23,53.965v3.791H20.418a1.841,1.841,0,0,0-1.865,1.818q0,.031,0,.062V69.49a1.841,1.841,0,0,0,1.841,1.841H50.582a1.842,1.842,0,0,0,1.872-1.811V59.635a1.841,1.841,0,0,0-1.841-1.841h-2.6V54a2.889,2.889,0,0,0-2.889-2.889H39.95V44.141a21.11,21.11,0,0,0,14.762-11.9h1.872A14.416,14.416,0,0,0,71,17.821V9.053a2.311,2.311,0,0,0-2.311-2.311h-12.1V2.311A2.311,2.311,0,0,0,54.273,0H16.727a2.311,2.311,0,0,0-2.311,2.311V6.749H2.311A2.311,2.311,0,0,0,0,9.061v8.753A14.416,14.416,0,0,0,14.408,32.237h.015m42.161-8.683V14.046H63.7v3.768a7.127,7.127,0,0,1-7.119,7.119h-.046c.023-.455.046-.917.046-1.379m-30.1-6.441,5.2-.77a.9.9,0,0,0,.678-.493l2.311-4.708a.9.9,0,0,1,1.618,0l2.311,4.708a.9.9,0,0,0,.678.493l5.2.77a.9.9,0,0,1,.5,1.541l-3.76,3.667a.9.9,0,0,0-.262.77l.886,5.178a.9.9,0,0,1-1.31.948L35.92,26.774a.9.9,0,0,0-.84,0l-4.623,2.442a.9.9,0,0,1-1.31-.948l.886-5.178a.9.9,0,0,0-.262-.77l-3.76-3.667a.9.9,0,0,1,.478-1.541M7.3,14.03h7.119v9.523a13.67,13.67,0,0,0,.046,1.379h-.046A7.127,7.127,0,0,1,7.3,17.814Z" fill="#738199" transform="translate(0 0)"/>
  </g>
</svg>