<?xml version="1.0" encoding="utf-8"?>
<svg xmlns="http://www.w3.org/2000/svg" height="72" viewBox="0 0 64.32 72" width="64.32">
  <path d="M-1667.36-1921.107c-28.16-19.52-31.76-62.241-31.76-62.64l-.08-.64.64.08a24.065,24.065,0,0,0,3.44.24c12.96,0,27.2-8.32,27.839-8.64l.24-.16.24.16c.64.32,14.88,8.64,27.84,8.64,1.2,0,2.32-.08,3.441-.16l.639-.08-.08.64c0,.4-3.6,43.12-31.76,62.56l-.32.24Zm.32-1.041c25.679-18,30.4-55.6,30.96-61.04-.96.08-1.92.161-2.88.161-12.48,0-26-7.44-28.08-8.64-2.16,1.2-15.68,8.64-28.08,8.72-.961,0-1.92-.08-2.88-.161C-1697.44-1977.747-1692.72-1940.147-1667.04-1922.148Zm0-65.68c0,.08,15.2,9.04,27.6,7.44,0,0-2.8,37.28-27.6,54.4Z" data-name="Union 2" fill="#728299" id="Union_2" transform="translate(1699.2 1992.867)"/>
</svg>