<?xml version="1.0" encoding="utf-8"?>
<svg xmlns="http://www.w3.org/2000/svg" height="66.18" viewBox="0 0 132.01 66.18" width="132.01">
  <path d="M41.79,58.651a23.637,23.637,0,0,1-6.008,3.039l-.169.049L29.136,39.086l2.086-.606c-.12-.684-.21-1.427-.289-2.124l-2.375.684-6.49-22.67a24.136,24.136,0,0,1,5.74-.672,24.787,24.787,0,0,1,7.723,1.225l-.177-.049c.528-.965,1.109-1.872,1.715-2.771a27.248,27.248,0,0,0-9.24-1.579A27.829,27.829,0,1,0,44.31,60.779l-.078.054a28.677,28.677,0,0,1-2.441-2.177Zm-21.771-43.7,6.519,22.67L21.26,39.139a27.176,27.176,0,0,0-12.972-15.5l-.144-.07A24.751,24.751,0,0,1,19.846,15l.173-.054M6.9,25.322A25.226,25.226,0,0,1,19.161,39.539l.054.177L3.868,44.124a23.9,23.9,0,0,1-.693-5.789A24.482,24.482,0,0,1,6.96,25.223l-.058.1ZM4.449,46.141l15.331-4.4a24.4,24.4,0,0,1,.713,5.934,24.961,24.961,0,0,1-3.571,12.906l.062-.111A24.7,24.7,0,0,1,4.5,46.318l-.049-.173ZM18.963,61.331a26.735,26.735,0,0,0,3.678-13.62,27.037,27.037,0,0,0-.845-6.729l.041.186,5.278-1.505,6.478,22.67a23.845,23.845,0,0,1-5.732.68,24.49,24.49,0,0,1-9.092-1.74l.165.058ZM126.5,32.525a18.69,18.69,0,0,0-23.211-2.594l.078-.045c0,.833.107,1.691.107,2.548a16.2,16.2,0,0,1,9.8-3.274h1.6c0,3.167-4.1,5.529-7.678,6.993-3.311,1.319-4.791,5.08-5.1,8.127a10.837,10.837,0,0,0-.062,1.2,11.519,11.519,0,0,0,3.257,8.041l0,0c.132.12.252.252.383.355a12.044,12.044,0,0,0,7.97,3h.194c4.511,0,8.049-2.363,9.038-6.028,1.163-4.379,3.352-6.783,6.16-6.783h.684a15.824,15.824,0,0,1,.091,1.719c0,.322-.008.643-.029.965V46.7a13.8,13.8,0,0,1-1.01,4.989l.033-.091A16.833,16.833,0,0,1,113.22,62.259h-.054a16.435,16.435,0,0,1-11.682-4.853,16.165,16.165,0,0,1-3.629-5.484l-.037-.107c-.462.713-.924,1.427-1.427,2.1a19.223,19.223,0,0,0,5.55,6.894l.045.033a17.007,17.007,0,0,0,5.422,2.833l.12.033a18.373,18.373,0,0,0,5.731.9,18.751,18.751,0,0,0,13.2-32.063Zm-5.014,17.986c-.977,3.719-4.606,5.039-7.653,5.039h-.161a10.68,10.68,0,0,1-7.055-2.651l.012.012-.317-.318a9.916,9.916,0,0,1-2.915-7.034,9.71,9.71,0,0,1,.054-1.043l0,.041c.252-2.639,1.476-5.83,4.222-6.94,3.958-1.6,8.354-4.247,8.535-8.09a16.607,16.607,0,0,1,13.3,13.092l.016.1c-3.761-.371-6.639,2.507-8.036,7.785ZM93.25,13.116A32.683,32.683,0,0,0,34.389,32.682v1.332a32.7,32.7,0,1,0,58.8-20.988l.062.082ZM67.071,3.707h.016a28.924,28.924,0,0,1,7.389.957l-.2-.045L73.549,5a.952.952,0,0,0-.5.837A.965.965,0,0,0,73.062,6v0l.581,3.377-14.819.144.008-.107a.86.86,0,0,0-.285-.643L55.789,6.123A28.4,28.4,0,0,1,67.054,3.707h.017m-8.787,6.981L73.879,10.5l1.4,8.1a.835.835,0,0,0,.186.383L69.92,25.957h-.252l-12.56.132-3.484-5.752ZM38.121,32.657v-.07a28.562,28.562,0,0,1,3.253-13.281l-.074.157,1.674.239L38.248,34.917a17.957,17.957,0,0,1-.132-2.19v-.07Zm1.146,3.1,4.96-15.834,8.259,1.163h.12l3.418,5.62L52.21,38.793a.687.687,0,0,0-.008.132.758.758,0,0,0,.012.136v0l-5.608,1.979ZM63.719,55.2,57.69,60.036H57.4l-12.655-9-.371-1.1L46.8,42.2l6.136-2.058,9.987,7.1.816,7.917Zm1.319.115-.845-8.222,9.686-7.216,8.3,2.136,3.575,8.919-12.8,9.542Zm9.95,5.162L86.245,52.12l.408.99a.81.81,0,0,0,.379.445h0a28.663,28.663,0,0,1-11.805,6.861l-.2.049Zm7.2-20.229a.89.89,0,0,0-.276.4v.008l-7.364-1.889a.241.241,0,0,0,.008-.078.286.286,0,0,0-.012-.082v0L70.588,26.975l6.028-7.6,9.83,1.319,4.169,12.428Zm13.764-6.4-2.9-1.823a.981.981,0,0,0-1.1,0l0,0-.276.239L87.853,20.868l.779.107h.132a.918.918,0,0,0,.829-.524l0,0,1.74-3.575A28.567,28.567,0,0,1,95.98,32.566v.008c.012.2.021.429.021.66s-.008.462-.025.693v-.033Z" data-name="Path 2789" fill="#738199" id="Path_2789"/>
</svg>