<svg xmlns="http://www.w3.org/2000/svg" viewBox="0 0 24 18.9" class="JEdywntvMWqYfTV6oaCI"><path d="M10,13.83l.37-.93a3.56,3.56,0,0,0,1.29.24,3.49,3.49,0,0,0,3.5-3.5,3.72,3.72,0,0,0-.14-1l1-.29a4.67,4.67,0,0,1,.18,1.29A4.52,4.52,0,0,1,10,13.83ZM1.68,9.59c-.14.14-.26.28-.38.41.12.13.24.27.38.41a21.86,21.86,0,0,0,2.46,2.31,18.66,18.66,0,0,0,1.68,1.21l-.55.84A23.07,23.07,0,0,1,0,10S5.37,3,12,3a10.9,10.9,0,0,1,4.06.83l-.77.78A9.69,9.69,0,0,0,12,4C9.37,4,6.7,5.22,4.14,7.28A21.86,21.86,0,0,0,1.68,9.59Zm20.64.82c.14-.14.26-.28.38-.41-.12-.13-.24-.27-.38-.41a21.86,21.86,0,0,0-2.46-2.31q-.57-.47-1.17-.87l.57-.83A23.55,23.55,0,0,1,24,10s-5.37,7-12,7a10.6,10.6,0,0,1-3.69-.69l.8-.78A9.49,9.49,0,0,0,12,16c2.63,0,5.3-1.22,7.86-3.28A21.86,21.86,0,0,0,22.32,10.41ZM14,6l-.44.9A3.39,3.39,0,0,0,12,6.5a3.51,3.51,0,0,0-3.2,4.93l-.91.41A4.44,4.44,0,0,1,7.5,10,4.5,4.5,0,0,1,14,6ZM20.72.72l.7.71L3.23,19.63l-.71-.71Z" transform="translate(0 -0.72)"></path></svg>