<svg xmlns="http://www.w3.org/2000/svg" width="23" height="24.051" viewBox="0 0 23 24.051">
                                            <path id="Account" d="M15184.006,13030.508c0-2,2.27-3.787,5.66-4.753a1.2,1.2,0,0,1,1.332.463c1.229,1.718,2.811,2.933,4.541,2.933s3.32-1.215,4.545-2.933a1.256,1.256,0,0,1,1.332-.463h0c3.352.966,5.623,2.752,5.59,4.753,0,3.075-5.158,5.543-11.5,5.543S15184.006,13033.583,15184.006,13030.508Zm4.865-11.9a6.669,6.669,0,0,1,13.338,0c0,3.649-2.99,9.609-6.67,9.609S15188.871,13022.26,15188.871,13018.61Z" transform="translate(-15184.006 -13012)" fill="#8e939b"></path></svg>