<svg width="47" height="51" viewBox="0 0 256 280" fill="none" xmlns="http://www.w3.org/2000/svg">
<path d="M115.988 239.369C112.803 222.258 98.5741 220.172 93.1123 220.011C93.5138 221.967 94.4671 225.454 96.5957 228.93C100.759 235.751 107.28 239.256 115.988 239.37V239.369Z" fill="#06244B"/>
<path d="M82.2381 231.072C84.7211 223.13 83.6849 215.944 79.1382 209.698C76.7191 206.37 73.8379 204.123 72.1422 202.969C71.559 204.954 70.7807 208.53 71.0353 212.652C71.513 220.379 75.278 226.567 82.237 231.07L82.2381 231.072Z" fill="#06244B"/>
<path d="M133.462 251.76C132.885 253.745 132.104 257.322 132.362 261.443C132.84 269.17 136.605 275.364 143.564 279.867C146.047 271.925 145.005 264.741 140.46 258.49C138.038 255.165 135.164 252.913 133.461 251.76H133.462Z" fill="#06244B"/>
<path d="M106.763 246.431C96.8436 246.431 89.6804 252.454 86.9036 255.237C89.2105 256.229 93.6742 257.784 99.0115 257.784C106.406 257.784 112.933 254.862 118.427 249.102C114.52 247.334 110.601 246.431 106.763 246.431Z" fill="#06244B"/>
<path d="M80.6309 237.64C71.6172 237.64 64.9947 243.281 62.4387 245.855C64.7939 247.12 69.7364 249.324 75.5953 249.324C82.1931 249.324 88.1159 246.592 93.2311 241.202C89.0277 238.836 84.7973 237.64 80.6309 237.64Z" fill="#06244B"/>
<path d="M54.7833 224.684C48.3189 224.684 42.9401 227.443 40.4907 228.947C43.0556 231.261 49.4472 236.129 57.8563 236.129C62.4422 236.129 67.0314 234.677 71.4985 231.807C66.4628 227.077 60.8496 224.684 54.7833 224.684Z" fill="#06244B"/>
<path d="M52.1084 216.605C47.0212 209.476 40.3661 205.862 32.2968 205.862C27.9453 205.862 24.2465 206.962 22.2502 207.695C24.6626 210.93 31.5039 218.589 42.2536 218.589C45.4264 218.589 48.736 217.929 52.1095 216.604L52.1084 216.605Z" fill="#06244B"/>
<path d="M35.5402 198.21C29.8541 186.308 20.2113 183.748 12.9775 183.748C10.7771 183.748 8.91764 183.995 7.67163 184.218C8.4623 185.786 9.92364 188.318 12.1779 190.824C16.9488 196.125 22.8581 198.818 29.7442 198.818C31.6037 198.818 33.5462 198.614 35.5402 198.21Z" fill="#06244B"/>
<path d="M50.9599 180.709C50.1962 176.396 48.4679 172.92 47.398 171.073C45.9456 172.636 43.4985 175.642 41.8061 179.674C38.667 187.159 39.3903 194.734 43.9314 202.215C50.0122 195.927 52.373 188.698 50.9599 180.709Z" fill="#06244B"/>
<path d="M56.1201 196.786C53.8322 204.651 55.3877 212.165 60.7396 219.157C66.0825 212.16 67.6235 204.637 65.3233 196.777C64.0862 192.545 61.9868 189.253 60.7161 187.52C59.442 189.253 57.3504 192.55 56.1201 196.786Z" fill="#06244B"/>
<path d="M37.761 145.612C36.2413 147.132 33.6708 150.062 31.808 154.056C28.347 161.475 28.735 169.141 32.953 176.877C39.2986 170.788 41.9756 163.597 40.9035 155.476C40.3293 151.103 38.7513 147.52 37.761 145.612Z" fill="#06244B"/>
<path d="M25.6385 180.167C23.742 172.454 19.5699 166.879 13.2277 163.573C8.41979 161.075 3.58157 160.539 1.05591 160.444C1.59984 162.476 2.80323 166.051 5.20104 169.582C9.87777 176.45 16.7459 180.011 25.6385 180.167Z" fill="#06244B"/>
<path d="M17.2326 161.492C18.1926 152.725 15.6401 145.483 9.62537 139.963C6.38306 136.99 2.89065 135.267 0.908928 134.449C0.720513 136.573 0.620698 140.424 1.72988 144.67C3.80244 152.639 9.0175 158.291 17.2326 161.492Z" fill="#06244B"/>
<path d="M36.017 131.182C36.4824 126.793 35.7949 122.936 35.2757 120.848C33.4644 121.949 30.3185 124.148 27.5753 127.558C22.4208 133.955 20.9774 141.531 23.2743 150.094C30.8658 145.677 35.1512 139.322 36.017 131.182Z" fill="#06244B"/>
<path d="M11.6283 137.428C15.3966 129.464 15.3451 121.783 11.4702 114.578C9.3797 110.702 6.64432 107.919 5.04504 106.491C4.16128 108.456 2.79639 112.118 2.47115 116.526C1.86329 124.69 4.94634 131.715 11.6283 137.428Z" fill="#06244B"/>
<path d="M18.5179 87.0553C17.245 82.8283 15.1107 79.5506 13.8165 77.8315C12.5795 79.5619 10.5461 82.8272 9.34276 87.0452C7.08739 94.9619 8.70125 102.505 14.1417 109.473C19.4174 102.424 20.891 94.8863 18.5179 87.0553Z" fill="#06244B"/>
<path d="M39.5542 105.848C40.7812 101.456 40.678 97.3852 40.484 95.2147C38.4417 95.9461 34.7216 97.5466 31.2662 100.496C24.9543 105.878 22.2582 113.192 23.2395 122.253C31.8337 119.375 37.3168 113.871 39.5531 105.848H39.5542Z" fill="#06244B"/>
<path d="M40.9011 82.738C42.4454 78.4455 42.5665 74.3043 42.497 72.1473C40.3997 72.6079 36.4464 73.7512 32.6837 76.3157C25.9277 80.9332 22.7515 87.9143 23.2259 97.1042C32.188 95.2994 38.1298 90.4742 40.9011 82.738Z" fill="#06244B"/>
<path d="M116.945 258.205C112.401 264.45 111.362 271.632 113.845 279.578C120.8 275.074 124.566 268.882 125.046 261.154C125.301 257.031 124.518 253.455 123.943 251.474C122.244 252.629 119.366 254.87 116.945 258.205Z" fill="#06244B"/>
<path d="M134.438 244.446C134.438 241.64 132.174 239.36 129.39 239.36C126.606 239.36 124.345 241.64 124.345 244.446C124.345 247.252 126.606 249.523 129.39 249.523C132.174 249.523 134.438 247.243 134.438 244.446Z" fill="#06244B"/>
<path d="M159.406 228.71C161.537 225.234 162.488 221.747 162.886 219.791C157.425 219.947 143.203 222.043 140.018 239.149C148.725 239.04 155.247 235.526 159.408 228.709L159.406 228.71Z" fill="#06244B"/>
<path d="M176.863 209.479C172.313 215.726 171.278 222.911 173.763 230.857C180.722 226.35 184.491 220.162 184.965 212.43C185.219 208.311 184.436 204.731 183.861 202.751C182.162 203.909 179.284 206.151 176.862 209.479H176.863Z" fill="#06244B"/>
<path d="M137.577 248.881C143.068 254.642 149.596 257.559 156.991 257.559C162.327 257.559 166.792 256.01 169.102 255.017C166.318 252.234 159.152 246.218 149.232 246.218C145.4 246.218 141.486 247.109 137.577 248.881Z" fill="#06244B"/>
<path d="M162.771 240.978C167.882 246.369 173.809 249.1 180.407 249.1C186.263 249.1 191.205 246.906 193.566 245.643C191.006 243.058 184.385 237.422 175.368 237.422C171.204 237.422 166.971 238.619 162.771 240.979V240.978Z" fill="#06244B"/>
<path d="M184.504 231.589C188.974 234.462 193.554 235.91 198.146 235.91C206.555 235.91 212.952 231.042 215.514 228.724C213.064 227.224 207.679 224.464 201.218 224.464C195.149 224.464 189.538 226.857 184.502 231.587L184.504 231.589Z" fill="#06244B"/>
<path d="M203.896 216.39C207.263 217.701 210.572 218.376 213.743 218.376C224.498 218.376 231.342 210.715 233.753 207.48C231.759 206.745 228.054 205.643 223.702 205.643C215.637 205.643 208.977 209.257 203.896 216.39Z" fill="#06244B"/>
<path d="M220.465 197.997C222.456 198.392 224.395 198.595 226.261 198.595C233.142 198.595 239.053 195.902 243.824 190.602C246.076 188.104 247.537 185.568 248.325 184.001C247.082 183.773 245.221 183.53 243.027 183.53C235.791 183.53 226.151 186.09 220.465 197.997Z" fill="#06244B"/>
<path d="M208.61 170.844C207.534 172.696 205.81 176.174 205.048 180.491C203.626 188.479 205.997 195.707 212.068 201.996C216.617 194.51 217.332 186.936 214.196 179.46C212.502 175.423 210.06 172.416 208.611 170.844H208.61Z" fill="#06244B"/>
<path d="M199.884 196.567C198.654 192.331 196.562 189.035 195.286 187.297C194.019 189.031 191.919 192.322 190.681 196.558C188.377 204.414 189.915 211.937 195.265 218.938C200.61 211.946 202.166 204.428 199.884 196.567Z" fill="#06244B"/>
<path d="M224.196 153.838C222.334 149.843 219.756 146.913 218.237 145.393C217.249 147.301 215.672 150.878 215.094 155.256C214.028 163.374 216.702 170.57 223.051 176.662C227.269 168.922 227.655 161.257 224.196 153.838Z" fill="#06244B"/>
<path d="M230.364 179.955C239.256 179.792 246.128 176.231 250.805 169.358C253.206 165.835 254.402 162.253 254.947 160.229C252.418 160.32 247.587 160.857 242.776 163.36C236.43 166.656 232.264 172.237 230.364 179.955Z" fill="#06244B"/>
<path d="M238.775 161.279C246.987 158.078 252.198 152.426 254.271 144.452C255.375 140.207 255.279 136.355 255.089 134.236C253.11 135.049 249.618 136.767 246.372 139.75C240.357 145.27 237.81 152.507 238.774 161.279H238.775Z" fill="#06244B"/>
<path d="M232.728 149.87C235.028 141.312 233.585 133.742 228.43 127.34C225.677 123.929 222.534 121.731 220.723 120.634C220.209 122.72 219.514 126.567 219.987 130.964C220.844 139.105 225.13 145.459 232.728 149.87Z" fill="#06244B"/>
<path d="M244.376 137.209C251.059 131.496 254.141 124.471 253.53 116.298C253.204 111.899 251.841 108.232 250.952 106.272C249.347 107.701 246.615 110.478 244.531 114.364C240.652 121.569 240.604 129.244 244.376 137.208V137.209Z" fill="#06244B"/>
<path d="M246.659 86.8273C245.456 82.6048 243.423 79.3429 242.182 77.6137C240.893 79.3384 238.763 82.6094 237.481 86.8364C235.113 94.6741 236.585 102.201 241.857 109.254C247.303 102.282 248.917 94.7441 246.659 86.8273Z" fill="#06244B"/>
<path d="M224.735 100.272C221.276 97.3288 217.557 95.7227 215.517 94.9958C215.32 97.1663 215.219 101.241 216.443 105.625C218.681 113.642 224.169 119.156 232.76 122.029C233.742 112.978 231.043 105.659 224.734 100.272H224.735Z" fill="#06244B"/>
<path d="M223.318 76.1035C219.556 73.5323 215.602 72.3889 213.508 71.9239C213.432 74.0842 213.563 78.2255 215.104 82.5236C217.87 90.2507 223.814 95.0816 232.777 96.8909C233.254 87.701 230.071 80.7143 223.318 76.1035Z" fill="#06244B"/>
<path d="M153.79 27.5013L160.269 26.1096L165.082 30.6888L165.766 24.0633L171.58 20.8679L165.52 18.1658L164.305 11.6159L159.883 16.5732L153.312 15.7097L156.631 21.4842L153.79 27.5013Z" fill="#06244B"/>
<path d="M184.776 35.6326L187.876 40.6294L189.933 35.1201L195.61 33.7002L191.04 30.0285L191.452 24.1536L186.568 27.393L181.147 25.1796L182.7 30.8548L178.934 35.3617L184.776 35.6326Z" fill="#06244B"/>
<path d="M203.682 48.1623L205.688 53.1919L208.432 48.5326L213.809 48.1714L210.256 44.0956L211.575 38.8381L206.627 40.9804L202.069 38.0977L202.563 43.4884L198.424 46.9603L203.682 48.1623Z" fill="#06244B"/>
<path d="M219.606 67.5242L222.482 64.5715L226.518 65.2882L224.618 61.6256L226.536 57.9742L222.497 58.6616L219.641 55.6987L219.039 59.7835L215.355 61.603L219.032 63.4349L219.606 67.5242Z" fill="#06244B"/>
<path d="M90.9232 30.5646L95.7345 25.9855L102.214 27.3772L99.3749 21.3612L102.697 15.5946L96.1237 16.4536L91.7015 11.4918L90.4791 18.0416L84.4285 20.7438L90.2368 23.9403L90.9232 30.5646Z" fill="#06244B"/>
<path d="M66.0759 34.996L68.1328 40.5052L71.2237 35.5084L77.0713 35.2375L73.3052 30.7362L74.8619 25.0566L69.4371 27.2688L64.5507 24.0261L64.9656 29.901L60.3921 33.5761L66.0759 34.996Z" fill="#06244B"/>
<path d="M47.5707 48.4084L50.324 53.0722L52.3237 48.0337L57.5814 46.8451L53.4475 43.3744L53.9432 37.969L49.3786 40.8607L44.4282 38.7207L45.7561 43.9782L42.1975 48.0472L47.5707 48.4084Z" fill="#06244B"/>
<path d="M29.4874 65.1595L33.5271 64.4518L36.396 67.4023L36.9758 63.313L40.6476 61.4788L36.9668 59.6605L36.3679 55.5757L33.5114 58.5397L29.4639 57.8545L31.3839 61.5025L29.4874 65.1595Z" fill="#06244B"/>
<path d="M117.199 32.05L127.294 26.709L137.403 32.05L135.464 20.7268L143.64 12.7074L132.342 11.0583L127.294 0.757751L122.24 11.0583L110.942 12.7074L119.118 20.7268L117.199 32.05Z" fill="#06244B"/>
<path d="M78.0402 166.51L82.1439 159.946H88.2034V160.192L80.65 171.46V179.09H75.269V171.46L68.0408 160.165V159.946H74.1003L78.0402 166.51Z" fill="#06244B"/>
<path d="M118.551 179.09H103.332V159.946H118.169V164.486H108.631V167.221H117.625V171.624H108.631V174.522H118.549V179.09H118.551Z" fill="#06244B"/>
<path d="M148.299 175.946H139.794L138.544 179.09H132.839L141.371 159.946H146.806L155.31 179.09H149.55L148.3 175.946H148.299ZM144.061 165.306L141.614 171.405H146.48L144.061 165.306Z" fill="#06244B"/>
<path d="M188.021 179.09H182.098L177.668 172.882H175.792V179.09H170.411V159.946H179.705C184.57 159.946 187.097 163.091 187.097 166.537C187.097 168.889 186.281 170.886 183.075 172.308L188.021 178.762V179.09ZM175.792 164.267V168.862H179.76C181.173 168.862 181.797 167.795 181.797 166.646C181.797 165.443 181.118 164.267 179.706 164.267H175.792Z" fill="#06244B"/>
<path d="M98.4519 202.262H90.6013V191.565H98.406V193.231H92.3015V196.119H98.1637V197.708H92.3015V200.582H98.4519V202.262Z" fill="#06244B"/>
<path d="M106.989 193.933C106.489 193.199 105.47 192.757 104.362 192.741C102.936 192.741 101.903 193.337 101.903 194.36C101.903 195.4 103.087 195.69 104.483 195.889C106.67 196.195 108.751 196.805 108.751 199.205C108.735 201.604 106.564 202.506 104.347 202.506C102.312 202.506 100.748 201.88 99.7764 200.076L101.053 199.221C101.812 200.52 103.133 200.978 104.362 200.978C105.639 200.978 107.049 200.55 107.049 199.205C107.049 198.043 105.82 197.646 104.332 197.447C102.221 197.157 100.217 196.622 100.217 194.33C100.201 192.114 102.403 191.259 104.317 191.259C105.852 191.259 107.385 191.626 108.281 193.061L106.989 193.933Z" fill="#06244B"/>
<path d="M113.082 193.108H109.59V191.563H118.276V193.108H114.798V202.261H113.082V193.108Z" fill="#06244B"/>
<path d="M120.633 201.422C120.633 202.721 118.704 202.721 118.704 201.422C118.704 200.138 120.633 200.138 120.633 201.422Z" fill="#06244B"/>
<path d="M126.072 200.841H127.985V193.658L126.163 194.178V192.68L129.67 191.565V200.841H131.522V202.262H126.072V200.841Z" fill="#06244B"/>
<path d="M139.726 197.127C139.164 197.982 137.965 198.365 137.009 198.365C134.898 198.365 132.681 197.449 132.681 194.865C132.681 192.481 134.912 191.381 137.023 191.381C139.15 191.381 141.396 192.497 141.396 194.895V199.052C141.396 201.345 139.239 202.415 137.098 202.415C134.836 202.415 132.801 201.513 132.771 199.374H134.487C134.503 200.398 135.793 200.933 137.084 200.933C138.192 200.933 139.726 200.291 139.726 199.068V197.128V197.127ZM134.366 194.865C134.366 196.225 135.626 196.851 137.009 196.851C138.391 196.851 139.696 196.195 139.696 194.865C139.68 193.505 138.375 192.924 137.023 192.924C135.687 192.924 134.366 193.489 134.366 194.865Z" fill="#06244B"/>
<path d="M150.268 197.127C149.706 197.982 148.508 198.365 147.551 198.365C145.44 198.365 143.223 197.449 143.223 194.865C143.223 192.481 145.455 191.381 147.565 191.381C149.692 191.381 151.938 192.497 151.938 194.895V199.052C151.938 201.345 149.782 202.415 147.641 202.415C145.378 202.415 143.343 201.513 143.314 199.374H145.03C145.045 200.398 146.335 200.933 147.626 200.933C148.734 200.933 150.268 200.291 150.268 199.068V197.128V197.127ZM144.909 194.865C144.909 196.225 146.168 196.851 147.551 196.851C148.934 196.851 150.238 196.195 150.238 194.865C150.222 193.505 148.917 192.924 147.565 192.924C146.23 192.924 144.909 193.489 144.909 194.865Z" fill="#06244B"/>
<path d="M161.115 191.58V198.549H162.375V200.138H161.115V202.262H159.429V200.138H153.538L153.324 198.594L159.155 191.58H161.115ZM159.429 198.549V193.567L155.223 198.549H159.429Z" fill="#06244B"/>
<path d="M167.882 90.2563H162.843V64.6945H159.063V60.4822H171.621V64.6945H167.883V90.2563H167.882Z" fill="#06244B"/>
<path d="M177.879 76.5967V90.2563H172.84V60.4822H177.879V72.3833H181.739V60.4822H186.738V90.2563H181.739V76.5967H177.879Z" fill="#06244B"/>
<path d="M80.5 97.375H85.875C90.875 97.375 92.625 94.25 92.625 89.125V79C92.625 73.875 90.125 71.625 87.125 71.625H86.625C83.25 71.625 81 73.875 81 79V90.25H66.125V79.375C66.125 66.25 74 59 86.5 59H87.5C100 59 108.125 66.125 108.125 79.125V86C108.125 95.375 105.625 100.75 98.125 102.625C105.75 104.5 108.5 110.375 108.5 119.875V131.625C108.5 144.75 100.25 152 87.75 152H86.625C74.25 152 66.125 144.75 66.125 131.625V118H80.875V132C80.875 137.125 83.5 139.375 86.625 139.375H87.125C90.125 139.375 92.875 137.125 92.875 132V117.25C92.875 111.875 91 109 85.875 109H80.5V97.375Z" fill="#06244B"/>
<path d="M113.131 79.5C113.131 66.375 121.381 59 133.881 59H135.006C147.381 59 155.881 66.375 155.881 79.5V131.5C155.881 144.625 147.381 152 135.006 152H133.881C121.381 152 113.131 144.625 113.131 131.5V79.5ZM140.381 79C140.381 73.875 137.881 71.625 134.756 71.625H134.256C130.881 71.625 128.631 73.625 128.631 79V132C128.631 137.125 130.881 139.375 134.256 139.375H134.756C137.881 139.375 140.381 137.125 140.381 132V79Z" fill="#06244B"/>
</svg>
