<?xml version="1.0" encoding="utf-8"?>
<svg
	style="enable-background: new 0 0 64 64;"
	xmlns="http://www.w3.org/2000/svg"
	x="0px"
	y="0px"
	xml:space="preserve"
	viewBox="0 0 64 64"
	height="64px"
	width="64px"
	xmlns:xlink="http://www.w3.org/1999/xlink"
	version="1.1"
	fill="#ffffff"
	>
	<path d="M7.1,64v-7.9h2.7c0.9,0,1.6,0.2,2,0.5c0.5,0.4,0.7,0.9,0.7,1.6c0,0.4-0.1,0.7-0.3,1s-0.5,0.5-0.9,0.7
		c0.4,0.1,0.8,0.3,1,0.7c0.2,0.3,0.4,0.7,0.4,1.2c0,0.7-0.2,1.3-0.7,1.7c-0.5,0.4-1.2,0.6-2,0.6H7.1z M8.5,59.4h1.3
		c0.4,0,0.8-0.1,1-0.3s0.4-0.5,0.4-0.8c0-0.4-0.1-0.7-0.3-0.8s-0.6-0.3-1-0.3H8.5V59.4z M8.5,60.4v2.5H10c0.4,0,0.8-0.1,1-0.3
		c0.2-0.2,0.4-0.5,0.4-0.9c0-0.8-0.4-1.2-1.3-1.3H8.5z M18.8,60.5h-3.3v2.4h3.8V64h-5.2v-7.9h5.1v1.1h-3.8v2.2h3.3V60.5z M26.3,57.2
		h-2.5V64h-1.4v-6.8H20v-1.1h6.3V57.2z M33.1,56.1v5.3c0,0.8-0.3,1.5-0.8,2c-0.5,0.5-1.3,0.7-2.2,0.7c-0.9,0-1.6-0.2-2.2-0.7
		c-0.5-0.5-0.8-1.2-0.8-2v-5.3h1.4v5.3c0,0.5,0.1,0.9,0.4,1.2c0.3,0.3,0.7,0.4,1.2,0.4c1.1,0,1.6-0.6,1.6-1.7v-5.3H33.1z M38.7,61.9
		c0-0.3-0.1-0.6-0.4-0.8c-0.2-0.2-0.7-0.4-1.3-0.6c-0.6-0.2-1.1-0.4-1.5-0.6c-0.7-0.5-1.1-1-1.1-1.8c0-0.6,0.3-1.2,0.8-1.6
		c0.5-0.4,1.2-0.6,2-0.6c0.6,0,1,0.1,1.5,0.3s0.8,0.5,1,0.9c0.2,0.4,0.4,0.8,0.4,1.2h-1.4c0-0.4-0.1-0.7-0.4-1
		c-0.3-0.2-0.6-0.4-1.1-0.4c-0.4,0-0.8,0.1-1,0.3c-0.2,0.2-0.4,0.5-0.4,0.8c0,0.3,0.1,0.5,0.4,0.7c0.3,0.2,0.7,0.4,1.3,0.6
		c0.6,0.2,1.1,0.4,1.5,0.6c0.4,0.2,0.6,0.5,0.8,0.8c0.2,0.3,0.3,0.7,0.3,1.1c0,0.7-0.3,1.2-0.8,1.6s-1.2,0.6-2.1,0.6
		c-0.6,0-1.1-0.1-1.6-0.3c-0.5-0.2-0.9-0.5-1.1-0.9c-0.3-0.4-0.4-0.8-0.4-1.3h1.4c0,0.5,0.1,0.8,0.4,1c0.3,0.2,0.7,0.4,1.3,0.4
		c0.5,0,0.8-0.1,1.1-0.3C38.6,62.5,38.7,62.3,38.7,61.9z M49.5,57.2H47V64h-1.4v-6.8h-2.4v-1.1h6.3V57.2z M53.4,62.3l2-6.2h1.5L54,64
		h-1.3l-2.8-7.9h1.5L53.4,62.3z M44.7,43c0,0.9-0.8,1.7-1.7,1.7H20.9c-0.9,0-1.7-0.8-1.7-1.7s0.8-1.7,1.7-1.7h6.6v-2.6h9v2.6h6.6
		C44,41.4,44.7,42.1,44.7,43z M60.5,5.1V34c0,1.1-0.9,1.9-1.9,1.9H5.4c-1.1,0-1.9-0.9-1.9-1.9V5.1c0-1.1,0.9-1.9,1.9-1.9h53.1l0,0
		C59.6,3.1,60.5,4,60.5,5.1z M43.2,19.5c0-6.2-5-11.2-11.2-11.2s-11.2,5-11.2,11.2s5,11.2,11.2,11.2S43.2,25.7,43.2,19.5z M37.8,18.6
		l-8-4.6c-0.7-0.4-1.6,0.1-1.6,0.9v9.2c0,0.8,0.9,1.4,1.6,0.9l8-4.6C38.5,20,38.5,19,37.8,18.6z"/>
	</svg>