<?xml version="1.0" encoding="utf-8"?>
<svg
	style="enable-background: new 0 0 64 64;"
	xmlns="http://www.w3.org/2000/svg"
	x="0px"
	y="0px"
	xml:space="preserve"
	viewBox="0 0 64 64"
	height="64px"
	width="64px"
	xmlns:xlink="http://www.w3.org/1999/xlink"
	version="1.1"
	fill="#ffffff"
	>
	<path
		d="M15.5,61.7c0-0.4-0.1-0.7-0.4-0.9c-0.3-0.2-0.7-0.4-1.4-0.6c-0.7-0.2-1.2-0.4-1.7-0.7
		c-0.8-0.5-1.2-1.1-1.2-1.9c0-0.7,0.3-1.3,0.9-1.7s1.3-0.7,2.2-0.7c0.6,0,1.1,0.1,1.6,0.3c0.5,0.2,0.8,0.5,1.1,0.9
		c0.3,0.4,0.4,0.9,0.4,1.4h-1.5c0-0.5-0.1-0.8-0.4-1.1c-0.3-0.3-0.7-0.4-1.2-0.4c-0.5,0-0.9,0.1-1.1,0.3c-0.3,0.2-0.4,0.5-0.4,0.9
		c0,0.3,0.1,0.6,0.4,0.8c0.3,0.2,0.8,0.4,1.4,0.6c0.7,0.2,1.2,0.4,1.6,0.7c0.4,0.3,0.7,0.5,0.9,0.9c0.2,0.3,0.3,0.7,0.3,1.2
		c0,0.7-0.3,1.3-0.8,1.7c-0.6,0.4-1.3,0.6-2.2,0.6c-0.6,0-1.2-0.1-1.7-0.3c-0.5-0.2-0.9-0.6-1.2-1c-0.3-0.4-0.4-0.9-0.4-1.4H12
		c0,0.5,0.2,0.9,0.5,1.1c0.3,0.3,0.8,0.4,1.4,0.4c0.5,0,0.9-0.1,1.2-0.3C15.3,62.3,15.5,62,15.5,61.7z M25.2,59.8
		c0,0.8-0.1,1.6-0.4,2.2c-0.3,0.6-0.7,1.1-1.3,1.5c-0.5,0.3-1.2,0.5-1.9,0.5c-0.7,0-1.3-0.2-1.9-0.5c-0.5-0.3-1-0.8-1.3-1.5
		c-0.3-0.6-0.4-1.4-0.5-2.2v-0.5c0-0.8,0.1-1.6,0.4-2.2c0.3-0.6,0.7-1.1,1.3-1.5c0.5-0.3,1.2-0.5,1.9-0.5c0.7,0,1.3,0.2,1.9,0.5
		c0.5,0.3,1,0.8,1.3,1.5c0.3,0.6,0.4,1.4,0.4,2.2V59.8z M23.7,59.3c0-1-0.2-1.7-0.5-2.2c-0.4-0.5-0.9-0.8-1.5-0.8
		c-0.6,0-1.2,0.3-1.5,0.8c-0.4,0.5-0.6,1.2-0.6,2.2v0.5c0,0.9,0.2,1.7,0.6,2.2c0.4,0.5,0.9,0.8,1.5,0.8c0.7,0,1.2-0.3,1.5-0.8
		c0.4-0.5,0.5-1.2,0.5-2.2V59.3z M33.2,61.1c-0.1,0.9-0.4,1.6-1,2.2c-0.6,0.5-1.4,0.8-2.4,0.8c-0.7,0-1.3-0.2-1.8-0.5
		c-0.5-0.3-0.9-0.8-1.2-1.4c-0.3-0.6-0.4-1.3-0.4-2.1v-0.8c0-0.8,0.1-1.5,0.4-2.2c0.3-0.6,0.7-1.1,1.2-1.4c0.5-0.3,1.2-0.5,1.9-0.5
		c1,0,1.7,0.3,2.3,0.8c0.6,0.5,0.9,1.2,1,2.2h-1.5c-0.1-0.6-0.3-1.1-0.5-1.3c-0.3-0.3-0.7-0.4-1.3-0.4c-0.7,0-1.2,0.2-1.5,0.7
		c-0.3,0.5-0.5,1.2-0.5,2.1v0.8c0,0.9,0.2,1.6,0.5,2.1c0.3,0.5,0.8,0.7,1.5,0.7c0.6,0,1-0.1,1.3-0.4c0.3-0.3,0.5-0.7,0.6-1.3H33.2z
		M41.2,61.1c-0.1,0.9-0.4,1.6-1,2.2c-0.6,0.5-1.4,0.8-2.4,0.8c-0.7,0-1.3-0.2-1.8-0.5c-0.5-0.3-0.9-0.8-1.2-1.4
		c-0.3-0.6-0.4-1.3-0.4-2.1v-0.8c0-0.8,0.1-1.5,0.4-2.2c0.3-0.6,0.7-1.1,1.2-1.4c0.5-0.3,1.2-0.5,1.9-0.5c1,0,1.7,0.3,2.3,0.8
		c0.6,0.5,0.9,1.2,1,2.2h-1.5c-0.1-0.6-0.3-1.1-0.5-1.3c-0.3-0.3-0.7-0.4-1.3-0.4c-0.7,0-1.2,0.2-1.5,0.7c-0.3,0.5-0.5,1.2-0.5,2.1
		v0.8c0,0.9,0.2,1.6,0.5,2.1s0.8,0.7,1.5,0.7c0.6,0,1-0.1,1.3-0.4c0.3-0.3,0.5-0.7,0.6-1.3H41.2z M47.5,60H44v2.7h4.1v1.2h-5.6v-8.6
		h5.6v1.2H44v2.4h3.5V60z M52.5,60.6h-1.7v3.3h-1.5v-8.6h3c1,0,1.8,0.2,2.3,0.7c0.5,0.4,0.8,1.1,0.8,1.9c0,0.6-0.1,1.1-0.4,1.5
		c-0.3,0.4-0.7,0.7-1.2,0.9l1.9,3.6v0.1h-1.6L52.5,60.6z M50.9,59.4h1.5c0.5,0,0.9-0.1,1.2-0.4c0.3-0.3,0.4-0.6,0.4-1
		c0-0.5-0.1-0.8-0.4-1.1c-0.3-0.3-0.7-0.4-1.2-0.4h-1.6V59.4z M34.5,4.7v8.6l7.1,5.2l7-4.1v-8c-1.9-1.9-4.2-3.4-6.6-4.5L34.5,4.7z
		M33.4,15.2l-6.8,5l2.6,8.1h8.5l2.6-8.1L33.4,15.2z M39.1,42.4l4-6.4L38,30.5h-9.1L23.7,36l4,6.4C31.4,43.4,35.4,43.4,39.1,42.4z
		M28.1,0.7l5.3,2l5.3-2C35.2-0.2,31.6-0.2,28.1,0.7L28.1,0.7z M49.5,16.4l-7,4.1l-2.8,8.6l5.1,5.4l7.7-2.9c0.3-0.5,0.5-1,0.7-1.5
		c1-2.3,1.5-4.7,1.7-7.2L49.5,16.4z M27.1,29.1l-2.8-8.6l-7-4.1l-5.4,6.4c0.1,2.3,0.7,4.6,1.5,6.8c0.2,0.6,0.5,1.2,0.8,1.8l7.7,3
		L27.1,29.1z M50.5,34.7l-5.2,2l-2.7,4.4C45.7,39.6,48.4,37.5,50.5,34.7z M50.9,9v5.5l3.9,4.6C54.4,15.5,53.1,12,50.9,9L50.9,9z
		M24.2,41.1l-2.7-4.4l-5.2-2C18.4,37.5,21.1,39.6,24.2,41.1z M25.1,18.4l7.1-5.2V4.7l-7.5-2.8c-2.5,1.1-4.7,2.6-6.6,4.5v8L25.1,18.4
		z M11.9,19.2l3.9-4.6V9C13.7,12,12.4,15.5,11.9,19.2z"
	></path>
</svg>