<?xml version="1.0" encoding="utf-8"?>
<!-- Generator: Adobe Illustrator 25.3.1, SVG Export Plug-In . SVG Version: 6.00 Build 0)  -->
<svg version="1.1" id="Layer_1" xmlns="http://www.w3.org/2000/svg" xmlns:xlink="http://www.w3.org/1999/xlink" x="0px" y="0px"
	 viewBox="0 0 456 144" style="enable-background:new 0 0 456 144;" xml:space="preserve">
<style type="text/css">
	.st0{fill:#0E2857;}
	.st1{fill:none;}
	.st2{fill:#929EB4;}
	.st3{fill:#0C4999;}
	.st4{fill:#1298FF;}
</style>
<path class="st0" d="M180.3,42.4v-5.6c0-2.8-1.3-4.2-3.5-4.2h-0.3c-2,0-3.4,1.4-3.4,4.2v7.8h-9.8V37c0-8,5-12.5,13-12.5h0.7
	c8,0,13.1,4.5,13.1,12.9v5.5c0,5.8-2.2,8.2-5.8,12.1l-8.9,10.1c-2,2.3-2.3,3.5-2.3,6.4v3.4H190v8.7h-26.8V71.9
	c0-6.4,1.6-8.7,5.3-12.8l9.1-10.3C179.7,46.5,180.3,45.3,180.3,42.4z M205.3,24.5h0.7c8,0,13.4,4.7,13.4,13.2v33.4
	c0,8.4-5.5,13.2-13.4,13.2h-0.7c-8,0-13.3-4.7-13.3-13.2V37.7C192,29.2,197.3,24.5,205.3,24.5z M205.9,32.6h-0.3
	c-2.2,0-3.6,1.3-3.6,4.7v34c0,3.3,1.4,4.7,3.6,4.7h0.3c2,0,3.6-1.4,3.6-4.7v-34C209.5,34,207.9,32.6,205.9,32.6z M235,24.5h0.7
	c8,0,13.4,4.7,13.4,13.2v33.4c0,8.4-5.5,13.2-13.4,13.2H235c-8,0-13.3-4.7-13.3-13.2V37.7C221.7,29.2,227,24.5,235,24.5z
	 M235.6,32.6h-0.3c-2.2,0-3.6,1.3-3.6,4.7v34c0,3.3,1.4,4.7,3.6,4.7h0.3c2,0,3.6-1.4,3.6-4.7v-34C239.2,34,237.6,32.6,235.6,32.6z
	 M259.4,24.6h0.6c5.7,0,8.9,3.4,8.9,9.8v7.9c0,6.4-3.4,9.8-8.9,9.8h-0.6c-5.7,0-8.8-3.4-8.8-9.8v-7.9
	C250.6,27.9,253.6,24.6,259.4,24.6z M287.9,25.1l-30,58.5h-6.6l30-58.5C281.3,25.1,287.9,25.1,287.9,25.1z M259.8,30.4h-0.2
	c-1.4,0-2.2,1-2.2,3.1v9.6c0,2,0.7,3,2.2,3h0.2c1.4,0,2.2-1,2.2-3v-9.6C262,31.5,261.3,30.4,259.8,30.4z M279.3,56.7h0.5
	c5.8,0,8.9,3.4,8.9,9.8v7.9c0,6.4-3.4,9.8-8.8,9.8h-0.6c-5.8,0-8.8-3.4-8.8-9.8v-7.9C270.4,60.1,273.5,56.7,279.3,56.7z M279.7,62.6
	h-0.2c-1.4,0-2.2,1-2.2,3.1v9.6c0,2,0.7,3.1,2.2,3.1h0.2c1.3,0,2.2-0.9,2.2-3.1v-9.6C281.8,63.5,280.9,62.6,279.7,62.6z"/>
<rect id="Rectangle_2291_2_" class="st1" width="456" height="144"/>
<path class="st2" d="M120.1,96.3c-0.4-0.3-1-0.4-1.5-0.3s-1,0.4-1.3,0.8c-13.7,20.1-41.1,25.2-61.1,11.5C44.2,100.1,37,86.5,37,72
	v-1.2l4.6,4.6c0.8,0.8,2,0.9,2.8,0.1s0.9-2,0.1-2.8l-0.1-0.1l-8-8c-0.1-0.1-0.2-0.2-0.3-0.3L36,64.2c-0.1,0-0.1-0.1-0.2-0.1
	c-0.1,0-0.1,0-0.2-0.1c-0.1,0-0.1,0-0.2-0.1c-0.3-0.1-0.5-0.1-0.8,0c-0.1,0-0.1,0-0.2,0.1c-0.1,0-0.1,0-0.2,0.1
	c-0.1,0-0.1,0.1-0.2,0.1c0,0-0.1,0-0.1,0.1c-0.1,0.1-0.2,0.2-0.3,0.3l-8,8c-0.8,0.8-0.8,2,0,2.8s2,0.8,2.8,0l0,0l4.6-4.6V72
	c0,26.5,21.5,48,48,48c15.9,0,30.7-7.8,39.6-20.9C121.3,98.1,121,96.9,120.1,96.3L120.1,96.3L120.1,96.3z M136.4,68.6
	c-0.8-0.8-2-0.8-2.8,0l-4.6,4.6V72c0-26.5-21.5-48-48-48c-15.9,0-30.7,7.8-39.6,20.9c-0.6,0.9-0.3,2.2,0.6,2.8
	c0.9,0.6,2.1,0.3,2.7-0.5c13.7-20.1,41.1-25.3,61.1-11.6c12,8.2,19.2,21.8,19.2,36.4v1.2l-4.6-4.6c-0.8-0.8-2.1-0.7-2.8,0
	c-0.7,0.8-0.7,2,0,2.8l8,8c0.1,0.1,0.2,0.2,0.3,0.3l0.1,0.1c0.1,0,0.1,0.1,0.2,0.1s0.1,0,0.2,0.1c0.1,0,0.1,0,0.2,0.1
	c0.3,0.1,0.5,0.1,0.8,0c0.1,0,0.1,0,0.2-0.1c0.1,0,0.1,0,0.2-0.1c0.1,0,0.1-0.1,0.2-0.1c0,0,0.1,0,0.1-0.1c0.1-0.1,0.2-0.2,0.3-0.3
	l8-8C137.2,70.6,137.2,69.4,136.4,68.6L136.4,68.6z M59,90c-1.1,0-2,0.9-2,2s0.9,2,2,2h14v10c0,1.1,0.9,2,2,2s2-0.9,2-2V94h8v10
	c0,1.1,0.9,2,2,2s2-0.9,2-2V94h4c6.6,0,12-5.4,12-12c0-5-3.1-9.5-7.8-11.3c4.8-4.5,5.1-12.1,0.6-16.9C95.5,51.4,92.3,50,89,50V40
	c0-1.1-0.9-2-2-2s-2,0.9-2,2v10h-8V40c0-1.1-0.9-2-2-2s-2,0.9-2,2v10H59c-1.1,0-2,0.9-2,2s0.9,2,2,2h6v36H59z M89,54
	c4.4,0,8,3.6,8,8s-3.6,8-8,8H69V54H89z M69,74h24c4.4,0,8,3.6,8,8s-3.6,8-8,8H69V74z"/>
<path class="st3" d="M314.3,56.6c-1.7,1.7-4,2.5-6.5,2.5c-6.5,0-9.1-4.2-9.1-8.8c0-4.4,2.8-9,9.1-9c2.3,0,4.5,0.9,6.2,2.6l-2.4,2.4
	c-1-1-2.5-1.4-3.9-1.4c-3.9,0-5.4,3-5.3,5.5s1.4,5.3,5.3,5.3c1.4,0,3.2-0.6,4.2-1.6L314.3,56.6z M330.7,58.7h-4.2l-4.3-5.6h-2.7v5.6
	h-3.8v-17c2.8,0,5.3,0,8.1,0c4.1,0,6.3,2.7,6.3,5.7c0,2.2-0.7,4.2-3.9,5.3l4.7,5.6V58.7z M319.4,45v5h4.3c1.7,0,2.5-1.3,2.5-2.4
	c0-1.2-0.8-2.6-2.6-2.6H319.4z M337.9,48.5l4.3-6.8h4.3v0.2L339.8,52v6.8H336V52l-6.5-10.1v-0.2h4.4L337.9,48.5z M351.2,53.9v4.8
	h-3.8v-17c2.7,0,5.3,0,8,0c4.3,0,6.5,2.8,6.5,6.1c0,3.4-2.2,6-6.5,6.1H351.2z M351.2,50.4h4.2c1.8,0,2.7-1.2,2.7-2.6
	s-0.9-2.6-2.7-2.6h-4.2V50.4z M367.1,45.1h-5.2v-3.4c5,0,9.1,0,14.1,0v3.4h-5.2v13.6h-3.8V45.1z M385.3,59.1c-5.4,0-9.2-3.4-9.2-8.9
	c0-5.5,3.7-8.9,9.2-8.9s9.2,3.4,9.2,8.9C394.4,55.7,390.7,59.1,385.3,59.1z M385.3,44.7c-3.2,0-5.5,2.4-5.5,5.5
	c0,3.2,2.2,5.5,5.5,5.5c3.3,0,5.5-2.3,5.5-5.5C390.7,47.1,388.6,44.7,385.3,44.7z M308.1,66.2c3.2,0,5.9,1.5,5.9,4.6
	c0,1.4-0.6,2.7-2.3,3.5c2.2,0.8,3.1,3,2.7,4.9c-0.5,2.7-2.8,4-6.2,4c-2.7,0-5.8,0-8.5,0v-17H308.1z M303.4,72.9h4.6
	c1.5,0,2.2-0.6,2.2-1.6c0-1-0.7-1.7-2.2-1.7h-4.7V72.9z M303.4,79.9h4.7c1.7,0,2.5-0.8,2.5-1.9s-0.9-2-2.6-2c-1.5,0-3.1,0-4.6,0
	V79.9z M324.6,83.7c-5.4,0-9.2-3.4-9.2-8.9c0-5.5,3.7-8.9,9.2-8.9s9.2,3.4,9.2,8.9C333.8,80.3,330,83.7,324.6,83.7z M324.6,69.2
	c-3.2,0-5.5,2.4-5.5,5.5c0,3.2,2.2,5.5,5.5,5.5c3.3,0,5.5-2.3,5.5-5.5C330,71.6,327.9,69.2,324.6,69.2z M347.4,77.3l-0.2-5.3v-5.7
	h3.8v17h-3.3l-8.5-10.9l0.1,5.6v5.3h-3.8v-17h3.3L347.4,77.3z M369,66.3v9.5c0,5.1-2.8,7.7-7.3,7.9c-4.4,0.1-8.2-2.4-8.2-7.9v-9.5
	h3.8v9.5c0,3,1.7,4.6,4.5,4.5c2.6-0.2,3.5-1.9,3.5-4.5v-9.5H369z M381.7,70.4c-0.9-1-2.6-1.4-3.9-1.4c-1.7,0-3,0.7-3,1.9
	c0,1.6,1.5,1.8,3.7,2c3.4,0.3,6.5,1.6,6.5,5.5c0,3.8-3.5,5.4-7.2,5.5c-2.9,0-6-1.1-7.4-3.5l2.3-2.4c1.3,1.7,3.5,2.4,5.2,2.4
	c2,0,3.4-0.8,3.4-2c0-1.4-1.1-2.1-3.4-2.3c-3.6-0.3-6.8-1.2-6.8-5.2c0-3.4,3.2-5.2,6.7-5.2c2.6,0,4.6,0.6,6.3,2.6L381.7,70.4z"/>
<path class="st2" d="M163.6,103.7h1.8v-6.6l-1.7,0.5v-1.4l3.2-1v8.5h1.7v1.3h-5V103.7z M176.4,96.7h-5.5v2.1h2.2
	c2.2,0,3.8,1,3.8,3.1c0,2.1-1.7,3.2-3.8,3.2c-2.1,0-4-0.7-4-3h1.6c0,1.2,1.4,1.5,2.4,1.5c1.2,0,2.3-0.6,2.3-1.8c0-1.1-1-1.7-2.3-1.7
	h-3.7c0-1.7,0-3.3,0-5h7V96.7z M177.8,99.3c0-5.7,8.2-5.7,8.2,0v1.7c0,5.7-8.2,5.7-8.2,0V99.3z M179.4,101c0,3.7,5.1,3.7,5.1,0v-1.7
	c0-3.7-5.1-3.7-5.1,0V101z M189,99.3c-2.9,0-2.9-4.3,0-4.3C191.9,95.1,191.9,99.3,189,99.3z M195.3,95.2L189,105h-1.4l6.3-9.8H195.3
	z M189,98.3c1.5,0,1.4-2.2,0-2.2S187.5,98.3,189,98.3z M194,105.1c-2.9,0-2.9-4.3,0-4.3C196.9,100.9,196.9,105.1,194,105.1z
	 M194,104.1c1.5,0,1.4-2.2,0-2.2C192.5,101.9,192.5,104.1,194,104.1z M206.1,97.4c-0.5-0.7-1.4-1.1-2.4-1.1c-1.3,0-2.3,0.5-2.3,1.5
	c0,1,1.1,1.2,2.4,1.4c2,0.3,3.9,0.8,3.9,3c0,2.2-2,3-4.1,3c-1.9,0-3.3-0.6-4.2-2.2l1.2-0.8c0.7,1.2,1.9,1.6,3.1,1.6
	c1.2,0,2.5-0.4,2.5-1.6c0-1.1-1.1-1.4-2.5-1.6c-1.9-0.3-3.8-0.8-3.8-2.9c0-2,2-2.8,3.8-2.8c1.4,0,2.8,0.3,3.7,1.7L206.1,97.4z
	 M210.5,102v3h-1.6v-9.8c1.5,0,3,0,4.5,0c4.7,0,4.7,6.8,0,6.8H210.5z M210.5,100.6h3c2.6,0,2.6-3.9,0-3.9h-3V100.6z M227.5,100.2
	c0,2.6-1.6,5.1-5,5.1s-5-2.5-5-5.1c0-3,2.1-5.1,5-5.1C225.8,95,227.5,97.5,227.5,100.2z M222.5,103.8c2.4,0,3.5-1.7,3.5-3.6
	c0-1.8-1-3.7-3.4-3.7c-2.3,0-3.5,1.6-3.5,3.7C219,101.9,220,103.8,222.5,103.8z M237.2,105h-1.8l-3-3.4h-2.1v3.4h-1.6v-9.8
	c1.5,0,3,0,4.6,0c2.3,0,3.5,1.6,3.5,3.2c0,1.4-0.7,2.8-2.7,3.1l2.9,3.3L237.2,105z M230.3,96.6v3.6h3c1.3,0,1.9-0.8,1.9-1.8
	c0-0.9-0.6-1.8-1.9-1.8H230.3z M240.4,96.6h-3.2v-1.4c2.8,0,5.2,0,8,0v1.4h-3.2v8.4h-1.6V96.6z M251.9,97.4
	c-0.5-0.7-1.4-1.1-2.4-1.1c-1.3,0-2.3,0.5-2.3,1.5c0,1,1.1,1.2,2.4,1.4c2,0.3,3.9,0.8,3.9,3c0,2.2-2,3-4.1,3c-1.9,0-3.3-0.6-4.2-2.2
	l1.2-0.8c0.7,1.2,1.9,1.6,3.1,1.6c1.2,0,2.5-0.4,2.5-1.6c0-1.1-1.1-1.4-2.5-1.6c-1.9-0.3-3.8-0.8-3.8-2.9c0-2,2-2.8,3.8-2.8
	c1.4,0,2.8,0.3,3.7,1.7L251.9,97.4z M259.2,95.2c1.9,0,3.3,0.9,3.3,2.8c0,0.8-0.4,1.6-1.4,1.9c1.2,0.4,1.7,1.5,1.7,2.3
	c0,2.1-1.7,2.8-3.6,2.8c-1.5,0-3,0-4.5,0v-9.8H259.2z M256.3,99.3h3c1.2,0,1.8-0.5,1.8-1.2c0-0.7-0.6-1.4-1.8-1.4h-2.9V99.3z
	 M256.3,103.6h2.9c0.9,0,2.1-0.3,2.1-1.4c0-1.1-1.2-1.5-2.1-1.5c-1,0-2,0-3,0V103.6z M273.6,100.2c0,2.6-1.6,5.1-5,5.1
	c-3.4,0-5-2.5-5-5.1c0-3,2.1-5.1,5-5.1C272,95,273.6,97.5,273.6,100.2z M268.6,103.8c2.4,0,3.5-1.7,3.5-3.6c0-1.8-1-3.7-3.4-3.7
	c-2.3,0-3.5,1.6-3.5,3.7C265.2,101.9,266.2,103.8,268.6,103.8z M284.4,100.2c0,2.6-1.6,5.1-5,5.1c-3.4,0-5-2.5-5-5.1
	c0-3,2.1-5.1,5-5.1C282.7,95,284.4,97.5,284.4,100.2z M279.3,103.8c2.4,0,3.5-1.7,3.5-3.6c0-1.8-1-3.7-3.4-3.7
	c-2.3,0-3.5,1.6-3.5,3.7C275.9,101.9,276.9,103.8,279.3,103.8z M293.2,95.3l-4.5,4.7l4.9,5v0.1h-2l-4.4-4.5v4.5h-1.6v-9.8h1.6v4.2
	l4-4.2L293.2,95.3L293.2,95.3z M298.4,99.5v-2.2h1.4v2.2h2.2v1.3h-2.2v2.2h-1.4v-2.2h-2.2v-1.3H298.4z M313,96.7h-5.5v2.1h2.2
	c2.2,0,3.8,1,3.8,3.1c0,2.1-1.7,3.2-3.8,3.2c-2.1,0-4-0.7-4-3h1.6c0,1.2,1.4,1.5,2.4,1.5c1.2,0,2.3-0.6,2.3-1.8c0-1.1-1-1.7-2.3-1.7
	H306c0-1.7,0-3.3,0-5h7V96.7z M314.4,99.3c0-5.7,8.2-5.7,8.2,0v1.7c0,5.7-8.2,5.7-8.2,0V99.3z M316,101c0,3.7,5.1,3.7,5.1,0v-1.7
	c0-3.7-5.1-3.7-5.1,0V101z M325.6,99.3c-2.9,0-2.9-4.3,0-4.3C328.5,95.1,328.5,99.3,325.6,99.3z M332,95.2l-6.3,9.8h-1.4l6.3-9.8
	H332z M325.6,98.3c1.5,0,1.4-2.2,0-2.2S324.1,98.3,325.6,98.3z M330.6,105.1c-2.9,0-2.9-4.3,0-4.3
	C333.5,100.9,333.5,105.1,330.6,105.1z M330.6,104.1c1.5,0,1.4-2.2,0-2.2S329.1,104.1,330.6,104.1z M345.1,103.8
	c-1,1-2.3,1.5-3.7,1.5c-3.6,0-5.2-2.5-5.2-5c0-2.6,1.7-5.1,5.2-5.1c1.3,0,2.6,0.5,3.6,1.5l-1,1c-0.7-0.7-1.6-1-2.5-1
	c-2.5,0-3.6,1.8-3.6,3.6c0,1.8,1.1,3.6,3.6,3.6c0.9,0,1.9-0.4,2.6-1.1L345.1,103.8z M353,103h-5.3l-0.9,2.1h-1.7l4.4-9.8h1.7
	l4.4,9.8h-1.7L353,103z M350.3,96.9l-2.1,4.7h4.1L350.3,96.9z M362,97.4c-0.5-0.7-1.4-1.1-2.4-1.1c-1.3,0-2.3,0.5-2.3,1.5
	c0,1,1.1,1.2,2.4,1.4c2,0.3,3.9,0.8,3.9,3c0,2.2-2,3-4.1,3c-1.9,0-3.3-0.6-4.2-2.2l1.2-0.8c0.7,1.2,1.9,1.6,3.1,1.6
	c1.2,0,2.5-0.4,2.5-1.6c0-1.1-1.1-1.4-2.5-1.6c-1.9-0.3-3.8-0.8-3.8-2.9c0-2,2-2.8,3.8-2.8c1.4,0,2.8,0.3,3.7,1.7L362,97.4z
	 M364.9,105v-9.8h1.6v9.8H364.9z M375.1,102.2v-7h1.6v9.8h-1.2l-5.6-6.9v6.9h-1.6v-9.8h1.2L375.1,102.2z M388,100.2
	c0,2.6-1.6,5.1-5,5.1c-3.4,0-5-2.5-5-5.1c0-3,2.1-5.1,5-5.1C386.4,95,388,97.5,388,100.2z M383,103.8c2.4,0,3.5-1.7,3.5-3.6
	c0-1.8-1-3.7-3.4-3.7c-2.3,0-3.5,1.6-3.5,3.7C379.5,101.9,380.6,103.8,383,103.8z"/>
<path class="st4" d="M171.7,117.6l-2.9,4h-0.3l-2.8-4v6.4h-1.3v-8.4c0.5,0,1,0,1.6,0l2.8,3.9l2.8-3.9h1.6v8.4h-1.3V117.6z
	 M183.2,119.8c0,2.3-1.4,4.3-4.3,4.3c-2.9,0-4.3-2.1-4.3-4.3c0-2.6,1.8-4.4,4.3-4.4C181.8,115.5,183.2,117.6,183.2,119.8z
	 M178.9,122.9c2.1,0,3-1.5,3-3.1c0-1.5-0.9-3.2-2.9-3.2c-1.9,0-3,1.4-3,3.2C176,121.3,176.8,122.9,178.9,122.9z M192.1,124h-1.6
	l-2.6-2.9h-1.8v2.9h-1.3v-8.4c1.3,0,2.6,0,3.9,0c1.9,0,3,1.3,3,2.7c0,1.2-0.6,2.4-2.3,2.6l2.5,2.8L192.1,124z M186.2,116.8v3h2.6
	c1.1,0,1.6-0.7,1.6-1.5c0-0.8-0.5-1.5-1.6-1.5H186.2z M199.7,124h-6.2c0-2.8,0-5.6,0-8.4h6.2v1.3h-4.8v2.3h4.6v1.2h-4.6v2.3h4.9V124
	z M204.4,124v-8.4h1.3v8.4H204.4z M213.7,121.6v-6h1.3v8.4h-1l-4.8-5.9v5.9h-1.4v-8.4h1L213.7,121.6z M217.1,124v-8.4h5.9v1.3h-4.6
	v2.6h4.4v1.2h-4.4v3.3H217.1z M232.7,119.8c0,2.3-1.4,4.3-4.3,4.3c-2.9,0-4.3-2.1-4.3-4.3c0-2.6,1.8-4.4,4.3-4.4
	C231.3,115.5,232.7,117.6,232.7,119.8z M228.4,122.9c2.1,0,3-1.5,3-3.1c0-1.5-0.9-3.2-2.9-3.2c-1.9,0-3,1.4-3,3.2
	C225.5,121.3,226.4,122.9,228.4,122.9z"/>
</svg>
