<?xml version="1.0" encoding="utf-8"?>
<!-- Generator: Adobe Illustrator 28.1.0, SVG Export Plug-In . SVG Version: 6.00 Build 0)  -->
<svg version="1.1" id="Layer_1" xmlns="http://www.w3.org/2000/svg" xmlns:xlink="http://www.w3.org/1999/xlink" x="0px" y="0px"
	 viewBox="0 0 244 144" style="enable-background:new 0 0 244 144;" xml:space="preserve">
<style type="text/css">
	.st0{fill:none;}
	.st1{fill:#929EB4;}
	.st2{fill:#1298FF;}
	.st3{fill:#0E2857;}
	.st4{fill:#0C4999;}
</style>
<rect id="Rectangle_2294_3_" class="st0" width="244" height="144"/>
<path class="st1" d="M175.8,96.1h-0.7l0.2-1c-0.3-0.1-0.5-0.2-0.5-0.6c0-0.8,1.4-0.9,1.4,0C176.3,94.7,176.2,94.9,175.8,96.1z"/>
<path class="st1" d="M53,89.2l-2.6,3.6h-0.3l-2.6-3.6v5.9h-1.2v-7.7c0.5,0,0.9,0,1.4,0l2.5,3.6l2.5-3.6h1.4v7.7H53V89.2z M61.1,93.5
	h-4.2l-0.7,1.6h-1.3l3.5-7.7h1.3l3.5,7.7h-1.3L61.1,93.5z M59,88.7l-1.6,3.7h3.3L59,88.7z M64.8,88.5h-2.5v-1.1c2.2,0,4.1,0,6.3,0
	v1.1h-2.5v6.6h-1.2v-6.6H64.8z M75.6,94.1c-0.8,0.8-1.8,1.1-2.9,1.1c-2.8,0-4-1.9-4.1-3.9c0-2,1.3-4,4.1-4c1,0,2,0.4,2.8,1.2
	l-0.8,0.8c-0.5-0.5-1.3-0.8-2-0.8c-2,0-2.8,1.4-2.8,2.9c0,1.4,0.8,2.8,2.8,2.8c0.7,0,1.5-0.3,2-0.8L75.6,94.1z M81.7,95.1v-3.2h-4.1
	v3.2h-1.2v-7.7h1.2v3.4h4.1v-3.4h1.2v7.7H81.7z M90.2,87.4c1.5,0,2.6,0.7,2.6,2.2c0,0.6-0.3,1.2-1.1,1.5c0.9,0.3,1.3,1.2,1.3,1.8
	c0,1.7-1.3,2.2-2.9,2.2c-1.2,0-2.3,0-3.5,0v-7.7H90.2z M87.9,90.6h2.3c0.9,0,1.4-0.4,1.4-1c0-0.5-0.5-1.1-1.4-1.1h-2.3V90.6z
	 M87.9,93.9h2.3c0.7,0,1.6-0.2,1.6-1.1c0-0.8-0.9-1.2-1.6-1.2c-0.8,0-1.5,0-2.3,0V93.9z M101.5,91.3c0,2.1-1.3,4-3.9,4
	c-2.7,0-3.9-1.9-3.9-4c0-2.3,1.6-4,4-4C100.2,87.2,101.5,89.2,101.5,91.3z M97.6,94.1c1.9,0,2.7-1.4,2.7-2.8s-0.8-2.9-2.7-2.9
	c-1.8,0-2.7,1.2-2.7,2.9C94.9,92.6,95.7,94.1,97.6,94.1z M107.9,92.9v-5.5h1.2v7.7h-0.9l-4.4-5.4v5.4h-1.2v-7.7h0.9L107.9,92.9z
	 M117,87.4v4.5c0,2.3-1.5,3.4-3.4,3.3c-1.7,0-3.2-1.1-3.2-3.3v-4.5h1.2v4.5c0,1.4,0.8,2.2,2,2.2c1.2,0.1,2.1-0.7,2.1-2.2v-4.5H117z
	 M123,89.1c-0.4-0.5-1.1-0.8-1.9-0.9c-1,0-1.8,0.4-1.8,1.2c0,0.7,0.9,1,1.9,1.1c1.6,0.2,3.1,0.7,3.1,2.4c0,1.7-1.6,2.4-3.2,2.4
	c-1.5,0-2.6-0.5-3.3-1.7l0.9-0.6c0.5,0.9,1.5,1.3,2.4,1.3S123,94,123,93c0-0.8-0.9-1.1-2-1.3c-1.5-0.2-3-0.6-3-2.2s1.6-2.2,3-2.2
	c1.1,0,2.2,0.3,2.9,1.3L123,89.1z M134,87.4v4.5c0,2.3-1.5,3.4-3.4,3.3c-1.7,0-3.2-1.1-3.2-3.3v-4.5h1.2v4.5c0,1.4,0.8,2.2,2,2.2
	c1.2,0.1,2.1-0.7,2.1-2.2v-4.5H134z M136.6,92.7v2.4h-1.2v-7.7c1.2,0,2.4,0,3.6,0c3.7,0,3.7,5.3,0,5.3
	C139,92.7,136.6,92.7,136.6,92.7z M136.6,91.6h2.3c2,0,2-3.1,0-3.1h-2.3V91.6z M146,88.5h-2.5v-1.1c2.2,0,4.1,0,6.3,0v1.1h-2.5v6.6
	H146V88.5z M157.7,91.3c0,2.1-1.3,4-3.9,4c-2.7,0-3.9-1.9-3.9-4c0-2.3,1.6-4,4-4C156.4,87.2,157.7,89.2,157.7,91.3z M153.7,94.1
	c1.9,0,2.7-1.4,2.7-2.8s-0.8-2.9-2.7-2.9c-1.8,0-2.7,1.2-2.7,2.9C151,92.6,151.8,94.1,153.7,94.1z M165.7,89.1
	c-0.3-0.5-1.1-0.9-1.9-0.9c-0.9,0-1.9,0.4-1.9,1.2c0,0.8,0.9,0.9,1.9,1.1c1.6,0.2,3.2,0.6,3.2,2.4c0,1.5-1.3,2.2-2.7,2.3v1.1h-1.2
	v-1.1c-1.1-0.1-2.4-0.6-2.9-1.7l1-0.5c0.3,0.8,1.4,1.2,2.3,1.2c1,0,2-0.3,2-1.3c0-0.8-1-1.1-2.1-1.2c-1.5-0.2-3-0.5-3-2.2
	c0-1.4,1.3-2.1,2.6-2.2v-1h1.2v1c0.9,0.1,1.7,0.4,2.3,1.3L165.7,89.1z M173.3,88.5H169v1.6h1.7c1.7,0,3,0.8,3,2.5
	c0,1.6-1.3,2.5-3,2.5c-1.6,0-3.1-0.6-3.1-2.3h1.2c0,1,1.1,1.2,1.9,1.2c0.9,0,1.8-0.4,1.8-1.4c0-0.9-0.8-1.3-1.8-1.3h-2.9
	c0-1.3,0-2.6,0-3.9h5.5L173.3,88.5L173.3,88.5z M176.7,90.6c0-4.5,6.4-4.5,6.4,0v1.3c0,4.5-6.4,4.5-6.4,0V90.6z M177.9,91.9
	c0,2.9,4,2.9,4,0v-1.3c0-2.9-4-2.9-4,0V91.9z M184,90.6c0-4.5,6.4-4.5,6.4,0v1.3c0,4.5-6.4,4.5-6.4,0V90.6z M185.2,91.9
	c0,2.9,4,2.9,4,0v-1.3c0-2.9-4-2.9-4,0V91.9z M191.2,90.6c0-4.5,6.4-4.5,6.4,0v1.3c0,4.5-6.4,4.5-6.4,0V90.6z M192.5,91.9
	c0,2.9,4,2.9,4,0v-1.3c0-2.9-4-2.9-4,0V91.9z"/>
<path class="st2" d="M95.1,117.6l-2.9,4H92l-2.8-4v6.4h-1.3v-8.4c0.5,0,1,0,1.6,0l2.8,3.9l2.8-3.9h1.6v8.4h-1.3v-6.4H95.1z
	 M106.7,119.8c0,2.3-1.4,4.3-4.3,4.3s-4.3-2.1-4.3-4.3c0-2.6,1.8-4.4,4.3-4.4C105.3,115.5,106.7,117.6,106.7,119.8z M102.4,122.9
	c2.1,0,3-1.5,3-3.1c0-1.5-0.9-3.2-2.9-3.2c-1.9,0-3,1.4-3,3.2C99.4,121.3,100.3,122.9,102.4,122.9z M115.5,124h-1.6l-2.6-2.9h-1.8
	v2.9h-1.3v-8.4c1.3,0,2.6,0,3.9,0c1.9,0,3,1.3,3,2.7c0,1.2-0.6,2.4-2.3,2.6l2.5,2.8L115.5,124z M109.6,116.8v3h2.6
	c1.1,0,1.6-0.7,1.6-1.5s-0.5-1.5-1.6-1.5H109.6z M123.1,124h-6.2c0-2.8,0-5.6,0-8.4h6.2v1.3h-4.8v2.3h4.6v1.2h-4.6v2.3h4.9
	L123.1,124L123.1,124z M127.9,124v-8.4h1.3v8.4H127.9z M137.1,121.6v-6h1.3v8.4h-1l-4.8-5.9v5.9h-1.4v-8.4h1L137.1,121.6z
	 M140.6,124v-8.4h5.9v1.3h-4.6v2.6h4.4v1.2h-4.4v3.3H140.6z M156.2,119.8c0,2.3-1.4,4.3-4.3,4.3c-2.9,0-4.3-2.1-4.3-4.3
	c0-2.6,1.8-4.4,4.3-4.4C154.8,115.5,156.2,117.6,156.2,119.8z M151.9,122.9c2.1,0,3-1.5,3-3.1c0-1.5-0.9-3.2-2.9-3.2
	c-1.9,0-3,1.4-3,3.2C149,121.3,149.8,122.9,151.9,122.9z"/>
<g>
	<g>
		<path class="st3" d="M48.1,43.6v-4.3c0-2.1-1-3.2-2.6-3.2h-0.2c-1.5,0-2.6,1-2.6,3.2v5.9h-7.4v-5.7c0-6,3.8-9.5,9.9-9.5h0.5
			c6.1,0,9.9,3.4,9.9,9.8V44c0,4.4-1.7,6.2-4.4,9.2l-6.8,7.7c-1.5,1.8-1.8,2.6-1.8,4.9v2.6h12.9v6.6H35.2V66c0-4.9,1.2-6.6,4-9.7
			l6.9-7.8C47.6,46.7,48.1,45.8,48.1,43.6z"/>
		<path class="st3" d="M67,30h0.5c6,0,10.2,3.6,10.2,10v25.4c0,6.4-4.1,10-10.2,10H67c-6.1,0-10.1-3.6-10.1-10V40
			C56.9,33.6,60.9,30,67,30z M67.4,36.1h-0.2c-1.6,0-2.7,1-2.7,3.6v25.9c0,2.5,1.1,3.6,2.7,3.6h0.2c1.5,0,2.7-1.1,2.7-3.6V39.7
			C70.2,37.2,68.9,36.1,67.4,36.1z"/>
		<path class="st3" d="M89.4,30H90c6,0,10.2,3.6,10.2,10v25.4c0,6.4-4.1,10-10.2,10h-0.5c-6.1,0-10.1-3.6-10.1-10V40
			C79.3,33.6,83.3,30,89.4,30z M89.9,36.1h-0.2c-1.6,0-2.7,1-2.7,3.6v25.9c0,2.5,1.1,3.6,2.7,3.6h0.2c1.5,0,2.7-1.1,2.7-3.6V39.7
			C92.6,37.2,91.4,36.1,89.9,36.1z"/>
		<path class="st3" d="M107.8,30h0.4c4.3,0,6.8,2.6,6.8,7.4v6c0,4.9-2.6,7.4-6.8,7.4h-0.4c-4.3,0-6.7-2.6-6.7-7.4v-6
			C101.1,32.6,103.5,30,107.8,30z M129.5,30.5l-22.8,44.4h-5l22.8-44.4H129.5z M108.2,34.5H108c-1.1,0-1.6,0.8-1.6,2.4v7.3
			c0,1.5,0.5,2.3,1.6,2.3h0.1c1.1,0,1.6-0.7,1.6-2.3v-7.3C109.8,35.3,109.3,34.5,108.2,34.5z M122.9,54.4h0.4c4.4,0,6.8,2.6,6.8,7.4
			v6c0,4.9-2.6,7.4-6.7,7.4h-0.4c-4.4,0-6.7-2.6-6.7-7.4v-6C116.2,57.1,118.5,54.4,122.9,54.4z M123.2,58.9H123
			c-1.1,0-1.6,0.8-1.6,2.4v7.3c0,1.5,0.5,2.3,1.6,2.3h0.2c1,0,1.6-0.7,1.6-2.3v-7.3C124.9,59.6,124.2,58.9,123.2,58.9z"/>
	</g>
	<g>
		<g>
			<path class="st4" d="M150.5,53.1c-1.4,1.4-3.3,2.1-5.3,2.1c-5.2,0-7.4-3.6-7.4-7.2c0-3.7,2.4-7.4,7.4-7.4c1.9,0,3.7,0.7,5.1,2.1
				l-1.8,1.7c-0.9-0.9-2.2-1.3-3.4-1.3c-3.4,0-4.8,2.5-4.8,4.9c0,2.3,1.4,4.7,4.8,4.7c1.2,0,2.6-0.5,3.5-1.4L150.5,53.1z"/>
			<path class="st4" d="M160.5,52.2h-7.3l-1.2,2.6h-2.9l6.3-14h2.9l6.3,14h-2.9L160.5,52.2z M156.8,43.8l-2.6,6h5.2L156.8,43.8z"/>
			<path class="st4" d="M173.3,44.2c-0.5-0.8-1.8-1.6-3.3-1.6c-2,0-2.9,0.8-2.9,1.9c0,1.2,1.4,1.6,3.1,1.8c2.9,0.4,5.6,1.1,5.6,4.5
				c0,3.1-2.8,4.5-5.9,4.5c-2.9,0-5.1-0.9-6.1-3.4l2.2-1.1c0.6,1.5,2.2,2.2,3.9,2.2c1.7,0,3.2-0.6,3.2-2.1c0-1.3-1.4-1.9-3.2-2.1
				c-2.9-0.3-5.5-1.1-5.5-4.2c0-2.9,2.8-4.1,5.4-4.1c2.2,0,4.4,0.6,5.5,2.8L173.3,44.2z"/>
			<path class="st4" d="M177.1,54.9v-14h2.6v14H177.1z"/>
			<path class="st4" d="M190.6,40.8h2.6v14h-1.6v0l-7.4-9.5v9.4h-2.6v-14h2.1l6.9,8.7V40.8z"/>
			<path class="st4" d="M208.8,47.9c0,3.6-2.3,7.2-7.2,7.2s-7.2-3.5-7.2-7.2s2.4-7.4,7.2-7.4C206.4,40.6,208.8,44.3,208.8,47.9z
				 M197,48c0.1,2.3,1.3,4.8,4.6,4.8s4.5-2.5,4.6-4.8c0-2.4-1.3-5-4.6-5S197,45.6,197,48z"/>
			<path class="st4" d="M149.5,65.1c0,1.1-0.5,2.1-1.8,2.7c1.6,0.5,2.2,2.2,2.2,3.1c0,3.1-2.3,4.1-5.2,4.1c-2.2,0-4.4,0-6.6,0v-14
				c2.2,0,4.4,0,6.6,0C147.5,61.1,149.5,62.3,149.5,65.1z M140.7,66.7h4c1.7,0,2.2-0.7,2.2-1.5c0-0.6-0.5-1.7-2.2-1.7h-4V66.7z
				 M140.7,72.6h4c1.1,0,2.6-0.4,2.6-1.7c0-1.3-1.5-1.9-2.6-1.9h-4V72.6z"/>
			<path class="st4" d="M165,68.1c0,3.6-2.3,7.2-7.2,7.2s-7.2-3.5-7.2-7.2s2.4-7.4,7.2-7.4C162.6,60.8,165,64.5,165,68.1z
				 M153.2,68.2c0.1,2.3,1.3,4.8,4.6,4.8s4.5-2.5,4.6-4.8c0-2.4-1.3-5-4.6-5S153.1,65.8,153.2,68.2z"/>
			<path class="st4" d="M175.3,61h2.6v14h-1.6v0l-7.4-9.5v9.4h-2.6v-14h2.1l6.9,8.7V61z"/>
			<path class="st4" d="M191.8,61.1v8c0,4.1-2.5,6.3-6.1,6.3c-3.4,0-6.2-2-6.2-6.3v-8h2.6v8c0,2.5,1.4,3.9,3.6,3.9s3.4-1.5,3.4-3.9
				v-8H191.8z"/>
			<path class="st4" d="M202.2,64.4c-0.5-0.8-1.8-1.6-3.3-1.6c-2,0-2.9,0.8-2.9,1.9c0,1.2,1.4,1.6,3.1,1.8c2.9,0.4,5.6,1.1,5.6,4.5
				c0,3.1-2.8,4.5-5.9,4.5c-2.9,0-5.1-0.9-6.1-3.4l2.2-1.1c0.6,1.5,2.2,2.2,3.9,2.2c1.7,0,3.2-0.6,3.2-2.1c0-1.3-1.4-1.9-3.2-2.1
				c-2.9-0.3-5.5-1.1-5.5-4.2c0-2.9,2.8-4.1,5.4-4.1c2.2,0,4.4,0.6,5.5,2.8L202.2,64.4z"/>
		</g>
	</g>
</g>
</svg>
