<?xml version="1.0" encoding="utf-8"?>
<!-- Generator: Adobe Illustrator 28.2.0, SVG Export Plug-In . SVG Version: 6.00 Build 0)  -->
<svg version="1.1" id="Layer_1" xmlns="http://www.w3.org/2000/svg" xmlns:xlink="http://www.w3.org/1999/xlink" x="0px" y="0px"
	 viewBox="0 0 244 144" style="enable-background:new 0 0 244 144;" xml:space="preserve">
<style type="text/css">
	.st0{fill:#0E2857;}
	.st1{fill:#0C4999;}
	.st2{fill:#929EB4;}
	.st3{fill:#1298FF;}
	.st4{fill:none;}
</style>
<g>
	<g>
		<g>
			<path class="st0" d="M34.4,36.8v-6.3h10.4v44.4h-7.4V36.8H34.4z"/>
			<path class="st0" d="M59.3,43.6v-4.3c0-2.1-1-3.2-2.6-3.2h-0.2c-1.5,0-2.6,1-2.6,3.2v5.9h-7.4v-5.7c0-6,3.8-9.5,9.9-9.5h0.5
				c6.1,0,9.9,3.4,9.9,9.8V44c0,4.4-1.7,6.2-4.4,9.2l-6.8,7.7c-1.5,1.8-1.8,2.6-1.8,4.9v2.6h12.9v6.6H46.4V66c0-4.9,1.2-6.6,4-9.7
				l6.9-7.8C58.8,46.7,59.3,45.8,59.3,43.6z"/>
			<path class="st0" d="M88.5,55v10.1c0,6.8-3.8,10.2-9.9,10.2H78c-6.1,0-9.9-3.5-9.9-10.1v-6.5h7.5v6.8c0,2.6,1,3.6,2.6,3.6h0.2
				c1.5,0,2.6-1.1,2.6-3.6V55.2c0-2.9-1-4.1-3.6-4.1h-9.3V30.5h20.2v6.3H75.2V45h4C85.7,45,88.5,48.5,88.5,55z"/>
			<path class="st0" d="M96,30h0.4c4.3,0,6.8,2.6,6.8,7.4v6c0,4.9-2.6,7.4-6.8,7.4H96c-4.3,0-6.7-2.6-6.7-7.4v-6
				C89.3,32.6,91.6,30,96,30z M117.6,30.5L94.8,74.9h-5l22.8-44.4H117.6z M96.3,34.5h-0.1c-1.1,0-1.6,0.8-1.6,2.4v7.3
				c0,1.5,0.5,2.3,1.6,2.3h0.1c1.1,0,1.6-0.7,1.6-2.3v-7.3C97.9,35.3,97.4,34.5,96.3,34.5z M111,54.4h0.4c4.4,0,6.8,2.6,6.8,7.4v6
				c0,4.9-2.6,7.4-6.7,7.4H111c-4.4,0-6.7-2.6-6.7-7.4v-6C104.3,57.1,106.7,54.4,111,54.4z M111.4,58.9h-0.2c-1.1,0-1.6,0.8-1.6,2.4
				v7.3c0,1.5,0.5,2.3,1.6,2.3h0.2c1,0,1.6-0.7,1.6-2.3v-7.3C113,59.6,112.3,58.9,111.4,58.9z"/>
		</g>
		<g>
			<g>
				<path class="st1" d="M135.9,44.2c-0.5-0.8-1.8-1.6-3.3-1.6c-2,0-2.9,0.8-2.9,1.9c0,1.2,1.4,1.6,3.1,1.8c2.9,0.4,5.6,1.1,5.6,4.5
					c0,3.1-2.8,4.5-5.9,4.5c-2.9,0-5.1-0.9-6.1-3.4l2.2-1.1c0.6,1.5,2.2,2.2,3.9,2.2c1.7,0,3.2-0.6,3.2-2.1c0-1.3-1.4-1.9-3.2-2.1
					c-2.9-0.3-5.5-1.1-5.5-4.2c0-2.9,2.8-4.1,5.4-4.1c2.2,0,4.4,0.6,5.5,2.8L135.9,44.2z"/>
				<path class="st1" d="M139.6,54.9v-14h2.6v14H139.6z"/>
				<path class="st1" d="M154.3,44.3c-0.9-0.9-2.3-1.4-3.6-1.4c-3,0-4.8,2.3-4.8,5.2c0,2.3,1.3,4.7,4.8,4.7c1.1,0,2.1-0.2,3.2-1.1
					v-2.5h-3.6v-2.4h6v5.9c-1.4,1.6-3.1,2.5-5.6,2.5c-5.3,0-7.4-3.5-7.4-7.1c0-3.9,2.5-7.6,7.4-7.6c1.9,0,3.8,0.7,5.2,2.1
					L154.3,44.3z"/>
				<path class="st1" d="M166.9,40.8h2.6v14h-1.6v0l-7.4-9.5v9.4h-2.6v-14h2.1l6.9,8.7V40.8z"/>
				<path class="st1" d="M170.8,47.2h7.4v2.2h-7.4V47.2z"/>
				<path class="st1" d="M191.7,40.9v8c0,4.1-2.5,6.3-6.1,6.3c-3.4,0-6.2-2-6.2-6.3v-8h2.6v8c0,2.5,1.4,3.9,3.6,3.9s3.4-1.5,3.4-3.9
					v-8H191.7z"/>
				<path class="st1" d="M200.1,50.7h-4v4.1h-2.6v-14c2.2,0,4.4,0,6.6,0C206.9,40.8,207,50.7,200.1,50.7z M196.1,48.3h4
					c3.4,0,3.4-5,0-5h-4V48.3z"/>
				<path class="st1" d="M138.6,65.1c0,1.1-0.5,2.1-1.8,2.7c1.6,0.5,2.2,2.2,2.2,3.1c0,3.1-2.3,4.1-5.2,4.1c-2.2,0-4.4,0-6.6,0v-14
					c2.2,0,4.4,0,6.6,0C136.5,61.1,138.6,62.3,138.6,65.1z M129.7,66.7h4c1.7,0,2.2-0.7,2.2-1.5c0-0.6-0.5-1.7-2.2-1.7h-4V66.7z
					 M129.7,72.6h4c1.1,0,2.6-0.4,2.6-1.7c0-1.3-1.5-1.9-2.6-1.9h-4V72.6z"/>
				<path class="st1" d="M154,68.1c0,3.6-2.3,7.2-7.2,7.2s-7.2-3.5-7.2-7.2s2.4-7.4,7.2-7.4C151.7,60.8,154.1,64.5,154,68.1z
					 M142.3,68.2c0.1,2.3,1.3,4.8,4.6,4.8s4.5-2.5,4.6-4.8c0-2.4-1.3-5-4.6-5S142.2,65.8,142.3,68.2z"/>
				<path class="st1" d="M164.4,61h2.6v14h-1.6v0l-7.4-9.5v9.4h-2.6v-14h2.1l6.9,8.7V61z"/>
				<path class="st1" d="M180.9,61.1v8c0,4.1-2.5,6.3-6.1,6.3c-3.4,0-6.2-2-6.2-6.3v-8h2.6v8c0,2.5,1.4,3.9,3.6,3.9s3.4-1.5,3.4-3.9
					v-8H180.9z"/>
				<path class="st1" d="M191.3,64.4c-0.5-0.8-1.8-1.6-3.3-1.6c-2,0-2.9,0.8-2.9,1.9c0,1.2,1.4,1.6,3.1,1.8c2.9,0.4,5.6,1.1,5.6,4.5
					c0,3.1-2.8,4.5-5.9,4.5c-2.9,0-5.1-0.9-6.1-3.4l2.2-1.1c0.6,1.5,2.2,2.2,3.9,2.2c1.7,0,3.2-0.6,3.2-2.1c0-1.3-1.4-1.9-3.2-2.1
					c-2.9-0.3-5.5-1.1-5.5-4.2c0-2.9,2.8-4.1,5.4-4.1c2.2,0,4.4,0.6,5.5,2.8L191.3,64.4z"/>
			</g>
		</g>
	</g>
	<g>
		<g>
			<path class="st2" d="M47.1,90.9c0,2.2-1.4,4.3-4.3,4.3c-3,0-4.3-2.1-4.3-4.3c0-2.2,1.4-4.4,4.3-4.4
				C45.7,86.5,47.1,88.7,47.1,90.9z M40.1,91c0,1.4,0.8,2.9,2.8,2.9c2,0,2.7-1.5,2.7-2.9c0-1.4-0.8-3-2.7-3C40.8,88,40,89.5,40.1,91
				z"/>
			<path class="st2" d="M53.7,86.7h1.6v8.4h-1v0l-4.4-5.7v5.7h-1.6v-8.4h1.3l4.1,5.2V86.7z"/>
			<path class="st2" d="M62.6,90.1l2.2-3.5h1.9v0.1l-3.3,4.9v3.5h-1.6v-3.5l-3.2-4.9v-0.1h1.9L62.6,90.1z"/>
			<path class="st2" d="M75.7,90.9c0,2.2-1.4,4.3-4.3,4.3S67,93.1,67,90.9c0-2.2,1.4-4.4,4.3-4.4C74.2,86.5,75.7,88.7,75.7,90.9z
				 M68.6,91c0,1.4,0.8,2.9,2.8,2.9c2,0,2.7-1.5,2.7-2.9c0-1.4-0.8-3-2.7-3C69.4,88,68.6,89.5,68.6,91z"/>
			<path class="st2" d="M84.1,86.7v4.8c0,2.5-1.5,3.8-3.6,3.8c-2,0-3.7-1.2-3.7-3.8v-4.8h1.6v4.8c0,1.5,0.9,2.3,2.2,2.3
				c1.3,0,2.1-0.9,2.1-2.3v-4.8H84.1z"/>
			<path class="st2" d="M93.1,95.1h-1.9l-2.4-2.8h-1.5v2.8h-1.6v-8.4c1.3,0,2.7,0,4,0c2,0,3,1.3,3,2.8c0,1.2-0.5,2.3-2.1,2.6
				l2.5,2.9V95.1z M87.2,88.2v2.7h2.4c1,0,1.4-0.7,1.4-1.3s-0.4-1.3-1.4-1.3H87.2z"/>
			<path class="st2" d="M96,95.1v-8.4h6v1.5h-4.4v2.3h4.2V92h-4.2v3.1H96z"/>
			<path class="st2" d="M103.2,95.1v-8.4h1.6v8.4H103.2z"/>
			<path class="st2" d="M113.7,95.1h-1.9l-2.4-2.8h-1.5v2.8h-1.6v-8.4c1.3,0,2.7,0,4,0c2,0,3,1.3,3,2.8c0,1.2-0.5,2.3-2.1,2.6
				l2.5,2.9V95.1z M107.8,88.2v2.7h2.4c1,0,1.4-0.7,1.4-1.3s-0.4-1.3-1.4-1.3H107.8z"/>
			<path class="st2" d="M119.8,88.7c-0.3-0.5-1.1-0.9-2-0.9c-1.2,0-1.7,0.5-1.7,1.1c0,0.7,0.9,0.9,1.9,1.1c1.8,0.2,3.4,0.7,3.4,2.7
				c0,1.9-1.7,2.7-3.5,2.7c-1.7,0-3-0.5-3.7-2.1l1.3-0.7c0.4,0.9,1.3,1.3,2.4,1.3c1,0,1.9-0.3,1.9-1.3c0-0.8-0.8-1.1-1.9-1.2
				c-1.7-0.2-3.3-0.7-3.3-2.5c0-1.7,1.7-2.4,3.2-2.4c1.3,0,2.7,0.4,3.3,1.7L119.8,88.7z"/>
			<path class="st2" d="M124.7,88.1H122v-1.4c2.4,0,4.5,0,6.9,0v1.4h-2.7v7h-1.6V88.1z"/>
			<path class="st2" d="M133.9,91.4v-1.3h1.2c0.9,0,1.8-0.2,1.8-1c0-0.5-0.4-1.1-1.7-1.1c-0.7,0-1.8,0.3-1.8,1h-1.6
				c0-1.8,1.8-2.5,3.3-2.5c1.6,0,3.3,0.8,3.3,2.6c0,0.7-0.4,1.4-1.2,1.7c0.8,0.3,1.4,1.1,1.4,1.8c0,2.1-1.9,2.7-3.5,2.7
				c-1.6,0-3.4-0.7-3.4-2.6h1.6c0,0.9,1.2,1.2,1.8,1.2c0.8,0,1.9-0.3,1.9-1.2c0-0.5-0.3-1.1-1.8-1.1H133.9z"/>
			<path class="st2" d="M149.7,90.8c0,2.1-1.3,4.3-4.2,4.3c-1,0-2.3,0-3.3,0v-8.4c1,0,2.3,0,3.3,0C148.4,86.7,149.7,88.7,149.7,90.8
				z M143.8,93.6h1.7c1.9,0,2.7-1.4,2.6-2.8c0-1.3-0.8-2.6-2.6-2.6h-1.7V93.6z"/>
			<path class="st2" d="M157,95.1h-6.3c0-2.8,0-5.6,0-8.4h6.3v1.5h-4.7v1.9h4.5v1.5h-4.5v1.9h4.7V95.1z"/>
			<path class="st2" d="M162.1,92.6h-2.4v2.5h-1.6v-8.4c1.3,0,2.6,0,4,0C166.2,86.7,166.2,92.6,162.1,92.6z M159.7,91.2h2.4
				c2,0,2-3,0-3h-2.4V91.2z"/>
			<path class="st2" d="M174.4,90.9c0,2.2-1.4,4.3-4.3,4.3c-3,0-4.3-2.1-4.3-4.3c0-2.2,1.4-4.4,4.3-4.4
				C173,86.5,174.5,88.7,174.4,90.9z M167.4,91c0,1.4,0.8,2.9,2.8,2.9c2,0,2.7-1.5,2.7-2.9c0-1.4-0.8-3-2.7-3
				C168.2,88,167.3,89.5,167.4,91z"/>
			<path class="st2" d="M181,88.7c-0.3-0.5-1.1-0.9-2-0.9c-1.2,0-1.7,0.5-1.7,1.1c0,0.7,0.9,0.9,1.9,1.1c1.8,0.2,3.4,0.7,3.4,2.7
				c0,1.9-1.7,2.7-3.5,2.7c-1.7,0-3-0.5-3.7-2.1l1.3-0.7c0.4,0.9,1.3,1.3,2.4,1.3c1,0,1.9-0.3,1.9-1.3c0-0.8-0.8-1.1-1.9-1.2
				c-1.7-0.2-3.3-0.7-3.3-2.5c0-1.7,1.7-2.4,3.2-2.4c1.3,0,2.7,0.4,3.3,1.7L181,88.7z"/>
			<path class="st2" d="M183.7,95.1v-8.4h1.6v8.4H183.7z"/>
			<path class="st2" d="M189.2,88.1h-2.7v-1.4c2.4,0,4.5,0,6.9,0v1.4h-2.7v7h-1.6V88.1z"/>
			<path class="st2" d="M199.6,88.7c-0.3-0.5-1.1-0.9-2-0.9c-1.2,0-1.7,0.5-1.7,1.1c0,0.7,0.9,0.9,1.9,1.1c1.8,0.2,3.4,0.7,3.4,2.7
				c0,1.9-1.7,2.7-3.5,2.7c-1.7,0-3-0.5-3.7-2.1l1.3-0.7c0.4,0.9,1.3,1.3,2.4,1.3c1,0,1.9-0.3,1.9-1.3c0-0.8-0.8-1.1-1.9-1.2
				c-1.7-0.2-3.3-0.7-3.3-2.5c0-1.7,1.7-2.4,3.2-2.4c1.3,0,2.7,0.4,3.3,1.7L199.6,88.7z"/>
		</g>
	</g>
	<g>
		<path class="st3" d="M96.7,117.9l-2.7,3.6h-0.3l-2.7-3.7v6.1h-1.6v-8.4h1.8l2.6,3.6l2.6-3.6h1.8v8.4h-1.6V117.9z"/>
		<path class="st3" d="M108.1,119.8c0,2.2-1.4,4.3-4.3,4.3c-3,0-4.3-2.1-4.3-4.3c0-2.2,1.4-4.4,4.3-4.4
			C106.6,115.4,108.1,117.7,108.1,119.8z M101,119.9c0,1.4,0.8,2.9,2.8,2.9c2,0,2.7-1.5,2.7-2.9c0-1.4-0.8-3-2.7-3
			C101.8,116.9,101,118.5,101,119.9z"/>
		<path class="st3" d="M116.7,124h-1.9l-2.4-2.8h-1.5v2.8h-1.6v-8.4c1.3,0,2.7,0,4,0c2,0,3,1.3,3,2.8c0,1.2-0.5,2.3-2.1,2.6l2.5,2.9
			V124z M110.8,117.1v2.7h2.4c1,0,1.4-0.7,1.4-1.3s-0.4-1.3-1.4-1.3H110.8z"/>
		<path class="st3" d="M123.6,124h-6.3c0-2.8,0-5.6,0-8.4h6.3v1.5h-4.7v1.9h4.5v1.5h-4.5v1.9h4.7V124z"/>
		<path class="st3" d="M127.3,124v-8.4h1.6v8.4H127.3z"/>
		<path class="st3" d="M135.9,115.6h1.6v8.4h-1v0l-4.4-5.7v5.7h-1.6v-8.4h1.3l4.1,5.2V115.6z"/>
		<path class="st3" d="M138.9,124v-8.4h6v1.5h-4.4v2.3h4.2v1.5h-4.2v3.1H138.9z"/>
		<path class="st3" d="M154.6,119.8c0,2.2-1.4,4.3-4.3,4.3c-3,0-4.3-2.1-4.3-4.3c0-2.2,1.4-4.4,4.3-4.4
			C153.2,115.4,154.6,117.7,154.6,119.8z M147.5,119.9c0,1.4,0.8,2.9,2.8,2.9c2,0,2.7-1.5,2.7-2.9c0-1.4-0.8-3-2.7-3
			C148.3,116.9,147.5,118.5,147.5,119.9z"/>
	</g>
	<rect id="Rectangle_2294_4_" y="0" class="st4" width="244" height="144"/>
</g>
</svg>
