<?xml version="1.0" encoding="utf-8"?>
<!-- Generator: Adobe Illustrator 28.1.0, SVG Export Plug-In . SVG Version: 6.00 Build 0)  -->
<svg version="1.1" id="Layer_1" xmlns="http://www.w3.org/2000/svg" xmlns:xlink="http://www.w3.org/1999/xlink" x="0px" y="0px"
	 viewBox="0 0 105 88" style="enable-background:new 0 0 105 88;" xml:space="preserve">
<style type="text/css">
	.st0{fill:none;}
	.st1{fill:#1298FF;}
	.st2{fill:#0C4999;}
	.st3{fill:#0E2857;}
</style>
<rect id="Rectangle_2297_3_" class="st0" width="105" height="88"/>
<path class="st1" d="M34.6,72.3L32.7,75h-0.2l-1.9-2.6v4.3h-0.9V71c0.4,0,0.7,0,1,0l1.8,2.6l1.8-2.6h1v5.6h-0.9v-4.3H34.6z
	 M42.3,73.8c0,1.5-0.9,2.9-2.9,2.9c-1.9,0-2.9-1.4-2.9-2.9c0-1.7,1.2-2.9,2.9-2.9C41.3,70.9,42.3,72.3,42.3,73.8z M39.4,75.9
	c1.4,0,2-1,2-2.1c0-1-0.6-2.1-2-2.1c-1.3,0-2,0.9-2,2.1C37.4,74.9,38,75.9,39.4,75.9z M48.2,76.6h-1l-1.7-1.9h-1.2v1.9h-0.9V71
	c0.9,0,1.7,0,2.6,0c1.3,0,2,0.9,2,1.8c0,0.8-0.4,1.6-1.5,1.7l1.7,1.9L48.2,76.6z M44.2,71.8v2h1.7c0.7,0,1.1-0.5,1.1-1s-0.3-1-1.1-1
	H44.2z M53.3,76.6h-4.1c0-1.9,0-3.7,0-5.6h4.1v0.9H50v1.5h3.1v0.8H50v1.5h3.2L53.3,76.6L53.3,76.6z M56.4,76.6V71h0.9v5.6H56.4z
	 M62.6,75v-4h0.9v5.6h-0.7l-3.2-4v4h-0.9V71h0.7L62.6,75z M64.9,76.6V71h4v0.9h-3.1v1.7h2.9v0.8h-2.9v2.2H64.9z M75.3,73.8
	c0,1.5-0.9,2.9-2.9,2.9c-1.9,0-2.9-1.4-2.9-2.9c0-1.7,1.2-2.9,2.9-2.9C74.4,70.9,75.3,72.3,75.3,73.8z M72.4,75.9c1.4,0,2-1,2-2.1
	c0-1-0.6-2.1-2-2.1c-1.3,0-2,0.9-2,2.1C70.5,74.9,71,75.9,72.4,75.9z"/>
<path class="st2" d="M24.5,63.3c-0.6,0.6-1.5,0.9-2.4,0.9c-2.4,0-3.4-1.5-3.4-3.3c0-1.6,1.1-3.3,3.4-3.3c0.9,0,1.7,0.3,2.3,1
	l-0.9,0.9c-0.4-0.4-0.9-0.5-1.4-0.5c-1.4,0-2,1.1-2,2s0.5,2,2,2c0.5,0,1.2-0.2,1.5-0.6L24.5,63.3z M29.4,63h-3.2l-0.5,1h-1.5
	l2.8-6.3h1.5l2.8,6.3h-1.5L29.4,63z M27.8,59.2l-1.1,2.6h2.2L27.8,59.2z M35.3,59.3c-0.4-0.4-1-0.5-1.5-0.5c-0.6,0-1.1,0.3-1.1,0.7
	c0,0.6,0.5,0.7,1.4,0.8c1.2,0.1,2.4,0.6,2.4,2s-1.3,2-2.7,2c-1.1,0-2.2-0.4-2.8-1.3l0.8-0.9c0.5,0.6,1.3,0.9,1.9,0.9
	c0.7,0,1.3-0.3,1.3-0.7c0-0.5-0.4-0.8-1.3-0.8c-1.3-0.1-2.5-0.5-2.5-1.9c0-1.3,1.2-1.9,2.5-1.9c1,0,1.7,0.2,2.3,1L35.3,59.3z
	 M37.1,64v-6.3h1.4V64H37.1z M43.9,61.8l-0.1-2v-2.1h1.4V64H44l-3.1-4l0.1,2.1v2h-1.4v-6.3h1.2L43.9,61.8z M49.3,64.2
	c-2,0-3.4-1.3-3.4-3.3s1.4-3.3,3.4-3.3s3.4,1.3,3.4,3.3S51.3,64.2,49.3,64.2z M49.3,58.8c-1.2,0-2,0.9-2,2c0,1.2,0.8,2,2,2
	s2-0.9,2-2C51.4,59.7,50.6,58.8,49.3,58.8z M58.3,57.7c1.2,0,2.2,0.5,2.2,1.7c0,0.5-0.2,1-0.8,1.3c0.8,0.3,1.1,1.1,1,1.8
	c-0.2,1-1,1.5-2.3,1.5c-1,0-2.1,0-3.2,0v-6.3H58.3z M56.5,60.2h1.7c0.5,0,0.8-0.2,0.8-0.6S58.8,59,58.3,59h-1.7L56.5,60.2L56.5,60.2
	z M56.5,62.8h1.7c0.6,0,0.9-0.3,0.9-0.7s-0.3-0.7-0.9-0.7c-0.6,0-1.2,0-1.7,0V62.8z M64.4,64.2c-2,0-3.4-1.3-3.4-3.3
	s1.4-3.3,3.4-3.3s3.4,1.3,3.4,3.3S66.4,64.2,64.4,64.2z M64.4,58.8c-1.2,0-2,0.9-2,2c0,1.2,0.8,2,2,2c1.2,0,2-0.9,2-2
	S65.6,58.8,64.4,58.8z M72.8,61.8l-0.1-2v-2.1h1.4V64H73l-3.1-4l0.1,2.1v2h-1.4v-6.3h1.2L72.8,61.8z M80.9,57.7v3.5
	c0,1.9-1,2.9-2.7,2.9c-1.6,0.1-3-0.9-3-2.9v-3.5h1.4v3.5c0,1.1,0.6,1.7,1.7,1.7c1-0.1,1.3-0.7,1.3-1.7v-3.5
	C79.6,57.7,80.9,57.7,80.9,57.7z M85.5,59.3c-0.4-0.4-1-0.5-1.5-0.5c-0.6,0-1.1,0.3-1.1,0.7c0,0.6,0.5,0.7,1.4,0.8
	c1.2,0.1,2.4,0.6,2.4,2s-1.3,2-2.7,2c-1.1,0-2.2-0.4-2.8-1.3l0.8-0.9c0.5,0.6,1.3,0.9,1.9,0.9c0.7,0,1.3-0.3,1.3-0.7
	c0-0.5-0.4-0.8-1.3-0.8c-1.3-0.1-2.5-0.5-2.5-1.9c0-1.3,1.2-1.9,2.5-1.9c1,0,1.7,0.2,2.3,1L85.5,59.3z"/>
<g>
	<path class="st3" d="M22,22.9v-3.8c0-1.9-0.9-2.8-2.3-2.8h-0.2c-1.3,0-2.3,0.9-2.3,2.8v5.2h-6.6v-5.1c0-5.3,3.3-8.4,8.7-8.4h0.5
		c5.4,0,8.8,3,8.8,8.7v3.7c0,3.9-1.5,5.5-3.9,8.2l-6,6.8c-1.4,1.6-1.6,2.3-1.6,4.3v2.3h11.4v5.8h-18v-7.9c0-4.3,1.1-5.8,3.6-8.6
		l6.1-6.9C21.5,25.7,22,24.8,22,22.9z"/>
	<path class="st3" d="M38.6,10.9h0.5c5.3,0,9,3.2,9,8.9v22.5c0,5.7-3.7,8.9-9,8.9h-0.5c-5.4,0-9-3.2-9-8.9V19.7
		C29.7,14,33.3,10.9,38.6,10.9z M39,16.3h-0.2c-1.5,0-2.4,0.9-2.4,3.2v22.9c0,2.2,1,3.2,2.4,3.2H39c1.4,0,2.4-1,2.4-3.2V19.5
		C41.5,17.3,40.4,16.3,39,16.3z"/>
	<path class="st3" d="M58.5,10.9H59c5.3,0,9,3.2,9,8.9v22.5c0,5.7-3.7,8.9-9,8.9h-0.5c-5.4,0-9-3.2-9-8.9V19.7
		C49.6,14,53.1,10.9,58.5,10.9z M58.9,16.3h-0.2c-1.5,0-2.4,0.9-2.4,3.2v22.9c0,2.2,1,3.2,2.4,3.2h0.2c1.3,0,2.4-1,2.4-3.2V19.5
		C61.3,17.3,60.2,16.3,58.9,16.3z"/>
	<path class="st3" d="M74.8,10.9h0.4c3.8,0,6,2.3,6,6.6v5.3c0,4.3-2.3,6.6-6,6.6h-0.4c-3.8,0-5.9-2.3-5.9-6.6v-5.3
		C68.9,13.2,70.9,10.9,74.8,10.9z M94,11.3L73.8,50.6h-4.4l20.2-39.3H94z M75.1,14.9H75c-1,0-1.5,0.7-1.5,2.1v6.4c0,1.4,0.5,2,1.5,2
		h0.1c1,0,1.5-0.6,1.5-2V17C76.6,15.6,76.1,14.9,75.1,14.9z M88.2,32.5h0.3c3.9,0,6,2.3,6,6.6v5.3c0,4.3-2.3,6.6-5.9,6.6h-0.4
		c-3.9,0-5.9-2.3-5.9-6.6v-5.3C82.2,34.8,84.3,32.5,88.2,32.5z M88.4,36.5h-0.2c-1,0-1.5,0.7-1.5,2.1V45c0,1.4,0.5,2.1,1.5,2.1h0.2
		c0.9,0,1.5-0.6,1.5-2.1v-6.4C89.9,37.1,89.3,36.5,88.4,36.5z"/>
</g>
</svg>
