<?xml version="1.0" encoding="utf-8"?>
<!-- Generator: Adobe Illustrator 26.0.3, SVG Export Plug-In . SVG Version: 6.00 Build 0)  -->
<svg version="1.1" id="Layer_1" xmlns="http://www.w3.org/2000/svg" xmlns:xlink="http://www.w3.org/1999/xlink" x="0px" y="0px"
	 viewBox="0 0 64 64" style="enable-background:new 0 0 64 64;" xml:space="preserve">
<style type="text/css">
	.st0{fill:#FFFFFF;}
</style>
<path class="st0" d="M30.2,55.6v5.5c0,0.9-0.3,1.6-0.8,2.1C28.7,63.7,28,64,27.1,64c-1,0-1.7-0.3-2.3-0.8C24.2,62.7,24,62,24,61.1
	v-5.5h1.4v5.6c0,0.6,0.1,1,0.4,1.3s0.7,0.4,1.2,0.4c1.1,0,1.7-0.6,1.7-1.8v-5.5H30.2z M36.5,60.4h-3.3v3.5h-1.4v-8.3H37v1.2h-3.8
	v2.5h3.3V60.4z M44.5,61.2c-0.1,0.9-0.4,1.6-1,2.1S42.1,64,41.2,64c-0.7,0-1.2-0.2-1.7-0.5s-0.9-0.8-1.2-1.3c-0.3-0.6-0.4-1.2-0.4-2
	v-0.8c0-0.8,0.1-1.5,0.4-2.1c0.3-0.6,0.7-1.1,1.2-1.4c0.5-0.3,1.1-0.5,1.8-0.5c0.9,0,1.7,0.2,2.2,0.7c0.6,0.5,0.9,1.2,1,2.1H43
	c-0.1-0.6-0.2-1-0.5-1.3s-0.7-0.4-1.2-0.4c-0.6,0-1.1,0.2-1.4,0.7c-0.3,0.5-0.5,1.1-0.5,2v0.7c0,0.9,0.2,1.6,0.5,2.1
	s0.8,0.7,1.4,0.7c0.6,0,1-0.1,1.3-0.4c0.3-0.3,0.5-0.7,0.5-1.3h1.4V61.2z M58.6,25.8c-0.2,0.8-0.3,1.6-0.5,2.3
	c-0.9,3.4-3.2,6.3-6.3,8c-3.9,2.2-7.9,4.3-11.9,6.4c-3.4,1.8-7.4,2-10.9,0.6c-0.8-0.3-0.8-0.3-0.8-1.2c0-2.2-0.1-4.5-0.1-6.7
	c0-0.6-0.2-1.1-0.7-1.5c-2.5-2.2-5-4.3-7.5-6.5c-0.3-0.2-0.4-0.5-0.4-0.8c0-1.9,0-3.8,0-5.8c0-1,0.2-2,0.3-3.2
	c0.3,0.2,0.4,0.3,0.5,0.4c1.8,1.5,3.6,3.1,5.4,4.6c0.1,0.1,0.3,0.3,0.5,0.4c0.7,0.6,1.8,0.4,2.3-0.3c0.1-0.2,0.2-0.3,0.3-0.5
	c0.8-2.3,2.4-3.6,4.4-4.7c2.9-1.6,5.9-3.2,8.9-4.8c1.6-0.9,3.4-1.3,5.1-1.1c0.9,0.1,1.7,0.3,2.5,0.7c1.2,0.5,2.3,1.1,3.3,1.9
	c3.1,2.1,5.1,5.5,5.5,9.2c0,0.1,0.1,0.3,0.1,0.4L58.6,25.8z M16.5,23.7c-0.2-0.2-0.3-0.2-0.5-0.4c-1.7-1.4-3.3-2.9-5-4.3
	C6,14.8,7,7,12.4,3.8c1.7-1,3.5-1.9,5.2-2.8c2.6-1.3,5.7-1.3,8.3,0c1.7,0.8,3.3,1.7,4.9,2.5c0.1,0,0.1,0.1,0.2,0.1
	c-0.3,0.1-0.6,0.2-0.8,0.3c-3,1.2-6,2.6-8.4,4.8c-3.4,3-5.3,7.2-5.3,11.7C16.5,21.5,16.5,22.6,16.5,23.7z M21.1,14.4
	c1-1.9,2.4-3.4,4.2-4.6c1.6-1,3.4-2,5.2-2.7c3.4-1.4,7.3-1.3,10.6,0.4c0.7,0.3,1.4,0.7,2.1,1.1c-4.2,1.8-8,4.1-12,6.2
	c-1.9,1-3.5,2.5-4.6,4.4L21.1,14.4z M25,40.6c-3.1-2.3-5.1-5.8-5.5-9.6c0.2,0.1,0.3,0.2,0.4,0.3c1.6,1.4,3.2,2.8,4.7,4.1
	c0.2,0.2,0.3,0.4,0.3,0.7C25,37.5,25,39,25,40.6z"/>
</svg>
