<?xml version="1.0" encoding="utf-8"?>
<!-- Generator: Adobe Illustrator 28.2.0, SVG Export Plug-In . SVG Version: 6.00 Build 0)  -->
<svg version="1.1" id="Layer_1" xmlns="http://www.w3.org/2000/svg" xmlns:xlink="http://www.w3.org/1999/xlink" x="0px" y="0px"
	 viewBox="0 0 105 88" style="enable-background:new 0 0 105 88;" xml:space="preserve">
<style type="text/css">
	.st0{fill:#0E2857;}
	.st1{fill:#1298FF;}
	.st2{fill:#0C4999;}
	.st3{fill:none;}
</style>
<g>
	<g>
		<path class="st0" d="M15.6,16.9v-5.6h9.2v39.3h-6.6V16.9H15.6z"/>
		<path class="st0" d="M37.7,22.9v-3.8c0-1.9-0.9-2.8-2.3-2.8h-0.2c-1.3,0-2.3,0.9-2.3,2.8v5.2h-6.6v-5.1c0-5.3,3.3-8.4,8.7-8.4h0.5
			c5.4,0,8.8,3,8.8,8.7v3.7c0,3.9-1.5,5.5-3.9,8.2l-6,6.8c-1.4,1.6-1.6,2.3-1.6,4.3v2.3h11.4v5.8h-18v-7.9c0-4.3,1.1-5.8,3.6-8.6
			l6.1-6.9C37.3,25.7,37.7,24.8,37.7,22.9z"/>
		<path class="st0" d="M63.5,33v9c0,6-3.4,9.1-8.8,9.1h-0.4c-5.4,0-8.8-3.1-8.8-8.9v-5.8h6.6v6c0,2.3,0.9,3.2,2.3,3.2h0.2
			c1.4,0,2.3-1,2.3-3.2v-9.2c0-2.6-0.9-3.6-3.2-3.6h-8.2V11.3h17.9v5.6H51.7v7.3h3.5C61.1,24.1,63.5,27.2,63.5,33z"/>
		<path class="st0" d="M70.2,10.9h0.4c3.8,0,6,2.3,6,6.6v5.3c0,4.3-2.3,6.6-6,6.6h-0.4c-3.8,0-5.9-2.3-5.9-6.6v-5.3
			C64.2,13.2,66.3,10.9,70.2,10.9z M89.3,11.3L69.1,50.6h-4.4l20.2-39.3H89.3z M70.4,14.9h-0.1c-1,0-1.5,0.7-1.5,2.1v6.4
			c0,1.4,0.5,2,1.5,2h0.1c1,0,1.5-0.6,1.5-2V17C71.9,15.6,71.4,14.9,70.4,14.9z M83.5,32.5h0.3c3.9,0,6,2.3,6,6.6v5.3
			c0,4.3-2.3,6.6-5.9,6.6h-0.4c-3.9,0-5.9-2.3-5.9-6.6v-5.3C77.6,34.8,79.6,32.5,83.5,32.5z M83.8,36.5h-0.2c-1,0-1.5,0.7-1.5,2.1
			V45c0,1.4,0.5,2.1,1.5,2.1h0.2c0.9,0,1.5-0.6,1.5-2.1v-6.4C85.2,37.1,84.6,36.5,83.8,36.5z"/>
	</g>
	<g>
		<path class="st1" d="M35.6,72.6L33.8,75h-0.2l-1.8-2.4v4.1h-1.1V71H32l1.8,2.4l1.8-2.4h1.2v5.6h-1.1V72.6z"/>
		<path class="st1" d="M43.2,73.9c0,1.4-0.9,2.9-2.9,2.9s-2.9-1.4-2.9-2.9c0-1.5,0.9-3,2.9-3C42.3,70.9,43.2,72.4,43.2,73.9z
			 M38.5,73.9c0,0.9,0.5,1.9,1.8,1.9s1.8-1,1.8-1.9c0-0.9-0.5-2-1.8-2S38.5,72.9,38.5,73.9z"/>
		<path class="st1" d="M49,76.6h-1.3l-1.6-1.9h-1v1.9H44V71c0.9,0,1.8,0,2.7,0c1.3,0,2,0.9,2,1.9c0,0.8-0.4,1.5-1.4,1.8L49,76.6
			L49,76.6z M45.1,72v1.8h1.6c0.7,0,1-0.4,1-0.9c0-0.4-0.3-0.9-1-0.9H45.1z"/>
		<path class="st1" d="M53.6,76.6h-4.2c0-1.9,0-3.7,0-5.6h4.2v1h-3.1v1.3h3v1h-3v1.3h3.1V76.6z"/>
		<path class="st1" d="M56,76.6V71h1v5.6H56z"/>
		<path class="st1" d="M61.8,71h1.1v5.6h-0.7v0l-2.9-3.8v3.8h-1.1V71H59l2.7,3.5V71z"/>
		<path class="st1" d="M63.8,76.6V71h4v1h-3v1.5h2.8v1h-2.8v2.1H63.8z"/>
		<path class="st1" d="M74.2,73.9c0,1.4-0.9,2.9-2.9,2.9s-2.9-1.4-2.9-2.9c0-1.5,0.9-3,2.9-3C73.3,70.9,74.2,72.4,74.2,73.9z
			 M69.5,73.9c0,0.9,0.5,1.9,1.8,1.9s1.8-1,1.8-1.9c0-0.9-0.5-2-1.8-2S69.5,72.9,69.5,73.9z"/>
	</g>
	<g>
		<g>
			<path class="st2" d="M21.9,60.9c0,1.6-1,3.3-3.2,3.3s-3.2-1.6-3.2-3.2c0-1.7,1.1-3.3,3.2-3.3C20.8,57.6,21.9,59.3,21.9,60.9z
				 M16.6,61c0,1,0.6,2.1,2.1,2.1s2-1.1,2.1-2.2c0-1.1-0.6-2.3-2.1-2.3S16.5,59.9,16.6,61z"/>
			<path class="st2" d="M26.5,57.7h1.2V64H27v0l-3.3-4.3V64h-1.2v-6.3h1l3.1,3.9V57.7z"/>
			<path class="st2" d="M29.5,63h0.9v-4.2h-1v-1.1h2.2V63h0.9v1h-3V63z"/>
			<path class="st2" d="M34.9,58.3c-0.1-0.2-0.5-0.4-0.9-0.4c-0.5,0-0.8,0.2-0.8,0.5c0,0.3,0.4,0.4,0.8,0.5c0.8,0.1,1.5,0.3,1.5,1.2
				c0,0.8-0.7,1.2-1.5,1.2c-0.8,0-1.3-0.2-1.6-0.9l0.6-0.3c0.2,0.4,0.6,0.6,1,0.6c0.4,0,0.8-0.2,0.8-0.6c0-0.3-0.4-0.5-0.9-0.5
				c-0.8-0.1-1.4-0.3-1.4-1.1c0-0.8,0.7-1.1,1.4-1.1c0.6,0,1.2,0.2,1.4,0.7L34.9,58.3z"/>
			<path class="st2" d="M36.8,58h-1.2v-0.6c1.1,0,2,0,3,0V58h-1.2v3h-0.7V58z"/>
			<path class="st2" d="M41.9,61.3v-1h0.9c0.6,0,1.3-0.2,1.3-0.8c0-0.4-0.3-0.8-1.3-0.8c-0.6,0-1.3,0.2-1.3,0.8h-1.2
				c0-1.4,1.4-1.9,2.5-1.9c1.2,0,2.5,0.6,2.5,1.9c0,0.5-0.3,1.1-0.9,1.2c0.6,0.2,1,0.8,1,1.3c0,1.5-1.5,2-2.7,2
				c-1.2,0-2.6-0.5-2.6-1.9h1.2c0,0.6,0.9,0.9,1.4,0.9c0.6,0,1.4-0.3,1.4-0.9c0-0.4-0.2-0.8-1.3-0.8H41.9z"/>
			<path class="st2" d="M53,60.8c0,1.6-0.9,3.2-3.2,3.2c-0.8,0-1.7,0-2.5,0v-6.3c0.8,0,1.7,0,2.5,0C52.1,57.7,53,59.3,53,60.8z
				 M48.6,62.9h1.3c1.4,0,2-1,2-2.1c0-1-0.6-2-2-2h-1.3V62.9z"/>
			<path class="st2" d="M58.2,64h-4.7c0-2.1,0-4.2,0-6.3h4.7v1.2h-3.5v1.4H58v1.1h-3.4v1.4h3.5V64z"/>
			<path class="st2" d="M61.7,62.2h-1.8V64h-1.2v-6.3c1,0,2,0,3,0C64.8,57.7,64.8,62.2,61.7,62.2z M59.9,61.1h1.8
				c1.5,0,1.5-2.2,0-2.2h-1.8V61.1z"/>
			<path class="st2" d="M70.6,60.9c0,1.6-1,3.3-3.2,3.3s-3.2-1.6-3.2-3.2c0-1.7,1.1-3.3,3.2-3.3C69.5,57.6,70.6,59.3,70.6,60.9z
				 M65.3,61c0,1,0.6,2.1,2.1,2.1s2-1.1,2.1-2.2c0-1.1-0.6-2.3-2.1-2.3S65.3,59.9,65.3,61z"/>
			<path class="st2" d="M75.2,59.3c-0.2-0.4-0.8-0.7-1.5-0.7c-0.9,0-1.3,0.4-1.3,0.8c0,0.5,0.6,0.7,1.4,0.8c1.3,0.2,2.5,0.5,2.5,2
				c0,1.4-1.2,2-2.6,2c-1.3,0-2.3-0.4-2.7-1.5l1-0.5c0.3,0.7,1,1,1.8,1c0.7,0,1.4-0.3,1.4-0.9c0-0.6-0.6-0.8-1.5-0.9
				c-1.3-0.2-2.5-0.5-2.5-1.9c0-1.3,1.3-1.8,2.4-1.8c1,0,2,0.3,2.5,1.3L75.2,59.3z"/>
			<path class="st2" d="M76.9,64v-6.3h1.2V64H76.9z"/>
			<path class="st2" d="M80.7,58.8h-2v-1.1c1.8,0,3.4,0,5.2,0v1.1h-2V64h-1.2V58.8z"/>
			<path class="st2" d="M88.1,59.3c-0.2-0.4-0.8-0.7-1.5-0.7c-0.9,0-1.3,0.4-1.3,0.8c0,0.5,0.6,0.7,1.4,0.8c1.3,0.2,2.5,0.5,2.5,2
				c0,1.4-1.2,2-2.6,2c-1.3,0-2.3-0.4-2.7-1.5l1-0.5c0.3,0.7,1,1,1.8,1c0.7,0,1.4-0.3,1.4-0.9c0-0.6-0.6-0.8-1.5-0.9
				c-1.3-0.2-2.5-0.5-2.5-1.9c0-1.3,1.3-1.8,2.4-1.8c1,0,2,0.3,2.5,1.3L88.1,59.3z"/>
		</g>
	</g>
	<rect id="Rectangle_2297_4_" y="0" class="st3" width="105" height="88"/>
</g>
</svg>
