<?xml version="1.0" encoding="utf-8"?>
<!-- Generator: Adobe Illustrator 25.3.1, SVG Export Plug-In . SVG Version: 6.00 Build 0)  -->
<svg version="1.1" id="Layer_1" xmlns="http://www.w3.org/2000/svg" xmlns:xlink="http://www.w3.org/1999/xlink" x="0px" y="0px"
	 viewBox="0 0 244 144" style="enable-background:new 0 0 244 144;" xml:space="preserve">
<style type="text/css">
	.st0{fill:none;}
	.st1{fill:#0E2857;}
	.st2{fill:#0C4999;}
	.st3{fill:#929EB4;}
	.st4{fill:#1298FF;}
</style>
<rect id="Rectangle_2294_2_" class="st0" width="244" height="144"/>
<g>
	<path class="st1" d="M43.6,43.6v-4.3c0-2.1-1-3.2-2.6-3.2h-0.2c-1.5,0-2.6,1-2.6,3.2v5.9h-7.4v-5.7c0-6,3.8-9.5,9.9-9.5h0.5
		c6.1,0,9.9,3.4,9.9,9.8V44c0,4.4-1.7,6.2-4.4,9.2L40,60.9c-1.5,1.8-1.8,2.6-1.8,4.9v2.6h12.9v6.6H30.7V66c0-4.9,1.2-6.6,4-9.7
		l6.9-7.8C43.1,46.7,43.6,45.8,43.6,43.6z M62.5,30H63c6,0,10.2,3.6,10.2,10v25.4c0,6.4-4.1,10-10.2,10h-0.5
		c-6.1,0-10.1-3.6-10.1-10V40C52.3,33.6,56.4,30,62.5,30z M62.9,36.1h-0.2c-1.6,0-2.7,1-2.7,3.6v25.9c0,2.5,1.1,3.6,2.7,3.6h0.2
		c1.5,0,2.7-1.1,2.7-3.6V39.7C65.6,37.2,64.4,36.1,62.9,36.1z M84.9,30h0.5c6,0,10.2,3.6,10.2,10v25.4c0,6.4-4.1,10-10.2,10h-0.5
		c-6.1,0-10.1-3.6-10.1-10V40C74.8,33.6,78.8,30,84.9,30z M85.3,36.1h-0.2c-1.6,0-2.7,1-2.7,3.6v25.9c0,2.5,1.1,3.6,2.7,3.6h0.2
		c1.5,0,2.7-1.1,2.7-3.6V39.7C88.1,37.2,86.9,36.1,85.3,36.1z M103.3,30h0.4c4.3,0,6.8,2.6,6.8,7.4v6c0,4.9-2.6,7.4-6.8,7.4h-0.4
		c-4.3,0-6.7-2.6-6.7-7.4v-6C96.6,32.6,98.9,30,103.3,30z M125,30.5l-22.8,44.4h-5L120,30.5H125z M103.6,34.5h-0.1
		c-1.1,0-1.6,0.8-1.6,2.4v7.3c0,1.5,0.5,2.3,1.6,2.3h0.1c1.1,0,1.6-0.7,1.6-2.3v-7.3C105.3,35.3,104.7,34.5,103.6,34.5z M118.4,54.4
		h0.4c4.4,0,6.8,2.6,6.8,7.4v6c0,4.9-2.6,7.4-6.7,7.4h-0.4c-4.4,0-6.7-2.6-6.7-7.4v-6C111.7,57.1,114,54.4,118.4,54.4z M118.7,58.9
		h-0.2c-1.1,0-1.6,0.8-1.6,2.4v7.3c0,1.5,0.5,2.3,1.6,2.3h0.2c1,0,1.6-0.7,1.6-2.3v-7.3C120.4,59.6,119.7,58.9,118.7,58.9z"/>
	<path class="st2" d="M147.4,53.2c-1.4,1.4-3.3,2.1-5.4,2.1c-5.3,0-7.5-3.4-7.5-7.3c0-3.6,2.3-7.4,7.5-7.4c1.9,0,3.7,0.7,5.1,2.2
		l-2,1.9c-0.8-0.8-2.1-1.2-3.2-1.2c-3.2,0-4.4,2.5-4.4,4.5s1.1,4.4,4.4,4.4c1.1,0,2.6-0.5,3.4-1.3L147.4,53.2z M160.9,54.9h-3.5
		l-3.6-4.6h-2.3v4.6h-3.1v-14c2.3,0,4.4,0,6.6,0c3.4,0,5.2,2.3,5.2,4.7c0,1.8-0.6,3.4-3.2,4.4l3.8,4.6V54.9z M151.6,43.5v4.1h3.6
		c1.4,0,2.1-1.1,2.1-2c0-1-0.6-2.1-2.1-2.1H151.6z M166.8,46.4l3.5-5.6h3.6V41l-5.6,8.3v5.6h-3.1v-5.6l-5.4-8.3v-0.2h3.6L166.8,46.4
		z M177.7,50.9v4h-3.1v-14c2.2,0,4.4,0,6.6,0c3.6,0,5.4,2.3,5.4,5c0,2.8-1.8,5-5.4,5H177.7z M177.7,48h3.5c1.5,0,2.2-1,2.2-2.1
		s-0.8-2.1-2.2-2.1h-3.5V48z M190.8,43.6h-4.3v-2.8c4.1,0,7.5,0,11.6,0v2.8h-4.3v11.2h-3.1V43.6z M205.8,55.2
		c-4.5,0-7.6-2.8-7.6-7.3s3.1-7.3,7.6-7.3c4.5,0,7.6,2.8,7.6,7.3S210.2,55.2,205.8,55.2z M205.8,43.3c-2.7,0-4.5,2-4.5,4.5
		c0,2.6,1.8,4.5,4.5,4.5c2.7,0,4.5-1.9,4.5-4.5C210.3,45.3,208.5,43.3,205.8,43.3z M142.2,61.1c2.7,0,4.9,1.2,4.9,3.8
		c0,1.2-0.5,2.2-1.9,2.9c1.8,0.6,2.5,2.4,2.2,4.1c-0.4,2.3-2.3,3.3-5.1,3.3c-2.3,0-4.7,0-7,0v-14H142.2z M138.4,66.5h3.8
		c1.2,0,1.8-0.5,1.8-1.3c0-0.8-0.6-1.4-1.8-1.4h-3.8V66.5z M138.4,72.3h3.8c1.4,0,2.1-0.6,2.1-1.6c0-1-0.7-1.6-2.1-1.6
		c-1.2,0-2.6,0-3.8,0V72.3z M155.8,75.4c-4.5,0-7.6-2.8-7.6-7.3s3.1-7.3,7.6-7.3c4.5,0,7.6,2.8,7.6,7.3S160.3,75.4,155.8,75.4z
		 M155.8,63.5c-2.7,0-4.5,2-4.5,4.5c0,2.6,1.8,4.5,4.5,4.5c2.7,0,4.5-1.9,4.5-4.5C160.3,65.5,158.5,63.5,155.8,63.5z M174.6,70.2
		l-0.2-4.4v-4.7h3.1v14h-2.7l-7-9l0.1,4.6v4.4h-3.2v-14h2.7L174.6,70.2z M192.4,61.1v7.8c0,4.2-2.3,6.4-6,6.5
		c-3.7,0.1-6.8-2-6.8-6.5v-7.8h3.1v7.8c0,2.5,1.4,3.8,3.7,3.7c2.1-0.1,2.9-1.6,2.9-3.7v-7.8H192.4z M202.8,64.4
		c-0.8-0.8-2.1-1.2-3.2-1.2c-1.4,0-2.5,0.6-2.5,1.5c0,1.3,1.2,1.5,3,1.7c2.8,0.2,5.4,1.3,5.4,4.5c0,3.1-2.9,4.5-5.9,4.5
		c-2.4,0-4.9-0.9-6.1-2.9l1.9-1.9c1.1,1.4,2.9,2,4.3,2c1.7,0,2.8-0.7,2.8-1.7c0-1.2-0.9-1.7-2.8-1.9c-3-0.3-5.6-1-5.6-4.3
		c0-2.8,2.7-4.3,5.5-4.3c2.2,0,3.8,0.5,5.2,2.2L202.8,64.4z"/>
</g>
<path class="st3" d="M33.8,94.1h1.4v-5.2l-1.3,0.4v-1.1l2.5-0.8v6.7h1.3v1h-3.9V94.1z M43.9,88.5h-4.3v1.6h1.7c1.7,0,3,0.8,3,2.5
	c0,1.6-1.3,2.5-3,2.5c-1.6,0-3.1-0.6-3.1-2.3h1.2c0,1,1.1,1.2,1.9,1.2c0.9,0,1.8-0.4,1.8-1.4c0-0.9-0.8-1.3-1.8-1.3h-2.9
	c0-1.3,0-2.6,0-3.9h5.5V88.5z M45,90.6c0-4.5,6.4-4.5,6.4,0v1.3c0,4.5-6.4,4.5-6.4,0V90.6z M46.2,91.9c0,2.9,4,2.9,4,0v-1.3
	c0-2.9-4-2.9-4,0V91.9z M53.8,90.6c-2.3,0-2.3-3.3,0-3.3C56.1,87.3,56.1,90.6,53.8,90.6z M58.8,87.4l-5,7.7h-1.1l5-7.7H58.8z
	 M53.8,89.8c1.1,0,1.1-1.7,0-1.7S52.6,89.8,53.8,89.8z M57.7,95.2c-2.3,0-2.3-3.3,0-3.3C60,91.8,60,95.2,57.7,95.2z M57.7,94.3
	c1.1,0,1.1-1.7,0-1.7S56.5,94.3,57.7,94.3z M67.2,89.1c-0.4-0.5-1.1-0.8-1.9-0.9c-1,0-1.8,0.4-1.8,1.2c0,0.7,0.9,1,1.9,1.1
	c1.6,0.2,3.1,0.7,3.1,2.4c0,1.7-1.6,2.4-3.2,2.4c-1.5,0-2.6-0.5-3.3-1.7l0.9-0.6c0.5,0.9,1.5,1.3,2.4,1.3c0.9,0,1.9-0.3,1.9-1.3
	c0-0.8-0.9-1.1-2-1.3c-1.5-0.2-3-0.6-3-2.2c0-1.6,1.6-2.2,3-2.2c1.1,0,2.2,0.3,2.9,1.3L67.2,89.1z M70.7,92.7v2.4h-1.2v-7.7
	c1.2,0,2.4,0,3.6,0c3.7,0,3.7,5.3,0,5.3H70.7z M70.7,91.6H73c2,0,2-3.1,0-3.1h-2.3V91.6z M84,91.3c0,2.1-1.3,4-3.9,4
	c-2.7,0-3.9-1.9-3.9-4c0-2.3,1.6-4,4-4C82.7,87.2,84,89.2,84,91.3z M80.1,94.1c1.9,0,2.7-1.4,2.7-2.8c0-1.4-0.8-2.9-2.7-2.9
	c-1.8,0-2.7,1.2-2.7,2.9C77.4,92.6,78.2,94.1,80.1,94.1z M91.7,95.1h-1.4l-2.3-2.7h-1.6v2.7h-1.2v-7.7c1.2,0,2.4,0,3.6,0
	c1.8,0,2.7,1.2,2.7,2.5c0,1.1-0.6,2.2-2.1,2.4l2.3,2.6L91.7,95.1z M86.3,88.5v2.8h2.3c1,0,1.5-0.6,1.5-1.4c0-0.7-0.5-1.4-1.5-1.4
	H86.3z M94.2,88.5h-2.5v-1.1c2.2,0,4.1,0,6.3,0v1.1h-2.5v6.6h-1.2V88.5z M103.2,89.1c-0.4-0.5-1.1-0.8-1.9-0.9c-1,0-1.8,0.4-1.8,1.2
	c0,0.7,0.9,1,1.9,1.1c1.6,0.2,3.1,0.7,3.1,2.4c0,1.7-1.6,2.4-3.2,2.4c-1.5,0-2.6-0.5-3.3-1.7l0.9-0.6c0.5,0.9,1.5,1.3,2.4,1.3
	c0.9,0,1.9-0.3,1.9-1.3c0-0.8-0.9-1.1-2-1.3c-1.5-0.2-3-0.6-3-2.2c0-1.6,1.6-2.2,3-2.2c1.1,0,2.2,0.3,2.9,1.3L103.2,89.1z M109,87.4
	c1.5,0,2.6,0.7,2.6,2.2c0,0.6-0.3,1.2-1.1,1.5c0.9,0.3,1.3,1.2,1.3,1.8c0,1.7-1.3,2.2-2.9,2.2c-1.2,0-2.3,0-3.5,0v-7.7H109z
	 M106.7,90.6h2.3c0.9,0,1.4-0.4,1.4-1c0-0.5-0.5-1.1-1.4-1.1h-2.3V90.6z M106.7,93.9h2.3c0.7,0,1.6-0.2,1.6-1.1
	c0-0.8-0.9-1.2-1.6-1.2c-0.8,0-1.5,0-2.3,0V93.9z M120.3,91.3c0,2.1-1.3,4-3.9,4s-3.9-1.9-3.9-4c0-2.3,1.6-4,4-4
	C119,87.2,120.3,89.2,120.3,91.3z M116.4,94.1c1.9,0,2.7-1.4,2.7-2.8c0-1.4-0.8-2.9-2.7-2.9c-1.8,0-2.7,1.2-2.7,2.9
	C113.7,92.6,114.5,94.1,116.4,94.1z M128.7,91.3c0,2.1-1.3,4-3.9,4s-3.9-1.9-3.9-4c0-2.3,1.6-4,4-4
	C127.4,87.2,128.7,89.2,128.7,91.3z M124.8,94.1c1.9,0,2.7-1.4,2.7-2.8c0-1.4-0.8-2.9-2.7-2.9c-1.8,0-2.7,1.2-2.7,2.9
	C122.1,92.6,122.9,94.1,124.8,94.1z M135.6,87.4l-3.5,3.7L136,95v0.1h-1.5l-3.4-3.5v3.5h-1.2v-7.7h1.2v3.3l3.1-3.3L135.6,87.4
	L135.6,87.4z M139.8,90.7V89h1.1v1.7h1.7v1.1h-1.7v1.7h-1.1v-1.7h-1.7v-1.1H139.8z M151.3,88.5H147v1.6h1.7c1.7,0,3,0.8,3,2.5
	c0,1.6-1.3,2.5-3,2.5c-1.6,0-3.1-0.6-3.1-2.3h1.2c0,1,1.1,1.2,1.9,1.2c0.9,0,1.8-0.4,1.8-1.4c0-0.9-0.8-1.3-1.8-1.3h-2.9
	c0-1.3,0-2.6,0-3.9h5.5V88.5z M152.4,90.6c0-4.5,6.4-4.5,6.4,0v1.3c0,4.5-6.4,4.5-6.4,0V90.6z M153.6,91.9c0,2.9,4,2.9,4,0v-1.3
	c0-2.9-4-2.9-4,0V91.9z M161.1,90.6c-2.3,0-2.3-3.3,0-3.3C163.4,87.3,163.4,90.6,161.1,90.6z M166.1,87.4l-5,7.7h-1.1l5-7.7H166.1z
	 M161.1,89.8c1.1,0,1.1-1.7,0-1.7S160,89.8,161.1,89.8z M165.1,95.2c-2.3,0-2.3-3.3,0-3.3C167.4,91.8,167.4,95.2,165.1,95.2z
	 M165.1,94.3c1.1,0,1.1-1.7,0-1.7S163.9,94.3,165.1,94.3z M176.5,94.1c-0.8,0.8-1.8,1.1-2.9,1.1c-2.8,0-4-1.9-4.1-3.9s1.3-4,4.1-4
	c1,0,2,0.4,2.8,1.2l-0.8,0.8c-0.5-0.5-1.3-0.8-2-0.8c-2,0-2.8,1.4-2.8,2.9c0,1.4,0.8,2.8,2.8,2.8c0.7,0,1.5-0.3,2-0.8L176.5,94.1z
	 M182.6,93.5h-4.2l-0.7,1.6h-1.3l3.5-7.7h1.3l3.5,7.7h-1.3L182.6,93.5z M180.6,88.7l-1.6,3.7h3.3L180.6,88.7z M189.8,89.1
	c-0.4-0.5-1.1-0.8-1.9-0.9c-1,0-1.8,0.4-1.8,1.2c0,0.7,0.9,1,1.9,1.1c1.6,0.2,3.1,0.7,3.1,2.4c0,1.7-1.6,2.4-3.2,2.4
	c-1.5,0-2.6-0.5-3.3-1.7l0.9-0.6c0.5,0.9,1.5,1.3,2.4,1.3c0.9,0,1.9-0.3,1.9-1.3c0-0.8-0.9-1.1-2-1.3c-1.5-0.2-3-0.6-3-2.2
	c0-1.6,1.6-2.2,3-2.2c1.1,0,2.2,0.3,2.9,1.3L189.8,89.1z M192,95.1v-7.7h1.2v7.7H192z M200,92.9v-5.5h1.2v7.7h-0.9l-4.4-5.4v5.4
	h-1.2v-7.7h0.9L200,92.9z M210.2,91.3c0,2.1-1.3,4-3.9,4c-2.7,0-3.9-1.9-3.9-4c0-2.3,1.6-4,4-4C208.9,87.2,210.2,89.2,210.2,91.3z
	 M206.2,94.1c1.9,0,2.7-1.4,2.7-2.8c0-1.4-0.8-2.9-2.7-2.9c-1.8,0-2.7,1.2-2.7,2.9C203.5,92.6,204.3,94.1,206.2,94.1z"/>
<path class="st4" d="M95.1,117.6l-2.9,4H92l-2.8-4v6.4h-1.3v-8.4c0.5,0,1,0,1.6,0l2.8,3.9l2.8-3.9h1.6v8.4h-1.3V117.6z M106.7,119.8
	c0,2.3-1.4,4.3-4.3,4.3c-2.9,0-4.3-2.1-4.3-4.3c0-2.6,1.8-4.4,4.3-4.4C105.3,115.5,106.7,117.6,106.7,119.8z M102.4,122.9
	c2.1,0,3-1.5,3-3.1c0-1.5-0.9-3.2-2.9-3.2c-1.9,0-3,1.4-3,3.2C99.4,121.3,100.3,122.9,102.4,122.9z M115.5,124h-1.6l-2.6-2.9h-1.8
	v2.9h-1.3v-8.4c1.3,0,2.6,0,3.9,0c1.9,0,3,1.3,3,2.7c0,1.2-0.6,2.4-2.3,2.6l2.5,2.8L115.5,124z M109.6,116.8v3h2.6
	c1.1,0,1.6-0.7,1.6-1.5c0-0.8-0.5-1.5-1.6-1.5H109.6z M123.1,124h-6.2c0-2.8,0-5.6,0-8.4h6.2v1.3h-4.8v2.3h4.6v1.2h-4.6v2.3h4.9V124
	z M127.9,124v-8.4h1.3v8.4H127.9z M137.1,121.6v-6h1.3v8.4h-1l-4.8-5.9v5.9h-1.4v-8.4h1L137.1,121.6z M140.6,124v-8.4h5.9v1.3h-4.6
	v2.6h4.4v1.2h-4.4v3.3H140.6z M156.2,119.8c0,2.3-1.4,4.3-4.3,4.3c-2.9,0-4.3-2.1-4.3-4.3c0-2.6,1.8-4.4,4.3-4.4
	C154.8,115.5,156.2,117.6,156.2,119.8z M151.9,122.9c2.1,0,3-1.5,3-3.1c0-1.5-0.9-3.2-2.9-3.2c-1.9,0-3,1.4-3,3.2
	C149,121.3,149.8,122.9,151.9,122.9z"/>
</svg>
