<?xml version="1.0" encoding="utf-8"?>
<svg
	style="enable-background: new 0 0 64 64;"
	xmlns="http://www.w3.org/2000/svg"
	x="0px"
	y="0px"
	xml:space="preserve"
	viewBox="0 0 64 64"
	height="64px"
	width="64px"
	xmlns:xlink="http://www.w3.org/1999/xlink"
	version="1.1"
	fill="#ffffff"
	>
                                                <path d="M43.2,13.46c-0.15-1.15-0.37-2.23-0.62-3.23c1.46-0.2,2.66-0.58,3.67-1.17
                                                    c0.78-0.46,1.5-1.05,2.13-1.73c2.29,2.55,4,5.64,4.9,9.06c-2.84-1.21-5.77-2.04-8.72-2.47c-0.44-0.06-0.88-0.12-1.31-0.16
                                                    C43.22,13.66,43.21,13.56,43.2,13.46z M45.05,7.03c0.62-0.36,1.17-0.82,1.65-1.37c-2.52-2.27-5.57-3.96-8.94-4.88
                                                    c1.34,1.53,2.95,3.87,4.12,7.16C43.19,7.81,44.25,7.5,45.05,7.03z M28.34,4.24c0.89,0.39,1.29,0.59,1.64,0.77
                                                    c0.33,0.16,0.61,0.31,1.28,0.59c2.29,0.98,5.02,2.15,8.11,2.38C37.26,2.71,34,0.46,33.96,0.43l-0.02-0.02l-0.48-0.34
                                                    C32.97,0.04,32.49,0.02,32,0.02c-3.33,0-6.49,0.74-9.32,2.07C24.59,2.71,26.48,3.42,28.34,4.24z M24.39,29.15
                                                    c1.71-1.61,3.48-3.28,5.03-4.53l0.15-0.12c1.35-1.09,5.43-4.41,11.67-4.24c0.02-1.35-0.01-2.79-0.14-4.31
                                                    c-3.06-0.14-6.01,0.15-9.51,0.5c-1.36,0.13-3.64,0.36-6.35,0.87c-2.56,0.48-7.9,1.8-15.25,5.29c0.13,4.91,1.86,9.41,4.7,13.01
                                                    c0.12-0.05,0.24-0.09,0.35-0.14c2.5-0.96,4.3-1.65,7.7-4.8C23.28,30.2,23.83,29.68,24.39,29.15z M44.21,16.24
                                                    c-0.25-0.04-0.49-0.07-0.73-0.1c0.11,1.51,0.14,2.94,0.12,4.28c0.69,0.11,1.42,0.28,2.2,0.6c3.87,1.56,5.89,5.3,6.93,8.37
                                                    c0.82-2.31,1.27-4.79,1.27-7.38c0-0.95-0.06-1.89-0.18-2.81C50.7,17.72,47.47,16.72,44.21,16.24z M50.06,28.98
                                                    c-1.22-2.95-2.96-4.89-5.15-5.78c-0.49-0.2-0.96-0.33-1.43-0.41c-0.36,4.94-1.42,8.19-1.6,8.7c-0.18,0.72-1.77,6.82-5.29,12.04
                                                    c6.27-1.34,11.55-5.34,14.59-10.78C51,31.77,50.65,30.4,50.06,28.98z M24.82,15c2.81-0.52,5.15-0.76,6.55-0.89
                                                    c3.46-0.34,6.4-0.63,9.47-0.52c-0.16-1.16-0.39-2.23-0.67-3.22c-3.91-0.07-7.28-1.51-9.84-2.61c-0.74-0.32-1.07-0.48-1.41-0.66
                                                    c-0.34-0.17-0.69-0.35-1.53-0.71c-2.47-1.08-5.01-1.99-7.57-2.7c-5.39,3.58-9.11,9.48-9.74,16.28C17.12,16.74,22.28,15.47,24.82,15z
                                                    M39.62,30.88l0.04-0.12c0.02-0.05,1.11-3.21,1.48-8.16c-5.34-0.13-8.9,2.77-10.08,3.72l-0.15,0.13c-1.48,1.19-3.22,2.83-4.9,4.41
                                                    c-0.57,0.54-1.13,1.06-1.66,1.55c-3.5,3.25-5.56,4.15-7.99,5.09c3.99,4.03,9.52,6.53,15.64,6.53c0.46,0,0.91-0.02,1.36-0.04
                                                    C37.68,38.7,39.6,30.96,39.62,30.88z M27.91,56.07h-1.37v5.64l-3.54-5.64h-1.38v7.92h1.38v-5.62l3.53,5.62h1.38V56.07z M32.43,63.99
                                                    c0.89,0,1.57-0.2,2.05-0.6c0.48-0.4,0.71-0.97,0.71-1.71c0-0.45-0.12-0.83-0.35-1.16c-0.23-0.32-0.57-0.54-0.99-0.66
                                                    c0.38-0.16,0.66-0.38,0.86-0.67C34.9,58.9,35,58.57,35,58.21c0-0.71-0.23-1.25-0.7-1.6s-1.15-0.54-2.04-0.54h-2.71v7.92H32.43z
                                                    M30.91,57.18h1.34c0.47,0,0.82,0.09,1.04,0.26c0.22,0.17,0.33,0.46,0.33,0.85c0,0.36-0.12,0.63-0.36,0.82s-0.58,0.29-1,0.29h-1.35
                                                    V57.18z M32.56,60.41c0.84,0.02,1.26,0.44,1.26,1.26c0,0.38-0.12,0.68-0.37,0.89c-0.24,0.21-0.58,0.32-1.01,0.32h-1.53v-2.47H32.56z
                                                M41.65,63.99h1.44l-3-7.92h-1.23l-2.99,7.92h1.43l0.64-1.84H41L41.65,63.99z M39.46,57.75l1.15,3.29h-2.29L39.46,57.75z"></path>
</svg>