<?xml version="1.0" encoding="utf-8"?>
<!-- Generator: Adobe Illustrator 28.1.0, SVG Export Plug-In . SVG Version: 6.00 Build 0)  -->
<svg version="1.1" id="Layer_1" xmlns="http://www.w3.org/2000/svg" xmlns:xlink="http://www.w3.org/1999/xlink" x="0px" y="0px"
	 viewBox="0 0 456 144" style="enable-background:new 0 0 456 144;" xml:space="preserve">
<style type="text/css">
	.st0{fill:#929EB4;}
	.st1{fill:none;}
	.st2{fill:#0C4999;}
	.st3{fill:#1298FF;}
	.st4{fill:#0E2857;}
</style>
<path class="st0" d="M75.7,52.4c-0.7-0.8-1.6-1.4-2.6-1.8l-0.4-0.2c-1.9-0.8-4-1-6-0.5c-1.6,0.4-3,1.2-4.2,2.3
	c-3.7-3.5-9.6-3.4-13.2,0.2c-2.5,2.6-3.4,6.2-2.5,9.7c0.4,1.6,1.1,3,2.1,4.3l0,0c3.7,4.5,7.9,8.5,12.5,12l1,0.8l1-0.8
	c4.6-3.5,8.8-7.5,12.5-12c0.5-0.6,0.9-1.2,1.3-1.9c1.2-2.2,1.6-4.8,1.1-7.2C77.9,55.4,77,53.7,75.7,52.4z M74.3,62.8
	c-0.3,0.5-0.5,0.9-0.9,1.3c-3.3,3.9-6.9,7.5-10.9,10.7c-4-3.2-7.7-6.8-10.9-10.7c-0.7-0.9-1.2-1.9-1.5-2.9c-0.7-2.3-0.1-4.7,1.6-6.5
	c2.4-2.4,6.3-2.4,8.7,0c0.1,0.1,0.1,0.1,0.2,0.2s0.4,0.5,0.7,0.7l1.3,1.5l1.3-1.5c0.2-0.3,0.6-0.6,0.7-0.7c0.7-0.7,1.5-1.2,2.3-1.5
	c0.3-0.1,0.5-0.2,0.8-0.2c1.2-0.3,2.4-0.2,3.6,0.2l0.3,0.1c0.7,0.3,1.3,0.7,1.9,1.3c0.9,0.9,1.5,2,1.7,3.2
	C75.4,59.6,75.1,61.4,74.3,62.8L74.3,62.8z M91,96.9v-68c0-2.7-2.2-4.9-4.9-4.9H39c-2.7,0-4.9,2.2-4.9,4.9v68c0,2.7,2.2,4.9,4.9,4.9
	h47.1C88.8,102,91,99.7,91,96.9z M37.4,96.9v-68c0-0.8,0.7-1.5,1.5-1.5H86c0.8,0,1.5,0.7,1.5,1.5v68c0,0.8-0.7,1.5-1.5,1.5H38.9
	C38.1,98.5,37.4,97.8,37.4,96.9z M125.8,53.6c-0.7-1.6-2-2.8-3.6-3.4l-25.9-9.7c-0.9-0.3-1.8,0.2-2.1,1.1c-0.3,0.8,0.1,1.7,0.9,2.1
	l25.9,9.7c1.6,0.6,2.4,2.4,1.8,4l-21.2,57.1c-0.6,1.6-2.4,2.4-4,1.8L64,103.8c-0.9-0.3-1.8,0.2-2.1,1.1c-0.3,0.8,0.1,1.7,0.9,2.1
	l33.5,12.6c3.4,1.3,7.1-0.4,8.4-3.8L126,58.5C126.6,57,126.5,55.2,125.8,53.6z M81.3,31h-3.8c-0.9,0-1.7,0.8-1.7,1.7
	s0.8,1.7,1.7,1.7h3.2v3.3c0,0.9,0.8,1.7,1.7,1.7s1.7-0.8,1.7-1.7v-3.9C84.1,32.2,82.8,31,81.3,31L81.3,31z M47.5,91.6h-3.2v-3.3
	c0-0.9-0.8-1.7-1.7-1.7s-1.7,0.8-1.7,1.7v3.9c0,1.6,1.3,2.8,2.8,2.8h3.8c0.9-0.1,1.6-0.9,1.6-1.8C49,92.4,48.3,91.7,47.5,91.6z"/>
<rect id="Rectangle_2291_4_" x="-0.5" y="-0.5" class="st1" width="456" height="144"/>
<path class="st2" d="M316.5,56.6c-1.7,1.7-4,2.5-6.5,2.5c-6.5,0-9.1-4.2-9.1-8.8c0-4.4,2.8-9,9.1-9c2.3,0,4.5,0.9,6.2,2.6l-2.4,2.4
	c-1-1-2.5-1.4-3.9-1.4c-3.9,0-5.4,3-5.3,5.5c0,2.5,1.4,5.3,5.3,5.3c1.4,0,3.2-0.6,4.2-1.6L316.5,56.6z M329.8,55.8h-8.7l-1.2,2.9
	h-4.1l7.6-17h4.1l7.6,17H331L329.8,55.8z M325.4,45.5l-2.9,6.9h5.9L325.4,45.5z M345.8,45.8c-0.9-1-2.6-1.4-3.9-1.4
	c-1.7,0-3,0.7-3,1.9c0,1.6,1.5,1.8,3.7,2c3.4,0.3,6.5,1.6,6.5,5.5c0,3.8-3.5,5.4-7.2,5.5c-2.9,0-6-1.1-7.4-3.5l2.3-2.4
	c1.3,1.7,3.5,2.4,5.2,2.4c2,0,3.4-0.8,3.4-2c0-1.4-1.1-2.1-3.4-2.3c-3.6-0.3-6.8-1.2-6.8-5.2c0-3.4,3.2-5.2,6.7-5.2
	c2.6,0,4.6,0.6,6.3,2.6L345.8,45.8z M350.6,58.7v-17h3.8v17H350.6z M369,52.8l-0.2-5.3v-5.7h3.8v17h-3.3l-8.5-10.9l0.1,5.6v5.3h-3.8
	v-17h3.3L369,52.8z M383.6,59.1c-5.4,0-9.2-3.4-9.2-8.9s3.7-8.9,9.2-8.9s9.2,3.4,9.2,8.9C392.8,55.7,389.1,59.1,383.6,59.1z
	 M383.6,44.7c-3.2,0-5.5,2.4-5.5,5.5c0,3.2,2.2,5.5,5.5,5.5s5.5-2.3,5.5-5.5C389.1,47.1,386.9,44.7,383.6,44.7z M310.2,66.2
	c3.2,0,5.9,1.5,5.9,4.6c0,1.4-0.6,2.7-2.3,3.5c2.2,0.8,3.1,3,2.7,4.9c-0.5,2.7-2.8,4-6.2,4c-2.7,0-5.8,0-8.5,0v-17H310.2z
	 M305.5,72.9h4.6c1.5,0,2.2-0.6,2.2-1.6s-0.7-1.7-2.2-1.7h-4.7v3.3H305.5z M305.5,79.9h4.7c1.7,0,2.5-0.8,2.5-1.9s-0.9-2-2.6-2
	c-1.5,0-3.1,0-4.6,0V79.9z M326.7,83.7c-5.4,0-9.2-3.4-9.2-8.9s3.7-8.9,9.2-8.9s9.2,3.4,9.2,8.9C335.9,80.3,332.1,83.7,326.7,83.7z
	 M326.7,69.2c-3.2,0-5.5,2.4-5.5,5.5c0,3.2,2.2,5.5,5.5,5.5s5.5-2.3,5.5-5.5C332.2,71.6,330,69.2,326.7,69.2z M349.5,77.3l-0.2-5.3
	v-5.7h3.8v17h-3.3l-8.5-10.9l0.1,5.6v5.3h-3.8v-17h3.3L349.5,77.3z M371.2,66.3v9.5c0,5.1-2.8,7.7-7.3,7.9c-4.4,0.1-8.2-2.4-8.2-7.9
	v-9.5h3.8v9.5c0,3,1.7,4.6,4.5,4.5c2.6-0.2,3.5-1.9,3.5-4.5v-9.5H371.2z M383.8,70.4c-0.9-1-2.6-1.4-3.9-1.4c-1.7,0-3,0.7-3,1.9
	c0,1.6,1.5,1.8,3.7,2c3.4,0.3,6.5,1.6,6.5,5.5c0,3.8-3.5,5.4-7.2,5.5c-2.9,0-6-1.1-7.4-3.5l2.3-2.4c1.3,1.7,3.5,2.4,5.2,2.4
	c2,0,3.4-0.8,3.4-2c0-1.4-1.1-2.1-3.4-2.3c-3.6-0.3-6.8-1.2-6.8-5.2c0-3.4,3.2-5.2,6.7-5.2c2.6,0,4.6,0.6,6.3,2.6L383.8,70.4z"/>
<path class="st0" d="M331.3,106.4h-0.9l0.3-1.3c-0.4-0.1-0.6-0.3-0.6-0.7c0-1.1,1.8-1.1,1.8,0C331.9,104.6,331.8,104.8,331.3,106.4z
	"/>
<path class="st0" d="M175.6,97.5l-3.3,4.6H172l-3.3-4.6v7.5H167v-9.8c0.6,0,1.2,0,1.8,0l3.2,4.6l3.2-4.6h1.8v9.8h-1.6v-7.5H175.6z
	 M185.8,103h-5.3l-0.9,2.1h-1.7l4.4-9.8h1.7l4.4,9.8h-1.7L185.8,103z M183.2,96.9l-2.1,4.7h4.1L183.2,96.9z M190.6,96.6h-3.2v-1.4
	c2.8,0,5.2,0,8,0v1.4h-3.2v8.4h-1.6V96.6z M204.3,103.8c-1,1-2.3,1.5-3.7,1.5c-3.6,0-5.2-2.5-5.2-5c0-2.6,1.7-5.1,5.2-5.1
	c1.3,0,2.6,0.5,3.6,1.5l-1.1,1c-0.7-0.7-1.6-1-2.5-1c-2.5,0-3.6,1.8-3.6,3.6c0,1.8,1.1,3.6,3.6,3.6c0.9,0,1.9-0.4,2.6-1.1
	L204.3,103.8z M212,105v-4.1h-5.2v4.1h-1.6v-9.8h1.6v4.3h5.2v-4.3h1.6v9.8H212z M222.9,95.2c1.9,0,3.3,0.9,3.3,2.8
	c0,0.8-0.4,1.6-1.4,1.9c1.2,0.4,1.7,1.5,1.7,2.3c0,2.1-1.7,2.8-3.6,2.8c-1.5,0-3,0-4.5,0v-9.8C218.4,95.2,222.9,95.2,222.9,95.2z
	 M220,99.3h3c1.2,0,1.8-0.5,1.8-1.2s-0.6-1.4-1.8-1.4h-3V99.3z M220,103.6h2.9c0.9,0,2.1-0.3,2.1-1.4s-1.2-1.5-2.1-1.5c-1,0-2,0-3,0
	v2.9H220z M237.3,100.2c0,2.6-1.6,5.1-5,5.1s-5-2.5-5-5.1c0-3,2.1-5.1,5-5.1C235.7,95,237.3,97.5,237.3,100.2z M232.3,103.8
	c2.4,0,3.5-1.7,3.5-3.6c0-1.8-1-3.7-3.4-3.7c-2.3,0-3.5,1.6-3.5,3.7C228.9,101.9,229.9,103.8,232.3,103.8z M245.4,102.2v-7h1.6v9.8
	h-1.2l-5.6-6.9v6.9h-1.6v-9.8h1.2L245.4,102.2z M257,95.2v5.7c0,2.9-1.9,4.3-4.3,4.2c-2.2-0.1-4-1.5-4-4.2v-5.7h1.6v5.7
	c0,1.8,1,2.7,2.5,2.8c1.6,0.1,2.7-0.9,2.7-2.8v-5.7H257z M264.7,97.4c-0.5-0.7-1.4-1.1-2.4-1.1c-1.3,0-2.3,0.5-2.3,1.5
	s1.1,1.2,2.4,1.4c2,0.3,3.9,0.8,3.9,3s-2,3-4.1,3c-1.9,0-3.3-0.6-4.2-2.2l1.2-0.8c0.7,1.2,1.9,1.6,3.1,1.6s2.5-0.4,2.5-1.6
	c0-1.1-1.1-1.4-2.5-1.6c-1.9-0.3-3.8-0.8-3.8-2.9c0-2,2-2.8,3.8-2.8c1.4,0,2.8,0.3,3.7,1.7L264.7,97.4z M278.6,95.2v5.7
	c0,2.9-1.9,4.3-4.3,4.2c-2.2-0.1-4-1.5-4-4.2v-5.7h1.6v5.7c0,1.8,1,2.7,2.5,2.8c1.6,0.1,2.7-0.9,2.7-2.8v-5.7H278.6z M281.9,102v3
	h-1.6v-9.8c1.5,0,3,0,4.5,0c4.7,0,4.7,6.8,0,6.8H281.9z M281.9,100.6h3c2.6,0,2.6-3.9,0-3.9h-3V100.6z M293.9,96.6h-3.2v-1.4
	c2.8,0,5.2,0,8,0v1.4h-3.2v8.4h-1.6L293.9,96.6L293.9,96.6z M308.7,100.2c0,2.6-1.6,5.1-5,5.1s-5-2.5-5-5.1c0-3,2.1-5.1,5-5.1
	C307.1,95,308.7,97.5,308.7,100.2z M303.7,103.8c2.4,0,3.5-1.7,3.5-3.6c0-1.8-1-3.7-3.4-3.7c-2.3,0-3.5,1.6-3.5,3.7
	C300.3,101.9,301.3,103.8,303.7,103.8z M319,97.4c-0.4-0.7-1.4-1.1-2.4-1.1c-1.2,0-2.4,0.4-2.4,1.5c0,1,1.2,1.2,2.5,1.4
	c2,0.3,4.1,0.8,4.1,3c0,1.9-1.7,2.9-3.4,3v1.4h-1.5v-1.3c-1.4-0.1-3-0.7-3.7-2.2l1.3-0.7c0.4,1,1.8,1.5,3,1.5s2.6-0.4,2.6-1.6
	c0-1.1-1.3-1.4-2.7-1.6c-1.9-0.3-3.9-0.6-3.9-2.8c0-1.8,1.7-2.7,3.3-2.8v-1.3h1.5V95c1.2,0.2,2.2,0.5,2.9,1.7L319,97.4z M328.7,96.7
	h-5.5v2.1h2.2c2.2,0,3.8,1,3.8,3.1s-1.7,3.2-3.8,3.2c-2.1,0-4-0.7-4-3h1.6c0,1.2,1.4,1.5,2.4,1.5c1.2,0,2.3-0.6,2.3-1.8
	c0-1.1-1-1.7-2.3-1.7h-3.7c0-1.7,0-3.3,0-5h7V96.7z M333,99.3c0-5.7,8.2-5.7,8.2,0v1.7c0,5.7-8.2,5.7-8.2,0V99.3z M334.5,101
	c0,3.7,5.1,3.7,5.1,0v-1.7c0-3.7-5.1-3.7-5.1,0V101z M342.2,99.3c0-5.7,8.2-5.7,8.2,0v1.7c0,5.7-8.2,5.7-8.2,0V99.3z M343.8,101
	c0,3.7,5.1,3.7,5.1,0v-1.7c0-3.7-5.1-3.7-5.1,0V101z M351.5,99.3c0-5.7,8.2-5.7,8.2,0v1.7c0,5.7-8.2,5.7-8.2,0V99.3z M353,101
	c0,3.7,5.1,3.7,5.1,0v-1.7c0-3.7-5.1-3.7-5.1,0V101z"/>
<path class="st3" d="M174.5,117.6l-2.9,4h-0.3l-2.8-4v6.4h-1.3v-8.4c0.5,0,1,0,1.6,0l2.8,3.9l2.8-3.9h1.6v8.4h-1.3v-6.4H174.5z
	 M186,119.8c0,2.3-1.4,4.3-4.3,4.3c-2.9,0-4.3-2.1-4.3-4.3c0-2.6,1.8-4.4,4.3-4.4C184.6,115.5,186,117.6,186,119.8z M181.7,122.9
	c2.1,0,3-1.5,3-3.1c0-1.5-0.9-3.2-2.9-3.2c-1.9,0-3,1.4-3,3.2C178.8,121.3,179.7,122.9,181.7,122.9z M194.9,124h-1.6l-2.6-2.9H189
	v2.9h-1.3v-8.4c1.3,0,2.6,0,3.9,0c1.9,0,3,1.3,3,2.7c0,1.2-0.6,2.4-2.3,2.6l2.5,2.8L194.9,124z M189,116.8v3h2.6
	c1.1,0,1.6-0.7,1.6-1.5s-0.5-1.5-1.6-1.5H189z M202.5,124h-6.2c0-2.8,0-5.6,0-8.4h6.2v1.3h-4.8v2.3h4.6v1.2h-4.6v2.3h4.9L202.5,124
	L202.5,124z M207.3,124v-8.4h1.3v8.4H207.3z M216.5,121.6v-6h1.3v8.4h-1l-4.8-5.9v5.9h-1.4v-8.4h1L216.5,121.6z M220,124v-8.4h5.9
	v1.3h-4.6v2.6h4.4v1.2h-4.4v3.3H220z M235.6,119.8c0,2.3-1.4,4.3-4.3,4.3c-2.9,0-4.3-2.1-4.3-4.3c0-2.6,1.8-4.4,4.3-4.4
	C234.2,115.5,235.6,117.6,235.6,119.8z M231.3,122.9c2.1,0,3-1.5,3-3.1c0-1.5-0.9-3.2-2.9-3.2c-1.9,0-3,1.4-3,3.2
	C228.3,121.3,229.2,122.9,231.3,122.9z"/>
<g>
	<path class="st4" d="M183.8,42.4v-5.6c0-2.8-1.3-4.2-3.5-4.2h-0.3c-2,0-3.4,1.4-3.4,4.2v7.8h-9.8V37c0-8,5-12.5,13-12.5h0.7
		c8,0,13.1,4.5,13.1,12.9v5.5c0,5.8-2.2,8.2-5.8,12.1L179,65.1c-2,2.3-2.3,3.5-2.3,6.4v3.4h16.9v8.7h-26.8V71.9
		c0-6.4,1.6-8.7,5.3-12.8l9.1-10.3C183.2,46.5,183.8,45.3,183.8,42.4z"/>
	<path class="st4" d="M208.6,24.5h0.7c8,0,13.4,4.7,13.4,13.2v33.4c0,8.4-5.5,13.2-13.4,13.2h-0.7c-8,0-13.3-4.7-13.3-13.2V37.7
		C195.3,29.2,200.6,24.5,208.6,24.5z M209.2,32.6h-0.3c-2.2,0-3.6,1.3-3.6,4.7v34.1c0,3.3,1.4,4.7,3.6,4.7h0.3c2,0,3.6-1.4,3.6-4.7
		V37.3C212.8,34,211.2,32.6,209.2,32.6z"/>
	<path class="st4" d="M238.2,24.5h0.7c8,0,13.4,4.7,13.4,13.2v33.4c0,8.4-5.5,13.2-13.4,13.2h-0.7c-8,0-13.3-4.7-13.3-13.2V37.7
		C224.9,29.2,230.2,24.5,238.2,24.5z M238.8,32.6h-0.3c-2.2,0-3.6,1.3-3.6,4.7v34.1c0,3.3,1.4,4.7,3.6,4.7h0.3c2,0,3.6-1.4,3.6-4.7
		V37.3C242.4,34,240.8,32.6,238.8,32.6z"/>
	<path class="st4" d="M262.5,24.6h0.6c5.7,0,8.9,3.4,8.9,9.8v7.9c0,6.4-3.4,9.8-8.9,9.8h-0.6c-5.7,0-8.8-3.4-8.8-9.8v-7.9
		C253.6,27.9,256.7,24.6,262.5,24.6z M291,25.1l-30,58.5h-6.6l30-58.5H291z M262.9,30.4h-0.2c-1.4,0-2.2,1-2.2,3.1v9.6
		c0,2,0.7,3,2.2,3h0.2c1.4,0,2.2-1,2.2-3v-9.6C265,31.5,264.3,30.4,262.9,30.4z M282.3,56.7h0.5c5.8,0,8.9,3.4,8.9,9.8v7.9
		c0,6.4-3.4,9.8-8.8,9.8h-0.6c-5.8,0-8.8-3.4-8.8-9.8v-7.9C273.5,60.1,276.5,56.7,282.3,56.7z M282.7,62.6h-0.2
		c-1.4,0-2.2,1-2.2,3.1v9.6c0,2,0.7,3.1,2.2,3.1h0.2c1.3,0,2.2-0.9,2.2-3.1v-9.6C284.9,63.5,284,62.6,282.7,62.6z"/>
</g>
</svg>
