<?xml version="1.0" encoding="utf-8"?>
<svg style="enable-background: new 0 0 64 64;" xmlns="http://www.w3.org/2000/svg" x="0px" y="0px" xml:space="preserve" viewBox="0 0 64 64" height="64px" width="64px" xmlns:xlink="http://www.w3.org/1999/xlink" version="1.1" fill="#ffffff">
	<path d="M23.1,55.3l2.5,6.6l2.5-6.6H30v8.6h-1.5V61l0.1-3.8l-2.5,6.6h-1.1l-2.5-6.6l0.1,3.8v2.8h-1.5v-8.6
		H23.1z M33.3,62.7h3.9v1.2h-5.4v-8.6h1.5V62.7z M38.3,63.9v-8.6h2.9c1,0,1.7,0.2,2.2,0.6c0.5,0.4,0.8,1,0.8,1.7
		c0,0.4-0.1,0.7-0.3,1.1c-0.2,0.3-0.5,0.6-0.9,0.7c0.5,0.1,0.8,0.4,1.1,0.7c0.3,0.3,0.4,0.8,0.4,1.3c0,0.8-0.3,1.4-0.8,1.9
		c-0.5,0.4-1.3,0.7-2.2,0.7H38.3z M39.8,58.9h1.5c0.5,0,0.8-0.1,1.1-0.3c0.3-0.2,0.4-0.5,0.4-0.9c0-0.4-0.1-0.7-0.4-0.9
		s-0.6-0.3-1.1-0.3h-1.5V58.9z M39.8,60v2.7h1.7c0.5,0,0.8-0.1,1.1-0.3c0.3-0.2,0.4-0.6,0.4-1c0-0.9-0.5-1.4-1.4-1.4H39.8z M45.7,8.5
		l0.8,0.6c0.6,0.3,0.6,0.8,0.3,1.4l0,0c-0.3,0.6-0.8,0.6-1.4,0.3l-1.1-0.6c-0.3,0-0.6,0-0.6,0.3c-0.3,0.6-0.8,1.4-1.1,2.2
		c-0.3,0.6-0.3,1.1-0.6,1.4c0,0.3,0,0.6,0.3,0.6l0,0l1.1,0.3c0.6,0,0.8,0.6,0.8,1.1l0,0l0,0c0,0.6-0.6,0.8-1.1,0.8l0,0l-1.4-0.3
		c-0.3,0-0.6,0-0.6,0.3c-0.3,1.4-0.6,2.7-0.6,4.1c0,0.3,0.3,0.6,0.3,0.6l0,0H42c0.6,0,0.8,0.3,0.8,0.8l0,0l0,0c0,0.6-0.3,0.8-0.8,0.8
		l0,0h-1.1c-0.3,0-0.6,0.3-0.6,0.6l0,0c0,1.4,0.3,2.7,0.6,4.1c0,0.3,0.3,0.3,0.6,0.3l1.4-0.3c0.6,0,1.1,0.3,1.1,0.8l0,0
		c0,0.6-0.3,1.1-0.8,1.1L42,30.2c-0.3,0-0.3,0.3-0.3,0.6l0,0c0.3,0.6,0.3,0.8,0.6,1.4c0.3,0.8,0.6,1.4,1.1,2.2c0,0.3,0.3,0.3,0.6,0.3
		l1.1-0.6c0.6-0.3,1.1,0,1.4,0.3l0,0l0,0c0.3,0.6,0,1.1-0.3,1.4l0,0l-0.8,0.6c-0.3,0-0.3,0.3-0.3,0.6l0,0c0.6,0.6,0.8,1.4,1.4,2
		c0.3-0.3,0.3-0.3,0.6-0.6c8.6-8.8,8.6-22.8,0-31.4c-0.3-0.3-0.3-0.3-0.6-0.6c-0.6,0.6-1.1,1.4-1.4,2C45.4,8,45.4,8.3,45.7,8.5
		C45.7,8.3,45.7,8.3,45.7,8.5L45.7,8.5z M17.8,36.5c0-0.3,0-0.6,0-0.6l0,0l-1.1-0.6c-0.6-0.3-0.6-0.8-0.3-1.4l0,0
		c0.3-0.6,0.8-0.6,1.4-0.3l1.4,0.8c0.3,0,0.6,0,0.6-0.3c0.3-0.8,0.8-1.7,1.1-2.5c0.3-0.6,0.3-0.8,0.6-1.4c0-0.3,0-0.6-0.3-0.6l0,0
		l-1.4-0.3c-0.6,0-0.8-0.6-0.8-1.1l0,0l0,0c0-0.6,0.6-0.8,1.1-0.8l0,0l1.7,0.3c0.3,0,0.6,0,0.6-0.3C22.7,26,23,24.7,23,23
		c0-0.3-0.3-0.6-0.3-0.6l0,0h-1.4c-0.6,0-0.8-0.3-0.8-0.8l0,0l0,0c0-0.6,0.3-0.8,0.8-0.8l0,0h1.4c0.3,0,0.6-0.3,0.6-0.6l0,0
		c0-1.4-0.3-2.7-0.6-4.1c0-0.3-0.3-0.3-0.6-0.3l-1.7,0.3c-0.6,0-1.1-0.3-1.1-0.8l0,0c0-0.6,0.3-1.1,0.8-1.1l1.4-0.3
		c0.3,0,0.3-0.3,0.3-0.6l0,0c-0.3-0.6-0.3-0.8-0.6-1.4c-0.3-0.8-0.6-1.4-1.1-2.2c0-0.3-0.3-0.3-0.6-0.3l-1.5,1
		c-0.6,0.3-1.1,0-1.4-0.3l0,0l0,0c-0.3-0.6,0-1.1,0.3-1.4l0,0L18,8.1c0.3,0,0.3-0.3,0.3-0.6l0,0C18,7,17.5,6.4,17.2,6.2l0,0l-0.3,0.3
		c-8.6,8.6-8.6,22.7,0,31.2l0,0l0.3,0.3l0,0C17.2,37.5,17.5,37,17.8,36.5L17.8,36.5z M43.4,37l-2,0.8c-0.6,0.3-1.1,0-1.4-0.3l0,0l0,0
		c-0.3-0.6,0-1.1,0.3-1.4l0,0l1.7-0.8c0.3,0,0.3-0.3,0.3-0.6l0,0c-0.8-1.4-1.4-2.7-2-4.1c0-0.3-0.3-0.3-0.6-0.3l-2,0.3
		c-0.6,0-1.1-0.3-1.1-0.8l0,0l0,0c0-0.6,0.3-1.1,0.8-1.1l1.7-0.3c0.3,0,0.3-0.3,0.3-0.6l0,0c-0.2-1.5-0.5-2.9-0.5-4.6
		c0-0.3-0.3-0.3-0.3-0.3h-2c-0.6,0-0.8-0.3-0.8-0.8l0,0l0,0c0-0.6,0.3-0.8,0.8-0.8l0,0h2C39,21.2,39,21,39,21c0-1.4,0.3-3,0.6-4.4
		c0-0.3,0-0.6-0.3-0.6l0,0l-1.7-0.3c-0.6,0-0.8-0.6-0.8-1.1l0,0l0,0c0-0.6,0.6-0.8,1.1-0.8l0,0l2,0.3c0.3,0,0.6,0,0.6-0.3
		c0.6-1.4,1.1-2.7,1.7-4.1c0-0.3,0-0.6-0.3-0.6l0,0l-1.7-0.8c-0.6-0.3-0.6-0.8-0.3-1.4l0,0c0.3-0.6,0.8-0.6,1.4-0.3L43,7.4
		c0.3,0,0.6,0,0.6-0.3c0.6-0.8,1.1-1.7,2-2.5C37.4-1.7,26-1.4,18,5l0,0c0.6,0.6,1.1,1.4,1.4,2c0,0.3,0.3,0.3,0.6,0.3l1.4-0.8
		c0.6-0.3,1.1,0,1.4,0.3l0,0l0,0c0.3,0.6,0,1.1-0.3,1.4l0,0l-1.4,0.6c-0.3,0-0.3,0.3-0.3,0.6l0,0c0.8,1.4,1.4,2.7,2,4.1
		c0,0.3,0.3,0.3,0.6,0.3l1.7-0.3c0.6,0,1.1,0.3,1.1,0.8l0,0l0,0c0,0.6-0.3,1.1-0.8,1.1L24,15.7c-0.3,0-0.3,0.3-0.3,0.6l0,0
		c0.3,1.4,0.6,3,0.6,4.7c0,0.3,0.3,0.3,0.3,0.3h1.7c0.6,0,0.8,0.3,0.8,0.8l0,0l0,0c0,0.6-0.3,0.8-0.8,0.8l0,0h-1.7
		c-0.3,0-0.3,0.3-0.3,0.3c0,1.7-0.3,3-0.6,4.7c0,0.3,0,0.6,0.3,0.6l0,0l1.4,0.3c0.6,0,0.8,0.6,0.8,1.1l0,0l0,0c0,0.6-0.6,0.8-1.1,0.8
		l0,0l-1.7-0.3c-0.3,0-0.6,0-0.6,0.3c-0.6,1.4-1.1,2.7-2,4.1c0,0.3,0,0.6,0.3,0.6l0,0l1.4,0.6c0.6,0.3,0.6,0.8,0.3,1.4l0,0
		C22.5,38,22,38,21.4,37.7l-1.7-0.8c-0.3,0-0.6,0-0.6,0.3c-0.6,0.6-0.8,1.1-1.4,2l0,0c8,6.4,19.4,6.6,27.4,0.3
		C44.6,38.4,44,37.8,43.4,37C43.7,37,43.4,37,43.4,37L43.4,37z" />
	</svg>