<?xml version="1.0" encoding="utf-8"?>
<!-- Generator: Adobe Illustrator 28.2.0, SVG Export Plug-In . SVG Version: 6.00 Build 0)  -->
<svg version="1.1" id="Layer_1" xmlns="http://www.w3.org/2000/svg" xmlns:xlink="http://www.w3.org/1999/xlink" x="0px" y="0px"
	 viewBox="0 0 456 144" style="enable-background:new 0 0 456 144;" xml:space="preserve">
<style type="text/css">
	.st0{fill:none;}
	.st1{fill:#0E2857;}
	.st2{fill:#0C4999;}
	.st3{fill:#929EB4;}
	.st4{fill:#1298FF;}
</style>
<g>
	<rect id="Rectangle_2291_3_" y="0" class="st0" width="456" height="144"/>
	<g>
		<path class="st1" d="M159.8,33.4v-8.3h13.7v58.5h-9.8V33.4H159.8z"/>
		<path class="st1" d="M192.6,42.4v-5.6c0-2.8-1.3-4.2-3.5-4.2h-0.3c-2,0-3.4,1.4-3.4,4.2v7.8h-9.8V37c0-8,5-12.5,13-12.5h0.7
			c8,0,13.1,4.5,13.1,12.9v5.5c0,5.8-2.2,8.2-5.8,12.1l-8.9,10.1c-2,2.3-2.3,3.5-2.3,6.4v3.4h16.9v8.7h-26.8V71.9
			c0-6.4,1.6-8.7,5.3-12.8l9.1-10.3C192,46.5,192.6,45.3,192.6,42.4z"/>
		<path class="st1" d="M231,57.4v13.3c0,8.9-5.1,13.5-13.1,13.5h-0.6c-8,0-13.1-4.6-13.1-13.3v-8.6h9.9v9c0,3.5,1.4,4.7,3.4,4.7h0.3
			c2,0,3.4-1.4,3.4-4.7V57.7c0-3.9-1.3-5.4-4.7-5.4h-12.2V25.1h26.6v8.3h-17.3v10.8h5.2C227.4,44.2,231,48.8,231,57.4z"/>
		<path class="st1" d="M240.9,24.6h0.6c5.7,0,8.9,3.4,8.9,9.8v7.9c0,6.4-3.4,9.8-8.9,9.8h-0.6c-5.7,0-8.8-3.4-8.8-9.8v-7.9
			C232.1,27.9,235.1,24.6,240.9,24.6z M269.4,25.1l-30,58.5h-6.6l30-58.5H269.4z M241.3,30.4h-0.2c-1.4,0-2.2,1-2.2,3.1v9.6
			c0,2,0.7,3,2.2,3h0.2c1.4,0,2.2-1,2.2-3v-9.6C243.5,31.5,242.7,30.4,241.3,30.4z M260.7,56.7h0.5c5.8,0,8.9,3.4,8.9,9.8v7.9
			c0,6.4-3.4,9.8-8.8,9.8h-0.6c-5.8,0-8.8-3.4-8.8-9.8v-7.9C251.9,60.1,254.9,56.7,260.7,56.7z M261.1,62.6h-0.2
			c-1.4,0-2.2,1-2.2,3.1v9.6c0,2,0.7,3.1,2.2,3.1h0.2c1.3,0,2.2-0.9,2.2-3.1v-9.6C263.3,63.5,262.4,62.6,261.1,62.6z"/>
	</g>
	<g>
		<g>
			<path class="st2" d="M293,45.8c-0.6-1-2.2-1.9-4-1.9c-2.4,0-3.5,1-3.5,2.3c0,1.5,1.7,1.9,3.8,2.1c3.5,0.4,6.9,1.4,6.9,5.4
				c0,3.8-3.4,5.4-7.1,5.4c-3.5,0-6.1-1.1-7.4-4.2l2.7-1.4c0.8,1.9,2.7,2.7,4.8,2.7c2,0,3.9-0.7,3.9-2.6c0-1.6-1.7-2.3-3.9-2.5
				c-3.5-0.4-6.7-1.3-6.7-5.1c0-3.5,3.4-4.9,6.6-5c2.6,0,5.4,0.8,6.7,3.4L293,45.8z"/>
			<path class="st2" d="M297.6,58.7v-17h3.2v17H297.6z"/>
			<path class="st2" d="M315.4,45.9c-1.1-1.1-2.8-1.7-4.3-1.7c-3.6,0-5.9,2.8-5.9,6.3c0,2.8,1.6,5.7,5.9,5.7c1.3,0,2.5-0.3,3.8-1.4
				v-3h-4.3v-2.9h7.3V56c-1.7,1.9-3.8,3.1-6.8,3.1c-6.4,0-9-4.2-9-8.7c0-4.8,3-9.2,9-9.2c2.3,0,4.6,0.9,6.3,2.6L315.4,45.9z"/>
			<path class="st2" d="M330.7,41.7h3.2v17h-2v0L323,47.2v11.5h-3.2v-17h2.6l8.3,10.5V41.7z"/>
			<path class="st2" d="M335.5,49.4h9v2.7h-9V49.4z"/>
			<path class="st2" d="M360.9,41.7v9.7c0,5-3.1,7.6-7.4,7.6c-4.1,0-7.6-2.5-7.6-7.6v-9.7h3.2v9.7c0,3.1,1.7,4.7,4.4,4.7
				c2.6,0,4.2-1.8,4.2-4.7v-9.7H360.9z"/>
			<path class="st2" d="M371.1,53.7h-4.8v5h-3.2v-17c2.7,0,5.3,0,8,0C379.4,41.7,379.4,53.7,371.1,53.7z M366.3,50.8h4.8
				c4.1,0,4.1-6,0-6h-4.8V50.8z"/>
			<path class="st2" d="M296.3,71.2c0,1.3-0.6,2.6-2.2,3.3c2,0.6,2.7,2.7,2.7,3.8c0,3.8-2.8,5-6.4,5c-2.7,0-5.4,0-8.1,0v-17
				c2.7,0,5.4,0,8.1,0C293.8,66.2,296.3,67.8,296.3,71.2z M285.6,73.1h4.9c2,0,2.7-0.8,2.7-1.8c0-0.8-0.6-2.1-2.7-2.1h-4.9V73.1z
				 M285.6,80.3h4.9c1.3,0,3.2-0.4,3.2-2c0-1.5-1.9-2.3-3.2-2.3h-4.9V80.3z"/>
			<path class="st2" d="M315.1,74.8c0,4.4-2.7,8.8-8.7,8.8c-6,0-8.7-4.3-8.7-8.8c0-4.5,2.9-9,8.7-9
				C312.2,65.9,315.2,70.4,315.1,74.8z M300.8,74.9c0.1,2.8,1.6,5.8,5.6,5.8c4,0,5.5-3,5.6-5.8c0-2.9-1.6-6.1-5.6-6.1
				C302.4,68.8,300.7,72.1,300.8,74.9z"/>
			<path class="st2" d="M327.6,66.2h3.2v17h-2v0l-8.9-11.5v11.5h-3.2v-17h2.6l8.3,10.5V66.2z"/>
			<path class="st2" d="M347.7,66.3V76c0,5-3.1,7.6-7.4,7.6c-4.1,0-7.6-2.5-7.6-7.6v-9.7h3.2V76c0,3.1,1.8,4.7,4.4,4.7
				s4.2-1.8,4.2-4.7v-9.7H347.7z"/>
			<path class="st2" d="M360.4,70.4c-0.6-1-2.2-1.9-4-1.9c-2.4,0-3.5,1-3.5,2.3c0,1.5,1.7,1.9,3.8,2.1c3.5,0.4,6.9,1.4,6.9,5.4
				c0,3.8-3.4,5.4-7.1,5.4c-3.5,0-6.1-1.1-7.4-4.2l2.7-1.4c0.8,1.9,2.7,2.7,4.8,2.7c2,0,3.9-0.7,3.9-2.6c0-1.6-1.7-2.3-3.9-2.5
				c-3.5-0.4-6.7-1.3-6.7-5.1c0-3.5,3.4-4.9,6.6-5c2.6,0,5.4,0.8,6.7,3.4L360.4,70.4z"/>
		</g>
	</g>
	<g>
		<g>
			<path class="st3" d="M173.2,100.2c0,2.5-1.6,5.1-5,5.1s-5-2.5-5-5.1c0-2.6,1.7-5.2,5-5.2C171.5,95,173.2,97.6,173.2,100.2z
				 M164.9,100.2c0,1.6,0.9,3.3,3.2,3.3c2.3,0,3.2-1.7,3.2-3.3c0-1.7-0.9-3.5-3.2-3.5C165.9,96.7,164.9,98.6,164.9,100.2z"/>
			<path class="st3" d="M181,95.2h1.8v9.8h-1.1v0l-5.2-6.6v6.6h-1.8v-9.8h1.5l4.8,6.1V95.2z"/>
			<path class="st3" d="M191.5,99.3l2.6-4h2.2v0.1l-3.9,5.7v4h-1.8v-4l-3.8-5.7v-0.1h2.2L191.5,99.3z"/>
			<path class="st3" d="M206.8,100.2c0,2.5-1.6,5.1-5,5.1s-5-2.5-5-5.1c0-2.6,1.7-5.2,5-5.2C205.1,95,206.8,97.6,206.8,100.2z
				 M198.5,100.2c0,1.6,0.9,3.3,3.2,3.3c2.3,0,3.2-1.7,3.2-3.3c0-1.7-0.9-3.5-3.2-3.5C199.4,96.7,198.5,98.6,198.5,100.2z"/>
			<path class="st3" d="M216.7,95.2v5.6c0,2.9-1.8,4.4-4.2,4.4c-2.4,0-4.4-1.4-4.4-4.4v-5.6h1.8v5.6c0,1.8,1,2.7,2.5,2.7
				s2.4-1,2.4-2.7v-5.6H216.7z"/>
			<path class="st3" d="M227.2,105H225l-2.9-3.3h-1.8v3.3h-1.8v-9.8c1.6,0,3.1,0,4.7,0c2.3,0,3.5,1.6,3.5,3.2c0,1.3-0.6,2.7-2.5,3.1
				l3,3.3V105z M220.4,96.9v3.1h2.8c1.2,0,1.7-0.8,1.7-1.6s-0.5-1.6-1.7-1.6H220.4z"/>
			<path class="st3" d="M230.8,105v-9.8h7V97h-5.2v2.7h4.9v1.7h-4.9v3.6H230.8z"/>
			<path class="st3" d="M239.3,105v-9.8h1.8v9.8H239.3z"/>
			<path class="st3" d="M251.5,105h-2.2l-2.9-3.3h-1.8v3.3h-1.8v-9.8c1.6,0,3.1,0,4.7,0c2.3,0,3.5,1.6,3.5,3.2
				c0,1.3-0.6,2.7-2.5,3.1l3,3.3V105z M244.7,96.9v3.1h2.8c1.2,0,1.7-0.8,1.7-1.6s-0.5-1.6-1.7-1.6H244.7z"/>
			<path class="st3" d="M258.8,97.6c-0.3-0.6-1.3-1.1-2.3-1.1c-1.4,0-2,0.6-2,1.3c0,0.9,1,1.1,2.2,1.2c2,0.3,4,0.8,4,3.1
				c0,2.2-1.9,3.1-4.1,3.1c-2,0-3.5-0.6-4.3-2.4l1.5-0.8c0.4,1.1,1.6,1.6,2.8,1.6c1.2,0,2.3-0.4,2.3-1.5c0-0.9-1-1.3-2.3-1.4
				c-2-0.2-3.9-0.8-3.9-3c0-2,2-2.8,3.8-2.9c1.5,0,3.1,0.4,3.9,1.9L258.8,97.6z"/>
			<path class="st3" d="M264.5,96.9h-3.1v-1.7c2.8,0,5.2,0,8.1,0v1.7h-3.1v8.1h-1.8V96.9z"/>
			<path class="st3" d="M275.5,100.7v-1.5h1.4c1,0,2-0.3,2.1-1.2c0-0.6-0.4-1.3-2-1.3c-0.9,0-2,0.3-2,1.2H273c0-2.1,2.1-2.9,3.9-2.9
				c1.8,0,3.8,0.9,3.9,3c0,0.8-0.5,1.7-1.4,1.9c0.9,0.3,1.6,1.2,1.6,2.1c0,2.4-2.3,3.1-4.1,3.1c-1.9,0-4-0.8-4-3h1.9
				c0,1,1.4,1.4,2.2,1.4c0.9,0,2.2-0.4,2.2-1.4c0-0.6-0.3-1.3-2.1-1.3H275.5z"/>
			<path class="st3" d="M294,100c0,2.5-1.5,5-4.9,5c-1.2,0-2.6,0-3.9,0v-9.8c1.2,0,2.6,0,3.9,0C292.5,95.2,294,97.6,294,100z
				 M287.1,103.2h2c2.2,0,3.1-1.6,3.1-3.2c0-1.5-0.9-3.1-3.1-3.1h-2V103.2z"/>
			<path class="st3" d="M302.5,105h-7.3c0-3.3,0-6.5,0-9.8h7.3V97H297v2.3h5.3v1.7H297v2.2h5.5V105z"/>
			<path class="st3" d="M308.6,102.1h-2.8v2.9H304v-9.8c1.5,0,3.1,0,4.6,0C313.4,95.2,313.4,102.1,308.6,102.1z M305.8,100.4h2.8
				c2.4,0,2.4-3.5,0-3.5h-2.8V100.4z"/>
			<path class="st3" d="M323.1,100.2c0,2.5-1.6,5.1-5,5.1c-3.4,0-5-2.5-5-5.1c0-2.6,1.7-5.2,5-5.2C321.4,95,323.1,97.6,323.1,100.2z
				 M314.8,100.2c0,1.6,0.9,3.3,3.2,3.3s3.2-1.7,3.2-3.3c0-1.7-0.9-3.5-3.2-3.5S314.8,98.6,314.8,100.2z"/>
			<path class="st3" d="M330.8,97.6c-0.3-0.6-1.3-1.1-2.3-1.1c-1.4,0-2,0.6-2,1.3c0,0.9,1,1.1,2.2,1.2c2,0.3,4,0.8,4,3.1
				c0,2.2-1.9,3.1-4.1,3.1c-2,0-3.5-0.6-4.3-2.4l1.5-0.8c0.4,1.1,1.6,1.6,2.8,1.6c1.2,0,2.3-0.4,2.3-1.5c0-0.9-1-1.3-2.3-1.4
				c-2-0.2-3.9-0.8-3.9-3c0-2,2-2.8,3.8-2.9c1.5,0,3.1,0.4,3.9,1.9L330.8,97.6z"/>
			<path class="st3" d="M334,105v-9.8h1.8v9.8H334z"/>
			<path class="st3" d="M340.5,96.9h-3.1v-1.7c2.8,0,5.2,0,8.1,0v1.7h-3.1v8.1h-1.8V96.9z"/>
			<path class="st3" d="M352.7,97.6c-0.3-0.6-1.3-1.1-2.3-1.1c-1.4,0-2,0.6-2,1.3c0,0.9,1,1.1,2.2,1.2c2,0.3,4,0.8,4,3.1
				c0,2.2-1.9,3.1-4.1,3.1c-2,0-3.5-0.6-4.3-2.4l1.5-0.8c0.4,1.1,1.6,1.6,2.8,1.6c1.2,0,2.3-0.4,2.3-1.5c0-0.9-1-1.3-2.3-1.4
				c-2-0.2-3.9-0.8-3.9-3c0-2,2-2.8,3.8-2.9c1.5,0,3.1,0.4,3.9,1.9L352.7,97.6z"/>
		</g>
	</g>
	<g>
		<g>
			<path class="st4" d="M171.2,117.9l-2.7,3.6h-0.3l-2.7-3.7v6.1h-1.6v-8.4h1.8l2.6,3.6l2.6-3.6h1.8v8.4h-1.6V117.9z"/>
			<path class="st4" d="M182.5,119.8c0,2.2-1.4,4.3-4.3,4.3c-3,0-4.3-2.1-4.3-4.3c0-2.2,1.4-4.4,4.3-4.4
				C181.1,115.4,182.6,117.7,182.5,119.8z M175.5,119.9c0,1.4,0.8,2.9,2.8,2.9c2,0,2.7-1.5,2.7-2.9c0-1.4-0.8-3-2.7-3
				C176.3,116.9,175.4,118.5,175.5,119.9z"/>
			<path class="st4" d="M191.2,124h-1.9l-2.4-2.8h-1.5v2.8h-1.6v-8.4c1.3,0,2.7,0,4,0c2,0,3,1.3,3,2.8c0,1.2-0.5,2.3-2.1,2.6
				l2.5,2.9V124z M185.3,117.1v2.7h2.4c1,0,1.4-0.7,1.4-1.3s-0.4-1.3-1.4-1.3H185.3z"/>
			<path class="st4" d="M198.1,124h-6.3c0-2.8,0-5.6,0-8.4h6.3v1.5h-4.7v1.9h4.5v1.5h-4.5v1.9h4.7V124z"/>
			<path class="st4" d="M201.8,124v-8.4h1.6v8.4H201.8z"/>
			<path class="st4" d="M210.4,115.6h1.6v8.4h-1v0l-4.4-5.7v5.7H205v-8.4h1.3l4.1,5.2V115.6z"/>
			<path class="st4" d="M213.4,124v-8.4h6v1.5H215v2.3h4.2v1.5H215v3.1H213.4z"/>
			<path class="st4" d="M229.1,119.8c0,2.2-1.4,4.3-4.3,4.3c-3,0-4.3-2.1-4.3-4.3c0-2.2,1.4-4.4,4.3-4.4
				C227.6,115.4,229.1,117.7,229.1,119.8z M222,119.9c0,1.4,0.8,2.9,2.8,2.9c2,0,2.7-1.5,2.7-2.9c0-1.4-0.8-3-2.7-3
				C222.8,116.9,222,118.5,222,119.9z"/>
		</g>
	</g>
	<rect id="Rectangle_2291_4_" y="0" class="st0" width="456" height="144"/>
	<g id="Group_901_3_">
		<path id="Path_1716_3_" class="st3" d="M131.4,67.1L90.8,26.6c-1.7-1.7-3.9-2.6-6.3-2.6H47c-4.9,0-8.9,4-8.9,8.9v3.9
			c-8.4,1.9-14.1,7.1-14.1,13c0,7.7,9.2,13.8,20.8,13.8s20.8-6,20.8-13.8c-0.1-2.6-1.1-5.1-2.9-7c3.9-0.5,7.4,2.3,7.9,6.1
			c0.4,3-1.3,6-4.1,7.3c-1,1.7-2.4,3.3-4,4.5c0.3,0,0.7,0.1,1,0.1c6.1,0,11-4.9,11-11s-4.9-11-11-11s-11,4.9-11,11
			c0,1.9,0.5,3.7,1.4,5.3c1.2-0.5,2.3-1.2,3.3-2.1c-1.5-2.9-0.8-6.3,1.7-8.5c1.6,1.3,2.6,3.2,2.7,5.3c0,5.3-7.8,9.9-16.9,9.9
			s-16.9-4.5-16.9-9.9c0-3.8,4.2-7.4,10.2-9V56c1.3,0.4,2.6,0.6,3.9,0.8V32.9c0-2.7,2.2-5,5-5h37.7c1.3,0,2.6,0.5,3.5,1.5l40.5,40.5
			c1.9,1.9,1.9,5.1,0,7l0,0l-37.7,37.7c-1.9,1.9-5.1,1.9-7,0l0,0L43.4,74c-0.9-0.9-1.5-2.2-1.5-3.5v-4.4c-1.3-0.1-2.6-0.3-3.9-0.5
			v4.9c0,2.4,0.9,4.6,2.6,6.3l40.5,40.5c3.5,3.5,9.1,3.5,12.5,0l37.7-37.7C134.9,76.1,134.9,70.5,131.4,67.1L131.4,67.1z"/>
		<path id="Path_1717_3_" class="st3" d="M90.9,67c1,0.5,2.1,0,2.6-1l0,0c0.2-0.5,0.2-1,0-1.5s-0.6-0.9-1-1.1
			c-3.3-1.5-7.2-1-10.1,1.2l-3.3-3.3c-0.8-0.8-2-0.8-2.8,0c-0.8,0.8-0.8,2,0,2.8l3.3,3.3c0,0.1-0.1,0.1-0.1,0.2
			c-2.6,3.8-2.5,8.2,0.5,11.2c2.7,2.8,7.2,2.4,12-1.1c3.6-2.6,6.8-2.9,8.5-0.9c1.4,1.7,1.3,5-1.4,7.4c-4.6,4.2-8.4,2-8.5,2
			c-0.9-0.6-2.1-0.4-2.7,0.5c-0.6,0.9-0.4,2.1,0.5,2.7c1.5,0.9,3.1,1.3,4.8,1.3c2.6,0,5.1-0.9,7.1-2.5l3.3,3.3c0.8,0.8,2,0.8,2.8,0
			c0.8-0.8,0.8-2,0-2.8l-3.3-3.3c2.3-3.2,3.1-7.7,0.3-11.1c-2.3-2.8-7.3-4.5-13.8,0.2c-0.8,0.6-5,3.5-6.9,1.5
			c-2.4-2.5-0.7-5.4-0.1-6.2C84.4,67.4,87.8,65.6,90.9,67z"/>
	</g>
</g>
</svg>
