<svg width="96" height="20" viewBox="0 0 96 20" fill="none" xmlns="http://www.w3.org/2000/svg">
<path d="M20.0314 12.419C18.7007 17.7765 13.2948 21.0363 7.95585 19.7007C2.62003 18.365 -0.628967 12.9384 0.702867 7.58197C2.03258 2.22449 7.43944 -1.0364 12.7763 0.299241C18.1143 1.63489 21.3622 7.06155 20.0314 12.419Z" fill="#F7931A"/>
<path d="M14.7593 8.57384C14.9576 7.24351 13.9481 6.52833 12.5675 6.05048L13.015 4.24763L11.9217 3.97411L11.4859 5.72907C11.1985 5.6567 10.9038 5.58966 10.61 5.52261L11.049 3.75594L9.95685 3.48242L9.50831 5.28421C9.27078 5.22994 9.03644 5.17566 8.81058 5.11925L8.81164 5.11393L7.30378 4.73612L7.01324 5.90787C7.01324 5.90787 7.82443 6.09411 7.80746 6.10582C8.2507 6.2165 8.33023 6.51131 8.31644 6.74438L7.8064 8.79733C7.83715 8.80478 7.87639 8.81649 7.91986 8.83352C7.88381 8.82394 7.84458 8.81436 7.80428 8.80478L7.08959 11.6815C7.03551 11.8166 6.89766 12.0188 6.58909 11.9422C6.59969 11.9582 5.79487 11.7432 5.79487 11.7432L5.25195 12.999L6.67498 13.3545C6.94007 13.4215 7.19881 13.4907 7.45436 13.5567L7.00158 15.3798L8.09376 15.6533L8.5423 13.8494C8.84027 13.9303 9.12975 14.0058 9.41393 14.0761L8.96645 15.8736L10.0597 16.1471L10.5125 14.3272C12.3766 14.6816 13.7784 14.5379 14.368 12.8458C14.8431 11.4835 14.3447 10.697 13.3638 10.1851C14.0775 10.0202 14.6161 9.5487 14.7593 8.57384ZM12.2621 12.0891C11.9238 13.4513 9.63873 12.7149 8.89753 12.5308L9.4977 10.116C10.2378 10.3011 12.6142 10.6683 12.2621 12.0891ZM12.5993 8.55468C12.2907 9.79455 10.3884 9.1645 9.77128 9.01018L10.3153 6.81994C10.9335 6.97319 12.9206 7.26161 12.5993 8.55468Z" fill="white"/>
<path d="M29.6028 6.05103C30.4108 6.05103 31.1085 6.19683 31.696 6.48205C32.2856 6.77047 32.7712 7.15786 33.1614 7.64635C33.5464 8.13698 33.8327 8.71061 34.0172 9.36726C34.2006 10.026 34.2929 10.7348 34.2929 11.4937C34.2929 12.659 34.0797 13.7595 33.6513 14.7971C33.2219 15.8358 32.6397 16.7373 31.8985 17.5056C31.1584 18.273 30.2836 18.8785 29.2751 19.3255C28.2689 19.7725 27.1745 19.9971 25.9986 19.9971C25.8469 19.9971 25.5797 19.9928 25.2022 19.9854C24.8247 19.9779 24.3911 19.9385 23.9054 19.8726C23.4166 19.8045 22.9002 19.7033 22.3541 19.5671C21.809 19.4341 21.2905 19.2478 20.8027 19.0105L25.1651 0.611601L29.0726 0.00390625L27.5107 6.53314C27.8447 6.38201 28.1819 6.26495 28.518 6.1798C28.8563 6.09466 29.2168 6.05103 29.6028 6.05103ZM26.3252 16.8852C26.9137 16.8852 27.4683 16.7394 27.9889 16.4542C28.5117 16.1689 28.9623 15.7826 29.3398 15.3026C29.7173 14.8205 30.0164 14.2767 30.2348 13.669C30.4532 13.0613 30.5624 12.4281 30.5624 11.7693C30.5624 10.9594 30.4278 10.3283 30.1584 9.87172C29.8902 9.41728 29.3929 9.18847 28.6707 9.18847C28.4343 9.18847 28.1289 9.23423 27.7514 9.31511C27.3718 9.40132 27.0325 9.57905 26.7281 9.8483L25.0644 16.782C25.1651 16.8001 25.2531 16.8171 25.3295 16.833C25.4037 16.8501 25.4854 16.8628 25.567 16.8714C25.6529 16.8809 25.7515 16.8863 25.8713 16.8863C25.9922 16.8852 26.1407 16.8852 26.3252 16.8852Z" fill="white"/>
<path d="M38.3458 19.6453H34.6133L37.7647 6.33349H41.5227L38.3458 19.6453ZM40.1612 4.71156C39.6405 4.71156 39.1676 4.55618 38.7488 4.24435C38.3267 3.93465 38.1168 3.4568 38.1168 2.81399C38.1168 2.46066 38.1889 2.1286 38.3299 1.81571C38.4741 1.50282 38.6629 1.23463 38.8983 1.00581C39.1337 0.779124 39.4072 0.598199 39.7169 0.46091C40.0286 0.326813 40.3605 0.259766 40.7147 0.259766C41.2353 0.259766 41.7051 0.415147 42.1261 0.726975C42.5449 1.04093 42.7559 1.51772 42.7559 2.15734C42.7559 2.5128 42.6849 2.84592 42.5417 3.15774C42.3996 3.47064 42.2109 3.73883 41.9755 3.96765C41.7411 4.19433 41.4665 4.37526 41.1569 4.51042C40.8451 4.64664 40.5143 4.71156 40.1612 4.71156Z" fill="white"/>
<path d="M44.794 3.01589L48.7036 2.4082L47.7439 6.33213H51.9303L51.1743 9.41848H47.0133L45.9053 14.0746C45.8035 14.4631 45.7451 14.8249 45.7292 15.1623C45.7112 15.5007 45.7536 15.7913 45.8544 16.036C45.9551 16.2808 46.1354 16.4703 46.3962 16.6044C46.656 16.7406 47.0293 16.8087 47.5181 16.8087C47.921 16.8087 48.3134 16.7704 48.6919 16.6938C49.0694 16.6193 49.4512 16.5139 49.8382 16.3777L50.1171 19.2639C49.6123 19.4491 49.0662 19.6088 48.4777 19.7439C47.8882 19.8801 47.1904 19.9461 46.3845 19.9461C45.2255 19.9461 44.3264 19.7737 43.6859 19.4289C43.0465 19.082 42.5948 18.6094 42.3233 18.0092C42.0561 17.4121 41.9373 16.7236 41.9702 15.9477C42.0052 15.1697 42.1218 14.3535 42.3233 13.4925L44.794 3.01589Z" fill="white"/>
<path d="M51.7656 14.328C51.7656 13.1818 51.9501 12.1005 52.3202 11.0884C52.6892 10.0752 53.2205 9.18974 53.9108 8.42879C54.5979 7.6721 55.4356 7.07292 56.4207 6.63232C57.4015 6.19491 58.5001 5.97461 59.71 5.97461C60.4671 5.97461 61.1436 6.04698 61.7395 6.19066C62.3376 6.33646 62.8784 6.52377 63.3672 6.75897L62.0799 9.69633C61.7438 9.55904 61.3949 9.43877 61.0333 9.32916C60.6717 9.21741 60.2317 9.1642 59.71 9.1642C58.464 9.1642 57.4789 9.59522 56.7462 10.4541C56.0156 11.314 55.6487 12.4709 55.6487 13.9225C55.6487 14.7824 55.8332 15.4784 56.2044 16.0106C56.5734 16.5427 57.2563 16.8077 58.2467 16.8077C58.7355 16.8077 59.2074 16.7566 59.6591 16.6566C60.114 16.5555 60.5159 16.4278 60.87 16.2777L61.1489 19.2885C60.677 19.4726 60.1564 19.6386 59.5848 19.7834C59.0122 19.9239 58.3315 19.9962 57.5415 19.9962C56.4991 19.9962 55.6159 19.843 54.8937 19.5418C54.1716 19.2353 53.5746 18.8287 53.1038 18.3136C52.6309 17.7975 52.2916 17.1951 52.0816 16.5023C51.8727 15.8126 51.7656 15.0857 51.7656 14.328Z" fill="white"/>
<path d="M68.3451 19.9962C67.4544 19.9962 66.6803 19.86 66.024 19.5907C65.3697 19.3215 64.8279 18.9426 64.3984 18.452C63.969 17.9635 63.6477 17.3856 63.4271 16.7194C63.2065 16.0531 63.1016 15.3156 63.1016 14.5068C63.1016 13.4925 63.2638 12.4794 63.5915 11.4683C63.9181 10.4551 64.4016 9.5452 65.0431 8.7353C65.6793 7.92539 66.463 7.26236 67.3865 6.7462C68.3091 6.23322 69.3705 5.97461 70.5624 5.97461C71.4372 5.97461 72.207 6.11083 72.8719 6.38116C73.5346 6.65041 74.0797 7.03142 74.5112 7.51991C74.9375 8.01054 75.262 8.5863 75.4794 9.25359C75.6988 9.91875 75.807 10.6584 75.807 11.4673C75.807 12.4783 75.6469 13.4915 75.3298 14.5057C75.0117 15.5146 74.5399 16.4278 73.9174 17.2387C73.296 18.0476 72.5188 18.7095 71.5856 19.2246C70.6536 19.7376 69.573 19.9962 68.3451 19.9962ZM70.2103 9.16419C69.6568 9.16419 69.168 9.32596 68.7491 9.64417C68.3292 9.96664 67.9761 10.3711 67.6909 10.8596C67.4035 11.3502 67.1904 11.8855 67.0462 12.4666C66.903 13.0498 66.833 13.6 66.833 14.1236C66.833 14.9687 66.9688 15.6264 67.236 16.1C67.5064 16.5704 67.9931 16.8077 68.6993 16.8077C69.2549 16.8077 69.7406 16.6481 70.1626 16.3256C70.5804 16.0063 70.9335 15.6008 71.2209 15.1113C71.5072 14.6228 71.7214 14.0864 71.8656 13.5042C72.0066 12.9232 72.0787 12.3697 72.0787 11.8472C72.0787 11.0043 71.944 10.3455 71.6747 9.87299C71.4043 9.40046 70.9165 9.16419 70.2103 9.16419Z" fill="white"/>
<path d="M79.8744 19.6453H76.1387L79.2901 6.33349H83.0502L79.8744 19.6453ZM81.6876 4.71156C81.167 4.71156 80.6951 4.55618 80.2763 4.24435C79.8564 3.93465 79.6453 3.4568 79.6453 2.81399C79.6453 2.46066 79.7174 2.1286 79.8606 1.81571C80.0027 1.50282 80.1925 1.23463 80.429 1.00581C80.6633 0.779124 80.939 0.598199 81.2486 0.46091C81.5583 0.326813 81.8902 0.259766 82.2433 0.259766C82.765 0.259766 83.2368 0.415147 83.6568 0.726975C84.0767 1.04093 84.2887 1.51772 84.2887 2.15734C84.2887 2.5128 84.2134 2.84592 84.0724 3.15774C83.9314 3.47064 83.7416 3.73883 83.5062 3.96765C83.2697 4.19433 82.9972 4.37526 82.6876 4.51042C82.3737 4.64664 82.0418 4.71156 81.6876 4.71156Z" fill="white"/>
<path d="M85.7423 6.93746C86.0254 6.85445 86.3425 6.75441 86.686 6.64585C87.0317 6.5373 87.4166 6.4362 87.8482 6.34467C88.2745 6.25102 88.7559 6.17439 89.285 6.11479C89.8141 6.05413 90.4164 6.02539 91.0866 6.02539C93.0546 6.02539 94.4119 6.60115 95.1606 7.74736C95.9092 8.89463 96.0385 10.4644 95.5529 12.4546L93.8361 19.6426H90.0792L91.743 12.6068C91.8448 12.1672 91.9243 11.7426 91.9826 11.3275C92.042 10.9167 92.0388 10.5538 91.9688 10.2399C91.902 9.93016 91.7461 9.6758 91.5033 9.47998C91.2573 9.28628 90.8851 9.18943 90.3804 9.18943C89.8937 9.18943 89.3985 9.24158 88.8937 9.34269L86.4474 19.6426H82.6895L85.7423 6.93746Z" fill="white"/>
</svg>
