<svg width="14" height="12" viewBox="0 0 14 12" fill="none" xmlns="http://www.w3.org/2000/svg">
<path d="M12.6875 0.615234C13.4121 0.615234 14 1.21792 14 1.96139C14 2.38487 13.8059 2.7831 13.475 3.03831L7.525 7.61523C7.21328 7.85362 6.78672 7.85362 6.475 7.61523L0.525 3.03831C0.194496 2.7831 0 2.38487 0 1.96139C0 1.21792 0.587617 0.615234 1.3125 0.615234H12.6875ZM5.95 8.33318C6.57344 8.81275 7.42656 8.81275 8.05 8.33318L14 3.75626V9.58959C14 10.5796 13.2152 11.3845 12.25 11.3845H1.75C0.783399 11.3845 0 10.5796 0 9.58959V3.75626L5.95 8.33318Z" fill="#4499F8"/>
</svg>
