<svg width="30" height="30" viewBox="0 0 30 30" fill="none" xmlns="http://www.w3.org/2000/svg">
<path d="M18.5 15L28.875 4.625C29.875 3.625 29.875 2.125 28.875 1.125C27.875 0.125 26.375 0.125 25.375 1.125L15 11.5L4.625 1.125C3.625 0.125 2.125 0.125 1.125 1.125C0.125 2.125 0.125 3.625 1.125 4.625L11.5 15L1.125 25.375C0.125 26.375 0.125 27.875 1.125 28.875C1.625 29.375 2.25 29.625 2.875 29.625C3.5 29.625 4.125 29.375 4.625 28.875L15 18.5L25.375 28.875C25.875 29.375 26.5 29.625 27.125 29.625C27.75 29.625 28.375 29.375 28.875 28.875C29.875 27.875 29.875 26.375 28.875 25.375L18.5 15Z" fill="white"/>
</svg>
