<svg width="16" height="16" viewBox="0 0 16 16" fill="none" xmlns="http://www.w3.org/2000/svg">
<path d="M0.491173 14.7016C0.156575 14.367 0.156575 13.8245 0.491173 13.4899L13.4735 0.507591C13.8081 0.172993 14.3506 0.172993 14.6852 0.507592C15.0198 0.842189 15.0198 1.38468 14.6852 1.71928L1.70286 14.7016C1.36826 15.0362 0.82577 15.0362 0.491173 14.7016Z" fill="#152B50"/>
<path d="M1.09702 1.11343C1.43161 0.778836 1.9741 0.778836 2.3087 1.11343L15.291 14.0958C15.6256 14.4304 15.6256 14.9729 15.291 15.3075C14.9564 15.6421 14.414 15.6421 14.0794 15.3075L1.09702 2.32512C0.762418 1.99052 0.762418 1.44803 1.09702 1.11343Z" fill="#152B50"/>
</svg>
