<svg width="20" height="21" viewBox="0 0 20 21" fill="none" xmlns="http://www.w3.org/2000/svg">
<path id="Vector" d="M18.7287 0.5H1.09413C0.490268 0.5 0 0.993628 0 1.60383V19.3949C0 20.0051 0.490268 20.4993 1.09413 20.4993H10.5881V12.7544H8.00487V9.73568H10.5881V7.50958C10.5881 4.92685 12.1513 3.51972 14.4355 3.51972C15.5306 3.51972 16.4697 3.60238 16.7435 3.63827V6.33792L15.1591 6.33857C13.9171 6.33857 13.6776 6.93429 13.6776 7.80793V9.7347H16.6407L16.2533 12.7531H13.6772V20.4984H18.7284C19.3329 20.4984 19.8235 20.0034 19.8235 19.3949V1.60317C19.8232 0.993628 19.3333 0.5 18.7287 0.5Z" fill="#AFB9CB"/>
</svg>
