<svg id="Group_904" data-name="Group 904" xmlns="http://www.w3.org/2000/svg" xmlns:xlink="http://www.w3.org/1999/xlink" width="76.508" height="20" viewBox="0 0 76.508 20">
  <defs>
    <clipPath id="clip-path">
      <rect id="Rectangle_2284" data-name="Rectangle 2284" width="76.508" height="20" fill="none" stroke="rgba(0,0,0,0)" stroke-width="1"/>
    </clipPath>
  </defs>
  <g id="Group_903" data-name="Group 903" clip-path="url(#clip-path)">
    <path id="Path_1725" data-name="Path 1725" d="M64.129,10.829a3,3,0,0,0-1.509.31,4.833,4.833,0,0,0-2.273,2.273l-.207.351.021-.64c.021-.352.041-.992.062-1.447l.02-.806H60.1c-.165,0-5.621,1.1-5.786,1.157-.1.042-.124.083-.124.352s.021.31.124.33c.062.021.31.062.558.1a1.044,1.044,0,0,1,.827.434c.372.475.434,1.343.434,4.96a27.485,27.485,0,0,1-.207,4.9,1.207,1.207,0,0,1-1.012.95c-.165.042-.393.082-.5.1l-.186.041-.021.372c-.021.269,0,.393.062.434.042.021,1.9.041,4.133.041l4.071-.02.021-.434a1.676,1.676,0,0,0-.021-.434,6.923,6.923,0,0,1-1.446-.207c-.454-.186-.682-.6-.786-1.447-.1-.971-.186-3.431-.145-5.414.042-2.025.042-2.025.166-2.17a2.649,2.649,0,0,1,1.715-.558,3.983,3.983,0,0,1,1.674.413,2.6,2.6,0,0,0,.579.227c.083-.02,1.4-3.554,1.4-3.72,0-.206-.764-.455-1.508-.455" transform="translate(-27.094 -5.415)" fill="#33629a" stroke="rgba(0,0,0,0)" stroke-width="1"/>
    <path id="Path_1726" data-name="Path 1726" d="M40.729,17a6.6,6.6,0,0,0-3.038-5.229,7.61,7.61,0,0,0-6.82-.144,6.594,6.594,0,0,0-3.224,3.823,9.717,9.717,0,0,0,0,5.642,5.956,5.956,0,0,0,1.57,2.646,5.835,5.835,0,0,0,3.389,1.633,16.556,16.556,0,0,0,2.48,0c.227-.042.641-.124.889-.186A6.537,6.537,0,0,0,40.6,19.972,12.883,12.883,0,0,0,40.729,17m-6.118,7.316c-1.508.455-2.583-.992-3-3.988a27.553,27.553,0,0,1,0-4.712c.289-2.418,1.033-3.637,2.211-3.637a1.5,1.5,0,0,1,1.24.537c.992.992,1.447,2.893,1.447,5.869a10.979,10.979,0,0,1-.765,4.878,2.394,2.394,0,0,1-1.137,1.054" transform="translate(-13.614 -5.444)" fill="#33629a" stroke="rgba(0,0,0,0)" stroke-width="1"/>
    <path id="Path_1727" data-name="Path 1727" d="M7.274,2.15H9.01c1.984,0,2.314.042,3.017.392,1.012.5,1.757,1.488,2.418,3.224.269.7.269.7.847.517l.392-.124-.041-2.542c-.021-1.405-.062-2.645-.062-2.749L15.541.641,7.957.62C3.782.62.289.62.186.641L0,.682l.021.455.021.455.579.062a1.936,1.936,0,0,1,1.467.682c.6.868.7,2.066.7,7.708,0,6.014-.124,7.482-.7,8.226a1.562,1.562,0,0,1-1.219.64c-.889.166-.848.145-.848.6,0,.248.021.393.062.413.1.042,9.8.042,9.9,0,.124-.041.124-.764,0-.826-.062-.021-.372-.082-.723-.145a8.544,8.544,0,0,1-.847-.186c-.641-.269-.992-1.033-1.116-2.418-.1-.992-.165-2.831-.165-4.175v-1.24l.6.021a7.618,7.618,0,0,1,2.17.227,2.641,2.641,0,0,1,1.261,1.943l.124.517.454.02.455.021V7.068l-.455.021-.454.02-.124.517A2.6,2.6,0,0,1,9.879,9.548a2.4,2.4,0,0,1-1.013.186c-.393.021-.951.041-1.219.041H7.13V8.143c0-1.633.082-5.125.144-5.663Z" transform="translate(0 -0.31)" fill="#33629a" stroke="rgba(0,0,0,0)" stroke-width="1"/>
    <path id="Path_1728" data-name="Path 1728" d="M142.144,18.943c-.454-.93-1.323-1.55-3.1-2.294a7.367,7.367,0,0,1-2.625-1.509,1.476,1.476,0,0,1-.434-1.3,1.782,1.782,0,0,1,.516-1.24,1.753,1.753,0,0,1,1.777-.475c1.178.248,1.943,1.074,2.6,2.811.227.62.269.641.682.475l.268-.1v-.723c0-.393-.02-1.219-.041-1.839l-.041-1.116-.207-.083a11.454,11.454,0,0,0-4.5-.62,5.289,5.289,0,0,0-3.534,1.529,3.978,3.978,0,0,0-1.178,3.183,3.488,3.488,0,0,0,.992,2.418,5.934,5.934,0,0,0,2.5,1.447c2.273.889,2.893,1.426,2.873,2.521a1.93,1.93,0,0,1-1.385,1.922,4.02,4.02,0,0,1-1.57,0c-1.137-.289-2.005-1.281-2.749-3.1l-.186-.476-.227.021a.983.983,0,0,0-.372.083l-.145.083.021.806c0,.434.02,1.364.041,2.046l.042,1.26.248.1a14.913,14.913,0,0,0,3.059.661c.124.021.785.021,1.488,0a5.759,5.759,0,0,0,1.9-.186,4.6,4.6,0,0,0,3.472-2.976,3.232,3.232,0,0,0,.206-1.3,4.3,4.3,0,0,0-.393-2.026" transform="translate(-66.029 -5.448)" fill="#33629a" stroke="rgba(0,0,0,0)" stroke-width="1"/>
    <path id="Path_1729" data-name="Path 1729" d="M115.207,11.408a6.741,6.741,0,0,0-5.539.124A6.46,6.46,0,0,0,106.32,15.5a7.542,7.542,0,0,0-.393,3,8.03,8.03,0,0,0,.145,1.571,6.525,6.525,0,0,0,5.311,5.27,10.668,10.668,0,0,0,2.563,0,6.879,6.879,0,0,0,2.5-.972c.765-.516,1.55-1.3,1.55-1.55,0-.145-.269-.5-.372-.5a1.7,1.7,0,0,0-.475.248,4.11,4.11,0,0,1-2.48.682,3.955,3.955,0,0,1-3.141-1.24,3.109,3.109,0,0,1-.744-.992,7.006,7.006,0,0,1-.723-2.955l-.021-.475,4.071-.021,4.072-.02.02-.269a8.144,8.144,0,0,0-.041-.889c-.248-2.418-1.261-4.112-2.955-4.98m-4.092,5.022-1.033.021v-.227a6.981,6.981,0,0,1,.083-.724c.351-2.211,1.178-3.534,2.211-3.534.951,0,1.529,1.3,1.653,3.7l.042.682-.951.041c-.537,0-1.446.021-2,.042" transform="translate(-52.959 -5.436)" fill="#33629a" stroke="rgba(0,0,0,0)" stroke-width="1"/>
    <path id="Path_1730" data-name="Path 1730" d="M85.063,5.725a5.167,5.167,0,0,0-1.24-.062,5.7,5.7,0,0,0-2.314.5c-.228.1-.434.207-.454.207s-.021-1.426,0-3.183A19.416,19.416,0,0,0,81.012,0c-.186,0-5.786,1.075-5.848,1.116a.568.568,0,0,0-.062.33c.021.31-.021.289.661.434a1.709,1.709,0,0,1,.537.207A1.912,1.912,0,0,1,76.858,3.1a16.157,16.157,0,0,1,.166,3.369c.041,2.748.041,5.58-.042,10.747l-.042,2.149.393.083c.578.124,2.253.413,2.79.476a21.352,21.352,0,0,0,3.265-.021,6.668,6.668,0,0,0,5.436-4.175,9.8,9.8,0,0,0,.558-2.232,12.7,12.7,0,0,0-.1-3.1,5.637,5.637,0,0,0-4.216-4.67M81.136,18.683c-.062-.186-.145-6.634-.124-9.2l.021-2,.372-.1a3.57,3.57,0,0,1,.868-.1,1.488,1.488,0,0,1,.91.207c.95.475,1.591,1.633,1.9,3.389a16.741,16.741,0,0,1,.021,3.224,6.965,6.965,0,0,1-1.715,4.216,2.172,2.172,0,0,1-1.033.538,2.448,2.448,0,0,1-.91.021c-.207-.042-.248-.062-.31-.186" transform="translate(-37.551 0)" fill="#33629a" stroke="rgba(0,0,0,0)" stroke-width="1"/>
  </g>
</svg>
