<svg id="forbes" xmlns="http://www.w3.org/2000/svg" xmlns:xlink="http://www.w3.org/1999/xlink" width="122.412" height="32" viewBox="0 0 122.412 32">
  <defs>
    <clipPath id="clip-path">
      <rect id="Rectangle_2284" data-name="Rectangle 2284" width="122.412" height="32" fill="none" stroke="rgba(0,0,0,0)" stroke-width="1"/>
    </clipPath>
  </defs>
  <g id="Group_903" data-name="Group 903" clip-path="url(#clip-path)">
    <path id="Path_1725" data-name="Path 1725" d="M70.093,10.829a4.8,4.8,0,0,0-2.414.5,7.733,7.733,0,0,0-3.638,3.638l-.33.562.033-1.025c.033-.562.066-1.587.1-2.314l.033-1.29h-.231c-.265,0-8.994,1.752-9.258,1.851-.166.066-.2.133-.2.562s.033.5.2.529c.1.034.5.1.893.166A1.67,1.67,0,0,1,56.6,14.7c.6.761.694,2.15.694,7.936,0,4.728-.1,7.109-.33,7.837a1.931,1.931,0,0,1-1.62,1.521c-.265.066-.629.132-.794.166l-.3.066-.034.6c-.033.43,0,.629.1.694.066.034,3.042.066,6.614.066l6.514-.033.034-.694a2.682,2.682,0,0,0-.034-.694,11.076,11.076,0,0,1-2.314-.331c-.727-.3-1.091-.958-1.257-2.314-.165-1.554-.3-5.489-.231-8.663.066-3.241.066-3.241.265-3.472a4.239,4.239,0,0,1,2.744-.893,6.372,6.372,0,0,1,2.678.662,4.155,4.155,0,0,0,.926.363c.132-.033,2.248-5.687,2.248-5.952,0-.33-1.223-.727-2.414-.727" transform="translate(-10.838 -2.166)" fill="#33629a" stroke="rgba(0,0,0,0)" stroke-width="1"/>
    <path id="Path_1726" data-name="Path 1726" d="M48.829,20.662c-.463-3.9-2.117-6.746-4.861-8.366a12.176,12.176,0,0,0-10.912-.231A10.551,10.551,0,0,0,27.9,18.182a15.547,15.547,0,0,0,0,9.027,9.529,9.529,0,0,0,2.513,4.233,9.336,9.336,0,0,0,5.423,2.612,26.49,26.49,0,0,0,3.968,0c.363-.066,1.025-.2,1.422-.3a10.459,10.459,0,0,0,7.407-8.333,20.613,20.613,0,0,0,.2-4.762M39.041,32.367c-2.414.727-4.134-1.587-4.794-6.382a44.084,44.084,0,0,1,0-7.539c.462-3.869,1.653-5.82,3.538-5.82a2.4,2.4,0,0,1,1.984.86c1.587,1.587,2.315,4.63,2.315,9.39,0,3.8-.4,6.184-1.224,7.8a3.831,3.831,0,0,1-1.818,1.686" transform="translate(-5.446 -2.178)" fill="#33629a" stroke="rgba(0,0,0,0)" stroke-width="1"/>
    <path id="Path_1727" data-name="Path 1727" d="M11.639,3.067h2.778c3.174,0,3.7.066,4.828.628,1.62.794,2.81,2.381,3.869,5.158.43,1.125.43,1.125,1.355.827l.628-.2-.066-4.067c-.033-2.249-.1-4.233-.1-4.4L24.866.654,12.73.62C6.051.62.462.62.3.654L0,.719l.033.728.033.727.926.1A3.1,3.1,0,0,1,3.339,3.365C4.3,4.754,4.464,6.671,4.464,15.7c0,9.622-.2,11.97-1.125,13.161a2.5,2.5,0,0,1-1.95,1.025c-1.422.265-1.356.231-1.356.959,0,.4.033.628.1.661.166.066,15.674.066,15.839,0,.2-.066.2-1.223,0-1.322-.1-.033-.6-.132-1.158-.231a13.672,13.672,0,0,1-1.356-.3c-1.025-.43-1.587-1.654-1.786-3.869-.165-1.587-.264-4.53-.264-6.68V17.12l.958.034a12.188,12.188,0,0,1,3.472.363,4.226,4.226,0,0,1,2.018,3.109l.2.826.727.033.727.034V10.937l-.727.034L18.054,11l-.2.826a4.156,4.156,0,0,1-2.05,3.075,3.841,3.841,0,0,1-1.62.3c-.629.034-1.522.066-1.951.066h-.826V12.657c0-2.613.132-8.2.231-9.061Z" transform="translate(0 -0.124)" fill="#33629a" stroke="rgba(0,0,0,0)" stroke-width="1"/>
    <path id="Path_1728" data-name="Path 1728" d="M148.195,23.771c-.727-1.488-2.116-2.48-4.96-3.67-2.314-.959-3.5-1.654-4.2-2.414a2.362,2.362,0,0,1-.694-2.083,2.852,2.852,0,0,1,.826-1.984,2.805,2.805,0,0,1,2.844-.761c1.885.4,3.108,1.719,4.166,4.5.363.992.43,1.026,1.091.761l.43-.166V16.794c0-.629-.033-1.951-.066-2.943l-.066-1.786-.331-.132a18.326,18.326,0,0,0-7.208-.992,8.463,8.463,0,0,0-5.654,2.446,6.365,6.365,0,0,0-1.885,5.093,5.58,5.58,0,0,0,1.587,3.869c.926.958,1.719,1.422,4,2.314,3.638,1.422,4.63,2.282,4.6,4.034a3.087,3.087,0,0,1-2.215,3.075,6.432,6.432,0,0,1-2.513,0c-1.819-.463-3.208-2.05-4.4-4.96l-.3-.761-.363.033a1.573,1.573,0,0,0-.6.133l-.232.132.034,1.29c0,.694.033,2.182.066,3.274l.066,2.017.4.166a23.861,23.861,0,0,0,4.894,1.058c.2.033,1.257.033,2.381,0a9.215,9.215,0,0,0,3.042-.3,7.363,7.363,0,0,0,5.555-4.762,5.171,5.171,0,0,0,.33-2.083,6.883,6.883,0,0,0-.628-3.241" transform="translate(-26.412 -2.179)" fill="#33629a" stroke="rgba(0,0,0,0)" stroke-width="1"/>
    <path id="Path_1729" data-name="Path 1729" d="M120.78,11.73a10.785,10.785,0,0,0-8.862.2,10.336,10.336,0,0,0-5.357,6.349,12.066,12.066,0,0,0-.629,4.794,12.847,12.847,0,0,0,.232,2.514,10.44,10.44,0,0,0,8.5,8.432,17.069,17.069,0,0,0,4.1,0,11.007,11.007,0,0,0,4-1.554c1.223-.826,2.48-2.083,2.48-2.48,0-.231-.43-.794-.6-.794a2.727,2.727,0,0,0-.761.4,6.576,6.576,0,0,1-3.968,1.091,6.328,6.328,0,0,1-5.026-1.984,4.974,4.974,0,0,1-1.19-1.587,11.209,11.209,0,0,1-1.158-4.729l-.033-.76,6.514-.034,6.514-.033.033-.43a13.031,13.031,0,0,0-.066-1.422c-.4-3.869-2.018-6.58-4.729-7.969m-6.547,8.035-1.654.033v-.363a11.165,11.165,0,0,1,.133-1.158c.562-3.538,1.885-5.654,3.538-5.654,1.522,0,2.447,2.083,2.646,5.919l.066,1.091-1.522.066c-.859,0-2.314.034-3.207.066" transform="translate(-21.184 -2.174)" fill="#33629a" stroke="rgba(0,0,0,0)" stroke-width="1"/>
    <path id="Path_1730" data-name="Path 1730" d="M91.04,9.159a8.267,8.267,0,0,0-1.984-.1,9.127,9.127,0,0,0-3.7.794c-.364.166-.694.331-.727.331s-.034-2.282,0-5.093C84.658,1.124,84.658,0,84.559,0c-.3,0-9.258,1.719-9.358,1.786a.909.909,0,0,0-.1.529c.033.5-.034.463,1.058.694a2.734,2.734,0,0,1,.86.331,3.059,3.059,0,0,1,.893,1.62c.166.628.2,1.091.265,5.39.066,4.4.066,8.928-.066,17.194l-.066,3.439.629.132c.926.2,3.6.662,4.464.761a34.164,34.164,0,0,0,5.224-.033,10.668,10.668,0,0,0,8.7-6.68,15.675,15.675,0,0,0,.893-3.571,20.32,20.32,0,0,0-.166-4.96c-.859-4-3.373-6.778-6.746-7.473M84.757,29.892c-.1-.3-.231-10.614-.2-14.714l.033-3.207.6-.166a5.711,5.711,0,0,1,1.389-.166,2.38,2.38,0,0,1,1.455.331c1.521.76,2.546,2.612,3.042,5.422a26.785,26.785,0,0,1,.033,5.158c-.4,3.075-1.389,5.555-2.745,6.746a3.476,3.476,0,0,1-1.653.86,3.917,3.917,0,0,1-1.455.033c-.33-.066-.4-.1-.5-.3" transform="translate(-15.02 0)" fill="#33629a" stroke="rgba(0,0,0,0)" stroke-width="1"/>
  </g>
</svg>
