<svg xmlns="http://www.w3.org/2000/svg" xmlns:xlink="http://www.w3.org/1999/xlink" width="90" height="53.153" viewBox="0 0 90 53.153">
  <defs>
    <clipPath id="clip-path">
      <rect id="Rectangle_2293" data-name="Rectangle 2293" width="90" height="53.153" fill="none" stroke="rgba(0,0,0,0)" stroke-width="1"/>
    </clipPath>
  </defs>
  <g id="Fox-sports" transform="translate(0 0)">
    <g id="Group_960" data-name="Group 960" transform="translate(0 0)" clip-path="url(#clip-path)">
      <path id="Path_1756" data-name="Path 1756" d="M90,26.577c0,14.679-20.147,26.576-45,26.576S0,41.256,0,26.577,20.147,0,45,0,90,11.9,90,26.577" transform="translate(0 0)" fill="#fff" stroke="rgba(0,0,0,0)" stroke-width="1"/>
      <path id="Path_1757" data-name="Path 1757" d="M26.223,41.932c-.765-.259-1.823-.427-2.4-.562-.314-.073-.493-.167-.493-.385,0-.184.21-.352.692-.352.387,0,.65.124.66.5h2.681c0-1.409-1.414-1.877-3.3-1.877-2.21,0-3.478.714-3.478,1.971,0,.778.41,1.338,1.571,1.617l2.128.5c.281.068.5.184.5.41,0,.267-.282.495-.722.495a.78.78,0,0,1-.586-.2.658.658,0,0,1-.157-.46H20.453c0,1.576,1.674,2.028,3.5,2.028,2.137,0,3.645-.621,3.645-2.1,0-.729-.419-1.275-1.372-1.592" transform="translate(-2.045 -3.926)" fill="#093a80" stroke="rgba(0,0,0,0)" stroke-width="1"/>
      <path id="Path_1758" data-name="Path 1758" d="M35.357,39.437h-4.4v6.048h3V43.449h.985c2.116,0,3.1-.821,3.1-2.029,0-1.139-.858-1.984-2.681-1.984M34.1,42.076h-.147V40.81h.313c.651,0,.9.182.9.61s-.293.655-1.068.655" transform="translate(-3.096 -3.944)" fill="#093a80" stroke="rgba(0,0,0,0)" stroke-width="1"/>
      <path id="Path_1759" data-name="Path 1759" d="M44.919,39.258c-2.609,0-3.907,1.3-3.907,3.185s1.3,3.183,3.907,3.183,3.908-1.3,3.908-3.183-1.3-3.185-3.908-3.185m0,4.794c-.46,0-.808-.211-.808-1.609,0-1.365.326-1.609.808-1.609s.807.244.807,1.609c0,1.4-.346,1.609-.807,1.609" transform="translate(-4.101 -3.926)" fill="#093a80" stroke="rgba(0,0,0,0)" stroke-width="1"/>
      <path id="Path_1760" data-name="Path 1760" d="M57.875,42.428v-.016c1.129-.218,1.5-.746,1.5-1.443,0-1.139-.953-1.532-2.577-1.532H52.322v6.048h2.934V43.332H55.6c.484,0,.672.117.734.418a12.129,12.129,0,0,0,.378,1.734h2.93a20.541,20.541,0,0,1-.49-2.285c-.148-.464-.545-.722-1.276-.772m-2.37-.47h-.249V40.81h.272c.586,0,.973.093.973.535s-.418.613-1,.613" transform="translate(-5.232 -3.944)" fill="#093a80" stroke="rgba(0,0,0,0)" stroke-width="1"/>
      <path id="Path_1761" data-name="Path 1761" d="M62.328,41.062h1.865v4.424h2.994V41.062h1.864V39.437H62.328Z" transform="translate(-6.233 -3.943)" fill="#093a80" stroke="rgba(0,0,0,0)" stroke-width="1"/>
      <path id="Path_1762" data-name="Path 1762" d="M77.581,41.932c-.762-.259-1.821-.427-2.4-.562-.315-.073-.492-.167-.492-.385,0-.184.211-.352.691-.352.388,0,.65.124.66.5h2.683c0-1.409-1.415-1.877-3.3-1.877-2.211,0-3.477.714-3.477,1.971,0,.778.409,1.338,1.571,1.617l2.127.5c.283.068.5.184.5.41,0,.267-.283.495-.723.495a.786.786,0,0,1-.586-.2.658.658,0,0,1-.158-.46H71.809c0,1.576,1.677,2.028,3.5,2.028,2.136,0,3.646-.621,3.646-2.1,0-.729-.42-1.275-1.374-1.592" transform="translate(-7.181 -3.926)" fill="#093a80" stroke="rgba(0,0,0,0)" stroke-width="1"/>
      <path id="Path_1763" data-name="Path 1763" d="M21.155,35.192V12.544H34.795l.419,6.192H27.579V21.69H33.8v6.18H27.536v7.322Z" transform="translate(-2.116 -1.254)" fill="#093a80" stroke="rgba(0,0,0,0)" stroke-width="1"/>
      <path id="Path_1764" data-name="Path 1764" d="M77.472,35.162l-6.818-11.75,6.195-10.833H70.024l-2.832,4.881-2.784-4.881H57.341l6.319,10.91L56.968,35.177l6.863,0L67.1,29.451l3.311,5.71Z" transform="translate(-5.697 -1.258)" fill="#093a80" stroke="rgba(0,0,0,0)" stroke-width="1"/>
      <path id="Path_1765" data-name="Path 1765" d="M36.584,23.935A10.795,10.795,0,1,1,47.376,34.946,10.9,10.9,0,0,1,36.584,23.935m12.733,4.521V19.408a2,2,0,0,0-1.911-1.957,1.926,1.926,0,0,0-1.83,1.957l0,9.02a1.85,1.85,0,0,0,1.832,1.87,1.9,1.9,0,0,0,1.911-1.843" transform="translate(-3.658 -1.292)" fill="#093a80" stroke="rgba(0,0,0,0)" stroke-width="1"/>
      <path id="Path_1766" data-name="Path 1766" d="M87.74,30.87c-.824,12.395-16.934,22.3-36.828,22.54v2.83c23.8-.252,43.1-11.4,44.142-25.37Z" transform="translate(-5.091 -3.087)" fill="#093a80" stroke="rgba(0,0,0,0)" stroke-width="1"/>
      <path id="Path_1767" data-name="Path 1767" d="M44.153,53.408c-19.8-.3-35.81-10.184-36.631-22.539H.042c1.046,13.963,20.322,25.109,44.111,25.37Z" transform="translate(-0.004 -3.087)" fill="#093a80" stroke="rgba(0,0,0,0)" stroke-width="1"/>
      <path id="Path_1768" data-name="Path 1768" d="M44.149,0C19.952.265.425,11.811,0,26.11H7.5C8.06,13.6,24.171,3.535,44.149,3.23Z" transform="translate(0 0)" fill="#093a80" stroke="rgba(0,0,0,0)" stroke-width="1"/>
      <path id="Path_1769" data-name="Path 1769" d="M50.911,0V3.228C70.977,3.47,87.2,13.563,87.759,26.109h7.332C94.667,11.8,75.125.256,50.911,0" transform="translate(-5.091 0)" fill="#093a80" stroke="rgba(0,0,0,0)" stroke-width="1"/>
      <path id="Path_1770" data-name="Path 1770" d="M88.547,53.037H87.99v-2.2h-.806v-.47h2.169v.47h-.805Z" transform="translate(-8.718 -5.037)" fill="#093a80" stroke="rgba(0,0,0,0)" stroke-width="1"/>
      <path id="Path_1771" data-name="Path 1771" d="M92.517,53.037H92v-2.23h-.009l-.5,2.23h-.546l-.487-2.23h-.006v2.23h-.52V50.37h.813l.482,2.1h.007l.476-2.1h.806Z" transform="translate(-8.993 -5.037)" fill="#093a80" stroke="rgba(0,0,0,0)" stroke-width="1"/>
    </g>
  </g>
</svg>
