<svg xmlns="http://www.w3.org/2000/svg" xmlns:xlink="http://www.w3.org/1999/xlink" width="50.797" height="30" viewBox="0 0 50.797 30">
  <defs>
    <clipPath id="clip-path">
      <rect id="Rectangle_2293" data-name="Rectangle 2293" width="50.797" height="30" fill="none" stroke="rgba(0,0,0,0)" stroke-width="1"/>
    </clipPath>
  </defs>
  <g id="Fox-sports" transform="translate(0 0)">
    <g id="Group_960" data-name="Group 960" transform="translate(0 0)" clip-path="url(#clip-path)">
      <path id="Path_1756" data-name="Path 1756" d="M50.8,15c0,8.285-11.371,15-25.4,15S0,23.285,0,15,11.371,0,25.4,0,50.8,6.716,50.8,15" transform="translate(0 0)" fill="#fff" stroke="rgba(0,0,0,0)" stroke-width="1"/>
      <path id="Path_1757" data-name="Path 1757" d="M23.71,40.768c-.432-.146-1.029-.241-1.354-.317-.177-.041-.278-.094-.278-.217,0-.1.118-.2.391-.2.218,0,.367.07.372.284h1.513c0-.795-.8-1.06-1.862-1.06-1.248,0-1.963.4-1.963,1.112,0,.439.231.755.887.913l1.2.283c.158.039.283.1.283.232,0,.151-.159.279-.407.279a.44.44,0,0,1-.331-.11.371.371,0,0,1-.089-.26H20.453c0,.889.945,1.144,1.973,1.144,1.206,0,2.057-.35,2.057-1.187,0-.411-.237-.72-.774-.9" transform="translate(-10.064 -19.317)" fill="#093a80" stroke="rgba(0,0,0,0)" stroke-width="1"/>
      <path id="Path_1758" data-name="Path 1758" d="M33.441,39.437H30.959v3.414H32.65V41.7h.556c1.194,0,1.749-.463,1.749-1.145,0-.643-.484-1.12-1.513-1.12m-.709,1.489H32.65v-.714h.177c.367,0,.509.1.509.344s-.166.37-.6.37" transform="translate(-15.233 -19.404)" fill="#093a80" stroke="rgba(0,0,0,0)" stroke-width="1"/>
      <path id="Path_1759" data-name="Path 1759" d="M43.217,39.258c-1.473,0-2.205.734-2.205,1.8s.732,1.8,2.205,1.8,2.206-.733,2.206-1.8-.734-1.8-2.206-1.8m0,2.706c-.26,0-.456-.119-.456-.908,0-.771.184-.908.456-.908s.456.138.456.908c0,.789-.2.908-.456.908" transform="translate(-20.179 -19.316)" fill="#093a80" stroke="rgba(0,0,0,0)" stroke-width="1"/>
      <path id="Path_1760" data-name="Path 1760" d="M55.456,41.125v-.009c.637-.123.844-.421.844-.814,0-.643-.538-.865-1.454-.865H52.322v3.414h1.656V41.635h.193c.273,0,.379.066.414.236a6.846,6.846,0,0,0,.213.979h1.654a11.593,11.593,0,0,1-.276-1.29c-.083-.262-.308-.407-.72-.436m-1.337-.265h-.141v-.648h.153c.331,0,.549.052.549.3s-.236.346-.562.346" transform="translate(-25.744 -19.404)" fill="#093a80" stroke="rgba(0,0,0,0)" stroke-width="1"/>
      <path id="Path_1761" data-name="Path 1761" d="M62.328,40.354H63.38v2.5h1.69v-2.5h1.052v-.917H62.328Z" transform="translate(-30.667 -19.404)" fill="#093a80" stroke="rgba(0,0,0,0)" stroke-width="1"/>
      <path id="Path_1762" data-name="Path 1762" d="M75.067,40.768c-.43-.146-1.028-.241-1.354-.317-.178-.041-.278-.094-.278-.217,0-.1.119-.2.39-.2.219,0,.367.07.372.284h1.514c0-.795-.8-1.06-1.863-1.06-1.248,0-1.962.4-1.962,1.112,0,.439.231.755.886.913l1.2.283c.16.039.283.1.283.232,0,.151-.16.279-.408.279a.444.444,0,0,1-.331-.11.371.371,0,0,1-.089-.26h-1.62c0,.889.946,1.144,1.975,1.144,1.205,0,2.058-.35,2.058-1.187,0-.411-.237-.72-.776-.9" transform="translate(-35.332 -19.317)" fill="#093a80" stroke="rgba(0,0,0,0)" stroke-width="1"/>
      <path id="Path_1763" data-name="Path 1763" d="M21.155,25.326V12.544h7.7l.237,3.495h-4.31v1.667h3.512v3.488H24.757v4.132Z" transform="translate(-10.409 -6.172)" fill="#093a80" stroke="rgba(0,0,0,0)" stroke-width="1"/>
      <path id="Path_1764" data-name="Path 1764" d="M68.541,25.324l-3.848-6.632,3.5-6.114H64.337l-1.6,2.755-1.571-2.755H57.178l3.566,6.158-3.777,6.6h3.874L62.689,22.1l1.869,3.223Z" transform="translate(-28.03 -6.189)" fill="#093a80" stroke="rgba(0,0,0,0)" stroke-width="1"/>
      <path id="Path_1765" data-name="Path 1765" d="M36.584,19.138a6.093,6.093,0,1,1,6.091,6.215,6.153,6.153,0,0,1-6.091-6.215m7.187,2.552V16.584a1.127,1.127,0,0,0-1.078-1.1,1.087,1.087,0,0,0-1.033,1.1l0,5.091a1.044,1.044,0,0,0,1.034,1.056,1.071,1.071,0,0,0,1.078-1.04" transform="translate(-18.001 -6.359)" fill="#093a80" stroke="rgba(0,0,0,0)" stroke-width="1"/>
      <path id="Path_1766" data-name="Path 1766" d="M71.7,30.87c-.465,7-9.557,12.587-20.786,12.722v1.6c13.435-.142,24.323-6.435,24.914-14.319Z" transform="translate(-25.05 -15.189)" fill="#093a80" stroke="rgba(0,0,0,0)" stroke-width="1"/>
      <path id="Path_1767" data-name="Path 1767" d="M24.938,43.59C13.761,43.42,4.727,37.842,4.264,30.869H.042c.59,7.881,11.47,14.172,24.9,14.319Z" transform="translate(-0.021 -15.188)" fill="#093a80" stroke="rgba(0,0,0,0)" stroke-width="1"/>
      <path id="Path_1768" data-name="Path 1768" d="M24.918,0C11.261.15.24,6.666,0,14.737H4.232C4.549,7.678,13.642,2,24.918,1.823Z" transform="translate(0 0)" fill="#093a80" stroke="rgba(0,0,0,0)" stroke-width="1"/>
      <path id="Path_1769" data-name="Path 1769" d="M50.911,0V1.822c11.326.137,20.48,5.833,20.8,12.914h4.138C75.607,6.662,64.577.145,50.911,0" transform="translate(-25.05 0)" fill="#093a80" stroke="rgba(0,0,0,0)" stroke-width="1"/>
      <path id="Path_1770" data-name="Path 1770" d="M87.953,51.875h-.314v-1.24h-.455V50.37h1.224v.265h-.455Z" transform="translate(-42.897 -24.784)" fill="#093a80" stroke="rgba(0,0,0,0)" stroke-width="1"/>
      <path id="Path_1771" data-name="Path 1771" d="M91.391,51.875H91.1V50.616h-.005l-.28,1.259H90.5l-.275-1.259h0v1.259h-.294V50.37h.459l.272,1.187h0l.269-1.187h.455Z" transform="translate(-44.25 -24.784)" fill="#093a80" stroke="rgba(0,0,0,0)" stroke-width="1"/>
    </g>
  </g>
</svg>
