<svg width="58" height="58" viewBox="0 0 58 58" fill="none" xmlns="http://www.w3.org/2000/svg">
<rect x="3" y="3" width="52" height="52" rx="26" fill="url(#paint0_linear_2322_42345)"/>
<path d="M29.0193 20C22.9328 20 18.0011 23.7406 18.0011 28.3571C18.0011 30.3512 18.9201 32.1733 20.4533 33.6085C19.9153 35.6323 18.1173 37.4363 18.0958 37.4564C17.9989 37.5468 17.972 37.6868 18.0312 37.8073C18.0851 37.9277 18.2044 38 18.3443 38C21.196 38 23.2987 36.7239 24.3963 35.9352C25.7996 36.429 27.3664 36.7143 29.0193 36.7143C35.1058 36.7143 40 32.9725 40 28.3571C40 23.7418 35.1058 20 29.0193 20Z" fill="white"/>
<path d="M27.8518 31.9983C27.8518 33.3339 29.9294 33.3339 29.9294 31.9983C29.9294 30.6516 27.8518 30.6516 27.8518 31.9983ZM27.7614 27.5057C27.7953 26.8986 28.3034 26.4902 28.9696 26.4902C29.5906 26.4902 30.0761 26.733 30.1439 27.1856C30.3358 28.4329 28.0324 27.881 27.9986 30.4529H29.7487C29.7487 28.742 32.3909 29.0952 31.9505 26.8213C31.6908 25.5961 30.5278 25 28.9696 25C27.242 25 26.0113 25.8941 26 27.5057H27.7614Z" fill="#3680FD"/>
<rect x="3" y="3" width="52" height="52" rx="26" stroke="#1298FF" stroke-width="6"/>
<defs>
<linearGradient id="paint0_linear_2322_42345" x1="4.0198" y1="3.30003e-07" x2="59.2492" y2="10.3476" gradientUnits="userSpaceOnUse">
<stop stop-color="#1656F9"/>
<stop offset="1" stop-color="#58AFFF"/>
</linearGradient>
</defs>
</svg>
