<svg width="21" height="21" viewBox="0 0 21 21" fill="none" xmlns="http://www.w3.org/2000/svg">
<path id="Vector" d="M10.8242 0.5C8.10575 0.5 7.76696 0.513127 6.70308 0.558132C5.63482 0.610639 4.91223 0.776285 4.27465 1.02382C3.61707 1.28135 3.057 1.62327 2.5038 2.17958C1.94686 2.73278 1.60182 3.29285 1.34803 3.95043C1.1005 4.58801 0.934858 5.3106 0.882351 6.37886C0.83422 7.44337 0.824219 7.78154 0.824219 10.5C0.824219 13.2185 0.837345 13.5573 0.882351 14.6211C0.934858 15.6863 1.1005 16.412 1.34803 17.0496C1.60557 17.7072 1.94748 18.2672 2.5038 18.8204C3.057 19.3774 3.61707 19.7224 4.27465 19.9762C4.91223 20.2206 5.63795 20.3894 6.70308 20.4419C7.76759 20.49 8.10575 20.5 10.8242 20.5C13.5427 20.5 13.8815 20.4869 14.9454 20.4419C16.0105 20.3894 16.7362 20.22 17.3738 19.9762C18.0314 19.7187 18.5914 19.3767 19.1446 18.8204C19.7016 18.2672 20.0466 17.7103 20.3004 17.0496C20.5448 16.412 20.7136 15.6863 20.7661 14.6211C20.8142 13.5566 20.8242 13.2185 20.8242 10.5C20.8242 7.78154 20.8111 7.44274 20.7661 6.37886C20.7136 5.31373 20.5442 4.58426 20.3004 3.95043C20.0429 3.29285 19.701 2.73278 19.1446 2.17958C18.5914 1.62264 18.0345 1.2776 17.3738 1.02382C16.7362 0.776285 16.0105 0.610639 14.9454 0.558132C13.8809 0.510001 13.5427 0.5 10.8242 0.5V0.5ZM10.8242 2.30023C13.4939 2.30023 13.8127 2.31335 14.8678 2.35836C15.8411 2.40399 16.3712 2.56651 16.7231 2.70403C17.1925 2.88592 17.5207 3.10095 17.8757 3.45224C18.2239 3.80041 18.4389 4.13233 18.6208 4.60176C18.7583 4.95368 18.9209 5.48375 18.9665 6.45699C19.0115 7.51213 19.0246 7.83154 19.0246 10.5006C19.0246 13.1697 19.0115 13.4891 18.9627 14.5443C18.9102 15.5175 18.7477 16.0476 18.6108 16.3995C18.4214 16.8689 18.2101 17.1971 17.8613 17.5521C17.5094 17.9003 17.1744 18.1153 16.7087 18.2972C16.3612 18.4347 15.8236 18.5973 14.8466 18.6429C13.7858 18.6879 13.4733 18.701 10.7967 18.701C8.12013 18.701 7.80822 18.6879 6.74621 18.6391C5.77296 18.5866 5.23602 18.4241 4.8841 18.2872C4.40904 18.0978 4.08338 17.8865 3.73458 17.5378C3.38266 17.1858 3.15889 16.8508 2.98636 16.3851C2.84635 16.0376 2.68633 15.5 2.63444 14.523C2.59882 13.4747 2.58194 13.1497 2.58194 10.4856C2.58194 7.82279 2.59882 7.49712 2.63444 6.43574C2.68633 5.45875 2.84635 4.92243 2.98636 4.57363C3.15889 4.09795 3.38329 3.77291 3.73458 3.42099C4.08275 3.07282 4.40904 2.84779 4.8841 2.67152C5.23602 2.53463 5.75984 2.37211 6.73683 2.32335C7.79759 2.28522 8.11013 2.27147 10.783 2.27147L10.8242 2.30023ZM10.8242 5.36748C7.98574 5.36748 5.69045 7.6659 5.69045 10.5013C5.69045 13.3397 7.98886 15.635 10.8242 15.635C13.6627 15.635 15.958 13.3366 15.958 10.5013C15.958 7.66277 13.6596 5.36748 10.8242 5.36748ZM10.8242 13.8348C8.98149 13.8348 7.49068 12.344 7.49068 10.5013C7.49068 8.65852 8.98149 7.16771 10.8242 7.16771C12.6669 7.16771 14.1578 8.65852 14.1578 10.5013C14.1578 12.344 12.6669 13.8348 10.8242 13.8348ZM17.365 5.16246C17.365 5.82692 16.8243 6.36323 16.163 6.36323C15.4986 6.36323 14.9622 5.82629 14.9622 5.16246C14.9622 4.50175 15.5023 3.96418 16.163 3.96418C16.8237 3.96418 17.365 4.50175 17.365 5.16246Z" fill="#AFB9CB"/>
</svg>
