<svg width="25" height="24" viewBox="0 0 25 24" fill="none" xmlns="http://www.w3.org/2000/svg">
<g id="Communication / Mail">
<path id="Vector" d="M4.5 6L12.7286 12L20.4999 6M21.5 8.19995V15.8C21.5 16.9201 21.5002 17.4802 21.2822 17.908C21.0905 18.2844 20.7841 18.5902 20.4078 18.782C19.98 19 19.4203 19 18.3002 19H6.7002C5.58009 19 5.01962 19 4.5918 18.782C4.21547 18.5902 3.90973 18.2844 3.71799 17.908C3.5 17.4802 3.5 16.9201 3.5 15.8V8.19995C3.5 7.07985 3.5 6.51986 3.71799 6.09204C3.90973 5.71572 4.21547 5.40973 4.5918 5.21799C5.01962 5 5.58009 5 6.7002 5H18.3002C19.4203 5 19.98 5 20.4078 5.21799C20.7841 5.40973 21.0905 5.71572 21.2822 6.09204C21.5002 6.51986 21.5 7.07985 21.5 8.19995Z" stroke="#A4D8FF" stroke-width="2" stroke-linecap="round" stroke-linejoin="round"/>
</g>
</svg>
