<svg width="37" height="22" viewBox="0 0 37 22" fill="none" xmlns="http://www.w3.org/2000/svg">
<g id="Group">
<path id="Vector" d="M13.791 2.35547H23.416V19.6499H13.791V2.35547Z" fill="#FF5F00"/>
<path id="Vector_2" d="M14.4019 11C14.4019 7.48611 16.0519 4.36945 18.588 2.35278C16.7241 0.886115 14.3713 0 11.8047 0C5.72413 0 0.804688 4.91944 0.804688 11C0.804688 17.0806 5.72413 22 11.8047 22C14.3713 22 16.7241 21.1139 18.588 19.6472C16.0519 17.6611 14.4019 14.5139 14.4019 11Z" fill="#EB001B"/>
<path id="Vector_3" d="M36.4025 11C36.4025 17.0806 31.483 22 25.4025 22C22.8358 22 20.483 21.1139 18.6191 19.6472C21.1858 17.6306 22.8053 14.5139 22.8053 11C22.8053 7.48611 21.1553 4.36945 18.6191 2.35278C20.483 0.886115 22.8358 0 25.4025 0C31.483 0 36.4025 4.95 36.4025 11Z" fill="#F79E1B"/>
</g>
</svg>
