<?xml version="1.0" encoding="utf-8"?>
<!-- Generator: Adobe Illustrator 16.0.0, SVG Export Plug-In . SVG Version: 6.00 Build 0)  -->
<!DOCTYPE svg PUBLIC "-//W3C//DTD SVG 1.1//EN" "http://www.w3.org/Graphics/SVG/1.1/DTD/svg11.dtd">
<svg version="1.1" id="Layer_1" xmlns="http://www.w3.org/2000/svg" xmlns:xlink="http://www.w3.org/1999/xlink" x="0px" y="0px"
	 width="476.216px" height="87.054px" viewBox="0 0 476.216 87.054" enable-background="new 0 0 476.216 87.054"
	 xml:space="preserve">
<g id="Layer_2">
	<g id="Layer_1-2">
		<polygon fill="#FFFFFF" points="18.937,18.439 19.686,19.188 18.937,19.937 18.188,19.188 17.669,19.706 18.418,20.455 
			17.669,21.204 16.92,20.455 16.392,20.983 17.141,21.732 16.392,22.481 15.653,21.732 15.125,22.25 15.874,23 15.125,23.749 
			14.376,23 13.857,23.528 16.479,26.14 17.151,25.467 16.402,24.718 17.151,23.969 17.9,24.718 18.418,24.2 17.669,23.451 
			18.418,22.702 19.167,23.451 19.686,22.923 18.946,22.184 19.686,21.435 20.435,22.184 20.962,21.655 20.214,20.906 
			20.962,20.157 21.711,20.906 22.23,20.388 19.609,17.767 		"/>
		<path fill="#FFFFFF" d="M25.744,14.243c-1.088-0.962-2.516-1.449-3.965-1.354c-3.344,0.138-6.505,1.563-8.824,3.975
			c-2.4,2.332-3.822,5.491-3.975,8.833c-0.087,1.446,0.396,2.869,1.344,3.965c0.911,0.709,2.016,1.121,3.168,1.182
			c0.114-0.517,0.285-1.019,0.509-1.498c-0.936,0.082-1.871-0.178-2.631-0.729l0,0c-0.816-0.826-1.124-2.468-0.749-4.417
			c0.127-0.719,0.333-1.42,0.615-2.093c1.24-3.192,3.762-5.717,6.952-6.961c0.672-0.289,1.379-0.488,2.103-0.595
			c1.488-0.298,3.36-0.23,4.417,0.749c0.486,0.701,0.738,1.538,0.72,2.391c0.423-0.424,0.886-0.807,1.383-1.143
			C26.638,15.707,26.273,14.918,25.744,14.243z"/>
		<path fill="#FFFFFF" d="M24.505,31.824c0.091,0.913-0.114,1.832-0.585,2.621c-0.605,1.027-1.586,1.778-2.736,2.093l0,0
			c0.006-0.212,0.026-0.424,0.058-0.634l0.375,0.067l0.077-0.413l-0.441-0.105c0.029-0.245,0.084-0.486,0.163-0.72l0.384,0.115
			l0.144-0.423L21.558,34.3c0.088-0.266,0.201-0.522,0.336-0.768l0.384,0.221l0.221-0.385l-0.384-0.221
			c0.15-0.238,0.317-0.467,0.5-0.682l0.297,0.278l0.298-0.346l-0.298-0.307l0.586-0.48l0.24,0.288l0.307-0.278l-0.202-0.269
			l0.23-0.153c-0.164-0.24-0.317-0.5-0.471-0.749l-0.327,0.221l-0.375-0.423l-0.316,0.278l0.336,0.394l-0.644,0.596L21.894,31.2
			l-0.298,0.336l0.384,0.326l-0.624,0.807l-0.384-0.221l-0.221,0.384l0.384,0.221c-0.165,0.311-0.31,0.631-0.433,0.96l-0.432-0.144
			L20.127,34.3l0.47,0.163c-0.057,0.279-0.134,0.586-0.192,0.864l-0.509-0.096l-0.086,0.413l0.509,0.086l-0.048,0.894
			c-0.833,0.051-1.661-0.146-2.381-0.567l0,0c-0.73-0.424-1.327-1.047-1.719-1.795c0.256-0.153,0.506-0.317,0.749-0.489l0.365,0.412
			l0.336-0.278l-0.336-0.394c0.211-0.183,0.442-0.413,0.653-0.596l0.374,0.317l0.298-0.336l-0.375-0.317
			c0.24-0.246,0.45-0.52,0.624-0.815l0.384,0.221l0.221-0.385l-0.384-0.221c0.166-0.305,0.298-0.627,0.394-0.96l0.461,0.163
			l0.144-0.422l-0.46-0.174c0-0.269,0.105-0.547,0.182-0.854l0.509,0.087l0.087-0.413l-0.548-0.105
			c0.058-0.294,0.077-0.594,0.058-0.893c1.063-0.052,2.11,0.29,2.938,0.96c-0.166-0.414-0.307-0.837-0.423-1.268
			c-2.614-1.304-5.791-0.241-7.095,2.373s-0.242,5.791,2.373,7.096c2.5,1.247,5.541,0.334,6.94-2.085
			c0.375-0.645,0.607-1.361,0.682-2.103C25.032,32.478,24.76,32.158,24.505,31.824z M16.268,30.028
			c0.613-1.019,1.592-1.764,2.736-2.084c-0.006,0.209-0.026,0.418-0.058,0.624H18.61l-0.077,0.413l0.365,0.058
			c-0.032,0.247-0.083,0.491-0.154,0.729l-0.355-0.105l-0.145,0.433l0.384,0.115c-0.088,0.269-0.2,0.529-0.336,0.777l-0.384-0.221
			l-0.221,0.384l0.384,0.221c-0.152,0.237-0.319,0.465-0.5,0.683l-0.298-0.279l-0.297,0.317l0.297,0.278
			c-0.166,0.184-0.349,0.351-0.547,0.499l-0.24-0.288l-0.307,0.278l0.24,0.288c-0.179,0.112-0.352,0.234-0.519,0.365
			C15.524,32.352,15.657,31.085,16.268,30.028z"/>
		<path id="Path_84" fill="#FFFFFF" d="M32.811,16.278c-4.958,0-8.978,4.02-8.978,8.978c0,4.958,4.02,8.977,8.978,8.977
			s8.978-4.019,8.978-8.977l0,0C41.789,20.298,37.769,16.278,32.811,16.278z M33.358,17.69c1.385,0.103,2.715,0.588,3.84,1.402
			c-2.212,1.635-3.534,4.21-3.572,6.961h-0.826c-0.547,0-1.037,0-1.517-0.058c0-0.25,0-0.509,0-0.768
			c-0.041-1.92,0.298-3.829,0.999-5.617c0.232-0.621,0.556-1.204,0.96-1.729C33.294,17.827,33.333,17.761,33.358,17.69z
			 M32.023,17.69c-0.281,0.488-0.528,0.995-0.739,1.517c-0.785,1.92-1.186,3.975-1.181,6.049c0,0.211,0,0.422,0,0.634
			c-0.579-0.075-1.153-0.184-1.719-0.327c0.023-1.961-0.302-3.912-0.96-5.761C28.675,18.599,30.296,17.854,32.023,17.69z
			 M38.14,19.792c1.146,1.147,1.896,2.631,2.141,4.234c-0.062,0.032-0.114,0.078-0.154,0.135c-0.472,0.393-1.007,0.702-1.584,0.912
			c-1.222,0.52-2.518,0.844-3.84,0.96c-0.086-3.351,2.468-5.521,3.351-6.174L38.14,19.792z M26.656,20.849
			c0.402,1.406,0.625,2.858,0.663,4.321l-0.24-0.087c-0.578-0.229-1.114-0.554-1.584-0.96c-0.057-0.044-0.122-0.077-0.192-0.096
			C25.507,22.878,25.97,21.792,26.656,20.849z M25.235,25.371c0.438,0.306,0.908,0.563,1.402,0.769
			c0.192,0.085,0.441,0.182,0.682,0.268c-0.009,0.786-0.135,1.565-0.374,2.314c-0.07,0.249-0.191,0.481-0.356,0.682l-0.057,0.086
			C25.705,28.274,25.254,26.841,25.235,25.371z M40.387,25.371c-0.028,1.938-0.793,3.792-2.141,5.185
			c-1.6-0.548-2.856-1.807-3.399-3.409c1.423-0.122,2.818-0.462,4.138-1.007C39.477,25.931,39.946,25.674,40.387,25.371
			L40.387,25.371z M28.433,26.715c0.591,0.152,1.191,0.271,1.795,0.355c0.128,1.443,0.468,2.86,1.008,4.205
			c0.223,0.522,0.486,1.026,0.787,1.508c-1.849-0.205-3.558-1.083-4.801-2.468c0.104-0.042,0.193-0.112,0.259-0.202
			c0.236-0.311,0.421-0.657,0.547-1.027C28.273,28.319,28.409,27.521,28.433,26.715z M31.39,27.176c0.451,0,0.912,0,1.421,0h0.96
			c0.482,1.849,1.779,3.379,3.524,4.157c-1.141,0.845-2.5,1.345-3.917,1.44c-0.019-0.077-0.055-0.149-0.105-0.211
			c-0.406-0.524-0.73-1.107-0.96-1.729C31.835,29.664,31.525,28.432,31.39,27.176L31.39,27.176z"/>
	</g>
</g>
<path id="Path_106" fill="#FFFFFF" d="M258.084,13.203c-0.99,0.01-1.945,0.376-2.688,1.031c-0.848,0.751-1.328,1.835-1.313,2.969
	c0.023,0.982,0.375,1.929,1,2.688c0.557,0.669,1.174,1.286,1.844,1.844c1.234,1.116,2.156,2.034,2.156,3.468
	c-0.055,0.293-0.172,0.57-0.346,0.813c-0.109,0.168-0.234,0.325-0.375,0.47l1.439,1.405c0.23-0.24,0.439-0.502,0.625-0.78
	c0.33-0.463,0.545-0.999,0.625-1.563c0.113,0.324,0.223,0.656,0.344,0.97c0.588,1.618,1.387,3.152,2.375,4.563
	c0.303,0.42,0.648,0.807,1.031,1.156c-2.086,0.146-3.707,1.875-3.719,3.967v1h12v-1c-0.01-2.115-1.668-3.856-3.781-3.969
	c0.391-0.35,0.748-0.736,1.063-1.156c0.988-1.41,1.787-2.944,2.375-4.563c0.129-0.332,0.254-0.687,0.375-1.03
	c0.068,0.585,0.283,1.144,0.625,1.625c0.186,0.278,0.395,0.54,0.625,0.78l1.439-1.405c-0.141-0.145-0.266-0.302-0.375-0.47
	c-0.174-0.242-0.291-0.52-0.346-0.813c0-1.434,0.922-2.352,2.156-3.469c0.668-0.558,1.285-1.174,1.844-1.843
	c0.623-0.759,0.977-1.706,1-2.688c0.014-1.133-0.465-2.217-1.313-2.969c-0.742-0.656-1.697-1.021-2.688-1.031
	c-0.969-0.002-1.904,0.354-2.625,1h-12.75C259.986,13.556,259.053,13.2,258.084,13.203z M258.084,15.203
	c0.354-0.004,0.699,0.093,1,0.281c0.066,2.236,0.381,4.458,0.938,6.625c-0.531-0.673-1.127-1.291-1.781-1.844
	c-0.574-0.486-1.107-1.019-1.594-1.593c-0.357-0.407-0.557-0.928-0.563-1.469c-0.023-0.565,0.221-1.108,0.654-1.469
	C257.113,15.408,257.588,15.22,258.084,15.203z M276.084,15.203c0.496,0.018,0.971,0.205,1.344,0.531
	c0.436,0.36,0.678,0.904,0.656,1.469c-0.006,0.541-0.205,1.062-0.563,1.469c-0.486,0.575-1.02,1.108-1.594,1.594
	c-0.67,0.57-1.277,1.208-1.813,1.906c0.574-2.186,0.898-4.429,0.969-6.688C275.383,15.296,275.73,15.198,276.084,15.203z
	 M261.209,16.203h11.75c-0.209,3.285-0.916,6.52-2.094,9.594c-0.533,1.439-1.246,2.805-2.125,4.063
	c-0.727,0.968-1.391,1.343-1.688,1.343s-0.934-0.375-1.656-1.344c-0.879-1.258-1.594-2.623-2.125-4.063
	C262.107,22.72,261.412,19.486,261.209,16.203z M266.084,19.203v5h2v-5H266.084z M265.084,34.203h4c0.662,0.027,1.26,0.409,1.563,1
	h-7.125C263.824,34.613,264.42,34.23,265.084,34.203z"/>
<g id="Group_155">
	<path id="Path_126" fill="#FFFFFF" d="M27.145,55.731v-1.938l3.779,3.675H28.93c-0.968,0.019-1.767-0.751-1.785-1.719
		C27.145,55.744,27.145,55.737,27.145,55.731z M33.298,57.693l-6.384-6.209c-0.138-0.148-0.333-0.23-0.535-0.224H13.871
		c-1.805-0.028-3.29,1.412-3.318,3.217c0,0.004,0,0.008,0,0.012v24.828c0,0.423,0.343,0.766,0.767,0.765
		c0.422,0,0.765-0.343,0.766-0.765V54.489c0.007-0.968,0.798-1.746,1.765-1.738c0.008,0,0.015,0,0.021,0h11.743v2.98
		c0.021,1.804,1.501,3.249,3.306,3.228c0.004,0,0.007,0,0.011,0h3.063v18.575l-1.249-1.217c-0.293-0.297-0.77-0.299-1.066-0.006
		c-0.001,0.002-0.003,0.004-0.005,0.006l-2.018,1.962l-2.016-1.962c-0.294-0.297-0.771-0.299-1.068-0.005
		c-0.001,0.002-0.002,0.003-0.004,0.005l-2.017,1.962l-2.021-1.962c-0.293-0.297-0.771-0.299-1.066-0.006
		c-0.002,0.002-0.004,0.004-0.006,0.006l-2.017,1.962l-2.011-1.962c-0.294-0.297-0.771-0.299-1.068-0.005
		c-0.001,0.002-0.002,0.003-0.004,0.005c-0.288,0.263-0.309,0.709-0.046,0.997c0.015,0.016,0.03,0.031,0.046,0.046l2.553,2.483
		c0.295,0.296,0.773,0.298,1.069,0.003c0.001-0.001,0.002-0.002,0.003-0.003L20,77.882l2.017,1.962
		c0.294,0.296,0.773,0.298,1.069,0.003c0.001-0.001,0.002-0.002,0.003-0.003l2.017-1.962l2.016,1.962
		c0.295,0.296,0.773,0.298,1.069,0.003c0.001-0.001,0.002-0.002,0.003-0.003l2.018-1.962l2.019,1.962
		c0.142,0.144,0.335,0.225,0.536,0.224c0.096-0.003,0.19-0.02,0.281-0.051c0.284-0.118,0.474-0.392,0.484-0.699V58.217
		C33.537,58.016,33.451,57.823,33.298,57.693z"/>
	<path id="Path_127" fill="#FFFFFF" d="M27.601,73.82h-2.417c-0.363,0-0.658-0.295-0.658-0.658s0.295-0.658,0.658-0.658h2.417
		c0.363,0,0.658,0.295,0.658,0.658S27.964,73.82,27.601,73.82z"/>
	<path id="Path_128" fill="#FFFFFF" d="M27.404,64.073h-5.268c-0.363,0-0.658-0.295-0.658-0.658s0.295-0.658,0.658-0.658h5.263
		c0.363,0,0.658,0.295,0.658,0.658s-0.295,0.658-0.658,0.658H27.404z"/>
	<path id="Path_129" fill="#FFFFFF" d="M27.404,67.072h-5.268c-0.363,0-0.658-0.295-0.658-0.658s0.295-0.658,0.658-0.658h5.263
		c0.363,0,0.658,0.295,0.658,0.658s-0.295,0.658-0.658,0.658H27.404z"/>
	<path id="Path_130" fill="#FFFFFF" d="M27.404,70.067h-5.268c-0.363,0.014-0.669-0.27-0.684-0.632
		c-0.014-0.363,0.269-0.669,0.632-0.684c0.018-0.001,0.034-0.001,0.052,0h5.263c0.363-0.014,0.669,0.269,0.684,0.632
		c0.014,0.363-0.27,0.669-0.632,0.684c-0.018,0-0.034,0-0.052,0H27.404z"/>
	<path id="Path_131" fill="#FFFFFF" d="M18.202,64.073h-1.754c-0.363,0-0.657-0.295-0.657-0.658s0.294-0.658,0.657-0.658h1.754
		c0.363,0,0.658,0.295,0.658,0.658S18.565,64.073,18.202,64.073z"/>
	<path id="Path_132" fill="#FFFFFF" d="M18.202,67.072h-1.754c-0.363,0-0.657-0.295-0.657-0.658s0.294-0.658,0.657-0.658h1.754
		c0.363,0,0.658,0.295,0.658,0.658S18.565,67.072,18.202,67.072z"/>
	<path id="Path_133" fill="#FFFFFF" d="M18.202,70.067h-1.754c-0.363,0.014-0.669-0.27-0.683-0.632
		c-0.015-0.363,0.269-0.669,0.632-0.684c0.017-0.001,0.034-0.001,0.051,0h1.754c0.363-0.014,0.669,0.269,0.684,0.632
		c0.014,0.363-0.269,0.669-0.632,0.684C18.236,70.067,18.219,70.067,18.202,70.067z"/>
</g>
<path id="iconmonstr-boxing-2" fill="#FFFFFF" d="M424.232,22.688c-0.818,1.269-1.906,2.342-3.186,3.143
	c-1.879,1.268-3.504,2.877-4.789,4.745l-6.932-3.989c0.947-2.328,0.721-4.914,0.535-7.044c-0.193-2.181-0.268-3.55,0.447-3.793
	c1.156-0.395,2.574,2.182,3.289,4.254c1.17-4.772,2.107-6.772,7.178-3.812c1.254,0.734,5.207,3.366,3.457,6.5 M413.75,34.831
	l-6.832-3.93l1.434-2.478l6.832,3.935L413.75,34.831z M421.809,14.388c-1.537-1.034-3.336-1.606-5.186-1.65
	c-1.512,0.061-2.854,0.991-3.439,2.386c-0.951-1.174-2.186-1.862-3.6-1.325c-2.225,0.847-2,3.433-1.777,5.933
	c0.199,2.239,0.42,4.776-0.721,6.755l-3.002,5.182l10.416,6l3-5.178c1.197-1.996,2.828-3.697,4.771-4.976
	c1.1-0.818,4.484-3.115,4.484-6.435c0-2.748-2.318-5.155-4.943-6.689"/>
<path id="Path_107" fill="#FFFFFF" d="M379.51,16.988l-5.943-1c-0.352-1.832-1.949-3.159-3.816-3.166l-8.828-0.021h-0.008
	c-1.873,0.001-3.48,1.338-3.824,3.181l-5.982,1.007c-1.82,0.306-3.051,2.029-2.748,3.851l2.371,13.98
	c0.273,1.612,1.672,2.79,3.307,2.784c0.188,0,0.373-0.016,0.559-0.047l4.852-0.817c0.451,0.179,0.934,0.271,1.42,0.272l8.826,0.019
	c0.508,0.001,1.008-0.099,1.477-0.29l4.85,0.816c0.186,0.031,0.371,0.047,0.559,0.047c1.635,0.006,3.033-1.172,3.307-2.784
	l2.369-13.98C382.561,19.018,381.332,17.294,379.51,16.988z M354.338,36.03c-0.1,0.018-0.199,0.026-0.301,0.025
	c-0.877,0.002-1.627-0.629-1.775-1.494l-2.371-13.98c-0.162-0.977,0.498-1.899,1.473-2.066l5.654-0.951l-0.012,4.941l-0.51-0.429
	c-0.127-0.105-0.316-0.087-0.422,0.041c-0.01,0.012-0.018,0.024-0.025,0.037l-2.869,4.938c-0.08,0.138-0.051,0.313,0.07,0.416
	l3.736,3.149v2.466c-0.002,0.84,0.271,1.658,0.779,2.327L354.338,36.03z M371.791,33.157c-0.008,1.148-0.939,2.074-2.088,2.077l0,0
	l-8.828-0.021c-1.148-0.003-2.08-0.934-2.082-2.084l0.037-16.455c0.008-1.147,0.939-2.074,2.088-2.075l0,0l8.826,0.02
	c1.15,0.004,2.08,0.936,2.084,2.085L371.791,33.157z M380.725,20.581l-2.371,13.98c-0.148,0.863-0.898,1.494-1.775,1.494
	c-0.1,0-0.201-0.009-0.299-0.026l-3.449-0.581c0.494-0.66,0.762-1.463,0.764-2.287l0.006-2.617l0.461,0.1
	c0.143,0.033,0.285-0.057,0.318-0.199c0.014-0.059,0.006-0.12-0.02-0.174c-0.342-0.797-0.488-1.665-0.424-2.53
	c0.047,0,0.096,0.006,0.141,0.006c-0.111,1.059,0.656,2.007,1.715,2.118c1.059,0.112,2.006-0.655,2.119-1.713
	c0.111-1.059-0.656-2.008-1.715-2.119c-0.227-0.023-0.455-0.008-0.674,0.048c-0.027-0.079-0.061-0.155-0.102-0.229
	c0.902-0.556,1.184-1.738,0.627-2.641c-0.508-0.822-1.547-1.139-2.426-0.74l0.01-4.899l5.621,0.944
	c0.977,0.167,1.635,1.09,1.475,2.066H380.725z M378.891,19.367c-0.02-0.004-0.037-0.006-0.057-0.006
	c-0.121,0.003-0.23,0.075-0.281,0.187l-0.785,1.371c-0.021,0.035-0.035,0.074-0.043,0.114c-0.012,0.058,0.004,0.117,0.043,0.161
	c0.037,0.043,0.088,0.072,0.145,0.081c0.014,0.001,0.025,0.001,0.039,0c0.096-0.004,0.18-0.063,0.217-0.151l0.131-0.237l0.656,0.112
	l0.047,0.278c0.006,0.104,0.082,0.191,0.186,0.212c0.014,0.001,0.029,0.001,0.045,0c0.041,0,0.082-0.011,0.117-0.033
	c0.051-0.03,0.084-0.082,0.092-0.141c0.008-0.039,0.008-0.078,0-0.116l-0.291-1.541C379.111,19.448,378.99,19.382,378.891,19.367z
	 M378.506,20.503l0.283-0.518l0.1,0.584L378.506,20.503z M352.053,19.519c-0.057-0.13-0.197-0.204-0.338-0.18
	c-0.145,0.028-0.252,0.152-0.26,0.3l-0.291,1.542c-0.006,0.039-0.006,0.079,0,0.118c0.01,0.059,0.045,0.11,0.094,0.142
	c0.035,0.021,0.076,0.033,0.117,0.032c0.016,0.002,0.031,0.002,0.045,0c0.07-0.011,0.158-0.058,0.186-0.213l0.047-0.276l0.656-0.112
	l0.131,0.236c0.037,0.088,0.121,0.147,0.217,0.15c0.014,0.001,0.025,0.001,0.039,0c0.057-0.008,0.107-0.036,0.143-0.079
	c0.041-0.045,0.057-0.105,0.045-0.164c-0.008-0.04-0.023-0.078-0.045-0.112L352.053,19.519z M351.721,20.541l0.096-0.583
	l0.281,0.519L351.721,20.541z M369.039,27.09c0.018-0.02,1.732-1.936-0.865-4.651l-2.658-2.549c-0.117-0.114-0.305-0.114-0.42,0
	l-2.662,2.559c-2.586,2.705-0.875,4.621-0.859,4.638c0.348,0.438,0.871,0.701,1.43,0.721c0.758-0.076,1.451-0.459,1.92-1.059
	c-0.18,0.988-0.576,1.926-1.16,2.742c-0.111,0.144-0.086,0.35,0.059,0.462c0.057,0.046,0.129,0.069,0.203,0.069h2.564
	c0.127,0,0.244-0.07,0.301-0.184c0.055-0.113,0.041-0.248-0.035-0.347c-0.588-0.815-0.984-1.752-1.162-2.741
	c0.471,0.6,1.164,0.98,1.922,1.059l0,0c0.557-0.02,1.08-0.281,1.428-0.719H369.039z M361.615,17.79
	c0.029,0.147,0.174,0.244,0.32,0.215c0.047-0.009,0.09-0.029,0.125-0.06c0.053-0.044,0.082-0.108,0.082-0.177
	c-0.002-0.048-0.012-0.095-0.029-0.14l-0.627-1.721c-0.039-0.161-0.186-0.274-0.352-0.273c-0.17,0.005-0.316,0.124-0.354,0.29
	l-0.637,1.707c-0.016,0.043-0.023,0.089-0.023,0.134c-0.002,0.069,0.027,0.135,0.078,0.181c0.111,0.096,0.277,0.084,0.375-0.026
	c0.029-0.033,0.049-0.073,0.059-0.117l0.107-0.307h0.773L361.615,17.79z M360.904,17.01l0.223-0.647l0.223,0.647H360.904z
	 M370.236,31.831c-0.123,0.003-0.227,0.088-0.254,0.207l-0.107,0.309h-0.773l-0.1-0.299c-0.031-0.149-0.178-0.244-0.326-0.213
	c-0.043,0.009-0.084,0.029-0.119,0.057c-0.053,0.045-0.082,0.11-0.08,0.179c0,0.048,0.01,0.094,0.027,0.138l0.627,1.721
	c0.039,0.162,0.186,0.275,0.352,0.274c0.17-0.005,0.316-0.124,0.354-0.29l0.639-1.705c0.014-0.044,0.021-0.09,0.021-0.135
	c0.002-0.068-0.027-0.135-0.078-0.18c-0.051-0.043-0.113-0.065-0.18-0.064L370.236,31.831z M369.486,33.477l-0.223-0.648h0.445
	L369.486,33.477z"/>
<path id="Path_139" fill="#FFFFFF" d="M60.541,74.596l5.479-5.473h-10.96L60.541,74.596z"/>
<path id="Path_140" fill="#FFFFFF" d="M72.83,61.67c-0.347,0-0.628,0.28-0.628,0.627v14.62H48.856v-14.62
	c0-0.346-0.28-0.627-0.627-0.627c0,0,0,0-0.001,0c-0.346,0-0.627,0.28-0.628,0.627v15.247c0.001,0.346,0.282,0.627,0.628,0.627
	h24.601c0.346,0,0.627-0.279,0.628-0.626c0-0.001,0-0.001,0-0.001V62.297C73.457,61.951,73.176,61.67,72.83,61.67z"/>
<path id="Path_141" fill="#FFFFFF" d="M60.22,57.134c-0.686,0.064-1.029,0.428-1.029,0.9c0,0.45,0.2,0.728,1.029,1V57.134z"/>
<path id="Path_142" fill="#FFFFFF" d="M62.127,61.533c0-0.471-0.236-0.76-1.062-1.017v1.949
	C61.752,62.391,62.127,62.048,62.127,61.533z"/>
<path id="Path_143" fill="#FFFFFF" d="M60.541,66.855c3.778-0.004,6.838-3.071,6.834-6.85c-0.005-3.779-3.071-6.838-6.851-6.834
	c-3.775,0.004-6.834,3.066-6.834,6.842C53.693,63.794,56.76,66.857,60.541,66.855L60.541,66.855z M58.279,61.587
	c0.127,0,0.252,0.041,0.354,0.118c0.466,0.358,1.009,0.604,1.586,0.716v-2.108c-1.564-0.407-2.294-1-2.294-2.205
	c0.058-1.186,1.064-2.102,2.251-2.046v-0.225c0.003-0.257,0.215-0.464,0.472-0.461c0.253-0.002,0.46,0.202,0.461,0.455
	c0.001,0.002,0.001,0.004,0,0.006v0.237c0.592,0.067,1.16,0.268,1.661,0.588c0.196,0.096,0.321,0.295,0.321,0.514
	c0,0.325-0.265,0.589-0.59,0.588c-0.003,0-0.007,0-0.01,0c-0.114-0.003-0.226-0.038-0.321-0.1c-0.341-0.212-0.712-0.369-1.1-0.467
	v2.056c1.63,0.407,2.326,1.06,2.326,2.206c0,1.178-0.921,1.959-2.282,2.088v0.642c0.002,0.252-0.201,0.458-0.453,0.461
	c-0.003,0-0.006,0-0.008,0c-0.258,0.003-0.469-0.204-0.473-0.461v-0.664c-0.793-0.084-1.551-0.373-2.2-0.836
	c-0.28-0.168-0.371-0.531-0.204-0.812c0.106-0.178,0.298-0.287,0.505-0.288L58.279,61.587z"/>
<path id="iconmonstr-american-football-2b" fill="#FFFFFF" d="M66.805,19.489l3.636,3.637l-0.727,0.728l-1.039-1.039l-1.039,1.039
	l1.039,1.039l-0.728,0.727l-1.039-1.039l-1.039,1.039l1.039,1.039l-0.727,0.727l-1.039-1.039l-1.04,1.04l1.039,1.039l-0.728,0.728
	l-1.038-1.039l-1.039,1.039l1.039,1.039l-0.936,0.935l-3.637-3.636l0.727-0.728l1.04,1.038l1.039-1.039l-1.039-1.039l0.728-0.727
	l1.039,1.04l1.039-1.039l-1.039-1.039l0.727-0.727l1.039,1.039l1.039-1.039l-1.039-1.04l0.727-0.728l1.039,1.039l1.039-1.039
	l-1.038-1.039L66.805,19.489z M55.376,34.554c-1.144-1.143-1.559-3.429-1.039-6.13c0.165-0.998,0.443-1.974,0.831-2.908
	c1.728-4.431,5.232-7.936,9.662-9.663c0.929-0.405,1.907-0.685,2.909-0.831c2.078-0.416,4.675-0.313,6.13,1.039
	c0.728,0.831,1.352,2.908,0.831,6.025c-0.188,0.982-0.43,1.954-0.727,2.909c-1.603,4.512-5.151,8.062-9.663,9.663
	c-0.951,0.312-1.923,0.554-2.909,0.727C58.908,35.801,56.415,35.593,55.376,34.554 M75.324,14.606
	c-1.51-1.337-3.494-2.011-5.506-1.87c-4.645,0.183-9.038,2.156-12.26,5.507c-3.329,3.237-5.298,7.621-5.507,12.26
	c-0.122,2.01,0.55,3.987,1.87,5.507c1.498,1.195,3.388,1.788,5.3,1.662c4.682-0.104,9.145-2,12.468-5.3
	c3.305-3.319,5.202-7.785,5.3-12.468c0.126-1.912-0.467-3.802-1.662-5.3"/>
<path id="iconmonstr-ice-hockey-2" fill="#FFFFFF" d="M196.248,25.613c-2.199,1.6-5.952,2.612-10.39,2.612
	c-4.438,0-8.193-1.014-10.39-2.612v2.612c0,1.9,4.442,4.03,10.39,4.03s10.39-2.127,10.39-4.03V25.613z M185.858,18.15
	c-5.947,0-10.39,2.128-10.39,4.03c0,1.902,4.442,4.03,10.39,4.03s10.39-2.128,10.39-4.03
	C196.248,20.278,191.805,18.15,185.858,18.15z M198.326,28.225c0,3.447-5.359,6.045-12.468,6.045s-12.468-2.598-12.468-6.045V22.18
	c0-3.445,5.359-6.045,12.468-6.045s12.468,2.6,12.468,6.045V28.225z"/>
<g id="horses" transform="translate(0)">
	<path id="Path_108" fill="#FFFFFF" d="M233.238,13.597c-0.984-1.118-2.682-1.246-3.824-0.29c-1.121,0.931-1.275,2.594-0.344,3.715
		c0.014,0.015,0.025,0.029,0.037,0.044c1.123,1.3,3.965,5.424,3.623,8.859c-0.398,4.066-2.799,6.365-6.758,6.481
		c-3.953-0.116-6.353-2.415-6.757-6.481c-0.342-3.435,2.5-7.56,3.619-8.854c0.959-1.097,0.847-2.764-0.25-3.723
		c-0.017-0.015-0.033-0.028-0.05-0.042c-1.146-0.958-2.845-0.83-3.832,0.29c-0.228,0.259-5.539,6.428-4.9,12.846
		c0.676,6.807,5.31,11.137,12.09,11.3h0.154c6.781-0.162,11.414-4.492,12.09-11.3C238.779,20.024,233.465,13.855,233.238,13.597z
		 M231.178,16.396c-0.59-0.01-1.059-0.496-1.047-1.085c0.01-0.588,0.496-1.057,1.084-1.046c0.582,0.01,1.047,0.484,1.047,1.065
		c0,0.594-0.482,1.074-1.076,1.073c-0.004,0-0.008,0-0.012,0L231.178,16.396z M220.79,14.266c0.588,0.01,1.057,0.496,1.047,1.084
		c-0.011,0.589-0.496,1.058-1.085,1.047c-0.581-0.01-1.047-0.484-1.047-1.065c0.006-0.593,0.491-1.069,1.085-1.064V14.266z
		 M216.427,21.419c0.331-0.955,0.739-1.88,1.221-2.769c0.196-0.359,0.644-0.496,1.007-0.307c0.357,0.18,0.501,0.616,0.321,0.973
		c-0.003,0.005-0.006,0.011-0.009,0.017c-0.443,0.819-0.82,1.674-1.126,2.554c-0.104,0.301-0.388,0.501-0.706,0.5
		c-0.08,0-0.16-0.013-0.237-0.038c-0.384-0.123-0.597-0.533-0.474-0.917c0.001-0.003,0.002-0.007,0.003-0.01V21.419z
		 M216.683,28.104c-0.356,0.001-0.664-0.25-0.731-0.601c-0.078-0.405-0.141-0.829-0.183-1.256c-0.03-0.3-0.046-0.609-0.046-0.917
		c0-0.308,0.013-0.609,0.042-0.915c0.036-0.41,0.397-0.713,0.808-0.678c0.41,0.036,0.713,0.397,0.678,0.808
		c-0.024,0.264-0.036,0.529-0.036,0.786s0.012,0.522,0.037,0.776c0.039,0.383,0.094,0.761,0.163,1.125
		c0.074,0.396-0.188,0.778-0.583,0.853c-0.004,0.001-0.008,0.001-0.012,0.002C216.774,28.098,216.729,28.103,216.683,28.104z
		 M219.812,33.003c-0.294,0.286-0.762,0.286-1.056,0c-0.75-0.744-1.371-1.608-1.835-2.558c-0.177-0.359-0.029-0.794,0.33-0.971
		c0.005-0.002,0.009-0.004,0.014-0.007c0.37-0.18,0.815-0.029,1,0.339c0.393,0.803,0.917,1.534,1.551,2.164
		c0.284,0.281,0.286,0.74,0.005,1.024C219.817,32.999,219.814,33,219.812,33.003L219.812,33.003z M233.273,18.322
		c0.361-0.19,0.809-0.057,1.008,0.3c0.482,0.888,0.893,1.813,1.225,2.768c0.129,0.381-0.074,0.794-0.455,0.923
		c-0.004,0.001-0.008,0.003-0.012,0.004c-0.078,0.025-0.158,0.039-0.238,0.039c-0.318,0.001-0.604-0.199-0.709-0.5
		c-0.305-0.88-0.684-1.733-1.129-2.551c-0.188-0.354-0.051-0.793,0.305-0.979C233.27,18.324,233.271,18.323,233.273,18.322z
		 M235.037,30.421c-0.463,0.95-1.08,1.817-1.826,2.565c-0.291,0.287-0.76,0.29-1.055,0.006c-0.287-0.275-0.297-0.732-0.021-1.02
		c0.006-0.006,0.01-0.011,0.016-0.016c0.631-0.633,1.152-1.366,1.543-2.17c0.184-0.369,0.629-0.521,1-0.342
		c0.363,0.17,0.52,0.602,0.35,0.965c0,0.002-0.002,0.004-0.002,0.006L235.037,30.421z M236.176,26.258
		c-0.043,0.418-0.1,0.83-0.176,1.225c-0.068,0.351-0.377,0.603-0.732,0.601c-0.047,0-0.094-0.005-0.139-0.013
		c-0.398-0.069-0.666-0.448-0.596-0.846c0-0.004,0-0.006,0.002-0.009c0.064-0.354,0.117-0.723,0.156-1.1
		c0.023-0.254,0.037-0.513,0.037-0.775c0-0.262-0.012-0.537-0.037-0.813c-0.037-0.41,0.266-0.772,0.676-0.81
		c0.408-0.037,0.771,0.266,0.809,0.675c0.029,0.32,0.045,0.639,0.045,0.948c0,0.309-0.012,0.613-0.047,0.912L236.176,26.258z"/>
</g>
<g>
	<path id="Path_11" fill="#FFFFFF" d="M171.895,61.395l-2.11-3.428h13.761l2.111,3.428H171.895z"/>
	<path id="Path_12" fill="#FFFFFF" d="M172.958,73.156h-4.219l6.88-11.181h4.219L172.958,73.156z"/>
	<path id="Path_13" fill="#FFFFFF" d="M184.344,78.175l-2.11,3.428l-6.88-11.182l2.11-3.428L184.344,78.175z"/>
	<path id="Path_14" fill="#FFFFFF" d="M194.668,71.433l2.109,3.428h-13.76l-2.11-3.428H194.668z"/>
	<path id="Path_15" fill="#FFFFFF" d="M193.61,59.672h4.219l-6.881,11.181h-4.221L193.61,59.672z"/>
	<path id="Path_16" fill="#FFFFFF" d="M182.223,54.654l2.11-3.428l6.881,11.181l-2.109,3.428L182.223,54.654z"/>
</g>
<path id="iconmonstr-baseball-2" fill="#FFFFFF" d="M151.019,32.684c-0.208-0.416-0.416-0.831-0.623-1.352l0.831-0.312l-0.313-0.936
	l-1.039,0.313c-0.221-0.539-0.395-1.095-0.52-1.663l0.935-0.208l-0.208-1.039l-0.935,0.208c-0.121-0.651-0.19-1.312-0.208-1.975
	h1.038v-1.038h-1.037c0.018-0.663,0.087-1.323,0.208-1.975l0.935,0.208l0.208-1.039l-0.935-0.208
	c0.208-0.519,0.416-1.039,0.623-1.662l0.831,0.313l0.312-0.936l-0.727-0.312c0.208-0.416,0.416-0.831,0.623-1.352
	c2.037,1.949,3.167,4.662,3.116,7.481C154.119,28.008,153,30.696,151.019,32.684 M138.134,33.935
	c0.354-0.603,0.666-1.227,0.936-1.87l1.247,0.416l0.312-0.936l-1.143-0.421c0.208-0.623,0.416-1.351,0.623-1.974l1.143,0.208
	l0.208-1.039l-1.143-0.208c0.205-0.78,0.311-1.583,0.312-2.391h1.039v-1.038h-1.039c-0.001-0.808-0.106-1.61-0.312-2.391
	l1.143-0.208l-0.208-1.038l-1.143,0.208c-0.208-0.623-0.416-1.247-0.623-1.974l1.143-0.416l-0.312-0.936l-1.247,0.416
	c-0.228-0.662-0.542-1.291-0.936-1.869c3.412-2.217,7.81-2.217,11.222,0l-0.936,1.869l-1.243-0.416l-0.312,0.936l1.143,0.416
	c-0.208,0.623-0.416,1.351-0.623,1.974l-1.143-0.208l-0.208,1.039l1.143,0.208c-0.1,0.831-0.208,1.559-0.312,2.391h-1.042v1.038
	h1.039c0.018,0.801,0.087,1.6,0.208,2.391l-1.039,0.208l0.208,1.039l1.143-0.208c0.208,0.623,0.416,1.351,0.623,1.974l-1.143,0.416
	l0.312,0.936l1.144-0.416l0.935,1.869c-1.629,1.091-3.547,1.669-5.507,1.662C141.755,35.585,139.809,35.01,138.134,33.935
	 M133.356,25.203c0.037-2.802,1.153-5.481,3.116-7.481c0.208,0.416,0.416,0.831,0.623,1.352l-0.727,0.312l0.312,0.936l0.831-0.313
	c0.221,0.538,0.394,1.095,0.52,1.662l-0.831,0.208l0.208,1.039l0.935-0.208c0.121,0.651,0.19,1.312,0.208,1.975h-1.039v1.038h1.039
	c-0.018,0.663-0.087,1.323-0.208,1.975l-0.935-0.208l-0.208,1.039l0.935,0.208c-0.125,0.567-0.299,1.124-0.519,1.662l-0.831-0.313
	l-0.313,0.936l0.831,0.312c-0.208,0.416-0.416,0.831-0.623,1.352C134.562,30.773,133.353,28.054,133.356,25.203 M143.746,12.735
	c-6.886,0-12.468,5.582-12.468,12.468s5.582,12.468,12.468,12.468s12.468-5.582,12.468-12.468l0,0
	C156.196,18.324,150.625,12.752,143.746,12.735"/>
<g id="MY_ACCOUNT_OUTLINE" transform="translate(0.7 0.7)">
	<path id="Icon" fill="none" stroke="#FFFFFF" stroke-width="1.4" stroke-miterlimit="10" d="M87.053,76.715v-3.5c0-3.85,6.3-7,14-7
		s14,3.15,14,7v3.5H87.053z M94.053,55.715c0-3.866,3.134-7,7-7s7,3.134,7,7s-3.134,7-7,7S94.053,59.581,94.053,55.715z"/>
</g>
<path id="Path_84_1_" fill="#FFFFFF" d="M102.633,12.735c-6.886,0-12.468,5.582-12.468,12.468s5.582,12.468,12.468,12.468
	s12.468-5.582,12.468-12.468l0,0C115.1,18.317,109.519,12.736,102.633,12.735z M103.393,14.711c1.93,0.142,3.783,0.815,5.354,1.946
	c-1.627,1.277-5.109,4.618-4.957,9.67c-0.373,0.015-0.756,0.03-1.156,0.03c-0.753,0-1.441-0.042-2.1-0.091
	c-0.016-0.347-0.03-0.7-0.03-1.064c-0.048-2.662,0.428-5.307,1.399-7.785c0.322-0.863,0.773-1.673,1.339-2.399
	C103.315,14.928,103.367,14.824,103.393,14.711L103.393,14.711z M101.477,14.742c-0.397,0.673-0.743,1.375-1.034,2.1
	c-1.049,2.662-1.564,5.503-1.52,8.363c0,0.3,0.022,0.593,0.03,0.882c-0.801-0.104-1.594-0.257-2.375-0.458
	c0.024-2.703-0.427-5.39-1.334-7.937C96.933,16.039,99.128,15,101.477,14.742L101.477,14.742z M109.961,17.661
	c1.614,1.569,2.68,3.617,3.041,5.839c-0.081,0.048-0.153,0.109-0.213,0.182c-0.651,0.548-1.392,0.98-2.189,1.277
	c-1.688,0.692-3.473,1.123-5.291,1.277C105.195,21.584,108.743,18.563,109.961,17.661L109.961,17.661z M94.088,19.09
	c0.563,1.949,0.87,3.963,0.912,5.991c-0.101-0.042-0.239-0.08-0.335-0.122c-0.797-0.298-1.536-0.729-2.188-1.276
	c-0.06-0.073-0.132-0.135-0.213-0.183C92.524,21.91,93.148,20.4,94.088,19.09z M92.112,25.355c0.611,0.42,1.264,0.776,1.946,1.064
	c0.274,0.118,0.62,0.251,0.943,0.365c-0.008,1.095-0.182,2.182-0.518,3.223c-0.097,0.344-0.263,0.665-0.486,0.943
	c-0.034,0.038-0.064,0.079-0.091,0.122C92.761,29.383,92.137,27.395,92.112,25.355z M113.155,25.355
	c-0.033,2.695-1.101,5.274-2.979,7.207c-0.536-0.2-3.877-1.518-4.713-4.744c1.976-0.171,3.914-0.644,5.747-1.4
	C111.892,26.13,112.544,25.774,113.155,25.355z M96.555,27.24c0.821,0.21,1.654,0.373,2.494,0.487
	c0.178,2.004,0.649,3.972,1.4,5.839c0.29,0.725,0.636,1.427,1.033,2.1c-2.567-0.29-4.939-1.514-6.665-3.438
	c0.146-0.054,0.273-0.149,0.365-0.274c0.326-0.434,0.582-0.916,0.76-1.429c0.357-1.061,0.563-2.166,0.608-3.284L96.555,27.24z
	 M100.661,27.878c0.627,0.042,1.272,0.062,1.977,0.062c0.456,0,0.882-0.012,1.308-0.03c0.669,2.571,2.473,4.698,4.9,5.778
	c-1.589,1.168-3.476,1.864-5.443,2.007c-0.027-0.11-0.079-0.213-0.151-0.3c-0.565-0.728-1.017-1.537-1.338-2.4
	c-0.655-1.639-1.078-3.36-1.255-5.116H100.661z"/>
<g id="PROMO" transform="translate(0)">
	<path id="icons8-discount_56" fill="#FFFFFF" d="M144.783,50.765c-0.182,0.014-0.357,0.063-0.521,0.144l-2.587,1.235l-2.633-1.258
		l-0.037-0.012c-0.672-0.238-1.419-0.002-1.834,0.577l-1.687,2.269l-2.931,0.06l-0.045,0.008c-0.693,0.097-1.245,0.628-1.368,1.317
		v-0.014l-0.469,2.83l-2.652,1.446l-0.044,0.035c-0.559,0.415-0.795,1.137-0.591,1.802l0,0l0.944,2.719l-1.52,2.407
		c-0.397,0.624-0.312,1.438,0.206,1.968l0,0l2.07,2.019l-0.241,2.907v-0.037c-0.091,0.742,0.363,1.445,1.078,1.666h0.015
		l2.786,0.773l1.132,2.672l0.009,0.017c0.316,0.636,1.014,0.987,1.713,0.862h0.008l2.847-0.594l2.268,1.852l0.025,0.017
		c0.276,0.19,0.602,0.295,0.937,0.3c0.361,0.01,0.711-0.128,0.969-0.381l-0.047,0.044l2.244-1.833l2.836,0.592l-0.045-0.012
		c0.721,0.176,1.465-0.179,1.783-0.848l0.014-0.016l1.127-2.67l2.785-0.773h0.016c0.715-0.223,1.17-0.924,1.078-1.668v0.039
		l-0.23-2.9l2.068-2.011l-0.047,0.04c0.613-0.48,0.723-1.369,0.242-1.983l-0.012-0.015l0.039,0.057l-1.537-2.426l0.891-2.73v-0.012
		c0.23-0.708-0.068-1.48-0.717-1.848l-2.434-1.4l-0.475-2.841v0.015c-0.102-0.741-0.723-1.302-1.471-1.327h0.025l-2.893-0.115
		l-1.693-2.285c-0.205-0.305-0.51-0.527-0.863-0.629C145.142,50.768,144.962,50.75,144.783,50.765z M144.791,52.487
		c0.07-0.014,0.135,0.018,0.213,0.136l0.008,0.014l2,2.7l3.387,0.137h0.014c0.15,0,0.188,0.033,0.213,0.233v0.008l0.559,3.317
		l2.914,1.665l0.016,0.008c0.086,0.043,0.129,0.122,0.063,0.354l0,0l-1.025,3.148l1.807,2.854l0.021,0.025
		c0.02,0.072,0.008,0.148-0.031,0.213l-0.023,0.018l-0.021,0.021l-2.408,2.34l0.277,3.391v0.02
		c-0.006,0.133-0.096,0.245-0.223,0.279l-3.213,0.891l-1.301,3.072c-0.09,0.182-0.146,0.23-0.293,0.188l-0.02-0.006l-3.328-0.692
		l-2.64,2.155l-0.022,0.023c0.018-0.019-0.02,0.008-0.072,0.008c-0.081-0.004-0.158-0.033-0.223-0.082l-2.58-2.1l-3.281,0.684
		c-0.142,0.008-0.278-0.058-0.36-0.174l-1.285-3.068l-3.213-0.891c-0.127-0.033-0.217-0.146-0.222-0.277v-0.021l0.277-3.392
		l-2.4-2.338c-0.143-0.143-0.153-0.207-0.05-0.364v-0.011l1.8-2.836l-1.1-3.169l0,0c0-0.148,0.063-0.289,0.174-0.387l2.958-1.605
		l0.556-3.323v-0.006c0.02-0.132,0.134-0.2,0.308-0.234l3.3-0.068l2.011-2.708l0.009-0.014c0.085-0.128,0.184-0.13,0.362-0.073
		l2.972,1.419l3.035-1.448h0.008c0.021-0.015,0.047-0.026,0.072-0.035L144.791,52.487z M138.09,58.587
		c-0.992-0.029-1.877,0.615-2.154,1.568c-0.157,0.661-0.202,1.344-0.13,2.02c-0.038,0.677,0.006,1.355,0.13,2.022
		c0.298,0.935,1.167,1.569,2.147,1.568c0.993,0.032,1.881-0.613,2.157-1.568c0.16-0.662,0.205-1.346,0.134-2.023
		c0.038-0.677-0.006-1.356-0.131-2.022c-0.301-0.937-1.176-1.57-2.16-1.564L138.09,58.587z M145.197,58.587
		c-0.143-0.021-0.279,0.063-0.326,0.2l-7.699,13.962c-0.066,0.066,0,0.2,0.131,0.2h0.912c0.13,0,0.2-0.065,0.261-0.2l7.763-13.966
		c0-0.066,0-0.2-0.131-0.2L145.197,58.587z M138.083,59.959c0.417-0.014,0.792,0.253,0.913,0.653
		c0.091,0.539,0.113,1.087,0.065,1.632c0,1.175-0.065,1.371-0.065,1.567c-0.098,0.416-0.488,0.695-0.913,0.653
		c-0.417,0.014-0.792-0.254-0.913-0.653c-0.089-0.517-0.111-1.044-0.065-1.567c0-1.24,0.065-1.437,0.065-1.632
		C137.268,60.197,137.658,59.918,138.083,59.959z M145.261,65.768c-0.99-0.029-1.875,0.616-2.152,1.567
		c-0.156,0.662-0.199,1.347-0.125,2.023c-0.039,0.678,0.006,1.355,0.129,2.023c0.299,0.934,1.168,1.568,2.148,1.566
		c0.99,0.029,1.877-0.615,2.152-1.566c0.158-0.662,0.201-1.347,0.129-2.023c0.039-0.678-0.004-1.356-0.129-2.023
		C147.115,66.399,146.244,65.766,145.261,65.768z M145.261,67.14c0.418-0.014,0.793,0.256,0.914,0.658
		c0.09,0.539,0.111,1.087,0.064,1.631c-0.002,1.168-0.064,1.369-0.064,1.563c-0.098,0.416-0.488,0.695-0.914,0.652
		c-0.416,0.015-0.791-0.253-0.912-0.652c-0.09-0.518-0.111-1.044-0.066-1.566c0-1.24,0.066-1.438,0.066-1.633
		c0.098-0.416,0.486-0.695,0.912-0.654V67.14z"/>
</g>
<path id="Path_79" fill="#FFFFFF" d="M318.17,11.916l-5.736,3.123l-9.5,5.192l-5.738,3.153l2.48,4.482v-3.499
	c0-0.899,0.73-1.629,1.629-1.629h0.883l0.033-0.137l12.592-6.89l0.951,0.271c0.189,0.732,0.938,1.172,1.67,0.981
	c0.115-0.029,0.227-0.074,0.33-0.133c0.08-0.047,0.135-0.145,0.199-0.2l0.984,0.305l2.172,3.972l-0.271,0.983
	c-0.094,0.013-0.186,0.035-0.273,0.068c-0.303,0.172-0.533,0.45-0.645,0.781h4.176l-2.813-5.124L318.17,11.916z M316.98,19.043
	c-0.768,0.167-1.256,0.927-1.088,1.695c0.139,0.644,0.703,1.107,1.361,1.121c0.783-0.009,1.414-0.643,1.422-1.426
	c-0.01-0.777-0.646-1.399-1.424-1.392C317.162,19.035,317.07,19.035,316.98,19.043z M311.686,19.994
	c-0.828-0.025-1.65,0.174-2.375,0.576c-0.896,0.483-1.611,1.246-2.035,2.173h7.875c-0.064-0.333-0.178-0.653-0.34-0.95
	c-0.645-1.115-1.836-1.802-3.123-1.799H311.686z M301.301,24.372V38.49h23.895V24.372H301.301z M306.086,26.102h14.322l0.713,0.713
	c-0.031,0.089-0.053,0.179-0.066,0.272c0.004,0.783,0.637,1.418,1.422,1.425c0.092-0.014,0.184-0.036,0.271-0.068l0.713,0.714v4.547
	l-0.713,0.713c-0.088-0.032-0.18-0.055-0.271-0.068c-0.785,0.005-1.42,0.641-1.426,1.425c0.014,0.093,0.037,0.185,0.068,0.272
	l-0.713,0.713h-14.318l-0.711-0.713c0.031-0.088,0.053-0.18,0.066-0.272c-0.004-0.784-0.639-1.42-1.424-1.425
	c-0.094,0.014-0.184,0.036-0.273,0.068l-0.713-0.713v-4.549l0.713-0.713c0.09,0.031,0.18,0.055,0.273,0.068
	c0.785-0.006,1.418-0.643,1.422-1.428c-0.014-0.092-0.035-0.184-0.066-0.271L306.086,26.102z M313.246,27.731
	c-2.195-0.144-4.1,1.505-4.27,3.699c0.17,2.196,2.076,3.847,4.275,3.7c2.199,0.146,4.105-1.504,4.275-3.7
	c-0.17-2.198-2.08-3.849-4.279-3.699H313.246z M306.189,30.005c-0.787,0-1.426,0.638-1.426,1.425c0,0.786,0.639,1.425,1.426,1.425
	s1.424-0.639,1.424-1.425l0,0C307.605,30.646,306.973,30.013,306.189,30.005z M320.309,30.005c-0.787,0-1.426,0.638-1.426,1.425
	c0,0.786,0.639,1.425,1.426,1.425s1.424-0.639,1.424-1.425l0,0c-0.004-0.786-0.641-1.421-1.426-1.425H320.309z"/>
<path id="Path_85" fill="#FFFFFF" d="M455.531,12.735c-6.885,0-12.467,5.582-12.467,12.468s5.582,12.468,12.467,12.468
	c6.887,0,12.469-5.582,12.469-12.468l0,0C467.998,18.317,462.418,12.736,455.531,12.735z M452.309,15.199l-0.518,0.943l3.74,1.611
	l3.746-1.612l-0.518-0.943c2.129,0.692,3.98,2.046,5.287,3.863l-1.064-0.214l-0.365,4.045l2.676,3.07l0.76-0.82v0.061
	c0.002,2.247-0.723,4.434-2.066,6.234l-0.123-1.096l-3.953,0.883l-2.068,3.5l0.975,0.455c-1.061,0.355-2.168,0.54-3.285,0.548
	c-1.117-0.008-2.225-0.192-3.283-0.548l0.973-0.455l-2.068-3.5l-3.953-0.883l-0.123,1.096c-1.344-1.801-2.068-3.987-2.068-6.234
	v-0.061l0.762,0.82l2.678-3.07l-0.365-4.045l-1.064,0.214C448.326,17.243,450.18,15.89,452.309,15.199z M455.531,21.038
	l-4.379,3.192l1.674,5.139h5.412l1.674-5.139L455.531,21.038z"/>
<path id="Path_168" fill="#FFFFFF" d="M239.095,55.354l-2.645-2.644L225.97,63.19l-10.481-10.481l-2.644,2.644l10.481,10.481
	l-10.481,10.48l2.644,2.645l10.481-10.48l10.48,10.48l2.645-2.645l-10.48-10.48L239.095,55.354z"/>
<path id="Path_164" fill="#FFFFFF" d="M272.199,68.749h-1.073l-0.38-0.366c3.181-3.707,2.755-9.29-0.951-12.471
	c-3.707-3.181-9.29-2.755-12.471,0.951c-3.181,3.707-2.755,9.29,0.951,12.471c3.313,2.845,8.207,2.845,11.52,0l0.367,0.381v1.072
	l6.791,6.779l2.024-2.023L272.199,68.749z M264.048,68.749c-3.376,0-6.113-2.736-6.113-6.112s2.737-6.113,6.113-6.113
	s6.112,2.737,6.112,6.113c0.005,3.372-2.725,6.108-6.096,6.112C264.059,68.749,264.053,68.749,264.048,68.749z"/>
<path id="Path_91" fill="#FFFFFF" d="M307.736,50.242c-6.031,0-11.041,4.354-11.041,9.824c0.029,2.602,1.149,5.072,3.087,6.81
	c-0.305,0.795-0.827,1.488-1.507,2c-0.354,0.288-0.7,0.536-0.981,0.781c-0.146,0.114-0.274,0.249-0.381,0.399
	c-0.149,0.218-0.202,0.488-0.145,0.746l0.073,0.217l0.2,0.128c0.655,0.313,1.387,0.427,2.106,0.327
	c0.818-0.073,1.626-0.226,2.415-0.455c0.981-0.276,1.945-0.61,2.887-1c1.875,3.938,5.9,6.396,10.26,6.266
	c0.773-0.016,1.544-0.088,2.307-0.218c0.793,0.352,4.261,1.834,6.664,1.834c0.572,0.024,1.142-0.101,1.652-0.363l0.217-0.127
	l0.055-0.218c0.17-0.622-0.356-1.059-1.035-1.6c-0.846-0.572-1.528-1.354-1.979-2.271c1.949-1.753,3.076-4.243,3.105-6.865
	c0-4.181-3.051-7.958-7.445-9.3C316.863,53.132,312.65,50.242,307.736,50.242z M307.736,51.404c4.081-0.144,7.819,2.269,9.37,6.047
	c0,0.014,0.014,0.023,0.019,0.036c0.004,0.013,0.01,0.036,0.018,0.054c0.078,0.229,0.143,0.454,0.199,0.69
	c0.041,0.163,0.062,0.322,0.092,0.49c0.007,0.043,0.011,0.084,0.018,0.127c0.025,0.154,0.057,0.316,0.073,0.472
	c0,0.023,0,0.05,0,0.073c0.019,0.22,0.036,0.447,0.036,0.672c-0.001,0.291-0.02,0.583-0.055,0.872
	c-0.031,0.293-0.08,0.584-0.145,0.872c-0.134,0.559-0.328,1.101-0.581,1.616c-0.251,0.521-0.555,1.014-0.908,1.471
	c-0.177,0.229-0.379,0.459-0.581,0.672c-0.201,0.213-0.41,0.422-0.636,0.617s-0.448,0.388-0.69,0.563
	c-1.28,0.914-2.75,1.529-4.299,1.801c-0.653,0.119-1.315,0.18-1.979,0.182c-0.393,0-0.783-0.021-1.162-0.055
	c-0.018,0-0.036,0-0.054,0c-0.05,0-0.1-0.014-0.145-0.018c-0.134-0.016-0.272-0.034-0.4-0.055c-0.173-0.026-0.331-0.053-0.49-0.09
	l-0.182-0.055l-0.182,0.073c-1.241,0.54-2.514,1.001-3.813,1.38c-0.719,0.207-1.455,0.348-2.2,0.418
	c-0.215-0.004-0.428-0.034-0.636-0.091c0.186-0.146,0.343-0.261,0.581-0.454c0.988-0.711,1.705-1.736,2.032-2.909l0.073-0.345
	l-0.254-0.236c-1.872-1.531-2.97-3.811-3-6.229C297.857,55.308,302.261,51.404,307.736,51.404z"/>
</svg>
