<svg xmlns="http://www.w3.org/2000/svg" xmlns:xlink="http://www.w3.org/1999/xlink" width="180" height="28.532" viewBox="0 0 180 28.532">
  <defs>
    <clipPath id="clip-path">
      <rect id="Rectangle_2292" data-name="Rectangle 2292" width="180" height="28.532" transform="translate(0 0)" fill="none" stroke="rgba(0,0,0,0)" stroke-width="1"/>
    </clipPath>
  </defs>
  <g id="NBC-Sports" transform="translate(0 0)">
    <g id="Group_959" data-name="Group 959" clip-path="url(#clip-path)">
      <path id="Path_1744" data-name="Path 1744" d="M17.97,2.777a5.058,5.058,0,0,1,2.2-2.013,4.685,4.685,0,0,1,4.816.7,4.576,4.576,0,0,1,1.532,4.264,8.008,8.008,0,0,0,.909-.351,4.616,4.616,0,0,1,5.044,1.661,4.557,4.557,0,0,1,.6,4.3,4.873,4.873,0,0,1-1.321,1.862l.065.054a4.643,4.643,0,0,1,3.978,3.1,4.529,4.529,0,0,1-1.153,4.665,4.869,4.869,0,0,1-3.707,1.3H5.014A4.7,4.7,0,0,1,.355,19.521,4.528,4.528,0,0,1,1.3,14.586a4.865,4.865,0,0,1,2.944-1.38,4.665,4.665,0,0,1-1.5-4.454A4.583,4.583,0,0,1,5.517,5.505a4.739,4.739,0,0,1,3.892.248l.043-.043a4.5,4.5,0,0,1,2.062-4.627,4.628,4.628,0,0,1,4.973.081A4.96,4.96,0,0,1,17.97,2.788" fill="#fff" stroke="rgba(0,0,0,0)" stroke-width="1"/>
      <path id="Path_1745" data-name="Path 1745" d="M25.3,3.481a4.064,4.064,0,0,1-.352,3.6l-4.5,10.12-.038.043L18.793,6.961c-.13-.985.93-1.4,1.547-1.878a.416.416,0,0,0-.314-.184l-1.5-.027-.043-.049a3.482,3.482,0,0,1,1.856-3.068,3.615,3.615,0,0,1,3.972.411,3.821,3.821,0,0,1,1,1.326" fill="#645faa" stroke="rgba(0,0,0,0)" stroke-width="1"/>
      <path id="Path_1746" data-name="Path 1746" d="M17.023,3.123a3.671,3.671,0,0,1,.45,2.289L15.638,17.183m0,.038-.482-.947-4.6-10.282a3.562,3.562,0,0,1,4.752-4.368A3.786,3.786,0,0,1,17.023,3.1" fill="#c9234a" stroke="rgba(0,0,0,0)" stroke-width="1"/>
      <path id="Path_1747" data-name="Path 1747" d="M31.933,8.07a3.626,3.626,0,0,1-.211,3.626A5.974,5.974,0,0,1,30,13.179l-9.5,6.532.065-.309L25.617,8.038a3.643,3.643,0,0,1,3.724-1.824A3.7,3.7,0,0,1,31.933,8.07" fill="#0089cf" stroke="rgba(0,0,0,0)" stroke-width="1"/>
      <path id="Path_1748" data-name="Path 1748" d="M10.329,8.016l5.249,11.7h-.086L4.9,12.421A3.5,3.5,0,0,1,3.754,8.779a3.586,3.586,0,0,1,6.6-.752" fill="#f37021" stroke="rgba(0,0,0,0)" stroke-width="1"/>
      <path id="Path_1749" data-name="Path 1749" d="M34.715,16.334a3.624,3.624,0,0,1-.439,3.588,3.545,3.545,0,0,1-2.922,1.369H20.065l9.454-6.57a3.636,3.636,0,0,1,4.992,1.236,3.979,3.979,0,0,1,.2.388" fill="#0db14b" stroke="rgba(0,0,0,0)" stroke-width="1"/>
      <path id="Path_1750" data-name="Path 1750" d="M1.291,16.334a3.6,3.6,0,0,0,.433,3.588,3.557,3.557,0,0,0,2.928,1.369H15.946L6.5,14.721a3.625,3.625,0,0,0-4.978,1.23,3.429,3.429,0,0,0-.206.394" fill="#fdb913" stroke="rgba(0,0,0,0)" stroke-width="1"/>
      <path id="Path_1751" data-name="Path 1751" d="M71.255,21.258H60.366V1.083H71c4.676,0,7.576,2.051,7.576,5.217v.06a4.629,4.629,0,0,1-3,4.329c2.646.893,4.275,2.251,4.275,4.957v.06c0,3.685-3.4,5.525-8.567,5.525m2.273-14.2c0-1.32-1.18-2.073-3.306-2.073H65.269V9.228h4.644c2.224,0,3.631-.633,3.631-2.127V7.036ZM74.821,15.1c0-1.353-1.142-2.165-3.723-2.165H65.269v4.438h5.986c2.229,0,3.566-.687,3.566-2.165V15.1Z" stroke="rgba(0,0,0,0)" stroke-width="1"/>
      <path id="Path_1752" data-name="Path 1752" d="M91.695,21.6c-6.738,0-11.749-4.573-11.749-10.369v-.054C79.946,5.445,84.86.743,91.884.743a12.71,12.71,0,0,1,9.044,3.117L97.713,7.107a9.005,9.005,0,0,0-5.85-2.284,6.361,6.361,0,0,0-6.646,6.289v.054a6.364,6.364,0,0,0,6.646,6.342,8.737,8.737,0,0,0,6.012-2.376l3.2,2.858a12.414,12.414,0,0,1-9.384,3.6" stroke="rgba(0,0,0,0)" stroke-width="1"/>
      <path id="Path_1753" data-name="Path 1753" d="M43.563,15.814V8.438l11.089,12.82h4.281V1.089H53.964V13.514L43.233,1.089H38.59V21.258h4.973V15.814Z" stroke="rgba(0,0,0,0)" stroke-width="1"/>
      <path id="Path_1754" data-name="Path 1754" d="M133.977,10.148A2.4,2.4,0,0,0,131.769,10a22.824,22.824,0,0,0-7.343,4.66c.979-1.126,2.089-2.338,3.355-3.642,0,0,.9-.466.211-1.148s-1.515-1.326-1.515-1.326a.542.542,0,0,0-.493-.167.437.437,0,0,0,0,.476,3.356,3.356,0,0,1-.411.579l-.07.081a12.369,12.369,0,0,1-2.706,1.57c-1.434.541-3.247,1.147-5.244,1.85a2.348,2.348,0,0,0-.406-.324c-2.365-1.472-9.417-1.624-12.128-1.8-2.922-.221-3.583-.4-3.691-.892-.146-.634.779-1.527,2.1-2.484,5.119-3.74,12.187-4.492,14.476-4.46,2.506.038,3.21.336,3.248.541a.394.394,0,0,1-.076.32,6.963,6.963,0,0,1-1.559,1.147,38.663,38.663,0,0,1-4.784,2.549c-.541.509.509.639.509.639a12.881,12.881,0,0,0,4.172-.9c2.706-1.039,3.383-1.976,3.453-2.538a4.83,4.83,0,0,0-.222-1.884C121.947-.123,117.233,0,117.233,0a27.059,27.059,0,0,0-15.488,5.114C98.99,7.134,99.4,8.584,99.4,8.584s-.043,2.8,2.089,3.48a12.179,12.179,0,0,0,2.885.574c2.7.265,4.74.3,7.576.5a20.438,20.438,0,0,1,3.593.5,70.1,70.1,0,0,0-6.759,2.846c-1.807.9-4.519,2.425-5.482,3.637-1.164,1.461-.076,2.614-.216,2.365.173.319.9,1.624,3.993,1.229a14.361,14.361,0,0,0,4.638-1.656,19.891,19.891,0,0,0,4.276-3.139c1.759-1.689,2.251-3,2.256-4.135a2.9,2.9,0,0,0-.2-1.082c2.116-.731,3.967-1.288,5.195-1.624-3.441,4.146-9.259,12.069-6.683,15.694a4.009,4.009,0,0,0,.4.542s.45.373.628.14-.346-.476-.346-.476a1.193,1.193,0,0,1-.173-.952,10.334,10.334,0,0,1,.617-2.344l.714-1.623a27.215,27.215,0,0,1,4.216-5.45c4.567-4.47,8.594-6.326,9.438-6.591.6-.2.866-.141.963-.049.574.541-.866,2.841-.866,2.841l-.07.108c-2.6,3.789-4.124,4.871-5.482,5.369a1.941,1.941,0,0,1-1.689-.152,1.361,1.361,0,0,1-.481-.952c.054-.4-.125-.39-.125-.39-.644.222-.292,1.364-.292,1.364.487,2.165,3.485,2.706,6.332.584,3.788-2.819,4.519-5.076,5.054-6.45s-.487-2.43-1.407-3.145m-17.469,4.833c-.947,1.624-4.151,3.615-5.222,4.221a23.74,23.74,0,0,1-3.648,1.743c-1.862.671-3.518.985-3.664.541-.065-.189-.184-.276.412-.909a23.818,23.818,0,0,1,4.87-3.172,66.417,66.417,0,0,1,7.317-3.155.73.73,0,0,1-.06.742" fill="#fdb913" stroke="rgba(0,0,0,0)" stroke-width="1"/>
      <path id="Path_1755" data-name="Path 1755" d="M177.023,15.1a40.42,40.42,0,0,1-6.462,5.092,5.406,5.406,0,0,0,.9-2.116c.184-.73.5-2.7.828-4.172a9.3,9.3,0,0,1,.541-1.624c.314-.7.758-.644.855-.855a.433.433,0,0,0-.146-.5,4.935,4.935,0,0,0-.541-.541,2.454,2.454,0,0,0-.866-.541.6.6,0,0,0-.5.1,2.8,2.8,0,0,0-.671.817c-1.57,1.683-6.727,7.192-9.871,9.059.167-.1-2.555,1.737-1.976-.66.266-1.083,1.359-3.523,4.427-7.366l1.591-1.78c1.315-.184,2.674-.395,4.037-.617,0,0,11.988-1.483,8.746,1.082,0,0,.2.4.7,0,1.04-.828,1.435-1.547,1.375-1.926-.206-1.24-2.089-1.526-5.412-1.267-1.742.141-5.038.606-7.988,1.083L169.5,5.126a.51.51,0,0,0,.218-.686.515.515,0,0,0-.218-.218,8.571,8.571,0,0,0-1.353-.839s-.287-.276-.8.189a64.253,64.253,0,0,0-4.779,5.412c-2.916.384-6.266.628-7.132.731a.589.589,0,0,1-.59-.206s-.379-.265-.292.363a1.4,1.4,0,0,0,1.7,1.374c.92-.178,2.777-.422,5.109-.73-.4.508-1,1.277-1.623,2.165-2.9,3.165-7.821,8.253-8.919,7.576a.725.725,0,0,1-.076-.763,16.21,16.21,0,0,1,3.058-4.47s.866-1.028.828-1.483c-.054-.693-.439-.676-.439-.676a12.474,12.474,0,0,1-3.328-1.483c.352-.541.985-1.754.173-2.317,0,0-1.055-.665-1.818.91a1.625,1.625,0,0,0,.124,1.8,9.683,9.683,0,0,1-3.717,2.6,1.317,1.317,0,0,0-.677-1.083s-.86-.438-1.337.109-.054,1.082.423,1.45a10.562,10.562,0,0,1-1.083,1.856,10.136,10.136,0,0,1-2.884,3.025c-.433.293-2.165,1.3-2.641-.081-.249-.763.167-2.235,1.25-3.907,2.219-3.453,5.32-4.589,6.164-4.053a.736.736,0,0,1,.168.822s-.092.238.227.271a.541.541,0,0,0,.541-.541c.13-.731-.541-1.564-1.288-2.165a4.694,4.694,0,0,0-.79-.455,4.3,4.3,0,0,0-3.123.433,11.411,11.411,0,0,0-4.638,4.644,6.062,6.062,0,0,0-.876,3.008,3.789,3.789,0,0,0,.481,1.922,5.232,5.232,0,0,0,1.83,1.672c1.932,1,4.205-.888,5.087-1.694a12.517,12.517,0,0,0,3.025-4.14c2.046-.541,4.064-2.571,4.724-3.29a4.335,4.335,0,0,0,.379.238l1.223.649a17.658,17.658,0,0,0-1.477,1.905c-.785,1.115-2.733,3.718-1.472,5.412A2.626,2.626,0,0,0,150,21.35c1.666.66,3.544-.974,6.461-4.037q.687-.73,1.332-1.445a11.658,11.658,0,0,0-.488,1.082,3.4,3.4,0,0,0,1.137,4.33c.85.541,1.948.3,3.2-.541,2.484-1.624,6.148-5.32,8.464-7.777-.081.341-.162.7-.232,1.12-.542,3.074-2.419,7.036-3.155,6.018a2.028,2.028,0,0,0-.428-1.017.8.8,0,0,0-1.082-.114c-.541.341-.271,1.624,1.358,2.468a3.161,3.161,0,0,0,1.007.325,6.233,6.233,0,0,0,4.789-1.413c1.624-1.212,3.247-2.706,4.432-3.788a5.953,5.953,0,0,1,.244-1.5" fill="#fdb913" stroke="rgba(0,0,0,0)" stroke-width="1"/>
    </g>
  </g>
</svg>
