<svg xmlns="http://www.w3.org/2000/svg" xmlns:xlink="http://www.w3.org/1999/xlink" width="110" height="17.436" viewBox="0 0 110 17.436">
  <defs>
    <clipPath id="clip-path">
      <rect id="Rectangle_2292" data-name="Rectangle 2292" width="110" height="17.436" fill="none" stroke="rgba(0,0,0,0)" stroke-width="1"/>
    </clipPath>
  </defs>
  <g id="NBC-Sports" transform="translate(0 0)">
    <g id="Group_959" data-name="Group 959" transform="translate(0 0)" clip-path="url(#clip-path)">
      <path id="Path_1744" data-name="Path 1744" d="M10.982,1.849A3.091,3.091,0,0,1,12.328.619a2.863,2.863,0,0,1,2.943.427,2.8,2.8,0,0,1,.936,2.606,4.894,4.894,0,0,0,.556-.214,2.821,2.821,0,0,1,3.082,1.015,2.785,2.785,0,0,1,.364,2.626A2.978,2.978,0,0,1,19.4,8.215l.04.033a2.838,2.838,0,0,1,2.431,1.891,2.767,2.767,0,0,1-.7,2.851,2.976,2.976,0,0,1-2.265.794H3.064a2.869,2.869,0,0,1-2.847-1.7A2.767,2.767,0,0,1,.8,9.065a2.973,2.973,0,0,1,1.8-.843A2.851,2.851,0,0,1,1.675,5.5a2.8,2.8,0,0,1,1.7-1.984,2.9,2.9,0,0,1,2.378.152l.026-.026A2.752,2.752,0,0,1,7.036.814a2.828,2.828,0,0,1,3.039.05,3.031,3.031,0,0,1,.906.992" transform="translate(0 -0.152)" fill="#fff" stroke="rgba(0,0,0,0)" stroke-width="1"/>
      <path id="Path_1745" data-name="Path 1745" d="M22.649,2.65a2.484,2.484,0,0,1-.215,2.2l-2.748,6.184-.023.026-.992-6.283c-.079-.6.568-.857.945-1.148a.254.254,0,0,0-.192-.112L18.505,3.5l-.026-.03a2.128,2.128,0,0,1,1.134-1.875,2.209,2.209,0,0,1,2.427.251,2.335,2.335,0,0,1,.609.81" transform="translate(-7.186 -0.523)" fill="#645faa" stroke="rgba(0,0,0,0)" stroke-width="1"/>
      <path id="Path_1746" data-name="Path 1746" d="M14.443,2.436a2.243,2.243,0,0,1,.275,1.4L13.6,11.028m0,.023-.295-.579L10.491,4.189A2.177,2.177,0,0,1,13.4,1.52a2.314,2.314,0,0,1,1.048.9" transform="translate(-4.04 -0.527)" fill="#c9234a" stroke="rgba(0,0,0,0)" stroke-width="1"/>
      <path id="Path_1747" data-name="Path 1747" d="M27.488,7.332a2.216,2.216,0,0,1-.129,2.216,3.651,3.651,0,0,1-1.052.906l-5.8,3.992.04-.189,3.086-6.945A2.226,2.226,0,0,1,25.9,6.2a2.264,2.264,0,0,1,1.584,1.134" transform="translate(-7.973 -2.401)" fill="#0089cf" stroke="rgba(0,0,0,0)" stroke-width="1"/>
      <path id="Path_1748" data-name="Path 1748" d="M7.722,7.3l3.208,7.15h-.053L4.4,9.992a2.136,2.136,0,0,1-.7-2.226,2.191,2.191,0,0,1,4.032-.46" transform="translate(-1.41 -2.402)" fill="#f37021" stroke="rgba(0,0,0,0)" stroke-width="1"/>
      <path id="Path_1749" data-name="Path 1749" d="M29.018,15.5A2.215,2.215,0,0,1,28.75,17.7a2.167,2.167,0,0,1-1.786.837h-6.9l5.777-4.015a2.222,2.222,0,0,1,3.051.755,2.431,2.431,0,0,1,.125.237" transform="translate(-7.803 -5.522)" fill="#0db14b" stroke="rgba(0,0,0,0)" stroke-width="1"/>
      <path id="Path_1750" data-name="Path 1750" d="M1.178,15.5A2.2,2.2,0,0,0,1.442,17.7a2.174,2.174,0,0,0,1.789.837h6.9L4.359,14.518a2.215,2.215,0,0,0-3.042.752,2.1,2.1,0,0,0-.126.241" transform="translate(-0.389 -5.522)" fill="#fdb913" stroke="rgba(0,0,0,0)" stroke-width="1"/>
      <path id="Path_1751" data-name="Path 1751" d="M67.02,13.412H60.366V1.083h6.5c2.858,0,4.63,1.253,4.63,3.188v.037a2.829,2.829,0,0,1-1.835,2.646c1.617.546,2.612,1.376,2.612,3.029v.037c0,2.252-2.077,3.376-5.235,3.376m1.389-8.675c0-.807-.721-1.267-2.02-1.267h-3.04V6.061H66.2c1.359,0,2.219-.387,2.219-1.3v-.04ZM69.2,9.652c0-.827-.7-1.323-2.275-1.323H63.362v2.712H67.02c1.362,0,2.179-.42,2.179-1.323V9.652Z" transform="translate(-23.476 -0.421)" stroke="rgba(0,0,0,0)" stroke-width="1"/>
      <path id="Path_1752" data-name="Path 1752" d="M87.126,13.492c-4.118,0-7.18-2.795-7.18-6.337V7.122c0-3.506,3-6.379,7.3-6.379a7.767,7.767,0,0,1,5.527,1.9L90.8,4.632a5.5,5.5,0,0,0-3.575-1.4A3.887,3.887,0,0,0,83.167,7.08v.033a3.889,3.889,0,0,0,4.061,3.876A5.339,5.339,0,0,0,90.9,9.536l1.958,1.747a7.586,7.586,0,0,1-5.735,2.2" transform="translate(-31.09 -0.289)" stroke="rgba(0,0,0,0)" stroke-width="1"/>
      <path id="Path_1753" data-name="Path 1753" d="M41.629,10.088V5.58l6.777,7.834h2.616V1.089H47.985V8.682L41.427,1.089H38.59V13.415h3.039V10.088Z" transform="translate(-15.007 -0.424)" stroke="rgba(0,0,0,0)" stroke-width="1"/>
      <path id="Path_1754" data-name="Path 1754" d="M120.521,6.2a1.469,1.469,0,0,0-1.349-.089,13.948,13.948,0,0,0-4.487,2.848c.6-.688,1.277-1.429,2.05-2.226,0,0,.552-.285.129-.7s-.926-.81-.926-.81a.331.331,0,0,0-.3-.1.267.267,0,0,0,0,.291,2.052,2.052,0,0,1-.251.354l-.043.05a7.559,7.559,0,0,1-1.654.959c-.876.331-1.984.7-3.2,1.131a1.435,1.435,0,0,0-.248-.2c-1.445-.9-5.755-.992-7.412-1.1-1.786-.135-2.19-.248-2.256-.545-.089-.387.476-.933,1.283-1.518A16.6,16.6,0,0,1,110.7,1.816c1.531.023,1.962.205,1.985.331a.241.241,0,0,1-.046.2,4.255,4.255,0,0,1-.953.7A23.628,23.628,0,0,1,108.76,4.6c-.331.311.311.391.311.391a7.872,7.872,0,0,0,2.55-.552c1.654-.635,2.067-1.208,2.11-1.551a2.952,2.952,0,0,0-.136-1.151C113.169-.075,110.288,0,110.288,0a16.536,16.536,0,0,0-9.465,3.125c-1.684,1.234-1.436,2.12-1.436,2.12s-.026,1.714,1.277,2.127a7.443,7.443,0,0,0,1.763.351c1.653.162,2.9.185,4.63.3a12.49,12.49,0,0,1,2.2.307,42.837,42.837,0,0,0-4.131,1.739,12.228,12.228,0,0,0-3.35,2.223c-.711.893-.046,1.6-.132,1.445.106.195.549.992,2.44.751a8.776,8.776,0,0,0,2.834-1.012,12.156,12.156,0,0,0,2.613-1.918,3.545,3.545,0,0,0,1.379-2.527,1.772,1.772,0,0,0-.122-.661c1.293-.447,2.424-.787,3.175-.992-2.1,2.534-5.658,7.376-4.084,9.591a2.45,2.45,0,0,0,.244.331s.275.228.384.086-.211-.291-.211-.291a.729.729,0,0,1-.106-.582,6.315,6.315,0,0,1,.377-1.432l.436-.992a16.631,16.631,0,0,1,2.576-3.331,18.112,18.112,0,0,1,5.768-4.028c.367-.119.529-.086.589-.03.351.331-.529,1.736-.529,1.736l-.043.066c-1.591,2.315-2.52,2.977-3.35,3.281a1.186,1.186,0,0,1-1.032-.093.832.832,0,0,1-.294-.582c.033-.245-.076-.238-.076-.238-.394.136-.178.834-.178.834.3,1.323,2.13,1.654,3.87.357a7.74,7.74,0,0,0,3.089-3.942c.328-.84-.3-1.485-.86-1.922M109.852,9.155a10.622,10.622,0,0,1-3.191,2.579,14.509,14.509,0,0,1-2.229,1.065c-1.138.41-2.15.6-2.239.331-.04-.115-.112-.169.252-.555a14.555,14.555,0,0,1,2.976-1.938,40.587,40.587,0,0,1,4.471-1.928.446.446,0,0,1-.037.453" transform="translate(-38.646 0)" fill="#fdb913" stroke="rgba(0,0,0,0)" stroke-width="1"/>
      <path id="Path_1755" data-name="Path 1755" d="M160.708,10.515a24.7,24.7,0,0,1-3.949,3.112,3.3,3.3,0,0,0,.549-1.293c.112-.446.3-1.653.506-2.55a5.681,5.681,0,0,1,.331-.992c.192-.43.463-.394.523-.522a.265.265,0,0,0-.089-.307,3.015,3.015,0,0,0-.331-.331,1.5,1.5,0,0,0-.529-.331.366.366,0,0,0-.3.063,1.712,1.712,0,0,0-.41.5c-.959,1.029-4.111,4.4-6.032,5.536.1-.063-1.561,1.062-1.208-.4a13.8,13.8,0,0,1,2.705-4.5l.972-1.088c.8-.112,1.634-.241,2.467-.377,0,0,7.326-.906,5.345.661,0,0,.122.245.43,0,.636-.506.877-.945.84-1.177-.126-.758-1.277-.933-3.307-.774-1.065.086-3.079.37-4.882.662l1.776-1.984A.311.311,0,0,0,156.245,4a.315.315,0,0,0-.133-.133,5.238,5.238,0,0,0-.827-.513s-.175-.169-.486.116a39.266,39.266,0,0,0-2.921,3.307c-1.782.235-3.829.384-4.358.447a.36.36,0,0,1-.361-.126s-.232-.162-.178.222a.855.855,0,0,0,1.041.84c.562-.109,1.7-.258,3.122-.446-.244.31-.609.78-.992,1.323-1.773,1.934-4.779,5.043-5.45,4.63a.443.443,0,0,1-.046-.466,9.906,9.906,0,0,1,1.869-2.732s.529-.628.506-.906c-.033-.424-.268-.413-.268-.413a7.623,7.623,0,0,1-2.034-.906c.215-.331.6-1.072.106-1.416,0,0-.645-.406-1.111.556a.993.993,0,0,0,.076,1.1,5.917,5.917,0,0,1-2.271,1.591.805.805,0,0,0-.414-.662s-.526-.268-.817.067-.033.661.259.886a6.456,6.456,0,0,1-.662,1.134,6.2,6.2,0,0,1-1.762,1.849c-.265.179-1.323.794-1.614-.05a3.4,3.4,0,0,1,.764-2.388c1.356-2.11,3.251-2.8,3.767-2.477a.45.45,0,0,1,.1.5s-.056.145.139.166a.331.331,0,0,0,.331-.331c.079-.447-.331-.956-.787-1.323a2.869,2.869,0,0,0-.483-.278,2.624,2.624,0,0,0-1.908.265,6.973,6.973,0,0,0-2.834,2.838,3.7,3.7,0,0,0-.535,1.838,2.316,2.316,0,0,0,.294,1.175,3.2,3.2,0,0,0,1.118,1.022c1.181.612,2.57-.543,3.109-1.035a7.649,7.649,0,0,0,1.849-2.53,7.176,7.176,0,0,0,2.887-2.011,2.649,2.649,0,0,0,.232.145l.747.4a10.789,10.789,0,0,0-.9,1.164c-.48.681-1.67,2.272-.9,3.307a1.605,1.605,0,0,0,.688.589c1.018.4,2.166-.6,3.948-2.467q.42-.446.814-.883a7.12,7.12,0,0,0-.3.661,2.075,2.075,0,0,0,.695,2.646c.519.331,1.19.185,1.954-.331a37.07,37.07,0,0,0,5.172-4.753c-.049.208-.1.43-.142.684-.331,1.879-1.478,4.3-1.928,3.678a1.24,1.24,0,0,0-.262-.622.486.486,0,0,0-.661-.07c-.331.208-.166.992.83,1.508a1.932,1.932,0,0,0,.615.2,3.809,3.809,0,0,0,2.927-.863c.992-.741,1.984-1.654,2.708-2.315a3.637,3.637,0,0,1,.149-.916" transform="translate(-52.527 -1.284)" fill="#fdb913" stroke="rgba(0,0,0,0)" stroke-width="1"/>
    </g>
  </g>
</svg>
