<svg id="Group_898" data-name="Group 898" xmlns="http://www.w3.org/2000/svg" xmlns:xlink="http://www.w3.org/1999/xlink" width="100" height="13.965" viewBox="0 0 100 13.965">
  <defs>
    <clipPath id="clip-path">
      <rect id="Rectangle_2281" data-name="Rectangle 2281" width="100" height="13.965" fill="none" stroke="rgba(0,0,0,0)" stroke-width="1"/>
    </clipPath>
  </defs>
  <g id="Group_897" data-name="Group 897" transform="translate(0 0)" clip-path="url(#clip-path)">
    <path id="Path_1711" data-name="Path 1711" d="M93.452,10.172v.585h.771v2.854H89.278V10.774h.652V2.658h-.613V.018h4.135V7.975L95.51,6.539h-.93V3.721h5.4V6.539H98.853l-1.147.886,1.484,3.349H100v2.836H94.559V10.757h.851L94.8,9.269Zm-7.486-.461h3.244c-.831,2.8-1.9,4.253-5.4,4.253a5.713,5.713,0,0,1-3.937-1.418,5.237,5.237,0,0,1-1.484-3.881,5.372,5.372,0,0,1,1.484-3.722,5.621,5.621,0,0,1,3.937-1.4c1.82,0,3.422.443,4.135,1.223a6.151,6.151,0,0,1,1.305,3.9V9.2H82.662A5.34,5.34,0,0,0,83,10.774c.1.408.811.709,1.484.709a1.815,1.815,0,0,0,.989-.354c.2-.141.752-.833.495-1.417M82.741,7.6h2.473V7.425a1.946,1.946,0,0,0-.336-1.063,1.2,1.2,0,0,0-.831-.354,1.21,1.21,0,0,0-.969.354,2.418,2.418,0,0,0-.337,1.063Zm-4.6,2.109c-.87,2.8-1.938,4.253-5.46,4.253a5.765,5.765,0,0,1-3.956-1.418,5.237,5.237,0,0,1-1.484-3.881,5.352,5.352,0,0,1,1.484-3.722,5.661,5.661,0,0,1,3.956-1.4c1.82,0,3.363.408,4.114,1.223a5.865,5.865,0,0,1,1.326,3.9V9.2H71.534a5,5,0,0,0,.337,1.577c.139.426.811.709,1.464.709a2.039,2.039,0,0,0,.989-.354c.158-.106.751-.9.534-1.435ZM71.613,7.6h2.453V7.425a1.87,1.87,0,0,0-.317-1.063,1.243,1.243,0,0,0-.83-.354,1.173,1.173,0,0,0-.99.354,2.338,2.338,0,0,0-.316,1.063Zm-17.8,6.008L50.841,6.539h-.673V3.721h5.915V6.539h-.633l.811,3.013,1.028-3.013h-.771V3.721h6.508V6.539l-.653-.017.969,3.031.989-3.013h-.87V3.721h4.174V6.539h-.831l-2.789,7.071h-3.3l-1.8-4.944-1.82,4.944ZM40.555,6.539H40.1l-2.809,7.071H34.007l-1.82-4.944-1.8,4.944h-3.3L24.115,6.539h-.653V3.721H29.4V6.539h-.672l.831,3.013,1.028-3.013h-.792V3.721h6.667V6.539h-.772l.95,3.013.989-3.013h-.772V3.721H40.91V5.264a3.5,3.5,0,0,1,.614-.851A3.587,3.587,0,0,1,44,3.544a6.872,6.872,0,0,1,1.642.177,3.046,3.046,0,0,1,1.326.691V3.721h2.789V6.894H46.964a2.191,2.191,0,0,0-.831-.886,2.688,2.688,0,0,0-1.147-.355.939.939,0,0,0-.673.178c-.079.088-.317.354-.317.532s.238.266.317.354a9.392,9.392,0,0,0,1.167.354l1.484.531a6.476,6.476,0,0,1,2.295,1.064,3.327,3.327,0,0,1,.83,1.931,3.1,3.1,0,0,1-.989,2.481,3.451,3.451,0,0,1-2.453.745,4.809,4.809,0,0,1-1.661-.213A6.777,6.777,0,0,1,43.5,12.9v.709H40.535v-3.19H43.5a2.146,2.146,0,0,0,.811,1.063,2.562,2.562,0,0,0,1.167.354,1.506,1.506,0,0,0,.653-.177.728.728,0,0,0,.337-.532c0-.354-.594-.549-1.326-.708-.1-.018-.3-.16-.336-.16l-1.642-.354a4.545,4.545,0,0,1-1.978-1.241,2.832,2.832,0,0,1-.653-1.95.539.539,0,0,1,.02-.177M23.8,9.694c-.89,2.8-2.077,4.271-5.559,4.271a5.778,5.778,0,0,1-3.957-1.418,5.178,5.178,0,0,1-1.464-3.881,5.011,5.011,0,0,1,1.464-3.722,5.3,5.3,0,0,1,3.957-1.4c1.82,0,3.244.3,4.115,1.223a5.483,5.483,0,0,1,1.325,3.9V9.2H17.092a3.624,3.624,0,0,0,.337,1.577,1.535,1.535,0,0,0,1.484.709,2.037,2.037,0,0,0,.969-.354c.158-.106.653-1.028.494-1.435ZM17.171,7.6h2.473V7.425a1.445,1.445,0,0,0-.337-1.063,1.013,1.013,0,0,0-.831-.354c-.494,0-.692.018-.989.354a1.646,1.646,0,0,0-.317,1.063ZM3.462,5.122v5.653H4.609v2.836H0V10.774H.831V2.658H0V0H5.44L9.713,7.957v-5.3H8.566V0h4.609V2.658h-.831V13.611H7.913Z" transform="translate(0 0)" fill="#ec1c24" stroke="rgba(0,0,0,0)" stroke-width="1" fill-rule="evenodd"/>
  </g>
</svg>
