<svg id="newsweek" xmlns="http://www.w3.org/2000/svg" xmlns:xlink="http://www.w3.org/1999/xlink" width="160" height="22.344" viewBox="0 0 160 22.344">
  <defs>
    <clipPath id="clip-path">
      <rect id="Rectangle_2281" data-name="Rectangle 2281" width="160" height="22.344" fill="none" stroke="rgba(0,0,0,0)" stroke-width="1"/>
    </clipPath>
  </defs>
  <g id="Group_897" data-name="Group 897" transform="translate(0 0)" clip-path="url(#clip-path)">
    <path id="Path_1711" data-name="Path 1711" d="M149.523,16.276v.935h1.234v4.566h-7.913V17.239h1.044V4.253h-.981V.028h6.615V12.759l3.292-2.3h-1.488V5.954h8.642v4.508h-1.8l-1.835,1.418,2.374,5.358H160v4.538h-8.7V17.211h1.362l-.982-2.382Zm-11.978-.738h5.191c-1.33,4.48-3.039,6.8-8.642,6.8a9.141,9.141,0,0,1-6.3-2.268,8.379,8.379,0,0,1-2.374-6.21A8.6,8.6,0,0,1,127.8,7.91a8.994,8.994,0,0,1,6.3-2.24c2.912,0,5.476.709,6.615,1.957a9.841,9.841,0,0,1,2.089,6.238v.85h-10.54a8.544,8.544,0,0,0,.538,2.523c.158.653,1.3,1.134,2.374,1.134a2.9,2.9,0,0,0,1.583-.567c.316-.226,1.2-1.333.791-2.268m-5.16-3.374h3.957v-.283a3.114,3.114,0,0,0-.538-1.7,1.916,1.916,0,0,0-1.33-.567,1.936,1.936,0,0,0-1.551.567,3.868,3.868,0,0,0-.538,1.7Zm-7.359,3.374c-1.393,4.48-3.1,6.8-8.736,6.8a9.225,9.225,0,0,1-6.33-2.268,8.379,8.379,0,0,1-2.374-6.21A8.564,8.564,0,0,1,109.96,7.91a9.058,9.058,0,0,1,6.33-2.24c2.912,0,5.381.653,6.583,1.957a9.384,9.384,0,0,1,2.121,6.238v.85h-10.54a8,8,0,0,0,.538,2.523c.222.681,1.3,1.134,2.342,1.134a3.263,3.263,0,0,0,1.582-.567c.253-.17,1.2-1.446.854-2.3Zm-10.446-3.374h3.925v-.283a2.992,2.992,0,0,0-.506-1.7,1.989,1.989,0,0,0-1.329-.567,1.877,1.877,0,0,0-1.583.567,3.741,3.741,0,0,0-.506,1.7ZM86.094,21.777,81.346,10.462H80.27V5.954h9.464v4.508H88.722l1.3,4.821,1.646-4.821H90.43V5.954h10.414v4.508L99.8,10.434l1.551,4.849,1.582-4.821h-1.392V5.954h6.678v4.508h-1.33l-4.463,11.314H97.141l-2.88-7.911-2.912,7.911ZM64.887,10.462h-.728L59.665,21.777H54.41L51.5,13.866l-2.881,7.911H43.332L38.584,10.462H37.539V5.954h9.5v4.508H45.959l1.33,4.821,1.646-4.821H47.668V5.954H58.335v4.508H57.1l1.519,4.821L60.2,10.462H58.968V5.954h6.489V8.422a5.607,5.607,0,0,1,.982-1.362,5.739,5.739,0,0,1,3.956-1.39,11,11,0,0,1,2.627.284A4.873,4.873,0,0,1,75.142,7.06V5.954h4.463V11.03H75.142a3.505,3.505,0,0,0-1.33-1.418,4.3,4.3,0,0,0-1.835-.567,1.5,1.5,0,0,0-1.077.284c-.126.142-.506.567-.506.85s.38.426.506.567a15.029,15.029,0,0,0,1.868.567l2.374.85c1.425.51,3.007.964,3.672,1.7a5.323,5.323,0,0,1,1.329,3.09,4.954,4.954,0,0,1-1.582,3.97,5.522,5.522,0,0,1-3.925,1.191,7.7,7.7,0,0,1-2.658-.34A10.843,10.843,0,0,1,69.6,20.642v1.134H64.855v-5.1H69.6a3.434,3.434,0,0,0,1.3,1.7,4.1,4.1,0,0,0,1.868.567,2.41,2.41,0,0,0,1.044-.283,1.164,1.164,0,0,0,.538-.851c0-.567-.95-.878-2.121-1.134-.158-.029-.474-.255-.538-.255l-2.627-.567A7.273,7.273,0,0,1,65.9,13.866a4.531,4.531,0,0,1-1.045-3.119.862.862,0,0,1,.032-.284M38.078,15.51c-1.424,4.48-3.323,6.833-8.894,6.833a9.244,9.244,0,0,1-6.33-2.268,8.285,8.285,0,0,1-2.342-6.21A8.018,8.018,0,0,1,22.853,7.91a8.475,8.475,0,0,1,6.33-2.24c2.912,0,5.191.482,6.584,1.957a8.772,8.772,0,0,1,2.121,6.238v.85H27.347a5.8,5.8,0,0,0,.538,2.523,2.457,2.457,0,0,0,2.374,1.134,3.259,3.259,0,0,0,1.55-.567c.253-.17,1.045-1.644.791-2.3Zm-10.6-3.346h3.957v-.283a2.313,2.313,0,0,0-.538-1.7,1.62,1.62,0,0,0-1.33-.567c-.791,0-1.108.029-1.582.567a2.633,2.633,0,0,0-.506,1.7ZM5.539,8.194v9.045H7.375v4.538H0V17.239H1.33V4.253H0V0H8.7l6.837,12.731V4.253H13.706V0h7.375V4.253h-1.33V21.777h-7.09Z" transform="translate(0 0)" fill="#ec1c24" stroke="rgba(0,0,0,0)" stroke-width="1" fill-rule="evenodd"/>
  </g>
</svg>
