<svg width="25" height="24" viewBox="0 0 25 24" fill="none" xmlns="http://www.w3.org/2000/svg">
<g id="Communication / Phone">
<path id="Vector" d="M10.0029 4.25722C9.69922 3.4979 8.96381 3 8.146 3H5.39474C4.3483 3 3.5 3.84834 3.5 4.89478C3.5 13.7895 10.7108 21 19.6055 21C20.6519 21 21.5 20.1518 21.5 19.1053L21.4999 16.354C21.4999 15.5362 21.0019 14.8009 20.2426 14.4971L17.6071 13.4429C16.9251 13.1701 16.1485 13.293 15.5842 13.7633L14.9031 14.3307C14.1084 14.9929 12.94 14.94 12.2085 14.2085L10.2914 12.2915C9.55993 11.5601 9.50722 10.3915 10.1694 9.59688L10.7368 8.91597C11.2071 8.35163 11.33 7.57493 11.0572 6.89286L10.0029 4.25722Z" stroke="#A4D8FF" stroke-width="2" stroke-linecap="round" stroke-linejoin="round"/>
</g>
</svg>
