<svg width="21" height="21" viewBox="0 0 21 21" fill="none" xmlns="http://www.w3.org/2000/svg">
<path id="Shape" fill-rule="evenodd" clip-rule="evenodd" d="M0.824219 10.5C0.824219 16.0228 5.30141 20.5 10.8242 20.5C16.347 20.5 20.8242 16.0228 20.8242 10.5C20.8242 4.97719 16.347 0.5 10.8242 0.5C5.30141 0.5 0.824219 4.97719 0.824219 10.5ZM8.5325 12.5836C9.10688 12.5836 9.57422 12.1163 9.57422 11.5419C9.57422 10.9675 9.10688 10.5 8.5325 10.5C7.95813 10.5 7.49094 10.9675 7.49094 11.5419C7.49094 12.1163 7.95813 12.5836 8.5325 12.5836ZM8.34949 14.2977C9.06043 15.0077 10.4228 15.0628 10.8232 15.0628C11.224 15.0628 12.5864 15.0077 13.2965 14.2975C13.4018 14.1922 13.4018 14.0213 13.2964 13.9158C13.1911 13.8105 13.0201 13.8103 12.9146 13.9158C12.4665 14.3639 11.5079 14.523 10.8232 14.523C10.1386 14.523 9.17981 14.3639 8.7309 13.9156C8.62527 13.8103 8.45449 13.8105 8.34918 13.916C8.24387 14.0214 8.24387 14.1924 8.34949 14.2977ZM14.1576 11.5417C14.1576 10.9673 13.6901 10.5 13.1156 10.5C12.5415 10.5 12.0744 10.9673 12.0744 11.5417C12.0744 12.1159 12.5415 12.5833 13.1156 12.5833C13.6901 12.5833 14.1576 12.1159 14.1576 11.5417ZM4.15907 10.5035C4.15907 9.69801 4.81188 9.0452 5.61735 9.0452C6.01048 9.0452 6.36657 9.20145 6.62876 9.45442C7.62563 8.73504 8.99907 8.27051 10.5288 8.21707L9.86454 5.0916L7.69407 5.55301C7.66766 6.10473 7.21579 6.5452 6.65735 6.5452C6.08204 6.5452 5.61579 6.07879 5.61579 5.50348C5.61579 4.92817 6.08204 4.46176 6.65735 4.46176C7.06657 4.46176 7.41704 4.69988 7.58751 5.04317L10.0109 4.52801C10.0784 4.51332 10.1491 4.5266 10.2069 4.56442C10.2649 4.60192 10.3055 4.66113 10.3199 4.72863L11.0617 8.21614C12.6139 8.2591 14.0094 8.72442 15.0189 9.45176C15.2809 9.20035 15.6358 9.0452 16.0275 9.0452C16.833 9.0452 17.4858 9.69801 17.4858 10.5035C17.4858 11.0961 17.1317 11.605 16.6242 11.8332C16.6467 11.9782 16.6591 12.1252 16.6591 12.2743C16.6591 14.518 14.0474 16.3368 10.8256 16.3368C7.60407 16.3368 4.99235 14.518 4.99235 12.2743C4.99235 12.1261 5.00438 11.98 5.02657 11.8361C4.51579 11.6093 4.15907 11.0985 4.15907 10.5035Z" fill="#AFB9CB"/>
</svg>
