<svg id="Group_902" data-name="Group 902" xmlns="http://www.w3.org/2000/svg" xmlns:xlink="http://www.w3.org/1999/xlink" width="78.257" height="20" viewBox="0 0 78.257 20">
  <defs>
    <clipPath id="clip-path">
      <rect id="Rectangle_2283" data-name="Rectangle 2283" width="78.257" height="20" fill="none" stroke="rgba(0,0,0,0)" stroke-width="1"/>
    </clipPath>
  </defs>
  <g id="Group_901" data-name="Group 901" clip-path="url(#clip-path)">
    <path id="Path_1723" data-name="Path 1723" d="M38.4,8.1c0,.2-.235.342-.436.342a.382.382,0,0,1-.4-.342V3.937c0-.171.2-.314.4-.314s.436.142.436.314ZM23.675,7.418V6.876c0-1.654-1.041-2.339-4.3-3-.973-.2-1.342-.4-1.342-1V2.51a.463.463,0,0,1,.5-.428c.336,0,.5.2.5.428V3.68h4.465V2.967C23.507,1.026,22.466,0,18.3,0c-3.02,0-5.269.913-5.269,2.939v.371c0,1.769.906,2.568,4.3,3.281,1.074.229,1.443.257,1.443.885v.371c0,.371-.1.513-.5.513-.469,0-.5-.257-.5-.541v-.97H13.034V7.3c0,2.4,1.577,3.11,5.371,3.11,3.591,0,5.27-.657,5.27-3m31.231,2.624V7.7H54.1c-.47,0-.571-.114-.571-.371V4.593h1.343V2.025H53.53V.883H49.368V7.874c0,1.541,1.041,2.168,3.189,2.168ZM42.529,7.475V4.564c0-2.026-1.981-2.682-4.565-2.682-2.652,0-4.6.656-4.6,2.682v2.91c0,2,1.947,2.681,4.6,2.681,2.585,0,4.565-.684,4.565-2.681m21.435.085V7.218c0-1.028-.537-1.57-3.592-2.283-.839-.2-1.208-.286-1.208-.656V3.909c0-.2.2-.286.369-.286.235,0,.4.086.4.286v.827h3.826V4.108c0-1.683-1.745-2.225-4.263-2.225-2.383,0-4.464.542-4.464,2.254V4.45c0,1,.369,1.854,3.692,2.654.805.2,1.208.313,1.208.684v.4c0,.2-.168.257-.4.257-.168,0-.369-.086-.369-.285v-.8H55.036v.428c0,1.655,1.141,2.4,4.5,2.4,2.585,0,4.431-.485,4.431-2.625m-30.9.086V4.393c0-2.026-1.645-2.368-3.424-2.368H23.972v9.387h4.162v-1.37h1.309c1.746,0,3.625-.4,3.625-2.4M4.6,19.828V8.473H0V19.828Zm72.116,0V9.671H72.553v2.14H71.109c-1.544,0-3.457.485-3.457,2.34V17.46c0,1.855,1.712,2.368,3.256,2.368ZM13.945,10.1H9.75v9.729h4.2Zm-4.686,0h-4.2v9.729h4.2ZM58.2,19.828V17.489h-.739c-.436,0-.537-.114-.537-.342V14.322H58.2V11.811H56.92V10.67H52.758v6.961c0,1.6,1.041,2.2,3.189,2.2Zm-19.963,0V17.489h-.772c-.4,0-.537-.114-.537-.342V14.322h1.309V11.811H36.924V10.67H32.762v6.961c0,1.6,1.04,2.2,3.189,2.2Zm29.155-2.567V16.69H63.225v1.2c0,.2-.167.286-.4.286-.2,0-.4-.086-.4-.286V16.347h4.967V14.378c0-2-1.946-2.71-4.565-2.71s-4.531.656-4.531,2.682V17.2c0,2.055,1.913,2.739,4.531,2.739s4.565-.627,4.565-2.681M23.473,19.828V11.811H19.31v6.22h-.436c-.269,0-.336-.114-.336-.342V11.811H14.377v5.649c0,1.569,1.242,2.368,3.256,2.368h5.84ZM32.6,17.375v-.343c0-1.027-.536-1.569-3.591-2.282-.839-.2-1.208-.285-1.208-.657v-.371c0-.2.2-.285.369-.285.235,0,.4.086.4.285v.828h3.961v-.656c0-1.683-1.846-2.2-4.364-2.2-2.383,0-4.5.514-4.5,2.226v.342c0,1,.335,1.854,3.658,2.653.806.2,1.209.313,1.209.684V18c0,.2-.167.257-.4.257-.168,0-.369-.085-.369-.285v-.8H23.636V17.6c0,1.655,1.142,2.4,4.5,2.4,2.585,0,4.464-.485,4.464-2.625M28.94,8.017c0,.171-.2.342-.47.342h-.336V3.709h.336c.269,0,.47.171.47.342Zm34.32,6.562h-.839v-.941a.382.382,0,0,1,.4-.342c.269,0,.436.142.436.342Zm9.293,3.567h-.3c-.336,0-.436-.114-.436-.314V13.808c0-.143.1-.314.436-.314h.3ZM49.1,1.911a2.418,2.418,0,0,0-2.081,1V2.025H42.86v8.017h4.162V5.791c0-.656.47-1.056,1.275-1.056H49.1Zm3.323,17.917V14.264c0-1.6-.7-2.6-4.162-2.6H45.546a2.917,2.917,0,0,0-2.854,1.484V11.811H38.53v8.017h4.2V15.463c0-.656.5-1.056,1.275-1.056h3.458V13.266h.369c.269,0,.436.143.436.371v1.055H46.653c-1.544,0-3.524.485-3.524,2.339v.428c0,1.855,1.779,2.368,3.323,2.368Zm-4.162-1.74H48c-.47,0-.537-.114-.537-.342v-.97c0-.285.168-.456.57-.456h.235Z" transform="translate(0 0)" fill="#db2629" stroke="rgba(0,0,0,0)" stroke-width="1"/>
    <path id="Path_1724" data-name="Path 1724" d="M155.063,19.332a.482.482,0,1,1-.486.479.478.478,0,0,1,.486-.479m0,.893a.411.411,0,1,0-.4-.413.4.4,0,0,0,.4.413m-.188-.694h.218c.133,0,.2.053.2.161a.145.145,0,0,1-.148.153l.161.249h-.094l-.153-.242h-.092v.242h-.088v-.563Zm.087.25h.092c.076,0,.147,0,.147-.092s-.064-.086-.124-.086h-.116Z" transform="translate(-77.288 -9.666)" fill="#db2629" stroke="rgba(0,0,0,0)" stroke-width="1"/>
  </g>
</svg>
