<svg id="sports-illustrated" xmlns="http://www.w3.org/2000/svg" xmlns:xlink="http://www.w3.org/1999/xlink" width="125.21" height="32" viewBox="0 0 125.21 32">
  <defs>
    <clipPath id="clip-path">
      <rect id="Rectangle_2283" data-name="Rectangle 2283" width="125.21" height="32" fill="none" stroke="rgba(0,0,0,0)" stroke-width="1"/>
    </clipPath>
  </defs>
  <g id="Group_901" data-name="Group 901" clip-path="url(#clip-path)">
    <path id="Path_1723" data-name="Path 1723" d="M61.441,12.964c0,.319-.376.547-.7.547a.612.612,0,0,1-.645-.547V6.3c0-.274.322-.5.645-.5s.7.228.7.5Zm-23.562-1.1V11c0-2.647-1.665-3.743-6.874-4.793-1.558-.32-2.148-.639-2.148-1.6V4.017a.741.741,0,0,1,.8-.685c.538,0,.806.32.806.685V5.888H37.61V4.747C37.61,1.642,35.946,0,29.286,0c-4.833,0-8.431,1.461-8.431,4.7v.593c0,2.83,1.45,4.109,6.874,5.25,1.718.366,2.309.411,2.309,1.416v.593c0,.594-.161.822-.806.822-.751,0-.8-.41-.8-.866V10.956H20.854v.73c0,3.834,2.524,4.975,8.593,4.975,5.746,0,8.432-1.05,8.432-4.794m49.97,4.2V12.324H86.561c-.752,0-.913-.182-.913-.593V7.349H87.8V3.24H85.648V1.414h-6.66V12.6c0,2.465,1.666,3.469,5.1,3.469Zm-19.8-4.108V7.3c0-3.242-3.17-4.291-7.3-4.291-4.243,0-7.358,1.05-7.358,4.291v4.656c0,3.2,3.115,4.29,7.358,4.29,4.135,0,7.3-1.094,7.3-4.29m34.3.137v-.547c0-1.644-.859-2.511-5.747-3.652-1.342-.32-1.934-.457-1.934-1.05V6.254c0-.32.323-.457.591-.457.376,0,.644.137.644.457V7.577h6.122v-1c0-2.693-2.792-3.561-6.82-3.561-3.813,0-7.143.867-7.143,3.606v.5c0,1.6.591,2.966,5.908,4.246,1.289.319,1.933.5,1.933,1.1V13.1c0,.319-.268.411-.644.411-.269,0-.591-.138-.591-.457V11.777H88.057v.685c0,2.648,1.826,3.834,7.2,3.834,4.135,0,7.09-.776,7.09-4.2m-49.434.138V7.03c0-3.242-2.631-3.79-5.478-3.79H38.355V18.259h6.659V16.067h2.094c2.793,0,5.8-.639,5.8-3.834M7.358,31.725V13.557H0V31.725Zm115.386,0V15.474h-6.659V18.9h-2.309c-2.471,0-5.532.776-5.532,3.744v5.294c0,2.967,2.739,3.789,5.209,3.789ZM22.312,16.159H15.6V31.725h6.713Zm-7.5,0H8.1V31.725h6.713Zm78.3,15.566V27.982H91.931c-.7,0-.859-.182-.859-.547V22.915h2.041V18.9H91.072V17.072H84.413V28.21c0,2.556,1.665,3.514,5.1,3.514Zm-31.94,0V27.982H59.938c-.645,0-.859-.182-.859-.547V22.915h2.094V18.9H59.078V17.072h-6.66V28.21c0,2.556,1.665,3.514,5.1,3.514Zm46.648-4.108V26.7h-6.66v1.917c0,.319-.268.457-.644.457-.322,0-.645-.138-.645-.457V26.155h7.948v-3.15c0-3.2-3.114-4.336-7.3-4.336s-7.25,1.05-7.25,4.29v4.565c0,3.287,3.062,4.382,7.25,4.382s7.3-1,7.3-4.29M37.557,31.725V18.9H30.9V28.85h-.7c-.43,0-.538-.182-.538-.548V18.9H23v9.038c0,2.51,1.987,3.789,5.21,3.789h9.345Zm14.6-3.925v-.548c0-1.643-.858-2.511-5.746-3.651-1.342-.32-1.934-.457-1.934-1.051v-.593c0-.319.322-.457.591-.457.376,0,.644.138.644.457v1.324H52.05v-1.05c0-2.694-2.954-3.515-6.982-3.515-3.813,0-7.2.822-7.2,3.561v.547c0,1.6.537,2.967,5.854,4.246,1.289.319,1.934.5,1.934,1.1V28.8c0,.319-.268.41-.645.41-.268,0-.59-.137-.59-.456V27.48H37.818v.685c0,2.648,1.826,3.835,7.2,3.835,4.136,0,7.143-.777,7.143-4.2M46.3,12.826c0,.274-.322.548-.751.548h-.538V5.934h.538c.43,0,.751.274.751.547Zm54.912,10.5H99.873V21.819a.611.611,0,0,1,.644-.547c.43,0,.7.228.7.547Zm14.869,5.706H115.6c-.537,0-.7-.182-.7-.5V22.093c0-.228.161-.5.7-.5h.484ZM78.566,3.058a3.869,3.869,0,0,0-3.33,1.6V3.24H68.577V16.067h6.659v-6.8c0-1.05.752-1.689,2.041-1.689h1.289Zm5.317,28.667v-8.9c0-2.556-1.128-4.154-6.659-4.154h-4.35c-2.363,0-3.813.913-4.566,2.374V18.9H61.648V31.725h6.714V24.741c0-1.05.806-1.69,2.04-1.69h5.532V21.226h.591c.43,0,.7.228.7.593v1.689H74.645c-2.47,0-5.639.776-5.639,3.743v.685c0,2.967,2.846,3.79,5.317,3.79Zm-6.659-2.784h-.43c-.752,0-.859-.182-.859-.547V26.842c0-.457.268-.73.913-.73h.376Z" fill="#db2629" stroke="rgba(0,0,0,0)" stroke-width="1"/>
    <path id="Path_1724" data-name="Path 1724" d="M155.354,19.332a.77.77,0,1,1-.777.766.765.765,0,0,1,.777-.766m0,1.428a.658.658,0,1,0-.636-.662.635.635,0,0,0,.636.662m-.3-1.11h.349c.214,0,.315.085.315.258a.232.232,0,0,1-.237.246l.258.4h-.15l-.245-.387h-.148v.387h-.14v-.9Zm.14.4h.147c.122,0,.236-.006.236-.148,0-.119-.1-.138-.2-.138h-.186Z" transform="translate(-30.915 -3.866)" fill="#db2629" stroke="rgba(0,0,0,0)" stroke-width="1"/>
  </g>
</svg>
