<svg id="Group_906" data-name="Group 906" xmlns="http://www.w3.org/2000/svg" xmlns:xlink="http://www.w3.org/1999/xlink" width="49.587" height="20" viewBox="0 0 49.587 20">
  <defs>
    <clipPath id="clip-path">
      <rect id="Rectangle_2285" data-name="Rectangle 2285" width="49.587" height="20" fill="none" stroke="rgba(0,0,0,0)" stroke-width="1"/>
    </clipPath>
  </defs>
  <g id="Group_905" data-name="Group 905" clip-path="url(#clip-path)">
    <path id="Path_1731" data-name="Path 1731" d="M21.052.692A.691.691,0,0,0,20.361,0H.722V0L.692,0a.692.692,0,1,0,0,1.383l.03,0v0H6.015A1.672,1.672,0,0,1,7.639,2.61V18.226c0,.98,1.178,1.774,2.632,1.774s2.632-.795,2.632-1.774V2.691a1.66,1.66,0,0,1,1.639-1.308h5.82a.691.691,0,0,0,.691-.692" fill="#ce2027" stroke="rgba(0,0,0,0)" stroke-width="1"/>
    <path id="Path_1732" data-name="Path 1732" d="M48.767,6.549s-1.5-.219-2.58,1.842l-4.923,9.156L36.167,8.3C35.173,6.459,33.8,6.549,33.8,6.549a2.5,2.5,0,0,0-2.539,2.8h-.015V22.429h.018a.9.9,0,0,0,1.8,0h0V16.22c.034-.606.2-1.481.852-1.481.593,0,.8-.081,1.518,1.09L38.6,21.558s.817,1.533,1.208,1.533c0,0,.42.23,1.275-1.361l1.179-2.191.08-.044-.028-.052,1.947-3.621v.007c.6-.979.812-1.16,1.384-1.093.471.054.638.619.689,1.142v5.953c0,.8.956,1.441,2.137,1.441s2.136-.645,2.136-1.441V8.5a1.869,1.869,0,0,0-1.834-1.955" transform="translate(-15.624 -3.271)" fill="#ce2027" stroke="rgba(0,0,0,0)" stroke-width="1"/>
    <path id="Path_1733" data-name="Path 1733" d="M85.276,21.382H79.665c-.488-.029-1.631-.29-.891-2.171L84.053,7.759l.016-.005s.788-1.941-1.033-2.051V5.7H74v0l-.03,0a.691.691,0,0,0,0,1.383h3.969c.39.052.949.342.431,1.679l-.323.7v0h0l-5.1,11.074s-.905,2.229,1.3,2.229h11v0l.03,0a.692.692,0,0,0,0-1.383" transform="translate(-36.38 -2.849)" fill="#ce2027" stroke="rgba(0,0,0,0)" stroke-width="1"/>
  </g>
</svg>
