<svg id="tmz" xmlns="http://www.w3.org/2000/svg" xmlns:xlink="http://www.w3.org/1999/xlink" width="79.34" height="32" viewBox="0 0 79.34 32">
  <defs>
    <clipPath id="clip-path">
      <rect id="Rectangle_2285" data-name="Rectangle 2285" width="79.34" height="32" fill="none" stroke="rgba(0,0,0,0)" stroke-width="1"/>
    </clipPath>
  </defs>
  <g id="Group_905" data-name="Group 905" clip-path="url(#clip-path)">
    <path id="Path_1731" data-name="Path 1731" d="M33.684,1.106A1.106,1.106,0,0,0,32.578,0H1.154V0L1.106,0a1.106,1.106,0,1,0,0,2.213l.048,0v0h8.47a2.675,2.675,0,0,1,2.6,1.963V29.161c0,1.568,1.885,2.839,4.21,2.839s4.21-1.271,4.21-2.839V4.306a2.657,2.657,0,0,1,2.622-2.094h9.312a1.106,1.106,0,0,0,1.106-1.106" fill="#ce2027" stroke="rgba(0,0,0,0)" stroke-width="1"/>
    <path id="Path_1732" data-name="Path 1732" d="M59.278,6.553S56.876,6.2,55.15,9.5L47.274,24.149,39.118,9.356c-1.59-2.946-3.784-2.8-3.784-2.8-4.4,0-4.062,4.475-4.062,4.475h-.025V31.961h.03a1.441,1.441,0,0,0,2.877,0h.006V22.027c.054-.969.314-2.369,1.363-2.369.95,0,1.283-.129,2.43,1.743l5.053,9.166s1.307,2.453,1.933,2.453c0,0,.672.369,2.041-2.178l1.886-3.5.127-.07-.046-.083,3.116-5.794,0,.011c.963-1.566,1.3-1.855,2.215-1.75.754.087,1.02.991,1.1,1.827V31c0,1.273,1.53,2.3,3.418,2.3s3.418-1.032,3.418-2.3V9.681s.048-3.08-2.935-3.128" transform="translate(-6.25 -1.309)" fill="#ce2027" stroke="rgba(0,0,0,0)" stroke-width="1"/>
    <path id="Path_1733" data-name="Path 1733" d="M92.785,30.792l-.048,0v0H83.808c-.781-.046-2.61-.463-1.426-3.474L90.829,8.995l.026-.008s1.262-3.1-1.652-3.281V5.7H74.75v0l-.048,0a1.106,1.106,0,0,0,0,2.213l.048,0v0h6.3c.624.083,1.518.546.69,2.686l-.518,1.122,0,0h0L73.055,29.44s-1.449,3.566,2.08,3.566h17.6v0l.048,0a1.107,1.107,0,0,0,0-2.214" transform="translate(-14.552 -1.14)" fill="#ce2027" stroke="rgba(0,0,0,0)" stroke-width="1"/>
  </g>
</svg>
