<svg width="66" height="20" viewBox="0 0 66 20" fill="none" xmlns="http://www.w3.org/2000/svg">
<g id="Group 1087737">
<path id="Vector" d="M23.5817 19.7718L26.8836 0.396104H32.165L28.8607 19.7718H23.5817ZM47.9408 0.813785C46.8946 0.421244 45.2549 0 43.2075 0C37.989 0 34.313 2.62783 34.2818 6.39418C34.2522 9.17839 36.9061 10.7315 38.9092 11.6583C40.965 12.608 41.656 13.2137 41.6463 14.0618C41.6333 15.3605 40.0046 15.9538 38.4867 15.9538C36.3729 15.9538 35.2499 15.6602 33.5154 14.9368L32.8349 14.6289L32.0936 18.9664C33.3272 19.5072 35.6083 19.9757 37.9766 20C43.5282 20 47.1319 17.4023 47.1731 13.3802C47.1928 11.1761 45.7859 9.49878 42.7389 8.11588C40.893 7.21965 39.7624 6.62143 39.7744 5.71392C39.7744 4.90855 40.7313 4.04725 42.7989 4.04725C44.5259 4.02053 45.7771 4.39713 46.7518 4.78957L47.225 5.01326L47.9408 0.813785ZM61.5313 0.395807H57.4503C56.186 0.395807 55.2399 0.740939 54.6848 2.00259L46.8414 19.759H52.3872C52.3872 19.759 53.2938 17.3714 53.4989 16.8473C54.1051 16.8473 59.4924 16.8556 60.2628 16.8556C60.4207 17.5339 60.9051 19.759 60.9051 19.759H65.8059L61.5313 0.395213V0.395807ZM55.0564 12.9074C55.4931 11.7911 57.1606 7.49114 57.1606 7.49114C57.1294 7.54281 57.5941 6.36934 57.8608 5.64186L58.2176 7.31249C58.2176 7.31249 59.2291 11.9376 59.4404 12.9074H55.0564ZM19.0982 0.395807L13.9277 13.6092L13.3767 10.9239C12.4141 7.82865 9.41513 4.47513 6.0625 2.79619L10.7902 19.741L16.378 19.7346L24.6925 0.395609H19.0982" fill="white"/>
<path id="Vector_2" d="M9.10298 0.394928H0.586934L0.519531 0.79806C7.14483 2.40188 11.5287 6.2777 13.3489 10.9342L11.497 2.03032C11.1773 0.803503 10.2502 0.437388 9.10318 0.394531" fill="#F2AE14"/>
</g>
</svg>
