<svg width="27" height="19" viewBox="0 0 27 19" fill="none" xmlns="http://www.w3.org/2000/svg">
<path id="vector" fill-rule="evenodd" clip-rule="evenodd" d="M23.9539 1.04395C25.072 1.34066 25.9564 2.21429 26.2568 3.31868C26.8075 5.32967 26.8242 9.49999 26.8242 9.49999C26.8242 9.49999 26.8242 13.6868 26.2735 15.6813C25.9731 16.7857 25.0887 17.6593 23.9706 17.956C21.9513 18.5 13.8242 18.5 13.8242 18.5C13.8242 18.5 5.69713 18.5 3.67788 17.956C2.55978 17.6593 1.67531 16.7857 1.37493 15.6813C0.824219 13.6703 0.824219 9.49999 0.824219 9.49999C0.824219 9.49999 0.824219 5.32967 1.35824 3.33517C1.65862 2.23077 2.54309 1.35714 3.66119 1.06044C5.68045 0.516479 13.8075 0.5 13.8075 0.5C13.8075 0.5 21.9346 0.5 23.9539 1.04395ZM17.9629 9.5L11.2209 13.3571V5.64286L17.9629 9.5Z" fill="#AFB9CB"/>
</svg>
