<?xml version="1.0" encoding="UTF-8"?>
<svg width="95px" height="20px" viewBox="0 0 95 20" version="1.1" xmlns="http://www.w3.org/2000/svg" xmlns:xlink="http://www.w3.org/1999/xlink">
    <!-- Generator: Sketch 49.1 (51147) - http://www.bohemiancoding.com/sketch -->
    <title>Bet365_Footer_Icon</title>
    <desc>Created with Sketch.</desc>
    <defs></defs>
    <g id="Bet365_Footer_Icon" stroke="none" stroke-width="1" fill="none" fill-rule="evenodd">
        <g id="Group-2" fill="#999999">
            <path d="M0,0 L6.40411323,0 L6.40411323,7.51028143 C7.31557133,6.28856861 8.56529673,5.71696552 10.2571979,5.71696552 C13.9802087,5.71696552 16.0884968,8.26319747 16.0884968,12.7857406 C16.0884968,17.1006149 13.9538551,19.6739504 10.4134371,19.6739504 C8.25263008,19.6739504 6.79414652,18.8937439 5.96174921,17.2312724 L5.96174921,19.4915159 L0,19.4915159 L0,0 L0,0 Z M6.22170866,12.6554569 C6.22170866,14.6317681 6.66444915,15.5931006 7.80988959,15.5931006 C8.92954114,15.5931006 9.4238594,14.6317681 9.4238594,12.6554569 C9.4238594,10.6812019 8.95533002,9.71986944 7.80988959,9.71986944 C6.66444915,9.71986944 6.22170866,10.681015 6.22170866,12.6554569 L6.22170866,12.6554569 Z" id="Shape"></path>
            <path d="M32.4623654,14.1375501 L23.5855315,14.1375501 C23.7415825,15.6185218 24.8875876,16.3204085 27.0482064,16.3204085 C28.5573265,16.3204085 30.1199068,16.0346069 31.6284622,15.4624431 L31.6284622,18.919352 C30.1456957,19.5161894 28.115339,19.8550764 25.7461503,19.8550764 C20.2798488,19.8550764 17.3378457,17.2561328 17.3378457,12.6825604 C17.3378457,8.21216816 20.2273298,5.53602641 25.0438268,5.53602641 C30.3808074,5.53602641 32.4625537,8.00449941 32.4625537,13.2543504 L32.4625537,14.1375501 L32.4623654,14.1375501 Z M26.8915907,11.5113161 L26.8915907,11.0971002 C26.8915907,9.56266925 26.3183999,8.67946957 25.2254784,8.67946957 C24.1056386,8.67946957 23.534142,9.56266925 23.534142,11.1225214 L23.534142,11.5111292 L26.8915907,11.5111292 L26.8915907,11.5113161 Z" id="Shape"></path>
            <path d="M44.8549579,5.89921307 L44.8549579,9.87594812 L41.8862248,9.87594812 L41.8862248,13.1240668 C41.8862248,14.7876598 42.1480667,15.5674924 43.4226397,15.5674924 C43.76166,15.5674924 44.2286835,15.5153416 44.7757089,15.3844972 L44.7757089,19.2829125 C43.3970391,19.6993716 42.0178046,19.8548895 40.5596975,19.8548895 C38.7631349,19.8548895 37.3827709,19.2829125 36.5763507,18.2944766 C35.5348188,16.9950048 35.5086534,15.3588891 35.5086534,13.1764046 L35.5086534,9.87576119 L33.243185,9.87576119 L33.243185,5.89921307 L35.5084652,5.89921307 L35.5084652,2.88493202 L41.8862248,0.883012755 L41.8862248,5.89921307 L44.8549579,5.89921307 Z" id="Shape"></path>
            <path d="M51.8977695,15.7790865 C53.6369189,15.7790865 54.5457417,15.208418 54.5457417,14.0160517 C54.5457417,12.8500412 53.6096241,12.2031092 51.7932963,12.2031092 C51.1199618,12.2031092 50.3144828,12.2554469 49.4322019,12.3853567 L49.4322019,8.44750115 C50.1584319,8.52507318 50.8334605,8.55012054 51.5088657,8.55012054 C53.3771477,8.55012054 54.3104417,8.00692937 54.3104417,6.76428145 C54.3104417,5.54574628 53.4563968,4.97526471 51.690329,4.97526471 C50.547524,4.97526471 49.0943111,5.28611361 47.3039604,5.8304263 L47.3039604,1.73761358 C48.8866824,1.19217937 50.8080481,0.934789752 53.0654223,0.934789752 C57.9705803,0.934789752 60.7988864,3.03241235 60.7988864,6.32370968 C60.7988864,8.34394715 59.4757474,9.81968502 57.1654778,10.3129684 C59.7343892,10.8299907 61.0586576,12.2558208 61.0586576,14.4308285 C61.0586576,17.8518487 58.1780208,19.8447958 52.6768949,19.8447958 C50.8334605,19.8447958 49.0176974,19.5874061 47.1494154,19.1468344 L47.1494154,14.9239249 C48.9913438,15.4678638 50.547524,15.7790865 51.8977695,15.7790865 L51.8977695,15.7790865 Z" id="Shape"></path>
            <path d="M72.3722584,7.66953775 C76.2398376,7.66953775 78.8091254,10.026793 78.8091254,13.4980948 C78.8091254,17.2288424 75.8770991,19.8193746 71.2569364,19.8193746 C65.8073882,19.8193746 62.3033005,16.4258317 62.3033005,10.8570942 C62.3033005,4.50833714 66.0157699,0.934789752 72.709961,0.934789752 C74.1379497,0.934789752 75.6700351,1.08955998 77.2516276,1.42564316 L77.2516276,5.54574628 C75.798603,5.10610911 74.3975327,4.89769268 72.917778,4.89769268 C69.959398,4.89769268 68.5837401,6.08893744 68.5061852,8.78451893 C69.597036,7.95403085 70.7912306,7.66953775 72.3722584,7.66953775 L72.3722584,7.66953775 Z M72.9175897,13.3704281 C72.9175897,11.8672129 72.0624154,10.907002 70.816643,10.907002 C69.5706824,10.907002 68.739791,11.8397356 68.739791,13.3704281 C68.739791,14.8714002 69.5706824,15.8041339 70.816643,15.8041339 C72.088016,15.803947 72.9175897,14.8714002 72.9175897,13.3704281 L72.9175897,13.3704281 Z" id="Shape"></path>
            <path d="M80.7301147,1.40040888 L93.3683604,1.40040888 L93.3683604,5.70070343 L86.647251,5.70070343 L86.647251,8.42133227 C87.1923941,8.39497647 87.5560738,8.36880759 87.684077,8.36880759 C91.8631933,8.36880759 94.1200027,10.4677386 94.1200027,14.0162387 C94.1200027,17.6696011 91.3698163,19.8447958 85.9974465,19.8447958 C84.1297292,19.8447958 82.2857301,19.5621719 80.4185775,19.0954312 L80.4185775,15.00131 C81.8452485,15.3908525 83.0913973,15.5719785 84.1551416,15.5719785 C86.3351491,15.5719785 87.4768247,14.8454183 87.4768247,13.4982818 C87.4768247,11.9961881 86.2833831,11.2445805 83.8436044,11.2445805 C82.8043313,11.2445805 81.7942354,11.4255196 80.7301147,11.6851523 L80.7301147,1.40040888 L80.7301147,1.40040888 Z" id="Shape"></path>
        </g>
    </g>
</svg>