<svg width="97" height="24" xmlns="http://www.w3.org/2000/svg"><g fill="none" fill-rule="evenodd"><g fill="#666"><path d="M89.533 18.557c0 .889-.007 1.778.003 2.667.007.618.043 1.236.057 1.854.005.26-.006.266-.272.27-.391.004-.782-.004-1.173.002-.157.002-.218-.064-.21-.217.021-.443.052-.886.054-1.33.01-2.154.019-4.31.015-6.465-.001-.645-.039-1.29-.069-1.935-.008-.177.053-.236.228-.233.512.008 1.024.006 1.536.002.144-.001.245.035.338.164.613.852 1.244 1.691 1.854 2.545.477.668.935 1.349 1.398 2.027.507.744 1.008 1.493 1.518 2.236.063.092.165.158.25.236.024-.109.07-.217.07-.326-.001-1.71-.005-3.421-.019-5.132-.003-.497-.044-.994-.056-1.49-.006-.248.006-.254.24-.257.404-.006.808.003 1.212-.004.157-.003.216.054.21.21a87.457 87.457 0 0 0-.056 1.815c-.015.834-.025 1.67-.024 2.505.002 1.522.012 3.044.025 4.566.002.295.033.59.053.884.01.134-.047.198-.185.197-.445-.002-.89-.004-1.334.002-.142.002-.22-.071-.292-.177-.278-.413-.56-.823-.839-1.235-.92-1.358-1.836-2.72-2.761-4.074-.47-.69-.953-1.369-1.438-2.047-.074-.103-.189-.176-.285-.263-.024.125-.068.25-.068.376-.006.875-.004 1.751-.004 2.627h.024M84.55 18.185c-.04-.269-.083-.642-.155-1.01-.187-.964-.652-1.77-1.474-2.32-.808-.543-1.713-.694-2.662-.47-.613.143-1.169.42-1.594.897a3.776 3.776 0 0 0-.95 2.011c-.154 1.074-.122 2.121.354 3.117a3.24 3.24 0 0 0 1.414 1.502c.69.368 1.419.458 2.19.327a3.112 3.112 0 0 0 2.045-1.25c.598-.798.758-1.732.832-2.804m-3.44-5.114a5.527 5.527 0 0 1 2.15.328c1.55.56 2.574 1.623 3.027 3.21.228.797.235 1.612.13 2.437a5.088 5.088 0 0 1-.928 2.375c-.813 1.126-1.926 1.77-3.284 2.007-.423.074-.843.16-1.28.132-1.098-.071-2.161-.265-3.103-.879-.946-.617-1.595-1.458-1.93-2.547a5.723 5.723 0 0 1-.12-2.949c.396-1.795 1.413-3.106 3.176-3.774a5.293 5.293 0 0 1 2.161-.34M73.609 18.373c0 1.024-.009 2.048.003 3.071.006.537.054 1.074.071 1.61.01.284-.002.29-.294.293-.43.005-.862.005-1.293 0-.258-.004-.27-.011-.263-.283.016-.659.06-1.317.065-1.975.01-1.805.013-3.61.003-5.414-.003-.713-.05-1.425-.07-2.138-.01-.359-.001-.362.337-.363.431-.003.863.005 1.293-.003.178-.004.239.069.23.238-.027.537-.057 1.074-.071 1.611-.016.606-.017 1.212-.02 1.818-.003.512 0 1.024 0 1.535h.009M67.683 13.068a4.89 4.89 0 0 1 1.748.198c.868.276.83.116.503.962-.058.15-.127.297-.184.448-.113.295-.127.292-.39.151-.27-.146-.545-.294-.835-.393a3.232 3.232 0 0 0-1.984-.051c-.25.073-.487.226-.698.385-.446.336-.459 1.137-.098 1.568.23.274.517.473.832.624.545.26 1.103.493 1.65.75.662.308 1.306.648 1.731 1.275.253.373.413.783.429 1.24.018.513 0 1.014-.213 1.502-.254.583-.667.997-1.213 1.299-.715.394-1.495.519-2.293.526-1.056.01-2.09-.145-3.08-.532-.27-.105-.269-.1-.16-.387.125-.327.243-.655.365-.983.04-.112.1-.133.215-.077.349.172.696.352 1.06.489a4.051 4.051 0 0 0 2.379.166c.543-.125.912-.465 1.054-1.003.137-.52 0-.978-.383-1.37-.27-.274-.59-.466-.93-.627-.498-.234-1.002-.456-1.504-.683a4.522 4.522 0 0 1-1.218-.78c-1.14-1.053-1.068-2.944.227-3.92.69-.52 1.482-.743 2.335-.776.188-.007.377 0 .655 0M58.834 13.068a5.903 5.903 0 0 1 1.727.187c.206.055.404.146.609.208.15.045.193.127.133.27l-.448 1.08c-.047.113-.093.172-.23.073-.761-.545-1.622-.69-2.534-.597-.34.035-.655.161-.935.355-.609.424-.676 1.285-.112 1.827.247.237.56.42.868.575.516.26 1.053.474 1.578.715.479.219.924.484 1.314.85.37.345.597.759.688 1.248a3.52 3.52 0 0 1-.026 1.48c-.17.705-.578 1.235-1.192 1.605-.429.26-.897.413-1.395.497-.44.075-.876.143-1.322.116-.967-.06-1.923-.182-2.834-.54-.235-.092-.24-.094-.152-.35.11-.317.227-.631.348-.944.065-.168.132-.185.317-.103.318.141.633.295.957.422a4.06 4.06 0 0 0 2.415.185c.526-.119.901-.428 1.048-.955.158-.566.031-1.087-.423-1.464-.316-.263-.684-.475-1.052-.664-.526-.27-1.075-.493-1.61-.745a3.5 3.5 0 0 1-1.1-.805c-.38-.413-.597-.886-.6-1.454 0-.498-.014-.99.258-1.448.313-.526.737-.92 1.28-1.19.652-.323 1.346-.453 2.07-.435.094.003.189 0 .355 0M53.219 18.33c0 1.132-.008 2.262.003 3.393.005.483.042.967.079 1.45.01.124-.015.174-.14.174h-1.534c-.16 0-.205-.083-.2-.231.028-.982.064-1.963.075-2.945.013-1.184.016-2.368.003-3.552-.013-1.076-.052-2.152-.083-3.228-.004-.153.051-.22.209-.219.511.004 1.023.002 1.534.001.106 0 .159.012.154.157-.057 1.666-.101 3.333-.149 5h.049M33.17 20.749c-.032-.975-.063-1.997-.1-3.02-.021-.577-.051-1.155-.078-1.732-.003-.068-.001-.137-.02-.2-.014-.045-.058-.081-.089-.121-.046.037-.117.064-.135.112-.221.577-.437 1.155-.65 1.735l-1.836 5.037c-.07.19-.149.377-.202.57-.044.159-.132.22-.289.219a55.58 55.58 0 0 0-1.293.001c-.179.003-.27-.079-.322-.24-.245-.755-.492-1.507-.744-2.259-.256-.764-.523-1.525-.778-2.29-.284-.854-.56-1.71-.84-2.564-.047-.147-.058-.313-.232-.38-.032.139-.08.277-.094.418-.107 1.043-.227 2.085-.304 3.13-.09 1.208-.14 2.418-.207 3.627-.004.067.001.135-.006.202-.035.32-.07.35-.405.354-.337.003-.674.006-1.01-.001-.254-.006-.271-.02-.25-.29.033-.389.078-.776.129-1.162.055-.426.148-.849.18-1.276.112-1.475.325-2.941.358-4.424.019-.846.096-1.692.151-2.538.032-.483.035-.483.515-.484.512 0 1.024.006 1.536-.003.188-.003.283.05.343.247.248.81.507 1.615.784 2.415.485 1.396.986 2.787 1.478 4.18.135.38.261.763.399 1.142.028.077.089.143.135.214.052-.073.12-.14.154-.22.164-.397.33-.795.477-1.198.599-1.641 1.193-3.283 1.785-4.926.195-.543.383-1.088.57-1.635.048-.143.121-.22.287-.219.593.008 1.186.008 1.779 0 .175-.002.232.06.232.234-.001.714-.005 1.428.02 2.142a158.284 158.284 0 0 0 .324 5.8c.04.55.096 1.098.145 1.647.03.347.031.35-.297.354-.431.005-.863.005-1.294 0-.298-.003-.303-.007-.304-.326-.003-.741-.001-1.482-.001-2.272M47.432 20.665c0-.782.017-1.563-.004-2.344-.022-.792-.08-1.584-.123-2.375-.003-.054.005-.113-.015-.16-.024-.057-.071-.105-.108-.157-.034.05-.08.095-.1.15-.292.766-.585 1.531-.869 2.3-.4 1.083-.79 2.169-1.186 3.254-.215.592-.437 1.181-.643 1.777-.057.164-.138.244-.316.24a42.213 42.213 0 0 0-1.294 0c-.162.002-.227-.065-.278-.22-.293-.893-.607-1.78-.906-2.672-.389-1.158-.77-2.32-1.154-3.48-.14-.42-.28-.84-.425-1.258-.014-.04-.063-.069-.095-.103-.027.041-.067.08-.078.125-.03.117-.057.236-.068.357-.09.95-.181 1.9-.264 2.85-.073.831-.14 1.662-.202 2.493-.024.309-.028.619-.046.927-.014.215-.057.429-.052.642.01.349-.078.34-.347.338-.364-.003-.727-.003-1.091-.002-.138 0-.192-.059-.173-.2.118-.906.235-1.811.346-2.718.046-.374.085-.748.116-1.123.061-.751.127-1.502.17-2.254.067-1.195.12-2.391.175-3.587.014-.284.009-.29.291-.291.593-.003 1.186.006 1.779-.005.212-.004.286.073.353.278.478 1.454.976 2.903 1.472 4.351a384.07 384.07 0 0 0 1.111 3.198c.047.132.134.25.202.375.077-.119.179-.229.227-.359.57-1.537 1.134-3.076 1.693-4.616.357-.984.708-1.971 1.048-2.962.069-.2.166-.27.375-.265.539.013 1.078.002 1.617.005.297.002.298.006.303.321.01.781.001 1.564.036 2.344.053 1.195.136 2.389.208 3.583.03.497.06.994.096 1.49.048.67.104 1.34.156 2.01.006.08.005.162.01.242.006.116-.046.18-.163.18-.525.002-1.05 0-1.576.002-.152 0-.17-.096-.17-.216.002-.377.001-.754.001-1.131v-1.334h-.039M19.433 18.31a4.52 4.52 0 0 0-.362-1.964c-.57-1.274-1.56-1.992-2.943-2.034-1.708-.052-2.912.896-3.368 2.553A5.477 5.477 0 0 0 12.7 19.5c.177.819.541 1.547 1.213 2.082.792.63 1.693.833 2.689.663 1.155-.197 1.937-.859 2.427-1.902.303-.646.422-1.326.403-2.034m-3.376-5.233c.893-.03 1.747.113 2.555.494 1.227.577 2.087 1.475 2.523 2.781a5.675 5.675 0 0 1 .167 3.067c-.434 1.953-1.625 3.28-3.548 3.883-1.084.34-2.19.337-3.306.07-1.055-.253-1.957-.734-2.676-1.545-.604-.682-.954-1.48-1.102-2.38a6.105 6.105 0 0 1 .039-2.289c.268-1.249.889-2.303 1.94-3.068 1.017-.74 2.16-1.065 3.408-1.013M.345 18.437c.055-1.092.31-2.108.893-3.032.587-.93 1.4-1.589 2.414-2.004a5.973 5.973 0 0 1 2.363-.43c.741.01 1.482-.005 2.206.187.026.007.055.005.08.014.226.084.52.11.66.27.17.196-.092.437-.144.663-.06.26-.186.504-.282.755-.04.103-.096.106-.18.041-.707-.543-1.532-.72-2.393-.694-1.075.032-2.026.39-2.743 1.24a3.691 3.691 0 0 0-.783 1.62c-.17.785-.184 1.578.044 2.358.424 1.444 1.361 2.39 2.842 2.662 1.03.19 2.07.086 3.01-.474.22-.131.231-.13.347.113.132.279.244.568.372.849.057.125-.02.186-.103.223-.282.125-.563.265-.858.349-.872.247-1.767.386-2.672.31-1.283-.106-2.48-.469-3.466-1.356a4.455 4.455 0 0 1-1.404-2.354c-.099-.43-.137-.873-.203-1.31"/></g><g fill="#999"><path d="M75.679 9.5V5.644h1.99v4.837a9.582 9.582 0 0 1-4.168.521c-1.435-.133-2.593-.555-3.474-1.265-1.073-.924-1.61-2.192-1.61-3.803 0-1.61.537-2.954 1.61-4.03.852-.831 1.974-1.33 3.368-1.495 1.395-.165 2.82.04 4.274.613l-.621 1.56c-1.209-.818-2.543-1.043-4.005-.678-1.461.365-2.326 1.311-2.595 2.839-.203 1.94.232 3.322 1.304 4.149 1.071.826 2.38 1.029 3.927.608zM57.632 10.902c.04-.411.076-2.02.11-4.828.032-2.808-.004-4.615-.11-5.422h2.104l5.186 7.334-.08-7.334h1.748a346.133 346.133 0 0 0-.053 4.998c0 1.11.018 2.86.053 5.252h-1.798l-5.45-8.026.075 8.026h-1.785zM53.679.635h1.969c-.097 2.23-.146 3.904-.146 5.02 0 1.116.049 2.85.146 5.2h-1.97c.055-2.386.082-4.178.082-5.375s-.027-2.812-.081-4.845zM45.55.575c.068.933.102 2.54.102 4.821 0 2.28-.034 4.08-.101 5.399h6.078l.526-1.386h-4.644V.521l-1.96.054zM39.725 10.902h-3.364c.073-1.377.11-3.175.11-5.393s-.037-3.827-.11-4.827h3.604c1.958.091 3.116.718 3.476 1.879.36 1.161-.202 2.103-1.686 2.824 1.48.422 2.219 1.286 2.219 2.594 0 1.307-.66 2.182-1.981 2.624-.484.2-1.24.299-2.268.299zm-1.49-4.594v3.281h2.112c1.159-.172 1.738-.72 1.738-1.64 0-1.042-.698-1.589-2.094-1.641h-1.755zm3.417-2.887c0-.632-.516-1.48-1.678-1.48h-1.738v2.96h1.878c1.097 0 1.596-.928 1.538-1.48zM22.133 10.855c.314-2.202.521-3.854.622-4.956.101-1.101.206-2.856.315-5.264h2.353l2.863 8.312L31.323.635h2.308c.02 2.353.063 4.108.127 5.264.065 1.157.212 2.809.442 4.956h-2.059l-.197-7.97-2.95 7.97h-1.779l-2.671-7.97-.633 7.97h-1.778zM20.98 10.855h-2.15l-1.125-2.883H13.51l-1.225 2.883h-1.889L15.056.46h1.75l4.174 10.395zm-5.251-8.454L14.022 6.57h3.266l-1.56-4.17zM7.567 9.568V5.712h1.99v4.838a9.582 9.582 0 0 1-4.168.52c-1.435-.133-2.593-.555-3.474-1.265C.842 8.881.305 7.614.305 6.003c0-1.611.537-2.955 1.61-4.03C2.767 1.14 3.89.642 5.284.477c1.394-.166 2.818.039 4.273.613l-.621 1.558c-1.209-.816-2.543-1.042-4.005-.677-1.461.365-2.326 1.312-2.595 2.84-.203 1.938.232 3.321 1.304 4.148 1.071.826 2.38 1.03 3.927.608z"/></g></g></svg>