<svg xmlns="http://www.w3.org/2000/svg" width="98" height="25" viewBox="0 0 98 25">
  <path fill="#999" d="M20.0381318,15.3115627 L20.0381318,9.68843728 C20.0381318,4.33775577 15.7589501,0 10.4805205,0 L0.30798737,0 C0.13793622,0 -5.68434189e-14,0.13982431 -5.68434189e-14,0.31246998 L-5.68434189e-14,15.3115627 C-5.68434189e-14,20.6622442 4.27918171,25 9.55761131,25 L10.4805205,25 C15.7589501,25 20.0381318,20.6622442 20.0381318,15.3115627 M16.9693141,15.4727343 C16.9693141,19.1207079 14.3256242,21.8750334 10.2130716,21.8750334 C5.3416065,21.8750334 3.06513237,18.9469948 3.06513237,14.9270459 L3.06513237,10.0633479 C3.06513237,6.0433989 5.3416065,3.11536039 10.2130716,3.11536039 C14.1542569,3.11536039 15.9411101,5.39791224 16.6510605,7.68126461 C16.7489847,8.02869067 16.6265794,8.22721984 16.3572879,8.32648443 L13.7135981,9.1203343 C13.3953445,9.21959889 13.2239771,9.1203343 13.1260529,8.79772439 C12.7098752,7.43310314 11.8285575,6.68861873 10.2130716,6.68861873 C7.71600481,6.68861873 6.88391245,8.17705387 6.88391245,10.1874286 L6.88391245,14.8029651 C6.88391245,16.8128062 7.71600481,18.301775 10.2130716,18.301775 C12.2692163,18.301775 13.3463824,17.3339453 13.3463824,15.2248396 L13.3463824,14.6292521 L10.6047684,14.6292521 C10.3844389,14.6292521 10.2375526,14.5051714 10.2375526,14.2321937 L10.2375526,11.6761306 C10.2375526,11.428236 10.3844389,11.2793391 10.6047684,11.2793391 L16.5776173,11.2793391 C16.8224278,11.2793391 16.9693141,11.4034198 16.9693141,11.6515813 L16.9693141,15.4727343 Z M27.933401,20.1485767 C27.9570924,20.2086157 27.933401,20.2446392 27.8860184,20.2627843 L27.5303851,20.376992 C27.4711567,20.4010076 27.4416742,20.3828624 27.4177196,20.3289607 C27.2755716,19.8964126 26.9912756,19.6741346 26.50534,19.6741346 C25.8596194,19.6741346 25.4981949,20.0044829 25.4981949,20.7252185 L25.4981949,22.0943761 C25.4981949,22.8092412 25.8596194,23.14546 26.50534,23.14546 C27.0802497,23.14546 27.4593111,22.8754176 27.4593111,22.2747601 L27.4593111,21.7760356 L26.6240599,21.7760356 C26.576414,21.7760356 26.5529859,21.7581573 26.5529859,21.6981182 L26.5529859,21.3498917 C26.5529859,21.2957231 26.576414,21.2717075 26.6240599,21.2717075 L27.9155009,21.2717075 C27.968938,21.2717075 27.9984206,21.3018604 27.9984206,21.3498917 L27.9984206,22.2987757 C27.9984206,23.1275817 27.4000827,23.6740706 26.50534,23.6740706 C25.5218863,23.6740706 24.9414486,23.1094365 24.9414486,22.1365368 L24.9414486,20.6830578 C24.9414486,19.7042876 25.5218863,19.1457909 26.50534,19.1457909 C27.2934717,19.1457909 27.7378159,19.5540565 27.933401,20.1485767 M30.6834386,22.6048416 L30.6834386,22.0764978 C30.4523165,22.06449 30.2154031,22.0583526 29.9605897,22.0823683 C29.510191,22.1306664 29.2435319,22.2926384 29.2435319,22.6710179 C29.2435319,22.9952289 29.4628084,23.2175069 29.842133,23.2175069 C30.23304,23.2175069 30.5294449,22.9832211 30.6834386,22.6048416 Z M31.2104392,21.2778448 L31.2104392,23.5358473 C31.2104392,23.5838786 31.1870111,23.6078942 31.133574,23.6078942 L30.778204,23.6078942 C30.7247668,23.6078942 30.7010755,23.5838786 30.7010755,23.5358473 L30.7010755,23.1094365 C30.4936447,23.45793 30.1440659,23.6679333 29.7294675,23.6679333 C29.1074383,23.6679333 28.7281137,23.2596676 28.7281137,22.7011709 C28.7281137,22.0943761 29.1311297,21.7642946 29.913207,21.7039887 C30.197503,21.6802399 30.446262,21.6861104 30.6834386,21.6981182 L30.6834386,21.3138682 C30.6834386,20.8813201 30.4344164,20.7012029 30.0316637,20.7012029 C29.6347022,20.7012029 29.4688628,20.8452967 29.3738342,21.1334842 C29.3561974,21.1935233 29.332506,21.1996606 29.2732777,21.1876528 L28.9236989,21.0915903 C28.8702617,21.0795824 28.8526248,21.0494295 28.8702617,21.0013982 C28.977136,20.5451013 29.368043,20.2507765 30.0493005,20.2507765 C30.7484582,20.2507765 31.2104392,20.5811248 31.2104392,21.2778448 L31.2104392,21.2778448 Z M33.6227437,20.2446392 C34.0728791,20.2446392 34.3158469,20.5210857 34.4164034,20.8394262 C34.6475256,20.478925 34.9734131,20.2446392 35.3643201,20.2446392 C35.8976384,20.2446392 36.2293171,20.6411639 36.2293171,21.2535623 L36.2293171,23.5358473 C36.2293171,23.5838786 36.1998345,23.6078942 36.1463974,23.6078942 L35.7791817,23.6078942 C35.7257446,23.6078942 35.696262,23.5838786 35.696262,23.5358473 L35.696262,21.36777 C35.696262,20.9653748 35.518577,20.7492342 35.1984807,20.7492342 C34.902339,20.7492342 34.6417344,20.9653748 34.4816862,21.3498917 L34.4816862,23.5358473 C34.4816862,23.5838786 34.4579949,23.6078942 34.4106122,23.6078942 L34.0136507,23.6078942 C33.9602136,23.6078942 33.9425767,23.5838786 33.9425767,23.5358473 L33.9425767,21.36777 C33.9425767,20.9653748 33.7706829,20.7492342 33.4508499,20.7492342 C33.1249624,20.7492342 32.8643577,21.0315512 32.7280009,21.3739073 L32.7280009,23.5358473 C32.7280009,23.5838786 32.7101008,23.6078942 32.6569269,23.6078942 L32.2657566,23.6078942 C32.2125827,23.6078942 32.1946826,23.5838786 32.1946826,23.5358473 L32.1946826,20.376992 C32.1946826,20.3348312 32.2125827,20.3108156 32.2657566,20.3108156 L32.6450812,20.3108156 C32.6982551,20.3108156 32.7161552,20.3348312 32.7161552,20.376992 L32.7161552,20.8092732 C32.8938403,20.5210857 33.2078821,20.2446392 33.6227437,20.2446392 M40.0222999,20.1605845 C40.0402001,20.2267609 40.0222999,20.2627843 39.9749173,20.2806626 L39.6253384,20.3889998 C39.5661101,20.4127486 39.5305731,20.3948703 39.5129362,20.3409685 C39.3707882,19.9204282 39.1336116,19.6741346 38.6418848,19.6741346 C38.0732927,19.6741346 37.7237139,20.0044829 37.7237139,20.7252185 L37.7237139,22.0943761 C37.7237139,22.8151117 38.0851384,23.14546 38.6418848,23.14546 C39.1573029,23.14546 39.4239621,22.863143 39.5424188,22.436999 C39.5603189,22.3708226 39.5958559,22.3588148 39.6550842,22.3828304 L40.0046631,22.4970381 C40.0520457,22.5207869 40.0757371,22.5509398 40.0578369,22.6171162 C39.8743607,23.2596676 39.4181709,23.6740706 38.6360936,23.6740706 C37.7474052,23.6740706 37.1667043,23.1094365 37.1667043,22.1365368 L37.1667043,20.6830578 C37.1667043,19.7101581 37.7474052,19.1457909 38.6360936,19.1457909 C39.3944795,19.1457909 39.8267148,19.5300409 40.0222999,20.1605845 M42.6122894,22.6048416 L42.6122894,22.0764978 C42.3811673,22.06449 42.1442539,22.0583526 41.8894404,22.0823683 C41.4390418,22.1306664 41.1726459,22.2926384 41.1726459,22.6710179 C41.1726459,22.9952289 41.3919224,23.2175069 41.7709838,23.2175069 C42.162154,23.2175069 42.4582957,22.9832211 42.6122894,22.6048416 Z M43.1395532,21.2778448 L43.1395532,23.5358473 C43.1395532,23.5838786 43.1158619,23.6078942 43.0624248,23.6078942 L42.7070548,23.6078942 C42.6538809,23.6078942 42.6299263,23.5838786 42.6299263,23.5358473 L42.6299263,23.1094365 C42.4227587,23.45793 42.0731799,23.6679333 41.6583183,23.6679333 C41.0362891,23.6679333 40.6572277,23.2596676 40.6572277,22.7011709 C40.6572277,22.0943761 41.0599804,21.7642946 41.8420578,21.7039887 C42.1263538,21.6802399 42.3753761,21.6861104 42.6122894,21.6981182 L42.6122894,21.3138682 C42.6122894,20.8813201 42.3635304,20.7012029 41.9605144,20.7012029 C41.5635529,20.7012029 41.3977136,20.8452967 41.3029483,21.1334842 C41.2850481,21.1935233 41.26162,21.1996606 41.2023917,21.1876528 L40.8525496,21.0915903 C40.7993758,21.0795824 40.7814756,21.0494295 40.7993758,21.0013982 C40.9059868,20.5451013 41.2968938,20.2507765 41.9784146,20.2507765 C42.6775722,20.2507765 43.1395532,20.5811248 43.1395532,21.2778448 L43.1395532,21.2778448 Z M45.7292795,20.346839 L45.7292795,20.7132107 C45.7292795,20.7673793 45.7116426,20.7913949 45.6524143,20.7913949 L45.5813403,20.7913949 C45.1014591,20.7913949 44.7992629,21.0675746 44.6571149,21.4459542 L44.6571149,23.5419847 C44.6571149,23.5900159 44.6273691,23.6078942 44.5918321,23.6078942 L44.1890794,23.6078942 C44.1532792,23.6078942 44.1237966,23.5900159 44.1237966,23.5419847 L44.1237966,20.376992 C44.1237966,20.3228234 44.1532792,20.3108156 44.1948706,20.3108156 L44.5623496,20.3108156 C44.6155235,20.3108156 44.6392148,20.3348312 44.6392148,20.3828624 L44.6334236,20.8813201 C44.8053174,20.5509718 45.1369961,20.2686548 45.6345141,20.2686548 C45.7116426,20.2686548 45.7292795,20.2806626 45.7292795,20.346839 M46.7195773,21.5059932 L46.7195773,21.7522868 L48.2479317,21.7522868 L48.2479317,21.5059932 C48.2479317,20.9955278 47.9636357,20.7070734 47.4837545,20.7012029 C47.0038733,20.7070734 46.7195773,20.9955278 46.7195773,21.5059932 Z M46.7195773,22.1365368 L46.7195773,22.4007087 C46.7195773,22.923182 46.9978189,23.205499 47.5132371,23.2116364 C47.987327,23.2116364 48.1589576,23.0253818 48.2774143,22.7732178 C48.3132145,22.7011709 48.3426971,22.7011709 48.4079798,22.731057 L48.6625301,22.863143 C48.7338673,22.8932959 48.7396585,22.9351898 48.710176,22.9952289 C48.5322277,23.4098987 48.1234206,23.6740706 47.5074458,23.6740706 C46.6600857,23.6679333 46.1981047,23.1574678 46.1981047,22.4007087 L46.1981047,21.518001 C46.1981047,20.7732498 46.6482401,20.2507765 47.4895457,20.2446392 C48.3132145,20.2507765 48.7515042,20.7732498 48.7515042,21.5118637 L48.7515042,21.9924431 C48.7515042,22.0885056 48.7041215,22.1365368 48.5975105,22.1365368 L46.7195773,22.1365368 Z M50.1387635,22.6229867 L50.1387635,23.5118317 C50.1387635,23.5780081 50.1032265,23.6078942 50.0497894,23.6078942 L49.6883649,23.6078942 C49.6409823,23.6078942 49.6114997,23.5780081 49.6114997,23.517969 L49.6114997,22.6229867 C49.6114997,22.569085 49.635191,22.5269242 49.6883649,22.5269242 L50.0497894,22.5269242 C50.1032265,22.5269242 50.1387635,22.5570771 50.1387635,22.6229867 M51.5668246,21.5540245 L51.5668246,22.3708226 C51.5668246,22.9053037 51.8453294,23.1814834 52.3428475,23.1814834 C52.8406288,23.1814834 53.1249248,22.9053037 53.1249248,22.3708226 L53.1249248,21.5540245 C53.1249248,21.0254139 52.8406288,20.731089 52.3428475,20.731089 C51.8453294,20.731089 51.5668246,21.0254139 51.5668246,21.5540245 Z M53.6582431,21.5300089 L53.6582431,22.3887009 C53.6582431,23.1574678 53.2196901,23.6740706 52.3428475,23.6740706 C51.4660048,23.6740706 51.0277151,23.1574678 51.0277151,22.4007087 L51.0277151,21.5420167 C51.0277151,20.7732498 51.4660048,20.2446392 52.3428475,20.2446392 C53.2196901,20.2446392 53.6582431,20.7732498 53.6582431,21.5300089 Z M56.1708409,20.346839 L56.1708409,20.7132107 C56.1708409,20.7673793 56.153204,20.7913949 56.0939756,20.7913949 L56.0229016,20.7913949 C55.5430205,20.7913949 55.2408243,21.0675746 55.0986763,21.4459542 L55.0986763,23.5419847 C55.0986763,23.5900159 55.0689305,23.6078942 55.0333935,23.6078942 L54.6306408,23.6078942 C54.5948406,23.6078942 54.565358,23.5900159 54.565358,23.5419847 L54.565358,20.376992 C54.565358,20.3228234 54.5948406,20.3108156 54.636432,20.3108156 L55.003911,20.3108156 C55.0570848,20.3108156 55.0807762,20.3348312 55.0807762,20.3828624 L55.074985,20.8813201 C55.2468788,20.5509718 55.5785575,20.2686548 56.0760755,20.2686548 C56.153204,20.2686548 56.1708409,20.2806626 56.1708409,20.346839 M57.1550842,21.4339464 C57.1550842,21.8782354 57.4098977,22.1485447 57.8837244,22.1485447 C58.3162229,22.1485447 58.5828821,21.9203962 58.5828821,21.4518247 C58.5828821,21.0195434 58.3517599,20.7372264 57.8718788,20.7372264 C57.4156889,20.7372264 57.1550842,20.9893904 57.1550842,21.4339464 Z M58.8613869,23.9142269 C58.8613869,23.6799411 58.7310845,23.45793 58.2512034,23.45793 L57.6528655,23.45793 C57.2024669,23.45793 57.0661101,23.6860784 57.0661101,23.9262347 C57.0661101,24.2565829 57.3209236,24.4727236 57.9490072,24.4727236 C58.5828821,24.4727236 58.8613869,24.2445751 58.8613869,23.9142269 L58.8613869,23.9142269 Z M59.3768051,23.8782034 C59.3768051,24.4188218 58.9798436,24.8692483 57.9253159,24.8692483 C56.9476534,24.8692483 56.5685921,24.4967392 56.5685921,23.9804032 C56.5685921,23.6860784 56.7225857,23.4098987 57.0542644,23.2655381 C56.9063252,23.1515973 56.8291968,22.9893584 56.8291968,22.8452647 C56.8291968,22.6528728 56.9476534,22.4727556 57.1611387,22.3828304 C56.8352512,22.1907054 56.6633574,21.8603571 56.6633574,21.4398168 C56.6633574,20.7673793 57.0721646,20.3108156 57.8779332,20.3108156 L59.2999398,20.3108156 C59.3412681,20.3108156 59.3591682,20.3348312 59.3591682,20.3828624 L59.3591682,20.6771873 C59.3591682,20.731089 59.3294224,20.7551047 59.2880942,20.7551047 L58.7250301,20.7551047 C58.914824,20.8994653 59.056972,21.1577667 59.056972,21.5118637 C59.056972,22.124529 58.6539561,22.5570771 57.8779332,22.5570771 L57.6112741,22.5570771 C57.3859431,22.5570771 57.291441,22.6590101 57.291441,22.7852256 C57.291441,22.9111742 57.3919976,23.013374 57.6112741,23.013374 L58.3104317,23.013374 C59.0746089,23.013374 59.3768051,23.3976241 59.3768051,23.8782034 L59.3768051,23.8782034 Z M60.6040162,22.6229867 L60.6040162,23.5118317 C60.6040162,23.5780081 60.5684792,23.6078942 60.5153054,23.6078942 L60.1538809,23.6078942 C60.106235,23.6078942 60.0767524,23.5780081 60.0767524,23.517969 L60.0767524,22.6229867 C60.0767524,22.569085 60.1004437,22.5269242 60.1538809,22.5269242 L60.5153054,22.5269242 C60.5684792,22.5269242 60.6040162,22.5570771 60.6040162,22.6229867 M61.5700963,22.5869633 L61.5700963,20.3828624 C61.5700963,20.3348312 61.5937876,20.3108156 61.6472247,20.3108156 L62.0320773,20.3108156 C62.0855144,20.3108156 62.1092058,20.3348312 62.1092058,20.3828624 L62.1092058,22.4970381 C62.1092058,22.923182 62.2987365,23.1694756 62.7014892,23.1694756 C63.0571224,23.1694756 63.3711643,22.9111742 63.5191035,22.5327947 L63.5191035,20.3828624 C63.5191035,20.3348312 63.5430581,20.3108156 63.5962319,20.3108156 L63.9813478,20.3108156 C64.0405761,20.3108156 64.0584762,20.3348312 64.0584762,20.3828624 L64.0584762,23.5358473 C64.0584762,23.5780081 64.0405761,23.6078942 63.9874022,23.6078942 L63.6080776,23.6078942 C63.5549037,23.6078942 63.5370036,23.5780081 63.5370036,23.5358473 L63.5370036,23.1035661 C63.3237816,23.4157692 62.979994,23.6740706 62.5240674,23.6740706 C61.901775,23.6740706 61.5700963,23.2236442 61.5700963,22.5869633 M67.5074082,23.6078942 L67.0809642,23.6078942 C67.0217359,23.6078942 66.9980445,23.5900159 66.97409,23.5419847 L66.1151474,22.0284665 L65.5997292,22.6349945 L65.5997292,23.5358473 C65.5997292,23.5838786 65.5818291,23.6078942 65.5286552,23.6078942 L65.137485,23.6078942 C65.0843111,23.6078942 65.066411,23.5838786 65.066411,23.5358473 L65.066411,19.1156379 C65.066411,19.073744 65.0843111,19.043591 65.137485,19.043591 L65.5286552,19.043591 C65.5818291,19.043591 65.5997292,19.073744 65.5997292,19.1156379 L65.5997292,21.9444118 L66.8972247,20.3828624 C66.9388162,20.3289607 66.97409,20.3108156 67.0333183,20.3108156 L67.4542344,20.3108156 C67.5192539,20.3108156 67.537154,20.3647173 67.501617,20.4068781 L66.4705174,21.6140636 L67.5605821,23.5056944 C67.5903279,23.559863 67.5605821,23.6078942 67.5074082,23.6078942 M27.4664185,1.28803808 L27.4664185,5.52199298 C27.4664185,5.58203204 27.4374624,5.612185 27.3729693,5.612185 L26.8299113,5.612185 C26.7772638,5.612185 26.7422533,5.58203204 26.713034,5.52786346 L25.4808213,3.04171247 C25.2765493,2.63317999 25.095179,2.18889091 24.9375,1.81638186 L24.9259176,1.81638186 C24.9435545,2.19476139 24.9551369,2.56113311 24.9551369,2.95765778 L24.9551369,5.53400079 C24.9551369,5.58816937 24.9375,5.612185 24.8851158,5.612185 L24.505528,5.612185 C24.4470894,5.612185 24.4236613,5.58816937 24.4236613,5.53400079 L24.4236613,1.30591638 C24.4236613,1.24587732 24.4528806,1.21572436 24.5171104,1.21572436 L25.1070247,1.21572436 C25.1654633,1.21572436 25.2002106,1.24587732 25.2236387,1.30591638 L26.4326865,3.78619689 C26.6311673,4.19472937 26.8064832,4.61500283 26.9641622,4.98751187 L26.9760078,4.98751187 C26.9465253,4.60913234 26.9349428,4.2366233 26.9349428,3.83449498 L26.9349428,1.28803808 C26.9349428,1.24000683 26.9525797,1.21572436 27.0107551,1.21572436 L27.3906062,1.21572436 C27.4429904,1.21572436 27.4664185,1.24000683 27.4664185,1.28803808 M30.2633123,4.60913234 L30.2633123,4.08078857 C30.0356122,4.06878075 29.8018577,4.06264343 29.5507295,4.08665905 C29.1069119,4.13469031 28.843938,4.29666236 28.843938,4.67504189 C28.843938,4.99951969 29.0603189,5.22179765 29.4338523,5.22179765 C29.8192313,5.22179765 30.1114245,4.98751187 30.2633123,4.60913234 L30.2633123,4.60913234 Z M30.7829422,3.28186874 L30.7829422,5.53987128 C30.7829422,5.58816937 30.7597774,5.612185 30.70713,5.612185 L30.3564982,5.612185 C30.304114,5.612185 30.2806859,5.58816937 30.2806859,5.53987128 L30.2806859,5.11372733 C30.076414,5.46195391 29.7318366,5.67195722 29.3230295,5.67195722 C28.7096871,5.67195722 28.3361537,5.26369158 28.3361537,4.70519485 C28.3361537,4.09866687 28.7331152,3.76831859 29.5041366,3.70827952 C29.7844841,3.68426389 30.0295578,3.69040122 30.2633123,3.70240903 L30.2633123,3.31789218 C30.2633123,2.88534406 30.0179753,2.70522687 29.6207506,2.70522687 C29.2295803,2.70522687 29.0661101,2.84932062 28.972661,3.13750814 C28.9550241,3.19781404 28.931596,3.20368453 28.8734206,3.19167672 L28.5288433,3.09561421 C28.4761958,3.0836064 28.458559,3.05372029 28.4761958,3.00542219 C28.5812274,2.5491253 28.9666065,2.2550673 29.6383875,2.2550673 C30.3275421,2.2550673 30.7829422,2.58514874 30.7829422,3.28186874 L30.7829422,3.28186874 Z M32.447127,1.54020216 L32.447127,2.33298466 L33.1302271,2.33298466 C33.1770833,2.33298466 33.2005114,2.35700029 33.2005114,2.41703935 L33.2005114,2.71136419 C33.2005114,2.76553277 33.1770833,2.7895484 33.1302271,2.7895484 L32.447127,2.7895484 L32.447127,4.69318703 C32.447127,4.98751187 32.5990147,5.12573515 32.8909446,5.12573515 L33.1246992,5.12573515 C33.1712921,5.12573515 33.2005114,5.14361344 33.2005114,5.19778202 L33.2005114,5.53400079 C33.2005114,5.58816937 33.1770833,5.612185 33.1246992,5.612185 L32.8151324,5.612185 C32.2425918,5.612185 31.9272338,5.29357769 31.9272338,4.7711044 L31.9272338,2.7895484 L31.4892073,2.7895484 C31.4484055,2.7895484 31.4249774,2.76553277 31.4249774,2.71136419 L31.4249774,2.41703935 C31.4249774,2.35700029 31.4484055,2.33298466 31.4892073,2.33298466 L31.9332882,2.33298466 L31.9332882,1.54020216 C31.9332882,1.49830823 31.9506619,1.46788844 32.0091005,1.46788844 L32.3713147,1.46788844 C32.4294901,1.46788844 32.447127,1.49830823 32.447127,1.54020216 M34.4510786,2.38715324 L34.4510786,5.53987128 C34.4510786,5.58816937 34.4336725,5.612185 34.3809269,5.612185 L34.0003671,5.612185 C33.9418194,5.612185 33.9244134,5.58816937 33.9244134,5.53987128 L33.9244134,2.38715324 C33.9244134,2.33885515 33.9418194,2.31483952 34.0003671,2.31483952 L34.3809269,2.31483952 C34.4336725,2.31483952 34.4510786,2.33885515 34.4510786,2.38715324 Z M34.4510786,1.137807 L34.4510786,1.72031935 C34.4510786,1.77448793 34.4276068,1.80437405 34.3632571,1.80437405 L34.0122349,1.80437405 C33.9478852,1.80437405 33.9244134,1.77448793 33.9244134,1.72031935 L33.9244134,1.137807 C33.9244134,1.08363842 33.9478852,1.05375231 34.0122349,1.05375231 L34.3632571,1.05375231 C34.4276068,1.05375231 34.4510786,1.08363842 34.4510786,1.137807 Z M35.8747368,3.55831528 L35.8747368,4.37484657 C35.8747368,4.90932767 36.149293,5.18550737 36.6397037,5.18550737 C37.1306408,5.18550737 37.410725,4.90932767 37.410725,4.37484657 L37.410725,3.55831528 C37.410725,3.02970466 37.1306408,2.73537982 36.6397037,2.73537982 C36.149293,2.73537982 35.8747368,3.02970466 35.8747368,3.55831528 Z M37.9364094,3.53429965 L37.9364094,4.39272487 C37.9364094,5.16149174 37.5044374,5.67809455 36.6397037,5.67809455 C35.7754964,5.67809455 35.3435244,5.16149174 35.3435244,4.40473268 L35.3435244,3.54604062 C35.3435244,2.77754059 35.7754964,2.24866313 36.6397037,2.24866313 C37.5044374,2.24866313 37.9364094,2.77754059 37.9364094,3.53429965 Z M39.354994,3.38993905 L39.354994,5.53987128 C39.354994,5.58816937 39.3376203,5.612185 39.2847097,5.612185 L38.9051218,5.612185 C38.8466832,5.612185 38.8293096,5.58816937 38.8293096,5.53987128 L38.8293096,2.38101591 C38.8293096,2.33885515 38.8466832,2.31483952 38.8993306,2.31483952 L39.2731273,2.31483952 C39.3257747,2.31483952 39.3431483,2.33885515 39.3431483,2.38101591 L39.3431483,2.81329719 C39.5534747,2.50723137 39.8922608,2.24866313 40.3418697,2.24866313 C40.9552121,2.24866313 41.2821525,2.69321905 41.2821525,3.33577047 L41.2821525,5.53987128 C41.2821525,5.58816937 41.2587244,5.612185 41.2063403,5.612185 L40.8267524,5.612185 C40.774105,5.612185 40.7509401,5.58816937 40.7509401,5.53987128 L40.7509401,3.42596249 C40.7509401,2.99955171 40.5640418,2.75325812 40.1607626,2.75325812 C39.8164486,2.75325812 39.5010906,3.01155952 39.354994,3.38993905 M43.9977061,4.60913234 L43.9977061,4.08078857 C43.7697428,4.06878075 43.5362515,4.06264343 43.2851233,4.08665905 C42.8413057,4.13469031 42.5783318,4.29666236 42.5783318,4.67504189 C42.5783318,4.99951969 42.7944495,5.22179765 43.1682461,5.22179765 C43.5536252,5.22179765 43.8458183,4.98751187 43.9977061,4.60913234 L43.9977061,4.60913234 Z M44.517336,3.28186874 L44.517336,5.53987128 C44.517336,5.58816937 44.4939079,5.612185 44.4415238,5.612185 L44.0911552,5.612185 C44.0385078,5.612185 44.0150797,5.58816937 44.0150797,5.53987128 L44.0150797,5.11372733 C43.8108078,5.46195391 43.4662304,5.67195722 43.05716,5.67195722 C42.4440809,5.67195722 42.0702843,5.26369158 42.0702843,4.70519485 C42.0702843,4.09866687 42.467509,3.76831859 43.2385304,3.70827952 C43.5186146,3.68426389 43.7639516,3.69040122 43.9977061,3.70240903 L43.9977061,3.31789218 C43.9977061,2.88534406 43.7523691,2.70522687 43.3551444,2.70522687 C42.9639741,2.70522687 42.8005039,2.84932062 42.7067915,3.13750814 C42.6894179,3.19781404 42.6659898,3.20368453 42.6075511,3.19167672 L42.2632371,3.09561421 C42.2105897,3.0836064 42.1929528,3.05372029 42.2105897,3.00542219 C42.3156212,2.5491253 42.7010003,2.2550673 43.3727813,2.2550673 C44.0619359,2.2550673 44.517336,2.58514874 44.517336,3.28186874 L44.517336,3.28186874 Z M46.0119961,1.1199287 L46.0119961,5.53987128 C46.0119961,5.58816937 45.9946224,5.612185 45.9417118,5.612185 L45.5621239,5.612185 C45.5036853,5.612185 45.4863117,5.58816937 45.4863117,5.53987128 L45.4863117,1.1199287 C45.4863117,1.07163061 45.5036853,1.04761498 45.5621239,1.04761498 L45.9417118,1.04761498 C45.9946224,1.04761498 46.0119961,1.07163061 46.0119961,1.1199287 M51.5244434,2.15286747 C51.5478715,2.21290653 51.5244434,2.24866313 51.4778505,2.26707511 L51.1274819,2.38101591 C51.0690433,2.40503154 51.039824,2.38715324 51.0166591,2.33298466 C50.8763538,1.90070339 50.5960063,1.67842543 50.1171781,1.67842543 C49.4804076,1.67842543 49.1242479,2.00877371 49.1242479,2.72924249 L49.1242479,4.09866687 C49.1242479,4.813532 49.4804076,5.14948393 50.1171781,5.14948393 C50.6836643,5.14948393 51.0574609,4.87944156 51.0574609,4.27878406 L51.0574609,3.7803264 L50.2337921,3.7803264 C50.1869359,3.7803264 50.1637711,3.76218126 50.1637711,3.70240903 L50.1637711,3.35391561 C50.1637711,3.30001388 50.1869359,3.27599825 50.2337921,3.27599825 L51.5070698,3.27599825 C51.559454,3.27599825 51.5889365,3.30588436 51.5889365,3.35391561 L51.5889365,4.30306653 C51.5889365,5.13160563 50.998759,5.67809455 50.1171781,5.67809455 C49.147676,5.67809455 48.5751354,5.11372733 48.5751354,4.14056079 L48.5751354,2.68734857 C48.5751354,1.70831154 49.147676,1.14981481 50.1171781,1.14981481 C50.8937274,1.14981481 51.3317539,1.55808046 51.5244434,2.15286747 M54.2336793,4.60913234 L54.2336793,4.08078857 C54.0059792,4.06878075 53.7722247,4.06264343 53.5210966,4.08665905 C53.0775421,4.13469031 52.8145683,4.29666236 52.8145683,4.67504189 C52.8145683,4.99951969 53.0306859,5.22179765 53.4044826,5.22179765 C53.7898616,5.22179765 54.0817915,4.98751187 54.2336793,4.60913234 L54.2336793,4.60913234 Z M54.7535725,3.28186874 L54.7535725,5.53987128 C54.7535725,5.58816937 54.7301444,5.612185 54.6777602,5.612185 L54.3271285,5.612185 C54.2747443,5.612185 54.2513162,5.58816937 54.2513162,5.53987128 L54.2513162,5.11372733 C54.046781,5.46195391 53.7024669,5.67195722 53.2933965,5.67195722 C52.6803174,5.67195722 52.3065208,5.26369158 52.3065208,4.70519485 C52.3065208,4.09866687 52.7037455,3.76831859 53.4747668,3.70827952 C53.7548511,3.68426389 54.000188,3.69040122 54.2336793,3.70240903 L54.2336793,3.31789218 C54.2336793,2.88534406 53.9886056,2.70522687 53.5913809,2.70522687 C53.2002106,2.70522687 53.0367404,2.84932062 52.943028,3.13750814 C52.9256543,3.19781404 52.9022262,3.20368453 52.8437876,3.19167672 L52.4994735,3.09561421 C52.4465629,3.0836064 52.4291892,3.05372029 52.4465629,3.00542219 C52.5518577,2.5491253 52.9372368,2.2550673 53.6087545,2.2550673 C54.2981724,2.2550673 54.7535725,2.58514874 54.7535725,3.28186874 L54.7535725,3.28186874 Z M57.1298135,2.24866313 C57.5738944,2.24866313 57.8131769,2.52510967 57.9126805,2.84345014 C58.1403806,2.48294891 58.4615298,2.24866313 58.8471721,2.24866313 C59.3725933,2.24866313 59.6997969,2.64545464 59.6997969,3.25785311 L59.6997969,5.53987128 C59.6997969,5.58816937 59.6705776,5.612185 59.6181934,5.612185 L59.2559792,5.612185 C59.2030686,5.612185 59.1741125,5.58816937 59.1741125,5.53987128 L59.1741125,3.37179391 C59.1741125,2.96939876 58.9987966,2.75325812 58.6834386,2.75325812 C58.3915087,2.75325812 58.1345894,2.96939876 57.9769103,3.35391561 L57.9769103,5.53987128 C57.9769103,5.58816937 57.9534823,5.612185 57.9068893,5.612185 L57.5154558,5.612185 C57.4628084,5.612185 57.4454347,5.58816937 57.4454347,5.53987128 L57.4454347,3.37179391 C57.4454347,2.96939876 57.27591,2.75325812 56.960552,2.75325812 C56.6394028,2.75325812 56.3824835,3.03557515 56.2482326,3.37793124 L56.2482326,5.53987128 C56.2482326,5.58816937 56.2305957,5.612185 56.1779483,5.612185 L55.7925692,5.612185 C55.7399218,5.612185 55.7225481,5.58816937 55.7225481,5.53987128 L55.7225481,2.38101591 C55.7225481,2.33885515 55.7399218,2.31483952 55.7925692,2.31483952 L56.1663658,2.31483952 C56.21875,2.31483952 56.2363869,2.33885515 56.2363869,2.38101591 L56.2363869,2.81329719 C56.4117028,2.52510967 56.7212696,2.24866313 57.1298135,2.24866313 M61.199985,3.58820139 L61.199985,4.35696827 C61.199985,4.90345718 61.5737816,5.18550737 61.9825887,5.18550737 C62.4440433,5.18550737 62.7185996,4.90932767 62.7185996,4.35696827 L62.7185996,3.58206406 C62.7185996,3.03557515 62.4440433,2.74125031 61.9825887,2.74125031 C61.5737816,2.74125031 61.199985,3.03557515 61.199985,3.58820139 L61.199985,3.58820139 Z M61.199985,1.1199287 L61.199985,2.76553277 C61.3400271,2.50723137 61.6614395,2.2550673 62.140531,2.2550673 C62.81784,2.2550673 63.249812,2.75325812 63.249812,3.51001718 L63.249812,4.42901515 C63.249812,5.18550737 62.81784,5.67195722 62.1226309,5.67809455 C61.6556483,5.67809455 61.3287079,5.42593047 61.1881393,5.16762907 L61.1881393,5.5460086 C61.1881393,5.59403986 61.153392,5.612185 61.1183815,5.612185 L60.7445848,5.612185 C60.6977286,5.612185 60.6743005,5.59403986 60.6743005,5.5460086 L60.6743005,1.1199287 C60.6743005,1.07776793 60.6977286,1.05375231 60.7385304,1.05375231 L61.1357551,1.05375231 C61.1826113,1.05375231 61.199985,1.07776793 61.199985,1.1199287 L61.199985,1.1199287 Z M64.6747142,1.1199287 L64.6747142,5.53987128 C64.6747142,5.58816937 64.6570773,5.612185 64.6044299,5.612185 L64.2248421,5.612185 C64.1664034,5.612185 64.1487665,5.58816937 64.1487665,5.53987128 L64.1487665,1.1199287 C64.1487665,1.07163061 64.1664034,1.04761498 64.2248421,1.04761498 L64.6044299,1.04761498 C64.6570773,1.04761498 64.6747142,1.07163061 64.6747142,1.1199287 M66.1937832,2.38715324 L66.1937832,5.53987128 C66.1937832,5.58816937 66.1763771,5.612185 66.1233677,5.612185 L65.7430717,5.612185 C65.684524,5.612185 65.6671179,5.58816937 65.6671179,5.53987128 L65.6671179,2.38715324 C65.6671179,2.33885515 65.684524,2.31483952 65.7430717,2.31483952 L66.1233677,2.31483952 C66.1763771,2.31483952 66.1937832,2.33885515 66.1937832,2.38715324 Z M66.1937832,1.137807 L66.1937832,1.72031935 C66.1937832,1.77448793 66.1703114,1.80437405 66.1059617,1.80437405 L65.7549394,1.80437405 C65.6905897,1.80437405 65.6671179,1.77448793 65.6671179,1.72031935 L65.6671179,1.137807 C65.6671179,1.08363842 65.6905897,1.05375231 65.7549394,1.05375231 L66.1059617,1.05375231 C66.1703114,1.05375231 66.1937832,1.08363842 66.1937832,1.137807 Z M67.7111537,3.38993905 L67.7111537,5.53987128 C67.7111537,5.58816937 67.6935168,5.612185 67.6408694,5.612185 L67.2612816,5.612185 C67.202843,5.612185 67.1854693,5.58816937 67.1854693,5.53987128 L67.1854693,2.38101591 C67.1854693,2.33885515 67.202843,2.31483952 67.2554904,2.31483952 L67.629287,2.31483952 C67.6816712,2.31483952 67.6993081,2.33885515 67.6993081,2.38101591 L67.6993081,2.81329719 C67.9096345,2.50723137 68.2484206,2.24866313 68.6980295,2.24866313 C69.3113718,2.24866313 69.6383123,2.69321905 69.6383123,3.33577047 L69.6383123,5.53987128 C69.6383123,5.58816937 69.6148842,5.612185 69.5625,5.612185 L69.1826489,5.612185 C69.1300015,5.612185 69.1068366,5.58816937 69.1068366,5.53987128 L69.1068366,3.42596249 C69.1068366,2.99955171 68.9199383,2.75325812 68.5169224,2.75325812 C68.1726083,2.75325812 67.8569871,3.01155952 67.7111537,3.38993905 M70.9695021,3.43797031 C70.9695021,3.88225939 71.2206303,4.1525686 71.6876128,4.1525686 C72.1140569,4.1525686 72.3767674,3.924687 72.3767674,3.45611545 C72.3767674,3.02383417 72.1490674,2.74125031 71.6760304,2.74125031 C71.2261582,2.74125031 70.9695021,2.99341438 70.9695021,3.43797031 L70.9695021,3.43797031 Z M72.6513237,5.91825081 C72.6513237,5.68396503 72.522864,5.46195391 72.049827,5.46195391 L71.4599128,5.46195391 C71.0158318,5.46195391 70.8818442,5.69010236 70.8818442,5.93025862 C70.8818442,6.2606069 71.1329723,6.47674754 71.7518427,6.47674754 C72.3767674,6.47674754 72.6513237,6.24886593 72.6513237,5.91825081 Z M73.1593712,5.88222737 C73.1593712,6.4228458 72.768201,6.87327221 71.7284146,6.87327221 C70.7649669,6.87327221 70.3911703,6.50103 70.3911703,5.9844272 C70.3911703,5.69010236 70.5427948,5.41392266 70.8699985,5.2698289 C70.7239019,5.15562126 70.6480897,4.99338236 70.6480897,4.8492886 C70.6480897,4.65716359 70.7649669,4.4770464 70.9750301,4.38685438 C70.6538809,4.19472937 70.4846194,3.86438109 70.4846194,3.44410763 C70.4846194,2.77140326 70.8876354,2.31483952 71.6818216,2.31483952 L73.083559,2.31483952 C73.1243607,2.31483952 73.1419976,2.33885515 73.1419976,2.38715324 L73.1419976,2.68121124 C73.1419976,2.73537982 73.112515,2.75912861 73.0717133,2.75912861 L72.5168096,2.75912861 C72.7037079,2.9034892 72.8440132,3.16179061 72.8440132,3.51588767 C72.8440132,4.12855298 72.4467885,4.56110109 71.6818216,4.56110109 L71.419111,4.56110109 C71.1972022,4.56110109 71.1034898,4.66303408 71.1034898,4.78924954 C71.1034898,4.91519816 71.2027301,5.01739799 71.419111,5.01739799 L72.1082656,5.01739799 C72.8616501,5.01739799 73.1593712,5.40191485 73.1593712,5.88222737 L73.1593712,5.88222737 Z M78.6136432,1.30591638 L78.6136432,5.52199298 C78.6136432,5.57589472 78.5902151,5.612185 78.5259853,5.612185 L77.7957656,5.612185 C77.7375903,5.612185 77.7025797,5.57589472 77.7025797,5.52199298 L77.7025797,3.84650279 L76.2308213,3.84650279 L76.2308213,5.52199298 C76.2308213,5.57589472 76.201602,5.612185 76.1431634,5.612185 L75.4071525,5.612185 C75.3547684,5.612185 75.3197578,5.57589472 75.3197578,5.52199298 L75.3197578,1.30591638 C75.3197578,1.25201464 75.3547684,1.21572436 75.4129437,1.21572436 L76.1431634,1.21572436 C76.201602,1.21572436 76.2308213,1.25201464 76.2308213,1.30591638 L76.2308213,2.98140657 L77.7025797,2.98140657 L77.7025797,1.30591638 C77.7025797,1.25201464 77.7375903,1.21572436 77.7957656,1.21572436 L78.5259853,1.21572436 C78.5902151,1.21572436 78.6136432,1.25201464 78.6136432,1.30591638 M80.2014892,3.522025 L80.2014892,3.6359658 L81.3286703,3.6359658 L81.3286703,3.522025 C81.3286703,3.19781404 81.1533544,2.94564997 80.7679753,2.94564997 C80.382333,2.94564997 80.2014892,3.19781404 80.2014892,3.522025 Z M80.2014892,4.22488232 L80.2014892,4.35083094 C80.2014892,4.69932436 80.3765418,4.94561795 80.7911402,4.94561795 C81.1941561,4.94561795 81.3052422,4.78924954 81.410537,4.59125404 C81.4629212,4.50106202 81.4863493,4.48905421 81.5797984,4.53094814 L82.0409898,4.7711044 C82.1347022,4.81940249 82.1402301,4.86743374 82.0994284,4.95762576 C81.9009477,5.41979315 81.4044826,5.68396503 80.7856122,5.68396503 C79.8511206,5.68396503 79.3604468,5.11372733 79.3604468,4.33295264 L79.3604468,3.56418576 C79.3604468,2.8074267 79.8216381,2.21290653 80.7795578,2.21290653 C81.6906212,2.21290653 82.1347022,2.8074267 82.1347022,3.54604062 L82.1347022,4.07465124 C82.1347022,4.16457642 82.1052196,4.22488232 81.9825511,4.22488232 L80.2014892,4.22488232 Z M83.7109657,1.10792089 L83.7109657,5.52199298 C83.7109657,5.57589472 83.6759552,5.612185 83.6233078,5.612185 L82.9165162,5.612185 C82.8583409,5.612185 82.8233303,5.57589472 82.8233303,5.52199298 L82.8233303,1.10792089 C82.8233303,1.05375231 82.8583409,1.01772887 82.9165162,1.01772887 L83.6233078,1.01772887 C83.6759552,1.01772887 83.7109657,1.05375231 83.7109657,1.10792089 M86.5020683,4.23075281 L86.5020683,3.64210313 C86.5020683,3.23970797 86.3385981,3.01155952 85.9648014,3.01155952 C85.6436522,3.01155952 85.4043697,3.23970797 85.4043697,3.64210313 L85.4043697,4.23075281 C85.4043697,4.64515578 85.6436522,4.88531204 85.9648014,4.88531204 C86.3385981,4.88531204 86.5020683,4.63314797 86.5020683,4.23075281 Z M84.6038658,6.81323314 C84.5456904,6.81323314 84.5164711,6.7772097 84.5164711,6.72891161 L84.5164711,2.36874126 C84.5164711,2.32097685 84.5456904,2.28495341 84.6038658,2.28495341 L85.2932837,2.28495341 C85.3459311,2.28495341 85.3748872,2.32097685 85.3748872,2.36874126 L85.3748872,2.67534076 C85.5033469,2.46507061 85.8189681,2.21290653 86.2569946,2.21290653 C86.9516772,2.21290653 87.3897037,2.72924249 87.3897037,3.51001718 L87.3897037,4.37484657 C87.3897037,5.14361344 86.9516772,5.68396503 86.2920051,5.68396503 C85.8363418,5.68396503 85.5209838,5.43767144 85.4043697,5.21566032 L85.4043697,6.72891161 C85.4043697,6.7772097 85.3748872,6.81323314 85.3167118,6.81323314 L84.6038658,6.81323314 Z M88.9954498,1.10792089 L88.9954498,5.52199298 C88.9954498,5.57589472 88.9604392,5.612185 88.9077918,5.612185 L88.2012635,5.612185 C88.1428249,5.612185 88.1078144,5.57589472 88.1078144,5.52199298 L88.1078144,1.10792089 C88.1078144,1.05375231 88.1428249,1.01772887 88.2012635,1.01772887 L88.9077918,1.01772887 C88.9604392,1.01772887 88.9954498,1.05375231 88.9954498,1.10792089 M90.6907732,2.37487859 L90.6907732,5.52199298 C90.6907732,5.57589472 90.6556973,5.612185 90.6029517,5.612185 L89.8948414,5.612185 C89.8362938,5.612185 89.8014816,5.57589472 89.8014816,5.52199298 L89.8014816,2.37487859 C89.8014816,2.32097685 89.8362938,2.28495341 89.8948414,2.28495341 L90.6029517,2.28495341 C90.6556973,2.28495341 90.6907732,2.32097685 90.6907732,2.37487859 Z M90.6907732,1.14981481 L90.6907732,1.71418203 C90.6907732,1.79236623 90.6438295,1.84039749 90.5678758,1.84039749 L89.9241153,1.84039749 C89.8478978,1.84039749 89.8014816,1.79236623 89.8014816,1.71418203 L89.8014816,1.14981481 C89.8014816,1.07163061 89.8478978,1.02359936 89.9241153,1.02359936 L90.5678758,1.02359936 C90.6438295,1.02359936 90.6907732,1.07163061 90.6907732,1.14981481 L90.6907732,1.14981481 Z M92.3822578,3.56418576 L92.3822578,5.52199298 C92.3822578,5.57589472 92.3475105,5.612185 92.2945999,5.612185 L91.5880716,5.612185 C91.529633,5.612185 91.4946224,5.57589472 91.4946224,5.52199298 L91.4946224,2.36874126 C91.4946224,2.32684734 91.5238418,2.28495341 91.5820171,2.28495341 L92.2653806,2.28495341 C92.3240824,2.28495341 92.3530385,2.32684734 92.3530385,2.36874126 L92.3530385,2.74712079 C92.545728,2.46507061 92.8671405,2.21290653 93.3109582,2.21290653 C93.9182461,2.21290653 94.2570322,2.68121124 94.2570322,3.37793124 L94.2570322,5.52199298 C94.2570322,5.58203204 94.2220217,5.612185 94.1693742,5.612185 L93.462846,5.612185 C93.4044073,5.612185 93.375188,5.57589472 93.375188,5.52199298 L93.375188,3.52789548 C93.375188,3.22770016 93.2290915,3.04171247 92.9605897,3.04171247 C92.6860334,3.04171247 92.4699158,3.25171578 92.3822578,3.56418576 M95.7806483,3.522025 L95.7806483,3.6359658 L96.9078294,3.6359658 L96.9078294,3.522025 C96.9078294,3.19781404 96.7325135,2.94564997 96.3471345,2.94564997 C95.9614922,2.94564997 95.7806483,3.19781404 95.7806483,3.522025 Z M95.7806483,4.22488232 L95.7806483,4.35083094 C95.7806483,4.69932436 95.955701,4.94561795 96.3702993,4.94561795 C96.7733153,4.94561795 96.8844013,4.78924954 96.9896961,4.59125404 C97.0420803,4.50106202 97.0655084,4.48905421 97.1589576,4.53094814 L97.6201489,4.7711044 C97.7138613,4.81940249 97.7193893,4.86743374 97.6785875,4.95762576 C97.4801068,5.41979315 96.9836417,5.68396503 96.3647714,5.68396503 C95.4302798,5.68396503 94.9396059,5.11372733 94.9396059,4.33295264 L94.9396059,3.56418576 C94.9396059,2.8074267 95.4010605,2.21290653 96.3587169,2.21290653 C97.2697804,2.21290653 97.7138613,2.8074267 97.7138613,3.54604062 L97.7138613,4.07465124 C97.7138613,4.16457642 97.6843788,4.22488232 97.5619735,4.22488232 L95.7806483,4.22488232 Z M28.0242178,13.7217283 L28.0242178,11.0794757 C28.0242178,10.2845585 27.6322578,9.88723329 26.9646886,9.88723329 C26.2757972,9.88723329 25.8943667,10.273618 25.8943667,11.0794757 L25.8943667,13.7217283 C25.8943667,14.5163787 26.2863267,14.9139707 26.9646886,14.9139707 C27.6427873,14.9139707 28.0242178,14.5270523 28.0242178,13.7217283 Z M24.2415012,13.7644227 L24.2415012,11.0362476 C24.2415012,9.39304507 25.2481197,8.34036013 26.9646886,8.34036013 C28.7023165,8.34036013 29.6770833,9.47896765 29.6770833,11.0362476 L29.6770833,13.7644227 C29.6770833,15.3219695 28.7023165,16.460577 26.9433664,16.460577 C25.2481197,16.460577 24.2415012,15.4078921 24.2415012,13.7644227 L24.2415012,13.7644227 Z M34.2855746,10.7034977 L34.2855746,10.5746139 C34.2855746,10.1127133 33.9781137,9.72606176 33.3105445,9.72606176 C32.6535048,9.72606176 32.3463072,10.1127133 32.3463072,10.5746139 L32.3463072,10.7034977 C32.3463072,11.1331106 32.6535048,11.5304358 33.3105445,11.6056848 C33.9781137,11.5304358 34.2855746,11.1331106 34.2855746,10.7034977 Z M34.3913959,14.0870326 L34.3913959,13.9149206 C34.3913959,13.4207324 34.0099654,13.00206 33.3105445,12.9161374 C32.6219164,13.00206 32.2404859,13.4207324 32.2404859,13.9149206 L32.2404859,14.0870326 C32.2404859,14.6132417 32.6219164,15.0212405 33.3105445,15.0212405 C34.0099654,15.0212405 34.3913959,14.6132417 34.3913959,14.0870326 Z M30.5873571,14.204976 L30.5873571,14.0544781 C30.5873571,13.0556949 31.1596345,12.4971982 31.8058815,12.2717181 C31.1914862,12.00301 30.7039711,11.4338396 30.7039711,10.5959611 L30.7039711,10.4670772 C30.7039711,9.28550844 31.5942389,8.34036013 33.3105445,8.34036013 C35.0379061,8.34036013 35.9279106,9.28550844 35.9279106,10.4780177 L35.9279106,10.6282488 C35.9279106,11.4124924 35.4403956,12.00301 34.8046781,12.2717181 C35.4722473,12.4971982 36.0442614,13.0343477 36.0442614,14.0544781 L36.0442614,14.204976 C36.0442614,15.5797372 34.9212921,16.460577 33.3105445,16.460577 C31.7105897,16.460577 30.5873571,15.5797372 30.5873571,14.204976 L30.5873571,14.204976 Z M40.737515,13.7217283 L40.737515,11.0794757 C40.737515,10.2845585 40.3455551,9.88723329 39.6779859,9.88723329 C38.9890945,9.88723329 38.607664,10.273618 38.607664,11.0794757 L38.607664,13.7217283 C38.607664,14.5163787 38.9996239,14.9139707 39.6779859,14.9139707 C40.3560845,14.9139707 40.737515,14.5270523 40.737515,13.7217283 L40.737515,13.7217283 Z M36.9547984,13.7644227 L36.9547984,11.0362476 C36.9547984,9.39304507 37.961417,8.34036013 39.6779859,8.34036013 C41.4156137,8.34036013 42.3903806,9.47896765 42.3903806,11.0362476 L42.3903806,13.7644227 C42.3903806,15.3219695 41.4156137,16.460577 39.6566637,16.460577 C37.961417,16.460577 36.9547984,15.4078921 36.9547984,13.7644227 Z M46.9988718,10.7034977 L46.9988718,10.5746139 C46.9988718,10.1127133 46.691411,9.72606176 46.0238418,9.72606176 C45.366802,9.72606176 45.0596044,10.1127133 45.0596044,10.5746139 L45.0596044,10.7034977 C45.0596044,11.1331106 45.366802,11.5304358 46.0238418,11.6056848 C46.691411,11.5304358 46.9988718,11.1331106 46.9988718,10.7034977 Z M47.1046931,14.0870326 L47.1046931,13.9149206 C47.1046931,13.4207324 46.7232626,13.00206 46.0238418,12.9161374 C45.3352136,13.00206 44.9535199,13.4207324 44.9535199,13.9149206 L44.9535199,14.0870326 C44.9535199,14.6132417 45.3352136,15.0212405 46.0238418,15.0212405 C46.7232626,15.0212405 47.1046931,14.6132417 47.1046931,14.0870326 Z M43.3006543,14.204976 L43.3006543,14.0544781 C43.3006543,13.0556949 43.8729317,12.4971982 44.5191787,12.2717181 C43.9047834,12.00301 43.4172684,11.4338396 43.4172684,10.5959611 L43.4172684,10.4670772 C43.4172684,9.28550844 44.3072729,8.34036013 46.0238418,8.34036013 C47.7509401,8.34036013 48.6412079,9.28550844 48.6412079,10.4780177 L48.6412079,10.6282488 C48.6412079,11.4124924 48.1536928,12.00301 47.5179753,12.2717181 C48.1855445,12.4971982 48.7575587,13.0343477 48.7575587,14.0544781 L48.7575587,14.204976 C48.7575587,15.5797372 47.6345894,16.460577 46.0238418,16.460577 C44.4238869,16.460577 43.3006543,15.5797372 43.3006543,14.204976 L43.3006543,14.204976 Z M55.7496616,10.7034977 L55.7496616,10.5746139 C55.7496616,10.1127133 55.4422007,9.72606176 54.7746315,9.72606176 C54.1175918,9.72606176 53.8103941,10.1127133 53.8103941,10.5746139 L53.8103941,10.7034977 C53.8103941,11.1331106 54.1175918,11.5304358 54.7746315,11.6056848 C55.4422007,11.5304358 55.7496616,11.1331106 55.7496616,10.7034977 Z M55.8554829,14.0870326 L55.8554829,13.9149206 C55.8554829,13.4207324 55.4740523,13.00206 54.7746315,12.9161374 C54.0860033,13.00206 53.7045728,13.4207324 53.7045728,13.9149206 L53.7045728,14.0870326 C53.7045728,14.6132417 54.0860033,15.0212405 54.7746315,15.0212405 C55.4740523,15.0212405 55.8554829,14.6132417 55.8554829,14.0870326 Z M52.051444,14.204976 L52.051444,14.0544781 C52.051444,13.0556949 52.6237214,12.4971982 53.2699684,12.2717181 C52.6555731,12.00301 52.1680581,11.4338396 52.1680581,10.5959611 L52.1680581,10.4670772 C52.1680581,9.28550844 53.0583258,8.34036013 54.7746315,8.34036013 C56.5019931,8.34036013 57.3919976,9.28550844 57.3919976,10.4780177 L57.3919976,10.6282488 C57.3919976,11.4124924 56.9044826,12.00301 56.268765,12.2717181 C56.9363342,12.4971982 57.5083484,13.0343477 57.5083484,14.0544781 L57.5083484,14.204976 C57.5083484,15.5797372 56.3853791,16.460577 54.7746315,16.460577 C53.1746766,16.460577 52.051444,15.5797372 52.051444,14.204976 L52.051444,14.204976 Z M62.201602,13.7217283 L62.201602,11.0794757 C62.201602,10.2845585 61.809642,9.88723329 61.1420728,9.88723329 C60.4531814,9.88723329 60.0717509,10.273618 60.0717509,11.0794757 L60.0717509,13.7217283 C60.0717509,14.5163787 60.4637109,14.9139707 61.1420728,14.9139707 C61.8201715,14.9139707 62.201602,14.5270523 62.201602,13.7217283 L62.201602,13.7217283 Z M58.4188854,13.7644227 L58.4188854,11.0362476 C58.4188854,9.39304507 59.4255039,8.34036013 61.1420728,8.34036013 C62.8797007,8.34036013 63.8544675,9.47896765 63.8544675,11.0362476 L63.8544675,13.7644227 C63.8544675,15.3219695 62.8797007,16.460577 61.1207506,16.460577 C59.4255039,16.460577 58.4188854,15.4078921 58.4188854,13.7644227 Z M70.0839726,10.7784799 C70.0945021,12.0136836 69.4377256,12.7656395 68.3250226,13.6894406 L67.0004137,14.7850868 L69.9886808,14.7850868 C70.1052948,14.7850868 70.1582055,14.8493953 70.1582055,14.9462584 L70.1582055,16.1705216 C70.1582055,16.2671178 70.1052948,16.3316932 69.9886808,16.3316932 L65.1780235,16.3316932 C65.0614094,16.3316932 64.9979693,16.2887319 64.9766471,16.1814621 L64.7752708,15.1181035 C64.7542118,14.9998933 64.7752708,14.9139707 64.8389741,14.8171077 L66.9793547,12.8945234 C68.1025872,11.8957402 68.4203144,11.4874745 68.4097849,10.8860165 C68.3992554,10.2522708 68.0072954,9.88723329 67.3926369,9.88723329 C66.7355972,9.88723329 66.4497217,10.3061725 66.301256,10.8537288 C66.2694043,10.9826127 66.184642,11.0362476 66.046969,10.9935531 L64.9237365,10.6605365 C64.8071224,10.6282488 64.7647413,10.5207121 64.796593,10.3811547 C65.0827316,9.24254715 65.8350632,8.34036013 67.4455475,8.34036013 C69.0986763,8.34036013 70.0734431,9.35008379 70.0839726,10.7784799 M74.9148992,13.7217283 L74.9148992,11.0794757 C74.9148992,10.2845585 74.5229392,9.88723329 73.8551068,9.88723329 C73.1664786,9.88723329 72.7850481,10.273618 72.7850481,11.0794757 L72.7850481,13.7217283 C72.7850481,14.5163787 73.1770081,14.9139707 73.8551068,14.9139707 C74.5334687,14.9139707 74.9148992,14.5270523 74.9148992,13.7217283 L74.9148992,13.7217283 Z M71.1321826,13.7644227 L71.1321826,11.0362476 C71.1321826,9.39304507 72.1385379,8.34036013 73.8551068,8.34036013 C75.5929979,8.34036013 76.5677647,9.47896765 76.5677647,11.0362476 L76.5677647,13.7644227 C76.5677647,15.3219695 75.5929979,16.460577 73.8340478,16.460577 C72.1385379,16.460577 71.1321826,15.4078921 71.1321826,13.7644227 L71.1321826,13.7644227 Z M85.424639,14.9353179 L85.424639,16.1705216 C85.424639,16.2457706 85.3717283,16.3316932 85.2761733,16.3316932 L80.5292193,16.3316932 C80.4339275,16.3316932 80.3810168,16.2457706 80.3810168,16.1705216 L80.3810168,14.9353179 C80.3810168,14.8710094 80.4339275,14.7850868 80.5292193,14.7850868 L82.1504964,14.7850868 L82.1504964,10.3704811 L80.58213,10.9935531 C80.4868381,11.025574 80.4020758,10.9935531 80.3702241,10.8860165 L79.935883,9.76902304 C79.9040313,9.67242686 79.9253535,9.58623745 80.0311748,9.543543 L82.3516095,8.57678063 C82.5000752,8.52287889 82.5956303,8.46924399 82.7438327,8.46924399 L83.5914561,8.46924399 C83.6975406,8.46924399 83.7504513,8.5335525 83.7504513,8.63041552 L83.7504513,14.7850868 L85.2761733,14.7850868 C85.3717283,14.7850868 85.424639,14.8710094 85.424639,14.9353179 M91.4846194,10.4564036 L91.4846194,10.5746139 C91.4846194,11.347917 91.0608078,11.9816627 90.308213,12.2394305 C91.1029257,12.4219492 91.6436146,13.0986562 91.6436146,14.0008432 L91.6436146,14.1297271 C91.6436146,15.55839 90.5203821,16.460577 88.8672533,16.460577 C87.2778279,16.460577 86.4196751,15.5477164 86.1335364,14.5163787 C86.1016847,14.3984352 86.1335364,14.3015722 86.2606799,14.2479373 L87.3202091,13.8719594 C87.4581453,13.8183245 87.5534371,13.8612857 87.6063478,14.0008432 C87.8395758,14.6239153 88.2210063,14.9782792 88.899105,14.9782792 C89.5879964,14.9782792 89.9904859,14.580954 89.9904859,14.0544781 L89.9904859,13.9472083 C89.9904859,13.3350767 89.640907,13.0127336 88.8143427,13.0127336 L88.1575662,13.0127336 C88.0514816,13.0127336 87.9877783,12.9590987 87.9877783,12.8515621 L87.9877783,11.7561827 C87.9877783,11.6486461 88.0514816,11.5843375 88.1575662,11.5843375 L88.8038132,11.5843375 C89.4924413,11.5843375 89.8633424,11.2726681 89.8633424,10.7355186 L89.8633424,10.6498628 C89.8633424,10.1017729 89.4608529,9.81198433 88.8143427,9.81198433 C88.2420653,9.81198433 87.9030159,10.0588116 87.6805806,10.5959611 C87.6381995,10.724845 87.5534371,10.7571326 87.4262936,10.6818837 L86.3983529,10.1447342 C86.3243833,10.1017729 86.2925316,10.0161172 86.3349128,9.8979069 C86.7374022,8.95249175 87.5005265,8.34036013 88.920164,8.34036013 C90.6156739,8.34036013 91.4846194,9.26416121 91.4846194,10.4564036 M97.8410048,10.4564036 L97.8410048,10.5746139 C97.8410048,11.347917 97.4171931,11.9816627 96.6648616,12.2394305 C97.4595743,12.4219492 98,13.0986562 98,14.0008432 L98,14.1297271 C98,15.55839 96.8767674,16.460577 95.2239019,16.460577 C93.6344765,16.460577 92.7760605,15.5477164 92.490185,14.5163787 C92.4583333,14.3984352 92.490185,14.3015722 92.6173285,14.2479373 L93.6768577,13.8719594 C93.8147939,13.8183245 93.9100857,13.8612857 93.9629964,14.0008432 C94.1962244,14.6239153 94.5776549,14.9782792 95.2557536,14.9782792 C95.9443818,14.9782792 96.3468712,14.580954 96.3468712,14.0544781 L96.3468712,13.9472083 C96.3468712,13.3350767 95.9972924,13.0127336 95.1709913,13.0127336 L94.5139516,13.0127336 C94.4081303,13.0127336 94.3444269,12.9590987 94.3444269,12.8515621 L94.3444269,11.7561827 C94.3444269,11.6486461 94.4081303,11.5843375 94.5139516,11.5843375 L95.1604618,11.5843375 C95.84909,11.5843375 96.219991,11.2726681 96.219991,10.7355186 L96.219991,10.6498628 C96.219991,10.1017729 95.8172383,9.81198433 95.1709913,9.81198433 C94.5987139,9.81198433 94.2596646,10.0588116 94.0372292,10.5959611 C93.9948481,10.724845 93.9100857,10.7571326 93.7829422,10.6818837 L92.7550015,10.1447342 C92.6810319,10.1017729 92.6491802,10.0161172 92.6915614,9.8979069 C93.0940508,8.95249175 93.8571751,8.34036013 95.2768126,8.34036013 C96.9720593,8.34036013 97.8410048,9.26416121 97.8410048,10.4564036"/>
</svg>
