<svg xmlns="http://www.w3.org/2000/svg" width="76" height="52" viewBox="0 0 76 52">
  <defs>
    <filter id="originalsicon-a" width="141.4%" height="170.6%" x="-20.7%" y="-35.3%" filterUnits="objectBoundingBox">
      <feOffset dy="2" in="SourceAlpha" result="shadowOffsetOuter1"/>
      <feGaussianBlur in="shadowOffsetOuter1" result="shadowBlurOuter1" stdDeviation="2"/>
      <feColorMatrix in="shadowBlurOuter1" result="shadowMatrixOuter1" values="0 0 0 0 0   0 0 0 0 0   0 0 0 0 0  0 0 0 0.7 0"/>
      <feMerge>
        <feMergeNode in="shadowMatrixOuter1"/>
        <feMergeNode in="SourceGraphic"/>
      </feMerge>
    </filter>
  </defs>
  <g fill="#28FFBB" filter="url(#originalsicon-a)" transform="translate(9 9)">
    <path d="M31.57,0 C34.627,0 37.468,0.754 40.092,2.263 C42.812,3.825 44.949,5.913 46.505,8.53 C48.0582896,11.0884633 48.8730409,14.0269671 48.8591785,17.02 C48.8591785,20.05 48.075,22.88 46.505,25.51 C44.99,28.06 42.94,30.089 40.356,31.597 C37.596,33.2 34.606,34 31.386,34 C28.451,34 25.63,33.24 22.924,31.717 C20.069,30.115 17.871,27.947 16.329,25.21 C16.123,24.843 15.932,24.47 15.756,24.09 L19.94,24.09 C20.554,25.07 21.312,25.977 22.214,26.812 C23.646056,28.15589 25.3477602,29.1795714 27.206,29.815 C28.626,30.309 30.034,30.555 31.427,30.555 C33.943,30.555 36.291,29.909 38.469,28.614 C40.607,27.345 42.257,25.664 43.421,23.568 C44.544,21.552 45.105,19.369 45.105,17.02 C45.105,13.175 43.718,9.912 40.945,7.228 C39.5375152,5.84280639 37.8291169,4.80140897 35.953,4.185 C34.464,3.691 32.996,3.445 31.549,3.445 C28.924,3.445 26.529,4.125 24.365,5.486 C22.39,6.728 20.841,8.343 19.718,10.332 C18.582,12.339 18,14.447 17.973,16.657 L14.22,16.657 L14.225,16.33 C14.2900686,13.7099247 15.0210188,11.1495341 16.349,8.89 C17.919,6.194 19.995,4.071 22.579,2.523 C25.379,0.841 28.376,0 31.569,0 L31.57,0 Z M30.758,18.209 L30.758,21.677 L0,21.677 L0,18.21 L30.758,18.21 L30.758,18.209 Z M58,18.209 L58,21.677 L53.606,21.677 L53.606,18.21 L58,18.21 L58,18.209 Z"/>
  </g>
</svg>
